<?xml version="1.0" encoding="utf-8" standalone="no"?>
<!DOCTYPE svg PUBLIC "-//W3C//DTD SVG 1.1//EN"
  "http://www.w3.org/Graphics/SVG/1.1/DTD/svg11.dtd">
<svg xmlns:xlink="http://www.w3.org/1999/xlink" width="432pt" height="432pt" viewBox="0 0 432 432" xmlns="http://www.w3.org/2000/svg" version="1.1">
 <metadata>
  <rdf:RDF xmlns:dc="http://purl.org/dc/elements/1.1/" xmlns:cc="http://creativecommons.org/ns#" xmlns:rdf="http://www.w3.org/1999/02/22-rdf-syntax-ns#">
   <cc:Work>
    <dc:type rdf:resource="http://purl.org/dc/dcmitype/StillImage"/>
    <dc:date>2025-05-23T22:58:01.858966</dc:date>
    <dc:format>image/svg+xml</dc:format>
    <dc:creator>
     <cc:Agent>
      <dc:title>Matplotlib v3.9.0.dev16+g5446a454e4, https://matplotlib.org/</dc:title>
     </cc:Agent>
    </dc:creator>
   </cc:Work>
  </rdf:RDF>
 </metadata>
 <defs>
  <style type="text/css">*{stroke-linejoin: round; stroke-linecap: butt}</style>
 </defs>
 <g id="figure_1">
  <g id="patch_1">
   <path d="M 0 432 
L 432 432 
L 432 0 
L 0 0 
z
" style="fill: #ffffff"/>
  </g>
  <g id="axes_1">
   <g id="patch_2">
    <path d="M 0 432 
L 432 432 
L 432 0 
L 0 0 
z
" style="fill: #ffffff"/>
   </g>
   <g id="matplotlib.axis_1">
    <g id="xtick_1">
     <g id="line2d_1">
      <path d="M 28.173913 432 
L 28.173913 0 
" clip-path="url(#p9209da0e2c)" style="fill: none; stroke: #808080; stroke-width: 0.5; stroke-linecap: square"/>
     </g>
     <g id="line2d_2">
      <defs>
       <path id="m62bacacaeb" d="M 0 0 
L 0 3.5 
" style="stroke: #000000; stroke-width: 0.8"/>
      </defs>
      <g>
       <use xlink:href="#m62bacacaeb" x="28.173913" y="216" style="stroke: #000000; stroke-width: 0.8"/>
      </g>
     </g>
     <g id="text_1">
      <!-- −1.0 -->
      <g transform="translate(15.905163 230.598437) scale(0.1 -0.1)">
       <defs>
        <path id="Verdana-2212" d="M 4550 1788 
L 688 1788 
L 688 2288 
L 4550 2288 
L 4550 1788 
z
" transform="scale(0.015625)"/>
        <path id="Verdana-31" d="M 3388 0 
L 869 0 
L 869 475 
L 1838 475 
L 1838 3594 
L 869 3594 
L 869 4019 
Q 1066 4019 1291 4051 
Q 1516 4084 1631 4147 
Q 1775 4225 1858 4345 
Q 1941 4466 1953 4669 
L 2438 4669 
L 2438 475 
L 3388 475 
L 3388 0 
z
" transform="scale(0.015625)"/>
        <path id="Verdana-2e" d="M 1538 0 
L 791 0 
L 791 891 
L 1538 891 
L 1538 0 
z
" transform="scale(0.015625)"/>
        <path id="Verdana-30" d="M 3647 2328 
Q 3647 1075 3255 489 
Q 2863 -97 2038 -97 
Q 1200 -97 814 497 
Q 428 1091 428 2322 
Q 428 3563 818 4155 
Q 1209 4747 2038 4747 
Q 2875 4747 3261 4145 
Q 3647 3544 3647 2328 
z
M 2825 909 
Q 2934 1163 2973 1505 
Q 3013 1847 3013 2328 
Q 3013 2803 2973 3153 
Q 2934 3503 2822 3747 
Q 2713 3988 2523 4109 
Q 2334 4231 2038 4231 
Q 1744 4231 1551 4109 
Q 1359 3988 1247 3741 
Q 1141 3509 1102 3137 
Q 1063 2766 1063 2322 
Q 1063 1834 1097 1506 
Q 1131 1178 1244 919 
Q 1347 675 1536 547 
Q 1725 419 2038 419 
Q 2331 419 2525 541 
Q 2719 663 2825 909 
z
" transform="scale(0.015625)"/>
       </defs>
       <use xlink:href="#Verdana-2212"/>
       <use xlink:href="#Verdana-31" x="81.835938"/>
       <use xlink:href="#Verdana-2e" x="145.410156"/>
       <use xlink:href="#Verdana-30" x="181.787109"/>
      </g>
     </g>
    </g>
    <g id="xtick_2">
     <g id="line2d_3">
      <path d="M 122.086957 432 
L 122.086957 0 
" clip-path="url(#p9209da0e2c)" style="fill: none; stroke: #808080; stroke-width: 0.5; stroke-linecap: square"/>
     </g>
     <g id="line2d_4">
      <g>
       <use xlink:href="#m62bacacaeb" x="122.086957" y="216" style="stroke: #000000; stroke-width: 0.8"/>
      </g>
     </g>
     <g id="text_2">
      <!-- −0.5 -->
      <g transform="translate(109.818207 230.598437) scale(0.1 -0.1)">
       <defs>
        <path id="Verdana-35" d="M 3616 1478 
Q 3616 1153 3497 856 
Q 3378 559 3172 356 
Q 2947 138 2636 20 
Q 2325 -97 1916 -97 
Q 1534 -97 1181 -17 
Q 828 63 584 175 
L 584 834 
L 628 834 
Q 884 672 1228 558 
Q 1572 444 1903 444 
Q 2125 444 2333 506 
Q 2541 569 2703 725 
Q 2841 859 2911 1046 
Q 2981 1234 2981 1481 
Q 2981 1722 2898 1887 
Q 2816 2053 2669 2153 
Q 2506 2272 2273 2320 
Q 2041 2369 1753 2369 
Q 1478 2369 1223 2331 
Q 969 2294 784 2256 
L 784 4653 
L 3584 4653 
L 3584 4106 
L 1388 4106 
L 1388 2869 
Q 1522 2881 1662 2887 
Q 1803 2894 1906 2894 
Q 2284 2894 2568 2830 
Q 2853 2766 3091 2603 
Q 3341 2431 3478 2159 
Q 3616 1888 3616 1478 
z
" transform="scale(0.015625)"/>
       </defs>
       <use xlink:href="#Verdana-2212"/>
       <use xlink:href="#Verdana-30" x="81.835938"/>
       <use xlink:href="#Verdana-2e" x="145.410156"/>
       <use xlink:href="#Verdana-35" x="181.787109"/>
      </g>
     </g>
    </g>
    <g id="xtick_3">
     <g id="line2d_5">
      <path d="M 309.913043 432 
L 309.913043 0 
" clip-path="url(#p9209da0e2c)" style="fill: none; stroke: #808080; stroke-width: 0.5; stroke-linecap: square"/>
     </g>
     <g id="line2d_6">
      <g>
       <use xlink:href="#m62bacacaeb" x="309.913043" y="216" style="stroke: #000000; stroke-width: 0.8"/>
      </g>
     </g>
     <g id="text_3">
      <!-- 0.5 -->
      <g transform="translate(301.736481 230.598437) scale(0.1 -0.1)">
       <use xlink:href="#Verdana-30"/>
       <use xlink:href="#Verdana-2e" x="63.574219"/>
       <use xlink:href="#Verdana-35" x="99.951172"/>
      </g>
     </g>
    </g>
    <g id="xtick_4">
     <g id="line2d_7">
      <path d="M 403.826087 432 
L 403.826087 0 
" clip-path="url(#p9209da0e2c)" style="fill: none; stroke: #808080; stroke-width: 0.5; stroke-linecap: square"/>
     </g>
     <g id="line2d_8">
      <g>
       <use xlink:href="#m62bacacaeb" x="403.826087" y="216" style="stroke: #000000; stroke-width: 0.8"/>
      </g>
     </g>
     <g id="text_4">
      <!-- 1.0 -->
      <g transform="translate(395.649524 230.598437) scale(0.1 -0.1)">
       <use xlink:href="#Verdana-31"/>
       <use xlink:href="#Verdana-2e" x="63.574219"/>
       <use xlink:href="#Verdana-30" x="99.951172"/>
      </g>
     </g>
    </g>
    <g id="xtick_5">
     <g id="line2d_9">
      <path d="M 9.391304 432 
L 9.391304 0 
" clip-path="url(#p9209da0e2c)" style="fill: none; stroke-dasharray: 0.2,0.33; stroke-dashoffset: 0; stroke: #d3d3d3; stroke-width: 0.2"/>
     </g>
     <g id="line2d_10">
      <defs>
       <path id="m5c653dbb49" d="M 0 0 
L 0 2 
" style="stroke: #000000; stroke-width: 0.6"/>
      </defs>
      <g>
       <use xlink:href="#m5c653dbb49" x="9.391304" y="216" style="stroke: #000000; stroke-width: 0.6"/>
      </g>
     </g>
    </g>
    <g id="xtick_6">
     <g id="line2d_11">
      <path d="M 46.956522 432 
L 46.956522 0 
" clip-path="url(#p9209da0e2c)" style="fill: none; stroke-dasharray: 0.2,0.33; stroke-dashoffset: 0; stroke: #d3d3d3; stroke-width: 0.2"/>
     </g>
     <g id="line2d_12">
      <g>
       <use xlink:href="#m5c653dbb49" x="46.956522" y="216" style="stroke: #000000; stroke-width: 0.6"/>
      </g>
     </g>
    </g>
    <g id="xtick_7">
     <g id="line2d_13">
      <path d="M 65.73913 432 
L 65.73913 0 
" clip-path="url(#p9209da0e2c)" style="fill: none; stroke-dasharray: 0.2,0.33; stroke-dashoffset: 0; stroke: #d3d3d3; stroke-width: 0.2"/>
     </g>
     <g id="line2d_14">
      <g>
       <use xlink:href="#m5c653dbb49" x="65.73913" y="216" style="stroke: #000000; stroke-width: 0.6"/>
      </g>
     </g>
    </g>
    <g id="xtick_8">
     <g id="line2d_15">
      <path d="M 84.521739 432 
L 84.521739 0 
" clip-path="url(#p9209da0e2c)" style="fill: none; stroke-dasharray: 0.2,0.33; stroke-dashoffset: 0; stroke: #d3d3d3; stroke-width: 0.2"/>
     </g>
     <g id="line2d_16">
      <g>
       <use xlink:href="#m5c653dbb49" x="84.521739" y="216" style="stroke: #000000; stroke-width: 0.6"/>
      </g>
     </g>
    </g>
    <g id="xtick_9">
     <g id="line2d_17">
      <path d="M 103.304348 432 
L 103.304348 0 
" clip-path="url(#p9209da0e2c)" style="fill: none; stroke-dasharray: 0.2,0.33; stroke-dashoffset: 0; stroke: #d3d3d3; stroke-width: 0.2"/>
     </g>
     <g id="line2d_18">
      <g>
       <use xlink:href="#m5c653dbb49" x="103.304348" y="216" style="stroke: #000000; stroke-width: 0.6"/>
      </g>
     </g>
    </g>
    <g id="xtick_10">
     <g id="line2d_19">
      <path d="M 140.869565 432 
L 140.869565 0 
" clip-path="url(#p9209da0e2c)" style="fill: none; stroke-dasharray: 0.2,0.33; stroke-dashoffset: 0; stroke: #d3d3d3; stroke-width: 0.2"/>
     </g>
     <g id="line2d_20">
      <g>
       <use xlink:href="#m5c653dbb49" x="140.869565" y="216" style="stroke: #000000; stroke-width: 0.6"/>
      </g>
     </g>
    </g>
    <g id="xtick_11">
     <g id="line2d_21">
      <path d="M 159.652174 432 
L 159.652174 0 
" clip-path="url(#p9209da0e2c)" style="fill: none; stroke-dasharray: 0.2,0.33; stroke-dashoffset: 0; stroke: #d3d3d3; stroke-width: 0.2"/>
     </g>
     <g id="line2d_22">
      <g>
       <use xlink:href="#m5c653dbb49" x="159.652174" y="216" style="stroke: #000000; stroke-width: 0.6"/>
      </g>
     </g>
    </g>
    <g id="xtick_12">
     <g id="line2d_23">
      <path d="M 178.434783 432 
L 178.434783 0 
" clip-path="url(#p9209da0e2c)" style="fill: none; stroke-dasharray: 0.2,0.33; stroke-dashoffset: 0; stroke: #d3d3d3; stroke-width: 0.2"/>
     </g>
     <g id="line2d_24">
      <g>
       <use xlink:href="#m5c653dbb49" x="178.434783" y="216" style="stroke: #000000; stroke-width: 0.6"/>
      </g>
     </g>
    </g>
    <g id="xtick_13">
     <g id="line2d_25">
      <path d="M 197.217391 432 
L 197.217391 0 
" clip-path="url(#p9209da0e2c)" style="fill: none; stroke-dasharray: 0.2,0.33; stroke-dashoffset: 0; stroke: #d3d3d3; stroke-width: 0.2"/>
     </g>
     <g id="line2d_26">
      <g>
       <use xlink:href="#m5c653dbb49" x="197.217391" y="216" style="stroke: #000000; stroke-width: 0.6"/>
      </g>
     </g>
    </g>
    <g id="xtick_14">
     <g id="line2d_27">
      <path d="M 216 432 
L 216 0 
" clip-path="url(#p9209da0e2c)" style="fill: none; stroke-dasharray: 0.2,0.33; stroke-dashoffset: 0; stroke: #d3d3d3; stroke-width: 0.2"/>
     </g>
     <g id="line2d_28">
      <g>
       <use xlink:href="#m5c653dbb49" x="216" y="216" style="stroke: #000000; stroke-width: 0.6"/>
      </g>
     </g>
    </g>
    <g id="xtick_15">
     <g id="line2d_29">
      <path d="M 234.782609 432 
L 234.782609 0 
" clip-path="url(#p9209da0e2c)" style="fill: none; stroke-dasharray: 0.2,0.33; stroke-dashoffset: 0; stroke: #d3d3d3; stroke-width: 0.2"/>
     </g>
     <g id="line2d_30">
      <g>
       <use xlink:href="#m5c653dbb49" x="234.782609" y="216" style="stroke: #000000; stroke-width: 0.6"/>
      </g>
     </g>
    </g>
    <g id="xtick_16">
     <g id="line2d_31">
      <path d="M 253.565217 432 
L 253.565217 0 
" clip-path="url(#p9209da0e2c)" style="fill: none; stroke-dasharray: 0.2,0.33; stroke-dashoffset: 0; stroke: #d3d3d3; stroke-width: 0.2"/>
     </g>
     <g id="line2d_32">
      <g>
       <use xlink:href="#m5c653dbb49" x="253.565217" y="216" style="stroke: #000000; stroke-width: 0.6"/>
      </g>
     </g>
    </g>
    <g id="xtick_17">
     <g id="line2d_33">
      <path d="M 272.347826 432 
L 272.347826 0 
" clip-path="url(#p9209da0e2c)" style="fill: none; stroke-dasharray: 0.2,0.33; stroke-dashoffset: 0; stroke: #d3d3d3; stroke-width: 0.2"/>
     </g>
     <g id="line2d_34">
      <g>
       <use xlink:href="#m5c653dbb49" x="272.347826" y="216" style="stroke: #000000; stroke-width: 0.6"/>
      </g>
     </g>
    </g>
    <g id="xtick_18">
     <g id="line2d_35">
      <path d="M 291.130435 432 
L 291.130435 0 
" clip-path="url(#p9209da0e2c)" style="fill: none; stroke-dasharray: 0.2,0.33; stroke-dashoffset: 0; stroke: #d3d3d3; stroke-width: 0.2"/>
     </g>
     <g id="line2d_36">
      <g>
       <use xlink:href="#m5c653dbb49" x="291.130435" y="216" style="stroke: #000000; stroke-width: 0.6"/>
      </g>
     </g>
    </g>
    <g id="xtick_19">
     <g id="line2d_37">
      <path d="M 328.695652 432 
L 328.695652 0 
" clip-path="url(#p9209da0e2c)" style="fill: none; stroke-dasharray: 0.2,0.33; stroke-dashoffset: 0; stroke: #d3d3d3; stroke-width: 0.2"/>
     </g>
     <g id="line2d_38">
      <g>
       <use xlink:href="#m5c653dbb49" x="328.695652" y="216" style="stroke: #000000; stroke-width: 0.6"/>
      </g>
     </g>
    </g>
    <g id="xtick_20">
     <g id="line2d_39">
      <path d="M 347.478261 432 
L 347.478261 0 
" clip-path="url(#p9209da0e2c)" style="fill: none; stroke-dasharray: 0.2,0.33; stroke-dashoffset: 0; stroke: #d3d3d3; stroke-width: 0.2"/>
     </g>
     <g id="line2d_40">
      <g>
       <use xlink:href="#m5c653dbb49" x="347.478261" y="216" style="stroke: #000000; stroke-width: 0.6"/>
      </g>
     </g>
    </g>
    <g id="xtick_21">
     <g id="line2d_41">
      <path d="M 366.26087 432 
L 366.26087 0 
" clip-path="url(#p9209da0e2c)" style="fill: none; stroke-dasharray: 0.2,0.33; stroke-dashoffset: 0; stroke: #d3d3d3; stroke-width: 0.2"/>
     </g>
     <g id="line2d_42">
      <g>
       <use xlink:href="#m5c653dbb49" x="366.26087" y="216" style="stroke: #000000; stroke-width: 0.6"/>
      </g>
     </g>
    </g>
    <g id="xtick_22">
     <g id="line2d_43">
      <path d="M 385.043478 432 
L 385.043478 0 
" clip-path="url(#p9209da0e2c)" style="fill: none; stroke-dasharray: 0.2,0.33; stroke-dashoffset: 0; stroke: #d3d3d3; stroke-width: 0.2"/>
     </g>
     <g id="line2d_44">
      <g>
       <use xlink:href="#m5c653dbb49" x="385.043478" y="216" style="stroke: #000000; stroke-width: 0.6"/>
      </g>
     </g>
    </g>
    <g id="xtick_23">
     <g id="line2d_45">
      <path d="M 422.608696 432 
L 422.608696 0 
" clip-path="url(#p9209da0e2c)" style="fill: none; stroke-dasharray: 0.2,0.33; stroke-dashoffset: 0; stroke: #d3d3d3; stroke-width: 0.2"/>
     </g>
     <g id="line2d_46">
      <g>
       <use xlink:href="#m5c653dbb49" x="422.608696" y="216" style="stroke: #000000; stroke-width: 0.6"/>
      </g>
     </g>
    </g>
   </g>
   <g id="matplotlib.axis_2">
    <g id="ytick_1">
     <g id="line2d_47">
      <path d="M 0 403.826087 
L 432 403.826087 
" clip-path="url(#p9209da0e2c)" style="fill: none; stroke: #808080; stroke-width: 0.5; stroke-linecap: square"/>
     </g>
     <g id="line2d_48">
      <defs>
       <path id="m1aada16255" d="M 0 0 
L -3.5 0 
" style="stroke: #000000; stroke-width: 0.8"/>
      </defs>
      <g>
       <use xlink:href="#m1aada16255" x="216" y="403.826087" style="stroke: #000000; stroke-width: 0.8"/>
      </g>
     </g>
     <g id="text_5">
      <!-- −1.0 -->
      <g transform="translate(184.4625 407.625306) scale(0.1 -0.1)">
       <use xlink:href="#Verdana-2212"/>
       <use xlink:href="#Verdana-31" x="81.835938"/>
       <use xlink:href="#Verdana-2e" x="145.410156"/>
       <use xlink:href="#Verdana-30" x="181.787109"/>
      </g>
     </g>
    </g>
    <g id="ytick_2">
     <g id="line2d_49">
      <path d="M 0 309.913043 
L 432 309.913043 
" clip-path="url(#p9209da0e2c)" style="fill: none; stroke: #808080; stroke-width: 0.5; stroke-linecap: square"/>
     </g>
     <g id="line2d_50">
      <g>
       <use xlink:href="#m1aada16255" x="216" y="309.913043" style="stroke: #000000; stroke-width: 0.8"/>
      </g>
     </g>
     <g id="text_6">
      <!-- −0.5 -->
      <g transform="translate(184.4625 313.712262) scale(0.1 -0.1)">
       <use xlink:href="#Verdana-2212"/>
       <use xlink:href="#Verdana-30" x="81.835938"/>
       <use xlink:href="#Verdana-2e" x="145.410156"/>
       <use xlink:href="#Verdana-35" x="181.787109"/>
      </g>
     </g>
    </g>
    <g id="ytick_3">
     <g id="line2d_51">
      <path d="M 0 122.086957 
L 432 122.086957 
" clip-path="url(#p9209da0e2c)" style="fill: none; stroke: #808080; stroke-width: 0.5; stroke-linecap: square"/>
     </g>
     <g id="line2d_52">
      <g>
       <use xlink:href="#m1aada16255" x="216" y="122.086957" style="stroke: #000000; stroke-width: 0.8"/>
      </g>
     </g>
     <g id="text_7">
      <!-- 0.5 -->
      <g transform="translate(192.646875 125.886175) scale(0.1 -0.1)">
       <use xlink:href="#Verdana-30"/>
       <use xlink:href="#Verdana-2e" x="63.574219"/>
       <use xlink:href="#Verdana-35" x="99.951172"/>
      </g>
     </g>
    </g>
    <g id="ytick_4">
     <g id="line2d_53">
      <path d="M 0 28.173913 
L 432 28.173913 
" clip-path="url(#p9209da0e2c)" style="fill: none; stroke: #808080; stroke-width: 0.5; stroke-linecap: square"/>
     </g>
     <g id="line2d_54">
      <g>
       <use xlink:href="#m1aada16255" x="216" y="28.173913" style="stroke: #000000; stroke-width: 0.8"/>
      </g>
     </g>
     <g id="text_8">
      <!-- 1.0 -->
      <g transform="translate(192.646875 31.973132) scale(0.1 -0.1)">
       <use xlink:href="#Verdana-31"/>
       <use xlink:href="#Verdana-2e" x="63.574219"/>
       <use xlink:href="#Verdana-30" x="99.951172"/>
      </g>
     </g>
    </g>
    <g id="ytick_5">
     <g id="line2d_55">
      <path d="M 0 422.608696 
L 432 422.608696 
" clip-path="url(#p9209da0e2c)" style="fill: none; stroke-dasharray: 0.2,0.33; stroke-dashoffset: 0; stroke: #d3d3d3; stroke-width: 0.2"/>
     </g>
     <g id="line2d_56">
      <defs>
       <path id="mdbfeccd683" d="M 0 0 
L -2 0 
" style="stroke: #000000; stroke-width: 0.6"/>
      </defs>
      <g>
       <use xlink:href="#mdbfeccd683" x="216" y="422.608696" style="stroke: #000000; stroke-width: 0.6"/>
      </g>
     </g>
    </g>
    <g id="ytick_6">
     <g id="line2d_57">
      <path d="M 0 385.043478 
L 432 385.043478 
" clip-path="url(#p9209da0e2c)" style="fill: none; stroke-dasharray: 0.2,0.33; stroke-dashoffset: 0; stroke: #d3d3d3; stroke-width: 0.2"/>
     </g>
     <g id="line2d_58">
      <g>
       <use xlink:href="#mdbfeccd683" x="216" y="385.043478" style="stroke: #000000; stroke-width: 0.6"/>
      </g>
     </g>
    </g>
    <g id="ytick_7">
     <g id="line2d_59">
      <path d="M 0 366.26087 
L 432 366.26087 
" clip-path="url(#p9209da0e2c)" style="fill: none; stroke-dasharray: 0.2,0.33; stroke-dashoffset: 0; stroke: #d3d3d3; stroke-width: 0.2"/>
     </g>
     <g id="line2d_60">
      <g>
       <use xlink:href="#mdbfeccd683" x="216" y="366.26087" style="stroke: #000000; stroke-width: 0.6"/>
      </g>
     </g>
    </g>
    <g id="ytick_8">
     <g id="line2d_61">
      <path d="M 0 347.478261 
L 432 347.478261 
" clip-path="url(#p9209da0e2c)" style="fill: none; stroke-dasharray: 0.2,0.33; stroke-dashoffset: 0; stroke: #d3d3d3; stroke-width: 0.2"/>
     </g>
     <g id="line2d_62">
      <g>
       <use xlink:href="#mdbfeccd683" x="216" y="347.478261" style="stroke: #000000; stroke-width: 0.6"/>
      </g>
     </g>
    </g>
    <g id="ytick_9">
     <g id="line2d_63">
      <path d="M 0 328.695652 
L 432 328.695652 
" clip-path="url(#p9209da0e2c)" style="fill: none; stroke-dasharray: 0.2,0.33; stroke-dashoffset: 0; stroke: #d3d3d3; stroke-width: 0.2"/>
     </g>
     <g id="line2d_64">
      <g>
       <use xlink:href="#mdbfeccd683" x="216" y="328.695652" style="stroke: #000000; stroke-width: 0.6"/>
      </g>
     </g>
    </g>
    <g id="ytick_10">
     <g id="line2d_65">
      <path d="M 0 291.130435 
L 432 291.130435 
" clip-path="url(#p9209da0e2c)" style="fill: none; stroke-dasharray: 0.2,0.33; stroke-dashoffset: 0; stroke: #d3d3d3; stroke-width: 0.2"/>
     </g>
     <g id="line2d_66">
      <g>
       <use xlink:href="#mdbfeccd683" x="216" y="291.130435" style="stroke: #000000; stroke-width: 0.6"/>
      </g>
     </g>
    </g>
    <g id="ytick_11">
     <g id="line2d_67">
      <path d="M 0 272.347826 
L 432 272.347826 
" clip-path="url(#p9209da0e2c)" style="fill: none; stroke-dasharray: 0.2,0.33; stroke-dashoffset: 0; stroke: #d3d3d3; stroke-width: 0.2"/>
     </g>
     <g id="line2d_68">
      <g>
       <use xlink:href="#mdbfeccd683" x="216" y="272.347826" style="stroke: #000000; stroke-width: 0.6"/>
      </g>
     </g>
    </g>
    <g id="ytick_12">
     <g id="line2d_69">
      <path d="M 0 253.565217 
L 432 253.565217 
" clip-path="url(#p9209da0e2c)" style="fill: none; stroke-dasharray: 0.2,0.33; stroke-dashoffset: 0; stroke: #d3d3d3; stroke-width: 0.2"/>
     </g>
     <g id="line2d_70">
      <g>
       <use xlink:href="#mdbfeccd683" x="216" y="253.565217" style="stroke: #000000; stroke-width: 0.6"/>
      </g>
     </g>
    </g>
    <g id="ytick_13">
     <g id="line2d_71">
      <path d="M 0 234.782609 
L 432 234.782609 
" clip-path="url(#p9209da0e2c)" style="fill: none; stroke-dasharray: 0.2,0.33; stroke-dashoffset: 0; stroke: #d3d3d3; stroke-width: 0.2"/>
     </g>
     <g id="line2d_72">
      <g>
       <use xlink:href="#mdbfeccd683" x="216" y="234.782609" style="stroke: #000000; stroke-width: 0.6"/>
      </g>
     </g>
    </g>
    <g id="ytick_14">
     <g id="line2d_73">
      <path d="M 0 216 
L 432 216 
" clip-path="url(#p9209da0e2c)" style="fill: none; stroke-dasharray: 0.2,0.33; stroke-dashoffset: 0; stroke: #d3d3d3; stroke-width: 0.2"/>
     </g>
     <g id="line2d_74">
      <g>
       <use xlink:href="#mdbfeccd683" x="216" y="216" style="stroke: #000000; stroke-width: 0.6"/>
      </g>
     </g>
    </g>
    <g id="ytick_15">
     <g id="line2d_75">
      <path d="M 0 197.217391 
L 432 197.217391 
" clip-path="url(#p9209da0e2c)" style="fill: none; stroke-dasharray: 0.2,0.33; stroke-dashoffset: 0; stroke: #d3d3d3; stroke-width: 0.2"/>
     </g>
     <g id="line2d_76">
      <g>
       <use xlink:href="#mdbfeccd683" x="216" y="197.217391" style="stroke: #000000; stroke-width: 0.6"/>
      </g>
     </g>
    </g>
    <g id="ytick_16">
     <g id="line2d_77">
      <path d="M 0 178.434783 
L 432 178.434783 
" clip-path="url(#p9209da0e2c)" style="fill: none; stroke-dasharray: 0.2,0.33; stroke-dashoffset: 0; stroke: #d3d3d3; stroke-width: 0.2"/>
     </g>
     <g id="line2d_78">
      <g>
       <use xlink:href="#mdbfeccd683" x="216" y="178.434783" style="stroke: #000000; stroke-width: 0.6"/>
      </g>
     </g>
    </g>
    <g id="ytick_17">
     <g id="line2d_79">
      <path d="M 0 159.652174 
L 432 159.652174 
" clip-path="url(#p9209da0e2c)" style="fill: none; stroke-dasharray: 0.2,0.33; stroke-dashoffset: 0; stroke: #d3d3d3; stroke-width: 0.2"/>
     </g>
     <g id="line2d_80">
      <g>
       <use xlink:href="#mdbfeccd683" x="216" y="159.652174" style="stroke: #000000; stroke-width: 0.6"/>
      </g>
     </g>
    </g>
    <g id="ytick_18">
     <g id="line2d_81">
      <path d="M 0 140.869565 
L 432 140.869565 
" clip-path="url(#p9209da0e2c)" style="fill: none; stroke-dasharray: 0.2,0.33; stroke-dashoffset: 0; stroke: #d3d3d3; stroke-width: 0.2"/>
     </g>
     <g id="line2d_82">
      <g>
       <use xlink:href="#mdbfeccd683" x="216" y="140.869565" style="stroke: #000000; stroke-width: 0.6"/>
      </g>
     </g>
    </g>
    <g id="ytick_19">
     <g id="line2d_83">
      <path d="M 0 103.304348 
L 432 103.304348 
" clip-path="url(#p9209da0e2c)" style="fill: none; stroke-dasharray: 0.2,0.33; stroke-dashoffset: 0; stroke: #d3d3d3; stroke-width: 0.2"/>
     </g>
     <g id="line2d_84">
      <g>
       <use xlink:href="#mdbfeccd683" x="216" y="103.304348" style="stroke: #000000; stroke-width: 0.6"/>
      </g>
     </g>
    </g>
    <g id="ytick_20">
     <g id="line2d_85">
      <path d="M 0 84.521739 
L 432 84.521739 
" clip-path="url(#p9209da0e2c)" style="fill: none; stroke-dasharray: 0.2,0.33; stroke-dashoffset: 0; stroke: #d3d3d3; stroke-width: 0.2"/>
     </g>
     <g id="line2d_86">
      <g>
       <use xlink:href="#mdbfeccd683" x="216" y="84.521739" style="stroke: #000000; stroke-width: 0.6"/>
      </g>
     </g>
    </g>
    <g id="ytick_21">
     <g id="line2d_87">
      <path d="M 0 65.73913 
L 432 65.73913 
" clip-path="url(#p9209da0e2c)" style="fill: none; stroke-dasharray: 0.2,0.33; stroke-dashoffset: 0; stroke: #d3d3d3; stroke-width: 0.2"/>
     </g>
     <g id="line2d_88">
      <g>
       <use xlink:href="#mdbfeccd683" x="216" y="65.73913" style="stroke: #000000; stroke-width: 0.6"/>
      </g>
     </g>
    </g>
    <g id="ytick_22">
     <g id="line2d_89">
      <path d="M 0 46.956522 
L 432 46.956522 
" clip-path="url(#p9209da0e2c)" style="fill: none; stroke-dasharray: 0.2,0.33; stroke-dashoffset: 0; stroke: #d3d3d3; stroke-width: 0.2"/>
     </g>
     <g id="line2d_90">
      <g>
       <use xlink:href="#mdbfeccd683" x="216" y="46.956522" style="stroke: #000000; stroke-width: 0.6"/>
      </g>
     </g>
    </g>
    <g id="ytick_23">
     <g id="line2d_91">
      <path d="M 0 9.391304 
L 432 9.391304 
" clip-path="url(#p9209da0e2c)" style="fill: none; stroke-dasharray: 0.2,0.33; stroke-dashoffset: 0; stroke: #d3d3d3; stroke-width: 0.2"/>
     </g>
     <g id="line2d_92">
      <g>
       <use xlink:href="#mdbfeccd683" x="216" y="9.391304" style="stroke: #000000; stroke-width: 0.6"/>
      </g>
     </g>
    </g>
   </g>
   <g id="line2d_93">
    <path d="M 0 216 
L 432 216 
" clip-path="url(#p9209da0e2c)" style="fill: none; stroke: #000000; stroke-width: 0.1; stroke-linecap: square"/>
   </g>
   <g id="line2d_94">
    <path d="M 216 432 
L 216 0 
" clip-path="url(#p9209da0e2c)" style="fill: none; stroke: #000000; stroke-width: 0.1; stroke-linecap: square"/>
   </g>
   <g id="patch_3">
    <path d="M 216 432 
L 216 0 
" style="fill: none; stroke: #000000; stroke-width: 0.8; stroke-linejoin: miter; stroke-linecap: square"/>
   </g>
   <g id="patch_4">
    <path d="M 432 432 
L 432 0 
" style="fill: none"/>
   </g>
   <g id="patch_5">
    <path d="M 0 216 
L 432 216 
" style="fill: none; stroke: #000000; stroke-width: 0.8; stroke-linejoin: miter; stroke-linecap: square"/>
   </g>
   <g id="patch_6">
    <path d="M 0 0 
L 432 0 
" style="fill: none"/>
   </g>
   <g id="text_9">
    <!-- $O$ -->
    <g transform="translate(201.988696 234.782609) scale(0.12 -0.12)">
     <defs>
      <path id="Cmmi10-4f" d="M 1947 -141 
Q 1466 -141 1094 79 
Q 722 300 520 692 
Q 319 1084 319 1563 
Q 319 2259 714 2950 
Q 1109 3641 1756 4077 
Q 2403 4513 3109 4513 
Q 3475 4513 3778 4381 
Q 4081 4250 4290 4017 
Q 4500 3784 4614 3471 
Q 4728 3159 4728 2791 
Q 4728 2263 4503 1739 
Q 4278 1216 3879 786 
Q 3481 356 2984 107 
Q 2488 -141 1947 -141 
z
M 1997 50 
Q 2463 50 2866 345 
Q 3269 641 3553 1108 
Q 3838 1575 3989 2089 
Q 4141 2603 4141 3047 
Q 4141 3394 4022 3683 
Q 3903 3972 3656 4148 
Q 3409 4325 3066 4325 
Q 2728 4325 2409 4162 
Q 2091 4000 1831 3731 
Q 1566 3459 1359 3057 
Q 1153 2656 1047 2214 
Q 941 1772 941 1381 
Q 941 838 1208 444 
Q 1475 50 1997 50 
z
" transform="scale(0.015625)"/>
     </defs>
     <use xlink:href="#Cmmi10-4f" transform="translate(0 0.484375)"/>
    </g>
   </g>
   <g id="patch_7">
    <path d="M 407.81048 24.18952 
L 405.818283 30.16611 
L 404.490152 28.837979 
L 216.664065 216.664065 
L 215.335935 215.335935 
L 403.162021 27.509848 
L 401.83389 26.181717 
z
" clip-path="url(#p9209da0e2c)" style="fill: #00629b; stroke: #00629b; stroke-linejoin: miter"/>
   </g>
   <g id="patch_8">
    <path d="M 23.13401 119.567005 
L 29.433889 119.567005 
L 28.593905 121.246973 
L 216.419992 215.160016 
L 215.580008 216.839984 
L 27.753921 122.92694 
L 26.913937 124.606908 
z
" clip-path="url(#p9209da0e2c)" style="fill: #c5003e; stroke: #c5003e; stroke-linejoin: miter"/>
   </g>
   <g id="text_10">
    <!-- $u$ -->
    <g style="fill: #00629b" transform="translate(414.212174 13.147826) scale(0.16 -0.16)">
     <defs>
      <path id="Cmmi10-75" d="M 678 697 
Q 678 906 734 1126 
Q 791 1347 892 1617 
Q 994 1888 1069 2088 
Q 1153 2322 1153 2472 
Q 1153 2663 1013 2663 
Q 759 2663 595 2402 
Q 431 2141 353 1819 
Q 341 1778 300 1778 
L 225 1778 
Q 172 1778 172 1838 
L 172 1856 
Q 275 2238 487 2533 
Q 700 2828 1025 2828 
Q 1253 2828 1411 2678 
Q 1569 2528 1569 2297 
Q 1569 2178 1516 2047 
Q 1488 1969 1388 1706 
Q 1288 1444 1234 1272 
Q 1181 1100 1147 934 
Q 1113 769 1113 603 
Q 1113 391 1203 244 
Q 1294 97 1497 97 
Q 1906 97 2216 603 
Q 2222 628 2226 651 
Q 2231 675 2234 697 
L 2694 2553 
Q 2716 2638 2794 2698 
Q 2872 2759 2963 2759 
Q 3041 2759 3098 2709 
Q 3156 2659 3156 2578 
Q 3156 2541 3150 2528 
L 2688 684 
Q 2644 494 2644 372 
Q 2644 97 2828 97 
Q 3034 97 3136 351 
Q 3238 606 3309 941 
Q 3322 978 3359 978 
L 3438 978 
Q 3463 978 3478 956 
Q 3494 934 3494 916 
Q 3425 641 3361 444 
Q 3297 247 3159 87 
Q 3022 -72 2816 -72 
Q 2613 -72 2452 39 
Q 2291 150 2234 341 
Q 2088 153 1894 40 
Q 1700 -72 1484 -72 
Q 1116 -72 897 129 
Q 678 331 678 697 
z
" transform="scale(0.015625)"/>
     </defs>
     <use xlink:href="#Cmmi10-75" transform="translate(0 0.8125)"/>
    </g>
   </g>
   <g id="text_11">
    <!-- $v$ -->
    <g style="fill: #c5003e" transform="translate(39.28 107.06087) scale(0.16 -0.16)">
     <defs>
      <path id="Cmmi10-76" d="M 684 722 
Q 684 866 718 1037 
Q 753 1209 787 1320 
Q 822 1431 944 1753 
Q 1066 2075 1069 2088 
Q 1153 2322 1153 2472 
Q 1153 2663 1013 2663 
Q 759 2663 595 2402 
Q 431 2141 353 1819 
Q 341 1778 300 1778 
L 225 1778 
Q 172 1778 172 1838 
L 172 1856 
Q 275 2238 487 2533 
Q 700 2828 1025 2828 
Q 1253 2828 1411 2678 
Q 1569 2528 1569 2297 
Q 1569 2178 1516 2047 
Q 1391 1722 1319 1526 
Q 1247 1331 1186 1089 
Q 1125 847 1125 641 
Q 1125 400 1236 248 
Q 1347 97 1581 97 
Q 2025 97 2381 781 
Q 2494 1003 2594 1303 
Q 2694 1603 2694 1791 
Q 2694 1984 2631 2092 
Q 2569 2200 2469 2317 
Q 2369 2434 2369 2503 
Q 2369 2628 2472 2731 
Q 2575 2834 2700 2834 
Q 2853 2834 2920 2693 
Q 2988 2553 2988 2375 
Q 2988 2163 2927 1869 
Q 2866 1575 2758 1259 
Q 2650 944 2559 763 
Q 2138 -72 1575 -72 
Q 1172 -72 928 129 
Q 684 331 684 722 
z
" transform="scale(0.015625)"/>
     </defs>
     <use xlink:href="#Cmmi10-76" transform="translate(0 0.71875)"/>
    </g>
   </g>
  </g>
 </g>
 <defs>
  <clipPath id="p9209da0e2c">
   <rect x="0" y="0" width="432" height="432"/>
  </clipPath>
 </defs>
</svg>
