<?xml version="1.0" encoding="utf-8" standalone="no"?>
<!DOCTYPE svg PUBLIC "-//W3C//DTD SVG 1.1//EN"
  "http://www.w3.org/Graphics/SVG/1.1/DTD/svg11.dtd">
<svg xmlns:xlink="http://www.w3.org/1999/xlink" width="720pt" height="288pt" viewBox="0 0 720 288" xmlns="http://www.w3.org/2000/svg" version="1.1">
 <metadata>
  <rdf:RDF xmlns:dc="http://purl.org/dc/elements/1.1/" xmlns:cc="http://creativecommons.org/ns#" xmlns:rdf="http://www.w3.org/1999/02/22-rdf-syntax-ns#">
   <cc:Work>
    <dc:type rdf:resource="http://purl.org/dc/dcmitype/StillImage"/>
    <dc:date>2025-07-26T14:48:32.669032</dc:date>
    <dc:format>image/svg+xml</dc:format>
    <dc:creator>
     <cc:Agent>
      <dc:title>Matplotlib v3.9.0.dev16+g5446a454e4, https://matplotlib.org/</dc:title>
     </cc:Agent>
    </dc:creator>
   </cc:Work>
  </rdf:RDF>
 </metadata>
 <defs>
  <style type="text/css">*{stroke-linejoin: round; stroke-linecap: butt}</style>
 </defs>
 <g id="figure_1">
  <g id="patch_1">
   <path d="M 0 288 
L 720 288 
L 720 0 
L 0 0 
z
" style="fill: #ffffff"/>
  </g>
  <g id="axes_1">
   <g id="patch_2">
    <path d="M 254.325 91.494833 
L 251.792674 97.288071 
L 249.310994 95.395613 
L 39.500647 255.390955 
L 39.399353 255.313712 
L 249.209701 95.31837 
L 246.728022 93.425912 
z
" clip-path="url(#p31376c96e5)" style="fill: #4169e1; stroke: #4169e1; stroke-width: 2; stroke-linejoin: miter"/>
   </g>
   <g id="line2d_1">
    <path d="M 254.325 91.494833 
L 254.325 255.352333 
" clip-path="url(#p31376c96e5)" style="fill: none; stroke-dasharray: 7.4,3.2; stroke-dashoffset: 0; stroke: #ffd700; stroke-width: 2"/>
   </g>
   <g id="line2d_2">
    <path d="M 39.45 255.352333 
L 254.325 255.352333 
" clip-path="url(#p31376c96e5)" style="fill: none; stroke-dasharray: 7.4,3.2; stroke-dashoffset: 0; stroke: #ffd700; stroke-width: 2"/>
   </g>
   <g id="line2d_3">
    <path d="M 82.425 255.352333 
L 82.423648 255.092349 
L 82.419591 254.832382 
L 82.412829 254.572447 
L 82.403364 254.312561 
L 82.391195 254.052741 
L 82.376324 253.793003 
L 82.358751 253.533362 
L 82.338477 253.273836 
L 82.315505 253.014441 
L 82.289834 252.755193 
L 82.261467 252.496109 
L 82.230406 252.237204 
L 82.196652 251.978496 
L 82.160208 251.719999 
L 82.121076 251.461732 
L 82.079258 251.203709 
L 82.034757 250.945947 
L 81.987576 250.688463 
L 81.937718 250.431272 
L 81.885186 250.174391 
L 81.829983 249.917835 
L 81.772113 249.661622 
L 81.711579 249.405767 
L 81.648386 249.150286 
L 81.582536 248.895196 
L 81.514035 248.640512 
L 81.442887 248.38625 
L 81.369095 248.132427 
L 81.292665 247.879058 
L 81.213602 247.626159 
L 81.13191 247.373747 
L 81.047595 247.121837 
L 80.960662 246.870445 
L 80.871117 246.619587 
L 80.778964 246.369278 
L 80.684211 246.119535 
L 80.586862 245.870373 
L 80.486924 245.621807 
L 80.384403 245.373854 
L 80.279306 245.126529 
L 80.17164 244.879848 
L 80.06141 244.633826 
L 79.948625 244.388478 
L 79.83329 244.14382 
L 79.715414 243.899868 
L 79.595004 243.656637 
L 79.472068 243.414141 
L 79.346612 243.172397 
L 79.218645 242.93142 
L 79.088176 242.691224 
L 78.955212 242.451825 
L 78.819761 242.213238 
L 78.681833 241.975478 
L 78.541435 241.73856 
L 78.398577 241.502499 
L 78.253268 241.267309 
L 78.105517 241.033006 
L 77.955332 240.799604 
L 77.802725 240.567118 
L 77.647703 240.335563 
L 77.490278 240.104953 
L 77.330458 239.875302 
L 77.168255 239.646625 
L 77.003677 239.418937 
L 76.836736 239.192252 
L 76.667442 238.966583 
L 76.495805 238.741946 
L 76.321837 238.518355 
L 76.145549 238.295823 
L 75.96695 238.074364 
L 75.786054 237.853993 
L 75.602871 237.634723 
L 75.417412 237.416568 
L 75.22969 237.199542 
L 75.039715 236.983658 
L 74.847501 236.768931 
L 74.653059 236.555373 
L 74.456402 236.342998 
L 74.257541 236.13182 
L 74.056489 235.921851 
L 73.85326 235.713105 
L 73.647865 235.505595 
L 73.440318 235.299335 
L 73.230632 235.094336 
L 73.018819 234.890612 
L 72.804894 234.688177 
L 72.58887 234.487041 
L 72.37076 234.287219 
L 72.150578 234.088723 
L 71.928338 233.891565 
L 71.704054 233.695757 
L 71.47774 233.501313 
L 71.24941 233.308244 
L 71.019079 233.116562 
L 70.786761 232.92628 
L 70.55247 232.737409 
L 70.316222 232.549961 
L 70.078032 232.363949 
L 69.837914 232.179383 
" clip-path="url(#p31376c96e5)" style="fill: none; stroke: #0000ff; stroke-width: 1.5; stroke-linecap: square"/>
   </g>
   <g id="text_1">
    <!-- $\vec{a}=(x,y)$ -->
    <g transform="translate(237.05 82.546233) scale(0.16 -0.16)">
     <defs>
      <path id="Cmmi10-7e" d="M 1281 3809 
Q 1231 3809 1198 3846 
Q 1166 3884 1166 3938 
Q 1166 3984 1198 4023 
Q 1231 4063 1281 4063 
L 3547 4063 
Q 3378 4291 3378 4441 
Q 3378 4497 3417 4533 
Q 3456 4569 3506 4569 
Q 3613 4569 3634 4469 
Q 3697 4194 3938 4044 
Q 4000 4003 4000 3938 
Q 4000 3859 3938 3828 
Q 3575 3647 3353 3347 
Q 3328 3303 3256 3303 
Q 3209 3303 3168 3340 
Q 3128 3378 3128 3431 
Q 3128 3547 3438 3809 
L 1281 3809 
z
" transform="scale(0.015625)"/>
      <path id="Cmmi10-61" d="M 1113 -72 
Q 709 -72 476 233 
Q 244 538 244 953 
Q 244 1363 456 1803 
Q 669 2244 1030 2536 
Q 1391 2828 1806 2828 
Q 1997 2828 2147 2725 
Q 2297 2622 2381 2444 
Q 2453 2700 2663 2700 
Q 2744 2700 2798 2651 
Q 2853 2603 2853 2522 
Q 2853 2503 2851 2493 
Q 2850 2484 2847 2472 
L 2400 684 
Q 2356 494 2356 372 
Q 2356 97 2541 97 
Q 2741 97 2845 351 
Q 2950 606 3022 941 
Q 3034 978 3072 978 
L 3150 978 
Q 3175 978 3190 956 
Q 3206 934 3206 916 
Q 3094 469 2961 198 
Q 2828 -72 2528 -72 
Q 2313 -72 2147 54 
Q 1981 181 1941 391 
Q 1528 -72 1113 -72 
z
M 1119 97 
Q 1350 97 1567 270 
Q 1784 444 1941 678 
Q 1947 684 1947 697 
L 2291 2088 
L 2297 2106 
Q 2259 2334 2132 2498 
Q 2006 2663 1791 2663 
Q 1575 2663 1389 2486 
Q 1203 2309 1075 2069 
Q 950 1813 836 1366 
Q 722 919 722 672 
Q 722 450 817 273 
Q 913 97 1119 97 
z
" transform="scale(0.015625)"/>
      <path id="Cmr10-3d" d="M 481 850 
Q 428 850 393 890 
Q 359 931 359 978 
Q 359 1031 393 1068 
Q 428 1106 481 1106 
L 4500 1106 
Q 4547 1106 4581 1068 
Q 4616 1031 4616 978 
Q 4616 931 4581 890 
Q 4547 850 4500 850 
L 481 850 
z
M 481 2094 
Q 428 2094 393 2131 
Q 359 2169 359 2222 
Q 359 2269 393 2309 
Q 428 2350 481 2350 
L 4500 2350 
Q 4547 2350 4581 2309 
Q 4616 2269 4616 2222 
Q 4616 2169 4581 2131 
Q 4547 2094 4500 2094 
L 481 2094 
z
" transform="scale(0.015625)"/>
      <path id="Cmr10-28" d="M 1984 -1588 
Q 1628 -1306 1370 -942 
Q 1113 -578 948 -165 
Q 784 247 703 697 
Q 622 1147 622 1600 
Q 622 2059 703 2509 
Q 784 2959 951 3375 
Q 1119 3791 1378 4153 
Q 1638 4516 1984 4788 
Q 1984 4800 2016 4800 
L 2075 4800 
Q 2094 4800 2109 4783 
Q 2125 4766 2125 4744 
Q 2125 4716 2113 4703 
Q 1800 4397 1592 4047 
Q 1384 3697 1257 3301 
Q 1131 2906 1075 2482 
Q 1019 2059 1019 1600 
Q 1019 -434 2106 -1491 
Q 2125 -1509 2125 -1544 
Q 2125 -1559 2108 -1579 
Q 2091 -1600 2075 -1600 
L 2016 -1600 
Q 1984 -1600 1984 -1588 
z
" transform="scale(0.015625)"/>
      <path id="Cmmi10-78" d="M 500 184 
Q 613 97 819 97 
Q 1019 97 1172 289 
Q 1325 481 1381 709 
L 1672 1844 
Q 1741 2153 1741 2266 
Q 1741 2425 1652 2544 
Q 1563 2663 1403 2663 
Q 1200 2663 1022 2536 
Q 844 2409 722 2214 
Q 600 2019 550 1819 
Q 538 1778 500 1778 
L 422 1778 
Q 372 1778 372 1838 
L 372 1856 
Q 434 2094 584 2320 
Q 734 2547 951 2687 
Q 1169 2828 1416 2828 
Q 1650 2828 1839 2703 
Q 2028 2578 2106 2363 
Q 2216 2559 2386 2693 
Q 2556 2828 2759 2828 
Q 2897 2828 3040 2779 
Q 3184 2731 3275 2631 
Q 3366 2531 3366 2381 
Q 3366 2219 3261 2101 
Q 3156 1984 2994 1984 
Q 2891 1984 2822 2050 
Q 2753 2116 2753 2216 
Q 2753 2350 2845 2451 
Q 2938 2553 3066 2572 
Q 2950 2663 2747 2663 
Q 2541 2663 2389 2472 
Q 2238 2281 2175 2047 
L 1894 916 
Q 1825 659 1825 494 
Q 1825 331 1917 214 
Q 2009 97 2163 97 
Q 2463 97 2698 361 
Q 2934 625 3009 941 
Q 3022 978 3059 978 
L 3138 978 
Q 3163 978 3178 961 
Q 3194 944 3194 922 
Q 3194 916 3188 903 
Q 3097 522 2806 225 
Q 2516 -72 2150 -72 
Q 1916 -72 1727 54 
Q 1538 181 1459 397 
Q 1359 209 1182 68 
Q 1006 -72 806 -72 
Q 669 -72 523 -23 
Q 378 25 287 125 
Q 197 225 197 378 
Q 197 528 301 651 
Q 406 775 563 775 
Q 669 775 741 711 
Q 813 647 813 544 
Q 813 409 723 309 
Q 634 209 500 184 
z
" transform="scale(0.015625)"/>
      <path id="Cmmi10-3b" d="M 634 -1153 
Q 634 -1125 659 -1100 
Q 891 -878 1019 -587 
Q 1147 -297 1147 25 
L 1147 103 
Q 1044 0 891 0 
Q 744 0 641 103 
Q 538 206 538 353 
Q 538 503 641 603 
Q 744 703 891 703 
Q 1119 703 1216 492 
Q 1313 281 1313 25 
Q 1313 -331 1170 -651 
Q 1028 -972 769 -1228 
Q 744 -1241 728 -1241 
Q 697 -1241 665 -1212 
Q 634 -1184 634 -1153 
z
" transform="scale(0.015625)"/>
      <path id="Cmmi10-79" d="M 538 -916 
Q 672 -1147 1006 -1147 
Q 1309 -1147 1531 -934 
Q 1753 -722 1889 -420 
Q 2025 -119 2100 197 
Q 1816 -72 1484 -72 
Q 1231 -72 1053 15 
Q 875 103 776 276 
Q 678 450 678 697 
Q 678 906 734 1126 
Q 791 1347 892 1617 
Q 994 1888 1069 2088 
Q 1153 2322 1153 2472 
Q 1153 2663 1013 2663 
Q 759 2663 595 2402 
Q 431 2141 353 1819 
Q 341 1778 300 1778 
L 225 1778 
Q 172 1778 172 1838 
L 172 1856 
Q 275 2238 487 2533 
Q 700 2828 1025 2828 
Q 1253 2828 1411 2678 
Q 1569 2528 1569 2297 
Q 1569 2178 1516 2047 
Q 1488 1969 1388 1706 
Q 1288 1444 1234 1272 
Q 1181 1100 1147 934 
Q 1113 769 1113 603 
Q 1113 391 1203 244 
Q 1294 97 1491 97 
Q 1888 97 2203 581 
L 2688 2553 
Q 2709 2638 2787 2698 
Q 2866 2759 2956 2759 
Q 3034 2759 3092 2709 
Q 3150 2659 3150 2578 
Q 3150 2541 3144 2528 
L 2509 -19 
Q 2425 -347 2200 -647 
Q 1975 -947 1658 -1130 
Q 1341 -1313 997 -1313 
Q 831 -1313 668 -1248 
Q 506 -1184 406 -1056 
Q 306 -928 306 -756 
Q 306 -581 409 -453 
Q 513 -325 684 -325 
Q 788 -325 858 -389 
Q 928 -453 928 -556 
Q 928 -703 818 -812 
Q 709 -922 563 -922 
Q 556 -919 550 -917 
Q 544 -916 538 -916 
z
" transform="scale(0.015625)"/>
      <path id="Cmr10-29" d="M 416 -1600 
Q 359 -1600 359 -1544 
Q 359 -1516 372 -1503 
Q 1466 -434 1466 1600 
Q 1466 3634 384 4691 
Q 359 4706 359 4744 
Q 359 4766 376 4783 
Q 394 4800 416 4800 
L 475 4800 
Q 494 4800 506 4788 
Q 966 4425 1272 3906 
Q 1578 3388 1720 2800 
Q 1863 2213 1863 1600 
Q 1863 1147 1786 708 
Q 1709 269 1542 -157 
Q 1375 -584 1119 -945 
Q 863 -1306 506 -1588 
Q 494 -1600 475 -1600 
L 416 -1600 
z
" transform="scale(0.015625)"/>
     </defs>
     <use xlink:href="#Cmmi10-7e" transform="translate(-7.022949 5.609375)"/>
     <use xlink:href="#Cmmi10-61" transform="translate(0 0.53125)"/>
     <use xlink:href="#Cmr10-3d" transform="translate(70.341797 0.53125)"/>
     <use xlink:href="#Cmr10-28" transform="translate(165.585938 0.53125)"/>
     <use xlink:href="#Cmmi10-78" transform="translate(204.404297 0.53125)"/>
     <use xlink:href="#Cmmi10-3b" transform="translate(261.484375 0.53125)"/>
     <use xlink:href="#Cmmi10-79" transform="translate(306.728516 0.53125)"/>
     <use xlink:href="#Cmr10-29" transform="translate(355.751953 0.53125)"/>
    </g>
   </g>
   <g id="text_2">
    <!-- $\theta$ -->
    <g style="fill: #0000ff" transform="translate(84.883723 241.71884) scale(0.16 -0.16)">
     <defs>
      <path id="Cmmi10-b5" d="M 1031 -72 
Q 741 -72 566 140 
Q 391 353 323 653 
Q 256 953 256 1247 
L 256 1253 
Q 256 1572 317 1915 
Q 378 2259 493 2601 
Q 609 2944 744 3213 
Q 838 3400 986 3631 
Q 1134 3863 1317 4064 
Q 1500 4266 1711 4389 
Q 1922 4513 2138 4513 
L 2144 4513 
Q 2375 4513 2529 4384 
Q 2684 4256 2770 4056 
Q 2856 3856 2890 3628 
Q 2925 3400 2925 3194 
Q 2925 2709 2794 2204 
Q 2663 1700 2431 1228 
Q 2344 1050 2189 809 
Q 2034 569 1861 378 
Q 1688 188 1472 58 
Q 1256 -72 1038 -72 
L 1031 -72 
z
M 1044 97 
Q 1256 97 1451 323 
Q 1647 550 1794 873 
Q 1941 1197 2052 1536 
Q 2163 1875 2216 2113 
L 909 2113 
Q 809 1709 753 1417 
Q 697 1125 697 844 
Q 697 97 1044 97 
z
M 959 2338 
L 2272 2338 
Q 2341 2619 2381 2808 
Q 2422 2997 2450 3206 
Q 2478 3416 2478 3597 
Q 2478 4347 2138 4347 
Q 1731 4347 1436 3692 
Q 1141 3038 959 2338 
z
" transform="scale(0.015625)"/>
     </defs>
     <use xlink:href="#Cmmi10-b5" transform="translate(0 0.484375)"/>
    </g>
   </g>
  </g>
  <g id="axes_2">
   <g id="patch_3">
    <path d="M 608.925 91.494833 
L 606.392674 97.288071 
L 603.910994 95.395613 
L 394.100647 255.390955 
L 393.999353 255.313712 
L 603.809701 95.31837 
L 601.328022 93.425912 
z
" clip-path="url(#p17a6343fb5)" style="fill: #4169e1; stroke: #4169e1; stroke-width: 2; stroke-linejoin: miter"/>
   </g>
   <g id="patch_4">
    <path d="M 495.343046 36.875667 
L 496.331981 42.935531 
L 493.023075 42.043417 
L 394.117529 255.37054 
L 393.982471 255.334127 
L 492.888018 42.007005 
L 489.579112 41.114892 
z
" clip-path="url(#p17a6343fb5)" style="fill: #800080; stroke: #800080; stroke-width: 2; stroke-linejoin: miter"/>
   </g>
   <g id="line2d_4">
    <path d="M 608.925 91.494833 
L 608.925 255.352333 
" clip-path="url(#p17a6343fb5)" style="fill: none; stroke-dasharray: 7.4,3.2; stroke-dashoffset: 0; stroke: #ffd700; stroke-width: 2"/>
   </g>
   <g id="line2d_5">
    <path d="M 394.05 255.352333 
L 608.925 255.352333 
" clip-path="url(#p17a6343fb5)" style="fill: none; stroke-dasharray: 7.4,3.2; stroke-dashoffset: 0; stroke: #ffd700; stroke-width: 2"/>
   </g>
   <g id="line2d_6">
    <path d="M 437.025 255.352333 
L 437.023648 255.092349 
L 437.019591 254.832382 
L 437.012829 254.572447 
L 437.003364 254.312561 
L 436.991195 254.052741 
L 436.976324 253.793003 
L 436.958751 253.533362 
L 436.938477 253.273836 
L 436.915505 253.014441 
L 436.889834 252.755193 
L 436.861467 252.496109 
L 436.830406 252.237204 
L 436.796652 251.978496 
L 436.760208 251.719999 
L 436.721076 251.461732 
L 436.679258 251.203709 
L 436.634757 250.945947 
L 436.587576 250.688463 
L 436.537718 250.431272 
L 436.485186 250.174391 
L 436.429983 249.917835 
L 436.372113 249.661622 
L 436.311579 249.405767 
L 436.248386 249.150286 
L 436.182536 248.895196 
L 436.114035 248.640512 
L 436.042887 248.38625 
L 435.969095 248.132427 
L 435.892665 247.879058 
L 435.813602 247.626159 
L 435.73191 247.373747 
L 435.647595 247.121837 
L 435.560662 246.870445 
L 435.471117 246.619587 
L 435.378964 246.369278 
L 435.284211 246.119535 
L 435.186862 245.870373 
L 435.086924 245.621807 
L 434.984403 245.373854 
L 434.879306 245.126529 
L 434.77164 244.879848 
L 434.66141 244.633826 
L 434.548625 244.388478 
L 434.43329 244.14382 
L 434.315414 243.899868 
L 434.195004 243.656637 
L 434.072068 243.414141 
L 433.946612 243.172397 
L 433.818645 242.93142 
L 433.688176 242.691224 
L 433.555212 242.451825 
L 433.419761 242.213238 
L 433.281833 241.975478 
L 433.141435 241.73856 
L 432.998577 241.502499 
L 432.853268 241.267309 
L 432.705517 241.033006 
L 432.555332 240.799604 
L 432.402725 240.567118 
L 432.247703 240.335563 
L 432.090278 240.104953 
L 431.930458 239.875302 
L 431.768255 239.646625 
L 431.603677 239.418937 
L 431.436736 239.192252 
L 431.267442 238.966583 
L 431.095805 238.741946 
L 430.921837 238.518355 
L 430.745549 238.295823 
L 430.56695 238.074364 
L 430.386054 237.853993 
L 430.202871 237.634723 
L 430.017412 237.416568 
L 429.82969 237.199542 
L 429.639715 236.983658 
L 429.447501 236.768931 
L 429.253059 236.555373 
L 429.056402 236.342998 
L 428.857541 236.13182 
L 428.656489 235.921851 
L 428.45326 235.713105 
L 428.247865 235.505595 
L 428.040318 235.299335 
L 427.830632 235.094336 
L 427.618819 234.890612 
L 427.404894 234.688177 
L 427.18887 234.487041 
L 426.97076 234.287219 
L 426.750578 234.088723 
L 426.528338 233.891565 
L 426.304054 233.695757 
L 426.07774 233.501313 
L 425.84941 233.308244 
L 425.619079 233.116562 
L 425.386761 232.92628 
L 425.15247 232.737409 
L 424.916222 232.549961 
L 424.678032 232.363949 
L 424.437914 232.179383 
" clip-path="url(#p17a6343fb5)" style="fill: none; stroke: #0000ff; stroke-width: 1.5; stroke-linecap: square"/>
   </g>
   <g id="line2d_7">
    <path d="M 444.696523 216.73075 
L 444.46807 216.557321 
L 444.238596 216.384677 
L 444.008106 216.212823 
L 443.776603 216.041762 
L 443.544093 215.871497 
L 443.310581 215.702031 
L 443.07607 215.533369 
L 442.840567 215.365513 
L 442.604076 215.198468 
L 442.366601 215.032235 
L 442.128147 214.86682 
L 441.888719 214.702224 
L 441.648323 214.538452 
L 441.406962 214.375506 
L 441.164642 214.21339 
L 440.921368 214.052108 
L 440.677144 213.891663 
L 440.431976 213.732057 
L 440.185869 213.573294 
L 439.938827 213.415377 
L 439.690855 213.25831 
L 439.441959 213.102096 
L 439.192143 212.946737 
L 438.941414 212.792237 
L 438.689774 212.638599 
L 438.437231 212.485827 
L 438.183788 212.333923 
L 437.929452 212.18289 
L 437.674227 212.032731 
L 437.418118 211.88345 
L 437.161131 211.73505 
L 436.90327 211.587533 
L 436.644541 211.440902 
L 436.38495 211.295161 
L 436.124501 211.150313 
L 435.8632 211.006359 
L 435.601052 210.863304 
L 435.338062 210.72115 
L 435.074236 210.579901 
L 434.809579 210.439558 
L 434.544097 210.300124 
L 434.277794 210.161604 
L 434.010676 210.023998 
L 433.742749 209.887311 
L 433.474018 209.751545 
L 433.204489 209.616702 
L 432.934166 209.482786 
L 432.663055 209.349799 
L 432.391163 209.217743 
L 432.118494 209.086623 
L 431.845054 208.956439 
L 431.570848 208.827195 
L 431.295882 208.698894 
L 431.020162 208.571537 
L 430.743693 208.445128 
L 430.466481 208.319669 
L 430.188531 208.195163 
L 429.909849 208.071612 
L 429.630441 207.949019 
L 429.350312 207.827386 
L 429.069468 207.706715 
L 428.787914 207.58701 
L 428.505657 207.468272 
L 428.222702 207.350504 
L 427.939055 207.233709 
L 427.654722 207.117888 
L 427.369707 207.003044 
L 427.084018 206.889179 
L 426.79766 206.776296 
L 426.510639 206.664397 
L 426.222959 206.553484 
L 425.934629 206.44356 
L 425.645652 206.334626 
L 425.356036 206.226686 
L 425.065785 206.11974 
L 424.774906 206.013791 
L 424.483405 205.908842 
L 424.191287 205.804894 
L 423.898559 205.70195 
L 423.605226 205.600012 
L 423.311294 205.499082 
L 423.01677 205.399161 
L 422.721659 205.300252 
L 422.425967 205.202357 
L 422.129701 205.105477 
L 421.832866 205.009616 
L 421.535467 204.914774 
L 421.237513 204.820954 
L 420.939007 204.728157 
L 420.639957 204.636386 
L 420.340368 204.545642 
L 420.040247 204.455927 
L 419.7396 204.367244 
L 419.438432 204.279592 
L 419.136749 204.192976 
L 418.834559 204.107395 
L 418.531866 204.022853 
L 418.228678 203.93935 
L 417.925 203.856889 
" clip-path="url(#p17a6343fb5)" style="fill: none; stroke: #0000ff; stroke-width: 1.5; stroke-linecap: square"/>
   </g>
   <g id="text_3">
    <!-- $\vec{a}=(l\cos\theta, l\sin\theta)$ -->
    <g transform="translate(565.01 82.546233) scale(0.16 -0.16)">
     <defs>
      <path id="Cmmi10-6c" d="M 281 519 
Q 281 538 286 575 
Q 291 613 295 648 
Q 300 684 300 703 
L 1094 3872 
Q 1119 3981 1125 4044 
Q 1125 4147 709 4147 
Q 647 4147 647 4231 
Q 650 4247 661 4287 
Q 672 4328 689 4350 
Q 706 4372 738 4372 
L 1600 4441 
Q 1678 4441 1678 4359 
L 756 678 
Q 709 575 709 372 
Q 709 97 897 97 
Q 1094 97 1192 342 
Q 1291 588 1369 941 
Q 1381 978 1422 978 
L 1497 978 
Q 1522 978 1539 958 
Q 1556 938 1556 916 
Q 1481 606 1420 426 
Q 1359 247 1225 87 
Q 1091 -72 884 -72 
Q 628 -72 454 93 
Q 281 259 281 519 
z
" transform="scale(0.015625)"/>
      <path id="Cmr10-63" d="M 1594 -72 
Q 1206 -72 890 129 
Q 575 331 394 667 
Q 213 1003 213 1381 
Q 213 1759 392 2106 
Q 572 2453 889 2661 
Q 1206 2869 1594 2869 
Q 1969 2869 2276 2722 
Q 2584 2575 2584 2241 
Q 2584 2116 2495 2023 
Q 2406 1931 2278 1931 
Q 2150 1931 2061 2023 
Q 1972 2116 1972 2241 
Q 1972 2353 2044 2436 
Q 2116 2519 2222 2541 
Q 2000 2681 1600 2681 
Q 1294 2681 1106 2478 
Q 919 2275 844 1975 
Q 769 1675 769 1381 
Q 769 1072 861 783 
Q 953 494 1158 305 
Q 1363 116 1672 116 
Q 1975 116 2187 302 
Q 2400 488 2478 788 
Q 2478 825 2528 825 
L 2606 825 
Q 2625 825 2640 808 
Q 2656 791 2656 769 
L 2656 750 
Q 2559 372 2271 150 
Q 1984 -72 1594 -72 
z
" transform="scale(0.015625)"/>
      <path id="Cmr10-6f" d="M 1600 -72 
Q 1216 -72 887 123 
Q 559 319 368 647 
Q 178 975 178 1363 
Q 178 1656 283 1928 
Q 388 2200 583 2414 
Q 778 2628 1037 2748 
Q 1297 2869 1600 2869 
Q 1994 2869 2317 2661 
Q 2641 2453 2828 2104 
Q 3016 1756 3016 1363 
Q 3016 978 2825 648 
Q 2634 319 2307 123 
Q 1981 -72 1600 -72 
z
M 1600 116 
Q 2113 116 2284 487 
Q 2456 859 2456 1434 
Q 2456 1756 2422 1967 
Q 2388 2178 2272 2350 
Q 2200 2456 2089 2536 
Q 1978 2616 1854 2658 
Q 1731 2700 1600 2700 
Q 1400 2700 1220 2609 
Q 1041 2519 922 2350 
Q 803 2169 770 1951 
Q 738 1734 738 1434 
Q 738 1075 800 789 
Q 863 503 1052 309 
Q 1241 116 1600 116 
z
" transform="scale(0.015625)"/>
      <path id="Cmr10-73" d="M 213 -19 
L 213 1025 
Q 213 1075 269 1075 
L 347 1075 
Q 384 1075 397 1025 
Q 575 97 1259 97 
Q 1563 97 1767 234 
Q 1972 372 1972 659 
Q 1972 866 1812 1011 
Q 1653 1156 1434 1209 
L 1006 1294 
Q 791 1341 614 1437 
Q 438 1534 325 1695 
Q 213 1856 213 2069 
Q 213 2350 361 2529 
Q 509 2709 746 2789 
Q 984 2869 1259 2869 
Q 1588 2869 1831 2694 
L 2016 2853 
Q 2016 2869 2047 2869 
L 2094 2869 
Q 2113 2869 2128 2851 
Q 2144 2834 2144 2816 
L 2144 1978 
Q 2144 1919 2094 1919 
L 2016 1919 
Q 1959 1919 1959 1978 
Q 1959 2313 1773 2516 
Q 1588 2719 1253 2719 
Q 966 2719 755 2612 
Q 544 2506 544 2247 
Q 544 2069 695 1955 
Q 847 1841 1050 1791 
L 1484 1709 
Q 1703 1659 1892 1540 
Q 2081 1422 2192 1240 
Q 2303 1059 2303 831 
Q 2303 600 2223 429 
Q 2144 259 2001 146 
Q 1859 34 1665 -19 
Q 1472 -72 1259 -72 
Q 859 -72 575 197 
L 341 -56 
Q 341 -72 306 -72 
L 269 -72 
Q 213 -72 213 -19 
z
" transform="scale(0.015625)"/>
      <path id="Cmr10-69" d="M 197 0 
L 197 225 
Q 416 225 556 259 
Q 697 294 697 428 
L 697 2175 
Q 697 2422 601 2478 
Q 506 2534 225 2534 
L 225 2759 
L 1147 2828 
L 1147 428 
Q 1147 294 1269 259 
Q 1391 225 1594 225 
L 1594 0 
L 197 0 
z
M 469 3928 
Q 469 4069 575 4175 
Q 681 4281 819 4281 
Q 909 4281 993 4234 
Q 1078 4188 1125 4103 
Q 1172 4019 1172 3928 
Q 1172 3791 1065 3684 
Q 959 3578 819 3578 
Q 681 3578 575 3684 
Q 469 3791 469 3928 
z
" transform="scale(0.015625)"/>
      <path id="Cmr10-6e" d="M 191 0 
L 191 225 
Q 409 225 550 259 
Q 691 294 691 428 
L 691 2175 
Q 691 2347 639 2423 
Q 588 2500 491 2517 
Q 394 2534 191 2534 
L 191 2759 
L 1119 2828 
L 1119 2203 
Q 1247 2478 1498 2653 
Q 1750 2828 2047 2828 
Q 2491 2828 2714 2615 
Q 2938 2403 2938 1966 
L 2938 428 
Q 2938 294 3078 259 
Q 3219 225 3438 225 
L 3438 0 
L 1972 0 
L 1972 225 
Q 2191 225 2331 259 
Q 2472 294 2472 428 
L 2472 1947 
Q 2472 2259 2381 2461 
Q 2291 2663 2009 2663 
Q 1638 2663 1398 2366 
Q 1159 2069 1159 1691 
L 1159 428 
Q 1159 294 1300 259 
Q 1441 225 1656 225 
L 1656 0 
L 191 0 
z
" transform="scale(0.015625)"/>
     </defs>
     <use xlink:href="#Cmmi10-7e" transform="translate(-7.022949 5.609375)"/>
     <use xlink:href="#Cmmi10-61" transform="translate(0 0.53125)"/>
     <use xlink:href="#Cmr10-3d" transform="translate(70.341797 0.53125)"/>
     <use xlink:href="#Cmr10-28" transform="translate(165.585938 0.53125)"/>
     <use xlink:href="#Cmmi10-6c" transform="translate(204.404297 0.53125)"/>
     <use xlink:href="#Cmr10-63" transform="translate(234.189453 0.53125)"/>
     <use xlink:href="#Cmr10-6f" transform="translate(278.574219 0.53125)"/>
     <use xlink:href="#Cmr10-73" transform="translate(328.574219 0.53125)"/>
     <use xlink:href="#Cmmi10-b5" transform="translate(382.61097 0.53125)"/>
     <use xlink:href="#Cmmi10-3b" transform="translate(429.534798 0.53125)"/>
     <use xlink:href="#Cmmi10-6c" transform="translate(474.778938 0.53125)"/>
     <use xlink:href="#Cmr10-73" transform="translate(504.564095 0.53125)"/>
     <use xlink:href="#Cmr10-69" transform="translate(543.968392 0.53125)"/>
     <use xlink:href="#Cmr10-6e" transform="translate(571.653938 0.53125)"/>
     <use xlink:href="#Cmmi10-b5" transform="translate(641.803971 0.53125)"/>
     <use xlink:href="#Cmr10-29" transform="translate(688.727799 0.53125)"/>
    </g>
   </g>
   <g id="text_4">
    <!-- $\vec{b}=(l\cos(\theta+\alpha), l\sin(\theta+\alpha))$ -->
    <g transform="translate(413.828046 29.927067) scale(0.16 -0.16)">
     <defs>
      <path id="Cmmi10-62" d="M 1106 -72 
Q 719 -72 503 231 
Q 288 534 288 941 
Q 288 1000 317 1173 
Q 347 1347 347 1388 
L 966 3872 
Q 991 3981 997 4044 
Q 997 4147 581 4147 
Q 519 4147 519 4231 
Q 522 4247 533 4287 
Q 544 4328 561 4350 
Q 578 4372 609 4372 
L 1472 4441 
Q 1550 4441 1550 4359 
L 1075 2472 
Q 1438 2828 1806 2828 
Q 2078 2828 2273 2684 
Q 2469 2541 2566 2306 
Q 2663 2072 2663 1806 
Q 2663 1497 2542 1167 
Q 2422 838 2209 555 
Q 1997 272 1712 100 
Q 1428 -72 1106 -72 
z
M 1119 97 
Q 1338 97 1528 280 
Q 1719 463 1838 691 
Q 1966 947 2077 1386 
Q 2188 1825 2188 2088 
Q 2188 2316 2092 2489 
Q 1997 2663 1791 2663 
Q 1559 2663 1348 2492 
Q 1138 2322 978 2088 
L 800 1363 
Q 697 959 691 716 
Q 691 475 795 286 
Q 900 97 1119 97 
z
" transform="scale(0.015625)"/>
      <path id="Cmr10-2b" d="M 481 1472 
Q 428 1472 393 1512 
Q 359 1553 359 1600 
Q 359 1647 393 1687 
Q 428 1728 481 1728 
L 2363 1728 
L 2363 3616 
Q 2363 3666 2400 3698 
Q 2438 3731 2491 3731 
Q 2538 3731 2578 3698 
Q 2619 3666 2619 3616 
L 2619 1728 
L 4500 1728 
Q 4547 1728 4581 1687 
Q 4616 1647 4616 1600 
Q 4616 1553 4581 1512 
Q 4547 1472 4500 1472 
L 2619 1472 
L 2619 -416 
Q 2619 -466 2578 -498 
Q 2538 -531 2491 -531 
Q 2438 -531 2400 -498 
Q 2363 -466 2363 -416 
L 2363 1472 
L 481 1472 
z
" transform="scale(0.015625)"/>
      <path id="Cmmi10-ae" d="M 1288 -72 
Q 984 -72 748 72 
Q 513 216 384 459 
Q 256 703 256 1013 
Q 256 1447 498 1872 
Q 741 2297 1142 2562 
Q 1544 2828 1984 2828 
Q 2309 2828 2556 2658 
Q 2803 2488 2931 2205 
Q 3059 1922 3059 1600 
L 3066 1172 
Q 3284 1475 3436 1801 
Q 3588 2128 3669 2478 
Q 3681 2516 3719 2516 
L 3794 2516 
Q 3853 2516 3853 2456 
Q 3853 2450 3847 2438 
Q 3772 2144 3659 1873 
Q 3547 1603 3395 1350 
Q 3244 1097 3066 891 
Q 3066 97 3250 97 
Q 3369 97 3445 167 
Q 3522 238 3580 341 
Q 3638 444 3653 447 
L 3731 447 
Q 3781 447 3781 384 
Q 3781 225 3598 76 
Q 3416 -72 3238 -72 
Q 3006 -72 2853 78 
Q 2700 228 2644 469 
Q 2344 213 1994 70 
Q 1644 -72 1288 -72 
z
M 1300 97 
Q 1984 97 2613 659 
Q 2609 697 2603 751 
Q 2597 806 2597 813 
L 2597 1503 
Q 2597 2663 1972 2663 
Q 1597 2663 1315 2342 
Q 1034 2022 892 1576 
Q 750 1131 750 763 
Q 750 484 892 290 
Q 1034 97 1300 97 
z
" transform="scale(0.015625)"/>
     </defs>
     <use xlink:href="#Cmmi10-7e" transform="translate(-13.48877 30.609375)"/>
     <use xlink:href="#Cmmi10-62" transform="translate(0 0.328125)"/>
     <use xlink:href="#Cmr10-3d" transform="translate(60.478516 0.328125)"/>
     <use xlink:href="#Cmr10-28" transform="translate(155.722656 0.328125)"/>
     <use xlink:href="#Cmmi10-6c" transform="translate(194.541016 0.328125)"/>
     <use xlink:href="#Cmr10-63" transform="translate(224.326172 0.328125)"/>
     <use xlink:href="#Cmr10-6f" transform="translate(268.710938 0.328125)"/>
     <use xlink:href="#Cmr10-73" transform="translate(318.710938 0.328125)"/>
     <use xlink:href="#Cmr10-28" transform="translate(358.115234 0.328125)"/>
     <use xlink:href="#Cmmi10-b5" transform="translate(396.933594 0.328125)"/>
     <use xlink:href="#Cmr10-2b" transform="translate(461.416016 0.328125)"/>
     <use xlink:href="#Cmmi10-ae" transform="translate(556.660156 0.328125)"/>
     <use xlink:href="#Cmr10-29" transform="translate(620.576172 0.328125)"/>
     <use xlink:href="#Cmmi10-3b" transform="translate(659.394531 0.328125)"/>
     <use xlink:href="#Cmmi10-6c" transform="translate(704.638672 0.328125)"/>
     <use xlink:href="#Cmr10-73" transform="translate(734.423828 0.328125)"/>
     <use xlink:href="#Cmr10-69" transform="translate(773.828125 0.328125)"/>
     <use xlink:href="#Cmr10-6e" transform="translate(801.513672 0.328125)"/>
     <use xlink:href="#Cmr10-28" transform="translate(857.03125 0.328125)"/>
     <use xlink:href="#Cmmi10-b5" transform="translate(895.849609 0.328125)"/>
     <use xlink:href="#Cmr10-2b" transform="translate(960.332031 0.328125)"/>
     <use xlink:href="#Cmmi10-ae" transform="translate(1055.576172 0.328125)"/>
     <use xlink:href="#Cmr10-29" transform="translate(1119.492188 0.328125)"/>
     <use xlink:href="#Cmr10-29" transform="translate(1158.310547 0.328125)"/>
    </g>
   </g>
   <g id="text_5">
    <!-- $\theta$ -->
    <g style="fill: #0000ff" transform="translate(439.483723 241.71884) scale(0.16 -0.16)">
     <use xlink:href="#Cmmi10-b5" transform="translate(0 0.484375)"/>
    </g>
   </g>
   <g id="text_6">
    <!-- $\alpha$ -->
    <g style="fill: #0000ff" transform="translate(433.687425 202.597766) scale(0.16 -0.16)">
     <use xlink:href="#Cmmi10-ae" transform="translate(0 0.8125)"/>
    </g>
   </g>
  </g>
 </g>
 <defs>
  <clipPath id="p31376c96e5">
   <rect x="10.8" y="15.028" width="343.8" height="262.172"/>
  </clipPath>
  <clipPath id="p17a6343fb5">
   <rect x="365.4" y="15.028" width="343.8" height="262.172"/>
  </clipPath>
 </defs>
</svg>
