<svg width="480" height="480" xmlns="http://www.w3.org/2000/svg">
 <g>
  <title>Layer 1</title>
  <ellipse fill="#fff" stroke="#000" cx="44" cy="51" id="svg_1" rx="34" ry="40"/>
  <ellipse fill="#fff" stroke="#000" cx="172" cy="52" id="svg_3" rx="34" ry="40"/>
  <ellipse fill="#fff" stroke="#000" cx="329" cy="54" id="svg_4" rx="34" ry="40"/>
  <ellipse fill="#fff" stroke="#000" cx="435" cy="50" id="svg_5" rx="34" ry="40"/>
  <ellipse fill="#fff" stroke="#000" cx="47" cy="429" id="svg_6" rx="34" ry="40"/>
  <ellipse fill="#fff" stroke="#000" cx="175" cy="430" id="svg_7" rx="34" ry="40"/>
  <ellipse fill="#fff" stroke="#000" cx="332" cy="432" id="svg_8" rx="34" ry="40"/>
  <ellipse fill="#fff" stroke="#000" cx="436" cy="430" id="svg_9" rx="34" ry="40"/>
  <line fill="none" stroke="#000" x1="64" y1="85" x2="163" y2="393" id="svg_13"/>
  <line fill="none" stroke="#000" x1="71" y1="79" x2="315" y2="395" id="svg_14"/>
  <line fill="none" stroke="#000" x1="76" y1="65" x2="416" y2="397" id="svg_15"/>
  <line fill="none" stroke="#000" x1="144" y1="75" x2="49" y2="387" id="svg_16"/>
  <line fill="none" stroke="#000" x1="190" y1="87" x2="317" y2="393" id="svg_17"/>
  <line fill="none" stroke="#000" x1="204" y1="70" x2="421" y2="395" id="svg_18"/>
  <line fill="none" stroke="#000" x1="303" y1="82" x2="62" y2="387" id="svg_19"/>
  <line fill="none" stroke="#000" x1="326" y1="92" x2="197" y2="397" id="svg_20"/>
  <line fill="none" stroke="#000" x1="346" y1="88" x2="432" y2="391" id="svg_21"/>
  <line fill="none" stroke="#000" x1="412" y1="80" x2="68" y2="393" id="svg_22"/>
  <line fill="none" stroke="#000" x1="424" y1="91" x2="177" y2="391" id="svg_23"/>
  <line fill="none" stroke="#000" x1="438" y1="91" x2="338" y2="391" id="svg_24"/>
  <path fill="none" stroke="#000" id="svg_25" d="m43,378c1,0 1.1731,0.85272 2,2c1.30745,1.814 1.1731,2.85272 2,4c1.30745,1.814 0.61732,3.07611 1,4c0.54119,1.30655 2,1 3,0c1,-1 1,-2 2,-3c1,-1 2,-1 3,-2l1,-1"/>
  <path fill="none" stroke="#000" id="svg_26" d="m71,382c0,1 0,2 0,3c0,1 0.38268,2.07611 0,3c-0.5412,1.30655 -1.29289,1.29291 -2,2c-0.70711,0.70709 -1.38268,1.07611 -1,2c0.5412,1.30655 2,1 4,1c2,0 4,1 7,1l3,0"/>
  <path fill="none" stroke="#000" id="svg_27" d="m152,385c1,0 3,1 4,2c1,1 2.4588,0.69345 3,2c0.38269,0.92389 0.29289,1.29291 1,2c1.41422,1.41422 2.77025,-0.02676 3,-1c0.51375,-2.17624 2.61731,-4.07611 3,-5c0.5412,-1.30655 2,-2 3,-3l1,-1"/>
  <path fill="none" stroke="#000" id="svg_28" d="m60,373c0,1 -0.45951,2.0535 0,4c0.51374,2.17624 1,3 1,4c0,1 0.48626,1.82376 1,4c0.22975,0.97324 1,1 2,1c1,0 2.07612,0.38269 3,0c1.30656,-0.5412 2.07612,-0.61731 3,-1c1.30656,-0.5412 2,-2 3,-2l0,-1"/>
  <path fill="none" stroke="#000" id="svg_29" d="m175,376c0,1 1,2 1,3c0,1 -0.38269,2.07611 0,3c0.5412,1.30655 1,2 1,3c0,1 -0.38269,2.07611 0,3c0.5412,1.30655 2,2 3,2c1,0 2,0 3,0c1,0 2,-1 3,-2l1,0l1,0l0,-1"/>
  <path fill="none" stroke="#000" id="svg_30" d="m197,382c0,1 0,2 0,3c0,1 0,2 0,3c0,1 0,2 0,3c0,1 0,2 0,3c0,1 0,3 1,3c1,0 2.29289,-0.29291 3,-1c0.70711,-0.70709 1.29289,-1.29291 2,-2c0.70711,-0.70709 1.29289,-1.29291 2,-2c0.70711,-0.70709 1,-1 2,-1l1,-1"/>
  <path fill="none" stroke="#000" id="svg_32" d="m309,382c0,1 0.4588,1.69345 1,3c0.76538,1.84775 1.4588,2.69345 2,4c0.38269,0.92389 1,2 2,2c1,0 2.29291,1.70709 3,1c0.70709,-0.70709 0,-2 0,-3c0,-1 0,-3 0,-6c0,-1 0,-3 0,-4c0,-1 0,-2 0,-3l0,-1"/>
  <path fill="none" stroke="#000" id="svg_33" d="m334,377c1,2 1.1731,2.85272 2,4c1.30746,1.814 1,3 1,4c0,1 0,3 0,4c0,1 -0.38269,2.07611 0,3c0.5412,1.30655 2.14935,1.52573 3,1c1.9021,-1.17557 1.27744,-4.88596 6,-8c4.49576,-2.96448 10,-4 14,-6l-1,-1"/>
  <path fill="none" stroke="#000" id="svg_34" d="m299,386c0,1 1,1 2,2c1,1 0.69345,2.4588 2,3c0.92389,0.38269 1.69345,1.4588 3,2c1.84775,0.76538 3.02676,0.77023 4,1c2.17624,0.51373 3,1 3,0c0,-1 0,-2 0,-6c0,-1 -1,-3 -1,-5c0,-1 0,-3 0,-4l0,-1"/>
  <path fill="none" stroke="#000" id="svg_35" d="m421,378c0,1 0.29291,2.29291 1,3c0.70709,0.70709 1.77023,2.02676 2,3c0.51373,2.17624 2.07611,1.61731 3,2c1.30655,0.5412 2,1 3,2c1,1 0.83981,-0.01291 1,-1c0.50653,-3.12143 2,-8 3,-14l1,-4l0,-3"/>
  <path fill="none" stroke="#000" id="svg_38" d="m396,396c2,0 3.00751,-0.12219 4,0c4.09222,0.50378 9,2 10,2c1,0 2,0 3,0c1,0 2,0 2,-1c0,-1 0,-2 0,-3c0,-1 0,-2 0,-3c0,-1 0,-2 0,-3c0,-1 0,-2 0,-3l0,-1l0,-1"/>
  <path fill="none" stroke="#000" id="svg_39" d="m410,386c1,0 1,1 2,2c1,1 2.29291,1.29291 3,2c0.70709,0.70709 0.69345,2.4588 2,3c0.92389,0.38269 2.29291,1.70709 3,1c0.70709,-0.70709 0,-3 0,-4c0,-1 0.38269,-2.07611 0,-3c-0.5412,-1.30655 -1,-2 -1,-3l-1,-1l0,-1"/>
  <text xml:space="preserve" text-anchor="start" font-family="Noto Sans JP" font-size="24" stroke-width="0" id="svg_2" y="53" x="41" stroke="#000" fill="#000000">1</text>
  <text xml:space="preserve" text-anchor="start" font-family="Noto Sans JP" font-size="24" stroke-width="0" id="svg_10" y="54" x="167" stroke="#000" fill="#000000">2</text>
  <text xml:space="preserve" text-anchor="start" font-family="Noto Sans JP" font-size="24" stroke-width="0" id="svg_11" y="54" x="324" stroke="#000" fill="#000000">3</text>
  <text xml:space="preserve" text-anchor="start" font-family="Noto Sans JP" font-size="24" stroke-width="0" id="svg_12" y="50" x="433" stroke="#000" fill="#000000">4</text>
  <text xml:space="preserve" text-anchor="start" font-family="Noto Sans JP" font-size="24" stroke-width="0" id="svg_31" y="428" x="45" stroke="#000" fill="#000000">5</text>
  <text xml:space="preserve" text-anchor="start" font-family="Noto Sans JP" font-size="24" stroke-width="0" id="svg_36" y="439" x="168" stroke="#000" fill="#000000">6</text>
  <text xml:space="preserve" text-anchor="start" font-family="Noto Sans JP" font-size="24" stroke-width="0" id="svg_37" y="441" x="324" stroke="#000" fill="#000000">7</text>
  <text xml:space="preserve" text-anchor="start" font-family="Noto Sans JP" font-size="24" stroke-width="0" id="svg_40" y="439" x="426" stroke="#000" fill="#000000">8</text>
 </g>

</svg>