<?xml version="1.0" encoding="UTF-8"?>
<svg xmlns="http://www.w3.org/2000/svg" xmlns:xlink="http://www.w3.org/1999/xlink" width="432.87pt" height="388.02pt" viewBox="0 0 432.87 388.02" version="1.1">
<defs>
<clipPath id="clip1">
  <path d="M 0 342 L 46 342 L 46 388.019531 L 0 388.019531 Z M 0 342 "/>
</clipPath>
<clipPath id="clip2">
  <path d="M 73 342 L 136 342 L 136 388.019531 L 73 388.019531 Z M 73 342 "/>
</clipPath>
<clipPath id="clip3">
  <path d="M 297 342 L 360 342 L 360 388.019531 L 297 388.019531 Z M 297 342 "/>
</clipPath>
<clipPath id="clip4">
  <path d="M 387 252 L 432.871094 252 L 432.871094 315 L 387 315 Z M 387 252 "/>
</clipPath>
<clipPath id="clip5">
  <path d="M 323 95 L 432.871094 95 L 432.871094 286 L 323 286 Z M 323 95 "/>
</clipPath>
</defs>
<g id="surface1">
<path style="fill:none;stroke-width:0.3985;stroke-linecap:butt;stroke-linejoin:miter;stroke:rgb(0%,0%,0%);stroke-opacity:1;stroke-miterlimit:10;" d="M 4.696198 -0.000229167 C 4.696198 2.593521 2.593333 4.696385 -0.000416667 4.696385 C -2.594167 4.696385 -4.695729 2.593521 -4.695729 -0.000229167 C -4.695729 -2.593979 -2.594167 -4.696844 -0.000416667 -4.696844 C 2.593333 -4.696844 4.696198 -2.593979 4.696198 -0.000229167 Z M 4.696198 -0.000229167 " transform="matrix(3,0,0,-3,238.845,14.679)"/>
<path style="fill:none;stroke-width:0.3985;stroke-linecap:butt;stroke-linejoin:miter;stroke:rgb(0%,0%,0%);stroke-opacity:1;stroke-miterlimit:10;" d="M -25.191823 -29.88825 C -25.191823 -27.2945 -27.294687 -25.191635 -29.888437 -25.191635 C -32.482187 -25.191635 -34.585052 -27.2945 -34.585052 -29.88825 C -34.585052 -32.482 -32.482187 -34.584865 -29.888437 -34.584865 C -27.294687 -34.584865 -25.191823 -32.482 -25.191823 -29.88825 Z M -25.191823 -29.88825 " transform="matrix(3,0,0,-3,238.845,14.679)"/>
<path style="fill:none;stroke-width:0.3985;stroke-linecap:butt;stroke-linejoin:miter;stroke:rgb(0%,100%,0%);stroke-opacity:1;stroke-miterlimit:10;" d="M -3.461354 -3.461167 L -26.426198 -26.42601 " transform="matrix(3,0,0,-3,238.845,14.679)"/>
<path style="fill:none;stroke-width:0.3985;stroke-linecap:butt;stroke-linejoin:miter;stroke:rgb(0%,0%,0%);stroke-opacity:1;stroke-miterlimit:10;" d="M -40.135833 -59.776271 C -40.135833 -57.182521 -42.238698 -55.079656 -44.832448 -55.079656 C -47.426198 -55.079656 -49.529062 -57.182521 -49.529062 -59.776271 C -49.529062 -62.370021 -47.426198 -64.472885 -44.832448 -64.472885 C -42.238698 -64.472885 -40.135833 -62.370021 -40.135833 -59.776271 Z M -40.135833 -59.776271 " transform="matrix(3,0,0,-3,238.845,14.679)"/>
<path style="fill:none;stroke-width:0.3985;stroke-linecap:butt;stroke-linejoin:miter;stroke:rgb(0%,100%,0%);stroke-opacity:1;stroke-miterlimit:10;" d="M -32.07724 -34.267156 L -42.643646 -55.397365 " transform="matrix(3,0,0,-3,238.845,14.679)"/>
<path style="fill:none;stroke-width:0.3985;stroke-linecap:butt;stroke-linejoin:miter;stroke:rgb(0%,0%,0%);stroke-opacity:1;stroke-miterlimit:10;" d="M -55.079844 -89.664292 C -55.079844 -87.070542 -57.182708 -84.968979 -59.776458 -84.968979 C -62.370208 -84.968979 -64.473073 -87.070542 -64.473073 -89.664292 C -64.473073 -92.258042 -62.370208 -94.360906 -59.776458 -94.360906 C -57.182708 -94.360906 -55.079844 -92.258042 -55.079844 -89.664292 Z M -55.079844 -89.664292 " transform="matrix(3,0,0,-3,238.845,14.679)"/>
<path style="fill:none;stroke-width:0.3985;stroke-linecap:butt;stroke-linejoin:miter;stroke:rgb(0%,100%,0%);stroke-opacity:1;stroke-miterlimit:10;" d="M -47.02125 -64.155177 L -57.587656 -85.286687 " transform="matrix(3,0,0,-3,238.845,14.679)"/>
<g clip-path="url(#clip1)" clip-rule="nonzero">
<path style="fill:none;stroke-width:0.3985;stroke-linecap:butt;stroke-linejoin:miter;stroke:rgb(0%,0%,0%);stroke-opacity:1;stroke-miterlimit:10;" d="M -70.023854 -119.553615 C -70.023854 -116.959865 -72.126719 -114.857 -74.720469 -114.857 C -77.314219 -114.857 -79.417083 -116.959865 -79.417083 -119.553615 C -79.417083 -122.147365 -77.314219 -124.248927 -74.720469 -124.248927 C -72.126719 -124.248927 -70.023854 -122.147365 -70.023854 -119.553615 Z M -70.023854 -119.553615 " transform="matrix(3,0,0,-3,238.845,14.679)"/>
</g>
<path style="fill:none;stroke-width:0.3985;stroke-linecap:butt;stroke-linejoin:miter;stroke:rgb(0%,100%,0%);stroke-opacity:1;stroke-miterlimit:10;" d="M -61.96526 -94.043198 L -72.531667 -115.174708 " transform="matrix(3,0,0,-3,238.845,14.679)"/>
<g clip-path="url(#clip2)" clip-rule="nonzero">
<path style="fill:none;stroke-width:0.3985;stroke-linecap:butt;stroke-linejoin:miter;stroke:rgb(0%,0%,0%);stroke-opacity:1;stroke-miterlimit:10;" d="M -40.135833 -119.553615 C -40.135833 -116.959865 -42.238698 -114.857 -44.832448 -114.857 C -47.426198 -114.857 -49.529062 -116.959865 -49.529062 -119.553615 C -49.529062 -122.147365 -47.426198 -124.248927 -44.832448 -124.248927 C -42.238698 -124.248927 -40.135833 -122.147365 -40.135833 -119.553615 Z M -40.135833 -119.553615 " transform="matrix(3,0,0,-3,238.845,14.679)"/>
</g>
<path style="fill:none;stroke-width:0.3985;stroke-linecap:butt;stroke-linejoin:miter;stroke:rgb(0%,0%,0%);stroke-opacity:1;stroke-miterlimit:10;" d="M -57.587656 -94.043198 L -47.02125 -115.174708 " transform="matrix(3,0,0,-3,238.845,14.679)"/>
<path style="fill:none;stroke-width:0.3985;stroke-linecap:butt;stroke-linejoin:miter;stroke:rgb(0%,0%,0%);stroke-opacity:1;stroke-miterlimit:10;" d="M -25.191823 -89.664292 C -25.191823 -87.070542 -27.294687 -84.968979 -29.888437 -84.968979 C -32.482187 -84.968979 -34.585052 -87.070542 -34.585052 -89.664292 C -34.585052 -92.258042 -32.482187 -94.360906 -29.888437 -94.360906 C -27.294687 -94.360906 -25.191823 -92.258042 -25.191823 -89.664292 Z M -25.191823 -89.664292 " transform="matrix(3,0,0,-3,238.845,14.679)"/>
<path style="fill:none;stroke-width:0.3985;stroke-linecap:butt;stroke-linejoin:miter;stroke:rgb(0%,0%,0%);stroke-opacity:1;stroke-miterlimit:10;" d="M -42.643646 -64.155177 L -32.07724 -85.286687 " transform="matrix(3,0,0,-3,238.845,14.679)"/>
<path style="fill:none;stroke-width:0.3985;stroke-linecap:butt;stroke-linejoin:miter;stroke:rgb(0%,0%,0%);stroke-opacity:1;stroke-miterlimit:10;" d="M -10.247812 -59.776271 C -10.247812 -57.182521 -12.350677 -55.079656 -14.944427 -55.079656 C -17.538177 -55.079656 -19.641042 -57.182521 -19.641042 -59.776271 C -19.641042 -62.370021 -17.538177 -64.472885 -14.944427 -64.472885 C -12.350677 -64.472885 -10.247812 -62.370021 -10.247812 -59.776271 Z M -10.247812 -59.776271 " transform="matrix(3,0,0,-3,238.845,14.679)"/>
<path style="fill:none;stroke-width:0.3985;stroke-linecap:butt;stroke-linejoin:miter;stroke:rgb(0%,100%,0%);stroke-opacity:1;stroke-miterlimit:10;" d="M -27.699635 -34.267156 L -17.133229 -55.397365 " transform="matrix(3,0,0,-3,238.845,14.679)"/>
<path style="fill:none;stroke-width:0.3985;stroke-linecap:butt;stroke-linejoin:miter;stroke:rgb(0%,0%,0%);stroke-opacity:1;stroke-miterlimit:10;" d="M 4.696198 -89.664292 C 4.696198 -87.070542 2.593333 -84.968979 -0.000416667 -84.968979 C -2.594167 -84.968979 -4.695729 -87.070542 -4.695729 -89.664292 C -4.695729 -92.258042 -2.594167 -94.360906 -0.000416667 -94.360906 C 2.593333 -94.360906 4.696198 -92.258042 4.696198 -89.664292 Z M 4.696198 -89.664292 " transform="matrix(3,0,0,-3,238.845,14.679)"/>
<path style="fill:none;stroke-width:0.3985;stroke-linecap:butt;stroke-linejoin:miter;stroke:rgb(0%,100%,0%);stroke-opacity:1;stroke-miterlimit:10;" d="M -12.754323 -64.155177 L -2.189219 -85.286687 " transform="matrix(3,0,0,-3,238.845,14.679)"/>
<path style="fill:none;stroke-width:0.3985;stroke-linecap:butt;stroke-linejoin:miter;stroke:rgb(0%,0%,0%);stroke-opacity:1;stroke-miterlimit:10;" d="M 34.584219 -29.88825 C 34.584219 -27.2945 32.482656 -25.191635 29.888906 -25.191635 C 27.295156 -25.191635 25.192292 -27.2945 25.192292 -29.88825 C 25.192292 -32.482 27.295156 -34.584865 29.888906 -34.584865 C 32.482656 -34.584865 34.584219 -32.482 34.584219 -29.88825 Z M 34.584219 -29.88825 " transform="matrix(3,0,0,-3,238.845,14.679)"/>
<path style="fill:none;stroke-width:0.3985;stroke-linecap:butt;stroke-linejoin:miter;stroke:rgb(0%,0%,0%);stroke-opacity:1;stroke-miterlimit:10;" d="M 3.461823 -3.461167 L 26.426667 -26.42601 " transform="matrix(3,0,0,-3,238.845,14.679)"/>
<path style="fill:none;stroke-width:0.3985;stroke-linecap:butt;stroke-linejoin:miter;stroke:rgb(0%,0%,0%);stroke-opacity:1;stroke-miterlimit:10;" d="M 49.528229 -59.776271 C 49.528229 -57.182521 47.426667 -55.079656 44.832917 -55.079656 C 42.239167 -55.079656 40.136302 -57.182521 40.136302 -59.776271 C 40.136302 -62.370021 42.239167 -64.472885 44.832917 -64.472885 C 47.426667 -64.472885 49.528229 -62.370021 49.528229 -59.776271 Z M 49.528229 -59.776271 " transform="matrix(3,0,0,-3,238.845,14.679)"/>
<path style="fill:none;stroke-width:0.3985;stroke-linecap:butt;stroke-linejoin:miter;stroke:rgb(0%,100%,0%);stroke-opacity:1;stroke-miterlimit:10;" d="M 32.077708 -34.267156 L 42.642813 -55.397365 " transform="matrix(3,0,0,-3,238.845,14.679)"/>
<path style="fill:none;stroke-width:0.3985;stroke-linecap:butt;stroke-linejoin:miter;stroke:rgb(0%,0%,0%);stroke-opacity:1;stroke-miterlimit:10;" d="M 34.584219 -89.664292 C 34.584219 -87.070542 32.482656 -84.968979 29.888906 -84.968979 C 27.295156 -84.968979 25.192292 -87.070542 25.192292 -89.664292 C 25.192292 -92.258042 27.295156 -94.360906 29.888906 -94.360906 C 32.482656 -94.360906 34.584219 -92.258042 34.584219 -89.664292 Z M 34.584219 -89.664292 " transform="matrix(3,0,0,-3,238.845,14.679)"/>
<path style="fill:none;stroke-width:0.3985;stroke-linecap:butt;stroke-linejoin:miter;stroke:rgb(0%,100%,0%);stroke-opacity:1;stroke-miterlimit:10;" d="M 42.642813 -64.155177 L 32.077708 -85.286687 " transform="matrix(3,0,0,-3,238.845,14.679)"/>
<g clip-path="url(#clip3)" clip-rule="nonzero">
<path style="fill:none;stroke-width:0.3985;stroke-linecap:butt;stroke-linejoin:miter;stroke:rgb(0%,0%,0%);stroke-opacity:1;stroke-miterlimit:10;" d="M 34.584219 -119.553615 C 34.584219 -116.959865 32.482656 -114.857 29.888906 -114.857 C 27.295156 -114.857 25.192292 -116.959865 25.192292 -119.553615 C 25.192292 -122.147365 27.295156 -124.248927 29.888906 -124.248927 C 32.482656 -124.248927 34.584219 -122.147365 34.584219 -119.553615 Z M 34.584219 -119.553615 " transform="matrix(3,0,0,-3,238.845,14.679)"/>
</g>
<path style="fill:none;stroke-width:0.3985;stroke-linecap:butt;stroke-linejoin:miter;stroke:rgb(0%,0%,0%);stroke-opacity:1;stroke-miterlimit:10;" d="M 29.888906 -94.560125 L 29.888906 -114.657781 " transform="matrix(3,0,0,-3,238.845,14.679)"/>
<g clip-path="url(#clip4)" clip-rule="nonzero">
<path style="fill:none;stroke-width:0.3985;stroke-linecap:butt;stroke-linejoin:miter;stroke:rgb(0%,0%,0%);stroke-opacity:1;stroke-miterlimit:10;" d="M 64.473542 -89.664292 C 64.473542 -87.070542 62.370677 -84.968979 59.776927 -84.968979 C 57.183177 -84.968979 55.080313 -87.070542 55.080313 -89.664292 C 55.080313 -92.258042 57.183177 -94.360906 59.776927 -94.360906 C 62.370677 -94.360906 64.473542 -92.258042 64.473542 -89.664292 Z M 64.473542 -89.664292 " transform="matrix(3,0,0,-3,238.845,14.679)"/>
</g>
<path style="fill:none;stroke-width:0.3985;stroke-linecap:butt;stroke-linejoin:miter;stroke:rgb(0%,100%,0%);stroke-opacity:1;stroke-miterlimit:10;" d="M 47.021719 -64.155177 L 57.586823 -85.286687 " transform="matrix(3,0,0,-3,238.845,14.679)"/>
<path style="fill:none;stroke-width:0.3985;stroke-linecap:butt;stroke-linejoin:miter;stroke:rgb(100%,0%,0%);stroke-opacity:1;stroke-miterlimit:10;" d="M -0.000416667 -4.896062 L -0.000416667 -84.76976 " transform="matrix(3,0,0,-3,238.845,14.679)"/>
<path style="fill:none;stroke-width:0.3985;stroke-linecap:butt;stroke-linejoin:miter;stroke:rgb(100%,0%,0%);stroke-opacity:1;stroke-miterlimit:10;" d="M -33.974375 -32.586167 C -63.950937 -52.377833 -77.165781 -78.806219 -75.01474 -114.664292 " transform="matrix(3,0,0,-3,238.845,14.679)"/>
<path style="fill:none;stroke-width:0.3985;stroke-linecap:butt;stroke-linejoin:miter;stroke:rgb(100%,0%,0%);stroke-opacity:1;stroke-miterlimit:10;" d="M 29.888906 -34.784083 L 29.888906 -84.76976 " transform="matrix(3,0,0,-3,238.845,14.679)"/>
<g clip-path="url(#clip5)" clip-rule="nonzero">
<path style="fill:none;stroke-width:0.3985;stroke-linecap:butt;stroke-linejoin:miter;stroke:rgb(100%,0%,0%);stroke-opacity:1;stroke-miterlimit:10;" d="M 33.973542 -32.586167 C 53.036042 -45.170802 61.438385 -61.97549 60.069896 -84.774969 " transform="matrix(3,0,0,-3,238.845,14.679)"/>
</g>
</g>
</svg>
