<?xml version="1.0" encoding="UTF-8" standalone="no"?>
<svg
   width="159.139pt"
   height="187.485pt"
   viewBox="0 0 159.139 187.485"
   version="1.2"
   id="svg35"
   xmlns="http://www.w3.org/2000/svg"
   xmlns:svg="http://www.w3.org/2000/svg">
  <defs
     id="defs8">
    <clipPath
       id="clip1">
      <path
         d="M 136 51 L 159.140625 51 L 159.140625 80 L 136 80 Z M 136 51 "
         id="path2" />
    </clipPath>
    <clipPath
       id="clip2">
      <path
         d="M 107 164 L 137 164 L 137 187.484375 L 107 187.484375 Z M 107 164 "
         id="path5" />
    </clipPath>
  </defs>
  <g
     id="surface1">
    <path
       style="fill:none;stroke-width:0.3985;stroke-linecap:butt;stroke-linejoin:miter;stroke:rgb(0%,0%,0%);stroke-opacity:1;stroke-miterlimit:10;"
       d="M -19.844563 56.692875 C -19.844563 61.392094 -23.64925 65.196781 -28.348469 65.196781 C -33.043781 65.196781 -36.852375 61.392094 -36.852375 56.692875 C -36.852375 51.997563 -33.043781 48.188969 -28.348469 48.188969 C -23.64925 48.188969 -19.844563 51.997563 -19.844563 56.692875 Z M -19.844563 56.692875 "
       transform="matrix(1,0,0,-1,93.743,65.396)"
       id="path10" />
    <path
       style="fill:none;stroke-width:0.3985;stroke-linecap:butt;stroke-linejoin:miter;stroke:rgb(0%,0%,0%);stroke-opacity:1;stroke-miterlimit:10;"
       d="M 36.85075 56.692875 C 36.85075 61.392094 33.042156 65.196781 28.346844 65.196781 C 23.651531 65.196781 19.842937 61.392094 19.842937 56.692875 C 19.842937 51.997563 23.651531 48.188969 28.346844 48.188969 C 33.042156 48.188969 36.85075 51.997563 36.85075 56.692875 Z M 36.85075 56.692875 "
       transform="matrix(1,0,0,-1,93.743,65.396)"
       id="path12" />
    <path
       style="fill:none;stroke-width:0.3985;stroke-linecap:butt;stroke-linejoin:miter;stroke:rgb(0%,0%,0%);stroke-opacity:1;stroke-miterlimit:10;"
       d="M 8.503094 0.00146875 C 8.503094 4.696781 4.698406 8.505375 -0.0008125 8.505375 C -4.696125 8.505375 -8.504719 4.696781 -8.504719 0.00146875 C -8.504719 -4.69775 -4.696125 -8.502437 -0.0008125 -8.502437 C 4.698406 -8.502437 8.503094 -4.69775 8.503094 0.00146875 Z M 8.503094 0.00146875 "
       transform="matrix(1,0,0,-1,93.743,65.396)"
       id="path14" />
    <path
       style="fill:none;stroke-width:0.3985;stroke-linecap:butt;stroke-linejoin:miter;stroke:rgb(0%,0%,0%);stroke-opacity:1;stroke-miterlimit:10;"
       d="M -48.188313 0.00146875 C -48.188313 4.696781 -51.996906 8.505375 -56.692219 8.505375 C -61.391438 8.505375 -65.196125 4.696781 -65.196125 0.00146875 C -65.196125 -4.69775 -61.391438 -8.502437 -56.692219 -8.502437 C -51.996906 -8.502437 -48.188313 -4.69775 -48.188313 0.00146875 Z M -48.188313 0.00146875 "
       transform="matrix(1,0,0,-1,93.743,65.396)"
       id="path16" />
    <path
       style="fill:none;stroke-width:0.3985;stroke-linecap:butt;stroke-linejoin:miter;stroke:rgb(0%,0%,0%);stroke-opacity:1;stroke-miterlimit:10;"
       d="M -19.844563 -56.693844 C -19.844563 -51.998531 -23.64925 -48.189937 -28.348469 -48.189937 C -33.043781 -48.189937 -36.852375 -51.998531 -36.852375 -56.693844 C -36.852375 -61.389156 -33.043781 -65.19775 -28.348469 -65.19775 C -23.64925 -65.19775 -19.844563 -61.389156 -19.844563 -56.693844 Z M -19.844563 -56.693844 "
       transform="matrix(1,0,0,-1,93.743,65.396)"
       id="path18" />
    <path
       style="fill:none;stroke-width:0.3985;stroke-linecap:butt;stroke-linejoin:miter;stroke:rgb(0%,0%,0%);stroke-opacity:1;stroke-miterlimit:10;"
       d="M -76.535969 -56.693844 C -76.535969 -51.998531 -80.344563 -48.189937 -85.039875 -48.189937 C -89.735188 -48.189937 -93.543781 -51.998531 -93.543781 -56.693844 C -93.543781 -61.389156 -89.735188 -65.19775 -85.039875 -65.19775 C -80.344563 -65.19775 -76.535969 -61.389156 -76.535969 -56.693844 Z M -76.535969 -56.693844 "
       transform="matrix(1,0,0,-1,93.743,65.396)"
       id="path20" />
    <g
       clip-path="url(#clip1)"
       clip-rule="nonzero"
       id="g24">
      <path
         style="fill:none;stroke-width:0.3985;stroke-linecap:butt;stroke-linejoin:miter;stroke:rgb(0%,0%,0%);stroke-opacity:1;stroke-miterlimit:10;"
         d="M 65.198406 0.00146875 C 65.198406 4.696781 61.389812 8.505375 56.6945 8.505375 C 51.995281 8.505375 48.190594 4.696781 48.190594 0.00146875 C 48.190594 -4.69775 51.995281 -8.502437 56.6945 -8.502437 C 61.389812 -8.502437 65.198406 -4.69775 65.198406 0.00146875 Z M 65.198406 0.00146875 "
         transform="matrix(1,0,0,-1,93.743,65.396)"
         id="path22" />
    </g>
    <path
       style="fill:none;stroke-width:0.3985;stroke-linecap:butt;stroke-linejoin:miter;stroke:rgb(0%,0%,0%);stroke-opacity:1;stroke-miterlimit:10;"
       d="M 36.85075 -56.693844 C 36.85075 -51.998531 33.042156 -48.189937 28.346844 -48.189937 C 23.651531 -48.189937 19.842937 -51.998531 19.842937 -56.693844 C 19.842937 -61.389156 23.651531 -65.19775 28.346844 -65.19775 C 33.042156 -65.19775 36.85075 -61.389156 36.85075 -56.693844 Z M 36.85075 -56.693844 "
       transform="matrix(1,0,0,-1,93.743,65.396)"
       id="path26" />
    <g
       clip-path="url(#clip2)"
       clip-rule="nonzero"
       id="g30">
      <path
         style="fill:none;stroke-width:0.3985;stroke-linecap:butt;stroke-linejoin:miter;stroke:rgb(0%,0%,0%);stroke-opacity:1;stroke-miterlimit:10;"
         d="M 36.85075 -113.389156 C 36.85075 -108.689937 33.042156 -104.881344 28.346844 -104.881344 C 23.651531 -104.881344 19.842937 -108.689937 19.842937 -113.389156 C 19.842937 -118.084469 23.651531 -121.893062 28.346844 -121.893062 C 33.042156 -121.893062 36.85075 -118.084469 36.85075 -113.389156 Z M 36.85075 -113.389156 "
         transform="matrix(1,0,0,-1,93.743,65.396)"
         id="path28" />
    </g>
    <path
       style="fill:none;stroke-width:0.3985;stroke-linecap:butt;stroke-linejoin:miter;stroke:rgb(0%,0%,0%);stroke-opacity:1;stroke-miterlimit:10;"
       d="M -19.645344 56.692875 L 19.643719 56.692875 M 24.456219 48.911625 L 3.893719 7.782719 M -3.891438 7.782719 L -24.453938 48.911625 M -8.703938 0.00146875 L -47.989094 0.00146875 M -3.891438 -7.783687 L -24.453938 -48.908687 M -52.801594 -7.783687 L -32.239094 -48.908687 M -37.051594 -56.693844 L -76.33675 -56.693844 M -81.14925 -48.908687 L -60.58675 -7.783687 M 8.702312 0.00146875 L 47.991375 0.00146875 M 52.799969 -7.783687 L 32.237469 -48.908687 M 24.456219 -48.908687 L 3.893719 -7.783687 M 28.346844 -65.396969 L 28.346844 -104.682125 "
       transform="matrix(1,0,0,-1,93.743,65.396)"
       id="path32" />
  </g>
</svg>
