<svg id="SvgjsSvg1126" width="680" height="400" xmlns="http://www.w3.org/2000/svg" version="1.1" xmlns:xlink="http://www.w3.org/1999/xlink" xmlns:svgjs="http://svgjs.com/svgjs"><defs id="SvgjsDefs1127"><marker id="SvgjsMarker1196" markerWidth="14" markerHeight="10" refX="10" refY="5" viewBox="0 0 14 10" orient="auto" markerUnits="userSpaceOnUse" stroke-dasharray="0,0"><path id="SvgjsPath1197" d="M0,0 L14,5 L0,10 L0,0" fill="#323232" stroke="#323232" stroke-width="1"></path></marker><marker id="SvgjsMarker1200" markerWidth="14" markerHeight="10" refX="10" refY="5" viewBox="0 0 14 10" orient="auto" markerUnits="userSpaceOnUse" stroke-dasharray="0,0"><path id="SvgjsPath1201" d="M0,0 L14,5 L0,10 L0,0" fill="#323232" stroke="#323232" stroke-width="1"></path></marker><marker id="SvgjsMarker1204" markerWidth="14" markerHeight="10" refX="10" refY="5" viewBox="0 0 14 10" orient="auto" markerUnits="userSpaceOnUse" stroke-dasharray="0,0"><path id="SvgjsPath1205" d="M0,0 L14,5 L0,10 L0,0" fill="#323232" stroke="#323232" stroke-width="1"></path></marker><marker id="SvgjsMarker1208" markerWidth="14" markerHeight="10" refX="10" refY="5" viewBox="0 0 14 10" orient="auto" markerUnits="userSpaceOnUse" stroke-dasharray="0,0"><path id="SvgjsPath1209" d="M0,0 L14,5 L0,10 L0,0" fill="#323232" stroke="#323232" stroke-width="1"></path></marker><marker id="SvgjsMarker1212" markerWidth="14" markerHeight="10" refX="10" refY="5" viewBox="0 0 14 10" orient="auto" markerUnits="userSpaceOnUse" stroke-dasharray="0,0"><path id="SvgjsPath1213" d="M0,0 L14,5 L0,10 L0,0" fill="#323232" stroke="#323232" stroke-width="1"></path></marker><marker id="SvgjsMarker1216" markerWidth="14" markerHeight="10" refX="10" refY="5" viewBox="0 0 14 10" orient="auto" markerUnits="userSpaceOnUse" stroke-dasharray="0,0"><path id="SvgjsPath1217" d="M0,0 L14,5 L0,10 L0,0" fill="#323232" stroke="#323232" stroke-width="1"></path></marker><marker id="SvgjsMarker1220" markerWidth="14" markerHeight="10" refX="10" refY="5" viewBox="0 0 14 10" orient="auto" markerUnits="userSpaceOnUse" stroke-dasharray="0,0"><path id="SvgjsPath1221" d="M0,0 L14,5 L0,10 L0,0" fill="#323232" stroke="#323232" stroke-width="1"></path></marker><marker id="SvgjsMarker1224" markerWidth="14" markerHeight="10" refX="10" refY="5" viewBox="0 0 14 10" orient="auto" markerUnits="userSpaceOnUse" stroke-dasharray="0,0"><path id="SvgjsPath1225" d="M0,0 L14,5 L0,10 L0,0" fill="#323232" stroke="#323232" stroke-width="1"></path></marker><marker id="SvgjsMarker1228" markerWidth="14" markerHeight="10" refX="10" refY="5" viewBox="0 0 14 10" orient="auto" markerUnits="userSpaceOnUse" stroke-dasharray="0,0"><path id="SvgjsPath1229" d="M0,0 L14,5 L0,10 L0,0" fill="#323232" stroke="#323232" stroke-width="1"></path></marker><marker id="SvgjsMarker1232" markerWidth="14" markerHeight="10" refX="10" refY="5" viewBox="0 0 14 10" orient="auto" markerUnits="userSpaceOnUse" stroke-dasharray="0,0"><path id="SvgjsPath1233" d="M0,0 L14,5 L0,10 L0,0" fill="#323232" stroke="#323232" stroke-width="1"></path></marker><marker id="SvgjsMarker1236" markerWidth="14" markerHeight="10" refX="10" refY="5" viewBox="0 0 14 10" orient="auto" markerUnits="userSpaceOnUse" stroke-dasharray="0,0"><path id="SvgjsPath1237" d="M0,0 L14,5 L0,10 L0,0" fill="#323232" stroke="#323232" stroke-width="1"></path></marker><marker id="SvgjsMarker1240" markerWidth="14" markerHeight="10" refX="10" refY="5" viewBox="0 0 14 10" orient="auto" markerUnits="userSpaceOnUse" stroke-dasharray="0,0"><path id="SvgjsPath1241" d="M0,0 L14,5 L0,10 L0,0" fill="#323232" stroke="#323232" stroke-width="1"></path></marker><marker id="SvgjsMarker1244" markerWidth="14" markerHeight="10" refX="10" refY="5" viewBox="0 0 14 10" orient="auto" markerUnits="userSpaceOnUse" stroke-dasharray="0,0"><path id="SvgjsPath1245" d="M0,0 L14,5 L0,10 L0,0" fill="#323232" stroke="#323232" stroke-width="1"></path></marker><marker id="SvgjsMarker1248" markerWidth="14" markerHeight="10" refX="10" refY="5" viewBox="0 0 14 10" orient="auto" markerUnits="userSpaceOnUse" stroke-dasharray="0,0"><path id="SvgjsPath1249" d="M0,0 L14,5 L0,10 L0,0" fill="#4ccbcd" stroke="#4ccbcd" stroke-width="1"></path></marker></defs><g id="SvgjsG1128" transform="translate(110,25)"><path id="SvgjsPath1129" d="M 16.666666666666668 0L 83.33333333333333 0C 105.55555555555556 0 105.55555555555556 50 83.33333333333333 50L 16.666666666666668 50C -5.555555555555556 50 -5.555555555555556 0 16.666666666666668 0Z" stroke="rgba(33,41,48,1)" stroke-width="2" fill-opacity="1" fill="#ffffff"></path><g id="SvgjsG1130"><text id="SvgjsText1131" font-family="微软雅黑" text-anchor="middle" font-size="13px" width="80px" fill="#323232" font-weight="400" align="middle" lineHeight="125%" anchor="middle" family="微软雅黑" size="13px" weight="400" font-style="" opacity="1" y="14.375" transform="rotate(0)"><tspan id="SvgjsTspan1132" dy="16" x="50"><tspan id="SvgjsTspan1133" style="text-decoration:;">程序设计</tspan></tspan></text></g></g><g id="SvgjsG1134" transform="translate(330,25)"><path id="SvgjsPath1135" d="M 16.666666666666668 0L 83.33333333333333 0C 105.55555555555556 0 105.55555555555556 50 83.33333333333333 50L 16.666666666666668 50C -5.555555555555556 50 -5.555555555555556 0 16.666666666666668 0Z" stroke="rgba(33,41,48,1)" stroke-width="2" fill-opacity="1" fill="#ffffff"></path><g id="SvgjsG1136"><text id="SvgjsText1137" font-family="微软雅黑" text-anchor="middle" font-size="13px" width="80px" fill="#323232" font-weight="400" align="middle" lineHeight="125%" anchor="middle" family="微软雅黑" size="13px" weight="400" font-style="" opacity="1" y="14.375" transform="rotate(0)"><tspan id="SvgjsTspan1138" dy="16" x="50"><tspan id="SvgjsTspan1139" style="text-decoration:;">算法语言</tspan></tspan></text></g></g><g id="SvgjsG1140" transform="translate(25,125)"><path id="SvgjsPath1141" d="M 16.666666666666668 0L 83.33333333333333 0C 105.55555555555556 0 105.55555555555556 50 83.33333333333333 50L 16.666666666666668 50C -5.555555555555556 50 -5.555555555555556 0 16.666666666666668 0Z" stroke="rgba(33,41,48,1)" stroke-width="2" fill-opacity="1" fill="#ffffff"></path><g id="SvgjsG1142"><text id="SvgjsText1143" font-family="微软雅黑" text-anchor="middle" font-size="13px" width="80px" fill="#323232" font-weight="400" align="middle" lineHeight="125%" anchor="middle" family="微软雅黑" size="13px" weight="400" font-style="" opacity="1" y="14.375" transform="rotate(0)"><tspan id="SvgjsTspan1144" dy="16" x="50"><tspan id="SvgjsTspan1145" style="text-decoration:;">高等数学</tspan></tspan></text></g></g><g id="SvgjsG1146" transform="translate(230,125)"><path id="SvgjsPath1147" d="M 16.666666666666668 0L 83.33333333333333 0C 105.55555555555556 0 105.55555555555556 50 83.33333333333333 50L 16.666666666666668 50C -5.555555555555556 50 -5.555555555555556 0 16.666666666666668 0Z" stroke="rgba(33,41,48,1)" stroke-width="2" fill-opacity="1" fill="#ffffff"></path><g id="SvgjsG1148"><text id="SvgjsText1149" font-family="微软雅黑" text-anchor="middle" font-size="13px" width="80px" fill="#323232" font-weight="400" align="middle" lineHeight="125%" anchor="middle" family="微软雅黑" size="13px" weight="400" font-style="" opacity="1" y="14.375" transform="rotate(0)"><tspan id="SvgjsTspan1150" dy="16" x="50"><tspan id="SvgjsTspan1151" style="text-decoration:;">离散数学</tspan></tspan></text></g></g><g id="SvgjsG1152" transform="translate(383,125)"><path id="SvgjsPath1153" d="M 16.666666666666668 0L 83.33333333333333 0C 105.55555555555556 0 105.55555555555556 50 83.33333333333333 50L 16.666666666666668 50C -5.555555555555556 50 -5.555555555555556 0 16.666666666666668 0Z" stroke="rgba(33,41,48,1)" stroke-width="2" fill-opacity="1" fill="#ffffff"></path><g id="SvgjsG1154"><text id="SvgjsText1155" font-family="微软雅黑" text-anchor="middle" font-size="13px" width="80px" fill="#323232" font-weight="400" align="middle" lineHeight="125%" anchor="middle" family="微软雅黑" size="13px" weight="400" font-style="" opacity="1" y="14.375" transform="rotate(0)"><tspan id="SvgjsTspan1156" dy="16" x="50"><tspan id="SvgjsTspan1157" style="text-decoration:;">编译技术</tspan></tspan></text></g></g><g id="SvgjsG1158" transform="translate(25,225)"><path id="SvgjsPath1159" d="M 16.666666666666668 0L 83.33333333333333 0C 105.55555555555556 0 105.55555555555556 50 83.33333333333333 50L 16.666666666666668 50C -5.555555555555556 50 -5.555555555555556 0 16.666666666666668 0Z" stroke="rgba(33,41,48,1)" stroke-width="2" fill-opacity="1" fill="#ffffff"></path><g id="SvgjsG1160"><text id="SvgjsText1161" font-family="微软雅黑" text-anchor="middle" font-size="13px" width="80px" fill="#323232" font-weight="400" align="middle" lineHeight="125%" anchor="middle" family="微软雅黑" size="13px" weight="400" font-style="" opacity="1" y="14.375" transform="rotate(0)"><tspan id="SvgjsTspan1162" dy="16" x="50"><tspan id="SvgjsTspan1163" style="text-decoration:;">普通物理</tspan></tspan></text></g></g><g id="SvgjsG1164" transform="translate(269,225)"><path id="SvgjsPath1165" d="M 16.666666666666668 0L 83.33333333333333 0C 105.55555555555556 0 105.55555555555556 50 83.33333333333333 50L 16.666666666666668 50C -5.555555555555556 50 -5.555555555555556 0 16.666666666666668 0Z" stroke="rgba(33,41,48,1)" stroke-width="2" fill-opacity="1" fill="#ffffff"></path><g id="SvgjsG1166"><text id="SvgjsText1167" font-family="微软雅黑" text-anchor="middle" font-size="13px" width="80px" fill="#323232" font-weight="400" align="middle" lineHeight="125%" anchor="middle" family="微软雅黑" size="13px" weight="400" font-style="" opacity="1" y="14.375" transform="rotate(0)"><tspan id="SvgjsTspan1168" dy="16" x="50"><tspan id="SvgjsTspan1169" style="text-decoration:;">数据结构</tspan></tspan></text></g></g><g id="SvgjsG1170" transform="translate(555,219)"><path id="SvgjsPath1171" d="M 16.666666666666668 0L 83.33333333333333 0C 105.55555555555556 0 105.55555555555556 50 83.33333333333333 50L 16.666666666666668 50C -5.555555555555556 50 -5.555555555555556 0 16.666666666666668 0Z" stroke="rgba(33,41,48,1)" stroke-width="2" fill-opacity="1" fill="#ffffff"></path><g id="SvgjsG1172"><text id="SvgjsText1173" font-family="微软雅黑" text-anchor="middle" font-size="13px" width="80px" fill="#323232" font-weight="400" align="middle" lineHeight="125%" anchor="middle" family="微软雅黑" size="13px" weight="400" font-style="" opacity="1" y="14.375" transform="rotate(0)"><tspan id="SvgjsTspan1174" dy="16" x="50"><tspan id="SvgjsTspan1175" style="text-decoration:;">数据库系统</tspan></tspan></text></g></g><g id="SvgjsG1176" transform="translate(25,325)"><path id="SvgjsPath1177" d="M 16.666666666666668 0L 83.33333333333333 0C 105.55555555555556 0 105.55555555555556 50 83.33333333333333 50L 16.666666666666668 50C -5.555555555555556 50 -5.555555555555556 0 16.666666666666668 0Z" stroke="rgba(33,41,48,1)" stroke-width="2" fill-opacity="1" fill="#ffffff"></path><g id="SvgjsG1178"><text id="SvgjsText1179" font-family="微软雅黑" text-anchor="middle" font-size="13px" width="80px" fill="#323232" font-weight="400" align="middle" lineHeight="125%" anchor="middle" family="微软雅黑" size="13px" weight="400" font-style="" opacity="1" y="14.375" transform="rotate(0)"><tspan id="SvgjsTspan1180" dy="16" x="50"><tspan id="SvgjsTspan1181" style="text-decoration:;">组成原理</tspan></tspan></text></g></g><g id="SvgjsG1182" transform="translate(269,325)"><path id="SvgjsPath1183" d="M 16.666666666666668 0L 83.33333333333333 0C 105.55555555555556 0 105.55555555555556 50 83.33333333333333 50L 16.666666666666668 50C -5.555555555555556 50 -5.555555555555556 0 16.666666666666668 0Z" stroke="rgba(33,41,48,1)" stroke-width="2" fill-opacity="1" fill="#ffffff"></path><g id="SvgjsG1184"><text id="SvgjsText1185" font-family="微软雅黑" text-anchor="middle" font-size="13px" width="80px" fill="#323232" font-weight="400" align="middle" lineHeight="125%" anchor="middle" family="微软雅黑" size="13px" weight="400" font-style="" opacity="1" y="14.375" transform="rotate(0)"><tspan id="SvgjsTspan1186" dy="16" x="50"><tspan id="SvgjsTspan1187" style="text-decoration:;">操作系统</tspan></tspan></text></g></g><g id="SvgjsG1188" transform="translate(555,325)"><path id="SvgjsPath1189" d="M 16.666666666666668 0L 83.33333333333333 0C 105.55555555555556 0 105.55555555555556 50 83.33333333333333 50L 16.666666666666668 50C -5.555555555555556 50 -5.555555555555556 0 16.666666666666668 0Z" stroke="rgba(33,41,48,1)" stroke-width="2" fill-opacity="1" fill="#ffffff"></path><g id="SvgjsG1190"><text id="SvgjsText1191" font-family="微软雅黑" text-anchor="middle" font-size="13px" width="80px" fill="#323232" font-weight="400" align="middle" lineHeight="125%" anchor="middle" family="微软雅黑" size="13px" weight="400" font-style="" opacity="1" y="14.375" transform="rotate(0)"><tspan id="SvgjsTspan1192" dy="16" x="50"><tspan id="SvgjsTspan1193" style="text-decoration:;">软件工程</tspan></tspan></text></g></g><g id="SvgjsG1194"><path id="SvgjsPath1195" d="M160 76L160 100L280 100L280 121.4" stroke="#323232" stroke-width="2" fill="none" marker-end="url(#SvgjsMarker1196)"></path></g><g id="SvgjsG1198"><path id="SvgjsPath1199" d="M211 50L270 50L270 50L326.4 50" stroke="#323232" stroke-width="2" fill="none" marker-end="url(#SvgjsMarker1200)"></path></g><g id="SvgjsG1202"><path id="SvgjsPath1203" d="M380 76L380 100L433 100L433 121.4" stroke="#323232" stroke-width="2" fill="none" marker-end="url(#SvgjsMarker1204)"></path></g><g id="SvgjsG1206"><path id="SvgjsPath1207" d="M75 176L75 200L75 200L75 221.39999999999998" stroke="#323232" stroke-width="2" fill="none" marker-end="url(#SvgjsMarker1208)"></path></g><g id="SvgjsG1210"><path id="SvgjsPath1211" d="M126 150L177.5 150L177.5 150L226.39999999999998 150" stroke="#323232" stroke-width="2" fill="none" marker-end="url(#SvgjsMarker1212)"></path></g><g id="SvgjsG1214"><path id="SvgjsPath1215" d="M280 176L280 200L319 200L319 221.39999999999998" stroke="#323232" stroke-width="2" fill="none" marker-end="url(#SvgjsMarker1216)"></path></g><g id="SvgjsG1218"><path id="SvgjsPath1219" d="M370 250L433 250L433 178.6" stroke="#323232" stroke-width="2" fill="none" marker-end="url(#SvgjsMarker1220)"></path></g><g id="SvgjsG1222"><path id="SvgjsPath1223" d="M484 150L605 150L605 215.4" stroke="#323232" stroke-width="2" fill="none" marker-end="url(#SvgjsMarker1224)"></path></g><g id="SvgjsG1226"><path id="SvgjsPath1227" d="M605 270L605 297L605 297L605 321.4" stroke="#323232" stroke-width="2" fill="none" marker-end="url(#SvgjsMarker1228)"></path></g><g id="SvgjsG1230"><path id="SvgjsPath1231" d="M370 351L519 351L519 246L537 246L537 244L551.4 244" stroke="#323232" stroke-width="2" fill="none" marker-end="url(#SvgjsMarker1232)"></path></g><g id="SvgjsG1234"><path id="SvgjsPath1235" d="M319 276L319 300L319 300L319 321.4" stroke="#323232" stroke-width="2" fill="none" marker-end="url(#SvgjsMarker1236)"></path></g><g id="SvgjsG1238"><path id="SvgjsPath1239" d="M126 350L197 350L197 350L265.4 350" stroke="#323232" stroke-width="2" fill="none" marker-end="url(#SvgjsMarker1240)"></path></g><g id="SvgjsG1242"><path id="SvgjsPath1243" d="M75 276L75 300L75 300L75 321.4" stroke="#323232" stroke-width="2" fill="none" marker-end="url(#SvgjsMarker1244)"></path></g><g id="SvgjsG1246"><path id="SvgjsPath1247" d="M272.5315389351832 334.1130913087035L239 334.1130913087035L239 250L265.4 250" stroke="#4ccbcd" stroke-width="2" fill="none" marker-end="url(#SvgjsMarker1248)"></path></g></svg>