<?xml version="1.0" standalone="no"?>
<!DOCTYPE svg PUBLIC "-//W3C//DTD SVG 1.1//EN"
  "http://www.w3.org/Graphics/SVG/1.1/DTD/svg11.dtd">
<svg width="531.49px" height="531.49px" version="1.1"
    xmlns="http://www.w3.org/2000/svg"
    xmlns:xlink="http://www.w3.org/1999/xlink">
<desc>Veusz output document</desc>
<defs>
<clipPath id="c0">
<path d="m0,0l531.49,0l0,531.49l-531.49,0l0,-531.49"/>
</clipPath>
<clipPath id="c1">
<path d="m33.98,29.58l464.17,0l0,464.17l-464.17,0l0,-464.17"/>
</clipPath>
</defs>
<g stroke-linejoin="bevel" stroke-linecap="square" stroke="#000000" fill-rule="evenodd">
<g clip-path="url(#c0)">
<g fill="none" stroke="none" stroke-width="1">
<path d="m33.98,29.58l464.17,0l0,464.17l-464.17,0l0,-464.17"/>
</g>
</g>
<g clip-path="url(#c1)">
<g fill="none" stroke="#d3d3d3" stroke-dasharray="0.62,1.25" stroke-width="0.62">
<path d="M33.98,493.75l464.17,0M33.98,479.25l464.17,0M33.98,464.74l464.17,0M33.98,450.24l464.17,0M33.98,435.73l464.17,0M33.98,421.23l464.17,0M33.98,406.72l464.17,0M33.98,392.22l464.17,0M33.98,377.71l464.17,0M33.98,363.21l464.17,0M33.98,348.7l464.17,0M33.98,334.2l464.17,0M33.98,319.69l464.17,0M33.98,305.18l464.17,0M33.98,290.68l464.17,0M33.98,276.17l464.17,0M33.98,261.67l464.17,0M33.98,247.16l464.17,0M33.98,232.66l464.17,0M33.98,218.15l464.17,0M33.98,203.65l464.17,0M33.98,189.14l464.17,0M33.98,174.64l464.17,0M33.98,160.13l464.17,0M33.98,145.62l464.17,0M33.98,131.12l464.17,0M33.98,116.61l464.17,0M33.98,102.11l464.17,0M33.98,87.6l464.17,0M33.98,73.1l464.17,0M33.98,58.59l464.17,0M33.98,44.09l464.17,0M33.98,29.58l464.17,0"/>
</g>
<g fill="none" stroke="#808080" stroke-dasharray="0.62,1.25" stroke-width="0.62">
<path d="M33.98,435.73l464.17,0M33.98,363.21l464.17,0M33.98,290.68l464.17,0M33.98,218.15l464.17,0M33.98,145.62l464.17,0M33.98,73.1l464.17,0"/>
</g>
<g fill="none" stroke="#d3d3d3" stroke-dasharray="0.62,1.25" stroke-width="0.62">
<path d="M33.98,29.58l0,464.17M48.48,29.58l0,464.17M62.99,29.58l0,464.17M77.49,29.58l0,464.17M92,29.58l0,464.17M106.5,29.58l0,464.17M121.01,29.58l0,464.17M135.51,29.58l0,464.17M150.02,29.58l0,464.17M164.52,29.58l0,464.17M179.03,29.58l0,464.17M193.53,29.58l0,464.17M208.04,29.58l0,464.17M222.55,29.58l0,464.17M237.05,29.58l0,464.17M251.56,29.58l0,464.17M266.06,29.58l0,464.17M280.57,29.58l0,464.17M295.07,29.58l0,464.17M309.58,29.58l0,464.17M324.08,29.58l0,464.17M338.59,29.58l0,464.17M353.09,29.58l0,464.17M367.6,29.58l0,464.17M382.11,29.58l0,464.17M396.61,29.58l0,464.17M411.12,29.58l0,464.17M425.62,29.58l0,464.17M440.13,29.58l0,464.17M454.63,29.58l0,464.17M469.14,29.58l0,464.17M483.64,29.58l0,464.17M498.15,29.58l0,464.17"/>
</g>
<g fill="none" stroke="#808080" stroke-dasharray="0.62,1.25" stroke-width="0.62">
<path d="M92,29.58l0,464.17M164.52,29.58l0,464.17M237.05,29.58l0,464.17M309.58,29.58l0,464.17M382.11,29.58l0,464.17M454.63,29.58l0,464.17"/>
</g>
</g>
<g clip-path="url(#c0)">
<g fill="none" stroke-width="1">
<path d="m334.81,319.81l0.9,0l0,-19.02l-0.9,0l0,19.02m7.1,-5.47c-0.05,-1.71,-0.05,-3.5,-0.05,-5.54l1.22,0c2.73,0,3.92,0.98,3.92,2.8c0,1.76,-1.24,2.74,-3.67,2.74l-1.41,0m1.41,-11.32c2.13,0,3.11,0.71,3.11,2.41c0,1.78,-1.1,2.65,-3.48,2.65l-1.1,0c0,-1.75,0,-3.42,0.05,-5.07l1.41,0m-4.79,-0.71l0,0.61l1.82,0.19c0.05,1.67,0.05,3.39,0.05,5.07l0,0.96c0,1.71,0,3.41,-0.05,5.09l-1.82,0.19l0,0.62l5.14,0c3.46,0,4.88,-1.69,4.88,-3.46c0,-1.59,-1.08,-2.85,-3.64,-3.18c2.11,-0.45,2.99,-1.66,2.99,-3.02c0,-1.83,-1.45,-3.07,-4.11,-3.07l-5.26,0m21.07,9.32l-0.42,2.37c-0.78,0.38,-1.61,0.54,-2.41,0.54c-2.78,0,-4.75,-2.1,-4.75,-5.87c0,-3.74,2.1,-5.87,4.88,-5.87c0.7,0,1.4,0.15,2.11,0.54l0.42,2.36l0.96,0l-0.07,-2.74c-1.24,-0.73,-2.48,-0.94,-3.62,-0.94c-3.69,0,-6.4,2.8,-6.4,6.66c0,3.92,2.59,6.66,6.4,6.66c1.34,0,2.6,-0.26,3.79,-0.94l0.05,-2.76l-0.94,0m3.7,8.18l0.9,0l0,-19.02l-0.9,0l0,19.02" fill="#000000" stroke="none" fill-opacity="1"/>
<path d="m460.6,232.08l0.9,0l0,-19.02l-0.9,0l0,19.02m6.7,-9.78l1.99,-6.05l2.01,6.05l-4,0m6.96,4.21l-4.11,-12.07l-0.97,0l-4.04,12.03l-1.57,0.21l0,0.62l4.2,0l0,-0.62l-1.83,-0.22l1.13,-3.44l4.49,0l1.15,3.48l-1.92,0.19l0,0.62l5.05,0l0,-0.62l-1.57,-0.17m11.3,-2.62l-0.42,2.37c-0.78,0.38,-1.61,0.54,-2.41,0.54c-2.78,0,-4.75,-2.1,-4.75,-5.87c0,-3.74,2.1,-5.87,4.88,-5.87c0.7,0,1.4,0.15,2.11,0.54l0.42,2.36l0.96,0l-0.07,-2.74c-1.24,-0.73,-2.48,-0.94,-3.62,-0.94c-3.69,0,-6.4,2.8,-6.4,6.66c0,3.92,2.59,6.66,6.4,6.66c1.34,0,2.6,-0.26,3.79,-0.94l0.05,-2.76l-0.94,0m3.7,8.18l0.9,0l0,-19.02l-0.9,0l0,19.02" fill="#000000" stroke="none" fill-opacity="1"/>
</g>
<g fill="#808080" stroke-width="0.62">
<g transform="translate(440.59,276.75)">
<path d="m-13.92,-13.92l27.85,0l0,27.85l-27.85,0l0,-27.85"/>
</g>
</g>
<g fill="none" stroke-width="1">
<path d="m244.82,314.33c-0.05,-1.71,-0.05,-3.5,-0.05,-5.54l1.22,0c2.73,0,3.92,0.98,3.92,2.8c0,1.76,-1.24,2.74,-3.67,2.74l-1.41,0m1.41,-11.32c2.13,0,3.11,0.71,3.11,2.41c0,1.78,-1.1,2.65,-3.48,2.65l-1.1,0c0,-1.75,0,-3.42,0.05,-5.07l1.41,0m-4.79,-0.71l0,0.61l1.82,0.19c0.05,1.67,0.05,3.39,0.05,5.07l0,0.96c0,1.71,0,3.41,-0.05,5.09l-1.82,0.19l0,0.62l5.14,0c3.46,0,4.88,-1.69,4.88,-3.46c0,-1.59,-1.08,-2.85,-3.64,-3.18c2.11,-0.45,2.99,-1.66,2.99,-3.02c0,-1.83,-1.45,-3.07,-4.11,-3.07l-5.26,0" fill="#000000" stroke="none" fill-opacity="1"/>
<path d="m462.58,163.81l1.99,-6.05l2.01,6.05l-4,0m6.96,4.21l-4.11,-12.07l-0.97,0l-4.04,12.03l-1.57,0.21l0,0.62l4.2,0l0,-0.62l-1.83,-0.22l1.13,-3.44l4.49,0l1.15,3.48l-1.92,0.19l0,0.62l5.05,0l0,-0.62l-1.57,-0.17" fill="#000000" stroke="none" fill-opacity="1"/>
<path d="m468.97,311.62l-0.42,2.37c-0.78,0.38,-1.61,0.54,-2.41,0.54c-2.78,0,-4.75,-2.1,-4.75,-5.87c0,-3.74,2.1,-5.87,4.88,-5.87c0.7,0,1.4,0.15,2.11,0.54l0.42,2.36l0.96,0l-0.07,-2.74c-1.24,-0.73,-2.48,-0.94,-3.62,-0.94c-3.69,0,-6.4,2.8,-6.4,6.66c0,3.92,2.59,6.66,6.4,6.66c1.34,0,2.6,-0.26,3.79,-0.94l0.05,-2.76l-0.94,0" fill="#000000" stroke="none" fill-opacity="1"/>
</g>
<g fill="#000000" stroke-width="1.87">
<g transform="matrix(0 -1 1 0 454.63 290.68)">
<path d="M0,0l145.05,0"/>
</g>
<g transform="translate(237.05,290.68)">
<path d="M0,0l217.58,0"/>
</g>
</g>
<g fill="none" stroke-linecap="butt" stroke-width="0.62">
<path d="M92,493.75l0,-464.17"/>
<path d="M92,493.75l-3.75,0M92,479.25l-3.75,0M92,464.74l-3.75,0M92,450.24l-3.75,0M92,435.73l-3.75,0M92,421.23l-3.75,0M92,406.72l-3.75,0M92,392.22l-3.75,0M92,377.71l-3.75,0M92,363.21l-3.75,0M92,348.7l-3.75,0M92,334.2l-3.75,0M92,319.69l-3.75,0M92,305.18l-3.75,0M92,290.68l-3.75,0M92,276.17l-3.75,0M92,261.67l-3.75,0M92,247.16l-3.75,0M92,232.66l-3.75,0M92,218.15l-3.75,0M92,203.65l-3.75,0M92,189.14l-3.75,0M92,174.64l-3.75,0M92,160.13l-3.75,0M92,145.62l-3.75,0M92,131.12l-3.75,0M92,116.61l-3.75,0M92,102.11l-3.75,0M92,87.6l-3.75,0M92,73.1l-3.75,0M92,58.59l-3.75,0M92,44.09l-3.75,0M92,29.58l-3.75,0"/>
<path d="M92,435.73l-7.5,0M92,363.21l-7.5,0M92,290.68l-7.5,0M92,218.15l-7.5,0M92,145.62l-7.5,0M92,73.1l-7.5,0"/>
</g>
<g fill="none" stroke-width="1">
<path d="m72.54,435.94c0,-4.53,1.2,-5.81,2.46,-5.81c1.22,0,2.41,1.27,2.41,5.81c0,4.74,-1.19,6.03,-2.41,6.03c-1.25,0,-2.46,-1.27,-2.46,-6.03m2.46,-6.52c-1.99,0,-3.92,1.78,-3.92,6.52c0,4.95,1.92,6.73,3.92,6.73c1.97,0,3.86,-1.78,3.86,-6.73c0,-4.74,-1.88,-6.52,-3.86,-6.52" fill="#000000" stroke="none" fill-opacity="1"/>
<path d="m73.07,358.44l5.45,0l0,-1.29l-6.14,0l-0.4,5.93l0.48,0.1c0.59,-0.2,1.27,-0.29,1.9,-0.29c1.83,0,3.06,1.12,3.06,3.22c0,2.02,-1.08,3.34,-3.04,3.34c-0.47,0,-0.87,-0.07,-1.31,-0.19l-0.35,-1.13c-0.22,-0.82,-0.43,-1.06,-0.92,-1.06c-0.38,0,-0.68,0.19,-0.82,0.57c0.4,1.67,1.64,2.52,3.5,2.52c2.64,0,4.35,-1.73,4.35,-4.2c0,-2.55,-1.64,-3.99,-4.05,-3.99c-0.71,0,-1.34,0.1,-1.97,0.31l0.26,-3.83" fill="#000000" stroke="none" fill-opacity="1"/>
<path d="m66.47,296.49c-0.01,-1.05,-0.03,-2.08,-0.03,-3.11l0,-6l0.07,-2.72l-0.26,-0.19l-3.77,0.97l0,0.62l2.62,-0.29l0,7.61c0,1.03,-0.01,2.06,-0.03,3.11l-2.76,0.33l0,0.55l6.91,0l0,-0.55l-2.73,-0.33m6.07,-5.6c0,-4.53,1.2,-5.81,2.46,-5.81c1.22,0,2.41,1.27,2.41,5.81c0,4.74,-1.19,6.03,-2.41,6.03c-1.25,0,-2.46,-1.27,-2.46,-6.03m2.46,-6.52c-1.99,0,-3.92,1.78,-3.92,6.52c0,4.95,1.92,6.73,3.92,6.73c1.97,0,3.86,-1.78,3.86,-6.73c0,-4.74,-1.88,-6.52,-3.86,-6.52" fill="#000000" stroke="none" fill-opacity="1"/>
<path d="m66.47,223.96c-0.01,-1.05,-0.03,-2.08,-0.03,-3.11l0,-6l0.07,-2.72l-0.26,-0.19l-3.77,0.97l0,0.62l2.62,-0.29l0,7.61c0,1.03,-0.01,2.06,-0.03,3.11l-2.76,0.33l0,0.55l6.91,0l0,-0.55l-2.73,-0.33m6.59,-10.57l5.45,0l0,-1.29l-6.14,0l-0.4,5.93l0.48,0.1c0.59,-0.2,1.27,-0.29,1.9,-0.29c1.83,0,3.06,1.12,3.06,3.22c0,2.02,-1.08,3.34,-3.04,3.34c-0.47,0,-0.87,-0.07,-1.31,-0.19l-0.35,-1.13c-0.22,-0.82,-0.43,-1.06,-0.92,-1.06c-0.38,0,-0.68,0.19,-0.82,0.57c0.4,1.67,1.64,2.52,3.5,2.52c2.64,0,4.35,-1.73,4.35,-4.2c0,-2.55,-1.64,-3.99,-4.05,-3.99c-0.71,0,-1.34,0.1,-1.97,0.31l0.26,-3.83" fill="#000000" stroke="none" fill-opacity="1"/>
<path d="m62.9,151.01c0.96,-1.05,1.87,-2.01,2.36,-2.55c2.74,-2.97,3.63,-4.2,3.63,-5.81c0,-1.97,-1.1,-3.34,-3.46,-3.34c-1.82,0,-3.44,0.92,-3.74,2.76c0.19,0.33,0.45,0.54,0.83,0.54c0.45,0,0.71,-0.33,0.92,-1.08l0.43,-1.34c0.42,-0.12,0.82,-0.15,1.15,-0.15c1.5,0,2.41,1.1,2.41,2.71c0,1.48,-0.82,2.9,-2.69,5.07c-0.84,0.98,-1.9,2.24,-3,3.46l0,1.05l7.71,0l0,-1.31l-6.57,0m9.64,-5.17c0,-4.53,1.2,-5.81,2.46,-5.81c1.22,0,2.41,1.27,2.41,5.81c0,4.74,-1.19,6.03,-2.41,6.03c-1.25,0,-2.46,-1.27,-2.46,-6.03m2.46,-6.52c-1.99,0,-3.92,1.78,-3.92,6.52c0,4.95,1.92,6.73,3.92,6.73c1.97,0,3.86,-1.78,3.86,-6.73c0,-4.74,-1.88,-6.52,-3.86,-6.52" fill="#000000" stroke="none" fill-opacity="1"/>
<path d="m62.9,78.48c0.96,-1.05,1.87,-2.01,2.36,-2.55c2.74,-2.97,3.63,-4.2,3.63,-5.81c0,-1.97,-1.1,-3.34,-3.46,-3.34c-1.82,0,-3.44,0.92,-3.74,2.76c0.19,0.33,0.45,0.54,0.83,0.54c0.45,0,0.71,-0.33,0.92,-1.08l0.43,-1.34c0.42,-0.12,0.82,-0.15,1.15,-0.15c1.5,0,2.41,1.1,2.41,2.71c0,1.48,-0.82,2.9,-2.69,5.07c-0.84,0.98,-1.9,2.24,-3,3.46l0,1.05l7.71,0l0,-1.31l-6.57,0m10.16,-10.15l5.45,0l0,-1.29l-6.14,0l-0.4,5.93l0.48,0.1c0.59,-0.2,1.27,-0.29,1.9,-0.29c1.83,0,3.06,1.12,3.06,3.22c0,2.02,-1.08,3.34,-3.04,3.34c-0.47,0,-0.87,-0.07,-1.31,-0.19l-0.35,-1.13c-0.22,-0.82,-0.43,-1.06,-0.92,-1.06c-0.38,0,-0.68,0.19,-0.82,0.57c0.4,1.67,1.64,2.52,3.5,2.52c2.64,0,4.35,-1.73,4.35,-4.2c0,-2.55,-1.64,-3.99,-4.05,-3.99c-0.71,0,-1.34,0.1,-1.97,0.31l0.26,-3.83" fill="#000000" stroke="none" fill-opacity="1"/>
</g>
<g fill="none" stroke-linecap="butt" stroke-width="0.62">
<path d="M33.98,435.73l464.17,0"/>
<path d="M33.98,435.73l0,-3.75M48.48,435.73l0,-3.75M62.99,435.73l0,-3.75M77.49,435.73l0,-3.75M92,435.73l0,-3.75M106.5,435.73l0,-3.75M121.01,435.73l0,-3.75M135.51,435.73l0,-3.75M150.02,435.73l0,-3.75M164.52,435.73l0,-3.75M179.03,435.73l0,-3.75M193.53,435.73l0,-3.75M208.04,435.73l0,-3.75M222.55,435.73l0,-3.75M237.05,435.73l0,-3.75M251.56,435.73l0,-3.75M266.06,435.73l0,-3.75M280.57,435.73l0,-3.75M295.07,435.73l0,-3.75M309.58,435.73l0,-3.75M324.08,435.73l0,-3.75M338.59,435.73l0,-3.75M353.09,435.73l0,-3.75M367.6,435.73l0,-3.75M382.11,435.73l0,-3.75M396.61,435.73l0,-3.75M411.12,435.73l0,-3.75M425.62,435.73l0,-3.75M440.13,435.73l0,-3.75M454.63,435.73l0,-3.75M469.14,435.73l0,-3.75M483.64,435.73l0,-3.75M498.15,435.73l0,-3.75"/>
<path d="M92,435.73l0,-7.5M164.52,435.73l0,-7.5M237.05,435.73l0,-7.5M309.58,435.73l0,-7.5M382.11,435.73l0,-7.5M454.63,435.73l0,-7.5"/>
</g>
<g fill="none" stroke-width="1">
<path d="m89.56,454.24c0,-4.53,1.2,-5.81,2.46,-5.81c1.22,0,2.41,1.27,2.41,5.81c0,4.74,-1.19,6.03,-2.41,6.03c-1.25,0,-2.46,-1.27,-2.46,-6.03m2.46,-6.52c-1.99,0,-3.92,1.78,-3.92,6.52c0,4.95,1.92,6.73,3.92,6.73c1.97,0,3.86,-1.78,3.86,-6.73c0,-4.74,-1.88,-6.52,-3.86,-6.52" fill="#000000" stroke="none" fill-opacity="1"/>
<path d="m162.61,449.27l5.45,0l0,-1.29l-6.14,0l-0.4,5.93l0.48,0.1c0.59,-0.2,1.27,-0.29,1.9,-0.29c1.83,0,3.06,1.12,3.06,3.22c0,2.02,-1.08,3.34,-3.04,3.34c-0.47,0,-0.87,-0.07,-1.31,-0.19l-0.35,-1.13c-0.22,-0.82,-0.43,-1.06,-0.92,-1.06c-0.38,0,-0.68,0.19,-0.82,0.57c0.4,1.67,1.64,2.52,3.5,2.52c2.64,0,4.35,-1.73,4.35,-4.2c0,-2.55,-1.64,-3.99,-4.05,-3.99c-0.71,0,-1.34,0.1,-1.97,0.31l0.26,-3.83" fill="#000000" stroke="none" fill-opacity="1"/>
<path d="m233.25,459.84c-0.01,-1.05,-0.03,-2.08,-0.03,-3.11l0,-6l0.07,-2.72l-0.26,-0.19l-3.77,0.97l0,0.62l2.62,-0.29l0,7.61c0,1.03,-0.01,2.06,-0.03,3.11l-2.76,0.33l0,0.55l6.91,0l0,-0.55l-2.73,-0.33m6.07,-5.6c0,-4.53,1.2,-5.81,2.46,-5.81c1.22,0,2.41,1.27,2.41,5.81c0,4.74,-1.19,6.03,-2.41,6.03c-1.25,0,-2.46,-1.27,-2.46,-6.03m2.46,-6.52c-1.99,0,-3.92,1.78,-3.92,6.52c0,4.95,1.92,6.73,3.92,6.73c1.97,0,3.86,-1.78,3.86,-6.73c0,-4.74,-1.88,-6.52,-3.86,-6.52" fill="#000000" stroke="none" fill-opacity="1"/>
<path d="m305.78,459.84c-0.01,-1.05,-0.03,-2.08,-0.03,-3.11l0,-6l0.07,-2.72l-0.26,-0.19l-3.77,0.97l0,0.62l2.62,-0.29l0,7.61c0,1.03,-0.01,2.06,-0.03,3.11l-2.76,0.33l0,0.55l6.91,0l0,-0.55l-2.73,-0.33m6.59,-10.57l5.45,0l0,-1.29l-6.14,0l-0.4,5.93l0.48,0.1c0.59,-0.2,1.27,-0.29,1.9,-0.29c1.83,0,3.06,1.12,3.06,3.22c0,2.02,-1.08,3.34,-3.04,3.34c-0.47,0,-0.87,-0.07,-1.31,-0.19l-0.35,-1.13c-0.22,-0.82,-0.43,-1.06,-0.92,-1.06c-0.38,0,-0.68,0.19,-0.82,0.57c0.4,1.67,1.64,2.52,3.5,2.52c2.64,0,4.35,-1.73,4.35,-4.2c0,-2.55,-1.64,-3.99,-4.05,-3.99c-0.71,0,-1.34,0.1,-1.97,0.31l0.26,-3.83" fill="#000000" stroke="none" fill-opacity="1"/>
<path d="m374.74,459.42c0.96,-1.05,1.87,-2.01,2.36,-2.55c2.74,-2.97,3.63,-4.2,3.63,-5.81c0,-1.97,-1.1,-3.34,-3.46,-3.34c-1.82,0,-3.44,0.92,-3.74,2.76c0.19,0.33,0.45,0.54,0.83,0.54c0.45,0,0.71,-0.33,0.92,-1.08l0.43,-1.34c0.42,-0.12,0.82,-0.15,1.15,-0.15c1.5,0,2.41,1.1,2.41,2.71c0,1.48,-0.82,2.9,-2.69,5.07c-0.84,0.98,-1.9,2.24,-3,3.46l0,1.05l7.71,0l0,-1.31l-6.57,0m9.64,-5.17c0,-4.53,1.2,-5.81,2.46,-5.81c1.22,0,2.41,1.27,2.41,5.81c0,4.74,-1.19,6.03,-2.41,6.03c-1.25,0,-2.46,-1.27,-2.46,-6.03m2.46,-6.52c-1.99,0,-3.92,1.78,-3.92,6.52c0,4.95,1.92,6.73,3.92,6.73c1.97,0,3.86,-1.78,3.86,-6.73c0,-4.74,-1.88,-6.52,-3.86,-6.52" fill="#000000" stroke="none" fill-opacity="1"/>
<path d="m447.27,459.42c0.96,-1.05,1.87,-2.01,2.36,-2.55c2.74,-2.97,3.63,-4.2,3.63,-5.81c0,-1.97,-1.1,-3.34,-3.46,-3.34c-1.82,0,-3.44,0.92,-3.74,2.76c0.19,0.33,0.45,0.54,0.83,0.54c0.45,0,0.71,-0.33,0.92,-1.08l0.43,-1.34c0.42,-0.12,0.82,-0.15,1.15,-0.15c1.5,0,2.41,1.1,2.41,2.71c0,1.48,-0.82,2.9,-2.69,5.07c-0.84,0.98,-1.9,2.24,-3,3.46l0,1.05l7.71,0l0,-1.31l-6.57,0m10.16,-10.15l5.45,0l0,-1.29l-6.14,0l-0.4,5.93l0.48,0.1c0.59,-0.2,1.27,-0.29,1.9,-0.29c1.83,0,3.06,1.12,3.06,3.22c0,2.02,-1.08,3.34,-3.04,3.34c-0.47,0,-0.87,-0.07,-1.31,-0.19l-0.35,-1.13c-0.22,-0.82,-0.43,-1.06,-0.92,-1.06c-0.38,0,-0.68,0.19,-0.82,0.57c0.4,1.67,1.64,2.52,3.5,2.52c2.64,0,4.35,-1.73,4.35,-4.2c0,-2.55,-1.64,-3.99,-4.05,-3.99c-0.71,0,-1.34,0.1,-1.97,0.31l0.26,-3.83" fill="#000000" stroke="none" fill-opacity="1"/>
</g>
<g fill="#ff0000" stroke-width="0.62">
<g transform="translate(454.63,145.62)">
<path d="m4.64,0c0,2.56,-2.07,4.64,-4.64,4.64c-2.56,0,-4.64,-2.07,-4.64,-4.64c0,-2.56,2.07,-4.64,4.64,-4.64c2.56,0,4.64,2.07,4.64,4.64" id="p0"/>
</g>
<use xlink:href="#p0" x="237.05" y="290.68"/>
<use xlink:href="#p0" x="454.63" y="290.68"/>
</g>
</g>
</g>
</svg>
