<?xml version="1.0" standalone="no"?>
<!DOCTYPE svg PUBLIC "-//W3C//DTD SVG 1.1//EN"
  "http://www.w3.org/Graphics/SVG/1.1/DTD/svg11.dtd">
<svg width="531.49px" height="531.49px" version="1.1"
    xmlns="http://www.w3.org/2000/svg"
    xmlns:xlink="http://www.w3.org/1999/xlink">
<desc>Veusz output document</desc>
<defs>
<clipPath id="c0">
<path d="m0,0l531.49,0l0,531.49l-531.49,0l0,-531.49"/>
</clipPath>
<clipPath id="c1">
<path d="m33.98,29.58l464.17,0l0,464.17l-464.17,0l0,-464.17"/>
</clipPath>
</defs>
<g stroke-linejoin="bevel" stroke-linecap="square" stroke="#000000" fill-rule="evenodd">
<g clip-path="url(#c0)">
<g fill="none" stroke="none" stroke-width="1">
<path d="m33.98,29.58l464.17,0l0,464.17l-464.17,0l0,-464.17"/>
</g>
</g>
<g clip-path="url(#c1)">
<g fill="none" stroke="#d3d3d3" stroke-dasharray="0.62,1.25" stroke-width="0.62">
<path d="M33.98,493.75l464.17,0M33.98,470.55l464.17,0M33.98,447.34l464.17,0M33.98,424.13l464.17,0M33.98,400.92l464.17,0M33.98,377.71l464.17,0M33.98,354.5l464.17,0M33.98,331.29l464.17,0M33.98,308.09l464.17,0M33.98,284.88l464.17,0M33.98,261.67l464.17,0M33.98,238.46l464.17,0M33.98,215.25l464.17,0M33.98,192.04l464.17,0M33.98,168.83l464.17,0M33.98,145.62l464.17,0M33.98,122.42l464.17,0M33.98,99.21l464.17,0M33.98,76l464.17,0M33.98,52.79l464.17,0M33.98,29.58l464.17,0"/>
</g>
<g fill="none" stroke="#808080" stroke-dasharray="0.62,1.25" stroke-width="0.62">
<path d="M33.98,493.75l464.17,0M33.98,377.71l464.17,0M33.98,261.67l464.17,0M33.98,145.62l464.17,0M33.98,29.58l464.17,0"/>
</g>
<g fill="none" stroke="#d3d3d3" stroke-dasharray="0.62,1.25" stroke-width="0.62">
<path d="M33.98,29.58l0,464.17M57.18,29.58l0,464.17M80.39,29.58l0,464.17M103.6,29.58l0,464.17M126.81,29.58l0,464.17M150.02,29.58l0,464.17M173.23,29.58l0,464.17M196.44,29.58l0,464.17M219.64,29.58l0,464.17M242.85,29.58l0,464.17M266.06,29.58l0,464.17M289.27,29.58l0,464.17M312.48,29.58l0,464.17M335.69,29.58l0,464.17M358.9,29.58l0,464.17M382.11,29.58l0,464.17M405.31,29.58l0,464.17M428.52,29.58l0,464.17M451.73,29.58l0,464.17M474.94,29.58l0,464.17M498.15,29.58l0,464.17"/>
</g>
<g fill="none" stroke="#808080" stroke-dasharray="0.62,1.25" stroke-width="0.62">
<path d="M33.98,29.58l0,464.17M150.02,29.58l0,464.17M266.06,29.58l0,464.17M382.11,29.58l0,464.17M498.15,29.58l0,464.17"/>
</g>
</g>
<g clip-path="url(#c0)">
<g fill="none" stroke-width="1.87">
<g transform="matrix(0.7071 0.7071 -0.7071 0.7071 266.06 261.67)">
<path d="m-82.05,-82.05l164.11,0l0,164.11l-164.11,0l0,-164.11"/>
</g>
</g>
<g fill="none" stroke-linecap="butt" stroke-width="0.62">
<path d="M266.06,493.75l0,-464.17"/>
<path d="M266.06,493.75l-3.75,0M266.06,470.55l-3.75,0M266.06,447.34l-3.75,0M266.06,424.13l-3.75,0M266.06,400.92l-3.75,0M266.06,377.71l-3.75,0M266.06,354.5l-3.75,0M266.06,331.29l-3.75,0M266.06,308.09l-3.75,0M266.06,284.88l-3.75,0M266.06,261.67l-3.75,0M266.06,238.46l-3.75,0M266.06,215.25l-3.75,0M266.06,192.04l-3.75,0M266.06,168.83l-3.75,0M266.06,145.62l-3.75,0M266.06,122.42l-3.75,0M266.06,99.21l-3.75,0M266.06,76l-3.75,0M266.06,52.79l-3.75,0M266.06,29.58l-3.75,0"/>
<path d="M266.06,493.75l-7.5,0M266.06,377.71l-7.5,0M266.06,261.67l-7.5,0M266.06,145.62l-7.5,0M266.06,29.58l-7.5,0"/>
</g>
<g fill="none" stroke-width="1">
<path d="m243.74,494.57l0,-0.85l-8.87,0l0,0.85l8.87,0m2.65,4.56c0.96,-1.05,1.87,-2.01,2.36,-2.55c2.74,-2.97,3.63,-4.2,3.63,-5.81c0,-1.97,-1.1,-3.34,-3.46,-3.34c-1.82,0,-3.44,0.92,-3.74,2.76c0.19,0.33,0.45,0.54,0.83,0.54c0.45,0,0.71,-0.33,0.92,-1.08l0.43,-1.34c0.42,-0.12,0.82,-0.15,1.15,-0.15c1.5,0,2.41,1.1,2.41,2.71c0,1.48,-0.82,2.9,-2.69,5.07c-0.84,0.98,-1.9,2.24,-3,3.46l0,1.05l7.71,0l0,-1.31l-6.57,0" fill="#000000" stroke="none" fill-opacity="1"/>
<path d="m243.74,378.53l0,-0.85l-8.87,0l0,0.85l8.87,0m6.22,4.98c-0.01,-1.05,-0.03,-2.08,-0.03,-3.11l0,-6l0.07,-2.72l-0.26,-0.19l-3.77,0.97l0,0.62l2.62,-0.29l0,7.61c0,1.03,-0.01,2.06,-0.03,3.11l-2.76,0.33l0,0.55l6.91,0l0,-0.55l-2.73,-0.33" fill="#000000" stroke="none" fill-opacity="1"/>
<path d="m249.96,151.43c-0.01,-1.05,-0.03,-2.08,-0.03,-3.11l0,-6l0.07,-2.72l-0.26,-0.19l-3.77,0.97l0,0.62l2.62,-0.29l0,7.61c0,1.03,-0.01,2.06,-0.03,3.11l-2.76,0.33l0,0.55l6.91,0l0,-0.55l-2.73,-0.33" fill="#000000" stroke="none" fill-opacity="1"/>
<path d="m246.4,34.97c0.96,-1.05,1.87,-2.01,2.36,-2.55c2.74,-2.97,3.63,-4.2,3.63,-5.81c0,-1.97,-1.1,-3.34,-3.46,-3.34c-1.82,0,-3.44,0.92,-3.74,2.76c0.19,0.33,0.45,0.54,0.83,0.54c0.45,0,0.71,-0.33,0.92,-1.08l0.43,-1.34c0.42,-0.12,0.82,-0.15,1.15,-0.15c1.5,0,2.41,1.1,2.41,2.71c0,1.48,-0.82,2.9,-2.69,5.07c-0.84,0.98,-1.9,2.24,-3,3.46l0,1.05l7.71,0l0,-1.31l-6.57,0" fill="#000000" stroke="none" fill-opacity="1"/>
</g>
<g fill="none" stroke-linecap="butt" stroke-width="0.62">
<path d="M33.98,261.67l464.17,0"/>
<path d="M33.98,261.67l0,-3.75M57.18,261.67l0,-3.75M80.39,261.67l0,-3.75M103.6,261.67l0,-3.75M126.81,261.67l0,-3.75M150.02,261.67l0,-3.75M173.23,261.67l0,-3.75M196.44,261.67l0,-3.75M219.64,261.67l0,-3.75M242.85,261.67l0,-3.75M266.06,261.67l0,-3.75M289.27,261.67l0,-3.75M312.48,261.67l0,-3.75M335.69,261.67l0,-3.75M358.9,261.67l0,-3.75M382.11,261.67l0,-3.75M405.31,261.67l0,-3.75M428.52,261.67l0,-3.75M451.73,261.67l0,-3.75M474.94,261.67l0,-3.75M498.15,261.67l0,-3.75"/>
<path d="M33.98,261.67l0,-7.5M150.02,261.67l0,-7.5M266.06,261.67l0,-7.5M382.11,261.67l0,-7.5M498.15,261.67l0,-7.5"/>
</g>
<g fill="none" stroke-width="1">
<path d="m33.7,280.79l0,-0.85l-8.87,0l0,0.85l8.87,0m2.65,4.56c0.96,-1.05,1.87,-2.01,2.36,-2.55c2.74,-2.97,3.63,-4.2,3.63,-5.81c0,-1.97,-1.1,-3.34,-3.46,-3.34c-1.82,0,-3.44,0.92,-3.74,2.76c0.19,0.33,0.45,0.54,0.83,0.54c0.45,0,0.71,-0.33,0.92,-1.08l0.43,-1.34c0.42,-0.12,0.82,-0.15,1.15,-0.15c1.5,0,2.41,1.1,2.41,2.71c0,1.48,-0.82,2.9,-2.69,5.07c-0.84,0.98,-1.9,2.24,-3,3.46l0,1.05l7.71,0l0,-1.31l-6.57,0" fill="#000000" stroke="none" fill-opacity="1"/>
<path d="m149.75,280.79l0,-0.85l-8.87,0l0,0.85l8.87,0m6.22,4.98c-0.01,-1.05,-0.03,-2.08,-0.03,-3.11l0,-6l0.07,-2.72l-0.26,-0.19l-3.77,0.97l0,0.62l2.62,-0.29l0,7.61c0,1.03,-0.01,2.06,-0.03,3.11l-2.76,0.33l0,0.55l6.91,0l0,-0.55l-2.73,-0.33" fill="#000000" stroke="none" fill-opacity="1"/>
<path
d="m 283.62,280.17 c 0,-4.53 1.2,-5.81 2.46,-5.81 1.22,0 2.41,1.27 2.41,5.81 0,4.74 -1.19,6.03 -2.41,6.03 -1.25,0 -2.46,-1.27 -2.46,-6.03 m 2.46,-6.52 c -1.99,0 -3.92,1.78 -3.92,6.52 0,4.95 1.92,6.73 3.92,6.73 1.97,0 3.86,-1.78 3.86,-6.73 0,-4.74 -1.88,-6.52 -3.86,-6.52" fill="#000000" stroke="none" fill-opacity="1"/>
<path d="m383.02,285.77c-0.01,-1.05,-0.03,-2.08,-0.03,-3.11l0,-6l0.07,-2.72l-0.26,-0.19l-3.77,0.97l0,0.62l2.62,-0.29l0,7.61c0,1.03,-0.01,2.06,-0.03,3.11l-2.76,0.33l0,0.55l6.91,0l0,-0.55l-2.73,-0.33" fill="#000000" stroke="none" fill-opacity="1"/>
<path d="m495.5,285.35c0.96,-1.05,1.87,-2.01,2.36,-2.55c2.74,-2.97,3.63,-4.2,3.63,-5.81c0,-1.97,-1.1,-3.34,-3.46,-3.34c-1.82,0,-3.44,0.92,-3.74,2.76c0.19,0.33,0.45,0.54,0.83,0.54c0.45,0,0.71,-0.33,0.92,-1.08l0.43,-1.34c0.42,-0.12,0.82,-0.15,1.15,-0.15c1.5,0,2.41,1.1,2.41,2.71c0,1.48,-0.82,2.9,-2.69,5.07c-0.84,0.98,-1.9,2.24,-3,3.46l0,1.05l7.71,0l0,-1.31l-6.57,0" fill="#000000" stroke="none" fill-opacity="1"/>
</g>
<g fill="#ff0000" stroke-width="0.62">
<g transform="translate(266.06,145.62)">
<path d="m4.64,0c0,2.56,-2.07,4.64,-4.64,4.64c-2.56,0,-4.64,-2.07,-4.64,-4.64c0,-2.56,2.07,-4.64,4.64,-4.64c2.56,0,4.64,2.07,4.64,4.64" id="p0"/>
</g>
<use xlink:href="#p0" x="266.06" y="377.71"/>
<use xlink:href="#p0" x="382.11" y="261.67"/>
<use xlink:href="#p0" x="150.02" y="261.67"/>
</g>
</g>
</g>
</svg>
