<svg xmlns:xlink="http://www.w3.org/1999/xlink" width="1779" height="1127" xmlns="http://www.w3.org/2000/svg" version="1.1"><defs><clipPath id="znZnEuRBvNeO"><path fill="none" stroke="none" d="M 0 0 L 1779 0 L 1779 1127 L 0 1127 L 0 0 Z" /></clipPath></defs><g clip-path="url(&quot;#znZnEuRBvNeO&quot;)" transform="scale(1)"><g><rect fill="rgb(255, 255, 255)" fill-opacity="1" stroke="none" x="0" y="0" width="1779" height="1127" /><path fill="none" stroke="rgb(46, 125, 50)" stroke-linecap="round" stroke-linejoin="round" stroke-miterlimit="10" stroke-opacity="0.8" stroke-width="4" d="M 1323 539.333 C 1323 782.615 1125.78 979.833 882.5 979.833 C 639.219 979.833 442 782.615 442 539.333 C 442 296.052 639.219 98.8333 882.5 98.8333 C 1125.78 98.8333 1323 296.052 1323 539.333 Z" paint-order="fill stroke markers" /><path fill="none" stroke="rgb(101, 87, 210)" stroke-linecap="round" stroke-linejoin="round" stroke-miterlimit="10" stroke-opacity="0.8" stroke-width="4" d="M 1288.81 652.51 C 1288.81 876.908 1106.9 1058.82 882.5 1058.82 C 658.102 1058.82 476.191 876.908 476.191 652.51 C 476.191 428.112 658.102 246.201 882.5 246.201 C 1106.9 246.201 1288.81 428.112 1288.81 652.51 Z" paint-order="fill stroke markers" /><path fill="rgb(0, 0, 0)" fill-opacity="0.0980392" stroke="none" d="M 1266.33 698.565 C 1257.71 704.079 1252.5 713.604 1252.5 723.833 L 1282.5 723.833 Z" paint-order="stroke fill markers" /><path fill="none" stroke="rgb(0, 0, 0)" stroke-linecap="round" stroke-linejoin="round" stroke-miterlimit="10" stroke-opacity="0.6" stroke-width="2" d="M 1266.33 698.565 C 1257.71 704.079 1252.5 713.604 1252.5 723.833 L 1282.5 723.833 Z" paint-order="fill stroke markers" /><text font-family="geogebra-sans-serif, sans-serif" font-size="48px" font-style="normal" font-weight="normal" text-decoration="normal" dominant-baseline="alphabetic" fill="rgb(0, 0, 0)" fill-opacity="1" stroke="none" text-anchor="start" x="1207" y="708">α</text><text font-family="geogebra-sans-serif, sans-serif" font-size="48px" font-style="normal" font-weight="normal" text-decoration="normal" dominant-baseline="alphabetic" fill="none" stroke="rgb(255, 255, 255)" stroke-linecap="round" stroke-linejoin="bevel" stroke-miterlimit="10" stroke-opacity="1" stroke-width="3" text-anchor="start" x="1207" y="708">α</text><text font-family="geogebra-sans-serif, sans-serif" font-size="48px" font-style="normal" font-weight="normal" text-decoration="normal" dominant-baseline="alphabetic" fill="rgb(0, 0, 0)" fill-opacity="1" stroke="none" text-anchor="start" x="1207" y="708">α</text><path fill="rgb(0, 0, 0)" fill-opacity="0.0980392" stroke="none" d="M 1269.73 696.689 C 1259.21 701.637 1252.5 712.212 1252.5 723.833 L 1282.5 723.833 Z" paint-order="stroke fill markers" /><path fill="none" stroke="rgb(0, 0, 0)" stroke-linecap="round" stroke-linejoin="round" stroke-miterlimit="10" stroke-opacity="0.6" stroke-width="2" d="M 1269.73 696.689 C 1259.21 701.637 1252.5 712.212 1252.5 723.833 L 1282.5 723.833 Z" paint-order="fill stroke markers" /><text font-family="geogebra-sans-serif, sans-serif" font-size="48px" font-style="normal" font-weight="normal" text-decoration="normal" dominant-baseline="alphabetic" fill="rgb(0, 0, 0)" fill-opacity="1" stroke="none" text-anchor="start" x="1242" y="681">β</text><text font-family="geogebra-sans-serif, sans-serif" font-size="48px" font-style="normal" font-weight="normal" text-decoration="normal" dominant-baseline="alphabetic" fill="none" stroke="rgb(255, 255, 255)" stroke-linecap="round" stroke-linejoin="bevel" stroke-miterlimit="10" stroke-opacity="1" stroke-width="3" text-anchor="start" x="1242" y="681">β</text><text font-family="geogebra-sans-serif, sans-serif" font-size="48px" font-style="normal" font-weight="normal" text-decoration="normal" dominant-baseline="alphabetic" fill="rgb(0, 0, 0)" fill-opacity="1" stroke="none" text-anchor="start" x="1242" y="681">β</text><path fill="none" stroke="rgb(211, 47, 47)" stroke-linecap="round" stroke-linejoin="round" stroke-miterlimit="10" stroke-opacity="0.8" stroke-width="6.5" d="M 882.5 98.8333 L 1082.5 298.833" paint-order="fill stroke markers" /><path fill="none" stroke="rgb(211, 47, 47)" stroke-linecap="round" stroke-linejoin="round" stroke-miterlimit="10" stroke-opacity="0.8" stroke-width="6.5" d="M 882.5 98.8333 L 1282.5 723.833" paint-order="fill stroke markers" /><path fill="none" stroke="rgb(211, 47, 47)" stroke-linecap="round" stroke-linejoin="round" stroke-miterlimit="10" stroke-opacity="0.8" stroke-width="6.5" d="M 1082.5 298.833 L 1282.5 723.833" paint-order="fill stroke markers" /><path fill="none" stroke="rgb(211, 47, 47)" stroke-linecap="round" stroke-linejoin="round" stroke-miterlimit="10" stroke-opacity="0.8" stroke-width="6.5" d="M 1282.5 98.8333 L 1282.5 498.833" paint-order="fill stroke markers" /><path fill="none" stroke="rgb(211, 47, 47)" stroke-linecap="round" stroke-linejoin="round" stroke-miterlimit="10" stroke-opacity="0.8" stroke-width="6.5" d="M 882.5 98.8333 L 1282.5 98.8333" paint-order="fill stroke markers" /><path fill="none" stroke="rgb(211, 47, 47)" stroke-linecap="round" stroke-linejoin="round" stroke-miterlimit="10" stroke-opacity="0.8" stroke-width="6.5" d="M 1082.5 298.833 L 1282.5 98.8333" paint-order="fill stroke markers" /><path fill="none" stroke="rgb(211, 47, 47)" stroke-linecap="round" stroke-linejoin="round" stroke-miterlimit="10" stroke-opacity="0.8" stroke-width="6.5" d="M 1082.5 298.833 L 1282.5 498.833" paint-order="fill stroke markers" /><path fill="none" stroke="rgb(211, 47, 47)" stroke-linecap="round" stroke-linejoin="round" stroke-miterlimit="10" stroke-opacity="0.8" stroke-width="6.5" d="M 1282.5 498.833 L 1282.5 723.833" paint-order="fill stroke markers" /><path fill="none" stroke="rgb(21, 101, 192)" stroke-linecap="round" stroke-linejoin="round" stroke-miterlimit="10" stroke-opacity="0.8" stroke-width="6.5" d="M 482.5 723.833 L 1282.5 723.833" paint-order="fill stroke markers" /><text font-family="geogebra-sans-serif, sans-serif" font-size="48px" font-style="normal" font-weight="normal" text-decoration="normal" dominant-baseline="alphabetic" fill="rgb(21, 101, 192)" fill-opacity="1" stroke="none" text-anchor="start" x="812" y="700">Base LR-edge</text><text font-family="geogebra-sans-serif, sans-serif" font-size="48px" font-style="normal" font-weight="normal" text-decoration="normal" dominant-baseline="alphabetic" fill="none" stroke="rgb(255, 255, 255)" stroke-linecap="round" stroke-linejoin="bevel" stroke-miterlimit="10" stroke-opacity="1" stroke-width="3" text-anchor="start" x="812" y="700">Base LR-edge</text><text font-family="geogebra-sans-serif, sans-serif" font-size="48px" font-style="normal" font-weight="normal" text-decoration="normal" dominant-baseline="alphabetic" fill="rgb(21, 101, 192)" fill-opacity="1" stroke="none" text-anchor="start" x="812" y="700">Base LR-edge</text><path fill="none" stroke="rgb(97, 97, 97)" stroke-linecap="round" stroke-linejoin="round" stroke-miterlimit="10" stroke-opacity="0.8" stroke-width="6.5" d="M 767 185.333 L 851.284 122.212" paint-order="fill stroke markers" /><path fill="rgb(97, 97, 97)" fill-opacity="0.8" fill-rule="evenodd" stroke="none" d="M 882.5 98.8333 L 857.128 130.016 L 845.439 114.408 Z" paint-order="stroke fill markers" /><path fill="none" stroke="rgb(97, 97, 97)" stroke-linecap="round" stroke-linejoin="round" stroke-miterlimit="10" stroke-opacity="0.8" stroke-width="6.5" d="M 767 185.333 L 1045.8 285.632" paint-order="fill stroke markers" /><path fill="rgb(97, 97, 97)" fill-opacity="0.8" fill-rule="evenodd" stroke="none" d="M 1082.5 298.833 L 1042.5 294.806 L 1049.1 276.457 Z" paint-order="stroke fill markers" /><path fill="none" stroke="rgb(97, 97, 97)" stroke-linecap="round" stroke-linejoin="round" stroke-miterlimit="10" stroke-opacity="0.8" stroke-width="6" d="M 767 185.333 L 1251.74 480.128" paint-order="fill stroke markers" /><path fill="rgb(97, 97, 97)" fill-opacity="0.8" fill-rule="evenodd" stroke="none" d="M 1282.5 498.833 L 1247.06 487.817 L 1256.42 472.438 Z" paint-order="stroke fill markers" /><path fill="rgb(21, 101, 192)" fill-opacity="1" stroke="none" d="M 1291.5 498.833 C 1291.5 503.804 1287.47 507.833 1282.5 507.833 C 1277.53 507.833 1273.5 503.804 1273.5 498.833 C 1273.5 493.863 1277.53 489.833 1282.5 489.833 C 1287.47 489.833 1291.5 493.863 1291.5 498.833 Z" paint-order="stroke fill markers" /><path fill="none" stroke="rgb(0, 0, 0)" stroke-linecap="round" stroke-linejoin="round" stroke-miterlimit="10" stroke-opacity="1" d="M 1291.5 498.833 C 1291.5 503.804 1287.47 507.833 1282.5 507.833 C 1277.53 507.833 1273.5 503.804 1273.5 498.833 C 1273.5 493.863 1277.53 489.833 1282.5 489.833 C 1287.47 489.833 1291.5 493.863 1291.5 498.833 Z" paint-order="fill stroke markers" /><text font-family="geogebra-sans-serif, sans-serif" font-size="48px" font-style="normal" font-weight="normal" text-decoration="normal" dominant-baseline="alphabetic" fill="rgb(21, 101, 192)" fill-opacity="1" stroke="none" text-anchor="start" x="1287" y="481">9</text><text font-family="geogebra-sans-serif, sans-serif" font-size="48px" font-style="normal" font-weight="normal" text-decoration="normal" dominant-baseline="alphabetic" fill="none" stroke="rgb(255, 255, 255)" stroke-linecap="round" stroke-linejoin="bevel" stroke-miterlimit="10" stroke-opacity="1" stroke-width="3" text-anchor="start" x="1287" y="481">9</text><text font-family="geogebra-sans-serif, sans-serif" font-size="48px" font-style="normal" font-weight="normal" text-decoration="normal" dominant-baseline="alphabetic" fill="rgb(21, 101, 192)" fill-opacity="1" stroke="none" text-anchor="start" x="1287" y="481">9</text><path fill="rgb(21, 101, 192)" fill-opacity="1" stroke="none" d="M 491.5 723.833 C 491.5 728.804 487.471 732.833 482.5 732.833 C 477.529 732.833 473.5 728.804 473.5 723.833 C 473.5 718.863 477.529 714.833 482.5 714.833 C 487.471 714.833 491.5 718.863 491.5 723.833 Z" paint-order="stroke fill markers" /><path fill="none" stroke="rgb(0, 0, 0)" stroke-linecap="round" stroke-linejoin="round" stroke-miterlimit="10" stroke-opacity="1" d="M 491.5 723.833 C 491.5 728.804 487.471 732.833 482.5 732.833 C 477.529 732.833 473.5 728.804 473.5 723.833 C 473.5 718.863 477.529 714.833 482.5 714.833 C 487.471 714.833 491.5 718.863 491.5 723.833 Z" paint-order="fill stroke markers" /><text font-family="geogebra-sans-serif, sans-serif" font-size="48px" font-style="normal" font-weight="normal" text-decoration="normal" dominant-baseline="alphabetic" fill="rgb(21, 101, 192)" fill-opacity="1" stroke="none" text-anchor="start" x="507" y="713">2</text><text font-family="geogebra-sans-serif, sans-serif" font-size="48px" font-style="normal" font-weight="normal" text-decoration="normal" dominant-baseline="alphabetic" fill="none" stroke="rgb(255, 255, 255)" stroke-linecap="round" stroke-linejoin="bevel" stroke-miterlimit="10" stroke-opacity="1" stroke-width="3" text-anchor="start" x="507" y="713">2</text><text font-family="geogebra-sans-serif, sans-serif" font-size="48px" font-style="normal" font-weight="normal" text-decoration="normal" dominant-baseline="alphabetic" fill="rgb(21, 101, 192)" fill-opacity="1" stroke="none" text-anchor="start" x="507" y="713">2</text><path fill="rgb(21, 101, 192)" fill-opacity="1" stroke="none" d="M 891.5 98.8333 C 891.5 103.804 887.471 107.833 882.5 107.833 C 877.529 107.833 873.5 103.804 873.5 98.8333 C 873.5 93.8628 877.529 89.8333 882.5 89.8333 C 887.471 89.8333 891.5 93.8628 891.5 98.8333 Z" paint-order="stroke fill markers" /><path fill="none" stroke="rgb(0, 0, 0)" stroke-linecap="round" stroke-linejoin="round" stroke-miterlimit="10" stroke-opacity="1" d="M 891.5 98.8333 C 891.5 103.804 887.471 107.833 882.5 107.833 C 877.529 107.833 873.5 103.804 873.5 98.8333 C 873.5 93.8628 877.529 89.8333 882.5 89.8333 C 887.471 89.8333 891.5 93.8628 891.5 98.8333 Z" paint-order="fill stroke markers" /><text font-family="geogebra-sans-serif, sans-serif" font-size="48px" font-style="normal" font-weight="normal" text-decoration="normal" dominant-baseline="alphabetic" fill="rgb(21, 101, 192)" fill-opacity="1" stroke="none" text-anchor="start" x="887" y="81">6</text><text font-family="geogebra-sans-serif, sans-serif" font-size="48px" font-style="normal" font-weight="normal" text-decoration="normal" dominant-baseline="alphabetic" fill="none" stroke="rgb(255, 255, 255)" stroke-linecap="round" stroke-linejoin="bevel" stroke-miterlimit="10" stroke-opacity="1" stroke-width="3" text-anchor="start" x="887" y="81">6</text><text font-family="geogebra-sans-serif, sans-serif" font-size="48px" font-style="normal" font-weight="normal" text-decoration="normal" dominant-baseline="alphabetic" fill="rgb(21, 101, 192)" fill-opacity="1" stroke="none" text-anchor="start" x="887" y="81">6</text><path fill="rgb(21, 101, 192)" fill-opacity="1" stroke="none" d="M 1091.5 298.833 C 1091.5 303.804 1087.47 307.833 1082.5 307.833 C 1077.53 307.833 1073.5 303.804 1073.5 298.833 C 1073.5 293.863 1077.53 289.833 1082.5 289.833 C 1087.47 289.833 1091.5 293.863 1091.5 298.833 Z" paint-order="stroke fill markers" /><path fill="none" stroke="rgb(0, 0, 0)" stroke-linecap="round" stroke-linejoin="round" stroke-miterlimit="10" stroke-opacity="1" d="M 1091.5 298.833 C 1091.5 303.804 1087.47 307.833 1082.5 307.833 C 1077.53 307.833 1073.5 303.804 1073.5 298.833 C 1073.5 293.863 1077.53 289.833 1082.5 289.833 C 1087.47 289.833 1091.5 293.863 1091.5 298.833 Z" paint-order="fill stroke markers" /><text font-family="geogebra-sans-serif, sans-serif" font-size="48px" font-style="normal" font-weight="normal" text-decoration="normal" dominant-baseline="alphabetic" fill="rgb(21, 101, 192)" fill-opacity="1" stroke="none" text-anchor="start" x="1087" y="281">7</text><text font-family="geogebra-sans-serif, sans-serif" font-size="48px" font-style="normal" font-weight="normal" text-decoration="normal" dominant-baseline="alphabetic" fill="none" stroke="rgb(255, 255, 255)" stroke-linecap="round" stroke-linejoin="bevel" stroke-miterlimit="10" stroke-opacity="1" stroke-width="3" text-anchor="start" x="1087" y="281">7</text><text font-family="geogebra-sans-serif, sans-serif" font-size="48px" font-style="normal" font-weight="normal" text-decoration="normal" dominant-baseline="alphabetic" fill="rgb(21, 101, 192)" fill-opacity="1" stroke="none" text-anchor="start" x="1087" y="281">7</text><path fill="rgb(21, 101, 192)" fill-opacity="1" stroke="none" d="M 1291.5 723.833 C 1291.5 728.804 1287.47 732.833 1282.5 732.833 C 1277.53 732.833 1273.5 728.804 1273.5 723.833 C 1273.5 718.863 1277.53 714.833 1282.5 714.833 C 1287.47 714.833 1291.5 718.863 1291.5 723.833 Z" paint-order="stroke fill markers" /><path fill="none" stroke="rgb(0, 0, 0)" stroke-linecap="round" stroke-linejoin="round" stroke-miterlimit="10" stroke-opacity="1" d="M 1291.5 723.833 C 1291.5 728.804 1287.47 732.833 1282.5 732.833 C 1277.53 732.833 1273.5 728.804 1273.5 723.833 C 1273.5 718.863 1277.53 714.833 1282.5 714.833 C 1287.47 714.833 1291.5 718.863 1291.5 723.833 Z" paint-order="fill stroke markers" /><text font-family="geogebra-sans-serif, sans-serif" font-size="48px" font-style="normal" font-weight="normal" text-decoration="normal" dominant-baseline="alphabetic" fill="rgb(21, 101, 192)" fill-opacity="1" stroke="none" text-anchor="start" x="1287" y="706">8</text><text font-family="geogebra-sans-serif, sans-serif" font-size="48px" font-style="normal" font-weight="normal" text-decoration="normal" dominant-baseline="alphabetic" fill="none" stroke="rgb(255, 255, 255)" stroke-linecap="round" stroke-linejoin="bevel" stroke-miterlimit="10" stroke-opacity="1" stroke-width="3" text-anchor="start" x="1287" y="706">8</text><text font-family="geogebra-sans-serif, sans-serif" font-size="48px" font-style="normal" font-weight="normal" text-decoration="normal" dominant-baseline="alphabetic" fill="rgb(21, 101, 192)" fill-opacity="1" stroke="none" text-anchor="start" x="1287" y="706">8</text><path fill="rgb(21, 101, 192)" fill-opacity="1" stroke="none" d="M 1291.5 98.8333 C 1291.5 103.804 1287.47 107.833 1282.5 107.833 C 1277.53 107.833 1273.5 103.804 1273.5 98.8333 C 1273.5 93.8628 1277.53 89.8333 1282.5 89.8333 C 1287.47 89.8333 1291.5 93.8628 1291.5 98.8333 Z" paint-order="stroke fill markers" /><path fill="none" stroke="rgb(0, 0, 0)" stroke-linecap="round" stroke-linejoin="round" stroke-miterlimit="10" stroke-opacity="1" d="M 1291.5 98.8333 C 1291.5 103.804 1287.47 107.833 1282.5 107.833 C 1277.53 107.833 1273.5 103.804 1273.5 98.8333 C 1273.5 93.8628 1277.53 89.8333 1282.5 89.8333 C 1287.47 89.8333 1291.5 93.8628 1291.5 98.8333 Z" paint-order="fill stroke markers" /><text font-family="geogebra-sans-serif, sans-serif" font-size="48px" font-style="normal" font-weight="normal" text-decoration="normal" dominant-baseline="alphabetic" fill="rgb(21, 101, 192)" fill-opacity="1" stroke="none" text-anchor="start" x="1287" y="81">10</text><text font-family="geogebra-sans-serif, sans-serif" font-size="48px" font-style="normal" font-weight="normal" text-decoration="normal" dominant-baseline="alphabetic" fill="none" stroke="rgb(255, 255, 255)" stroke-linecap="round" stroke-linejoin="bevel" stroke-miterlimit="10" stroke-opacity="1" stroke-width="3" text-anchor="start" x="1287" y="81">10</text><text font-family="geogebra-sans-serif, sans-serif" font-size="48px" font-style="normal" font-weight="normal" text-decoration="normal" dominant-baseline="alphabetic" fill="rgb(21, 101, 192)" fill-opacity="1" stroke="none" text-anchor="start" x="1287" y="81">10</text><path fill="rgb(21, 101, 192)" fill-opacity="1" stroke="none" d="M 768 185.333 C 768 185.886 767.552 186.333 767 186.333 C 766.448 186.333 766 185.886 766 185.333 C 766 184.781 766.448 184.333 767 184.333 C 767.552 184.333 768 184.781 768 185.333 Z" paint-order="stroke fill markers" /><path fill="none" stroke="rgb(0, 0, 0)" stroke-linecap="round" stroke-linejoin="round" stroke-miterlimit="10" stroke-opacity="1" d="M 768 185.333 C 768 185.886 767.552 186.333 767 186.333 C 766.448 186.333 766 185.886 766 185.333 C 766 184.781 766.448 184.333 767 184.333 C 767.552 184.333 768 184.781 768 185.333 Z" paint-order="fill stroke markers" /><text font-family="geogebra-sans-serif, sans-serif" font-size="48px" font-style="normal" font-weight="normal" text-decoration="normal" dominant-baseline="alphabetic" fill="rgb(21, 101, 192)" fill-opacity="1" stroke="none" text-anchor="start" x="702" y="224">Potential Candidate</text><text font-family="geogebra-sans-serif, sans-serif" font-size="48px" font-style="normal" font-weight="normal" text-decoration="normal" dominant-baseline="alphabetic" fill="none" stroke="rgb(255, 255, 255)" stroke-linecap="round" stroke-linejoin="bevel" stroke-miterlimit="10" stroke-opacity="1" stroke-width="3" text-anchor="start" x="702" y="224">Potential Candidate</text><text font-family="geogebra-sans-serif, sans-serif" font-size="48px" font-style="normal" font-weight="normal" text-decoration="normal" dominant-baseline="alphabetic" fill="rgb(21, 101, 192)" fill-opacity="1" stroke="none" text-anchor="start" x="702" y="224">Potential Candidate</text></g></g></svg>