<svg xmlns:xlink="http://www.w3.org/1999/xlink" width="1779" height="1127" xmlns="http://www.w3.org/2000/svg" version="1.1"><defs><clipPath id="sRVDMMTCiJbP"><path fill="none" stroke="none" d="M 0 0 L 1779 0 L 1779 1127 L 0 1127 L 0 0 Z" /></clipPath></defs><g clip-path="url(&quot;#sRVDMMTCiJbP&quot;)" transform="scale(1)"><g><rect fill="rgb(255, 255, 255)" fill-opacity="1" stroke="none" x="0" y="0" width="1779" height="1127" /><path fill="rgb(0, 0, 0)" fill-opacity="0.0980392" stroke="none" d="M 1674.43 1045.2 C 1665.81 1049.62 1660.6 1057.25 1660.6 1065.44 L 1690.6 1065.44 Z" paint-order="stroke fill markers" /><path fill="none" stroke="rgb(0, 0, 0)" stroke-linecap="round" stroke-linejoin="round" stroke-miterlimit="10" stroke-opacity="0.6" stroke-width="2" d="M 1674.43 1045.2 C 1665.81 1049.62 1660.6 1057.25 1660.6 1065.44 L 1690.6 1065.44 Z" paint-order="fill stroke markers" /><text font-family="geogebra-sans-serif, sans-serif" font-size="48px" font-style="normal" font-weight="normal" text-decoration="normal" dominant-baseline="alphabetic" fill="rgb(0, 0, 0)" fill-opacity="1" stroke="none" text-anchor="start" x="1615" y="1051">α</text><text font-family="geogebra-sans-serif, sans-serif" font-size="48px" font-style="normal" font-weight="normal" text-decoration="normal" dominant-baseline="alphabetic" fill="none" stroke="rgb(255, 255, 255)" stroke-linecap="round" stroke-linejoin="bevel" stroke-miterlimit="10" stroke-opacity="1" stroke-width="3" text-anchor="start" x="1615" y="1051">α</text><text font-family="geogebra-sans-serif, sans-serif" font-size="48px" font-style="normal" font-weight="normal" text-decoration="normal" dominant-baseline="alphabetic" fill="rgb(0, 0, 0)" fill-opacity="1" stroke="none" text-anchor="start" x="1615" y="1051">α</text><path fill="rgb(0, 0, 0)" fill-opacity="0.0980392" stroke="none" d="M 1677.82 1043.7 C 1667.31 1047.66 1660.6 1056.13 1660.6 1065.44 L 1690.6 1065.44 Z" paint-order="stroke fill markers" /><path fill="none" stroke="rgb(0, 0, 0)" stroke-linecap="round" stroke-linejoin="round" stroke-miterlimit="10" stroke-opacity="0.6" stroke-width="2" d="M 1677.82 1043.7 C 1667.31 1047.66 1660.6 1056.13 1660.6 1065.44 L 1690.6 1065.44 Z" paint-order="fill stroke markers" /><text font-family="geogebra-sans-serif, sans-serif" font-size="48px" font-style="normal" font-weight="normal" text-decoration="normal" dominant-baseline="alphabetic" fill="rgb(0, 0, 0)" fill-opacity="1" stroke="none" text-anchor="start" x="1650" y="1024">β</text><text font-family="geogebra-sans-serif, sans-serif" font-size="48px" font-style="normal" font-weight="normal" text-decoration="normal" dominant-baseline="alphabetic" fill="none" stroke="rgb(255, 255, 255)" stroke-linecap="round" stroke-linejoin="bevel" stroke-miterlimit="10" stroke-opacity="1" stroke-width="3" text-anchor="start" x="1650" y="1024">β</text><text font-family="geogebra-sans-serif, sans-serif" font-size="48px" font-style="normal" font-weight="normal" text-decoration="normal" dominant-baseline="alphabetic" fill="rgb(0, 0, 0)" fill-opacity="1" stroke="none" text-anchor="start" x="1650" y="1024">β</text><path fill="none" stroke="rgb(211, 47, 47)" stroke-linecap="round" stroke-linejoin="round" stroke-miterlimit="10" stroke-opacity="0.8" stroke-width="6.5" d="M 889.5 63.167 L 1290.05 383.893" paint-order="fill stroke markers" /><path fill="none" stroke="rgb(211, 47, 47)" stroke-linecap="round" stroke-linejoin="round" stroke-miterlimit="10" stroke-opacity="0.8" stroke-width="6.5" d="M 889.5 63.167 L 1690.6 1065.44" paint-order="fill stroke markers" /><path fill="none" stroke="rgb(211, 47, 47)" stroke-linecap="round" stroke-linejoin="round" stroke-miterlimit="10" stroke-opacity="0.8" stroke-width="6.5" d="M 1290.05 383.893 L 1690.6 1065.44" paint-order="fill stroke markers" /><path fill="none" stroke="rgb(211, 47, 47)" stroke-linecap="round" stroke-linejoin="round" stroke-miterlimit="10" stroke-opacity="0.8" stroke-width="6.5" d="M 1690.6 63.167 L 1690.6 704.62" paint-order="fill stroke markers" /><path fill="none" stroke="rgb(211, 47, 47)" stroke-linecap="round" stroke-linejoin="round" stroke-miterlimit="10" stroke-opacity="0.8" stroke-width="6.5" d="M 889.5 63.167 L 1690.6 63.167" paint-order="fill stroke markers" /><path fill="none" stroke="rgb(211, 47, 47)" stroke-linecap="round" stroke-linejoin="round" stroke-miterlimit="10" stroke-opacity="0.8" stroke-width="6.5" d="M 1290.05 383.893 L 1690.6 63.167" paint-order="fill stroke markers" /><path fill="none" stroke="rgb(211, 47, 47)" stroke-linecap="round" stroke-linejoin="round" stroke-miterlimit="10" stroke-opacity="0.8" stroke-width="6.5" d="M 1290.05 383.893 L 1690.6 704.62" paint-order="fill stroke markers" /><path fill="none" stroke="rgb(211, 47, 47)" stroke-linecap="round" stroke-linejoin="round" stroke-miterlimit="10" stroke-opacity="0.8" stroke-width="6.5" d="M 1690.6 704.62 L 1690.6 1065.44" paint-order="fill stroke markers" /><path fill="none" stroke="rgb(21, 101, 192)" stroke-linecap="round" stroke-linejoin="round" stroke-miterlimit="10" stroke-opacity="0.8" stroke-width="6.5" d="M 88.4012 1065.44 L 1690.6 1065.44" paint-order="fill stroke markers" /><text font-family="geogebra-sans-serif, sans-serif" font-size="48px" font-style="normal" font-weight="normal" text-decoration="normal" dominant-baseline="alphabetic" fill="rgb(21, 101, 192)" fill-opacity="1" stroke="none" text-anchor="start" x="819" y="1042">Base LR-edge</text><text font-family="geogebra-sans-serif, sans-serif" font-size="48px" font-style="normal" font-weight="normal" text-decoration="normal" dominant-baseline="alphabetic" fill="none" stroke="rgb(255, 255, 255)" stroke-linecap="round" stroke-linejoin="bevel" stroke-miterlimit="10" stroke-opacity="1" stroke-width="3" text-anchor="start" x="819" y="1042">Base LR-edge</text><text font-family="geogebra-sans-serif, sans-serif" font-size="48px" font-style="normal" font-weight="normal" text-decoration="normal" dominant-baseline="alphabetic" fill="rgb(21, 101, 192)" fill-opacity="1" stroke="none" text-anchor="start" x="819" y="1042">Base LR-edge</text><path fill="none" stroke="rgb(97, 97, 97)" stroke-linecap="round" stroke-linejoin="round" stroke-miterlimit="10" stroke-opacity="0.8" stroke-width="6.5" d="M 658.183 201.881 L 856.053 83.2243" paint-order="fill stroke markers" /><path fill="rgb(97, 97, 97)" fill-opacity="0.8" fill-rule="evenodd" stroke="none" d="M 889.5 63.167 L 861.067 91.586 L 851.039 74.8625 Z" paint-order="stroke fill markers" /><path fill="none" stroke="rgb(97, 97, 97)" stroke-linecap="round" stroke-linejoin="round" stroke-miterlimit="10" stroke-opacity="0.8" stroke-width="6.5" d="M 658.183 201.881 L 1252.57 373.098" paint-order="fill stroke markers" /><path fill="rgb(97, 97, 97)" fill-opacity="0.8" fill-rule="evenodd" stroke="none" d="M 1290.05 383.893 L 1249.87 382.467 L 1255.27 363.729 Z" paint-order="stroke fill markers" /><path fill="rgb(21, 101, 192)" fill-opacity="1" stroke="none" d="M 1699.6 704.62 C 1699.6 709.59 1695.57 713.62 1690.6 713.62 C 1685.63 713.62 1681.6 709.59 1681.6 704.62 C 1681.6 699.649 1685.63 695.62 1690.6 695.62 C 1695.57 695.62 1699.6 699.649 1699.6 704.62 Z" paint-order="stroke fill markers" /><path fill="none" stroke="rgb(0, 0, 0)" stroke-linecap="round" stroke-linejoin="round" stroke-miterlimit="10" stroke-opacity="1" d="M 1699.6 704.62 C 1699.6 709.59 1695.57 713.62 1690.6 713.62 C 1685.63 713.62 1681.6 709.59 1681.6 704.62 C 1681.6 699.649 1685.63 695.62 1690.6 695.62 C 1695.57 695.62 1699.6 699.649 1699.6 704.62 Z" paint-order="fill stroke markers" /><text font-family="geogebra-sans-serif, sans-serif" font-size="48px" font-style="normal" font-weight="normal" text-decoration="normal" dominant-baseline="alphabetic" fill="rgb(21, 101, 192)" fill-opacity="1" stroke="none" text-anchor="start" x="1695" y="687">9</text><text font-family="geogebra-sans-serif, sans-serif" font-size="48px" font-style="normal" font-weight="normal" text-decoration="normal" dominant-baseline="alphabetic" fill="none" stroke="rgb(255, 255, 255)" stroke-linecap="round" stroke-linejoin="bevel" stroke-miterlimit="10" stroke-opacity="1" stroke-width="3" text-anchor="start" x="1695" y="687">9</text><text font-family="geogebra-sans-serif, sans-serif" font-size="48px" font-style="normal" font-weight="normal" text-decoration="normal" dominant-baseline="alphabetic" fill="rgb(21, 101, 192)" fill-opacity="1" stroke="none" text-anchor="start" x="1695" y="687">9</text><path fill="rgb(21, 101, 192)" fill-opacity="1" stroke="none" d="M 97.4012 1065.44 C 97.4012 1070.41 93.3718 1074.44 88.4012 1074.44 C 83.4307 1074.44 79.4012 1070.41 79.4012 1065.44 C 79.4012 1060.47 83.4307 1056.44 88.4012 1056.44 C 93.3718 1056.44 97.4012 1060.47 97.4012 1065.44 Z" paint-order="stroke fill markers" /><path fill="none" stroke="rgb(0, 0, 0)" stroke-linecap="round" stroke-linejoin="round" stroke-miterlimit="10" stroke-opacity="1" d="M 97.4012 1065.44 C 97.4012 1070.41 93.3718 1074.44 88.4012 1074.44 C 83.4307 1074.44 79.4012 1070.41 79.4012 1065.44 C 79.4012 1060.47 83.4307 1056.44 88.4012 1056.44 C 93.3718 1056.44 97.4012 1060.47 97.4012 1065.44 Z" paint-order="fill stroke markers" /><text font-family="geogebra-sans-serif, sans-serif" font-size="48px" font-style="normal" font-weight="normal" text-decoration="normal" dominant-baseline="alphabetic" fill="rgb(21, 101, 192)" fill-opacity="1" stroke="none" text-anchor="start" x="112" y="1054">2</text><text font-family="geogebra-sans-serif, sans-serif" font-size="48px" font-style="normal" font-weight="normal" text-decoration="normal" dominant-baseline="alphabetic" fill="none" stroke="rgb(255, 255, 255)" stroke-linecap="round" stroke-linejoin="bevel" stroke-miterlimit="10" stroke-opacity="1" stroke-width="3" text-anchor="start" x="112" y="1054">2</text><text font-family="geogebra-sans-serif, sans-serif" font-size="48px" font-style="normal" font-weight="normal" text-decoration="normal" dominant-baseline="alphabetic" fill="rgb(21, 101, 192)" fill-opacity="1" stroke="none" text-anchor="start" x="112" y="1054">2</text><path fill="rgb(21, 101, 192)" fill-opacity="1" stroke="none" d="M 898.5 63.167 C 898.5 68.1376 894.471 72.167 889.5 72.167 C 884.529 72.167 880.5 68.1376 880.5 63.167 C 880.5 58.1965 884.529 54.167 889.5 54.167 C 894.471 54.167 898.5 58.1965 898.5 63.167 Z" paint-order="stroke fill markers" /><path fill="none" stroke="rgb(0, 0, 0)" stroke-linecap="round" stroke-linejoin="round" stroke-miterlimit="10" stroke-opacity="1" d="M 898.5 63.167 C 898.5 68.1376 894.471 72.167 889.5 72.167 C 884.529 72.167 880.5 68.1376 880.5 63.167 C 880.5 58.1965 884.529 54.167 889.5 54.167 C 894.471 54.167 898.5 58.1965 898.5 63.167 Z" paint-order="fill stroke markers" /><text font-family="geogebra-sans-serif, sans-serif" font-size="48px" font-style="normal" font-weight="normal" text-decoration="normal" dominant-baseline="alphabetic" fill="rgb(21, 101, 192)" fill-opacity="1" stroke="none" text-anchor="start" x="893" y="48">6</text><text font-family="geogebra-sans-serif, sans-serif" font-size="48px" font-style="normal" font-weight="normal" text-decoration="normal" dominant-baseline="alphabetic" fill="none" stroke="rgb(255, 255, 255)" stroke-linecap="round" stroke-linejoin="bevel" stroke-miterlimit="10" stroke-opacity="1" stroke-width="3" text-anchor="start" x="893" y="48">6</text><text font-family="geogebra-sans-serif, sans-serif" font-size="48px" font-style="normal" font-weight="normal" text-decoration="normal" dominant-baseline="alphabetic" fill="rgb(21, 101, 192)" fill-opacity="1" stroke="none" text-anchor="start" x="893" y="48">6</text><path fill="rgb(21, 101, 192)" fill-opacity="1" stroke="none" d="M 1299.05 383.893 C 1299.05 388.864 1295.02 392.893 1290.05 392.893 C 1285.08 392.893 1281.05 388.864 1281.05 383.893 C 1281.05 378.923 1285.08 374.893 1290.05 374.893 C 1295.02 374.893 1299.05 378.923 1299.05 383.893 Z" paint-order="stroke fill markers" /><path fill="none" stroke="rgb(0, 0, 0)" stroke-linecap="round" stroke-linejoin="round" stroke-miterlimit="10" stroke-opacity="1" d="M 1299.05 383.893 C 1299.05 388.864 1295.02 392.893 1290.05 392.893 C 1285.08 392.893 1281.05 388.864 1281.05 383.893 C 1281.05 378.923 1285.08 374.893 1290.05 374.893 C 1295.02 374.893 1299.05 378.923 1299.05 383.893 Z" paint-order="fill stroke markers" /><text font-family="geogebra-sans-serif, sans-serif" font-size="48px" font-style="normal" font-weight="normal" text-decoration="normal" dominant-baseline="alphabetic" fill="rgb(21, 101, 192)" fill-opacity="1" stroke="none" text-anchor="start" x="1294" y="366">7</text><text font-family="geogebra-sans-serif, sans-serif" font-size="48px" font-style="normal" font-weight="normal" text-decoration="normal" dominant-baseline="alphabetic" fill="none" stroke="rgb(255, 255, 255)" stroke-linecap="round" stroke-linejoin="bevel" stroke-miterlimit="10" stroke-opacity="1" stroke-width="3" text-anchor="start" x="1294" y="366">7</text><text font-family="geogebra-sans-serif, sans-serif" font-size="48px" font-style="normal" font-weight="normal" text-decoration="normal" dominant-baseline="alphabetic" fill="rgb(21, 101, 192)" fill-opacity="1" stroke="none" text-anchor="start" x="1294" y="366">7</text><path fill="rgb(21, 101, 192)" fill-opacity="1" stroke="none" d="M 1699.6 1065.44 C 1699.6 1070.41 1695.57 1074.44 1690.6 1074.44 C 1685.63 1074.44 1681.6 1070.41 1681.6 1065.44 C 1681.6 1060.47 1685.63 1056.44 1690.6 1056.44 C 1695.57 1056.44 1699.6 1060.47 1699.6 1065.44 Z" paint-order="stroke fill markers" /><path fill="none" stroke="rgb(0, 0, 0)" stroke-linecap="round" stroke-linejoin="round" stroke-miterlimit="10" stroke-opacity="1" d="M 1699.6 1065.44 C 1699.6 1070.41 1695.57 1074.44 1690.6 1074.44 C 1685.63 1074.44 1681.6 1070.41 1681.6 1065.44 C 1681.6 1060.47 1685.63 1056.44 1690.6 1056.44 C 1695.57 1056.44 1699.6 1060.47 1699.6 1065.44 Z" paint-order="fill stroke markers" /><text font-family="geogebra-sans-serif, sans-serif" font-size="48px" font-style="normal" font-weight="normal" text-decoration="normal" dominant-baseline="alphabetic" fill="rgb(21, 101, 192)" fill-opacity="1" stroke="none" text-anchor="start" x="1695" y="1047">8</text><text font-family="geogebra-sans-serif, sans-serif" font-size="48px" font-style="normal" font-weight="normal" text-decoration="normal" dominant-baseline="alphabetic" fill="none" stroke="rgb(255, 255, 255)" stroke-linecap="round" stroke-linejoin="bevel" stroke-miterlimit="10" stroke-opacity="1" stroke-width="3" text-anchor="start" x="1695" y="1047">8</text><text font-family="geogebra-sans-serif, sans-serif" font-size="48px" font-style="normal" font-weight="normal" text-decoration="normal" dominant-baseline="alphabetic" fill="rgb(21, 101, 192)" fill-opacity="1" stroke="none" text-anchor="start" x="1695" y="1047">8</text><path fill="rgb(21, 101, 192)" fill-opacity="1" stroke="none" d="M 1699.6 63.167 C 1699.6 68.1376 1695.57 72.167 1690.6 72.167 C 1685.63 72.167 1681.6 68.1376 1681.6 63.167 C 1681.6 58.1965 1685.63 54.167 1690.6 54.167 C 1695.57 54.167 1699.6 58.1965 1699.6 63.167 Z" paint-order="stroke fill markers" /><path fill="none" stroke="rgb(0, 0, 0)" stroke-linecap="round" stroke-linejoin="round" stroke-miterlimit="10" stroke-opacity="1" d="M 1699.6 63.167 C 1699.6 68.1376 1695.57 72.167 1690.6 72.167 C 1685.63 72.167 1681.6 68.1376 1681.6 63.167 C 1681.6 58.1965 1685.63 54.167 1690.6 54.167 C 1695.57 54.167 1699.6 58.1965 1699.6 63.167 Z" paint-order="fill stroke markers" /><text font-family="geogebra-sans-serif, sans-serif" font-size="48px" font-style="normal" font-weight="normal" text-decoration="normal" dominant-baseline="alphabetic" fill="rgb(21, 101, 192)" fill-opacity="1" stroke="none" text-anchor="start" x="1695" y="48">10</text><text font-family="geogebra-sans-serif, sans-serif" font-size="48px" font-style="normal" font-weight="normal" text-decoration="normal" dominant-baseline="alphabetic" fill="none" stroke="rgb(255, 255, 255)" stroke-linecap="round" stroke-linejoin="bevel" stroke-miterlimit="10" stroke-opacity="1" stroke-width="3" text-anchor="start" x="1695" y="48">10</text><text font-family="geogebra-sans-serif, sans-serif" font-size="48px" font-style="normal" font-weight="normal" text-decoration="normal" dominant-baseline="alphabetic" fill="rgb(21, 101, 192)" fill-opacity="1" stroke="none" text-anchor="start" x="1695" y="48">10</text><path fill="rgb(21, 101, 192)" fill-opacity="1" stroke="none" d="M 659.183 201.881 C 659.183 202.433 658.735 202.881 658.183 202.881 C 657.63 202.881 657.183 202.433 657.183 201.881 C 657.183 201.329 657.63 200.881 658.183 200.881 C 658.735 200.881 659.183 201.329 659.183 201.881 Z" paint-order="stroke fill markers" /><path fill="none" stroke="rgb(0, 0, 0)" stroke-linecap="round" stroke-linejoin="round" stroke-miterlimit="10" stroke-opacity="1" d="M 659.183 201.881 C 659.183 202.433 658.735 202.881 658.183 202.881 C 657.63 202.881 657.183 202.433 657.183 201.881 C 657.183 201.329 657.63 200.881 658.183 200.881 C 658.735 200.881 659.183 201.329 659.183 201.881 Z" paint-order="fill stroke markers" /><text font-family="geogebra-sans-serif, sans-serif" font-size="48px" font-style="normal" font-weight="normal" text-decoration="normal" dominant-baseline="alphabetic" fill="rgb(21, 101, 192)" fill-opacity="1" stroke="none" text-anchor="start" x="593" y="241">Potential Candidate</text><text font-family="geogebra-sans-serif, sans-serif" font-size="48px" font-style="normal" font-weight="normal" text-decoration="normal" dominant-baseline="alphabetic" fill="none" stroke="rgb(255, 255, 255)" stroke-linecap="round" stroke-linejoin="bevel" stroke-miterlimit="10" stroke-opacity="1" stroke-width="3" text-anchor="start" x="593" y="241">Potential Candidate</text><text font-family="geogebra-sans-serif, sans-serif" font-size="48px" font-style="normal" font-weight="normal" text-decoration="normal" dominant-baseline="alphabetic" fill="rgb(21, 101, 192)" fill-opacity="1" stroke="none" text-anchor="start" x="593" y="241">Potential Candidate</text></g></g></svg>