<svg xmlns:xlink="http://www.w3.org/1999/xlink" width="1864" height="1008" xmlns="http://www.w3.org/2000/svg" version="1.1"><defs><clipPath id="kgRlyXpxRgse"><path fill="none" stroke="none" d="M 0 0 L 1864 0 L 1864 1008 L 0 1008 L 0 0 Z" /></clipPath></defs><g clip-path="url(&quot;#kgRlyXpxRgse&quot;)" transform="scale(1)"><g><rect fill="rgb(255, 255, 255)" fill-opacity="1" stroke="none" x="0" y="0" width="1864" height="1008" /><path fill="none" stroke="rgb(46, 125, 50)" stroke-linecap="round" stroke-linejoin="round" stroke-miterlimit="10" stroke-opacity="0.8" stroke-width="2.5" d="M 1236.14 631.333 C 1236.14 795.993 1102.66 929.476 938 929.476 C 773.341 929.476 639.858 795.993 639.858 631.333 C 639.858 466.674 773.341 333.191 938 333.191 C 1102.66 333.191 1236.14 466.674 1236.14 631.333 Z" paint-order="fill stroke markers" /><path fill="none" stroke="rgb(101, 87, 210)" stroke-linecap="round" stroke-linejoin="round" stroke-miterlimit="10" stroke-opacity="0.8" stroke-width="4" d="M 1206.74 464.667 C 1206.74 613.089 1086.42 733.409 938 733.409 C 789.578 733.409 669.258 613.089 669.258 464.667 C 669.258 316.245 789.578 195.925 938 195.925 C 1086.42 195.925 1206.74 316.245 1206.74 464.667 Z" paint-order="fill stroke markers" /><path fill="none" stroke="rgb(97, 97, 97)" stroke-linecap="round" stroke-linejoin="round" stroke-miterlimit="10" stroke-opacity="0.8" stroke-width="6.5" d="M 671.333 98 L 671.333 231.333" paint-order="fill stroke markers" /><path fill="none" stroke="rgb(97, 97, 97)" stroke-linecap="round" stroke-linejoin="round" stroke-miterlimit="10" stroke-opacity="0.8" stroke-width="6.5" d="M 671.333 231.333 L 671.333 498" paint-order="fill stroke markers" /><path fill="none" stroke="rgb(97, 97, 97)" stroke-linecap="round" stroke-linejoin="round" stroke-miterlimit="10" stroke-opacity="0.8" stroke-width="6.5" d="M 538 364.667 L 671.333 498" paint-order="fill stroke markers" /><path fill="none" stroke="rgb(97, 97, 97)" stroke-linecap="round" stroke-linejoin="round" stroke-miterlimit="10" stroke-opacity="0.8" stroke-width="6.5" d="M 538 364.667 L 671.333 231.333" paint-order="fill stroke markers" /><path fill="none" stroke="rgb(97, 97, 97)" stroke-linecap="round" stroke-linejoin="round" stroke-miterlimit="10" stroke-opacity="0.8" stroke-width="6.5" d="M 671.333 231.333 L 804.667 364.667" paint-order="fill stroke markers" /><path fill="none" stroke="rgb(97, 97, 97)" stroke-linecap="round" stroke-linejoin="round" stroke-miterlimit="10" stroke-opacity="0.8" stroke-width="6.5" d="M 804.667 364.667 L 671.333 498" paint-order="fill stroke markers" /><path fill="none" stroke="rgb(97, 97, 97)" stroke-linecap="round" stroke-linejoin="round" stroke-miterlimit="10" stroke-opacity="0.8" stroke-width="6.5" d="M 671.333 98 L 538 364.667" paint-order="fill stroke markers" /><path fill="none" stroke="rgb(97, 97, 97)" stroke-linecap="round" stroke-linejoin="round" stroke-miterlimit="10" stroke-opacity="0.8" stroke-width="6.5" d="M 671.333 98 L 804.667 364.667" paint-order="fill stroke markers" /><path fill="none" stroke="rgb(211, 47, 47)" stroke-linecap="round" stroke-linejoin="round" stroke-miterlimit="10" stroke-opacity="0.8" stroke-width="6.5" d="M 938 98 L 1071.33 231.333" paint-order="fill stroke markers" /><path fill="none" stroke="rgb(211, 47, 47)" stroke-linecap="round" stroke-linejoin="round" stroke-miterlimit="10" stroke-opacity="0.8" stroke-width="6.5" d="M 1071.33 231.333 L 1204.67 364.667" paint-order="fill stroke markers" /><path fill="none" stroke="rgb(211, 47, 47)" stroke-linecap="round" stroke-linejoin="round" stroke-miterlimit="10" stroke-opacity="0.8" stroke-width="6.5" d="M 938 98 L 1204.67 498" paint-order="fill stroke markers" /><path fill="none" stroke="rgb(211, 47, 47)" stroke-linecap="round" stroke-linejoin="round" stroke-miterlimit="10" stroke-opacity="0.8" stroke-width="6.5" d="M 1071.33 231.333 L 1204.67 498" paint-order="fill stroke markers" /><path fill="none" stroke="rgb(211, 47, 47)" stroke-linecap="round" stroke-linejoin="round" stroke-miterlimit="10" stroke-opacity="0.8" stroke-width="6.5" d="M 1204.67 364.667 L 1204.67 498" paint-order="fill stroke markers" /><path fill="none" stroke="rgb(211, 47, 47)" stroke-linecap="round" stroke-linejoin="round" stroke-miterlimit="10" stroke-opacity="0.8" stroke-width="6.5" d="M 1204.67 98 L 1204.67 364.667" paint-order="fill stroke markers" /><path fill="none" stroke="rgb(211, 47, 47)" stroke-linecap="round" stroke-linejoin="round" stroke-miterlimit="10" stroke-opacity="0.8" stroke-width="6.5" d="M 1204.67 98 L 1071.33 231.333" paint-order="fill stroke markers" /><path fill="none" stroke="rgb(211, 47, 47)" stroke-linecap="round" stroke-linejoin="round" stroke-miterlimit="10" stroke-opacity="0.8" stroke-width="6.5" d="M 938 98 L 1204.67 98" paint-order="fill stroke markers" /><path fill="none" stroke="rgb(21, 101, 192)" stroke-linecap="round" stroke-linejoin="round" stroke-miterlimit="10" stroke-opacity="0.8" stroke-width="6.5" d="M 671.333 498 L 1204.67 498" paint-order="fill stroke markers" /><text font-family="geogebra-sans-serif, sans-serif" font-size="48px" font-style="normal" font-weight="normal" text-decoration="normal" dominant-baseline="alphabetic" fill="rgb(21, 101, 192)" fill-opacity="1" stroke="none" text-anchor="start" x="857" y="515">Base LR-edge</text><text font-family="geogebra-sans-serif, sans-serif" font-size="48px" font-style="normal" font-weight="normal" text-decoration="normal" dominant-baseline="alphabetic" fill="none" stroke="rgb(255, 255, 255)" stroke-linecap="round" stroke-linejoin="bevel" stroke-miterlimit="10" stroke-opacity="1" stroke-width="3" text-anchor="start" x="857" y="515">Base LR-edge</text><text font-family="geogebra-sans-serif, sans-serif" font-size="48px" font-style="normal" font-weight="normal" text-decoration="normal" dominant-baseline="alphabetic" fill="rgb(21, 101, 192)" fill-opacity="1" stroke="none" text-anchor="start" x="857" y="515">Base LR-edge</text><path fill="none" stroke="rgb(255, 215, 0)" stroke-linecap="round" stroke-linejoin="round" stroke-miterlimit="10" stroke-opacity="0.8" stroke-width="5" d="M 804.667 364.667 L 1204.67 498" paint-order="fill stroke markers" /><text font-family="geogebra-sans-serif, sans-serif" font-size="48px" font-style="normal" font-weight="normal" text-decoration="normal" dominant-baseline="alphabetic" fill="rgb(255, 215, 0)" fill-opacity="1" stroke="none" text-anchor="start" x="919" y="441">LR-edge</text><text font-family="geogebra-sans-serif, sans-serif" font-size="48px" font-style="normal" font-weight="normal" text-decoration="normal" dominant-baseline="alphabetic" fill="none" stroke="rgb(255, 255, 255)" stroke-linecap="round" stroke-linejoin="bevel" stroke-miterlimit="10" stroke-opacity="1" stroke-width="3" text-anchor="start" x="919" y="441">LR-edge</text><text font-family="geogebra-sans-serif, sans-serif" font-size="48px" font-style="normal" font-weight="normal" text-decoration="normal" dominant-baseline="alphabetic" fill="rgb(255, 215, 0)" fill-opacity="1" stroke="none" text-anchor="start" x="919" y="441">LR-edge</text><path fill="rgb(21, 101, 192)" fill-opacity="1" stroke="none" d="M 547 364.667 C 547 369.637 542.971 373.667 538 373.667 C 533.029 373.667 529 369.637 529 364.667 C 529 359.696 533.029 355.667 538 355.667 C 542.971 355.667 547 359.696 547 364.667 Z" paint-order="stroke fill markers" /><path fill="none" stroke="rgb(0, 0, 0)" stroke-linecap="round" stroke-linejoin="round" stroke-miterlimit="10" stroke-opacity="1" d="M 547 364.667 C 547 369.637 542.971 373.667 538 373.667 C 533.029 373.667 529 369.637 529 364.667 C 529 359.696 533.029 355.667 538 355.667 C 542.971 355.667 547 359.696 547 364.667 Z" paint-order="fill stroke markers" /><text font-family="geogebra-sans-serif, sans-serif" font-size="48px" font-style="normal" font-weight="normal" text-decoration="normal" dominant-baseline="alphabetic" fill="rgb(21, 101, 192)" fill-opacity="1" stroke="none" text-anchor="start" x="508" y="352">1</text><text font-family="geogebra-sans-serif, sans-serif" font-size="48px" font-style="normal" font-weight="normal" text-decoration="normal" dominant-baseline="alphabetic" fill="none" stroke="rgb(255, 255, 255)" stroke-linecap="round" stroke-linejoin="bevel" stroke-miterlimit="10" stroke-opacity="1" stroke-width="3" text-anchor="start" x="508" y="352">1</text><text font-family="geogebra-sans-serif, sans-serif" font-size="48px" font-style="normal" font-weight="normal" text-decoration="normal" dominant-baseline="alphabetic" fill="rgb(21, 101, 192)" fill-opacity="1" stroke="none" text-anchor="start" x="508" y="352">1</text><path fill="rgb(97, 97, 97)" fill-opacity="1" stroke="none" d="M 813.667 364.667 C 813.667 369.637 809.637 373.667 804.667 373.667 C 799.696 373.667 795.667 369.637 795.667 364.667 C 795.667 359.696 799.696 355.667 804.667 355.667 C 809.637 355.667 813.667 359.696 813.667 364.667 Z" paint-order="stroke fill markers" /><path fill="none" stroke="rgb(0, 0, 0)" stroke-linecap="round" stroke-linejoin="round" stroke-miterlimit="10" stroke-opacity="1" d="M 813.667 364.667 C 813.667 369.637 809.637 373.667 804.667 373.667 C 799.696 373.667 795.667 369.637 795.667 364.667 C 795.667 359.696 799.696 355.667 804.667 355.667 C 809.637 355.667 813.667 359.696 813.667 364.667 Z" paint-order="fill stroke markers" /><text font-family="geogebra-sans-serif, sans-serif" font-size="48px" font-style="normal" font-weight="normal" text-decoration="normal" dominant-baseline="alphabetic" fill="rgb(97, 97, 97)" fill-opacity="1" stroke="none" text-anchor="start" x="809" y="347">5</text><text font-family="geogebra-sans-serif, sans-serif" font-size="48px" font-style="normal" font-weight="normal" text-decoration="normal" dominant-baseline="alphabetic" fill="none" stroke="rgb(255, 255, 255)" stroke-linecap="round" stroke-linejoin="bevel" stroke-miterlimit="10" stroke-opacity="1" stroke-width="3" text-anchor="start" x="809" y="347">5</text><text font-family="geogebra-sans-serif, sans-serif" font-size="48px" font-style="normal" font-weight="normal" text-decoration="normal" dominant-baseline="alphabetic" fill="rgb(97, 97, 97)" fill-opacity="1" stroke="none" text-anchor="start" x="809" y="347">5</text><path fill="rgb(21, 101, 192)" fill-opacity="1" stroke="none" d="M 1213.67 364.667 C 1213.67 369.637 1209.64 373.667 1204.67 373.667 C 1199.7 373.667 1195.67 369.637 1195.67 364.667 C 1195.67 359.696 1199.7 355.667 1204.67 355.667 C 1209.64 355.667 1213.67 359.696 1213.67 364.667 Z" paint-order="stroke fill markers" /><path fill="none" stroke="rgb(0, 0, 0)" stroke-linecap="round" stroke-linejoin="round" stroke-miterlimit="10" stroke-opacity="1" d="M 1213.67 364.667 C 1213.67 369.637 1209.64 373.667 1204.67 373.667 C 1199.7 373.667 1195.67 369.637 1195.67 364.667 C 1195.67 359.696 1199.7 355.667 1204.67 355.667 C 1209.64 355.667 1213.67 359.696 1213.67 364.667 Z" paint-order="fill stroke markers" /><text font-family="geogebra-sans-serif, sans-serif" font-size="48px" font-style="normal" font-weight="normal" text-decoration="normal" dominant-baseline="alphabetic" fill="rgb(21, 101, 192)" fill-opacity="1" stroke="none" text-anchor="start" x="1209" y="347">9</text><text font-family="geogebra-sans-serif, sans-serif" font-size="48px" font-style="normal" font-weight="normal" text-decoration="normal" dominant-baseline="alphabetic" fill="none" stroke="rgb(255, 255, 255)" stroke-linecap="round" stroke-linejoin="bevel" stroke-miterlimit="10" stroke-opacity="1" stroke-width="3" text-anchor="start" x="1209" y="347">9</text><text font-family="geogebra-sans-serif, sans-serif" font-size="48px" font-style="normal" font-weight="normal" text-decoration="normal" dominant-baseline="alphabetic" fill="rgb(21, 101, 192)" fill-opacity="1" stroke="none" text-anchor="start" x="1209" y="347">9</text><path fill="rgb(21, 101, 192)" fill-opacity="1" stroke="none" d="M 680.333 498 C 680.333 502.971 676.304 507 671.333 507 C 666.363 507 662.333 502.971 662.333 498 C 662.333 493.029 666.363 489 671.333 489 C 676.304 489 680.333 493.029 680.333 498 Z" paint-order="stroke fill markers" /><path fill="none" stroke="rgb(0, 0, 0)" stroke-linecap="round" stroke-linejoin="round" stroke-miterlimit="10" stroke-opacity="1" d="M 680.333 498 C 680.333 502.971 676.304 507 671.333 507 C 666.363 507 662.333 502.971 662.333 498 C 662.333 493.029 666.363 489 671.333 489 C 676.304 489 680.333 493.029 680.333 498 Z" paint-order="fill stroke markers" /><text font-family="geogebra-sans-serif, sans-serif" font-size="48px" font-style="normal" font-weight="normal" text-decoration="normal" dominant-baseline="alphabetic" fill="rgb(21, 101, 192)" fill-opacity="1" stroke="none" text-anchor="start" x="615" y="510">2</text><text font-family="geogebra-sans-serif, sans-serif" font-size="48px" font-style="normal" font-weight="normal" text-decoration="normal" dominant-baseline="alphabetic" fill="none" stroke="rgb(255, 255, 255)" stroke-linecap="round" stroke-linejoin="bevel" stroke-miterlimit="10" stroke-opacity="1" stroke-width="3" text-anchor="start" x="615" y="510">2</text><text font-family="geogebra-sans-serif, sans-serif" font-size="48px" font-style="normal" font-weight="normal" text-decoration="normal" dominant-baseline="alphabetic" fill="rgb(21, 101, 192)" fill-opacity="1" stroke="none" text-anchor="start" x="615" y="510">2</text><path fill="rgb(21, 101, 192)" fill-opacity="1" stroke="none" d="M 680.333 231.333 C 680.333 236.304 676.304 240.333 671.333 240.333 C 666.363 240.333 662.333 236.304 662.333 231.333 C 662.333 226.363 666.363 222.333 671.333 222.333 C 676.304 222.333 680.333 226.363 680.333 231.333 Z" paint-order="stroke fill markers" /><path fill="none" stroke="rgb(0, 0, 0)" stroke-linecap="round" stroke-linejoin="round" stroke-miterlimit="10" stroke-opacity="1" d="M 680.333 231.333 C 680.333 236.304 676.304 240.333 671.333 240.333 C 666.363 240.333 662.333 236.304 662.333 231.333 C 662.333 226.363 666.363 222.333 671.333 222.333 C 676.304 222.333 680.333 226.363 680.333 231.333 Z" paint-order="fill stroke markers" /><text font-family="geogebra-sans-serif, sans-serif" font-size="48px" font-style="normal" font-weight="normal" text-decoration="normal" dominant-baseline="alphabetic" fill="rgb(21, 101, 192)" fill-opacity="1" stroke="none" text-anchor="start" x="675" y="213">3</text><text font-family="geogebra-sans-serif, sans-serif" font-size="48px" font-style="normal" font-weight="normal" text-decoration="normal" dominant-baseline="alphabetic" fill="none" stroke="rgb(255, 255, 255)" stroke-linecap="round" stroke-linejoin="bevel" stroke-miterlimit="10" stroke-opacity="1" stroke-width="3" text-anchor="start" x="675" y="213">3</text><text font-family="geogebra-sans-serif, sans-serif" font-size="48px" font-style="normal" font-weight="normal" text-decoration="normal" dominant-baseline="alphabetic" fill="rgb(21, 101, 192)" fill-opacity="1" stroke="none" text-anchor="start" x="675" y="213">3</text><path fill="rgb(21, 101, 192)" fill-opacity="1" stroke="none" d="M 680.333 98 C 680.333 102.971 676.304 107 671.333 107 C 666.363 107 662.333 102.971 662.333 98 C 662.333 93.0294 666.363 89 671.333 89 C 676.304 89 680.333 93.0294 680.333 98 Z" paint-order="stroke fill markers" /><path fill="none" stroke="rgb(0, 0, 0)" stroke-linecap="round" stroke-linejoin="round" stroke-miterlimit="10" stroke-opacity="1" d="M 680.333 98 C 680.333 102.971 676.304 107 671.333 107 C 666.363 107 662.333 102.971 662.333 98 C 662.333 93.0294 666.363 89 671.333 89 C 676.304 89 680.333 93.0294 680.333 98 Z" paint-order="fill stroke markers" /><text font-family="geogebra-sans-serif, sans-serif" font-size="48px" font-style="normal" font-weight="normal" text-decoration="normal" dominant-baseline="alphabetic" fill="rgb(21, 101, 192)" fill-opacity="1" stroke="none" text-anchor="start" x="675" y="80">4</text><text font-family="geogebra-sans-serif, sans-serif" font-size="48px" font-style="normal" font-weight="normal" text-decoration="normal" dominant-baseline="alphabetic" fill="none" stroke="rgb(255, 255, 255)" stroke-linecap="round" stroke-linejoin="bevel" stroke-miterlimit="10" stroke-opacity="1" stroke-width="3" text-anchor="start" x="675" y="80">4</text><text font-family="geogebra-sans-serif, sans-serif" font-size="48px" font-style="normal" font-weight="normal" text-decoration="normal" dominant-baseline="alphabetic" fill="rgb(21, 101, 192)" fill-opacity="1" stroke="none" text-anchor="start" x="675" y="80">4</text><path fill="rgb(21, 101, 192)" fill-opacity="1" stroke="none" d="M 947 98 C 947 102.971 942.971 107 938 107 C 933.029 107 929 102.971 929 98 C 929 93.0294 933.029 89 938 89 C 942.971 89 947 93.0294 947 98 Z" paint-order="stroke fill markers" /><path fill="none" stroke="rgb(0, 0, 0)" stroke-linecap="round" stroke-linejoin="round" stroke-miterlimit="10" stroke-opacity="1" d="M 947 98 C 947 102.971 942.971 107 938 107 C 933.029 107 929 102.971 929 98 C 929 93.0294 933.029 89 938 89 C 942.971 89 947 93.0294 947 98 Z" paint-order="fill stroke markers" /><text font-family="geogebra-sans-serif, sans-serif" font-size="48px" font-style="normal" font-weight="normal" text-decoration="normal" dominant-baseline="alphabetic" fill="rgb(21, 101, 192)" fill-opacity="1" stroke="none" text-anchor="start" x="942" y="80">6</text><text font-family="geogebra-sans-serif, sans-serif" font-size="48px" font-style="normal" font-weight="normal" text-decoration="normal" dominant-baseline="alphabetic" fill="none" stroke="rgb(255, 255, 255)" stroke-linecap="round" stroke-linejoin="bevel" stroke-miterlimit="10" stroke-opacity="1" stroke-width="3" text-anchor="start" x="942" y="80">6</text><text font-family="geogebra-sans-serif, sans-serif" font-size="48px" font-style="normal" font-weight="normal" text-decoration="normal" dominant-baseline="alphabetic" fill="rgb(21, 101, 192)" fill-opacity="1" stroke="none" text-anchor="start" x="942" y="80">6</text><path fill="rgb(211, 47, 47)" fill-opacity="1" stroke="none" d="M 1080.33 231.333 C 1080.33 236.304 1076.3 240.333 1071.33 240.333 C 1066.36 240.333 1062.33 236.304 1062.33 231.333 C 1062.33 226.363 1066.36 222.333 1071.33 222.333 C 1076.3 222.333 1080.33 226.363 1080.33 231.333 Z" paint-order="stroke fill markers" /><path fill="none" stroke="rgb(0, 0, 0)" stroke-linecap="round" stroke-linejoin="round" stroke-miterlimit="10" stroke-opacity="1" d="M 1080.33 231.333 C 1080.33 236.304 1076.3 240.333 1071.33 240.333 C 1066.36 240.333 1062.33 236.304 1062.33 231.333 C 1062.33 226.363 1066.36 222.333 1071.33 222.333 C 1076.3 222.333 1080.33 226.363 1080.33 231.333 Z" paint-order="fill stroke markers" /><text font-family="geogebra-sans-serif, sans-serif" font-size="48px" font-style="normal" font-weight="normal" text-decoration="normal" dominant-baseline="alphabetic" fill="rgb(211, 47, 47)" fill-opacity="1" stroke="none" text-anchor="start" x="1075" y="213">7</text><text font-family="geogebra-sans-serif, sans-serif" font-size="48px" font-style="normal" font-weight="normal" text-decoration="normal" dominant-baseline="alphabetic" fill="none" stroke="rgb(255, 255, 255)" stroke-linecap="round" stroke-linejoin="bevel" stroke-miterlimit="10" stroke-opacity="1" stroke-width="3" text-anchor="start" x="1075" y="213">7</text><text font-family="geogebra-sans-serif, sans-serif" font-size="48px" font-style="normal" font-weight="normal" text-decoration="normal" dominant-baseline="alphabetic" fill="rgb(211, 47, 47)" fill-opacity="1" stroke="none" text-anchor="start" x="1075" y="213">7</text><path fill="rgb(21, 101, 192)" fill-opacity="1" stroke="none" d="M 1213.67 498 C 1213.67 502.971 1209.64 507 1204.67 507 C 1199.7 507 1195.67 502.971 1195.67 498 C 1195.67 493.029 1199.7 489 1204.67 489 C 1209.64 489 1213.67 493.029 1213.67 498 Z" paint-order="stroke fill markers" /><path fill="none" stroke="rgb(0, 0, 0)" stroke-linecap="round" stroke-linejoin="round" stroke-miterlimit="10" stroke-opacity="1" d="M 1213.67 498 C 1213.67 502.971 1209.64 507 1204.67 507 C 1199.7 507 1195.67 502.971 1195.67 498 C 1195.67 493.029 1199.7 489 1204.67 489 C 1209.64 489 1213.67 493.029 1213.67 498 Z" paint-order="fill stroke markers" /><text font-family="geogebra-sans-serif, sans-serif" font-size="48px" font-style="normal" font-weight="normal" text-decoration="normal" dominant-baseline="alphabetic" fill="rgb(21, 101, 192)" fill-opacity="1" stroke="none" text-anchor="start" x="1209" y="480">8</text><text font-family="geogebra-sans-serif, sans-serif" font-size="48px" font-style="normal" font-weight="normal" text-decoration="normal" dominant-baseline="alphabetic" fill="none" stroke="rgb(255, 255, 255)" stroke-linecap="round" stroke-linejoin="bevel" stroke-miterlimit="10" stroke-opacity="1" stroke-width="3" text-anchor="start" x="1209" y="480">8</text><text font-family="geogebra-sans-serif, sans-serif" font-size="48px" font-style="normal" font-weight="normal" text-decoration="normal" dominant-baseline="alphabetic" fill="rgb(21, 101, 192)" fill-opacity="1" stroke="none" text-anchor="start" x="1209" y="480">8</text><path fill="rgb(21, 101, 192)" fill-opacity="1" stroke="none" d="M 1213.67 98 C 1213.67 102.971 1209.64 107 1204.67 107 C 1199.7 107 1195.67 102.971 1195.67 98 C 1195.67 93.0294 1199.7 89 1204.67 89 C 1209.64 89 1213.67 93.0294 1213.67 98 Z" paint-order="stroke fill markers" /><path fill="none" stroke="rgb(0, 0, 0)" stroke-linecap="round" stroke-linejoin="round" stroke-miterlimit="10" stroke-opacity="1" d="M 1213.67 98 C 1213.67 102.971 1209.64 107 1204.67 107 C 1199.7 107 1195.67 102.971 1195.67 98 C 1195.67 93.0294 1199.7 89 1204.67 89 C 1209.64 89 1213.67 93.0294 1213.67 98 Z" paint-order="fill stroke markers" /><text font-family="geogebra-sans-serif, sans-serif" font-size="48px" font-style="normal" font-weight="normal" text-decoration="normal" dominant-baseline="alphabetic" fill="rgb(21, 101, 192)" fill-opacity="1" stroke="none" text-anchor="start" x="1209" y="80">10</text><text font-family="geogebra-sans-serif, sans-serif" font-size="48px" font-style="normal" font-weight="normal" text-decoration="normal" dominant-baseline="alphabetic" fill="none" stroke="rgb(255, 255, 255)" stroke-linecap="round" stroke-linejoin="bevel" stroke-miterlimit="10" stroke-opacity="1" stroke-width="3" text-anchor="start" x="1209" y="80">10</text><text font-family="geogebra-sans-serif, sans-serif" font-size="48px" font-style="normal" font-weight="normal" text-decoration="normal" dominant-baseline="alphabetic" fill="rgb(21, 101, 192)" fill-opacity="1" stroke="none" text-anchor="start" x="1209" y="80">10</text></g></g></svg>