<svg xmlns:xlink="http://www.w3.org/1999/xlink" width="1779" height="1127" xmlns="http://www.w3.org/2000/svg" version="1.1"><defs><clipPath id="UNLlygQlUyPx"><path fill="none" stroke="none" d="M 0 0 L 1779 0 L 1779 1127 L 0 1127 L 0 0 Z" /></clipPath></defs><g clip-path="url(&quot;#UNLlygQlUyPx&quot;)" transform="scale(1)"><g><rect fill="rgb(255, 255, 255)" fill-opacity="1" stroke="none" x="0" y="0" width="1779" height="1127" /><path fill="none" stroke="rgb(97, 97, 97)" stroke-dasharray="12,8" stroke-linejoin="round" stroke-miterlimit="10" stroke-opacity="0.8" stroke-width="4" d="M 886.742 46.9668 L 891.565 1094.28" paint-order="fill stroke markers" /><path fill="none" stroke="rgb(97, 97, 97)" stroke-linecap="round" stroke-linejoin="round" stroke-miterlimit="10" stroke-opacity="0.8" stroke-width="6.5" d="M 397.557 89.0839 L 713.919 733.452" paint-order="fill stroke markers" /><path fill="none" stroke="rgb(97, 97, 97)" stroke-linecap="round" stroke-linejoin="round" stroke-miterlimit="10" stroke-opacity="0.8" stroke-width="6.5" d="M 397.557 411.268 L 397.557 1055.64" paint-order="fill stroke markers" /><path fill="none" stroke="rgb(97, 97, 97)" stroke-dasharray="12,8" stroke-linejoin="round" stroke-miterlimit="10" stroke-opacity="0.8" stroke-width="4" d="M 328.259 55.4509 L 329.223 213.82" paint-order="fill stroke markers" /><path fill="none" stroke="rgb(97, 97, 97)" stroke-dasharray="12,8" stroke-linejoin="round" stroke-miterlimit="10" stroke-opacity="0.8" stroke-width="4" d="M 329.223 213.82 L 629.203 773.77" paint-order="fill stroke markers" /><path fill="none" stroke="rgb(97, 97, 97)" stroke-dasharray="12,8" stroke-linejoin="round" stroke-miterlimit="10" stroke-opacity="0.8" stroke-width="4" d="M 629.203 773.77 L 625.345 1086.74" paint-order="fill stroke markers" /><path fill="none" stroke="rgb(97, 97, 97)" stroke-linecap="round" stroke-linejoin="round" stroke-miterlimit="10" stroke-opacity="0.8" stroke-width="6.5" d="M 81.1944 733.452 L 397.557 411.268" paint-order="fill stroke markers" /><path fill="none" stroke="rgb(97, 97, 97)" stroke-linecap="round" stroke-linejoin="round" stroke-miterlimit="10" stroke-opacity="0.8" stroke-width="6.5" d="M 81.1944 733.452 L 397.557 1055.64" paint-order="fill stroke markers" /><path fill="none" stroke="rgb(97, 97, 97)" stroke-linecap="round" stroke-linejoin="round" stroke-miterlimit="10" stroke-opacity="0.8" stroke-width="6.5" d="M 1030.28 89.0839 L 1346.64 411.268" paint-order="fill stroke markers" /><path fill="none" stroke="rgb(97, 97, 97)" stroke-linecap="round" stroke-linejoin="round" stroke-miterlimit="10" stroke-opacity="0.8" stroke-width="6.5" d="M 1030.28 89.0839 L 1663.01 1055.64" paint-order="fill stroke markers" /><path fill="none" stroke="rgb(97, 97, 97)" stroke-linecap="round" stroke-linejoin="round" stroke-miterlimit="10" stroke-opacity="0.8" stroke-width="6.5" d="M 1346.64 411.268 L 1663.01 1055.64" paint-order="fill stroke markers" /><path fill="none" stroke="rgb(97, 97, 97)" stroke-linecap="round" stroke-linejoin="round" stroke-miterlimit="10" stroke-opacity="0.8" stroke-width="6.5" d="M 1663.01 89.0839 L 1663.01 733.452" paint-order="fill stroke markers" /><path fill="none" stroke="rgb(97, 97, 97)" stroke-dasharray="12,8" stroke-linejoin="round" stroke-miterlimit="10" stroke-opacity="0.8" stroke-width="4" d="M 1393.31 249.37 L 1728.65 969.452" paint-order="fill stroke markers" /><path fill="none" stroke="rgb(97, 97, 97)" stroke-dasharray="12,8" stroke-linejoin="round" stroke-miterlimit="10" stroke-opacity="0.8" stroke-width="4" d="M 1393.31 249.37 L 1393.31 31.8962" paint-order="fill stroke markers" /><path fill="rgb(21, 101, 192)" fill-opacity="1" stroke="none" d="M 90.1944 733.452 C 90.1944 738.423 86.1649 742.452 81.1944 742.452 C 76.2238 742.452 72.1944 738.423 72.1944 733.452 C 72.1944 728.482 76.2238 724.452 81.1944 724.452 C 86.1649 724.452 90.1944 728.482 90.1944 733.452 Z" paint-order="stroke fill markers" /><path fill="none" stroke="rgb(0, 0, 0)" stroke-linecap="round" stroke-linejoin="round" stroke-miterlimit="10" stroke-opacity="1" d="M 90.1944 733.452 C 90.1944 738.423 86.1649 742.452 81.1944 742.452 C 76.2238 742.452 72.1944 738.423 72.1944 733.452 C 72.1944 728.482 76.2238 724.452 81.1944 724.452 C 86.1649 724.452 90.1944 728.482 90.1944 733.452 Z" paint-order="fill stroke markers" /><text font-family="geogebra-sans-serif, sans-serif" font-size="48px" font-style="normal" font-weight="normal" text-decoration="normal" dominant-baseline="alphabetic" fill="rgb(21, 101, 192)" fill-opacity="1" stroke="none" text-anchor="start" x="85" y="715">1</text><text font-family="geogebra-sans-serif, sans-serif" font-size="48px" font-style="normal" font-weight="normal" text-decoration="normal" dominant-baseline="alphabetic" fill="none" stroke="rgb(255, 255, 255)" stroke-linecap="round" stroke-linejoin="bevel" stroke-miterlimit="10" stroke-opacity="1" stroke-width="3" text-anchor="start" x="85" y="715">1</text><text font-family="geogebra-sans-serif, sans-serif" font-size="48px" font-style="normal" font-weight="normal" text-decoration="normal" dominant-baseline="alphabetic" fill="rgb(21, 101, 192)" fill-opacity="1" stroke="none" text-anchor="start" x="85" y="715">1</text><path fill="rgb(21, 101, 192)" fill-opacity="1" stroke="none" d="M 722.919 733.452 C 722.919 738.423 718.89 742.452 713.919 742.452 C 708.948 742.452 704.919 738.423 704.919 733.452 C 704.919 728.482 708.948 724.452 713.919 724.452 C 718.89 724.452 722.919 728.482 722.919 733.452 Z" paint-order="stroke fill markers" /><path fill="none" stroke="rgb(0, 0, 0)" stroke-linecap="round" stroke-linejoin="round" stroke-miterlimit="10" stroke-opacity="1" d="M 722.919 733.452 C 722.919 738.423 718.89 742.452 713.919 742.452 C 708.948 742.452 704.919 738.423 704.919 733.452 C 704.919 728.482 708.948 724.452 713.919 724.452 C 718.89 724.452 722.919 728.482 722.919 733.452 Z" paint-order="fill stroke markers" /><text font-family="geogebra-sans-serif, sans-serif" font-size="48px" font-style="normal" font-weight="normal" text-decoration="normal" dominant-baseline="alphabetic" fill="rgb(21, 101, 192)" fill-opacity="1" stroke="none" text-anchor="start" x="718" y="715">5</text><text font-family="geogebra-sans-serif, sans-serif" font-size="48px" font-style="normal" font-weight="normal" text-decoration="normal" dominant-baseline="alphabetic" fill="none" stroke="rgb(255, 255, 255)" stroke-linecap="round" stroke-linejoin="bevel" stroke-miterlimit="10" stroke-opacity="1" stroke-width="3" text-anchor="start" x="718" y="715">5</text><text font-family="geogebra-sans-serif, sans-serif" font-size="48px" font-style="normal" font-weight="normal" text-decoration="normal" dominant-baseline="alphabetic" fill="rgb(21, 101, 192)" fill-opacity="1" stroke="none" text-anchor="start" x="718" y="715">5</text><path fill="rgb(21, 101, 192)" fill-opacity="1" stroke="none" d="M 1672.01 733.452 C 1672.01 738.423 1667.98 742.452 1663.01 742.452 C 1658.04 742.452 1654.01 738.423 1654.01 733.452 C 1654.01 728.482 1658.04 724.452 1663.01 724.452 C 1667.98 724.452 1672.01 728.482 1672.01 733.452 Z" paint-order="stroke fill markers" /><path fill="none" stroke="rgb(0, 0, 0)" stroke-linecap="round" stroke-linejoin="round" stroke-miterlimit="10" stroke-opacity="1" d="M 1672.01 733.452 C 1672.01 738.423 1667.98 742.452 1663.01 742.452 C 1658.04 742.452 1654.01 738.423 1654.01 733.452 C 1654.01 728.482 1658.04 724.452 1663.01 724.452 C 1667.98 724.452 1672.01 728.482 1672.01 733.452 Z" paint-order="fill stroke markers" /><text font-family="geogebra-sans-serif, sans-serif" font-size="48px" font-style="normal" font-weight="normal" text-decoration="normal" dominant-baseline="alphabetic" fill="rgb(21, 101, 192)" fill-opacity="1" stroke="none" text-anchor="start" x="1667" y="715">9</text><text font-family="geogebra-sans-serif, sans-serif" font-size="48px" font-style="normal" font-weight="normal" text-decoration="normal" dominant-baseline="alphabetic" fill="none" stroke="rgb(255, 255, 255)" stroke-linecap="round" stroke-linejoin="bevel" stroke-miterlimit="10" stroke-opacity="1" stroke-width="3" text-anchor="start" x="1667" y="715">9</text><text font-family="geogebra-sans-serif, sans-serif" font-size="48px" font-style="normal" font-weight="normal" text-decoration="normal" dominant-baseline="alphabetic" fill="rgb(21, 101, 192)" fill-opacity="1" stroke="none" text-anchor="start" x="1667" y="715">9</text><path fill="rgb(21, 101, 192)" fill-opacity="1" stroke="none" d="M 406.557 1055.64 C 406.557 1060.61 402.527 1064.64 397.557 1064.64 C 392.586 1064.64 388.557 1060.61 388.557 1055.64 C 388.557 1050.67 392.586 1046.64 397.557 1046.64 C 402.527 1046.64 406.557 1050.67 406.557 1055.64 Z" paint-order="stroke fill markers" /><path fill="none" stroke="rgb(0, 0, 0)" stroke-linecap="round" stroke-linejoin="round" stroke-miterlimit="10" stroke-opacity="1" d="M 406.557 1055.64 C 406.557 1060.61 402.527 1064.64 397.557 1064.64 C 392.586 1064.64 388.557 1060.61 388.557 1055.64 C 388.557 1050.67 392.586 1046.64 397.557 1046.64 C 402.527 1046.64 406.557 1050.67 406.557 1055.64 Z" paint-order="fill stroke markers" /><text font-family="geogebra-sans-serif, sans-serif" font-size="48px" font-style="normal" font-weight="normal" text-decoration="normal" dominant-baseline="alphabetic" fill="rgb(21, 101, 192)" fill-opacity="1" stroke="none" text-anchor="start" x="402" y="1038">2</text><text font-family="geogebra-sans-serif, sans-serif" font-size="48px" font-style="normal" font-weight="normal" text-decoration="normal" dominant-baseline="alphabetic" fill="none" stroke="rgb(255, 255, 255)" stroke-linecap="round" stroke-linejoin="bevel" stroke-miterlimit="10" stroke-opacity="1" stroke-width="3" text-anchor="start" x="402" y="1038">2</text><text font-family="geogebra-sans-serif, sans-serif" font-size="48px" font-style="normal" font-weight="normal" text-decoration="normal" dominant-baseline="alphabetic" fill="rgb(21, 101, 192)" fill-opacity="1" stroke="none" text-anchor="start" x="402" y="1038">2</text><path fill="rgb(21, 101, 192)" fill-opacity="1" stroke="none" d="M 406.557 411.268 C 406.557 416.239 402.527 420.268 397.557 420.268 C 392.586 420.268 388.557 416.239 388.557 411.268 C 388.557 406.297 392.586 402.268 397.557 402.268 C 402.527 402.268 406.557 406.297 406.557 411.268 Z" paint-order="stroke fill markers" /><path fill="none" stroke="rgb(0, 0, 0)" stroke-linecap="round" stroke-linejoin="round" stroke-miterlimit="10" stroke-opacity="1" d="M 406.557 411.268 C 406.557 416.239 402.527 420.268 397.557 420.268 C 392.586 420.268 388.557 416.239 388.557 411.268 C 388.557 406.297 392.586 402.268 397.557 402.268 C 402.527 402.268 406.557 406.297 406.557 411.268 Z" paint-order="fill stroke markers" /><text font-family="geogebra-sans-serif, sans-serif" font-size="48px" font-style="normal" font-weight="normal" text-decoration="normal" dominant-baseline="alphabetic" fill="rgb(21, 101, 192)" fill-opacity="1" stroke="none" text-anchor="start" x="402" y="393">3</text><text font-family="geogebra-sans-serif, sans-serif" font-size="48px" font-style="normal" font-weight="normal" text-decoration="normal" dominant-baseline="alphabetic" fill="none" stroke="rgb(255, 255, 255)" stroke-linecap="round" stroke-linejoin="bevel" stroke-miterlimit="10" stroke-opacity="1" stroke-width="3" text-anchor="start" x="402" y="393">3</text><text font-family="geogebra-sans-serif, sans-serif" font-size="48px" font-style="normal" font-weight="normal" text-decoration="normal" dominant-baseline="alphabetic" fill="rgb(21, 101, 192)" fill-opacity="1" stroke="none" text-anchor="start" x="402" y="393">3</text><path fill="rgb(21, 101, 192)" fill-opacity="1" stroke="none" d="M 406.557 89.0839 C 406.557 94.0545 402.527 98.0839 397.557 98.0839 C 392.586 98.0839 388.557 94.0545 388.557 89.0839 C 388.557 84.1133 392.586 80.0839 397.557 80.0839 C 402.527 80.0839 406.557 84.1133 406.557 89.0839 Z" paint-order="stroke fill markers" /><path fill="none" stroke="rgb(0, 0, 0)" stroke-linecap="round" stroke-linejoin="round" stroke-miterlimit="10" stroke-opacity="1" d="M 406.557 89.0839 C 406.557 94.0545 402.527 98.0839 397.557 98.0839 C 392.586 98.0839 388.557 94.0545 388.557 89.0839 C 388.557 84.1133 392.586 80.0839 397.557 80.0839 C 402.527 80.0839 406.557 84.1133 406.557 89.0839 Z" paint-order="fill stroke markers" /><text font-family="geogebra-sans-serif, sans-serif" font-size="48px" font-style="normal" font-weight="normal" text-decoration="normal" dominant-baseline="alphabetic" fill="rgb(21, 101, 192)" fill-opacity="1" stroke="none" text-anchor="start" x="402" y="71">4</text><text font-family="geogebra-sans-serif, sans-serif" font-size="48px" font-style="normal" font-weight="normal" text-decoration="normal" dominant-baseline="alphabetic" fill="none" stroke="rgb(255, 255, 255)" stroke-linecap="round" stroke-linejoin="bevel" stroke-miterlimit="10" stroke-opacity="1" stroke-width="3" text-anchor="start" x="402" y="71">4</text><text font-family="geogebra-sans-serif, sans-serif" font-size="48px" font-style="normal" font-weight="normal" text-decoration="normal" dominant-baseline="alphabetic" fill="rgb(21, 101, 192)" fill-opacity="1" stroke="none" text-anchor="start" x="402" y="71">4</text><path fill="rgb(21, 101, 192)" fill-opacity="1" stroke="none" d="M 1039.28 89.0839 C 1039.28 94.0545 1035.25 98.0839 1030.28 98.0839 C 1025.31 98.0839 1021.28 94.0545 1021.28 89.0839 C 1021.28 84.1133 1025.31 80.0839 1030.28 80.0839 C 1035.25 80.0839 1039.28 84.1133 1039.28 89.0839 Z" paint-order="stroke fill markers" /><path fill="none" stroke="rgb(0, 0, 0)" stroke-linecap="round" stroke-linejoin="round" stroke-miterlimit="10" stroke-opacity="1" d="M 1039.28 89.0839 C 1039.28 94.0545 1035.25 98.0839 1030.28 98.0839 C 1025.31 98.0839 1021.28 94.0545 1021.28 89.0839 C 1021.28 84.1133 1025.31 80.0839 1030.28 80.0839 C 1035.25 80.0839 1039.28 84.1133 1039.28 89.0839 Z" paint-order="fill stroke markers" /><text font-family="geogebra-sans-serif, sans-serif" font-size="48px" font-style="normal" font-weight="normal" text-decoration="normal" dominant-baseline="alphabetic" fill="rgb(21, 101, 192)" fill-opacity="1" stroke="none" text-anchor="start" x="1034" y="71">6</text><text font-family="geogebra-sans-serif, sans-serif" font-size="48px" font-style="normal" font-weight="normal" text-decoration="normal" dominant-baseline="alphabetic" fill="none" stroke="rgb(255, 255, 255)" stroke-linecap="round" stroke-linejoin="bevel" stroke-miterlimit="10" stroke-opacity="1" stroke-width="3" text-anchor="start" x="1034" y="71">6</text><text font-family="geogebra-sans-serif, sans-serif" font-size="48px" font-style="normal" font-weight="normal" text-decoration="normal" dominant-baseline="alphabetic" fill="rgb(21, 101, 192)" fill-opacity="1" stroke="none" text-anchor="start" x="1034" y="71">6</text><path fill="rgb(21, 101, 192)" fill-opacity="1" stroke="none" d="M 1355.64 411.268 C 1355.64 416.239 1351.61 420.268 1346.64 420.268 C 1341.67 420.268 1337.64 416.239 1337.64 411.268 C 1337.64 406.297 1341.67 402.268 1346.64 402.268 C 1351.61 402.268 1355.64 406.297 1355.64 411.268 Z" paint-order="stroke fill markers" /><path fill="none" stroke="rgb(0, 0, 0)" stroke-linecap="round" stroke-linejoin="round" stroke-miterlimit="10" stroke-opacity="1" d="M 1355.64 411.268 C 1355.64 416.239 1351.61 420.268 1346.64 420.268 C 1341.67 420.268 1337.64 416.239 1337.64 411.268 C 1337.64 406.297 1341.67 402.268 1346.64 402.268 C 1351.61 402.268 1355.64 406.297 1355.64 411.268 Z" paint-order="fill stroke markers" /><text font-family="geogebra-sans-serif, sans-serif" font-size="48px" font-style="normal" font-weight="normal" text-decoration="normal" dominant-baseline="alphabetic" fill="rgb(21, 101, 192)" fill-opacity="1" stroke="none" text-anchor="start" x="1351" y="393">7</text><text font-family="geogebra-sans-serif, sans-serif" font-size="48px" font-style="normal" font-weight="normal" text-decoration="normal" dominant-baseline="alphabetic" fill="none" stroke="rgb(255, 255, 255)" stroke-linecap="round" stroke-linejoin="bevel" stroke-miterlimit="10" stroke-opacity="1" stroke-width="3" text-anchor="start" x="1351" y="393">7</text><text font-family="geogebra-sans-serif, sans-serif" font-size="48px" font-style="normal" font-weight="normal" text-decoration="normal" dominant-baseline="alphabetic" fill="rgb(21, 101, 192)" fill-opacity="1" stroke="none" text-anchor="start" x="1351" y="393">7</text><path fill="rgb(21, 101, 192)" fill-opacity="1" stroke="none" d="M 1672.01 1055.64 C 1672.01 1060.61 1667.98 1064.64 1663.01 1064.64 C 1658.04 1064.64 1654.01 1060.61 1654.01 1055.64 C 1654.01 1050.67 1658.04 1046.64 1663.01 1046.64 C 1667.98 1046.64 1672.01 1050.67 1672.01 1055.64 Z" paint-order="stroke fill markers" /><path fill="none" stroke="rgb(0, 0, 0)" stroke-linecap="round" stroke-linejoin="round" stroke-miterlimit="10" stroke-opacity="1" d="M 1672.01 1055.64 C 1672.01 1060.61 1667.98 1064.64 1663.01 1064.64 C 1658.04 1064.64 1654.01 1060.61 1654.01 1055.64 C 1654.01 1050.67 1658.04 1046.64 1663.01 1046.64 C 1667.98 1046.64 1672.01 1050.67 1672.01 1055.64 Z" paint-order="fill stroke markers" /><text font-family="geogebra-sans-serif, sans-serif" font-size="48px" font-style="normal" font-weight="normal" text-decoration="normal" dominant-baseline="alphabetic" fill="rgb(21, 101, 192)" fill-opacity="1" stroke="none" text-anchor="start" x="1667" y="1038">8</text><text font-family="geogebra-sans-serif, sans-serif" font-size="48px" font-style="normal" font-weight="normal" text-decoration="normal" dominant-baseline="alphabetic" fill="none" stroke="rgb(255, 255, 255)" stroke-linecap="round" stroke-linejoin="bevel" stroke-miterlimit="10" stroke-opacity="1" stroke-width="3" text-anchor="start" x="1667" y="1038">8</text><text font-family="geogebra-sans-serif, sans-serif" font-size="48px" font-style="normal" font-weight="normal" text-decoration="normal" dominant-baseline="alphabetic" fill="rgb(21, 101, 192)" fill-opacity="1" stroke="none" text-anchor="start" x="1667" y="1038">8</text><path fill="rgb(21, 101, 192)" fill-opacity="1" stroke="none" d="M 1672.01 89.0839 C 1672.01 94.0545 1667.98 98.0839 1663.01 98.0839 C 1658.04 98.0839 1654.01 94.0545 1654.01 89.0839 C 1654.01 84.1133 1658.04 80.0839 1663.01 80.0839 C 1667.98 80.0839 1672.01 84.1133 1672.01 89.0839 Z" paint-order="stroke fill markers" /><path fill="none" stroke="rgb(0, 0, 0)" stroke-linecap="round" stroke-linejoin="round" stroke-miterlimit="10" stroke-opacity="1" d="M 1672.01 89.0839 C 1672.01 94.0545 1667.98 98.0839 1663.01 98.0839 C 1658.04 98.0839 1654.01 94.0545 1654.01 89.0839 C 1654.01 84.1133 1658.04 80.0839 1663.01 80.0839 C 1667.98 80.0839 1672.01 84.1133 1672.01 89.0839 Z" paint-order="fill stroke markers" /><text font-family="geogebra-sans-serif, sans-serif" font-size="48px" font-style="normal" font-weight="normal" text-decoration="normal" dominant-baseline="alphabetic" fill="rgb(21, 101, 192)" fill-opacity="1" stroke="none" text-anchor="start" x="1667" y="71">10</text><text font-family="geogebra-sans-serif, sans-serif" font-size="48px" font-style="normal" font-weight="normal" text-decoration="normal" dominant-baseline="alphabetic" fill="none" stroke="rgb(255, 255, 255)" stroke-linecap="round" stroke-linejoin="bevel" stroke-miterlimit="10" stroke-opacity="1" stroke-width="3" text-anchor="start" x="1667" y="71">10</text><text font-family="geogebra-sans-serif, sans-serif" font-size="48px" font-style="normal" font-weight="normal" text-decoration="normal" dominant-baseline="alphabetic" fill="rgb(21, 101, 192)" fill-opacity="1" stroke="none" text-anchor="start" x="1667" y="71">10</text></g></g></svg>