<svg xmlns:xlink="http://www.w3.org/1999/xlink" width="1779" height="1127" xmlns="http://www.w3.org/2000/svg" version="1.1"><defs><clipPath id="HyiTTTpyJVzg"><path fill="none" stroke="none" d="M 0 0 L 1779 0 L 1779 1127 L 0 1127 L 0 0 Z" /></clipPath></defs><g clip-path="url(&quot;#HyiTTTpyJVzg&quot;)" transform="scale(1)"><g><rect fill="rgb(255, 255, 255)" fill-opacity="1" stroke="none" x="0" y="0" width="1779" height="1127" /><path fill="none" stroke="rgb(46, 125, 50)" stroke-linecap="round" stroke-linejoin="round" stroke-miterlimit="10" stroke-opacity="0.8" stroke-width="4" d="M 1171.45 709.111 C 1171.45 866.947 1043.5 994.898 885.667 994.898 C 727.831 994.898 599.879 866.947 599.879 709.111 C 599.879 551.275 727.831 423.324 885.667 423.324 C 1043.5 423.324 1171.45 551.275 1171.45 709.111 Z" paint-order="fill stroke markers" /><path fill="none" stroke="rgb(101, 87, 210)" stroke-linecap="round" stroke-linejoin="round" stroke-miterlimit="10" stroke-opacity="0.8" stroke-width="4" d="M 1187.63 464.667 C 1187.63 631.435 1052.44 766.628 885.667 766.628 C 718.898 766.628 583.706 631.435 583.706 464.667 C 583.706 297.898 718.898 162.705 885.667 162.705 C 1052.44 162.705 1187.63 297.898 1187.63 464.667 Z" paint-order="fill stroke markers" /><path fill="rgb(0, 0, 0)" fill-opacity="0.0980392" stroke="none" d="M 649 606.333 C 649 597.764 645.336 589.604 638.931 583.911 L 619 606.333 Z" paint-order="stroke fill markers" /><path fill="none" stroke="rgb(0, 0, 0)" stroke-linecap="round" stroke-linejoin="round" stroke-miterlimit="10" stroke-opacity="0.6" stroke-width="2" d="M 649 606.333 C 649 597.764 645.336 589.604 638.931 583.911 L 619 606.333 Z" paint-order="fill stroke markers" /><text font-family="geogebra-sans-serif, sans-serif" font-size="48px" font-style="normal" font-weight="normal" text-decoration="normal" dominant-baseline="alphabetic" fill="rgb(0, 0, 0)" fill-opacity="1" stroke="none" text-anchor="start" x="660" y="595">&lt; 180 °</text><text font-family="geogebra-sans-serif, sans-serif" font-size="48px" font-style="normal" font-weight="normal" text-decoration="normal" dominant-baseline="alphabetic" fill="none" stroke="rgb(255, 255, 255)" stroke-linecap="round" stroke-linejoin="bevel" stroke-miterlimit="10" stroke-opacity="1" stroke-width="3" text-anchor="start" x="660" y="595">&lt; 180 °</text><text font-family="geogebra-sans-serif, sans-serif" font-size="48px" font-style="normal" font-weight="normal" text-decoration="normal" dominant-baseline="alphabetic" fill="rgb(0, 0, 0)" fill-opacity="1" stroke="none" text-anchor="start" x="660" y="595">&lt; 180 °</text><path fill="none" stroke="rgb(97, 97, 97)" stroke-linecap="round" stroke-linejoin="round" stroke-miterlimit="10" stroke-opacity="0.8" stroke-width="6.5" d="M 619 189.667 L 752.333 456.333" paint-order="fill stroke markers" /><path fill="none" stroke="rgb(97, 97, 97)" stroke-linecap="round" stroke-linejoin="round" stroke-miterlimit="10" stroke-opacity="0.8" stroke-width="6.5" d="M 619 323 L 619 606.333" paint-order="fill stroke markers" /><path fill="none" stroke="rgb(97, 97, 97)" stroke-linecap="round" stroke-linejoin="round" stroke-miterlimit="10" stroke-opacity="0.8" stroke-width="6.5" d="M 485.667 456.333 L 619 323" paint-order="fill stroke markers" /><path fill="none" stroke="rgb(97, 97, 97)" stroke-linecap="round" stroke-linejoin="round" stroke-miterlimit="10" stroke-opacity="0.8" stroke-width="6.5" d="M 485.667 456.333 L 619 606.333" paint-order="fill stroke markers" /><path fill="none" stroke="rgb(97, 97, 97)" stroke-linecap="round" stroke-linejoin="round" stroke-miterlimit="10" stroke-opacity="0.8" stroke-width="6.5" d="M 485.667 456.333 L 619 189.667" paint-order="fill stroke markers" /><path fill="none" stroke="rgb(97, 97, 97)" stroke-linecap="round" stroke-linejoin="round" stroke-miterlimit="10" stroke-opacity="0.8" stroke-width="6.5" d="M 619 323 L 619 189.667" paint-order="fill stroke markers" /><path fill="none" stroke="rgb(97, 97, 97)" stroke-linecap="round" stroke-linejoin="round" stroke-miterlimit="10" stroke-opacity="0.8" stroke-width="6.5" d="M 619 606.333 L 752.333 456.333" paint-order="fill stroke markers" /><path fill="none" stroke="rgb(97, 97, 97)" stroke-linecap="round" stroke-linejoin="round" stroke-miterlimit="10" stroke-opacity="0.8" stroke-width="6.5" d="M 619 323 L 752.333 456.333" paint-order="fill stroke markers" /><path fill="none" stroke="rgb(21, 101, 192)" stroke-linecap="round" stroke-linejoin="round" stroke-miterlimit="10" stroke-opacity="0.8" stroke-width="6.5" d="M 619 606.333 L 1152.33 606.333" paint-order="fill stroke markers" /><text font-family="geogebra-sans-serif, sans-serif" font-size="48px" font-style="normal" font-weight="normal" text-decoration="normal" dominant-baseline="alphabetic" fill="rgb(21, 101, 192)" fill-opacity="1" stroke="none" text-anchor="start" x="815" y="583">Base LR-edge</text><text font-family="geogebra-sans-serif, sans-serif" font-size="48px" font-style="normal" font-weight="normal" text-decoration="normal" dominant-baseline="alphabetic" fill="none" stroke="rgb(255, 255, 255)" stroke-linecap="round" stroke-linejoin="bevel" stroke-miterlimit="10" stroke-opacity="1" stroke-width="3" text-anchor="start" x="815" y="583">Base LR-edge</text><text font-family="geogebra-sans-serif, sans-serif" font-size="48px" font-style="normal" font-weight="normal" text-decoration="normal" dominant-baseline="alphabetic" fill="rgb(21, 101, 192)" fill-opacity="1" stroke="none" text-anchor="start" x="815" y="583">Base LR-edge</text><path fill="none" stroke="rgb(219, 97, 20)" stroke-linecap="round" stroke-linejoin="round" stroke-miterlimit="10" stroke-opacity="0.8" stroke-width="6.5" d="M 860 264 L 771.383 422.303" paint-order="fill stroke markers" /><path fill="rgb(219, 97, 20)" fill-opacity="0.8" fill-rule="evenodd" stroke="none" d="M 752.333 456.333 L 762.876 417.54 L 779.891 427.065 Z" paint-order="stroke fill markers" /><path fill="none" stroke="rgb(219, 97, 20)" stroke-linecap="round" stroke-linejoin="round" stroke-miterlimit="10" stroke-opacity="0.8" stroke-width="6.5" d="M 860 264 L 656.881 313.726" paint-order="fill stroke markers" /><path fill="rgb(219, 97, 20)" fill-opacity="0.8" fill-rule="evenodd" stroke="none" d="M 619 323 L 654.563 304.256 L 659.2 323.196 Z" paint-order="stroke fill markers" /><path fill="none" stroke="rgb(219, 97, 20)" stroke-linecap="round" stroke-linejoin="round" stroke-miterlimit="10" stroke-opacity="0.8" stroke-width="6.5" d="M 860 264 L 656.268 201.161" paint-order="fill stroke markers" /><path fill="rgb(219, 97, 20)" fill-opacity="0.8" fill-rule="evenodd" stroke="none" d="M 619 189.667 L 659.141 191.844 L 653.394 210.478 Z" paint-order="stroke fill markers" /><path fill="rgb(21, 101, 192)" fill-opacity="1" stroke="none" d="M 494.667 456.333 C 494.667 461.304 490.637 465.333 485.667 465.333 C 480.696 465.333 476.667 461.304 476.667 456.333 C 476.667 451.363 480.696 447.333 485.667 447.333 C 490.637 447.333 494.667 451.363 494.667 456.333 Z" paint-order="stroke fill markers" /><path fill="none" stroke="rgb(0, 0, 0)" stroke-linecap="round" stroke-linejoin="round" stroke-miterlimit="10" stroke-opacity="1" d="M 494.667 456.333 C 494.667 461.304 490.637 465.333 485.667 465.333 C 480.696 465.333 476.667 461.304 476.667 456.333 C 476.667 451.363 480.696 447.333 485.667 447.333 C 490.637 447.333 494.667 451.363 494.667 456.333 Z" paint-order="fill stroke markers" /><text font-family="geogebra-sans-serif, sans-serif" font-size="48px" font-style="normal" font-weight="normal" text-decoration="normal" dominant-baseline="alphabetic" fill="rgb(21, 101, 192)" fill-opacity="1" stroke="none" text-anchor="start" x="465" y="437">1</text><text font-family="geogebra-sans-serif, sans-serif" font-size="48px" font-style="normal" font-weight="normal" text-decoration="normal" dominant-baseline="alphabetic" fill="none" stroke="rgb(255, 255, 255)" stroke-linecap="round" stroke-linejoin="bevel" stroke-miterlimit="10" stroke-opacity="1" stroke-width="3" text-anchor="start" x="465" y="437">1</text><text font-family="geogebra-sans-serif, sans-serif" font-size="48px" font-style="normal" font-weight="normal" text-decoration="normal" dominant-baseline="alphabetic" fill="rgb(21, 101, 192)" fill-opacity="1" stroke="none" text-anchor="start" x="465" y="437">1</text><path fill="rgb(21, 101, 192)" fill-opacity="1" stroke="none" d="M 761.333 456.333 C 761.333 461.304 757.304 465.333 752.333 465.333 C 747.363 465.333 743.333 461.304 743.333 456.333 C 743.333 451.363 747.363 447.333 752.333 447.333 C 757.304 447.333 761.333 451.363 761.333 456.333 Z" paint-order="stroke fill markers" /><path fill="none" stroke="rgb(0, 0, 0)" stroke-linecap="round" stroke-linejoin="round" stroke-miterlimit="10" stroke-opacity="1" d="M 761.333 456.333 C 761.333 461.304 757.304 465.333 752.333 465.333 C 747.363 465.333 743.333 461.304 743.333 456.333 C 743.333 451.363 747.363 447.333 752.333 447.333 C 757.304 447.333 761.333 451.363 761.333 456.333 Z" paint-order="fill stroke markers" /><text font-family="geogebra-sans-serif, sans-serif" font-size="48px" font-style="normal" font-weight="normal" text-decoration="normal" dominant-baseline="alphabetic" fill="rgb(21, 101, 192)" fill-opacity="1" stroke="none" text-anchor="start" x="770" y="486">5</text><text font-family="geogebra-sans-serif, sans-serif" font-size="48px" font-style="normal" font-weight="normal" text-decoration="normal" dominant-baseline="alphabetic" fill="none" stroke="rgb(255, 255, 255)" stroke-linecap="round" stroke-linejoin="bevel" stroke-miterlimit="10" stroke-opacity="1" stroke-width="3" text-anchor="start" x="770" y="486">5</text><text font-family="geogebra-sans-serif, sans-serif" font-size="48px" font-style="normal" font-weight="normal" text-decoration="normal" dominant-baseline="alphabetic" fill="rgb(21, 101, 192)" fill-opacity="1" stroke="none" text-anchor="start" x="770" y="486">5</text><path fill="rgb(21, 101, 192)" fill-opacity="1" stroke="none" d="M 628 606.333 C 628 611.304 623.971 615.333 619 615.333 C 614.029 615.333 610 611.304 610 606.333 C 610 601.363 614.029 597.333 619 597.333 C 623.971 597.333 628 601.363 628 606.333 Z" paint-order="stroke fill markers" /><path fill="none" stroke="rgb(0, 0, 0)" stroke-linecap="round" stroke-linejoin="round" stroke-miterlimit="10" stroke-opacity="1" d="M 628 606.333 C 628 611.304 623.971 615.333 619 615.333 C 614.029 615.333 610 611.304 610 606.333 C 610 601.363 614.029 597.333 619 597.333 C 623.971 597.333 628 601.363 628 606.333 Z" paint-order="fill stroke markers" /><text font-family="geogebra-sans-serif, sans-serif" font-size="48px" font-style="normal" font-weight="normal" text-decoration="normal" dominant-baseline="alphabetic" fill="rgb(21, 101, 192)" fill-opacity="1" stroke="none" text-anchor="start" x="553" y="625">2</text><text font-family="geogebra-sans-serif, sans-serif" font-size="48px" font-style="normal" font-weight="normal" text-decoration="normal" dominant-baseline="alphabetic" fill="none" stroke="rgb(255, 255, 255)" stroke-linecap="round" stroke-linejoin="bevel" stroke-miterlimit="10" stroke-opacity="1" stroke-width="3" text-anchor="start" x="553" y="625">2</text><text font-family="geogebra-sans-serif, sans-serif" font-size="48px" font-style="normal" font-weight="normal" text-decoration="normal" dominant-baseline="alphabetic" fill="rgb(21, 101, 192)" fill-opacity="1" stroke="none" text-anchor="start" x="553" y="625">2</text><path fill="rgb(21, 101, 192)" fill-opacity="1" stroke="none" d="M 628 323 C 628 327.971 623.971 332 619 332 C 614.029 332 610 327.971 610 323 C 610 318.029 614.029 314 619 314 C 623.971 314 628 318.029 628 323 Z" paint-order="stroke fill markers" /><path fill="none" stroke="rgb(0, 0, 0)" stroke-linecap="round" stroke-linejoin="round" stroke-miterlimit="10" stroke-opacity="1" d="M 628 323 C 628 327.971 623.971 332 619 332 C 614.029 332 610 327.971 610 323 C 610 318.029 614.029 314 619 314 C 623.971 314 628 318.029 628 323 Z" paint-order="fill stroke markers" /><text font-family="geogebra-sans-serif, sans-serif" font-size="48px" font-style="normal" font-weight="normal" text-decoration="normal" dominant-baseline="alphabetic" fill="rgb(21, 101, 192)" fill-opacity="1" stroke="none" text-anchor="start" x="635" y="321">3</text><text font-family="geogebra-sans-serif, sans-serif" font-size="48px" font-style="normal" font-weight="normal" text-decoration="normal" dominant-baseline="alphabetic" fill="none" stroke="rgb(255, 255, 255)" stroke-linecap="round" stroke-linejoin="bevel" stroke-miterlimit="10" stroke-opacity="1" stroke-width="3" text-anchor="start" x="635" y="321">3</text><text font-family="geogebra-sans-serif, sans-serif" font-size="48px" font-style="normal" font-weight="normal" text-decoration="normal" dominant-baseline="alphabetic" fill="rgb(21, 101, 192)" fill-opacity="1" stroke="none" text-anchor="start" x="635" y="321">3</text><path fill="rgb(21, 101, 192)" fill-opacity="1" stroke="none" d="M 628 189.667 C 628 194.637 623.971 198.667 619 198.667 C 614.029 198.667 610 194.637 610 189.667 C 610 184.696 614.029 180.667 619 180.667 C 623.971 180.667 628 184.696 628 189.667 Z" paint-order="stroke fill markers" /><path fill="none" stroke="rgb(0, 0, 0)" stroke-linecap="round" stroke-linejoin="round" stroke-miterlimit="10" stroke-opacity="1" d="M 628 189.667 C 628 194.637 623.971 198.667 619 198.667 C 614.029 198.667 610 194.637 610 189.667 C 610 184.696 614.029 180.667 619 180.667 C 623.971 180.667 628 184.696 628 189.667 Z" paint-order="fill stroke markers" /><text font-family="geogebra-sans-serif, sans-serif" font-size="48px" font-style="normal" font-weight="normal" text-decoration="normal" dominant-baseline="alphabetic" fill="rgb(21, 101, 192)" fill-opacity="1" stroke="none" text-anchor="start" x="623" y="172">4</text><text font-family="geogebra-sans-serif, sans-serif" font-size="48px" font-style="normal" font-weight="normal" text-decoration="normal" dominant-baseline="alphabetic" fill="none" stroke="rgb(255, 255, 255)" stroke-linecap="round" stroke-linejoin="bevel" stroke-miterlimit="10" stroke-opacity="1" stroke-width="3" text-anchor="start" x="623" y="172">4</text><text font-family="geogebra-sans-serif, sans-serif" font-size="48px" font-style="normal" font-weight="normal" text-decoration="normal" dominant-baseline="alphabetic" fill="rgb(21, 101, 192)" fill-opacity="1" stroke="none" text-anchor="start" x="623" y="172">4</text><path fill="rgb(21, 101, 192)" fill-opacity="1" stroke="none" d="M 1161.33 606.333 C 1161.33 611.304 1157.3 615.333 1152.33 615.333 C 1147.36 615.333 1143.33 611.304 1143.33 606.333 C 1143.33 601.363 1147.36 597.333 1152.33 597.333 C 1157.3 597.333 1161.33 601.363 1161.33 606.333 Z" paint-order="stroke fill markers" /><path fill="none" stroke="rgb(0, 0, 0)" stroke-linecap="round" stroke-linejoin="round" stroke-miterlimit="10" stroke-opacity="1" d="M 1161.33 606.333 C 1161.33 611.304 1157.3 615.333 1152.33 615.333 C 1147.36 615.333 1143.33 611.304 1143.33 606.333 C 1143.33 601.363 1147.36 597.333 1152.33 597.333 C 1157.3 597.333 1161.33 601.363 1161.33 606.333 Z" paint-order="fill stroke markers" /><text font-family="geogebra-sans-serif, sans-serif" font-size="48px" font-style="normal" font-weight="normal" text-decoration="normal" dominant-baseline="alphabetic" fill="rgb(21, 101, 192)" fill-opacity="1" stroke="none" text-anchor="start" x="1156" y="588">8</text><text font-family="geogebra-sans-serif, sans-serif" font-size="48px" font-style="normal" font-weight="normal" text-decoration="normal" dominant-baseline="alphabetic" fill="none" stroke="rgb(255, 255, 255)" stroke-linecap="round" stroke-linejoin="bevel" stroke-miterlimit="10" stroke-opacity="1" stroke-width="3" text-anchor="start" x="1156" y="588">8</text><text font-family="geogebra-sans-serif, sans-serif" font-size="48px" font-style="normal" font-weight="normal" text-decoration="normal" dominant-baseline="alphabetic" fill="rgb(21, 101, 192)" fill-opacity="1" stroke="none" text-anchor="start" x="1156" y="588">8</text><path fill="rgb(21, 101, 192)" fill-opacity="1" stroke="none" d="M 861 264 C 861 264.552 860.552 265 860 265 C 859.448 265 859 264.552 859 264 C 859 263.448 859.448 263 860 263 C 860.552 263 861 263.448 861 264 Z" paint-order="stroke fill markers" /><path fill="none" stroke="rgb(0, 0, 0)" stroke-linecap="round" stroke-linejoin="round" stroke-miterlimit="10" stroke-opacity="1" d="M 861 264 C 861 264.552 860.552 265 860 265 C 859.448 265 859 264.552 859 264 C 859 263.448 859.448 263 860 263 C 860.552 263 861 263.448 861 264 Z" paint-order="fill stroke markers" /><text font-family="geogebra-sans-serif, sans-serif" font-size="48px" font-style="normal" font-weight="normal" text-decoration="normal" dominant-baseline="alphabetic" fill="rgb(21, 101, 192)" fill-opacity="1" stroke="none" text-anchor="start" x="864" y="262">Potential Candidate</text><text font-family="geogebra-sans-serif, sans-serif" font-size="48px" font-style="normal" font-weight="normal" text-decoration="normal" dominant-baseline="alphabetic" fill="none" stroke="rgb(255, 255, 255)" stroke-linecap="round" stroke-linejoin="bevel" stroke-miterlimit="10" stroke-opacity="1" stroke-width="3" text-anchor="start" x="864" y="262">Potential Candidate</text><text font-family="geogebra-sans-serif, sans-serif" font-size="48px" font-style="normal" font-weight="normal" text-decoration="normal" dominant-baseline="alphabetic" fill="rgb(21, 101, 192)" fill-opacity="1" stroke="none" text-anchor="start" x="864" y="262">Potential Candidate</text></g></g></svg>