<?xml version="1.0" encoding="utf-8" standalone="no"?>
<!DOCTYPE svg PUBLIC "-//W3C//DTD SVG 1.1//EN"
  "http://www.w3.org/Graphics/SVG/1.1/DTD/svg11.dtd">
<svg xmlns:xlink="http://www.w3.org/1999/xlink" width="460.8pt" height="345.6pt" viewBox="0 0 460.8 345.6" xmlns="http://www.w3.org/2000/svg" version="1.1">
 <metadata>
  <rdf:RDF xmlns:dc="http://purl.org/dc/elements/1.1/" xmlns:cc="http://creativecommons.org/ns#" xmlns:rdf="http://www.w3.org/1999/02/22-rdf-syntax-ns#">
   <cc:Work>
    <dc:type rdf:resource="http://purl.org/dc/dcmitype/StillImage"/>
    <dc:date>2022-06-18T17:37:17.255280</dc:date>
    <dc:format>image/svg+xml</dc:format>
    <dc:creator>
     <cc:Agent>
      <dc:title>Matplotlib v3.5.1, https://matplotlib.org/</dc:title>
     </cc:Agent>
    </dc:creator>
   </cc:Work>
  </rdf:RDF>
 </metadata>
 <defs>
  <style type="text/css">*{stroke-linejoin: round; stroke-linecap: butt}</style>
 </defs>
 <g id="figure_1">
  <g id="patch_1">
   <path d="M 0 345.6 
L 460.8 345.6 
L 460.8 0 
L 0 0 
z
" style="fill: #ffffff"/>
  </g>
  <g id="axes_1">
   <g id="PathCollection_1">
    <defs>
     <path id="m97a7c89d93" d="M 0 3 
C 0.795609 3 1.55874 2.683901 2.12132 2.12132 
C 2.683901 1.55874 3 0.795609 3 0 
C 3 -0.795609 2.683901 -1.55874 2.12132 -2.12132 
C 1.55874 -2.683901 0.795609 -3 0 -3 
C -0.795609 -3 -1.55874 -2.683901 -2.12132 -2.12132 
C -2.683901 -1.55874 -3 -0.795609 -3 0 
C -3 0.795609 -2.683901 1.55874 -2.12132 2.12132 
C -1.55874 2.683901 -0.795609 3 0 3 
z
" style="stroke: #ff8c00"/>
    </defs>
    <g clip-path="url(#p5f700ee707)">
     <use xlink:href="#m97a7c89d93" x="82.200112" y="69.932597" style="fill: #ff8c00; stroke: #ff8c00"/>
    </g>
   </g>
   <g id="PathCollection_2">
    <defs>
     <path id="me16ada8c78" d="M 0 3 
C 0.795609 3 1.55874 2.683901 2.12132 2.12132 
C 2.683901 1.55874 3 0.795609 3 0 
C 3 -0.795609 2.683901 -1.55874 2.12132 -2.12132 
C 1.55874 -2.683901 0.795609 -3 0 -3 
C -0.795609 -3 -1.55874 -2.683901 -2.12132 -2.12132 
C -2.683901 -1.55874 -3 -0.795609 -3 0 
C -3 0.795609 -2.683901 1.55874 -2.12132 2.12132 
C -1.55874 2.683901 -0.795609 3 0 3 
z
" style="stroke: #1e90ff"/>
    </defs>
    <g clip-path="url(#p5f700ee707)">
     <use xlink:href="#me16ada8c78" x="165.873964" y="215.662372" style="fill: #1e90ff; stroke: #1e90ff"/>
    </g>
   </g>
   <g id="PathCollection_3">
    <g clip-path="url(#p5f700ee707)">
     <use xlink:href="#me16ada8c78" x="249.547816" y="292.81343" style="fill: #1e90ff; stroke: #1e90ff"/>
    </g>
   </g>
   <g id="PathCollection_4">
    <g clip-path="url(#p5f700ee707)">
     <use xlink:href="#m97a7c89d93" x="333.221668" y="249.951731" style="fill: #ff8c00; stroke: #ff8c00"/>
    </g>
   </g>
   <g id="line2d_1">
    <path d="M 73.832727 53.568 
L 75.506204 56.852166 
L 77.179681 60.13112 
L 78.853158 63.404451 
L 80.526635 66.671747 
L 82.200112 69.932597 
" clip-path="url(#p5f700ee707)" style="fill: none; stroke-dasharray: 5.55,2.4; stroke-dashoffset: 0; stroke: #008000; stroke-width: 1.5"/>
   </g>
   <g id="line2d_2">
    <path d="M 82.200112 69.932597 
L 83.87359 73.186588 
L 85.547067 76.43331 
L 87.220544 79.672352 
L 88.894021 82.903301 
L 90.567498 86.125746 
L 92.240975 89.339277 
L 93.914452 92.54348 
L 95.587929 95.737945 
L 97.261406 98.922261 
L 98.934883 102.096015 
L 100.60836 105.258797 
L 102.281837 108.410195 
L 103.955314 111.549797 
L 105.628791 114.677193 
L 107.302268 117.791969 
L 108.975745 120.893716 
L 110.649222 123.982022 
L 112.322699 127.056474 
L 113.996176 130.116662 
L 115.669653 133.162175 
L 117.34313 136.1926 
L 119.016607 139.207526 
L 120.690084 142.206542 
L 122.363561 145.189236 
L 124.037038 148.155197 
L 125.710515 151.104013 
L 127.383993 154.035273 
L 129.05747 156.948566 
L 130.730947 159.843479 
L 132.404424 162.719602 
L 134.077901 165.576523 
L 135.751378 168.41383 
L 137.424855 171.231112 
L 139.098332 174.027958 
L 140.771809 176.803956 
L 142.445286 179.558695 
L 144.118763 182.291762 
L 145.79224 185.002748 
L 147.465717 187.691239 
L 149.139194 190.356825 
L 150.812671 192.999095 
L 152.486148 195.617636 
L 154.159625 198.212037 
L 155.833102 200.781888 
L 157.506579 203.326775 
L 159.180056 205.846289 
L 160.853533 208.340017 
L 162.52701 210.807548 
L 164.200487 213.24847 
" clip-path="url(#p5f700ee707)" style="fill: none; stroke: #ff0000; stroke-width: 1.5; stroke-linecap: square"/>
   </g>
   <g id="line2d_3">
    <path d="M 165.873964 215.662372 
L 167.547441 218.048843 
L 169.220918 220.407471 
L 170.894396 222.737844 
L 172.567873 225.039552 
L 174.24135 227.312182 
L 175.914827 229.555323 
L 177.588304 231.768564 
L 179.261781 233.951493 
L 180.935258 236.103699 
L 182.608735 238.22477 
L 184.282212 240.314295 
L 185.955689 242.371863 
L 187.629166 244.397061 
L 189.302643 246.389478 
L 190.97612 248.348704 
L 192.649597 250.274326 
L 194.323074 252.165932 
L 195.996551 254.023113 
L 197.670028 255.845455 
L 199.343505 257.632548 
L 201.016982 259.38398 
L 202.690459 261.099339 
L 204.363936 262.778215 
L 206.037413 264.420195 
L 207.71089 266.024868 
L 209.384367 267.591823 
L 211.057844 269.120649 
L 212.731321 270.610933 
L 214.404799 272.062264 
L 216.078276 273.474232 
L 217.751753 274.846423 
L 219.42523 276.178428 
L 221.098707 277.469833 
L 222.772184 278.720229 
L 224.445661 279.929203 
L 226.119138 281.096345 
L 227.792615 282.221241 
L 229.466092 283.303482 
L 231.139569 284.342655 
L 232.813046 285.33835 
L 234.486523 286.290154 
L 236.16 287.197656 
L 237.833477 288.060445 
L 239.506954 288.878109 
L 241.180431 289.650237 
L 242.853908 290.376417 
L 244.527385 291.056238 
L 246.200862 291.689288 
L 247.874339 292.275156 
" clip-path="url(#p5f700ee707)" style="fill: none; stroke: #0000ff; stroke-width: 1.5; stroke-linecap: square"/>
   </g>
   <g id="line2d_4">
    <path d="M 249.547816 292.81343 
L 251.221293 293.303699 
L 252.89477 293.745552 
L 254.568247 294.138577 
L 256.241724 294.482362 
L 257.915201 294.776496 
L 259.588679 295.020567 
L 261.262156 295.214165 
L 262.935633 295.356877 
L 264.60911 295.448293 
L 266.282587 295.488 
L 267.956064 295.475587 
L 269.629541 295.410643 
L 271.303018 295.292756 
L 272.976495 295.121515 
L 274.649972 294.896509 
L 276.323449 294.617325 
L 277.996926 294.283552 
L 279.670403 293.894779 
L 281.34388 293.450595 
L 283.017357 292.950587 
L 284.690834 292.394345 
L 286.364311 291.781457 
L 288.037788 291.111512 
L 289.711265 290.384097 
L 291.384742 289.598803 
L 293.058219 288.755216 
L 294.731696 287.852926 
L 296.405173 286.891521 
L 298.07865 285.870589 
L 299.752127 284.78972 
L 301.425604 283.648502 
L 303.099082 282.446522 
L 304.772559 281.183371 
L 306.446036 279.858636 
L 308.119513 278.471906 
L 309.79299 277.022769 
L 311.466467 275.510814 
L 313.139944 273.935629 
L 314.813421 272.296804 
L 316.486898 270.593925 
L 318.160375 268.826583 
L 319.833852 266.994366 
L 321.507329 265.096861 
L 323.180806 263.133658 
L 324.854283 261.104345 
L 326.52776 259.008511 
L 328.201237 256.845744 
L 329.874714 254.615633 
L 331.548191 252.317766 
" clip-path="url(#p5f700ee707)" style="fill: none; stroke: #0000ff; stroke-width: 1.5; stroke-linecap: square"/>
   </g>
   <g id="line2d_5">
    <path d="M 333.221668 249.951731 
L 334.895145 247.517118 
L 336.568622 245.013515 
L 338.242099 242.44051 
L 339.915576 239.797692 
L 341.589053 237.084649 
L 343.26253 234.300971 
L 344.936007 231.446244 
L 346.609485 228.520059 
L 348.282962 225.522003 
L 349.956439 222.451665 
L 351.629916 219.308634 
L 353.303393 216.092498 
L 354.97687 212.802845 
L 356.650347 209.439265 
L 358.323824 206.001345 
L 359.997301 202.488675 
L 361.670778 198.900842 
L 363.344255 195.237436 
L 365.017732 191.498044 
L 366.691209 187.682255 
L 368.364686 183.789659 
L 370.038163 179.819842 
L 371.71164 175.772395 
L 373.385117 171.646905 
L 375.058594 167.442961 
L 376.732071 163.160152 
L 378.405548 158.798065 
L 380.079025 154.35629 
L 381.752502 149.834415 
L 383.425979 145.232029 
L 385.099456 140.54872 
L 386.772933 135.784076 
L 388.44641 130.937687 
L 390.119888 126.00914 
L 391.793365 120.998024 
L 393.466842 115.903929 
L 395.140319 110.726441 
L 396.813796 105.465151 
L 398.487273 100.119645 
" clip-path="url(#p5f700ee707)" style="fill: none; stroke-dasharray: 5.55,2.4; stroke-dashoffset: 0; stroke: #008000; stroke-width: 1.5"/>
   </g>
  </g>
 </g>
 <defs>
  <clipPath id="p5f700ee707">
   <rect x="57.6" y="41.472" width="357.12" height="266.112"/>
  </clipPath>
 </defs>
</svg>
