<?xml version="1.0" encoding="utf-8" standalone="no"?>
<!DOCTYPE svg PUBLIC "-//W3C//DTD SVG 1.1//EN"
  "http://www.w3.org/Graphics/SVG/1.1/DTD/svg11.dtd">
<svg xmlns:xlink="http://www.w3.org/1999/xlink" width="460.8pt" height="345.6pt" viewBox="0 0 460.8 345.6" xmlns="http://www.w3.org/2000/svg" version="1.1">
 <metadata>
  <rdf:RDF xmlns:dc="http://purl.org/dc/elements/1.1/" xmlns:cc="http://creativecommons.org/ns#" xmlns:rdf="http://www.w3.org/1999/02/22-rdf-syntax-ns#">
   <cc:Work>
    <dc:type rdf:resource="http://purl.org/dc/dcmitype/StillImage"/>
    <dc:date>2022-05-29T10:14:55.286100</dc:date>
    <dc:format>image/svg+xml</dc:format>
    <dc:creator>
     <cc:Agent>
      <dc:title>Matplotlib v3.5.1, https://matplotlib.org/</dc:title>
     </cc:Agent>
    </dc:creator>
   </cc:Work>
  </rdf:RDF>
 </metadata>
 <defs>
  <style type="text/css">*{stroke-linejoin: round; stroke-linecap: butt}</style>
 </defs>
 <g id="figure_1">
  <g id="patch_1">
   <path d="M 0 345.6 
L 460.8 345.6 
L 460.8 0 
L 0 0 
z
" style="fill: #ffffff"/>
  </g>
  <g id="axes_1">
   <g id="patch_2">
    <path d="M 57.6 307.584 
L 414.72 307.584 
L 414.72 41.472 
L 57.6 41.472 
z
" style="fill: #ffffff"/>
   </g>
   <g id="PathCollection_1">
    <defs>
     <path id="m3059aae037" d="M 0 3 
C 0.795609 3 1.55874 2.683901 2.12132 2.12132 
C 2.683901 1.55874 3 0.795609 3 0 
C 3 -0.795609 2.683901 -1.55874 2.12132 -2.12132 
C 1.55874 -2.683901 0.795609 -3 0 -3 
C -0.795609 -3 -1.55874 -2.683901 -2.12132 -2.12132 
C -2.683901 -1.55874 -3 -0.795609 -3 0 
C -3 0.795609 -2.683901 1.55874 -2.12132 2.12132 
C -1.55874 2.683901 -0.795609 3 0 3 
z
" style="stroke: #ff8c00"/>
    </defs>
    <g clip-path="url(#pf68044d276)">
     <use xlink:href="#m3059aae037" x="93.312" y="86.701249" style="fill: #ff8c00; stroke: #ff8c00"/>
    </g>
   </g>
   <g id="PathCollection_2">
    <defs>
     <path id="m9223784810" d="M 0 3 
C 0.795609 3 1.55874 2.683901 2.12132 2.12132 
C 2.683901 1.55874 3 0.795609 3 0 
C 3 -0.795609 2.683901 -1.55874 2.12132 -2.12132 
C 1.55874 -2.683901 0.795609 -3 0 -3 
C -0.795609 -3 -1.55874 -2.683901 -2.12132 -2.12132 
C -2.683901 -1.55874 -3 -0.795609 -3 0 
C -3 0.795609 -2.683901 1.55874 -2.12132 2.12132 
C -1.55874 2.683901 -0.795609 3 0 3 
z
" style="stroke: #1e90ff"/>
    </defs>
    <g clip-path="url(#pf68044d276)">
     <use xlink:href="#m9223784810" x="190.708364" y="241.386983" style="fill: #1e90ff; stroke: #1e90ff"/>
    </g>
   </g>
   <g id="PathCollection_3">
    <g clip-path="url(#pf68044d276)">
     <use xlink:href="#m9223784810" x="288.104727" y="291.496446" style="fill: #1e90ff; stroke: #1e90ff"/>
    </g>
   </g>
   <g id="PathCollection_4">
    <g clip-path="url(#pf68044d276)">
     <use xlink:href="#m3059aae037" x="385.501091" y="119.381333" style="fill: #ff8c00; stroke: #ff8c00"/>
    </g>
   </g>
   <g id="matplotlib.axis_1">
    <g id="xtick_1">
     <g id="line2d_1">
      <defs>
       <path id="m99037611c0" d="M 0 0 
L 0 3.5 
" style="stroke: #000000; stroke-width: 0.8"/>
      </defs>
      <g>
       <use xlink:href="#m99037611c0" x="60.846545" y="307.584" style="stroke: #000000; stroke-width: 0.8"/>
      </g>
     </g>
     <g id="text_1">
      <!-- 2 -->
      <g transform="translate(57.846545 321.654312)scale(0.1 -0.1)">
       <defs>
        <path id="LXGWWenKai-Regular-32" d="M 2355 45 
L 1568 45 
Q 1050 45 659 -26 
L 627 -26 
Q 518 -26 441 76 
Q 365 179 365 256 
Q 365 333 397 384 
Q 429 435 467 476 
Q 506 518 531 563 
Q 717 883 1113 1328 
Q 1510 1773 1980 2160 
Q 2451 2547 2665 2867 
Q 2880 3187 2880 3488 
Q 2880 3789 2688 3971 
Q 2496 4154 2102 4154 
Q 1709 4154 1456 3981 
Q 1203 3808 1094 3526 
Q 1069 3462 1008 3411 
Q 947 3360 864 3360 
Q 781 3360 704 3472 
Q 627 3584 627 3651 
Q 627 3718 716 3865 
Q 806 4013 986 4173 
Q 1434 4563 2061 4563 
Q 2688 4563 3021 4268 
Q 3354 3974 3354 3532 
Q 3354 3091 3075 2694 
Q 2797 2298 2317 1901 
Q 1370 1133 928 410 
Q 1248 442 1882 442 
L 2816 435 
L 3232 442 
Q 3315 442 3382 326 
Q 3450 211 3450 102 
Q 3450 -6 3354 -6 
Q 3290 -6 3050 19 
Q 2810 45 2355 45 
z
" transform="scale(0.015625)"/>
       </defs>
       <use xlink:href="#LXGWWenKai-Regular-32"/>
      </g>
     </g>
    </g>
    <g id="xtick_2">
     <g id="line2d_2">
      <g>
       <use xlink:href="#m99037611c0" x="125.777455" y="307.584" style="stroke: #000000; stroke-width: 0.8"/>
      </g>
     </g>
     <g id="text_2">
      <!-- 3 -->
      <g transform="translate(122.777455 321.654312)scale(0.1 -0.1)">
       <defs>
        <path id="LXGWWenKai-Regular-33" d="M 2016 2253 
Q 1779 2253 1491 2195 
Q 1402 2195 1338 2297 
Q 1274 2400 1274 2493 
Q 1274 2586 1350 2592 
Q 2202 2675 2592 3078 
Q 2784 3277 2784 3526 
Q 2784 4166 2035 4166 
Q 1440 4166 960 3648 
Q 902 3565 826 3565 
Q 813 3565 710 3632 
Q 608 3699 608 3814 
Q 608 3930 678 3987 
Q 1229 4563 2022 4563 
Q 2566 4563 2899 4300 
Q 3232 4038 3232 3609 
Q 3232 3181 3008 2905 
Q 2784 2630 2387 2509 
Q 2682 2509 2918 2371 
Q 3155 2234 3296 1984 
Q 3437 1734 3437 1363 
Q 3437 992 3257 646 
Q 3078 301 2704 93 
Q 2330 -115 1824 -115 
Q 1318 -115 1004 16 
Q 691 147 429 403 
Q 378 454 378 553 
Q 378 653 445 765 
Q 512 877 566 877 
Q 621 877 659 838 
Q 864 582 1117 435 
Q 1370 288 1776 288 
Q 2182 288 2457 441 
Q 2733 595 2857 848 
Q 2982 1101 2982 1389 
Q 2982 1779 2710 2016 
Q 2438 2253 2016 2253 
z
" transform="scale(0.015625)"/>
       </defs>
       <use xlink:href="#LXGWWenKai-Regular-33"/>
      </g>
     </g>
    </g>
    <g id="xtick_3">
     <g id="line2d_3">
      <g>
       <use xlink:href="#m99037611c0" x="190.708364" y="307.584" style="stroke: #000000; stroke-width: 0.8"/>
      </g>
     </g>
     <g id="text_3">
      <!-- 4 -->
      <g transform="translate(187.708364 321.654312)scale(0.1 -0.1)">
       <defs>
        <path id="LXGWWenKai-Regular-34" d="M 3578 1018 
L 2982 1030 
L 2861 1024 
L 2861 659 
L 2886 -6 
Q 2886 -70 2768 -70 
Q 2650 -70 2528 -22 
Q 2406 26 2406 109 
L 2419 672 
L 2419 1005 
L 902 928 
Q 806 928 729 905 
Q 653 883 585 883 
Q 518 883 422 976 
Q 326 1069 326 1161 
Q 326 1254 377 1328 
Q 429 1402 489 1475 
Q 550 1549 595 1613 
Q 1792 3501 1984 3859 
Q 2176 4218 2298 4506 
Q 2317 4550 2368 4550 
Q 2419 4550 2496 4493 
Q 2688 4352 2688 4205 
Q 2688 4179 2669 4147 
L 2438 3789 
Q 1376 2061 864 1318 
L 2419 1389 
L 2419 2675 
L 2400 3360 
Q 2400 3424 2518 3424 
Q 2637 3424 2755 3376 
Q 2874 3328 2874 3245 
L 2861 2675 
L 2861 1408 
L 2976 1414 
Q 3104 1421 3241 1437 
Q 3379 1453 3452 1453 
Q 3526 1453 3587 1334 
Q 3648 1216 3648 1117 
Q 3648 1018 3578 1018 
z
" transform="scale(0.015625)"/>
       </defs>
       <use xlink:href="#LXGWWenKai-Regular-34"/>
      </g>
     </g>
    </g>
    <g id="xtick_4">
     <g id="line2d_4">
      <g>
       <use xlink:href="#m99037611c0" x="255.639273" y="307.584" style="stroke: #000000; stroke-width: 0.8"/>
      </g>
     </g>
     <g id="text_4">
      <!-- 5 -->
      <g transform="translate(252.639273 321.654312)scale(0.1 -0.1)">
       <defs>
        <path id="LXGWWenKai-Regular-35" d="M 1056 2515 
Q 1453 2829 2003 2829 
L 2061 2829 
Q 2419 2822 2732 2656 
Q 3046 2490 3241 2182 
Q 3437 1875 3437 1449 
Q 3437 1024 3264 669 
Q 3091 314 2726 96 
Q 2362 -122 1862 -122 
Q 1363 -122 1030 48 
Q 698 218 461 474 
Q 416 518 416 624 
Q 416 730 483 848 
Q 550 966 611 966 
Q 672 966 698 922 
Q 864 678 1136 486 
Q 1408 294 1779 288 
L 1792 288 
Q 2202 288 2467 445 
Q 2733 602 2864 864 
Q 2995 1126 2995 1427 
Q 2995 1914 2707 2176 
Q 2419 2438 2003 2445 
L 1978 2445 
Q 1574 2445 1337 2301 
Q 1101 2157 883 1958 
Q 864 1939 806 1939 
Q 749 1939 665 2028 
Q 582 2118 582 2204 
Q 582 2291 653 2534 
L 896 4070 
Q 909 4141 909 4211 
L 909 4346 
Q 909 4429 1021 4429 
Q 1133 4429 1274 4358 
L 2605 4454 
Q 2918 4474 3034 4493 
L 3046 4493 
Q 3117 4493 3177 4381 
Q 3238 4269 3238 4173 
Q 3238 4077 3162 4077 
Q 3078 4070 2937 4067 
Q 2797 4064 2656 4051 
L 1299 3949 
L 1056 2515 
z
" transform="scale(0.015625)"/>
       </defs>
       <use xlink:href="#LXGWWenKai-Regular-35"/>
      </g>
     </g>
    </g>
    <g id="xtick_5">
     <g id="line2d_5">
      <g>
       <use xlink:href="#m99037611c0" x="320.570182" y="307.584" style="stroke: #000000; stroke-width: 0.8"/>
      </g>
     </g>
     <g id="text_5">
      <!-- 6 -->
      <g transform="translate(317.570182 321.654312)scale(0.1 -0.1)">
       <defs>
        <path id="LXGWWenKai-Regular-36" d="M 858 1261 
Q 858 832 1139 557 
Q 1421 282 1939 282 
Q 2458 282 2733 608 
Q 3008 934 3008 1434 
Q 3008 1696 2886 1917 
Q 2765 2138 2547 2272 
Q 2330 2406 1994 2406 
Q 1658 2406 1395 2249 
Q 1133 2093 995 1833 
Q 858 1574 858 1261 
z
M 1107 2445 
Q 1498 2790 2048 2790 
Q 2432 2790 2755 2617 
Q 3078 2445 3270 2141 
Q 3462 1837 3462 1437 
Q 3462 1037 3292 678 
Q 3123 320 2784 105 
Q 2445 -109 1955 -109 
Q 1466 -109 1123 73 
Q 781 256 592 566 
Q 403 877 403 1273 
Q 403 1670 560 2115 
Q 717 2560 1033 3101 
Q 1350 3642 1590 4003 
Q 1830 4365 1849 4413 
Q 1869 4461 1894 4499 
Q 1933 4570 2083 4570 
Q 2234 4570 2320 4525 
Q 2406 4480 2406 4409 
Q 2406 4339 2342 4275 
Q 1888 3757 1568 3241 
Q 1248 2726 1107 2445 
z
" transform="scale(0.015625)"/>
       </defs>
       <use xlink:href="#LXGWWenKai-Regular-36"/>
      </g>
     </g>
    </g>
    <g id="xtick_6">
     <g id="line2d_6">
      <g>
       <use xlink:href="#m99037611c0" x="385.501091" y="307.584" style="stroke: #000000; stroke-width: 0.8"/>
      </g>
     </g>
     <g id="text_6">
      <!-- 7 -->
      <g transform="translate(382.501091 321.654312)scale(0.1 -0.1)">
       <defs>
        <path id="LXGWWenKai-Regular-37" d="M 3392 4205 
Q 3366 4115 3296 4003 
Q 3226 3891 3072 3584 
Q 1997 1402 1626 32 
Q 1606 -70 1414 -70 
Q 1222 -70 1180 0 
Q 1139 70 1139 144 
Q 1139 218 1628 1424 
Q 2118 2630 2829 4064 
L 1005 3904 
Q 960 3898 912 3888 
Q 864 3878 777 3878 
Q 691 3878 620 3964 
Q 550 4051 521 4147 
Q 493 4243 493 4256 
Q 493 4314 531 4314 
L 762 4301 
L 2816 4448 
Q 2893 4454 2960 4473 
Q 3027 4493 3085 4493 
L 3104 4493 
Q 3187 4486 3289 4390 
Q 3392 4294 3392 4205 
z
" transform="scale(0.015625)"/>
       </defs>
       <use xlink:href="#LXGWWenKai-Regular-37"/>
      </g>
     </g>
    </g>
   </g>
   <g id="matplotlib.axis_2">
    <g id="ytick_1">
     <g id="line2d_7">
      <defs>
       <path id="mf3026c6ac4" d="M 0 0 
L -3.5 0 
" style="stroke: #000000; stroke-width: 0.8"/>
      </defs>
      <g>
       <use xlink:href="#mf3026c6ac4" x="57.6" y="293.675118" style="stroke: #000000; stroke-width: 0.8"/>
      </g>
     </g>
     <g id="text_7">
      <!-- 0 -->
      <g transform="translate(44.6 297.210274)scale(0.1 -0.1)">
       <defs>
        <path id="LXGWWenKai-Regular-30" d="M 1107 858 
Q 1210 595 1402 441 
Q 1594 288 1930 288 
Q 2266 288 2490 563 
Q 2918 1082 2918 2339 
Q 2918 3597 2432 4006 
Q 2246 4160 2035 4160 
Q 1626 4160 1277 3619 
Q 928 3078 928 2198 
Q 928 1318 1107 858 
z
M 717 3622 
Q 819 3904 928 4061 
Q 1037 4218 1107 4218 
Q 1178 4218 1242 4141 
Q 1606 4563 2035 4563 
Q 2464 4563 2771 4262 
Q 3379 3667 3379 2266 
Q 3379 1274 3021 602 
Q 2624 -115 1894 -115 
Q 1165 -115 794 557 
Q 467 1152 467 2054 
Q 467 2957 717 3622 
z
" transform="scale(0.015625)"/>
       </defs>
       <use xlink:href="#LXGWWenKai-Regular-30"/>
      </g>
     </g>
    </g>
    <g id="ytick_2">
     <g id="line2d_8">
      <g>
       <use xlink:href="#mf3026c6ac4" x="57.6" y="235.57719" style="stroke: #000000; stroke-width: 0.8"/>
      </g>
     </g>
     <g id="text_8">
      <!-- 10 -->
      <g transform="translate(38.6 239.112346)scale(0.1 -0.1)">
       <defs>
        <path id="LXGWWenKai-Regular-31" d="M 1773 109 
L 1786 672 
L 1786 3878 
Q 1555 3744 1178 3661 
Q 1165 3654 1101 3654 
Q 1037 3654 944 3705 
Q 851 3757 851 3808 
Q 851 3859 922 3885 
Q 1536 4128 1811 4442 
Q 1901 4544 1977 4544 
Q 2054 4544 2172 4467 
Q 2291 4390 2291 4304 
Q 2291 4218 2272 4099 
Q 2253 3981 2253 3840 
L 2253 710 
L 2266 -6 
Q 2266 -70 2144 -70 
Q 2022 -70 1897 -22 
Q 1773 26 1773 109 
z
" transform="scale(0.015625)"/>
       </defs>
       <use xlink:href="#LXGWWenKai-Regular-31"/>
       <use xlink:href="#LXGWWenKai-Regular-30" x="59.999985"/>
      </g>
     </g>
    </g>
    <g id="ytick_3">
     <g id="line2d_9">
      <g>
       <use xlink:href="#mf3026c6ac4" x="57.6" y="177.479261" style="stroke: #000000; stroke-width: 0.8"/>
      </g>
     </g>
     <g id="text_9">
      <!-- 20 -->
      <g transform="translate(38.6 181.014418)scale(0.1 -0.1)">
       <use xlink:href="#LXGWWenKai-Regular-32"/>
       <use xlink:href="#LXGWWenKai-Regular-30" x="59.999985"/>
      </g>
     </g>
    </g>
    <g id="ytick_4">
     <g id="line2d_10">
      <g>
       <use xlink:href="#mf3026c6ac4" x="57.6" y="119.381333" style="stroke: #000000; stroke-width: 0.8"/>
      </g>
     </g>
     <g id="text_10">
      <!-- 30 -->
      <g transform="translate(38.6 122.916489)scale(0.1 -0.1)">
       <use xlink:href="#LXGWWenKai-Regular-33"/>
       <use xlink:href="#LXGWWenKai-Regular-30" x="59.999985"/>
      </g>
     </g>
    </g>
    <g id="ytick_5">
     <g id="line2d_11">
      <g>
       <use xlink:href="#mf3026c6ac4" x="57.6" y="61.283405" style="stroke: #000000; stroke-width: 0.8"/>
      </g>
     </g>
     <g id="text_11">
      <!-- 40 -->
      <g transform="translate(38.6 64.818561)scale(0.1 -0.1)">
       <use xlink:href="#LXGWWenKai-Regular-34"/>
       <use xlink:href="#LXGWWenKai-Regular-30" x="59.999985"/>
      </g>
     </g>
    </g>
   </g>
   <g id="line2d_12">
    <path d="M 73.832727 53.568 
L 74.482036 54.654077 
L 75.131345 55.741746 
L 75.780655 56.830971 
L 76.429964 57.921719 
L 77.079273 59.013955 
L 77.728582 60.107642 
L 78.377891 61.202748 
L 79.0272 62.299236 
L 79.676509 63.397071 
L 80.325818 64.49622 
L 80.975127 65.596647 
L 81.624436 66.698318 
L 82.273745 67.801196 
L 82.923055 68.905249 
L 83.572364 70.01044 
L 84.221673 71.116735 
L 84.870982 72.224099 
L 85.520291 73.332497 
L 86.1696 74.441894 
L 86.818909 75.552256 
L 87.468218 76.663547 
L 88.117527 77.775733 
L 88.766836 78.888779 
L 89.416145 80.00265 
L 90.065455 81.117311 
L 90.714764 82.232728 
L 91.364073 83.348864 
L 92.013382 84.465687 
L 92.662691 85.58316 
" clip-path="url(#pf68044d276)" style="fill: none; stroke-dasharray: 5.55,2.4; stroke-dashoffset: 0; stroke: #008000; stroke-width: 1.5"/>
   </g>
   <g id="line2d_13">
    <path d="M 93.312 86.701249 
L 131.621236 152.503956 
L 142.010182 169.76313 
L 151.100509 184.442769 
L 158.892218 196.635595 
L 166.034618 207.441943 
L 173.177018 217.846184 
L 179.670109 226.916607 
L 185.513891 234.734259 
L 190.059055 240.571293 
L 190.059055 240.571293 
" clip-path="url(#pf68044d276)" style="fill: none; stroke: #ff0000; stroke-width: 1.5; stroke-linecap: square"/>
   </g>
   <g id="line2d_14">
    <path d="M 190.708364 241.386983 
L 196.552145 248.514849 
L 201.746618 254.514134 
L 206.941091 260.178031 
L 212.135564 265.488693 
L 216.680727 269.831728 
L 221.225891 273.878696 
L 225.771055 277.617641 
L 230.316218 281.036605 
L 234.212073 283.703405 
L 238.107927 286.118803 
L 242.003782 288.27527 
L 245.899636 290.165277 
L 249.795491 291.781294 
L 253.691345 293.115792 
L 256.937891 294.007392 
L 260.184436 294.693906 
L 263.430982 295.170977 
L 266.677527 295.434248 
L 269.924073 295.479361 
L 273.170618 295.301959 
L 276.417164 294.897684 
L 279.663709 294.26218 
L 282.910255 293.391089 
L 286.1568 292.280053 
L 287.455418 291.767478 
L 287.455418 291.767478 
" clip-path="url(#pf68044d276)" style="fill: none; stroke: #0000ff; stroke-width: 1.5; stroke-linecap: square"/>
   </g>
   <g id="line2d_15">
    <path d="M 288.104727 291.496446 
L 291.351273 289.992436 
L 294.597818 288.237152 
L 297.844364 286.226237 
L 301.090909 283.955335 
L 304.337455 281.420086 
L 307.584 278.616135 
L 310.830545 275.539124 
L 314.077091 272.184694 
L 317.323636 268.54849 
L 320.570182 264.626154 
L 324.466036 259.53552 
L 328.361891 254.019052 
L 332.257745 248.06922 
L 336.1536 241.678495 
L 340.049455 234.839346 
L 343.945309 227.544245 
L 347.841164 219.785662 
L 351.737018 211.556067 
L 355.632873 202.847931 
L 359.528727 193.653725 
L 364.073891 182.302766 
L 368.619055 170.268007 
L 373.164218 157.53749 
L 377.709382 144.099259 
L 382.254545 129.941358 
L 384.851782 121.52341 
L 384.851782 121.52341 
" clip-path="url(#pf68044d276)" style="fill: none; stroke: #0000ff; stroke-width: 1.5; stroke-linecap: square"/>
   </g>
   <g id="line2d_16">
    <path d="M 385.501091 119.381333 
L 386.1504 117.224151 
L 386.799709 115.051829 
L 387.449018 112.864332 
L 388.098327 110.661624 
L 388.747636 108.443672 
L 389.396945 106.21044 
L 390.046255 103.961893 
L 390.695564 101.697997 
L 391.344873 99.418717 
L 391.994182 97.124017 
L 392.643491 94.813863 
L 393.2928 92.48822 
L 393.942109 90.147054 
L 394.591418 87.790329 
L 395.240727 85.418011 
L 395.890036 83.030064 
L 396.539345 80.626454 
L 397.188655 78.207145 
L 397.837964 75.772104 
L 398.487273 73.321296 
" clip-path="url(#pf68044d276)" style="fill: none; stroke-dasharray: 5.55,2.4; stroke-dashoffset: 0; stroke: #008000; stroke-width: 1.5"/>
   </g>
   <g id="patch_3">
    <path d="M 57.6 307.584 
L 57.6 41.472 
" style="fill: none; stroke: #000000; stroke-width: 0.8; stroke-linejoin: miter; stroke-linecap: square"/>
   </g>
   <g id="patch_4">
    <path d="M 414.72 307.584 
L 414.72 41.472 
" style="fill: none; stroke: #000000; stroke-width: 0.8; stroke-linejoin: miter; stroke-linecap: square"/>
   </g>
   <g id="patch_5">
    <path d="M 57.6 307.584 
L 414.72 307.584 
" style="fill: none; stroke: #000000; stroke-width: 0.8; stroke-linejoin: miter; stroke-linecap: square"/>
   </g>
   <g id="patch_6">
    <path d="M 57.6 41.472 
L 414.72 41.472 
" style="fill: none; stroke: #000000; stroke-width: 0.8; stroke-linejoin: miter; stroke-linecap: square"/>
   </g>
  </g>
 </g>
 <defs>
  <clipPath id="pf68044d276">
   <rect x="57.6" y="41.472" width="357.12" height="266.112"/>
  </clipPath>
 </defs>
</svg>
