<?xml version="1.0" encoding="utf-8" standalone="no"?>
<!DOCTYPE svg PUBLIC "-//W3C//DTD SVG 1.1//EN"
  "http://www.w3.org/Graphics/SVG/1.1/DTD/svg11.dtd">
<svg xmlns:xlink="http://www.w3.org/1999/xlink" width="460.8pt" height="345.6pt" viewBox="0 0 460.8 345.6" xmlns="http://www.w3.org/2000/svg" version="1.1">
 <metadata>
  <rdf:RDF xmlns:dc="http://purl.org/dc/elements/1.1/" xmlns:cc="http://creativecommons.org/ns#" xmlns:rdf="http://www.w3.org/1999/02/22-rdf-syntax-ns#">
   <cc:Work>
    <dc:type rdf:resource="http://purl.org/dc/dcmitype/StillImage"/>
    <dc:date>2022-06-18T17:34:11.714803</dc:date>
    <dc:format>image/svg+xml</dc:format>
    <dc:creator>
     <cc:Agent>
      <dc:title>Matplotlib v3.5.1, https://matplotlib.org/</dc:title>
     </cc:Agent>
    </dc:creator>
   </cc:Work>
  </rdf:RDF>
 </metadata>
 <defs>
  <style type="text/css">*{stroke-linejoin: round; stroke-linecap: butt}</style>
 </defs>
 <g id="figure_1">
  <g id="patch_1">
   <path d="M 0 345.6 
L 460.8 345.6 
L 460.8 0 
L 0 0 
z
" style="fill: #ffffff"/>
  </g>
  <g id="axes_1">
   <g id="PathCollection_1">
    <defs>
     <path id="mee377045be" d="M 0 3 
C 0.795609 3 1.55874 2.683901 2.12132 2.12132 
C 2.683901 1.55874 3 0.795609 3 0 
C 3 -0.795609 2.683901 -1.55874 2.12132 -2.12132 
C 1.55874 -2.683901 0.795609 -3 0 -3 
C -0.795609 -3 -1.55874 -2.683901 -2.12132 -2.12132 
C -2.683901 -1.55874 -3 -0.795609 -3 0 
C -3 0.795609 -2.683901 1.55874 -2.12132 2.12132 
C -1.55874 2.683901 -0.795609 3 0 3 
z
" style="stroke: #ff8c00"/>
    </defs>
    <g clip-path="url(#pdc77e55358)">
     <use xlink:href="#mee377045be" x="93.312" y="86.70128" style="fill: #ff8c00; stroke: #ff8c00"/>
    </g>
   </g>
   <g id="PathCollection_2">
    <defs>
     <path id="ma2bfce15c3" d="M 0 3 
C 0.795609 3 1.55874 2.683901 2.12132 2.12132 
C 2.683901 1.55874 3 0.795609 3 0 
C 3 -0.795609 2.683901 -1.55874 2.12132 -2.12132 
C 1.55874 -2.683901 0.795609 -3 0 -3 
C -0.795609 -3 -1.55874 -2.683901 -2.12132 -2.12132 
C -2.683901 -1.55874 -3 -0.795609 -3 0 
C -3 0.795609 -2.683901 1.55874 -2.12132 2.12132 
C -1.55874 2.683901 -0.795609 3 0 3 
z
" style="stroke: #1e90ff"/>
    </defs>
    <g clip-path="url(#pdc77e55358)">
     <use xlink:href="#ma2bfce15c3" x="190.708364" y="241.387159" style="fill: #1e90ff; stroke: #1e90ff"/>
    </g>
   </g>
   <g id="PathCollection_3">
    <g clip-path="url(#pdc77e55358)">
     <use xlink:href="#ma2bfce15c3" x="288.104727" y="291.496669" style="fill: #1e90ff; stroke: #1e90ff"/>
    </g>
   </g>
   <g id="PathCollection_4">
    <g clip-path="url(#pdc77e55358)">
     <use xlink:href="#mee377045be" x="385.501091" y="119.381395" style="fill: #ff8c00; stroke: #ff8c00"/>
    </g>
   </g>
   <g id="line2d_1">
    <path d="M 73.832727 53.568 
L 75.131345 55.741748 
L 76.429964 57.921723 
L 77.728582 60.107648 
L 79.0272 62.299244 
L 80.325818 64.496231 
L 81.624436 66.69833 
L 82.923055 68.905263 
L 84.221673 71.116751 
L 85.520291 73.332515 
L 86.818909 75.552277 
L 88.117527 77.775756 
L 89.416145 80.002675 
L 90.714764 82.232755 
L 92.013382 84.465716 
" clip-path="url(#pdc77e55358)" style="fill: none; stroke-dasharray: 5.55,2.4; stroke-dashoffset: 0; stroke: #008000; stroke-width: 1.5"/>
   </g>
   <g id="line2d_2">
    <path d="M 93.312 86.70128 
L 94.610618 88.939167 
L 95.909236 91.1791 
L 97.207855 93.420799 
L 98.506473 95.663986 
L 99.805091 97.90838 
L 101.103709 100.153705 
L 102.402327 102.39968 
L 103.700945 104.646027 
L 104.999564 106.892467 
L 106.298182 109.13872 
L 107.5968 111.38451 
L 108.895418 113.629555 
L 110.194036 115.873578 
L 111.492655 118.1163 
L 112.791273 120.357441 
L 114.089891 122.596723 
L 115.388509 124.833867 
L 116.687127 127.068595 
L 117.985745 129.300626 
L 119.284364 131.529683 
L 120.582982 133.755486 
L 121.8816 135.977758 
L 123.180218 138.196217 
L 124.478836 140.410587 
L 125.777455 142.620588 
L 127.076073 144.825941 
L 128.374691 147.026367 
L 129.673309 149.221588 
L 130.971927 151.411324 
L 132.270545 153.595297 
L 133.569164 155.773228 
L 134.867782 157.944837 
L 136.1664 160.109847 
L 137.465018 162.267978 
L 138.763636 164.418951 
L 140.062255 166.562488 
L 141.360873 168.698309 
L 142.659491 170.826136 
L 143.958109 172.94569 
L 145.256727 175.056692 
L 146.555345 177.158863 
L 147.853964 179.251924 
L 149.152582 181.335596 
L 150.4512 183.409601 
L 151.749818 185.47366 
L 153.048436 187.527493 
L 154.347055 189.570823 
L 155.645673 191.603369 
L 156.944291 193.624853 
L 158.242909 195.634997 
L 159.541527 197.633521 
L 160.840145 199.620147 
L 162.138764 201.594595 
L 163.437382 203.556587 
L 164.736 205.505844 
L 166.034618 207.442087 
L 167.333236 209.365038 
L 168.631855 211.274416 
L 169.930473 213.169944 
L 171.229091 215.051343 
L 172.527709 216.918333 
L 173.826327 218.770636 
L 175.124945 220.607973 
L 176.423564 222.430066 
L 177.722182 224.236634 
L 179.0208 226.0274 
L 180.319418 227.802084 
L 181.618036 229.560408 
L 182.916655 231.302092 
L 184.215273 233.026859 
L 185.513891 234.734428 
L 186.812509 236.424522 
L 188.111127 238.096861 
L 189.409745 239.751166 
" clip-path="url(#pdc77e55358)" style="fill: none; stroke: #ff0000; stroke-width: 1.5; stroke-linecap: square"/>
   </g>
   <g id="line2d_3">
    <path d="M 190.708364 241.387159 
L 192.006982 243.00456 
L 193.3056 244.603091 
L 194.604218 246.182473 
L 195.902836 247.742427 
L 197.201455 249.282674 
L 198.500073 250.802936 
L 199.798691 252.302933 
L 201.097309 253.782386 
L 202.395927 255.241018 
L 203.694545 256.678548 
L 204.993164 258.094697 
L 206.291782 259.489189 
L 207.5904 260.861742 
L 208.889018 262.212078 
L 210.187636 263.539919 
L 211.486255 264.844986 
L 212.784873 266.126999 
L 214.083491 267.38568 
L 215.382109 268.620751 
L 216.680727 269.831931 
L 217.979345 271.018942 
L 219.277964 272.181506 
L 220.576582 273.319344 
L 221.8752 274.432176 
L 223.173818 275.519723 
L 224.472436 276.581708 
L 225.771055 277.617851 
L 227.069673 278.627872 
L 228.368291 279.611495 
L 229.666909 280.568438 
L 230.965527 281.498424 
L 232.264145 282.401174 
L 233.562764 283.276408 
L 234.861382 284.123849 
L 236.16 284.943216 
L 237.458618 285.734232 
L 238.757236 286.496617 
L 240.055855 287.230092 
L 241.354473 287.934379 
L 242.653091 288.609199 
L 243.951709 289.254272 
L 245.250327 289.869321 
L 246.548945 290.454065 
L 247.847564 291.008227 
L 249.146182 291.531527 
L 250.4448 292.023687 
L 251.743418 292.484427 
L 253.042036 292.913469 
L 254.340655 293.310534 
L 255.639273 293.675343 
L 256.937891 294.007617 
L 258.236509 294.307077 
L 259.535127 294.573445 
L 260.833745 294.806441 
L 262.132364 295.005787 
L 263.430982 295.171203 
L 264.7296 295.302412 
L 266.028218 295.399133 
L 267.326836 295.461089 
L 268.625455 295.488 
L 269.924073 295.479587 
L 271.222691 295.435572 
L 272.521309 295.355676 
L 273.819927 295.23962 
L 275.118545 295.087124 
L 276.417164 294.89791 
L 277.715782 294.6717 
L 279.0144 294.408214 
L 280.313018 294.107174 
L 281.611636 293.7683 
L 282.910255 293.391314 
L 284.208873 292.975936 
L 285.507491 292.521889 
L 286.806109 292.028893 
" clip-path="url(#pdc77e55358)" style="fill: none; stroke: #0000ff; stroke-width: 1.5; stroke-linecap: square"/>
   </g>
   <g id="line2d_4">
    <path d="M 288.104727 291.496669 
L 289.403345 290.924938 
L 290.701964 290.313422 
L 292.000582 289.661841 
L 293.2992 288.969918 
L 294.597818 288.237372 
L 295.896436 287.463925 
L 297.195055 286.649298 
L 298.493673 285.793213 
L 299.792291 284.89539 
L 301.090909 283.95555 
L 302.389527 282.973416 
L 303.688145 281.948707 
L 304.986764 280.881145 
L 306.285382 279.770451 
L 307.584 278.616346 
L 308.882618 277.418551 
L 310.181236 276.176788 
L 311.479855 274.890778 
L 312.778473 273.560241 
L 314.077091 272.184899 
L 315.375709 270.764473 
L 316.674327 269.298684 
L 317.972945 267.787254 
L 319.271564 266.229902 
L 320.570182 264.626352 
L 321.8688 262.976322 
L 323.167418 261.279536 
L 324.466036 259.535713 
L 325.764655 257.744576 
L 327.063273 255.905844 
L 328.361891 254.01924 
L 329.660509 252.084484 
L 330.959127 250.101298 
L 332.257745 248.069403 
L 333.556364 245.988519 
L 334.854982 243.858368 
L 336.1536 241.678671 
L 337.452218 239.449149 
L 338.750836 237.169524 
L 340.049455 234.839516 
L 341.348073 232.458846 
L 342.646691 230.027237 
L 343.945309 227.544408 
L 345.243927 225.010081 
L 346.542545 222.423977 
L 347.841164 219.785817 
L 349.139782 217.095323 
L 350.4384 214.352215 
L 351.737018 211.556215 
L 353.035636 208.707043 
L 354.334255 205.804422 
L 355.632873 202.848071 
L 356.931491 199.837712 
L 358.230109 196.773067 
L 359.528727 193.653856 
L 360.827345 190.4798 
L 362.125964 187.250622 
L 363.424582 183.966041 
L 364.7232 180.625778 
L 366.021818 177.229556 
L 367.320436 173.777095 
L 368.619055 170.268116 
L 369.917673 166.702341 
L 371.216291 163.07949 
L 372.514909 159.399285 
L 373.813527 155.661447 
L 375.112145 151.865697 
L 376.410764 148.011755 
L 377.709382 144.099344 
L 379.008 140.128184 
L 380.306618 136.097997 
L 381.605236 132.008503 
L 382.903855 127.859424 
L 384.202473 123.650481 
" clip-path="url(#pdc77e55358)" style="fill: none; stroke: #0000ff; stroke-width: 1.5; stroke-linecap: square"/>
   </g>
   <g id="line2d_5">
    <path d="M 385.501091 119.381395 
L 386.799709 115.051887 
L 388.098327 110.661678 
L 389.396945 106.210489 
L 390.695564 101.698042 
L 391.994182 97.124058 
L 393.2928 92.488257 
L 394.591418 87.790361 
L 395.890036 83.030091 
L 397.188655 78.207169 
L 398.487273 73.321314 
" clip-path="url(#pdc77e55358)" style="fill: none; stroke-dasharray: 5.55,2.4; stroke-dashoffset: 0; stroke: #008000; stroke-width: 1.5"/>
   </g>
  </g>
 </g>
 <defs>
  <clipPath id="pdc77e55358">
   <rect x="57.6" y="41.472" width="357.12" height="266.112"/>
  </clipPath>
 </defs>
</svg>
