
<?xml version="1.0" encoding="utf-8" standalone="no"?>
<!DOCTYPE svg PUBLIC "-//W3C//DTD SVG 1.1//EN"
  "http://www.w3.org/Graphics/SVG/1.1/DTD/svg11.dtd">
<svg xmlns:xlink="http://www.w3.org/1999/xlink" width="460.8pt" height="345.6pt" viewBox="0 0 460.8 345.6" xmlns="http://www.w3.org/2000/svg" version="1.1">
 <metadata>
  <rdf:RDF xmlns:dc="http://purl.org/dc/elements/1.1/" xmlns:cc="http://creativecommons.org/ns#" xmlns:rdf="http://www.w3.org/1999/02/22-rdf-syntax-ns#">
   <cc:Work>
    <dc:type rdf:resource="http://purl.org/dc/dcmitype/StillImage"/>
    <dc:date>2022-05-29T10:11:08.126155</dc:date>
    <dc:format>image/svg+xml</dc:format>
    <dc:creator>
     <cc:Agent>
      <dc:title>Matplotlib v3.5.1, https://matplotlib.org/</dc:title>
     </cc:Agent>
    </dc:creator>
   </cc:Work>
  </rdf:RDF>
 </metadata>
 <defs>
  <style type="text/css">*{stroke-linejoin: round; stroke-linecap: butt}</style>
 </defs>
 <g id="figure_1">
  <g id="patch_1">
   <path d="M 0 345.6 
L 460.8 345.6 
L 460.8 0 
L 0 0 
z
" style="fill: #ffffff"/>
  </g>
  <g id="axes_1">
   <g id="patch_2">
    <path d="M 57.6 307.584 
L 414.72 307.584 
L 414.72 41.472 
L 57.6 41.472 
z
" style="fill: #ffffff"/>
   </g>
   <g id="PathCollection_1">
    <defs>
     <path id="ma5e8f1916f" d="M 0 3 
C 0.795609 3 1.55874 2.683901 2.12132 2.12132 
C 2.683901 1.55874 3 0.795609 3 0 
C 3 -0.795609 2.683901 -1.55874 2.12132 -2.12132 
C 1.55874 -2.683901 0.795609 -3 0 -3 
C -0.795609 -3 -1.55874 -2.683901 -2.12132 -2.12132 
C -2.683901 -1.55874 -3 -0.795609 -3 0 
C -3 0.795609 -2.683901 1.55874 -2.12132 2.12132 
C -1.55874 2.683901 -0.795609 3 0 3 
z
" style="stroke: #ff8c00"/>
    </defs>
    <g clip-path="url(#p4feedeb790)">
     <use xlink:href="#ma5e8f1916f" x="114.414545" y="117.422263" style="fill: #ff8c00; stroke: #ff8c00"/>
    </g>
   </g>
   <g id="PathCollection_2">
    <defs>
     <path id="mc8f0d9b91b" d="M 0 3 
C 0.795609 3 1.55874 2.683901 2.12132 2.12132 
C 2.683901 1.55874 3 0.795609 3 0 
C 3 -0.795609 2.683901 -1.55874 2.12132 -2.12132 
C 1.55874 -2.683901 0.795609 -3 0 -3 
C -0.795609 -3 -1.55874 -2.683901 -2.12132 -2.12132 
C -2.683901 -1.55874 -3 -0.795609 -3 0 
C -3 0.795609 -2.683901 1.55874 -2.12132 2.12132 
C -1.55874 2.683901 -0.795609 3 0 3 
z
" style="stroke: #1e90ff"/>
    </defs>
    <g clip-path="url(#p4feedeb790)">
     <use xlink:href="#mc8f0d9b91b" x="201.375584" y="249.347441" style="fill: #1e90ff; stroke: #1e90ff"/>
    </g>
   </g>
   <g id="PathCollection_3">
    <g clip-path="url(#p4feedeb790)">
     <use xlink:href="#mc8f0d9b91b" x="288.336623" y="292.083766" style="fill: #1e90ff; stroke: #1e90ff"/>
    </g>
   </g>
   <g id="PathCollection_4">
    <g clip-path="url(#p4feedeb790)">
     <use xlink:href="#ma5e8f1916f" x="375.297662" y="145.29378" style="fill: #ff8c00; stroke: #ff8c00"/>
    </g>
   </g>
   <g id="matplotlib.axis_1">
    <g id="xtick_1">
     <g id="line2d_1">
      <defs>
       <path id="md004207cb5" d="M 0 0 
L 0 3.5 
" style="stroke: #000000; stroke-width: 0.8"/>
      </defs>
      <g>
       <use xlink:href="#md004207cb5" x="85.427532" y="307.584" style="stroke: #000000; stroke-width: 0.8"/>
      </g>
     </g>
     <g id="text_1">
      <!-- 2 -->
      <g transform="translate(82.427532 321.654312)scale(0.1 -0.1)">
       <defs>
        <path id="LXGWWenKai-Regular-32" d="M 2355 45 
L 1568 45 
Q 1050 45 659 -26 
L 627 -26 
Q 518 -26 441 76 
Q 365 179 365 256 
Q 365 333 397 384 
Q 429 435 467 476 
Q 506 518 531 563 
Q 717 883 1113 1328 
Q 1510 1773 1980 2160 
Q 2451 2547 2665 2867 
Q 2880 3187 2880 3488 
Q 2880 3789 2688 3971 
Q 2496 4154 2102 4154 
Q 1709 4154 1456 3981 
Q 1203 3808 1094 3526 
Q 1069 3462 1008 3411 
Q 947 3360 864 3360 
Q 781 3360 704 3472 
Q 627 3584 627 3651 
Q 627 3718 716 3865 
Q 806 4013 986 4173 
Q 1434 4563 2061 4563 
Q 2688 4563 3021 4268 
Q 3354 3974 3354 3532 
Q 3354 3091 3075 2694 
Q 2797 2298 2317 1901 
Q 1370 1133 928 410 
Q 1248 442 1882 442 
L 2816 435 
L 3232 442 
Q 3315 442 3382 326 
Q 3450 211 3450 102 
Q 3450 -6 3354 -6 
Q 3290 -6 3050 19 
Q 2810 45 2355 45 
z
" transform="scale(0.015625)"/>
       </defs>
       <use xlink:href="#LXGWWenKai-Regular-32"/>
      </g>
     </g>
    </g>
    <g id="xtick_2">
     <g id="line2d_2">
      <g>
       <use xlink:href="#md004207cb5" x="143.401558" y="307.584" style="stroke: #000000; stroke-width: 0.8"/>
      </g>
     </g>
     <g id="text_2">
      <!-- 3 -->
      <g transform="translate(140.401558 321.654312)scale(0.1 -0.1)">
       <defs>
        <path id="LXGWWenKai-Regular-33" d="M 2016 2253 
Q 1779 2253 1491 2195 
Q 1402 2195 1338 2297 
Q 1274 2400 1274 2493 
Q 1274 2586 1350 2592 
Q 2202 2675 2592 3078 
Q 2784 3277 2784 3526 
Q 2784 4166 2035 4166 
Q 1440 4166 960 3648 
Q 902 3565 826 3565 
Q 813 3565 710 3632 
Q 608 3699 608 3814 
Q 608 3930 678 3987 
Q 1229 4563 2022 4563 
Q 2566 4563 2899 4300 
Q 3232 4038 3232 3609 
Q 3232 3181 3008 2905 
Q 2784 2630 2387 2509 
Q 2682 2509 2918 2371 
Q 3155 2234 3296 1984 
Q 3437 1734 3437 1363 
Q 3437 992 3257 646 
Q 3078 301 2704 93 
Q 2330 -115 1824 -115 
Q 1318 -115 1004 16 
Q 691 147 429 403 
Q 378 454 378 553 
Q 378 653 445 765 
Q 512 877 566 877 
Q 621 877 659 838 
Q 864 582 1117 435 
Q 1370 288 1776 288 
Q 2182 288 2457 441 
Q 2733 595 2857 848 
Q 2982 1101 2982 1389 
Q 2982 1779 2710 2016 
Q 2438 2253 2016 2253 
z
" transform="scale(0.015625)"/>
       </defs>
       <use xlink:href="#LXGWWenKai-Regular-33"/>
      </g>
     </g>
    </g>
    <g id="xtick_3">
     <g id="line2d_3">
      <g>
       <use xlink:href="#md004207cb5" x="201.375584" y="307.584" style="stroke: #000000; stroke-width: 0.8"/>
      </g>
     </g>
     <g id="text_3">
      <!-- 4 -->
      <g transform="translate(198.375584 321.654312)scale(0.1 -0.1)">
       <defs>
        <path id="LXGWWenKai-Regular-34" d="M 3578 1018 
L 2982 1030 
L 2861 1024 
L 2861 659 
L 2886 -6 
Q 2886 -70 2768 -70 
Q 2650 -70 2528 -22 
Q 2406 26 2406 109 
L 2419 672 
L 2419 1005 
L 902 928 
Q 806 928 729 905 
Q 653 883 585 883 
Q 518 883 422 976 
Q 326 1069 326 1161 
Q 326 1254 377 1328 
Q 429 1402 489 1475 
Q 550 1549 595 1613 
Q 1792 3501 1984 3859 
Q 2176 4218 2298 4506 
Q 2317 4550 2368 4550 
Q 2419 4550 2496 4493 
Q 2688 4352 2688 4205 
Q 2688 4179 2669 4147 
L 2438 3789 
Q 1376 2061 864 1318 
L 2419 1389 
L 2419 2675 
L 2400 3360 
Q 2400 3424 2518 3424 
Q 2637 3424 2755 3376 
Q 2874 3328 2874 3245 
L 2861 2675 
L 2861 1408 
L 2976 1414 
Q 3104 1421 3241 1437 
Q 3379 1453 3452 1453 
Q 3526 1453 3587 1334 
Q 3648 1216 3648 1117 
Q 3648 1018 3578 1018 
z
" transform="scale(0.015625)"/>
       </defs>
       <use xlink:href="#LXGWWenKai-Regular-34"/>
      </g>
     </g>
    </g>
    <g id="xtick_4">
     <g id="line2d_4">
      <g>
       <use xlink:href="#md004207cb5" x="259.34961" y="307.584" style="stroke: #000000; stroke-width: 0.8"/>
      </g>
     </g>
     <g id="text_4">
      <!-- 5 -->
      <g transform="translate(256.34961 321.654312)scale(0.1 -0.1)">
       <defs>
        <path id="LXGWWenKai-Regular-35" d="M 1056 2515 
Q 1453 2829 2003 2829 
L 2061 2829 
Q 2419 2822 2732 2656 
Q 3046 2490 3241 2182 
Q 3437 1875 3437 1449 
Q 3437 1024 3264 669 
Q 3091 314 2726 96 
Q 2362 -122 1862 -122 
Q 1363 -122 1030 48 
Q 698 218 461 474 
Q 416 518 416 624 
Q 416 730 483 848 
Q 550 966 611 966 
Q 672 966 698 922 
Q 864 678 1136 486 
Q 1408 294 1779 288 
L 1792 288 
Q 2202 288 2467 445 
Q 2733 602 2864 864 
Q 2995 1126 2995 1427 
Q 2995 1914 2707 2176 
Q 2419 2438 2003 2445 
L 1978 2445 
Q 1574 2445 1337 2301 
Q 1101 2157 883 1958 
Q 864 1939 806 1939 
Q 749 1939 665 2028 
Q 582 2118 582 2204 
Q 582 2291 653 2534 
L 896 4070 
Q 909 4141 909 4211 
L 909 4346 
Q 909 4429 1021 4429 
Q 1133 4429 1274 4358 
L 2605 4454 
Q 2918 4474 3034 4493 
L 3046 4493 
Q 3117 4493 3177 4381 
Q 3238 4269 3238 4173 
Q 3238 4077 3162 4077 
Q 3078 4070 2937 4067 
Q 2797 4064 2656 4051 
L 1299 3949 
L 1056 2515 
z
" transform="scale(0.015625)"/>
       </defs>
       <use xlink:href="#LXGWWenKai-Regular-35"/>
      </g>
     </g>
    </g>
    <g id="xtick_5">
     <g id="line2d_5">
      <g>
       <use xlink:href="#md004207cb5" x="317.323636" y="307.584" style="stroke: #000000; stroke-width: 0.8"/>
      </g>
     </g>
     <g id="text_5">
      <!-- 6 -->
      <g transform="translate(314.323636 321.654312)scale(0.1 -0.1)">
       <defs>
        <path id="LXGWWenKai-Regular-36" d="M 858 1261 
Q 858 832 1139 557 
Q 1421 282 1939 282 
Q 2458 282 2733 608 
Q 3008 934 3008 1434 
Q 3008 1696 2886 1917 
Q 2765 2138 2547 2272 
Q 2330 2406 1994 2406 
Q 1658 2406 1395 2249 
Q 1133 2093 995 1833 
Q 858 1574 858 1261 
z
M 1107 2445 
Q 1498 2790 2048 2790 
Q 2432 2790 2755 2617 
Q 3078 2445 3270 2141 
Q 3462 1837 3462 1437 
Q 3462 1037 3292 678 
Q 3123 320 2784 105 
Q 2445 -109 1955 -109 
Q 1466 -109 1123 73 
Q 781 256 592 566 
Q 403 877 403 1273 
Q 403 1670 560 2115 
Q 717 2560 1033 3101 
Q 1350 3642 1590 4003 
Q 1830 4365 1849 4413 
Q 1869 4461 1894 4499 
Q 1933 4570 2083 4570 
Q 2234 4570 2320 4525 
Q 2406 4480 2406 4409 
Q 2406 4339 2342 4275 
Q 1888 3757 1568 3241 
Q 1248 2726 1107 2445 
z
" transform="scale(0.015625)"/>
       </defs>
       <use xlink:href="#LXGWWenKai-Regular-36"/>
      </g>
     </g>
    </g>
    <g id="xtick_6">
     <g id="line2d_6">
      <g>
       <use xlink:href="#md004207cb5" x="375.297662" y="307.584" style="stroke: #000000; stroke-width: 0.8"/>
      </g>
     </g>
     <g id="text_6">
      <!-- 7 -->
      <g transform="translate(372.297662 321.654312)scale(0.1 -0.1)">
       <defs>
        <path id="LXGWWenKai-Regular-37" d="M 3392 4205 
Q 3366 4115 3296 4003 
Q 3226 3891 3072 3584 
Q 1997 1402 1626 32 
Q 1606 -70 1414 -70 
Q 1222 -70 1180 0 
Q 1139 70 1139 144 
Q 1139 218 1628 1424 
Q 2118 2630 2829 4064 
L 1005 3904 
Q 960 3898 912 3888 
Q 864 3878 777 3878 
Q 691 3878 620 3964 
Q 550 4051 521 4147 
Q 493 4243 493 4256 
Q 493 4314 531 4314 
L 762 4301 
L 2816 4448 
Q 2893 4454 2960 4473 
Q 3027 4493 3085 4493 
L 3104 4493 
Q 3187 4486 3289 4390 
Q 3392 4294 3392 4205 
z
" transform="scale(0.015625)"/>
       </defs>
       <use xlink:href="#LXGWWenKai-Regular-37"/>
      </g>
     </g>
    </g>
   </g>
   <g id="matplotlib.axis_2">
    <g id="ytick_1">
     <g id="line2d_7">
      <defs>
       <path id="m636ec4977a" d="M 0 0 
L -3.5 0 
" style="stroke: #000000; stroke-width: 0.8"/>
      </defs>
      <g>
       <use xlink:href="#m636ec4977a" x="57.6" y="293.941867" style="stroke: #000000; stroke-width: 0.8"/>
      </g>
     </g>
     <g id="text_7">
      <!-- 0 -->
      <g transform="translate(44.6 297.477023)scale(0.1 -0.1)">
       <defs>
        <path id="LXGWWenKai-Regular-30" d="M 1107 858 
Q 1210 595 1402 441 
Q 1594 288 1930 288 
Q 2266 288 2490 563 
Q 2918 1082 2918 2339 
Q 2918 3597 2432 4006 
Q 2246 4160 2035 4160 
Q 1626 4160 1277 3619 
Q 928 3078 928 2198 
Q 928 1318 1107 858 
z
M 717 3622 
Q 819 3904 928 4061 
Q 1037 4218 1107 4218 
Q 1178 4218 1242 4141 
Q 1606 4563 2035 4563 
Q 2464 4563 2771 4262 
Q 3379 3667 3379 2266 
Q 3379 1274 3021 602 
Q 2624 -115 1894 -115 
Q 1165 -115 794 557 
Q 467 1152 467 2054 
Q 467 2957 717 3622 
z
" transform="scale(0.015625)"/>
       </defs>
       <use xlink:href="#LXGWWenKai-Regular-30"/>
      </g>
     </g>
    </g>
    <g id="ytick_2">
     <g id="line2d_8">
      <g>
       <use xlink:href="#m636ec4977a" x="57.6" y="244.392504" style="stroke: #000000; stroke-width: 0.8"/>
      </g>
     </g>
     <g id="text_8">
      <!-- 10 -->
      <g transform="translate(38.6 247.927661)scale(0.1 -0.1)">
       <defs>
        <path id="LXGWWenKai-Regular-31" d="M 1773 109 
L 1786 672 
L 1786 3878 
Q 1555 3744 1178 3661 
Q 1165 3654 1101 3654 
Q 1037 3654 944 3705 
Q 851 3757 851 3808 
Q 851 3859 922 3885 
Q 1536 4128 1811 4442 
Q 1901 4544 1977 4544 
Q 2054 4544 2172 4467 
Q 2291 4390 2291 4304 
Q 2291 4218 2272 4099 
Q 2253 3981 2253 3840 
L 2253 710 
L 2266 -6 
Q 2266 -70 2144 -70 
Q 2022 -70 1897 -22 
Q 1773 26 1773 109 
z
" transform="scale(0.015625)"/>
       </defs>
       <use xlink:href="#LXGWWenKai-Regular-31"/>
       <use xlink:href="#LXGWWenKai-Regular-30" x="59.999985"/>
      </g>
     </g>
    </g>
    <g id="ytick_3">
     <g id="line2d_9">
      <g>
       <use xlink:href="#m636ec4977a" x="57.6" y="194.843142" style="stroke: #000000; stroke-width: 0.8"/>
      </g>
     </g>
     <g id="text_9">
      <!-- 20 -->
      <g transform="translate(38.6 198.378298)scale(0.1 -0.1)">
       <use xlink:href="#LXGWWenKai-Regular-32"/>
       <use xlink:href="#LXGWWenKai-Regular-30" x="59.999985"/>
      </g>
     </g>
    </g>
    <g id="ytick_4">
     <g id="line2d_10">
      <g>
       <use xlink:href="#m636ec4977a" x="57.6" y="145.29378" style="stroke: #000000; stroke-width: 0.8"/>
      </g>
     </g>
     <g id="text_10">
      <!-- 30 -->
      <g transform="translate(38.6 148.828936)scale(0.1 -0.1)">
       <use xlink:href="#LXGWWenKai-Regular-33"/>
       <use xlink:href="#LXGWWenKai-Regular-30" x="59.999985"/>
      </g>
     </g>
    </g>
    <g id="ytick_5">
     <g id="line2d_11">
      <g>
       <use xlink:href="#m636ec4977a" x="57.6" y="95.744417" style="stroke: #000000; stroke-width: 0.8"/>
      </g>
     </g>
     <g id="text_11">
      <!-- 40 -->
      <g transform="translate(38.6 99.279573)scale(0.1 -0.1)">
       <use xlink:href="#LXGWWenKai-Regular-34"/>
       <use xlink:href="#LXGWWenKai-Regular-30" x="59.999985"/>
      </g>
     </g>
    </g>
    <g id="ytick_6">
     <g id="line2d_12">
      <g>
       <use xlink:href="#m636ec4977a" x="57.6" y="46.195055" style="stroke: #000000; stroke-width: 0.8"/>
      </g>
     </g>
     <g id="text_12">
      <!-- 50 -->
      <g transform="translate(38.6 49.730211)scale(0.1 -0.1)">
       <use xlink:href="#LXGWWenKai-Regular-35"/>
       <use xlink:href="#LXGWWenKai-Regular-30" x="59.999985"/>
      </g>
     </g>
    </g>
   </g>
   <g id="line2d_13">
    <path d="M 73.832727 53.568 
L 74.412468 54.415586 
L 74.992208 55.26572 
L 75.571948 56.11837 
L 76.151688 56.973508 
L 76.731429 57.831103 
L 77.311169 58.691127 
L 77.890909 59.553548 
L 78.470649 60.418338 
L 79.05039 61.285467 
L 79.63013 62.154904 
L 80.20987 63.026621 
L 80.78961 63.900588 
L 81.369351 64.776774 
L 81.949091 65.655151 
L 82.528831 66.535687 
L 83.108571 67.418355 
L 83.688312 68.303123 
L 84.268052 69.189963 
L 84.847792 70.078843 
L 85.427532 70.969736 
L 86.007273 71.862611 
L 86.587013 72.757437 
L 87.166753 73.654187 
L 87.746494 74.552829 
L 88.326234 75.453334 
L 88.905974 76.355672 
L 89.485714 77.259815 
L 90.065455 78.16573 
L 90.645195 79.073391 
L 91.224935 79.982765 
L 91.804675 80.893824 
L 92.384416 81.806538 
L 92.964156 82.720878 
L 93.543896 83.636813 
L 94.123636 84.554313 
L 94.703377 85.47335 
L 95.283117 86.393893 
L 95.862857 87.315912 
L 96.442597 88.239378 
L 97.022338 89.164262 
L 97.602078 90.090533 
L 98.181818 91.018161 
L 98.761558 91.947118 
L 99.341299 92.877372 
L 99.921039 93.808895 
L 100.500779 94.741657 
L 101.080519 95.675628 
L 101.66026 96.610778 
L 102.24 97.547078 
L 102.81974 98.484497 
L 103.399481 99.423006 
L 103.979221 100.362576 
L 104.558961 101.303177 
L 105.138701 102.244778 
L 105.718442 103.187351 
L 106.298182 104.130865 
L 106.877922 105.075291 
L 107.457662 106.020598 
L 108.037403 106.966758 
L 108.617143 107.913741 
L 109.196883 108.861516 
L 109.776623 109.810054 
L 110.356364 110.759326 
L 110.936104 111.709301 
L 111.515844 112.65995 
L 112.095584 113.611243 
L 112.675325 114.563151 
L 113.255065 115.515643 
L 113.834805 116.468691 
" clip-path="url(#p4feedeb790)" style="fill: none; stroke-dasharray: 5.55,2.4; stroke-dashoffset: 0; stroke: #008000; stroke-width: 1.5"/>
   </g>
   <g id="line2d_14">
    <path d="M 114.414545 117.422263 
L 149.198961 174.473399 
L 159.054545 190.073605 
L 167.750649 203.412764 
L 175.287273 214.569362 
L 182.244156 224.47533 
L 188.621299 233.179721 
L 194.418701 240.746305 
L 200.216104 247.95217 
L 200.795844 248.651772 
L 200.795844 248.651772 
" clip-path="url(#p4feedeb790)" style="fill: none; stroke: #ff0000; stroke-width: 1.5; stroke-linecap: square"/>
   </g>
   <g id="line2d_15">
    <path d="M 201.375584 249.347441 
L 206.593247 255.426508 
L 211.810909 261.162823 
L 216.448831 265.956506 
L 221.086753 270.447026 
L 225.724675 274.619161 
L 229.782857 277.996639 
L 233.841039 281.108503 
L 237.899221 283.944554 
L 241.957403 286.494597 
L 246.015584 288.748434 
L 249.494026 290.436809 
L 252.972468 291.89365 
L 256.450909 293.112534 
L 259.929351 294.087041 
L 263.407792 294.810749 
L 266.886234 295.277237 
L 270.364675 295.480082 
L 273.263377 295.443093 
L 276.162078 295.214844 
L 279.060779 294.791618 
L 281.959481 294.1697 
L 284.858182 293.345372 
L 287.756883 292.314918 
L 287.756883 292.314918 
" clip-path="url(#p4feedeb790)" style="fill: none; stroke: #0000ff; stroke-width: 1.5; stroke-linecap: square"/>
   </g>
   <g id="line2d_16">
    <path d="M 288.336623 292.083766 
L 291.235325 290.801056 
L 294.134026 289.304046 
L 297.032727 287.589019 
L 299.931429 285.652258 
L 303.40987 283.030225 
L 306.888312 280.077123 
L 310.366753 276.78653 
L 313.845195 273.152024 
L 317.323636 269.167185 
L 320.802078 264.825591 
L 324.280519 260.12082 
L 327.758961 255.04645 
L 331.237403 249.596059 
L 334.715844 243.763227 
L 338.194286 237.541532 
L 342.252468 229.78284 
L 346.310649 221.475924 
L 350.368831 212.610587 
L 354.427013 203.176631 
L 358.485195 193.16386 
L 362.543377 182.562075 
L 366.601558 171.36108 
L 370.65974 159.550677 
L 374.717922 147.12067 
L 374.717922 147.12067 
" clip-path="url(#p4feedeb790)" style="fill: none; stroke: #0000ff; stroke-width: 1.5; stroke-linecap: square"/>
   </g>
   <g id="line2d_17">
    <path d="M 375.297662 145.29378 
L 375.877403 143.454007 
L 376.457143 141.601321 
L 377.036883 139.735694 
L 377.616623 137.857094 
L 378.196364 135.965493 
L 378.776104 134.06086 
L 379.355844 132.143166 
L 379.935584 130.212381 
L 380.515325 128.268475 
L 381.095065 126.311419 
L 381.674805 124.341183 
L 382.254545 122.357737 
L 382.834286 120.361051 
L 383.414026 118.351096 
L 383.993766 116.327842 
L 384.573506 114.291259 
L 385.153247 112.241318 
L 385.732987 110.177988 
L 386.312727 108.10124 
L 386.892468 106.011045 
L 387.472208 103.907372 
L 388.051948 101.790193 
L 388.631688 99.659476 
L 389.211429 97.515193 
L 389.791169 95.357313 
L 390.370909 93.185807 
L 390.950649 91.000646 
L 391.53039 88.801798 
L 392.11013 86.589236 
L 392.68987 84.362929 
L 393.26961 82.122847 
L 393.849351 79.86896 
L 394.429091 77.601239 
L 395.008831 75.319655 
L 395.588571 73.024176 
L 396.168312 70.714775 
L 396.748052 68.39142 
L 397.327792 66.054083 
L 397.907532 63.702732 
L 398.487273 61.33734 
" clip-path="url(#p4feedeb790)" style="fill: none; stroke-dasharray: 5.55,2.4; stroke-dashoffset: 0; stroke: #008000; stroke-width: 1.5"/>
   </g>
   <g id="patch_3">
    <path d="M 57.6 307.584 
L 57.6 41.472 
" style="fill: none; stroke: #000000; stroke-width: 0.8; stroke-linejoin: miter; stroke-linecap: square"/>
   </g>
   <g id="patch_4">
    <path d="M 414.72 307.584 
L 414.72 41.472 
" style="fill: none; stroke: #000000; stroke-width: 0.8; stroke-linejoin: miter; stroke-linecap: square"/>
   </g>
   <g id="patch_5">
    <path d="M 57.6 307.584 
L 414.72 307.584 
" style="fill: none; stroke: #000000; stroke-width: 0.8; stroke-linejoin: miter; stroke-linecap: square"/>
   </g>
   <g id="patch_6">
    <path d="M 57.6 41.472 
L 414.72 41.472 
" style="fill: none; stroke: #000000; stroke-width: 0.8; stroke-linejoin: miter; stroke-linecap: square"/>
   </g>
  </g>
 </g>
 <defs>
  <clipPath id="p4feedeb790">
   <rect x="57.6" y="41.472" width="357.12" height="266.112"/>
  </clipPath>
 </defs>
</svg>
