<svg xmlns="http://www.w3.org/2000/svg" viewBox="0 0 851.3937 152.23514"><defs><style>.cls-1{fill:#fff;stroke:#231815;stroke-miterlimit:10;}.cls-2{font-size:50px;}.cls-2,.cls-3{font-family:Consolas;}.cls-3{font-size:25px;}</style></defs><g id="图层_1" data-name="图层 1"><rect class="cls-1" x="0.5" y="0.5" width="85.03937" height="141.73228"/><text class="cls-2" transform="translate(29.13106 87.12176) scale(1.01044 1)">A</text><text class="cls-3" transform="translate(2.0598 21.13384) scale(1.01044 1)">A</text><text class="cls-3" transform="translate(70.09087 137.35431) scale(1.01044 1)">A</text></g><g id="图层_2" data-name="图层 2"><rect class="cls-1" x="85.53937" y="0.5" width="85.03937" height="141.73228"/><text class="cls-2" transform="translate(114.17043 87.12176) scale(1.01044 1)">2</text><text class="cls-3" transform="translate(87.09917 21.13384) scale(1.01044 1)">2</text><text class="cls-3" transform="translate(155.13023 137.35431) scale(1.01044 1)">2</text></g><g id="图层_3" data-name="图层 3"><rect class="cls-1" x="170.57874" y="0.50125" width="85.03937" height="141.73228"/><text class="cls-2" transform="translate(199.2098 87.12301) scale(1.01044 1)">3</text><text class="cls-3" transform="translate(172.13855 21.13509) scale(1.01044 1)">3</text><text class="cls-3" transform="translate(240.16959 137.35557) scale(1.01044 1)">3</text></g><g id="图层_4" data-name="图层 4"><rect class="cls-1" x="255.61811" y="0.50125" width="85.03937" height="141.73228"/><text class="cls-2" transform="translate(284.24917 87.12301) scale(1.01044 1)">4</text><text class="cls-3" transform="translate(257.17792 21.13509) scale(1.01044 1)">4</text><text class="cls-3" transform="translate(325.20897 137.35556) scale(1.01044 1)">4</text></g><g id="图层_5" data-name="图层 5"><rect class="cls-1" x="340.65748" y="0.50125" width="85.03937" height="141.73228"/><text class="cls-2" transform="translate(369.28853 87.12301) scale(1.01044 1)">5</text><text class="cls-3" transform="translate(342.21729 21.13509) scale(1.01044 1)">5</text><text class="cls-3" transform="translate(410.24834 137.35556) scale(1.01044 1)">5</text></g><g id="图层_6" data-name="图层 6"><rect class="cls-1" x="425.69685" y="0.50125" width="85.03937" height="141.73228"/><text class="cls-2" transform="translate(454.3279 87.12301) scale(1.01044 1)">6</text><text class="cls-3" transform="translate(427.25665 21.13509) scale(1.01044 1)">6</text><text class="cls-3" transform="translate(495.28772 137.35556) scale(1.01044 1)">6</text></g><g id="图层_7" data-name="图层 7"><rect class="cls-1" x="510.73622" y="0.5" width="85.03937" height="141.73228"/><text class="cls-2" transform="translate(539.36728 87.12176) scale(1.01044 1)">7</text><text class="cls-3" transform="translate(512.29602 21.13384) scale(1.01044 1)">7</text><text class="cls-3" transform="translate(580.32709 137.35431) scale(1.01044 1)">7</text></g><g id="图层_8" data-name="图层 8"><rect class="cls-1" x="595.77559" y="0.50125" width="85.03937" height="141.73228"/><text class="cls-2" transform="translate(624.40665 87.12301) scale(1.01044 1)">8</text><text class="cls-3" transform="translate(597.33539 21.13509) scale(1.01044 1)">8</text><text class="cls-3" transform="translate(665.36646 137.35556) scale(1.01044 1)">8</text></g><g id="图层_9" data-name="图层 9"><rect class="cls-1" x="680.81496" y="0.50125" width="85.03937" height="141.73228"/><text class="cls-2" transform="translate(709.44601 87.12301) scale(1.01044 1)">9</text><text class="cls-3" transform="translate(682.37476 21.13509) scale(1.01044 1)">9</text><text class="cls-3" transform="translate(750.40582 137.35556) scale(1.01044 1)">9</text></g><g id="图层_10" data-name="图层 10"><rect class="cls-1" x="765.85433" y="0.50125" width="85.03937" height="141.73228"/><text class="cls-2" transform="translate(780.59668 87.12301) scale(1.01044 1)">10</text><text class="cls-3" transform="translate(767.41412 21.13509) scale(1.01044 1)">10</text><text class="cls-3" transform="translate(819.99738 137.35556) scale(1.01044 1)">10</text></g></svg>