<svg xmlns="http://www.w3.org/2000/svg" viewBox="0 0 460.8 345.6" height="345.6pt" width="460.8pt"><g xmlns="http://www.w3.org/2000/svg" transform="matrix(-1 0 0 -1 460.8 345.6)"><metadata><rdf:RDF xmlns:dc="http://purl.org/dc/elements/1.1/" xmlns:cc="http://creativecommons.org/ns#" xmlns:rdf="http://www.w3.org/1999/02/22-rdf-syntax-ns#"><cc:Work><dc:type rdf:resource="http://purl.org/dc/dcmitype/StillImage" /><dc:date>2022-07-12T17:50:56.736650</dc:date><dc:format>image/svg+xml</dc:format><dc:creator><cc:Agent><dc:title>Matplotlib v3.5.1, https://matplotlib.org/</dc:title></cc:Agent></dc:creator></cc:Work></rdf:RDF></metadata><defs><style type="text/css">*{stroke-linejoin: round; stroke-linecap: butt}</style></defs><g id="figure_1"><g id="patch_1"><path d="M 0 345.6  L 460.8 345.6  L 460.8 0  L 0 0  z " style="fill: #ffffff" /></g><g id="axes_1"><g id="PathCollection_1"><defs><path id="mf4fb47e788" d="M 0 3  C 0.795609 3 1.55874 2.683901 2.12132 2.12132  C 2.683901 1.55874 3 0.795609 3 0  C 3 -0.795609 2.683901 -1.55874 2.12132 -2.12132  C 1.55874 -2.683901 0.795609 -3 0 -3  C -0.795609 -3 -1.55874 -2.683901 -2.12132 -2.12132  C -2.683901 -1.55874 -3 -0.795609 -3 0  C -3 0.795609 -2.683901 1.55874 -2.12132 2.12132  C -1.55874 2.683901 -0.795609 3 0 3  z " style="stroke: #3cb371" /></defs><g clip-path="url(#p0caed65f19)"><use p7:href="#mf4fb47e788" x="254.196364" y="295.488" style="fill: #3cb371; stroke: #3cb371" xmlns:p7="http://www.w3.org/1999/xlink" /></g></g><g id="PathCollection_2"><defs><path id="m7cf3353be5" d="M 0 3  C 0.795609 3 1.55874 2.683901 2.12132 2.12132  C 2.683901 1.55874 3 0.795609 3 0  C 3 -0.795609 2.683901 -1.55874 2.12132 -2.12132  C 1.55874 -2.683901 0.795609 -3 0 -3  C -0.795609 -3 -1.55874 -2.683901 -2.12132 -2.12132  C -2.683901 -1.55874 -3 -0.795609 -3 0  C -3 0.795609 -2.683901 1.55874 -2.12132 2.12132  C -1.55874 2.683901 -0.795609 3 0 3  z " style="stroke: #ff8c00" /></defs><g clip-path="url(#p0caed65f19)"><use p7:href="#m7cf3353be5" x="109.905455" y="150.336" style="fill: #ff8c00; stroke: #ff8c00" xmlns:p7="http://www.w3.org/1999/xlink" /></g></g><g id="PathCollection_3"><defs><path id="md97bbbeb4f" d="M 0 3  C 0.795609 3 1.55874 2.683901 2.12132 2.12132  C 2.683901 1.55874 3 0.795609 3 0  C 3 -0.795609 2.683901 -1.55874 2.12132 -2.12132  C 1.55874 -2.683901 0.795609 -3 0 -3  C -0.795609 -3 -1.55874 -2.683901 -2.12132 -2.12132  C -2.683901 -1.55874 -3 -0.795609 -3 0  C -3 0.795609 -2.683901 1.55874 -2.12132 2.12132  C -1.55874 2.683901 -0.795609 3 0 3  z " style="stroke: #1e90ff" /></defs><g clip-path="url(#p0caed65f19)"><use p7:href="#md97bbbeb4f" x="182.050909" y="253.152" style="fill: #1e90ff; stroke: #1e90ff" xmlns:p7="http://www.w3.org/1999/xlink" /></g></g><g id="PathCollection_4"><g clip-path="url(#p0caed65f19)"><use p7:href="#md97bbbeb4f" x="355.2" y="184.059648" style="fill: #1e90ff; stroke: #1e90ff" xmlns:p7="http://www.w3.org/1999/xlink" /></g></g><g id="PathCollection_5"><g clip-path="url(#p0caed65f19)"><use p7:href="#m7cf3353be5" x="376.843636" y="125.944416" style="fill: #ff8c00; stroke: #ff8c00" xmlns:p7="http://www.w3.org/1999/xlink" /></g></g><g id="line2d_1"><path d="M 73.832727 87.588  L 75.636364 90.799015  L 77.44 94.005684  L 79.243636 97.207438  L 81.047273 100.403712  L 82.850909 103.593937  L 84.654545 106.777548  L 86.458182 109.953976  L 88.261818 113.122656  L 90.065455 116.283019  L 91.869091 119.4345  L 93.672727 122.57653  L 95.476364 125.708544  L 97.28 128.829973  L 99.083636 131.940252  L 100.887273 135.038812  L 102.690909 138.125088  L 104.494545 141.198511  L 106.298182 144.258516  L 108.101818 147.304534  " clip-path="url(#p0caed65f19)" style="fill: none; stroke-dasharray: 5.55,2.4; stroke-dashoffset: 0; stroke: #008000; stroke-width: 1.5" /></g><g id="line2d_2"><path d="M 109.905455 150.336  L 111.709091 153.352345  L 113.512727 156.353004  L 115.316364 159.337408  L 117.12 162.304992  L 118.923636 165.255187  L 120.727273 168.187428  L 122.530909 171.101146  L 124.334545 173.995776  L 126.138182 176.870749  L 127.941818 179.7255  L 129.745455 182.55946  L 131.549091 185.372064  L 133.352727 188.162743  L 135.156364 190.930932  L 136.96 193.676062  L 138.763636 196.397568  L 140.567273 199.094881  L 142.370909 201.767436  L 144.174545 204.414664  L 145.978182 207.036  L 147.781818 209.630875  L 149.585455 212.198724  L 151.389091 214.738978  L 153.192727 217.251072  L 154.996364 219.734437  L 156.8 222.188508  L 158.603636 224.612716  L 160.407273 227.006496  L 162.210909 229.369279  L 164.014545 231.7005  L 165.818182 233.99959  L 167.621818 236.265984  L 169.425455 238.499113  L 171.229091 240.698412  L 173.032727 242.863312  L 174.836364 244.993248  L 176.64 247.087651  L 178.443636 249.145956  L 180.247273 251.167594  " clip-path="url(#p0caed65f19)" style="fill: none; stroke: #0000ff; stroke-width: 1.5; stroke-linecap: square" /></g><g id="line2d_3"><path d="M 182.050909 253.152  L 183.854545 255.098605  L 185.658182 257.006844  L 187.461818 258.876148  L 189.265455 260.705952  L 191.069091 262.495687  L 192.872727 264.244788  L 194.676364 265.952686  L 196.48 267.618816  L 198.283636 269.242609  L 200.087273 270.8235  L 201.890909 272.36092  L 203.694545 273.854304  L 205.498182 275.303084  L 207.301818 276.706692  L 209.105455 278.064563  L 210.909091 279.376128  L 212.712727 280.640822  L 214.516364 281.858076  L 216.32 283.027325  L 218.123636 284.148  L 219.927273 285.219536  L 221.730909 286.241364  L 223.534545 287.212919  L 225.338182 288.133632  L 227.141818 289.002938  L 228.945455 289.820268  L 230.749091 290.585057  L 232.552727 291.296736  L 234.356364 291.95474  L 236.16 292.5585  L 237.963636 293.107451  L 239.767273 293.601024  L 241.570909 294.038654  L 243.374545 294.419772  L 245.178182 294.743812  L 246.981818 295.010208  L 248.785455 295.218391  L 250.589091 295.367796  L 252.392727 295.457854  L 254.196364 295.488  L 256 295.457666  L 257.803636 295.366284  L 259.607273 295.213288  L 261.410909 294.998112  L 263.214545 294.720188  L 265.018182 294.378948  L 266.821818 293.973826  L 268.625455 293.504256  L 270.429091 292.969669  L 272.232727 292.3695  L 274.036364 291.70318  L 275.84 290.970144  L 277.643636 290.169823  L 279.447273 289.301652  L 281.250909 288.365062  L 283.054545 287.359488  L 284.858182 286.284361  L 286.661818 285.139116  L 288.465455 283.923184  L 290.269091 282.636  L 292.072727 281.276995  L 293.876364 279.845604  L 295.68 278.341258  L 297.483636 276.763392  L 299.287273 275.111437  L 301.090909 273.384828  L 302.894545 271.582996  L 304.698182 269.705376  L 306.501818 267.751399  L 308.305455 265.7205  L 310.109091 263.61211  L 311.912727 261.425664  L 313.716364 259.160593  L 315.52 256.816332  L 317.323636 254.392312  L 319.127273 251.887968  L 320.930909 249.302731  L 322.734545 246.636036  L 324.538182 243.887314  L 326.341818 241.056  L 328.145455 238.141525  L 329.949091 235.143324  L 331.752727 232.060828  L 333.556364 228.893472  L 335.36 225.640687  L 337.163636 222.301908  L 338.967273 218.876566  L 340.770909 215.364096  L 342.574545 211.763929  L 344.378182 208.0755  L 346.181818 204.29824  L 347.985455 200.431584  L 349.789091 196.474963  L 351.592727 192.427812  L 353.396364 188.289562  " clip-path="url(#p0caed65f19)" style="fill: none; stroke: #0000ff; stroke-width: 1.5; stroke-linecap: square" /></g><g id="line2d_4"><path d="M 355.2 184.059648  L 357.003636 179.737501  L 358.807273 175.322556  L 360.610909 170.814244  L 362.414545 166.212  L 364.218182 161.515255  L 366.021818 156.723444  L 367.825455 151.835999  L 369.629091 146.852352  L 371.432727 141.771938  L 373.236364 136.594188  L 375.04 131.318537  L 376.843636 125.944416  " clip-path="url(#p0caed65f19)" style="fill: none; stroke: #ff0000; stroke-width: 1.5; stroke-linecap: square" /></g><g id="line2d_5"><path d="M 376.843636 125.944416  L 378.647273 120.471259  L 380.450909 114.8985  L 382.254545 109.22557  L 384.058182 103.451904  L 385.861818 97.576933  L 387.665455 91.600092  L 389.469091 85.520812  L 391.272727 79.338528  L 393.076364 73.052671  L 394.88 66.662676  L 396.683636 60.167975  L 398.487273 53.568  " clip-path="url(#p0caed65f19)" style="fill: none; stroke-dasharray: 5.55,2.4; stroke-dashoffset: 0; stroke: #008000; stroke-width: 1.5" /></g></g></g><defs><clipPath id="p0caed65f19"><rect x="57.6" y="41.472" width="357.12" height="266.112" /></clipPath></defs></g></svg>