<?xml version="1.0" encoding="UTF-8"?>
<svg xmlns="http://www.w3.org/2000/svg" xmlns:xlink="http://www.w3.org/1999/xlink" width="93.543pt" height="93.543pt" viewBox="0 0 93.543 93.543" version="1.1">
<defs>
<clipPath id="clip1">
  <path d="M 0 85 L 9 85 L 9 93.542969 L 0 93.542969 Z M 0 85 "/>
</clipPath>
<clipPath id="clip2">
  <path d="M 14 85 L 23 85 L 23 93.542969 L 14 93.542969 Z M 14 85 "/>
</clipPath>
<clipPath id="clip3">
  <path d="M 28 85 L 37 85 L 37 93.542969 L 28 93.542969 Z M 28 85 "/>
</clipPath>
<clipPath id="clip4">
  <path d="M 42 85 L 52 85 L 52 93.542969 L 42 93.542969 Z M 42 85 "/>
</clipPath>
<clipPath id="clip5">
  <path d="M 56 85 L 66 85 L 66 93.542969 L 56 93.542969 Z M 56 85 "/>
</clipPath>
<clipPath id="clip6">
  <path d="M 70 85 L 80 85 L 80 93.542969 L 70 93.542969 Z M 70 85 "/>
</clipPath>
<clipPath id="clip7">
  <path d="M 85 85 L 93.542969 85 L 93.542969 93.542969 L 85 93.542969 Z M 85 85 "/>
</clipPath>
<clipPath id="clip8">
  <path d="M 85 70 L 93.542969 70 L 93.542969 80 L 85 80 Z M 85 70 "/>
</clipPath>
<clipPath id="clip9">
  <path d="M 85 56 L 93.542969 56 L 93.542969 66 L 85 66 Z M 85 56 "/>
</clipPath>
<clipPath id="clip10">
  <path d="M 85 42 L 93.542969 42 L 93.542969 52 L 85 52 Z M 85 42 "/>
</clipPath>
<clipPath id="clip11">
  <path d="M 85 28 L 93.542969 28 L 93.542969 37 L 85 37 Z M 85 28 "/>
</clipPath>
<clipPath id="clip12">
  <path d="M 85 14 L 93.542969 14 L 93.542969 23 L 85 23 Z M 85 14 "/>
</clipPath>
<clipPath id="clip13">
  <path d="M 85 0 L 93.542969 0 L 93.542969 9 L 85 9 Z M 85 0 "/>
</clipPath>
</defs>
<g id="surface1">
<g clip-path="url(#clip1)" clip-rule="nonzero">
<path style=" stroke:none;fill-rule:nonzero;fill:rgb(0%,0%,0%);fill-opacity:1;" d="M 8.503906 89.289063 C 8.503906 86.941406 6.601563 85.039063 4.253906 85.039063 C 1.902344 85.039063 0 86.941406 0 89.289063 C 0 91.640625 1.902344 93.542969 4.253906 93.542969 C 6.601563 93.542969 8.503906 91.640625 8.503906 89.289063 Z M 8.503906 89.289063 "/>
</g>
<g clip-path="url(#clip2)" clip-rule="nonzero">
<path style=" stroke:none;fill-rule:nonzero;fill:rgb(0%,0%,0%);fill-opacity:1;" d="M 22.675781 89.289063 C 22.675781 86.941406 20.773438 85.039063 18.425781 85.039063 C 16.078125 85.039063 14.171875 86.941406 14.171875 89.289063 C 14.171875 91.640625 16.078125 93.542969 18.425781 93.542969 C 20.773438 93.542969 22.675781 91.640625 22.675781 89.289063 Z M 22.675781 89.289063 "/>
</g>
<g clip-path="url(#clip3)" clip-rule="nonzero">
<path style=" stroke:none;fill-rule:nonzero;fill:rgb(0%,0%,0%);fill-opacity:1;" d="M 36.851563 89.289063 C 36.851563 86.941406 34.945313 85.039063 32.597656 85.039063 C 30.25 85.039063 28.347656 86.941406 28.347656 89.289063 C 28.347656 91.640625 30.25 93.542969 32.597656 93.542969 C 34.945313 93.542969 36.851563 91.640625 36.851563 89.289063 Z M 36.851563 89.289063 "/>
</g>
<g clip-path="url(#clip4)" clip-rule="nonzero">
<path style=" stroke:none;fill-rule:nonzero;fill:rgb(0%,0%,0%);fill-opacity:1;" d="M 51.023438 89.289063 C 51.023438 86.941406 49.121094 85.039063 46.773438 85.039063 C 44.425781 85.039063 42.519531 86.941406 42.519531 89.289063 C 42.519531 91.640625 44.425781 93.542969 46.773438 93.542969 C 49.121094 93.542969 51.023438 91.640625 51.023438 89.289063 Z M 51.023438 89.289063 "/>
</g>
<g clip-path="url(#clip5)" clip-rule="nonzero">
<path style=" stroke:none;fill-rule:nonzero;fill:rgb(0%,0%,0%);fill-opacity:1;" d="M 65.199219 89.289063 C 65.199219 86.941406 63.292969 85.039063 60.945313 85.039063 C 58.597656 85.039063 56.695313 86.941406 56.695313 89.289063 C 56.695313 91.640625 58.597656 93.542969 60.945313 93.542969 C 63.292969 93.542969 65.199219 91.640625 65.199219 89.289063 Z M 65.199219 89.289063 "/>
</g>
<g clip-path="url(#clip6)" clip-rule="nonzero">
<path style=" stroke:none;fill-rule:nonzero;fill:rgb(0%,0%,0%);fill-opacity:1;" d="M 79.371094 89.289063 C 79.371094 86.941406 77.46875 85.039063 75.117188 85.039063 C 72.769531 85.039063 70.867188 86.941406 70.867188 89.289063 C 70.867188 91.640625 72.769531 93.542969 75.117188 93.542969 C 77.46875 93.542969 79.371094 91.640625 79.371094 89.289063 Z M 79.371094 89.289063 "/>
</g>
<g clip-path="url(#clip7)" clip-rule="nonzero">
<path style=" stroke:none;fill-rule:nonzero;fill:rgb(0%,0%,0%);fill-opacity:1;" d="M 93.542969 89.289063 C 93.542969 86.941406 91.640625 85.039063 89.292969 85.039063 C 86.945313 85.039063 85.039063 86.941406 85.039063 89.289063 C 85.039063 91.640625 86.945313 93.542969 89.292969 93.542969 C 91.640625 93.542969 93.542969 91.640625 93.542969 89.289063 Z M 93.542969 89.289063 "/>
</g>
<path style=" stroke:none;fill-rule:nonzero;fill:rgb(0%,0%,0%);fill-opacity:1;" d="M 8.503906 75.117188 C 8.503906 72.769531 6.601563 70.867188 4.253906 70.867188 C 1.902344 70.867188 0 72.769531 0 75.117188 C 0 77.464844 1.902344 79.371094 4.253906 79.371094 C 6.601563 79.371094 8.503906 77.464844 8.503906 75.117188 Z M 8.503906 75.117188 "/>
<path style=" stroke:none;fill-rule:nonzero;fill:rgb(0%,0%,0%);fill-opacity:1;" d="M 22.675781 75.117188 C 22.675781 72.769531 20.773438 70.867188 18.425781 70.867188 C 16.078125 70.867188 14.171875 72.769531 14.171875 75.117188 C 14.171875 77.464844 16.078125 79.371094 18.425781 79.371094 C 20.773438 79.371094 22.675781 77.464844 22.675781 75.117188 Z M 22.675781 75.117188 "/>
<path style=" stroke:none;fill-rule:nonzero;fill:rgb(0%,0%,0%);fill-opacity:1;" d="M 36.851563 75.117188 C 36.851563 72.769531 34.945313 70.867188 32.597656 70.867188 C 30.25 70.867188 28.347656 72.769531 28.347656 75.117188 C 28.347656 77.464844 30.25 79.371094 32.597656 79.371094 C 34.945313 79.371094 36.851563 77.464844 36.851563 75.117188 Z M 36.851563 75.117188 "/>
<path style=" stroke:none;fill-rule:nonzero;fill:rgb(0%,0%,0%);fill-opacity:1;" d="M 51.023438 75.117188 C 51.023438 72.769531 49.121094 70.867188 46.773438 70.867188 C 44.425781 70.867188 42.519531 72.769531 42.519531 75.117188 C 42.519531 77.464844 44.425781 79.371094 46.773438 79.371094 C 49.121094 79.371094 51.023438 77.464844 51.023438 75.117188 Z M 51.023438 75.117188 "/>
<path style=" stroke:none;fill-rule:nonzero;fill:rgb(0%,0%,0%);fill-opacity:1;" d="M 65.199219 75.117188 C 65.199219 72.769531 63.292969 70.867188 60.945313 70.867188 C 58.597656 70.867188 56.695313 72.769531 56.695313 75.117188 C 56.695313 77.464844 58.597656 79.371094 60.945313 79.371094 C 63.292969 79.371094 65.199219 77.464844 65.199219 75.117188 Z M 65.199219 75.117188 "/>
<path style=" stroke:none;fill-rule:nonzero;fill:rgb(0%,0%,0%);fill-opacity:1;" d="M 79.371094 75.117188 C 79.371094 72.769531 77.46875 70.867188 75.117188 70.867188 C 72.769531 70.867188 70.867188 72.769531 70.867188 75.117188 C 70.867188 77.464844 72.769531 79.371094 75.117188 79.371094 C 77.46875 79.371094 79.371094 77.464844 79.371094 75.117188 Z M 79.371094 75.117188 "/>
<g clip-path="url(#clip8)" clip-rule="nonzero">
<path style=" stroke:none;fill-rule:nonzero;fill:rgb(0%,0%,0%);fill-opacity:1;" d="M 93.542969 75.117188 C 93.542969 72.769531 91.640625 70.867188 89.292969 70.867188 C 86.945313 70.867188 85.039063 72.769531 85.039063 75.117188 C 85.039063 77.464844 86.945313 79.371094 89.292969 79.371094 C 91.640625 79.371094 93.542969 77.464844 93.542969 75.117188 Z M 93.542969 75.117188 "/>
</g>
<path style=" stroke:none;fill-rule:nonzero;fill:rgb(0%,79.998779%,0%);fill-opacity:1;" d="M 8.503906 60.945313 C 8.503906 58.597656 6.601563 56.691406 4.253906 56.691406 C 1.902344 56.691406 0 58.597656 0 60.945313 C 0 63.292969 1.902344 65.195313 4.253906 65.195313 C 6.601563 65.195313 8.503906 63.292969 8.503906 60.945313 Z M 8.503906 60.945313 "/>
<path style=" stroke:none;fill-rule:nonzero;fill:rgb(0%,79.998779%,0%);fill-opacity:1;" d="M 22.675781 60.945313 C 22.675781 58.597656 20.773438 56.691406 18.425781 56.691406 C 16.078125 56.691406 14.171875 58.597656 14.171875 60.945313 C 14.171875 63.292969 16.078125 65.195313 18.425781 65.195313 C 20.773438 65.195313 22.675781 63.292969 22.675781 60.945313 Z M 22.675781 60.945313 "/>
<path style=" stroke:none;fill-rule:nonzero;fill:rgb(0%,0%,0%);fill-opacity:1;" d="M 36.851563 60.945313 C 36.851563 58.597656 34.945313 56.691406 32.597656 56.691406 C 30.25 56.691406 28.347656 58.597656 28.347656 60.945313 C 28.347656 63.292969 30.25 65.195313 32.597656 65.195313 C 34.945313 65.195313 36.851563 63.292969 36.851563 60.945313 Z M 36.851563 60.945313 "/>
<path style=" stroke:none;fill-rule:nonzero;fill:rgb(0%,0%,0%);fill-opacity:1;" d="M 51.023438 60.945313 C 51.023438 58.597656 49.121094 56.691406 46.773438 56.691406 C 44.425781 56.691406 42.519531 58.597656 42.519531 60.945313 C 42.519531 63.292969 44.425781 65.195313 46.773438 65.195313 C 49.121094 65.195313 51.023438 63.292969 51.023438 60.945313 Z M 51.023438 60.945313 "/>
<path style=" stroke:none;fill-rule:nonzero;fill:rgb(0%,0%,0%);fill-opacity:1;" d="M 65.199219 60.945313 C 65.199219 58.597656 63.292969 56.691406 60.945313 56.691406 C 58.597656 56.691406 56.695313 58.597656 56.695313 60.945313 C 56.695313 63.292969 58.597656 65.195313 60.945313 65.195313 C 63.292969 65.195313 65.199219 63.292969 65.199219 60.945313 Z M 65.199219 60.945313 "/>
<path style=" stroke:none;fill-rule:nonzero;fill:rgb(0%,0%,0%);fill-opacity:1;" d="M 79.371094 60.945313 C 79.371094 58.597656 77.46875 56.691406 75.117188 56.691406 C 72.769531 56.691406 70.867188 58.597656 70.867188 60.945313 C 70.867188 63.292969 72.769531 65.195313 75.117188 65.195313 C 77.46875 65.195313 79.371094 63.292969 79.371094 60.945313 Z M 79.371094 60.945313 "/>
<g clip-path="url(#clip9)" clip-rule="nonzero">
<path style=" stroke:none;fill-rule:nonzero;fill:rgb(0%,0%,0%);fill-opacity:1;" d="M 93.542969 60.945313 C 93.542969 58.597656 91.640625 56.691406 89.292969 56.691406 C 86.945313 56.691406 85.039063 58.597656 85.039063 60.945313 C 85.039063 63.292969 86.945313 65.195313 89.292969 65.195313 C 91.640625 65.195313 93.542969 63.292969 93.542969 60.945313 Z M 93.542969 60.945313 "/>
</g>
<path style=" stroke:none;fill-rule:nonzero;fill:rgb(100%,94.898987%,0%);fill-opacity:1;" d="M 8.503906 46.769531 C 8.503906 44.421875 6.601563 42.519531 4.253906 42.519531 C 1.902344 42.519531 0 44.421875 0 46.769531 C 0 49.121094 1.902344 51.023438 4.253906 51.023438 C 6.601563 51.023438 8.503906 49.121094 8.503906 46.769531 Z M 8.503906 46.769531 "/>
<path style=" stroke:none;fill-rule:nonzero;fill:rgb(100%,94.898987%,0%);fill-opacity:1;" d="M 22.675781 46.769531 C 22.675781 44.421875 20.773438 42.519531 18.425781 42.519531 C 16.078125 42.519531 14.171875 44.421875 14.171875 46.769531 C 14.171875 49.121094 16.078125 51.023438 18.425781 51.023438 C 20.773438 51.023438 22.675781 49.121094 22.675781 46.769531 Z M 22.675781 46.769531 "/>
<path style=" stroke:none;fill-rule:nonzero;fill:rgb(0%,79.998779%,0%);fill-opacity:1;" d="M 36.851563 46.769531 C 36.851563 44.421875 34.945313 42.519531 32.597656 42.519531 C 30.25 42.519531 28.347656 44.421875 28.347656 46.769531 C 28.347656 49.121094 30.25 51.023438 32.597656 51.023438 C 34.945313 51.023438 36.851563 49.121094 36.851563 46.769531 Z M 36.851563 46.769531 "/>
<path style=" stroke:none;fill-rule:nonzero;fill:rgb(0%,79.998779%,0%);fill-opacity:1;" d="M 51.023438 46.769531 C 51.023438 44.421875 49.121094 42.519531 46.773438 42.519531 C 44.425781 42.519531 42.519531 44.421875 42.519531 46.769531 C 42.519531 49.121094 44.425781 51.023438 46.773438 51.023438 C 49.121094 51.023438 51.023438 49.121094 51.023438 46.769531 Z M 51.023438 46.769531 "/>
<path style=" stroke:none;fill-rule:nonzero;fill:rgb(0%,79.998779%,0%);fill-opacity:1;" d="M 65.199219 46.769531 C 65.199219 44.421875 63.292969 42.519531 60.945313 42.519531 C 58.597656 42.519531 56.695313 44.421875 56.695313 46.769531 C 56.695313 49.121094 58.597656 51.023438 60.945313 51.023438 C 63.292969 51.023438 65.199219 49.121094 65.199219 46.769531 Z M 65.199219 46.769531 "/>
<path style=" stroke:none;fill-rule:nonzero;fill:rgb(0%,79.998779%,0%);fill-opacity:1;" d="M 79.371094 46.769531 C 79.371094 44.421875 77.46875 42.519531 75.117188 42.519531 C 72.769531 42.519531 70.867188 44.421875 70.867188 46.769531 C 70.867188 49.121094 72.769531 51.023438 75.117188 51.023438 C 77.46875 51.023438 79.371094 49.121094 79.371094 46.769531 Z M 79.371094 46.769531 "/>
<g clip-path="url(#clip10)" clip-rule="nonzero">
<path style=" stroke:none;fill-rule:nonzero;fill:rgb(0%,79.998779%,0%);fill-opacity:1;" d="M 93.542969 46.769531 C 93.542969 44.421875 91.640625 42.519531 89.292969 42.519531 C 86.945313 42.519531 85.039063 44.421875 85.039063 46.769531 C 85.039063 49.121094 86.945313 51.023438 89.292969 51.023438 C 91.640625 51.023438 93.542969 49.121094 93.542969 46.769531 Z M 93.542969 46.769531 "/>
</g>
<path style=" stroke:none;fill-rule:nonzero;fill:rgb(100%,94.898987%,0%);fill-opacity:1;" d="M 8.503906 32.597656 C 8.503906 30.25 6.601563 28.34375 4.253906 28.34375 C 1.902344 28.34375 0 30.25 0 32.597656 C 0 34.945313 1.902344 36.847656 4.253906 36.847656 C 6.601563 36.847656 8.503906 34.945313 8.503906 32.597656 Z M 8.503906 32.597656 "/>
<path style=" stroke:none;fill-rule:nonzero;fill:rgb(100%,94.898987%,0%);fill-opacity:1;" d="M 22.675781 32.597656 C 22.675781 30.25 20.773438 28.34375 18.425781 28.34375 C 16.078125 28.34375 14.171875 30.25 14.171875 32.597656 C 14.171875 34.945313 16.078125 36.847656 18.425781 36.847656 C 20.773438 36.847656 22.675781 34.945313 22.675781 32.597656 Z M 22.675781 32.597656 "/>
<path style=" stroke:none;fill-rule:nonzero;fill:rgb(100%,94.898987%,0%);fill-opacity:1;" d="M 36.851563 32.597656 C 36.851563 30.25 34.945313 28.34375 32.597656 28.34375 C 30.25 28.34375 28.347656 30.25 28.347656 32.597656 C 28.347656 34.945313 30.25 36.847656 32.597656 36.847656 C 34.945313 36.847656 36.851563 34.945313 36.851563 32.597656 Z M 36.851563 32.597656 "/>
<path style=" stroke:none;fill-rule:nonzero;fill:rgb(100%,94.898987%,0%);fill-opacity:1;" d="M 51.023438 32.597656 C 51.023438 30.25 49.121094 28.34375 46.773438 28.34375 C 44.425781 28.34375 42.519531 30.25 42.519531 32.597656 C 42.519531 34.945313 44.425781 36.847656 46.773438 36.847656 C 49.121094 36.847656 51.023438 34.945313 51.023438 32.597656 Z M 51.023438 32.597656 "/>
<path style=" stroke:none;fill-rule:nonzero;fill:rgb(100%,94.898987%,0%);fill-opacity:1;" d="M 65.199219 32.597656 C 65.199219 30.25 63.292969 28.34375 60.945313 28.34375 C 58.597656 28.34375 56.695313 30.25 56.695313 32.597656 C 56.695313 34.945313 58.597656 36.847656 60.945313 36.847656 C 63.292969 36.847656 65.199219 34.945313 65.199219 32.597656 Z M 65.199219 32.597656 "/>
<path style=" stroke:none;fill-rule:nonzero;fill:rgb(100%,94.898987%,0%);fill-opacity:1;" d="M 79.371094 32.597656 C 79.371094 30.25 77.46875 28.34375 75.117188 28.34375 C 72.769531 28.34375 70.867188 30.25 70.867188 32.597656 C 70.867188 34.945313 72.769531 36.847656 75.117188 36.847656 C 77.46875 36.847656 79.371094 34.945313 79.371094 32.597656 Z M 79.371094 32.597656 "/>
<g clip-path="url(#clip11)" clip-rule="nonzero">
<path style=" stroke:none;fill-rule:nonzero;fill:rgb(100%,94.898987%,0%);fill-opacity:1;" d="M 93.542969 32.597656 C 93.542969 30.25 91.640625 28.34375 89.292969 28.34375 C 86.945313 28.34375 85.039063 30.25 85.039063 32.597656 C 85.039063 34.945313 86.945313 36.847656 89.292969 36.847656 C 91.640625 36.847656 93.542969 34.945313 93.542969 32.597656 Z M 93.542969 32.597656 "/>
</g>
<path style=" stroke:none;fill-rule:nonzero;fill:rgb(100%,94.898987%,0%);fill-opacity:1;" d="M 8.503906 18.425781 C 8.503906 16.074219 6.601563 14.171875 4.253906 14.171875 C 1.902344 14.171875 0 16.074219 0 18.425781 C 0 20.773438 1.902344 22.675781 4.253906 22.675781 C 6.601563 22.675781 8.503906 20.773438 8.503906 18.425781 Z M 8.503906 18.425781 "/>
<path style=" stroke:none;fill-rule:nonzero;fill:rgb(100%,94.898987%,0%);fill-opacity:1;" d="M 22.675781 18.425781 C 22.675781 16.074219 20.773438 14.171875 18.425781 14.171875 C 16.078125 14.171875 14.171875 16.074219 14.171875 18.425781 C 14.171875 20.773438 16.078125 22.675781 18.425781 22.675781 C 20.773438 22.675781 22.675781 20.773438 22.675781 18.425781 Z M 22.675781 18.425781 "/>
<path style=" stroke:none;fill-rule:nonzero;fill:rgb(100%,94.898987%,0%);fill-opacity:1;" d="M 36.851563 18.425781 C 36.851563 16.074219 34.945313 14.171875 32.597656 14.171875 C 30.25 14.171875 28.347656 16.074219 28.347656 18.425781 C 28.347656 20.773438 30.25 22.675781 32.597656 22.675781 C 34.945313 22.675781 36.851563 20.773438 36.851563 18.425781 Z M 36.851563 18.425781 "/>
<path style=" stroke:none;fill-rule:nonzero;fill:rgb(100%,94.898987%,0%);fill-opacity:1;" d="M 51.023438 18.425781 C 51.023438 16.074219 49.121094 14.171875 46.773438 14.171875 C 44.425781 14.171875 42.519531 16.074219 42.519531 18.425781 C 42.519531 20.773438 44.425781 22.675781 46.773438 22.675781 C 49.121094 22.675781 51.023438 20.773438 51.023438 18.425781 Z M 51.023438 18.425781 "/>
<path style=" stroke:none;fill-rule:nonzero;fill:rgb(100%,94.898987%,0%);fill-opacity:1;" d="M 65.199219 18.425781 C 65.199219 16.074219 63.292969 14.171875 60.945313 14.171875 C 58.597656 14.171875 56.695313 16.074219 56.695313 18.425781 C 56.695313 20.773438 58.597656 22.675781 60.945313 22.675781 C 63.292969 22.675781 65.199219 20.773438 65.199219 18.425781 Z M 65.199219 18.425781 "/>
<path style=" stroke:none;fill-rule:nonzero;fill:rgb(100%,94.898987%,0%);fill-opacity:1;" d="M 79.371094 18.425781 C 79.371094 16.074219 77.46875 14.171875 75.117188 14.171875 C 72.769531 14.171875 70.867188 16.074219 70.867188 18.425781 C 70.867188 20.773438 72.769531 22.675781 75.117188 22.675781 C 77.46875 22.675781 79.371094 20.773438 79.371094 18.425781 Z M 79.371094 18.425781 "/>
<g clip-path="url(#clip12)" clip-rule="nonzero">
<path style=" stroke:none;fill-rule:nonzero;fill:rgb(100%,94.898987%,0%);fill-opacity:1;" d="M 93.542969 18.425781 C 93.542969 16.074219 91.640625 14.171875 89.292969 14.171875 C 86.945313 14.171875 85.039063 16.074219 85.039063 18.425781 C 85.039063 20.773438 86.945313 22.675781 89.292969 22.675781 C 91.640625 22.675781 93.542969 20.773438 93.542969 18.425781 Z M 93.542969 18.425781 "/>
</g>
<path style=" stroke:none;fill-rule:nonzero;fill:rgb(100%,94.898987%,0%);fill-opacity:1;" d="M 8.503906 4.25 C 8.503906 1.902344 6.601563 0 4.253906 0 C 1.902344 0 0 1.902344 0 4.25 C 0 6.597656 1.902344 8.503906 4.253906 8.503906 C 6.601563 8.503906 8.503906 6.597656 8.503906 4.25 Z M 8.503906 4.25 "/>
<path style=" stroke:none;fill-rule:nonzero;fill:rgb(100%,94.898987%,0%);fill-opacity:1;" d="M 22.675781 4.25 C 22.675781 1.902344 20.773438 0 18.425781 0 C 16.078125 0 14.171875 1.902344 14.171875 4.25 C 14.171875 6.597656 16.078125 8.503906 18.425781 8.503906 C 20.773438 8.503906 22.675781 6.597656 22.675781 4.25 Z M 22.675781 4.25 "/>
<path style=" stroke:none;fill-rule:nonzero;fill:rgb(100%,94.898987%,0%);fill-opacity:1;" d="M 36.851563 4.25 C 36.851563 1.902344 34.945313 0 32.597656 0 C 30.25 0 28.347656 1.902344 28.347656 4.25 C 28.347656 6.597656 30.25 8.503906 32.597656 8.503906 C 34.945313 8.503906 36.851563 6.597656 36.851563 4.25 Z M 36.851563 4.25 "/>
<path style=" stroke:none;fill-rule:nonzero;fill:rgb(100%,94.898987%,0%);fill-opacity:1;" d="M 51.023438 4.25 C 51.023438 1.902344 49.121094 0 46.773438 0 C 44.425781 0 42.519531 1.902344 42.519531 4.25 C 42.519531 6.597656 44.425781 8.503906 46.773438 8.503906 C 49.121094 8.503906 51.023438 6.597656 51.023438 4.25 Z M 51.023438 4.25 "/>
<path style=" stroke:none;fill-rule:nonzero;fill:rgb(100%,94.898987%,0%);fill-opacity:1;" d="M 65.199219 4.25 C 65.199219 1.902344 63.292969 0 60.945313 0 C 58.597656 0 56.695313 1.902344 56.695313 4.25 C 56.695313 6.597656 58.597656 8.503906 60.945313 8.503906 C 63.292969 8.503906 65.199219 6.597656 65.199219 4.25 Z M 65.199219 4.25 "/>
<path style=" stroke:none;fill-rule:nonzero;fill:rgb(100%,94.898987%,0%);fill-opacity:1;" d="M 79.371094 4.25 C 79.371094 1.902344 77.46875 0 75.117188 0 C 72.769531 0 70.867188 1.902344 70.867188 4.25 C 70.867188 6.597656 72.769531 8.503906 75.117188 8.503906 C 77.46875 8.503906 79.371094 6.597656 79.371094 4.25 Z M 79.371094 4.25 "/>
<g clip-path="url(#clip13)" clip-rule="nonzero">
<path style=" stroke:none;fill-rule:nonzero;fill:rgb(100%,94.898987%,0%);fill-opacity:1;" d="M 93.542969 4.25 C 93.542969 1.902344 91.640625 0 89.292969 0 C 86.945313 0 85.039063 1.902344 85.039063 4.25 C 85.039063 6.597656 86.945313 8.503906 89.292969 8.503906 C 91.640625 8.503906 93.542969 6.597656 93.542969 4.25 Z M 93.542969 4.25 "/>
</g>
</g>
</svg>
