<?xml version="1.0" encoding="UTF-8"?>
<svg xmlns="http://www.w3.org/2000/svg" xmlns:xlink="http://www.w3.org/1999/xlink" width="375.829pt" height="96.474pt" viewBox="0 0 375.829 96.474" version="1.1">
<defs>
<clipPath id="clip1">
  <path d="M 0 79 L 17 79 L 17 96.472656 L 0 96.472656 Z M 0 79 "/>
</clipPath>
<clipPath id="clip2">
  <path d="M 62 79 L 85 79 L 85 96.472656 L 62 96.472656 Z M 62 79 "/>
</clipPath>
<clipPath id="clip3">
  <path d="M 87 79 L 110 79 L 110 96.472656 L 87 96.472656 Z M 87 79 "/>
</clipPath>
<clipPath id="clip4">
  <path d="M 130 79 L 153 79 L 153 96.472656 L 130 96.472656 Z M 130 79 "/>
</clipPath>
<clipPath id="clip5">
  <path d="M 155 79 L 178 79 L 178 96.472656 L 155 96.472656 Z M 155 79 "/>
</clipPath>
<clipPath id="clip6">
  <path d="M 223 79 L 246 79 L 246 96.472656 L 223 96.472656 Z M 223 79 "/>
</clipPath>
<clipPath id="clip7">
  <path d="M 248 79 L 271 79 L 271 96.472656 L 248 96.472656 Z M 248 79 "/>
</clipPath>
<clipPath id="clip8">
  <path d="M 358 79 L 375.828125 79 L 375.828125 96.472656 L 358 96.472656 Z M 358 79 "/>
</clipPath>
</defs>
<g id="surface1">
<path style="fill:none;stroke-width:0.3985;stroke-linecap:butt;stroke-linejoin:miter;stroke:rgb(0%,0%,0%);stroke-opacity:1;stroke-miterlimit:10;" d="M 5.519094 -0.00128125 C 5.519094 3.0495 3.046437 5.51825 -0.0004375 5.51825 C -3.047313 5.51825 -5.519969 3.0495 -5.519969 -0.00128125 C -5.519969 -3.048156 -3.047313 -5.516906 -0.0004375 -5.516906 C 3.046437 -5.516906 5.519094 -3.048156 5.519094 -0.00128125 Z M 5.519094 -0.00128125 " transform="matrix(1,0,0,-1,26.977,48.237)"/>
<g clip-path="url(#clip1)" clip-rule="nonzero">
<path style="fill:none;stroke-width:0.3985;stroke-linecap:butt;stroke-linejoin:miter;stroke:rgb(0%,0%,0%);stroke-opacity:1;stroke-miterlimit:10;" d="M -15.742625 -42.520812 C -15.742625 -39.473937 -18.211375 -37.001281 -21.25825 -37.001281 C -24.309031 -37.001281 -26.777781 -39.473937 -26.777781 -42.520812 C -26.777781 -45.567687 -24.309031 -48.040344 -21.25825 -48.040344 C -18.211375 -48.040344 -15.742625 -45.567687 -15.742625 -42.520812 Z M -15.742625 -42.520812 " transform="matrix(1,0,0,-1,26.977,48.237)"/>
</g>
<path style="fill:none;stroke-width:0.3985;stroke-linecap:butt;stroke-linejoin:miter;stroke:rgb(0%,0%,0%);stroke-opacity:1;stroke-miterlimit:10;" d="M -2.555125 -5.114562 L -18.496531 -36.997375 " transform="matrix(1,0,0,-1,26.977,48.237)"/>
<path style="fill:none;stroke-width:0.31879;stroke-linecap:round;stroke-linejoin:round;stroke:rgb(0%,0%,0%);stroke-opacity:1;stroke-miterlimit:10;" d="M -1.193644 1.59354 C -1.095813 0.996042 -0.000410033 0.0980398 0.298338 -0.00154568 C -0.00215887 -0.0993788 -1.095831 -0.995614 -1.193672 -1.594858 " transform="matrix(-0.44717,0.89436,0.89436,0.44717,8.47854,85.23387)"/>
<path style="fill:none;stroke-width:0.3985;stroke-linecap:butt;stroke-linejoin:miter;stroke:rgb(0%,0%,0%);stroke-opacity:1;stroke-miterlimit:10;" d="M 5.519875 -0.00128125 C 5.519875 3.0495 3.047219 5.51825 0.00034375 5.51825 C -3.046531 5.51825 -5.519188 3.0495 -5.519188 -0.00128125 C -5.519188 -3.048156 -3.046531 -5.516906 0.00034375 -5.516906 C 3.047219 -5.516906 5.519875 -3.048156 5.519875 -0.00128125 Z M 5.519875 -0.00128125 " transform="matrix(1,0,0,-1,52.277,48.237)"/>
<g clip-path="url(#clip2)" clip-rule="nonzero">
<path style="fill:none;stroke-width:0.3985;stroke-linecap:butt;stroke-linejoin:miter;stroke:rgb(0%,0%,0%);stroke-opacity:1;stroke-miterlimit:10;" d="M 26.777687 -42.520812 C 26.777687 -39.473937 24.308937 -37.001281 21.262062 -37.001281 C 18.211281 -37.001281 15.742531 -39.473937 15.742531 -42.520812 C 15.742531 -45.567687 18.211281 -48.040344 21.262062 -48.040344 C 24.308937 -48.040344 26.777687 -45.567687 26.777687 -42.520812 Z M 26.777687 -42.520812 " transform="matrix(1,0,0,-1,52.277,48.237)"/>
</g>
<path style="fill:none;stroke-width:0.3985;stroke-linecap:butt;stroke-linejoin:miter;stroke:rgb(0%,0%,0%);stroke-opacity:1;stroke-miterlimit:10;" d="M 2.555031 -5.114562 L 18.500344 -36.997375 " transform="matrix(1,0,0,-1,52.277,48.237)"/>
<path style="fill:none;stroke-width:0.31879;stroke-linecap:round;stroke-linejoin:round;stroke:rgb(0%,0%,0%);stroke-opacity:1;stroke-miterlimit:10;" d="M -1.193732 1.594738 C -1.095891 0.995495 -0.00221868 0.0992591 0.298278 0.00142604 C -0.000469852 -0.0981595 -1.095873 -0.996162 -1.193703 -1.59366 " transform="matrix(0.44717,0.89436,0.89436,-0.44717,70.7755,85.23387)"/>
<path style="fill:none;stroke-width:0.3985;stroke-linecap:butt;stroke-linejoin:miter;stroke:rgb(0%,0%,0%);stroke-opacity:1;stroke-miterlimit:10;" d="M 5.517281 -0.00128125 C 5.517281 3.0495 3.048531 5.51825 0.00165625 5.51825 C -3.049125 5.51825 -5.517875 3.0495 -5.517875 -0.00128125 C -5.517875 -3.048156 -3.049125 -5.516906 0.00165625 -5.516906 C 3.048531 -5.516906 5.517281 -3.048156 5.517281 -0.00128125 Z M 5.517281 -0.00128125 " transform="matrix(1,0,0,-1,120.096,48.237)"/>
<g clip-path="url(#clip3)" clip-rule="nonzero">
<path style="fill:none;stroke-width:0.3985;stroke-linecap:butt;stroke-linejoin:miter;stroke:rgb(0%,0%,0%);stroke-opacity:1;stroke-miterlimit:10;" d="M -15.740531 -42.520812 C -15.740531 -39.473937 -18.213188 -37.001281 -21.260063 -37.001281 C -24.306938 -37.001281 -26.779594 -39.473937 -26.779594 -42.520812 C -26.779594 -45.567687 -24.306938 -48.040344 -21.260063 -48.040344 C -18.213188 -48.040344 -15.740531 -45.567687 -15.740531 -42.520812 Z M -15.740531 -42.520812 " transform="matrix(1,0,0,-1,120.096,48.237)"/>
</g>
<path style="fill:none;stroke-width:0.3985;stroke-linecap:butt;stroke-linejoin:miter;stroke:rgb(0%,0%,0%);stroke-opacity:1;stroke-miterlimit:10;" d="M -2.556938 -5.114562 L -18.498344 -36.997375 " transform="matrix(1,0,0,-1,120.096,48.237)"/>
<path style="fill:none;stroke-width:0.31879;stroke-linecap:round;stroke-linejoin:round;stroke:rgb(0%,0%,0%);stroke-opacity:1;stroke-miterlimit:10;" d="M -1.19458 1.595413 C -1.09675 0.997915 -0.00134644 0.0999127 0.297401 0.000327186 C -0.00134824 -0.101 -1.09502 -0.997236 -1.194608 -1.592985 " transform="matrix(-0.44717,0.89436,0.89436,0.44717,101.59754,85.23387)"/>
<g clip-path="url(#clip4)" clip-rule="nonzero">
<path style="fill:none;stroke-width:0.3985;stroke-linecap:butt;stroke-linejoin:miter;stroke:rgb(0%,0%,0%);stroke-opacity:1;stroke-miterlimit:10;" d="M 26.779 -42.520812 C 26.779 -39.473937 24.306344 -37.001281 21.259469 -37.001281 C 18.212594 -37.001281 15.743844 -39.473937 15.743844 -42.520812 C 15.743844 -45.567687 18.212594 -48.040344 21.259469 -48.040344 C 24.306344 -48.040344 26.779 -45.567687 26.779 -42.520812 Z M 26.779 -42.520812 " transform="matrix(1,0,0,-1,120.096,48.237)"/>
</g>
<path style="fill:none;stroke-width:0.3985;stroke-linecap:butt;stroke-linejoin:miter;stroke:rgb(0%,0%,0%);stroke-opacity:1;stroke-miterlimit:10;" d="M 2.556344 -5.114562 L 18.49775 -36.997375 " transform="matrix(1,0,0,-1,120.096,48.237)"/>
<path style="fill:none;stroke-width:0.31879;stroke-linecap:round;stroke-linejoin:round;stroke:rgb(0%,0%,0%);stroke-opacity:1;stroke-miterlimit:10;" d="M -1.194892 1.592418 C -1.095304 0.996669 -0.00163168 0.100433 0.297118 -0.000894077 C -0.00162988 -0.10048 -1.095286 -0.994988 -1.194863 -1.59598 " transform="matrix(0.44717,0.89436,0.89436,-0.44717,138.5945,85.23387)"/>
<path style="fill:none;stroke-width:0.3985;stroke-linecap:butt;stroke-linejoin:miter;stroke:rgb(0%,0%,0%);stroke-opacity:1;stroke-miterlimit:10;" d="M 5.516875 -0.00175 C 5.516875 3.049031 3.048125 5.517781 0.00125 5.517781 C -3.049531 5.517781 -5.518281 3.049031 -5.518281 -0.00175 C -5.518281 -3.048625 -3.049531 -5.517375 0.00125 -5.517375 C 3.048125 -5.517375 5.516875 -3.048625 5.516875 -0.00175 Z M 5.516875 -0.00175 " transform="matrix(1,0,0,-1,166.655,5.717)"/>
<path style="fill:none;stroke-width:0.3985;stroke-linecap:butt;stroke-linejoin:miter;stroke:rgb(0%,0%,0%);stroke-opacity:1;stroke-miterlimit:10;" d="M 26.778594 -42.521281 C 26.778594 -39.474406 24.305937 -37.00175 21.259062 -37.00175 C 18.212187 -37.00175 15.743437 -39.474406 15.743437 -42.521281 C 15.743437 -45.568156 18.212187 -48.036906 21.259062 -48.036906 C 24.305937 -48.036906 26.778594 -45.568156 26.778594 -42.521281 Z M 26.778594 -42.521281 " transform="matrix(1,0,0,-1,166.655,5.717)"/>
<path style="fill:none;stroke-width:0.3985;stroke-linecap:butt;stroke-linejoin:miter;stroke:rgb(0%,0%,0%);stroke-opacity:1;stroke-miterlimit:10;" d="M 2.555937 -5.115031 L 18.497344 -36.997844 " transform="matrix(1,0,0,-1,166.655,5.717)"/>
<path style="fill:none;stroke-width:0.31879;stroke-linecap:round;stroke-linejoin:round;stroke:rgb(0%,0%,0%);stroke-opacity:1;stroke-miterlimit:10;" d="M -1.194654 1.591845 C -1.095066 0.996096 -0.00139407 0.0998601 0.299102 0.00202704 C -0.00139228 -0.101053 -1.095048 -0.995561 -1.194626 -1.596553 " transform="matrix(0.44717,0.89436,0.89436,-0.44717,185.1535,42.71387)"/>
<g clip-path="url(#clip5)" clip-rule="nonzero">
<path style="fill:none;stroke-width:0.3985;stroke-linecap:butt;stroke-linejoin:miter;stroke:rgb(0%,0%,0%);stroke-opacity:1;stroke-miterlimit:10;" d="M 5.516875 -85.040813 C 5.516875 -81.993938 3.048125 -79.521281 0.00125 -79.521281 C -3.049531 -79.521281 -5.518281 -81.993938 -5.518281 -85.040813 C -5.518281 -88.087688 -3.049531 -90.560344 0.00125 -90.560344 C 3.048125 -90.560344 5.516875 -88.087688 5.516875 -85.040813 Z M 5.516875 -85.040813 " transform="matrix(1,0,0,-1,166.655,5.717)"/>
</g>
<path style="fill:none;stroke-width:0.3985;stroke-linecap:butt;stroke-linejoin:miter;stroke:rgb(0%,0%,0%);stroke-opacity:1;stroke-miterlimit:10;" d="M 18.704375 -47.634563 L 2.762969 -79.517375 " transform="matrix(1,0,0,-1,166.655,5.717)"/>
<path style="fill:none;stroke-width:0.31879;stroke-linecap:round;stroke-linejoin:round;stroke:rgb(0%,0%,0%);stroke-opacity:1;stroke-miterlimit:10;" d="M -1.193563 1.592887 C -1.095733 0.995389 -0.000329534 0.0973868 0.298418 -0.00219866 C 0.00141578 -0.0982847 -1.09575 -0.996267 -1.195339 -1.592016 " transform="matrix(-0.44717,0.89436,0.89436,0.44717,169.41666,85.23409)"/>
<path style="fill:none;stroke-width:0.3985;stroke-linecap:butt;stroke-linejoin:miter;stroke:rgb(0%,0%,0%);stroke-opacity:1;stroke-miterlimit:10;" d="M 5.518188 -0.00175 C 5.518188 3.049031 3.049438 5.517781 -0.00134375 5.517781 C -3.048219 5.517781 -5.516969 3.049031 -5.516969 -0.00175 C -5.516969 -3.048625 -3.048219 -5.517375 -0.00134375 -5.517375 C 3.049438 -5.517375 5.518188 -3.048625 5.518188 -0.00175 Z M 5.518188 -0.00175 " transform="matrix(1,0,0,-1,234.474,5.717)"/>
<path style="fill:none;stroke-width:0.3985;stroke-linecap:butt;stroke-linejoin:miter;stroke:rgb(0%,0%,0%);stroke-opacity:1;stroke-miterlimit:10;" d="M -15.743531 -42.521281 C -15.743531 -39.474406 -18.212281 -37.00175 -21.259156 -37.00175 C -24.306031 -37.00175 -26.778687 -39.474406 -26.778687 -42.521281 C -26.778687 -45.568156 -24.306031 -48.036906 -21.259156 -48.036906 C -18.212281 -48.036906 -15.743531 -45.568156 -15.743531 -42.521281 Z M -15.743531 -42.521281 " transform="matrix(1,0,0,-1,234.474,5.717)"/>
<path style="fill:none;stroke-width:0.3985;stroke-linecap:butt;stroke-linejoin:miter;stroke:rgb(0%,0%,0%);stroke-opacity:1;stroke-miterlimit:10;" d="M -2.556031 -5.115031 L -18.497437 -36.997844 " transform="matrix(1,0,0,-1,234.474,5.717)"/>
<path style="fill:none;stroke-width:0.31879;stroke-linecap:round;stroke-linejoin:round;stroke:rgb(0%,0%,0%);stroke-opacity:1;stroke-miterlimit:10;" d="M -1.194566 1.596433 C -1.094989 0.995441 -0.00133246 0.100933 0.297415 0.00134747 C -0.00133426 -0.0999798 -1.095006 -0.996215 -1.194594 -1.591964 " transform="matrix(-0.44717,0.89436,0.89436,0.44717,215.97554,42.71387)"/>
<g clip-path="url(#clip6)" clip-rule="nonzero">
<path style="fill:none;stroke-width:0.3985;stroke-linecap:butt;stroke-linejoin:miter;stroke:rgb(0%,0%,0%);stroke-opacity:1;stroke-miterlimit:10;" d="M 5.518188 -85.040813 C 5.518188 -81.993938 3.049438 -79.521281 -0.00134375 -79.521281 C -3.048219 -79.521281 -5.516969 -81.993938 -5.516969 -85.040813 C -5.516969 -88.087688 -3.048219 -90.560344 -0.00134375 -90.560344 C 3.049438 -90.560344 5.518188 -88.087688 5.518188 -85.040813 Z M 5.518188 -85.040813 " transform="matrix(1,0,0,-1,234.474,5.717)"/>
</g>
<path style="fill:none;stroke-width:0.3985;stroke-linecap:butt;stroke-linejoin:miter;stroke:rgb(0%,0%,0%);stroke-opacity:1;stroke-miterlimit:10;" d="M -18.704469 -47.634563 L -2.763062 -79.517375 " transform="matrix(1,0,0,-1,234.474,5.717)"/>
<path style="fill:none;stroke-width:0.31879;stroke-linecap:round;stroke-linejoin:round;stroke:rgb(0%,0%,0%);stroke-opacity:1;stroke-miterlimit:10;" d="M -1.195421 1.591852 C -1.095833 0.996103 0.0013336 0.0981203 0.298336 0.0020343 C -0.000411715 -0.0975512 -1.095815 -0.995554 -1.193645 -1.593051 " transform="matrix(0.44717,0.89436,0.89436,-0.44717,231.71243,85.23409)"/>
<path style="fill:none;stroke-width:0.3985;stroke-linecap:butt;stroke-linejoin:miter;stroke:rgb(0%,0%,0%);stroke-opacity:1;stroke-miterlimit:10;" d="M 5.5195 -0.00175 C 5.5195 3.049031 3.046844 5.517781 -0.00003125 5.517781 C -3.046906 5.517781 -5.519563 3.049031 -5.519563 -0.00175 C -5.519563 -3.048625 -3.046906 -5.517375 -0.00003125 -5.517375 C 3.046844 -5.517375 5.5195 -3.048625 5.5195 -0.00175 Z M 5.5195 -0.00175 " transform="matrix(1,0,0,-1,302.293,5.717)"/>
<path style="fill:none;stroke-width:0.3985;stroke-linecap:butt;stroke-linejoin:miter;stroke:rgb(0%,0%,0%);stroke-opacity:1;stroke-miterlimit:10;" d="M -15.742219 -42.521281 C -15.742219 -39.474406 -18.210969 -37.00175 -21.26175 -37.00175 C -24.308625 -37.00175 -26.777375 -39.474406 -26.777375 -42.521281 C -26.777375 -45.568156 -24.308625 -48.036906 -21.26175 -48.036906 C -18.210969 -48.036906 -15.742219 -45.568156 -15.742219 -42.521281 Z M -15.742219 -42.521281 " transform="matrix(1,0,0,-1,302.293,5.717)"/>
<path style="fill:none;stroke-width:0.3985;stroke-linecap:butt;stroke-linejoin:miter;stroke:rgb(0%,0%,0%);stroke-opacity:1;stroke-miterlimit:10;" d="M -2.554719 -5.115031 L -18.500031 -36.997844 " transform="matrix(1,0,0,-1,302.293,5.717)"/>
<path style="fill:none;stroke-width:0.31879;stroke-linecap:round;stroke-linejoin:round;stroke:rgb(0%,0%,0%);stroke-opacity:1;stroke-miterlimit:10;" d="M -1.193406 1.594113 C -1.095576 0.996615 -0.000172427 0.0986129 0.298575 -0.000972642 C -0.00192126 -0.0988057 -1.095593 -0.995041 -1.193434 -1.594285 " transform="matrix(-0.44717,0.89436,0.89436,0.44717,283.79454,42.71387)"/>
<g clip-path="url(#clip7)" clip-rule="nonzero">
<path style="fill:none;stroke-width:0.3985;stroke-linecap:butt;stroke-linejoin:miter;stroke:rgb(0%,0%,0%);stroke-opacity:1;stroke-miterlimit:10;" d="M -37.000031 -85.040813 C -37.000031 -81.993938 -39.472688 -79.521281 -42.519563 -79.521281 C -45.566438 -79.521281 -48.039094 -81.993938 -48.039094 -85.040813 C -48.039094 -88.087688 -45.566438 -90.560344 -42.519563 -90.560344 C -39.472688 -90.560344 -37.000031 -88.087688 -37.000031 -85.040813 Z M -37.000031 -85.040813 " transform="matrix(1,0,0,-1,302.293,5.717)"/>
</g>
<path style="fill:none;stroke-width:0.3985;stroke-linecap:butt;stroke-linejoin:miter;stroke:rgb(0%,0%,0%);stroke-opacity:1;stroke-miterlimit:10;" d="M -23.816438 -47.634563 L -39.757844 -79.517375 " transform="matrix(1,0,0,-1,302.293,5.717)"/>
<path style="fill:none;stroke-width:0.31879;stroke-linecap:round;stroke-linejoin:round;stroke:rgb(0%,0%,0%);stroke-opacity:1;stroke-miterlimit:10;" d="M -1.195036 1.595833 C -1.095459 0.994841 -0.00180263 0.100333 0.296945 0.000747604 C 0.00168972 -0.0988326 -1.095476 -0.996815 -1.195065 -1.592564 " transform="matrix(-0.44717,0.89436,0.89436,0.44717,262.53446,85.23409)"/>
<path style="fill:none;stroke-width:0.3985;stroke-linecap:butt;stroke-linejoin:miter;stroke:rgb(0%,0%,0%);stroke-opacity:1;stroke-miterlimit:10;" d="M 5.517375 -0.00175 C 5.517375 3.049031 3.048625 5.517781 0.00175 5.517781 C -3.049031 5.517781 -5.517781 3.049031 -5.517781 -0.00175 C -5.517781 -3.048625 -3.049031 -5.517375 0.00175 -5.517375 C 3.048625 -5.517375 5.517375 -3.048625 5.517375 -0.00175 Z M 5.517375 -0.00175 " transform="matrix(1,0,0,-1,327.592,5.717)"/>
<path style="fill:none;stroke-width:0.3985;stroke-linecap:butt;stroke-linejoin:miter;stroke:rgb(0%,0%,0%);stroke-opacity:1;stroke-miterlimit:10;" d="M 26.779094 -42.521281 C 26.779094 -39.474406 24.306438 -37.00175 21.259563 -37.00175 C 18.212688 -37.00175 15.740031 -39.474406 15.740031 -42.521281 C 15.740031 -45.568156 18.212688 -48.036906 21.259563 -48.036906 C 24.306438 -48.036906 26.779094 -45.568156 26.779094 -42.521281 Z M 26.779094 -42.521281 " transform="matrix(1,0,0,-1,327.592,5.717)"/>
<path style="fill:none;stroke-width:0.3985;stroke-linecap:butt;stroke-linejoin:miter;stroke:rgb(0%,0%,0%);stroke-opacity:1;stroke-miterlimit:10;" d="M 2.556438 -5.115031 L 18.497844 -36.997844 " transform="matrix(1,0,0,-1,327.592,5.717)"/>
<path style="fill:none;stroke-width:0.31879;stroke-linecap:round;stroke-linejoin:round;stroke:rgb(0%,0%,0%);stroke-opacity:1;stroke-miterlimit:10;" d="M -1.194431 1.592292 C -1.094843 0.996543 -0.00117045 0.100307 0.297579 -0.00101986 C -0.00116866 -0.100605 -1.094825 -0.995114 -1.194402 -1.596106 " transform="matrix(0.44717,0.89436,0.89436,-0.44717,346.0905,42.71387)"/>
<g clip-path="url(#clip8)" clip-rule="nonzero">
<path style="fill:none;stroke-width:0.3985;stroke-linecap:butt;stroke-linejoin:miter;stroke:rgb(0%,0%,0%);stroke-opacity:1;stroke-miterlimit:10;" d="M 48.036906 -85.040813 C 48.036906 -81.993938 45.568156 -79.521281 42.521281 -79.521281 C 39.474406 -79.521281 37.00175 -81.993938 37.00175 -85.040813 C 37.00175 -88.087688 39.474406 -90.560344 42.521281 -90.560344 C 45.568156 -90.560344 48.036906 -88.087688 48.036906 -85.040813 Z M 48.036906 -85.040813 " transform="matrix(1,0,0,-1,327.592,5.717)"/>
</g>
<path style="fill:none;stroke-width:0.3985;stroke-linecap:butt;stroke-linejoin:miter;stroke:rgb(0%,0%,0%);stroke-opacity:1;stroke-miterlimit:10;" d="M 23.818156 -47.634563 L 39.759563 -79.517375 " transform="matrix(1,0,0,-1,327.592,5.717)"/>
<path style="fill:none;stroke-width:0.31879;stroke-linecap:round;stroke-linejoin:round;stroke:rgb(0%,0%,0%);stroke-opacity:1;stroke-miterlimit:10;" d="M -1.194341 1.594012 C -1.0965 0.994769 0.00241369 0.100281 0.297669 0.000700371 C -0.00107866 -0.0988851 -1.096482 -0.996887 -1.194312 -1.594385 " transform="matrix(0.44717,0.89436,0.89436,-0.44717,367.35064,85.23409)"/>
</g>
</svg>
