<svg width="959" height="354" xmlns="http://www.w3.org/2000/svg" xmlns:xlink="http://www.w3.org/1999/xlink" overflow="hidden"><defs><clipPath id="clip0"><rect x="48" y="215" width="959" height="354"/></clipPath></defs><g clip-path="url(#clip0)" transform="translate(-48 -215)"><rect x="50.5001" y="472.5" width="45" height="31" stroke="#000000" stroke-width="1.33333" stroke-miterlimit="8" fill="none"/><text font-family="Times New Roman,Times New Roman_MSFontService,sans-serif" font-weight="400" font-size="15" transform="translate(60.3578 493)">a[1]</text><rect x="169.5" y="472.5" width="45" height="31" stroke="#000000" stroke-width="1.33333" stroke-miterlimit="8" fill="none"/><text font-family="Times New Roman,Times New Roman_MSFontService,sans-serif" font-weight="400" font-size="15" transform="translate(179.842 493)">a[2]</text><rect x="289.5" y="472.5" width="45" height="31" stroke="#000000" stroke-width="1.33333" stroke-miterlimit="8" fill="none"/><text font-family="Times New Roman,Times New Roman_MSFontService,sans-serif" font-weight="400" font-size="15" transform="translate(299.326 493)">a[3]</text><rect x="408.5" y="472.5" width="45" height="31" stroke="#000000" stroke-width="1.33333" stroke-miterlimit="8" fill="none"/><text font-family="Times New Roman,Times New Roman_MSFontService,sans-serif" font-weight="400" font-size="15" transform="translate(418.81 493)">a[4]</text><rect x="527.5" y="472.5" width="46" height="31" stroke="#000000" stroke-width="1.33333" stroke-miterlimit="8" fill="none"/><text font-family="Times New Roman,Times New Roman_MSFontService,sans-serif" font-weight="400" font-size="15" transform="translate(538.294 493)">a[5]</text><rect x="766.5" y="472.5" width="46" height="31" stroke="#000000" stroke-width="1.33333" stroke-miterlimit="8" fill="none"/><text font-family="Times New Roman,Times New Roman_MSFontService,sans-serif" font-weight="400" font-size="15" transform="translate(777.261 493)">a[7]</text><rect x="647.5" y="472.5" width="45" height="31" stroke="#000000" stroke-width="1.33333" stroke-miterlimit="8" fill="none"/><text font-family="Times New Roman,Times New Roman_MSFontService,sans-serif" font-weight="400" font-size="15" transform="translate(657.777 493)">a[6]</text><rect x="886.5" y="472.5" width="45" height="31" stroke="#000000" stroke-width="1.33333" stroke-miterlimit="8" fill="none"/><text font-family="Times New Roman,Times New Roman_MSFontService,sans-serif" font-weight="400" font-size="15" transform="translate(896.745 493)">a[8]</text><rect x="50.5001" y="421.5" width="119" height="31" stroke="#000000" stroke-width="1.33333" stroke-miterlimit="8" fill="none"/><text font-family="Times New Roman,Times New Roman_MSFontService,sans-serif" font-weight="400" font-size="15" transform="translate(57.2899 442)">c[1]=<tspan font-size="15" x="31.8333" y="0">∑</tspan>a[1]…a[1]</text><rect x="289.5" y="421.5" width="119" height="31" stroke="#4472C4" stroke-width="1.33333" stroke-miterlimit="8" fill="none"/><text fill="#4472C4" font-family="Times New Roman,Times New Roman_MSFontService,sans-serif" font-weight="400" font-size="15" transform="translate(296.258 442)">c[3]=<tspan font-size="15" x="31.8333" y="0">∑</tspan>a[3]…a[3]</text><rect x="527.5" y="421.5" width="120" height="31" stroke="#000000" stroke-width="1.33333" stroke-miterlimit="8" fill="none"/><text font-family="Times New Roman,Times New Roman_MSFontService,sans-serif" font-weight="400" font-size="15" transform="translate(535.226 442)">c[5]=<tspan font-size="15" x="31.8333" y="0">∑</tspan>a[5]…a[5]</text><rect x="766.5" y="421.5" width="120" height="31" stroke="#FF0000" stroke-width="1.33333" stroke-miterlimit="8" fill="none"/><text fill="#FF0000" font-family="Times New Roman,Times New Roman_MSFontService,sans-serif" font-weight="400" font-size="15" transform="translate(774.193 442)">c[7]=<tspan font-size="15" x="31.8334" y="0">∑</tspan>a[7]…a[7]</text><rect x="886.5" y="267.5" width="119" height="32" stroke="#000000" stroke-width="1.33333" stroke-miterlimit="8" fill="none"/><text font-family="Times New Roman,Times New Roman_MSFontService,sans-serif" font-weight="400" font-size="15" transform="translate(893.677 288)">c[8]=<tspan font-size="15" x="31.8333" y="0">∑</tspan>a[1]…a[8]</text><rect x="408.5" y="319.5" width="119" height="31" stroke="#FF0000" stroke-width="1.33333" stroke-miterlimit="8" fill="none"/><text fill="#FF0000" font-family="Times New Roman,Times New Roman_MSFontService,sans-serif" font-weight="400" font-size="15" transform="translate(415.742 339)">c[4]=<tspan font-size="15" x="31.8333" y="0">∑</tspan>a[1]…a[4]</text><rect x="647.5" y="370.5" width="119" height="31" stroke="#FF0000" stroke-width="1.33333" stroke-miterlimit="8" fill="none"/><text fill="#FF0000" font-family="Times New Roman,Times New Roman_MSFontService,sans-serif" font-weight="400" font-size="15" transform="translate(654.709 391)">c[6]=<tspan font-size="15" x="31.8334" y="0">∑</tspan>a[5]…a[6]</text><rect x="169.5" y="370.5" width="120" height="31" stroke="#4472C4" stroke-width="1.33333" stroke-miterlimit="8" fill="none"/><text fill="#4472C4" font-family="Times New Roman,Times New Roman_MSFontService,sans-serif" font-weight="400" font-size="15" transform="translate(176.774 391)">c[2]=<tspan font-size="15" x="31.8333" y="0">∑</tspan>a[1]…a[2]</text><rect x="50.5001" y="216.5" width="45" height="31" stroke="#000000" stroke-width="1.33333" stroke-miterlimit="8" fill="none"/><text font-family="Times New Roman,Times New Roman_MSFontService,sans-serif" font-weight="400" font-size="15" transform="translate(60.3578 237)">c[1]</text><rect x="169.5" y="216.5" width="45" height="31" stroke="#4472C4" stroke-width="1.33333" stroke-miterlimit="8" fill="none"/><text fill="#4472C4" font-family="Times New Roman,Times New Roman_MSFontService,sans-serif" font-weight="400" font-size="15" transform="translate(179.842 237)">c[2]</text><rect x="289.5" y="216.5" width="45" height="31" stroke="#4472C4" stroke-width="1.33333" stroke-miterlimit="8" fill="none"/><text fill="#4472C4" font-family="Times New Roman,Times New Roman_MSFontService,sans-serif" font-weight="400" font-size="15" transform="translate(299.326 237)">c[3]</text><rect x="408.5" y="216.5" width="45" height="31" stroke="#FF0000" stroke-width="1.33333" stroke-miterlimit="8" fill="none"/><text fill="#FF0000" font-family="Times New Roman,Times New Roman_MSFontService,sans-serif" font-weight="400" font-size="15" transform="translate(418.81 237)">c[4]</text><rect x="527.5" y="216.5" width="46" height="31" stroke="#000000" stroke-width="1.33333" stroke-miterlimit="8" fill="none"/><text font-family="Times New Roman,Times New Roman_MSFontService,sans-serif" font-weight="400" font-size="15" transform="translate(538.294 237)">c[5]</text><rect x="766.5" y="216.5" width="46" height="31" stroke="#FF0000" stroke-width="1.33333" stroke-miterlimit="8" fill="none"/><text fill="#FF0000" font-family="Times New Roman,Times New Roman_MSFontService,sans-serif" font-weight="400" font-size="15" transform="translate(777.261 237)">c[7]</text><rect x="647.5" y="216.5" width="45" height="31" stroke="#FF0000" stroke-width="1.33333" stroke-miterlimit="8" fill="none"/><text fill="#FF0000" font-family="Times New Roman,Times New Roman_MSFontService,sans-serif" font-weight="400" font-size="15" transform="translate(657.777 237)">c[6]</text><rect x="886.5" y="216.5" width="45" height="31" stroke="#000000" stroke-width="1.33333" stroke-miterlimit="8" fill="none"/><text font-family="Times New Roman,Times New Roman_MSFontService,sans-serif" font-weight="400" font-size="15" transform="translate(896.745 237)">c[8]</text><path d="M0.0281653-0.666071 476.657 19.4885 476.601 20.8207-0.0281653 0.666071ZM469.181 14.5925 477.939 20.21 468.738 25.0681C468.413 25.2401 468.009 25.1155 467.837 24.7899 467.665 24.4643 467.79 24.061 468.116 23.8891L476.306 19.5646 476.257 20.7152 468.461 15.7148C468.151 15.516 468.061 15.1036 468.26 14.7937 468.459 14.4838 468.871 14.3937 469.181 14.5925Z" transform="matrix(1 0 0 -1 468.5 319.71)"/><path d="M0.342097-0.572201 118.693 70.1852 118.009 71.3296-0.342097 0.572201ZM114.463 62.3249 119.487 71.4363 109.083 71.3243C108.714 71.3203 108.419 71.0186 108.423 70.6505 108.427 70.2823 108.729 69.987 109.097 69.991L118.358 70.0908 117.767 71.0793 113.295 62.9687C113.118 62.6463 113.235 62.2408 113.557 62.063 113.88 61.8852 114.285 62.0025 114.463 62.3249Z" transform="matrix(1 0 0 -1 348.5 421.935)"/><path d="M0.111183-0.65733 118.294 19.3324 118.071 20.6471-0.111183 0.65733ZM111.5 13.5424 119.487 20.2104 109.751 23.8806C109.407 24.0105 109.022 23.8365 108.892 23.492 108.762 23.1475 108.936 22.7629 109.281 22.633L117.947 19.3659 117.755 20.5015 110.645 14.566C110.363 14.33 110.325 13.9096 110.561 13.627 110.797 13.3443 111.217 13.3065 111.5 13.5424Z" transform="matrix(1 0 0 -1 109.5 421.71)"/><path d="M0.666667-3.46319e-06 0.666765 18.8901-0.666569 18.8901-0.666667 3.46319e-06ZM5.24258 11.226 0.000104977 20.2132-5.24246 11.226C-5.42798 10.908-5.32056 10.4998-5.00253 10.3143-4.68449 10.1287-4.27628 10.2362-4.09076 10.5542L0.575949 18.5542-0.575756 18.5542 4.09087 10.5541C4.27639 10.2361 4.6846 10.1287 5.00263 10.3142 5.32067 10.4997 5.4281 10.9079 5.24258 11.226Z" transform="matrix(1 0 0 -1 72.5001 472.71)"/><path d="M0.666667-3.46319e-06 0.666765 18.8901-0.666569 18.8901-0.666667 3.46319e-06ZM5.24258 11.226 0.000104977 20.2132-5.24246 11.226C-5.42798 10.908-5.32056 10.4998-5.00253 10.3143-4.68449 10.1287-4.27628 10.2362-4.09076 10.5542L0.575949 18.5542-0.575756 18.5542 4.09087 10.5541C4.27639 10.2361 4.6846 10.1287 5.00263 10.3142 5.32067 10.4997 5.4281 10.9079 5.24258 11.226Z" transform="matrix(1 0 0 -1 311.5 472.71)"/><path d="M0.666667-3.46319e-06 0.666765 18.8901-0.666569 18.8901-0.666667 3.46319e-06ZM5.24258 11.226 0.000104977 20.2132-5.24246 11.226C-5.42798 10.908-5.32056 10.4998-5.00253 10.3143-4.68449 10.1287-4.27628 10.2362-4.09076 10.5542L0.575949 18.5542-0.575756 18.5542 4.09087 10.5541C4.27639 10.2361 4.6846 10.1287 5.00263 10.3142 5.32067 10.4997 5.4281 10.9079 5.24258 11.226Z" transform="matrix(1 0 0 -1 550.5 472.71)"/><path d="M0.666667-3.46319e-06 0.666765 18.8901-0.666569 18.8901-0.666667 3.46319e-06ZM5.24258 11.226 0.000104977 20.2132-5.24246 11.226C-5.42798 10.908-5.32056 10.4998-5.00253 10.3143-4.68449 10.1287-4.27628 10.2362-4.09076 10.5542L0.575949 18.5542-0.575756 18.5542 4.09087 10.5541C4.27639 10.2361 4.6846 10.1287 5.00263 10.3142 5.32067 10.4997 5.4281 10.9079 5.24258 11.226Z" transform="matrix(1 0 0 -1 789.5 472.71)"/><path d="M0.591356-0.307802 37.1638 69.9561 35.9811 70.5717-0.591356 0.307802ZM37.6843 61.0453 37.1835 71.4377 28.3838 65.8863C28.0724 65.6898 27.9792 65.2781 28.1756 64.9667 28.3721 64.6553 28.7838 64.5621 29.0952 64.7586L36.9283 69.7002 35.9067 70.232 36.3526 60.9811C36.3703 60.6133 36.6828 60.3296 37.0505 60.3473 37.4183 60.365 37.7021 60.6775 37.6843 61.0453Z" transform="matrix(1 0 0 -1 192.5 472.935)"/><path d="M0.111183-0.65733 118.294 19.3324 118.071 20.6471-0.111183 0.65733ZM111.5 13.5424 119.487 20.2104 109.751 23.8806C109.407 24.0105 109.022 23.8365 108.892 23.492 108.762 23.1475 108.936 22.7629 109.281 22.633L117.947 19.3659 117.755 20.5015 110.645 14.566C110.363 14.33 110.325 13.9096 110.561 13.627 110.797 13.3443 111.217 13.3065 111.5 13.5424Z" transform="matrix(1 0 0 -1 587.5 421.71)"/><path d="M0.637998-0.193397 37.4365 121.201 36.1605 121.588-0.637998 0.193397ZM39.5929 112.541 37.1829 122.663 29.5587 115.583C29.2889 115.332 29.2733 114.911 29.5239 114.641 29.7744 114.371 30.1962 114.355 30.466 114.606L37.2528 120.908 36.1506 121.242 38.2958 112.232C38.3811 111.874 38.7406 111.653 39.0988 111.738 39.4569 111.824 39.6782 112.183 39.5929 112.541Z" transform="matrix(1 0 0 -1 431.5 473.16)"/><path d="M0.0561804-0.664295 237.71 19.4344 237.597 20.763-0.0561804 0.664295ZM230.458 14.2289 238.971 20.2101 229.574 24.6767C229.241 24.8347 228.844 24.6933 228.686 24.3607 228.528 24.0282 228.669 23.6305 229.002 23.4724L237.366 19.4965 237.269 20.6441 229.691 15.3199C229.39 15.1082 229.317 14.6924 229.529 14.3912 229.74 14.0899 230.156 14.0172 230.458 14.2289Z" transform="matrix(1 0 0 -1 229.5 370.71)"/><path d="M0.190938-0.638739 237.893 70.4176 237.511 71.6951-0.190938 0.638739ZM231.862 63.8387 238.971 71.4356 228.859 73.8845C228.501 73.9712 228.14 73.7513 228.054 73.3935 227.967 73.0356 228.187 72.6753 228.545 72.5886L237.546 70.4087 237.216 71.5122 230.888 64.7498C230.637 64.4809 230.651 64.059 230.919 63.8075 231.188 63.5559 231.61 63.5699 231.862 63.8387Z" transform="matrix(1 0 0 -1 707.5 370.935)"/><path d="M0.477546-0.465182 119.042 121.25 118.087 122.181-0.477546 0.465182ZM116.97 112.566 119.486 122.662 109.46 119.882C109.105 119.784 108.897 119.417 108.995 119.062 109.094 118.707 109.461 118.499 109.816 118.597L118.741 121.072 117.916 121.875 115.677 112.888C115.588 112.531 115.805 112.169 116.162 112.08 116.52 111.991 116.881 112.209 116.97 112.566Z" transform="matrix(1 0 0 -1 826.5 422.16)"/><path d="M0.591356-0.307802 37.1638 69.9561 35.9811 70.5717-0.591356 0.307802ZM37.6843 61.0453 37.1835 71.4377 28.3838 65.8863C28.0724 65.6898 27.9792 65.2781 28.1756 64.9667 28.3721 64.6553 28.7838 64.5621 29.0952 64.7586L36.9283 69.7002 35.9067 70.232 36.3526 60.9811C36.3703 60.6133 36.6828 60.3296 37.0505 60.3473 37.4183 60.365 37.7021 60.6775 37.6843 61.0453Z" transform="matrix(1 0 0 -1 670.5 472.935)"/><path d="M0.651929-0.139403 37.558 172.455 36.2541 172.733-0.651929 0.139403ZM40.43 164.003 37.1827 173.888 30.1768 166.195C29.9289 165.923 29.9486 165.502 30.2208 165.254 30.493 165.006 30.9146 165.025 31.1626 165.298L37.3989 172.145 36.2727 172.386 39.1633 163.587C39.2782 163.237 39.655 163.047 40.0047 163.162 40.3545 163.276 40.545 163.653 40.43 164.003Z" transform="matrix(1 0 0 -1 908.5 473.385)"/><text font-family="DengXian,DengXian_MSFontService,sans-serif" font-weight="400" font-size="19" transform="translate(330.009 553)">查询<tspan font-family="Times New Roman,Times New Roman_MSFontService,sans-serif" font-size="19" x="42.5" y="0">∑</tspan><tspan font-family="Times New Roman,Times New Roman_MSFontService,sans-serif" font-size="19" x="55.8333" y="0">a</tspan><tspan font-family="Times New Roman,Times New Roman_MSFontService,sans-serif" font-size="19" x="64.1667" y="0">[4]…</tspan><tspan font-family="Times New Roman,Times New Roman_MSFontService,sans-serif" font-size="19" x="104.5" y="0">a[7] = (</tspan><tspan fill="#FF0000" font-family="Times New Roman,Times New Roman_MSFontService,sans-serif" font-size="19" x="160.5" y="0">∑</tspan><tspan fill="#FF0000" font-family="Times New Roman,Times New Roman_MSFontService,sans-serif" font-size="19" x="173.833" y="0">a[1]…a[7]</tspan><tspan font-family="Times New Roman,Times New Roman_MSFontService,sans-serif" font-size="19" x="252.5" y="0">) </tspan><tspan font-family="Times New Roman,Times New Roman_MSFontService,sans-serif" font-size="19" x="263.333" y="0">-</tspan><tspan font-family="Times New Roman,Times New Roman_MSFontService,sans-serif" font-size="19" x="274.167" y="0">(</tspan><tspan fill="#4472C4" font-family="Times New Roman,Times New Roman_MSFontService,sans-serif" font-size="19" x="280.333" y="0">∑</tspan><tspan fill="#4472C4" font-family="Times New Roman,Times New Roman_MSFontService,sans-serif" font-size="19" x="293.667" y="0">a[1]…a[3]</tspan><tspan font-family="Times New Roman,Times New Roman_MSFontService,sans-serif" font-size="19" x="372.333" y="0">)</tspan></text></g></svg>