<svg width="959" height="297" xmlns="http://www.w3.org/2000/svg" xmlns:xlink="http://www.w3.org/1999/xlink" overflow="hidden"><defs><clipPath id="clip0"><rect x="48" y="215" width="959" height="297"/></clipPath></defs><g clip-path="url(#clip0)" transform="translate(-48 -215)"><rect x="50.5001" y="477.5" width="45" height="32" stroke="#000000" stroke-width="1.33333" stroke-miterlimit="8" fill="none"/><text font-family="Times New Roman,Times New Roman_MSFontService,sans-serif" font-weight="400" font-size="15" transform="translate(60.3571 498)">a[1]</text><rect x="169.5" y="477.5" width="45" height="32" stroke="#000000" stroke-width="1.33333" stroke-miterlimit="8" fill="none"/><text font-family="Times New Roman,Times New Roman_MSFontService,sans-serif" font-weight="400" font-size="15" transform="translate(179.837 498)">a[2]</text><rect x="289.5" y="477.5" width="45" height="32" stroke="#000000" stroke-width="1.33333" stroke-miterlimit="8" fill="none"/><text font-family="Times New Roman,Times New Roman_MSFontService,sans-serif" font-weight="400" font-size="15" transform="translate(299.318 498)">a[3]</text><rect x="408.5" y="477.5" width="45" height="32" stroke="#000000" stroke-width="1.33333" stroke-miterlimit="8" fill="none"/><text font-family="Times New Roman,Times New Roman_MSFontService,sans-serif" font-weight="400" font-size="15" transform="translate(418.798 498)">a[4]</text><rect x="527.5" y="477.5" width="46" height="32" stroke="#000000" stroke-width="1.33333" stroke-miterlimit="8" fill="none"/><text font-family="Times New Roman,Times New Roman_MSFontService,sans-serif" font-weight="400" font-size="15" transform="translate(538.278 498)">a[5]</text><rect x="766.5" y="477.5" width="46" height="32" stroke="#000000" stroke-width="1.33333" stroke-miterlimit="8" fill="none"/><text font-family="Times New Roman,Times New Roman_MSFontService,sans-serif" font-weight="400" font-size="15" transform="translate(777.239 498)">a[7]</text><rect x="647.5" y="477.5" width="45" height="32" stroke="#000000" stroke-width="1.33333" stroke-miterlimit="8" fill="none"/><text font-family="Times New Roman,Times New Roman_MSFontService,sans-serif" font-weight="400" font-size="15" transform="translate(657.759 498)">a[6]</text><rect x="886.5" y="477.5" width="45" height="32" stroke="#000000" stroke-width="1.33333" stroke-miterlimit="8" fill="none"/><text font-family="Times New Roman,Times New Roman_MSFontService,sans-serif" font-weight="400" font-size="15" transform="translate(896.719 498)">a[8]</text><rect x="50.5001" y="425.5" width="119" height="32" stroke="#000000" stroke-width="1.33333" stroke-miterlimit="8" fill="none"/><text font-family="Times New Roman,Times New Roman_MSFontService,sans-serif" font-weight="400" font-size="15" transform="translate(57.2881 446)">c[1]=<tspan font-size="15" x="31.8333" y="0">∑</tspan>a[1]…a[1]</text><rect x="289.5" y="425.5" width="119" height="32" stroke="#000000" stroke-width="1.33333" stroke-miterlimit="8" fill="none"/><text font-family="Times New Roman,Times New Roman_MSFontService,sans-serif" font-weight="400" font-size="15" transform="translate(296.249 446)">c[3]=<tspan font-size="15" x="31.8333" y="0">∑</tspan>a[3]…a[3]</text><rect x="527.5" y="425.5" width="120" height="32" stroke="#000000" stroke-width="1.33333" stroke-miterlimit="8" fill="none"/><text font-family="Times New Roman,Times New Roman_MSFontService,sans-serif" font-weight="400" font-size="15" transform="translate(535.209 446)">c[5]=<tspan font-size="15" x="31.8333" y="0">∑</tspan>a[5]…a[5]</text><rect x="766.5" y="425.5" width="120" height="32" stroke="#000000" stroke-width="1.33333" stroke-miterlimit="8" fill="none"/><text font-family="Times New Roman,Times New Roman_MSFontService,sans-serif" font-weight="400" font-size="15" transform="translate(774.17 446)">c[7]=<tspan font-size="15" x="31.8333" y="0">∑</tspan>a[7]…a[7]</text><rect x="886.5" y="268.5" width="119" height="32" stroke="#000000" stroke-width="1.33333" stroke-miterlimit="8" fill="none"/><text font-family="Times New Roman,Times New Roman_MSFontService,sans-serif" font-weight="400" font-size="15" transform="translate(893.65 289)">c[8]=<tspan font-size="15" x="31.8334" y="0">∑</tspan>a[1]…a[8]</text><rect x="408.5" y="321.5" width="119" height="31" stroke="#000000" stroke-width="1.33333" stroke-miterlimit="8" fill="none"/><text font-family="Times New Roman,Times New Roman_MSFontService,sans-serif" font-weight="400" font-size="15" transform="translate(415.729 342)">c[4]=<tspan font-size="15" x="31.8333" y="0">∑</tspan>a[1]…a[4]</text><rect x="647.5" y="373.5" width="119" height="31" stroke="#000000" stroke-width="1.33333" stroke-miterlimit="8" fill="none"/><text font-family="Times New Roman,Times New Roman_MSFontService,sans-serif" font-weight="400" font-size="15" transform="translate(654.69 394)">c[6]=<tspan font-size="15" x="31.8334" y="0">∑</tspan>a[5]…a[6]</text><rect x="169.5" y="373.5" width="120" height="31" stroke="#000000" stroke-width="1.33333" stroke-miterlimit="8" fill="none"/><text font-family="Times New Roman,Times New Roman_MSFontService,sans-serif" font-weight="400" font-size="15" transform="translate(176.768 394)">c[2]=<tspan font-size="15" x="31.8333" y="0">∑</tspan>a[1]…a[2]</text><rect x="50.5001" y="216.5" width="45" height="32" stroke="#000000" stroke-width="1.33333" stroke-miterlimit="8" fill="none"/><text font-family="Times New Roman,Times New Roman_MSFontService,sans-serif" font-weight="400" font-size="15" transform="translate(60.3571 237)">c[1]</text><rect x="169.5" y="216.5" width="45" height="32" stroke="#000000" stroke-width="1.33333" stroke-miterlimit="8" fill="none"/><text font-family="Times New Roman,Times New Roman_MSFontService,sans-serif" font-weight="400" font-size="15" transform="translate(179.837 237)">c[2]</text><rect x="289.5" y="216.5" width="45" height="32" stroke="#000000" stroke-width="1.33333" stroke-miterlimit="8" fill="none"/><text font-family="Times New Roman,Times New Roman_MSFontService,sans-serif" font-weight="400" font-size="15" transform="translate(299.318 237)">c[3]</text><rect x="408.5" y="216.5" width="45" height="32" stroke="#000000" stroke-width="1.33333" stroke-miterlimit="8" fill="none"/><text font-family="Times New Roman,Times New Roman_MSFontService,sans-serif" font-weight="400" font-size="15" transform="translate(418.798 237)">c[4]</text><rect x="527.5" y="216.5" width="46" height="32" stroke="#000000" stroke-width="1.33333" stroke-miterlimit="8" fill="none"/><text font-family="Times New Roman,Times New Roman_MSFontService,sans-serif" font-weight="400" font-size="15" transform="translate(538.278 237)">c[5]</text><rect x="766.5" y="216.5" width="46" height="32" stroke="#000000" stroke-width="1.33333" stroke-miterlimit="8" fill="none"/><text font-family="Times New Roman,Times New Roman_MSFontService,sans-serif" font-weight="400" font-size="15" transform="translate(777.239 237)">c[7]</text><rect x="647.5" y="216.5" width="45" height="32" stroke="#000000" stroke-width="1.33333" stroke-miterlimit="8" fill="none"/><text font-family="Times New Roman,Times New Roman_MSFontService,sans-serif" font-weight="400" font-size="15" transform="translate(657.759 237)">c[6]</text><rect x="886.5" y="216.5" width="45" height="32" stroke="#000000" stroke-width="1.33333" stroke-miterlimit="8" fill="none"/><text font-family="Times New Roman,Times New Roman_MSFontService,sans-serif" font-weight="400" font-size="15" transform="translate(896.719 237)">c[8]</text><path d="M0.0287047-0.666048 476.634 19.8742 476.577 21.2063-0.0287047 0.666048ZM469.171 14.9725 477.924 20.5971 468.72 25.4478C468.394 25.6194 467.991 25.4945 467.819 25.1688 467.648 24.8431 467.772 24.4399 468.098 24.2682L476.292 19.9503 476.242 21.101 468.45 16.0942C468.141 15.8951 468.051 15.4827 468.25 15.1729 468.449 14.8632 468.862 14.7734 469.171 14.9725Z" transform="matrix(1 0 0 -1 468.5 321.097)"/><path d="M0.346895-0.569305 118.7 71.5468 118.006 72.6854-0.346895 0.569305ZM114.536 63.6513 119.483 72.8045 109.08 72.605C108.712 72.598 108.42 72.2938 108.427 71.9257 108.434 71.5576 108.738 71.2649 109.106 71.2719L118.366 71.4495 117.767 72.4331 113.363 64.2852C113.188 63.9613 113.309 63.5568 113.633 63.3817 113.957 63.2067 114.361 63.3273 114.536 63.6513Z" transform="matrix(1 0 0 -1 348.5 425.303)"/><path d="M0.113255-0.656976 118.293 19.7157 118.066 21.0297-0.113255 0.656976ZM111.517 13.9044 119.483 20.5975 109.736 24.237C109.391 24.3658 109.007 24.1906 108.878 23.8457 108.75 23.5008 108.925 23.1167 109.27 22.9879L117.946 19.7482 117.751 20.8831 110.66 14.9252C110.378 14.6884 110.341 14.2679 110.578 13.986 110.815 13.7041 111.236 13.6676 111.517 13.9044Z" transform="matrix(1 0 0 -1 109.5 425.097)"/><path d="M0.666667-3.39812e-06 0.666765 19.2771-0.666568 19.2771-0.666667 3.39812e-06ZM5.24258 11.6129 0.000105015 20.6002-5.24246 11.613C-5.42798 11.295-5.32056 10.8868-5.00253 10.7012-4.68449 10.5157-4.27628 10.6231-4.09076 10.9412L0.575949 18.9411-0.575756 18.9411 4.09087 10.9411C4.27639 10.6231 4.6846 10.5157 5.00264 10.7012 5.32067 10.8867 5.4281 11.2949 5.24258 11.6129Z" transform="matrix(1 0 0 -1 72.5001 478.097)"/><path d="M0.666667-3.39812e-06 0.666765 19.2771-0.666568 19.2771-0.666667 3.39812e-06ZM5.24258 11.6129 0.000105015 20.6002-5.24246 11.613C-5.42798 11.295-5.32056 10.8868-5.00253 10.7012-4.68449 10.5157-4.27628 10.6231-4.09076 10.9412L0.575949 18.9411-0.575756 18.9411 4.09087 10.9411C4.27639 10.6231 4.6846 10.5157 5.00264 10.7012 5.32067 10.8867 5.4281 11.2949 5.24258 11.6129Z" transform="matrix(1 0 0 -1 311.5 478.097)"/><path d="M0.666667-3.39812e-06 0.666765 19.2771-0.666568 19.2771-0.666667 3.39812e-06ZM5.24258 11.6129 0.000105015 20.6002-5.24246 11.613C-5.42798 11.295-5.32056 10.8868-5.00253 10.7012-4.68449 10.5157-4.27628 10.6231-4.09076 10.9412L0.575949 18.9411-0.575756 18.9411 4.09087 10.9411C4.27639 10.6231 4.6846 10.5157 5.00264 10.7012 5.32067 10.8867 5.4281 11.2949 5.24258 11.6129Z" transform="matrix(1 0 0 -1 550.5 478.097)"/><path d="M0.666667-3.39812e-06 0.666765 19.2771-0.666568 19.2771-0.666667 3.39812e-06ZM5.24258 11.6129 0.000105015 20.6002-5.24246 11.613C-5.42798 11.295-5.32056 10.8868-5.00253 10.7012-4.68449 10.5157-4.27628 10.6231-4.09076 10.9412L0.575949 18.9411-0.575756 18.9411 4.09087 10.9411C4.27639 10.6231 4.6846 10.5157 5.00264 10.7012 5.32067 10.8867 5.4281 11.2949 5.24258 11.6129Z" transform="matrix(1 0 0 -1 789.5 478.097)"/><path d="M0.59372-0.303217 37.1742 71.324 35.9868 71.9305-0.59372 0.303217ZM37.7637 62.4176 37.1824 72.8058 28.4259 67.1864C28.1161 66.9875 28.0261 66.5751 28.2249 66.2653 28.4238 65.9554 28.8362 65.8654 29.1461 66.0643L36.9407 71.0664 35.915 71.5902 36.4325 62.3431C36.453 61.9755 36.7677 61.6941 37.1353 61.7147 37.503 61.7353 37.7843 62.0499 37.7637 62.4176Z" transform="matrix(1 0 0 -1 192.5 477.303)"/><path d="M0.113255-0.656976 118.293 19.7157 118.066 21.0297-0.113255 0.656976ZM111.517 13.9044 119.483 20.5975 109.736 24.237C109.391 24.3658 109.007 24.1906 108.878 23.8457 108.75 23.5008 108.925 23.1167 109.27 22.9879L117.946 19.7482 117.751 20.8831 110.66 14.9252C110.378 14.6884 110.341 14.2679 110.578 13.986 110.815 13.7041 111.236 13.6676 111.517 13.9044Z" transform="matrix(1 0 0 -1 587.5 425.097)"/><path d="M0.639002-0.190056 37.4436 123.553 36.1655 123.933-0.639002 0.190056ZM39.6448 114.903 37.1819 125.012 29.5948 117.892C29.3263 117.64 29.3129 117.219 29.5649 116.95 29.8168 116.682 30.2387 116.668 30.5072 116.92L37.2609 123.258 36.157 123.586 38.3493 114.588C38.4365 114.23 38.7971 114.011 39.1548 114.098 39.5126 114.185 39.7319 114.546 39.6448 114.903Z" transform="matrix(1 0 0 -1 431.5 477.509)"/><path d="M0.0572503-0.664204 237.71 19.8201 237.596 21.1485-0.0572503 0.664204ZM230.46 14.6023 238.964 20.5972 229.56 25.0486C229.227 25.2061 228.829 25.064 228.672 24.7312 228.514 24.3985 228.656 24.001 228.989 23.8435L237.36 19.881 237.261 21.0285 229.692 15.692C229.391 15.4799 229.319 15.064 229.531 14.763 229.743 14.4621 230.159 14.3901 230.46 14.6023Z" transform="matrix(1 0 0 -1 229.5 373.097)"/><path d="M0.194293-0.637726 237.895 71.7815 237.507 73.0569-0.194293 0.637726ZM231.894 65.1697 238.964 72.8038 228.839 75.1996C228.48 75.2844 228.121 75.0626 228.036 74.7043 227.952 74.346 228.173 73.9869 228.532 73.9021L237.544 71.7695 237.209 72.8712 230.916 66.0756C230.666 65.8055 230.682 65.3837 230.952 65.1335 231.222 64.8833 231.644 64.8995 231.894 65.1697Z" transform="matrix(1 0 0 -1 707.5 373.303)"/><path d="M0.481941-0.460627 119.05 123.594 118.086 124.515-0.481941 0.460627ZM117.063 114.892 119.482 125.011 109.483 122.137C109.129 122.035 108.925 121.665 109.026 121.312 109.128 120.958 109.497 120.753 109.851 120.855L118.752 123.414 117.92 124.21 115.766 115.202C115.68 114.844 115.901 114.484 116.259 114.399 116.617 114.313 116.977 114.534 117.063 114.892Z" transform="matrix(1 0 0 -1 826.5 425.509)"/><path d="M0.59372-0.303217 37.1742 71.324 35.9868 71.9305-0.59372 0.303217ZM37.7637 62.4176 37.1824 72.8058 28.4259 67.1864C28.1161 66.9875 28.0261 66.5751 28.2249 66.2653 28.4238 65.9554 28.8362 65.8654 29.1461 66.0643L36.9407 71.0664 35.915 71.5902 36.4325 62.3431C36.453 61.9755 36.7677 61.6941 37.1353 61.7147 37.503 61.7353 37.7843 62.0499 37.7637 62.4176Z" transform="matrix(1 0 0 -1 670.5 477.303)"/><path d="M0.652461-0.136891 37.5618 175.783 36.2568 176.057-0.652461 0.136891ZM40.467 167.346 37.1816 177.218 30.2054 169.499C29.9586 169.226 29.9799 168.804 30.253 168.557 30.5262 168.31 30.9478 168.332 31.1946 168.605L37.4046 175.476 36.2774 175.713 39.2019 166.925C39.3182 166.576 39.6956 166.387 40.045 166.503 40.3943 166.619 40.5833 166.997 40.467 167.346Z" transform="matrix(1 0 0 -1 908.5 477.715)"/></g></svg>