<?xml version="1.0" encoding="UTF-8" standalone="no"?>
<!DOCTYPE svg PUBLIC "-//W3C//DTD SVG 1.1//EN" "http://www.w3.org/Graphics/SVG/1.1/DTD/svg11.dtd">
<!-- Generated by graphviz version 2.40.1 (20161225.0304)
 -->
<!-- Title: G Pages: 1 -->
<svg width="530pt" height="332pt" viewBox="0.00 0.00 530.00 332.00" xmlns="http://www.w3.org/2000/svg" xmlns:xlink="http://www.w3.org/1999/xlink">
<g id="graph0" class="graph" transform="scale(1 1) rotate(0) translate(4 328)">
<title>G</title>
<polygon fill="#ffffff" stroke="transparent" points="-4,4 -4,-328 526,-328 526,4 -4,4"/>
<!-- a -->
<g id="node1" class="node">
<title>a</title>
<ellipse fill="none" stroke="#000000" cx="342" cy="-306" rx="18" ry="18"/>
<text text-anchor="middle" x="342" y="-301.8" font-family="Times,serif" font-size="14.00" fill="#000000">a</text>
</g>
<!-- b -->
<g id="node2" class="node">
<title>b</title>
<ellipse fill="none" stroke="#000000" cx="288" cy="-234" rx="18" ry="18"/>
<text text-anchor="middle" x="288" y="-229.8" font-family="Times,serif" font-size="14.00" fill="#000000">b</text>
</g>
<!-- a&#45;&#45;b -->
<g id="edge1" class="edge">
<title>a--b</title>
<path fill="none" stroke="#000000" d="M331.0723,-291.4297C321.7035,-278.938 308.2755,-261.034 298.9115,-248.5486"/>
</g>
<!-- c -->
<g id="node3" class="node">
<title>c</title>
<ellipse fill="none" stroke="#000000" cx="423" cy="-234" rx="18" ry="18"/>
<text text-anchor="middle" x="423" y="-229.8" font-family="Times,serif" font-size="14.00" fill="#000000">c</text>
</g>
<!-- a&#45;&#45;c -->
<g id="edge2" class="edge">
<title>a--c</title>
<path fill="none" stroke="#000000" d="M355.7405,-293.7862C370.7257,-280.466 394.5577,-259.2821 409.4624,-246.0334"/>
</g>
<!-- d -->
<g id="node4" class="node">
<title>d</title>
<ellipse fill="none" stroke="#000000" cx="153" cy="-162" rx="18" ry="18"/>
<text text-anchor="middle" x="153" y="-157.8" font-family="Times,serif" font-size="14.00" fill="#000000">d</text>
</g>
<!-- b&#45;&#45;d -->
<g id="edge3" class="edge">
<title>b--d</title>
<path fill="none" stroke="#000000" d="M271.9836,-225.4579C246.0016,-211.6009 194.9641,-184.3809 168.9956,-170.531"/>
</g>
<!-- e -->
<g id="node5" class="node">
<title>e</title>
<ellipse fill="none" stroke="#000000" cx="288" cy="-162" rx="18" ry="18"/>
<text text-anchor="middle" x="288" y="-157.8" font-family="Times,serif" font-size="14.00" fill="#000000">e</text>
</g>
<!-- b&#45;&#45;e -->
<g id="edge4" class="edge">
<title>b--e</title>
<path fill="none" stroke="#000000" d="M288,-215.8314C288,-205 288,-191.2876 288,-180.4133"/>
</g>
<!-- f -->
<g id="node6" class="node">
<title>f</title>
<ellipse fill="none" stroke="#000000" cx="396" cy="-162" rx="18" ry="18"/>
<text text-anchor="middle" x="396" y="-157.8" font-family="Times,serif" font-size="14.00" fill="#000000">f</text>
</g>
<!-- c&#45;&#45;f -->
<g id="edge5" class="edge">
<title>c--f</title>
<path fill="none" stroke="#000000" d="M416.6014,-216.937C412.2974,-205.4596 406.6471,-190.3922 402.3527,-178.9405"/>
</g>
<!-- 16 -->
<g id="node19" class="node">
<title>16</title>
<polygon fill="none" stroke="#000000" points="468,-180 432,-180 432,-144 468,-144 468,-180"/>
<text text-anchor="middle" x="450" y="-157.8" font-family="Times,serif" font-size="14.00" fill="#000000">16</text>
</g>
<!-- c&#45;&#45;16 -->
<g id="edge6" class="edge">
<title>c--16</title>
<path fill="none" stroke="#000000" d="M429.3986,-216.937C433.5467,-205.8755 438.9452,-191.4794 443.1753,-180.1992"/>
</g>
<!-- cc -->
<!-- c&#45;&#45;cc -->
<!-- g -->
<g id="node7" class="node">
<title>g</title>
<ellipse fill="none" stroke="#000000" cx="72" cy="-90" rx="18" ry="18"/>
<text text-anchor="middle" x="72" y="-85.8" font-family="Times,serif" font-size="14.00" fill="#000000">g</text>
</g>
<!-- d&#45;&#45;g -->
<g id="edge7" class="edge">
<title>d--g</title>
<path fill="none" stroke="#000000" d="M139.2595,-149.7862C124.2743,-136.466 100.4423,-115.2821 85.5376,-102.0334"/>
</g>
<!-- h -->
<g id="node8" class="node">
<title>h</title>
<ellipse fill="none" stroke="#000000" cx="153" cy="-90" rx="18" ry="18"/>
<text text-anchor="middle" x="153" y="-85.8" font-family="Times,serif" font-size="14.00" fill="#000000">h</text>
</g>
<!-- d&#45;&#45;h -->
<g id="edge8" class="edge">
<title>d--h</title>
<path fill="none" stroke="#000000" d="M153,-143.8314C153,-133 153,-119.2876 153,-108.4133"/>
</g>
<!-- i -->
<g id="node9" class="node">
<title>i</title>
<ellipse fill="none" stroke="#000000" cx="261" cy="-90" rx="18" ry="18"/>
<text text-anchor="middle" x="261" y="-85.8" font-family="Times,serif" font-size="14.00" fill="#000000">i</text>
</g>
<!-- e&#45;&#45;i -->
<g id="edge9" class="edge">
<title>e--i</title>
<path fill="none" stroke="#000000" d="M281.6014,-144.937C277.2974,-133.4596 271.6471,-118.3922 267.3527,-106.9405"/>
</g>
<!-- 9 -->
<g id="node14" class="node">
<title>9</title>
<polygon fill="none" stroke="#000000" points="333,-108 297,-108 297,-72 333,-72 333,-108"/>
<text text-anchor="middle" x="315" y="-85.8" font-family="Times,serif" font-size="14.00" fill="#000000">9</text>
</g>
<!-- e&#45;&#45;7 -->
<g id="edge10" class="edge">
<title>e--7</title>
<path fill="none" stroke="#000000" d="M294.3986,-144.937C298.5467,-133.8755 303.9452,-119.4794 308.1753,-108.1992"/>
</g>
<!-- 10 -->
<g id="node17" class="node">
<title>10</title>
<polygon fill="none" stroke="#000000" points="387,-108 351,-108 351,-72 387,-72 387,-108"/>
<text text-anchor="middle" x="369" y="-85.8" font-family="Times,serif" font-size="14.00" fill="#000000">10</text>
</g>
<!-- f&#45;&#45;10 -->
<g id="edge11" class="edge">
<title>f--10</title>
<path fill="none" stroke="#000000" d="M389.6014,-144.937C385.4533,-133.8755 380.0548,-119.4794 375.8247,-108.1992"/>
</g>
<!-- 12 -->
<g id="node18" class="node">
<title>12</title>
<polygon fill="none" stroke="#000000" points="441,-108 405,-108 405,-72 441,-72 441,-108"/>
<text text-anchor="middle" x="423" y="-85.8" font-family="Times,serif" font-size="14.00" fill="#000000">12</text>
</g>
<!-- f&#45;&#45;12 -->
<g id="edge12" class="edge">
<title>f--12</title>
<path fill="none" stroke="#000000" d="M402.3986,-144.937C406.5467,-133.8755 411.9452,-119.4794 416.1753,-108.1992"/>
</g>
<!-- ff -->
<!-- f&#45;&#45;ff -->
<!-- 1 -->
<g id="node10" class="node">
<title>1</title>
<polygon fill="none" stroke="#000000" points="36,-36 0,-36 0,0 36,0 36,-36"/>
<text text-anchor="middle" x="18" y="-13.8" font-family="Times,serif" font-size="14.00" fill="#000000">1</text>
</g>
<!-- g&#45;&#45;1 -->
<g id="edge13" class="edge">
<title>g--1</title>
<path fill="none" stroke="#000000" d="M61.0723,-75.4297C52.5664,-64.0886 40.7147,-48.2862 31.596,-36.128"/>
</g>
<!-- 2 -->
<g id="node11" class="node">
<title>2</title>
<polygon fill="none" stroke="#000000" points="90,-36 54,-36 54,0 90,0 90,-36"/>
<text text-anchor="middle" x="72" y="-13.8" font-family="Times,serif" font-size="14.00" fill="#000000">2</text>
</g>
<!-- g&#45;&#45;2 -->
<g id="edge14" class="edge">
<title>g--2</title>
<path fill="none" stroke="#000000" d="M72,-71.8314C72,-61 72,-47.2876 72,-36.4133"/>
</g>
<!-- 4 -->
<g id="node12" class="node">
<title>4</title>
<polygon fill="none" stroke="#000000" points="144,-36 108,-36 108,0 144,0 144,-36"/>
<text text-anchor="middle" x="126" y="-13.8" font-family="Times,serif" font-size="14.00" fill="#000000">4</text>
</g>
<!-- h&#45;&#45;4 -->
<g id="edge15" class="edge">
<title>h--4</title>
<path fill="none" stroke="#000000" d="M146.6014,-72.937C142.4533,-61.8755 137.0548,-47.4794 132.8247,-36.1992"/>
</g>
<!-- 6 -->
<g id="node13" class="node">
<title>6</title>
<polygon fill="none" stroke="#000000" points="198,-36 162,-36 162,0 198,0 198,-36"/>
<text text-anchor="middle" x="180" y="-13.8" font-family="Times,serif" font-size="14.00" fill="#000000">6</text>
</g>
<!-- h&#45;&#45;6 -->
<g id="edge16" class="edge">
<title>h--6</title>
<path fill="none" stroke="#000000" d="M159.3986,-72.937C163.5467,-61.8755 168.9452,-47.4794 173.1753,-36.1992"/>
</g>
<!-- 7 -->
<g id="node15" class="node">
<title>7</title>
<polygon fill="none" stroke="#000000" points="252,-36 216,-36 216,0 252,0 252,-36"/>
<text text-anchor="middle" x="234" y="-13.8" font-family="Times,serif" font-size="14.00" fill="#000000">7</text>
</g>
<!-- i&#45;&#45;8 -->
<g id="edge17" class="edge">
<title>i--8</title>
<path fill="none" stroke="#000000" d="M254.6014,-72.937C250.4533,-61.8755 245.0548,-47.4794 240.8247,-36.1992"/>
</g>
<!-- 8 -->
<g id="node16" class="node">
<title>8</title>
<polygon fill="none" stroke="#000000" points="306,-36 270,-36 270,0 306,0 306,-36"/>
<text text-anchor="middle" x="288" y="-13.8" font-family="Times,serif" font-size="14.00" fill="#000000">8</text>
</g>
<!-- i&#45;&#45;9 -->
<g id="edge18" class="edge">
<title>i--9</title>
<path fill="none" stroke="#000000" d="M267.3986,-72.937C271.5467,-61.8755 276.9452,-47.4794 281.1753,-36.1992"/>
</g>
<!-- ii -->
<!-- i&#45;&#45;ii -->
<!-- bb -->
</g>
</svg>