<?xml version="1.0" encoding="UTF-8" standalone="no"?>
<!DOCTYPE svg PUBLIC "-//W3C//DTD SVG 1.1//EN" "http://www.w3.org/Graphics/SVG/1.1/DTD/svg11.dtd">
<svg xmlns="http://www.w3.org/2000/svg" xmlns:xlink="http://www.w3.org/1999/xlink" version="1.1" width="945.96pt" height="767.04pt" viewBox="0 0 945.96 767.04">
<g enable-background="new">
<g>
<g id="Layer-1" data-name="Span">
<clipPath id="cp0">
<path transform="matrix(1,0,0,-1,0,767.04)" d="M .000014096 0 L 945.96 0 L 945.96 767.04 L .000014096 767.04 Z " fill-rule="evenodd"/>
</clipPath>
<g clip-path="url(#cp0)">
<text xml:space="preserve" transform="matrix(1 0 -0 1 0 767.04)" font-size="10.56" font-family="DengXian"><tspan y="6.24" x="945.12"> </tspan></text>
</g>
</g>
<g id="Layer-1" data-name="P">
<clipPath id="cp1">
<path transform="matrix(1,0,0,-1,0,767.04)" d="M .000014096 .00030518 L 945.01 .00030518 L 945.01 760.1403 L .000014096 760.1403 Z " fill-rule="evenodd"/>
</clipPath>
<g clip-path="url(#cp1)">
<clipPath id="cp2">
<path transform="matrix(.099878627,0,0,-.099800679,0,773.09628)" d="M 0 0 L 9461.48 0 L 9461.48 7677.56 L 0 7677.56 Z " fill-rule="evenodd"/>
</clipPath>
<g clip-path="url(#cp2)">
<path transform="matrix(.099878627,0,0,-.099800679,0,773.09628)" stroke-width="45" stroke-linecap="round" stroke-linejoin="round" fill="none" stroke="#000000" stroke-opacity=".65882" d="M 2761.66 4105.78 L 964.28 1106.25 "/>
<path transform="matrix(.099878627,0,0,-.099800679,0,773.09628)" stroke-width="45" stroke-linecap="round" stroke-linejoin="round" fill="none" stroke="#000000" stroke-opacity=".65882" d="M 2914.1 4327.68 L 4718.65 6856.13 "/>
<path transform="matrix(.099878627,0,0,-.099800679,0,773.09628)" stroke-width="45" stroke-linecap="round" stroke-linejoin="round" fill="none" stroke="#000000" stroke-opacity=".65882" d="M 6717.23 4032.18 L 6045.98 760.81 "/>
<path transform="matrix(.099878627,0,0,-.099800679,0,773.09628)" stroke-width="45" stroke-linecap="round" stroke-linejoin="round" fill="none" stroke="#000000" stroke-opacity=".65882" d="M 6812.54 4032.18 L 8700.7 760.77 "/>
<path transform="matrix(.099878627,0,0,-.099800679,0,773.09628)" stroke-width="45" stroke-linecap="round" stroke-linejoin="round" fill="none" stroke="#000000" stroke-opacity=".65882" d="M 4912.95 6706.77 L 6618.35 4327.68 "/>
<path transform="matrix(.099878627,0,0,-.099800679,0,773.09628)" d="M 1429.88 760.77 C 1429.88 391.24 1130.31 91.668 760.77 91.668 C 391.24 91.668 91.668 391.24 91.668 760.77 C 91.668 1130.31 391.24 1429.88 760.77 1429.88 C 1130.31 1429.88 1429.88 1130.31 1429.88 760.77 Z " fill="#66a5cc" fill-rule="evenodd"/>
<path transform="matrix(.099878627,0,0,-.099800679,0,773.09628)" stroke-width="45" stroke-linecap="round" stroke-linejoin="round" fill="none" stroke="#000000" stroke-opacity=".65882" d="M 2837.67 3918.52 L 3430.52 761.97 "/>
<path transform="matrix(.099878627,0,0,-.099800679,0,773.09628)" d="M 4099.84 760.77 C 4099.84 391.24 3800.28 91.68 3430.75 91.68 C 3061.22 91.68 2761.66 391.24 2761.66 760.77 C 2761.66 1130.3 3061.22 1429.86 3430.75 1429.86 C 3800.28 1429.86 4099.84 1130.3 4099.84 760.77 Z " fill="#66a5cc" fill-rule="evenodd"/>
<path transform="matrix(.099878627,0,0,-.099800679,0,773.09628)" d="M 3461.87 4157.68 C 3461.87 3788.14 3162.3 3488.57 2792.76 3488.57 C 2423.23 3488.57 2123.66 3788.14 2123.66 4157.68 C 2123.66 4527.21 2423.23 4826.78 2792.76 4826.78 C 3162.3 4826.78 3461.87 4527.21 3461.87 4157.68 Z " fill="#66a5cc" fill-rule="evenodd"/>
<path transform="matrix(.099878627,0,0,-.099800679,0,773.09628)" d="M 6715.08 760.77 C 6715.08 391.24 6415.52 91.668 6045.98 91.668 C 5676.44 91.668 5376.88 391.24 5376.88 760.77 C 5376.88 1130.31 5676.44 1429.88 6045.98 1429.88 C 6415.52 1429.88 6715.08 1130.31 6715.08 760.77 Z " fill="#66a5cc" fill-rule="evenodd"/>
<path transform="matrix(.099878627,0,0,-.099800679,0,773.09628)" d="M 9369.81 760.77 C 9369.81 391.23 9070.24 91.656 8700.7 91.656 C 8331.16 91.656 8031.58 391.23 8031.58 760.77 C 8031.58 1130.31 8331.16 1429.89 8700.7 1429.89 C 9070.24 1429.89 9369.81 1130.31 9369.81 760.77 Z " fill="#66a5cc" fill-rule="evenodd"/>
<path transform="matrix(.099878627,0,0,-.099800679,0,773.09628)" d="M 7409.2 4157.68 C 7409.2 3788.14 7109.63 3488.57 6740.09 3488.57 C 6370.55 3488.57 6070.98 3788.14 6070.98 4157.68 C 6070.98 4527.22 6370.55 4826.79 6740.09 4826.79 C 7109.63 4826.79 7409.2 4527.22 7409.2 4157.68 Z " fill="#66a5cc" fill-rule="evenodd"/>
<path transform="matrix(.099878627,0,0,-.099800679,0,773.09628)" d="M 5431.53 6916.78 C 5431.53 6547.24 5131.96 6247.67 4762.42 6247.67 C 4392.87 6247.67 4093.3 6547.24 4093.3 6916.78 C 4093.3 7286.33 4392.87 7585.9 4762.42 7585.9 C 5131.96 7585.9 5431.53 7286.33 5431.53 6916.78 Z " fill="#66a5cc" fill-rule="evenodd"/>
<clipPath id="cp3">
<path transform="matrix(1.9975242,0,-.0000019697869,-1.9960038,568.3963,716.137)" d="M 0 0 L 14.005 0 L 14.005 22.007 L 0 22.007 Z " fill-rule="evenodd"/>
</clipPath>
<g clip-path="url(#cp3)">
<path transform="matrix(1.9975242,0,-.0000019697869,-1.9960038,568.3963,716.137)" d="M 12.227 .5671 L .13375 .5671 L .13375 1.3606 C .13375 1.4174 .16351 1.504 .22302 1.6203 L 5.0814 6.9007 C 5.6567 7.5346 6.2383 8.1838 6.828 8.8474 C 7.4177 9.5111 7.9443 10.189 8.4096 10.882 C 8.8749 11.574 9.2464 12.288 9.5241 13.024 C 9.8018 13.76 9.9398 14.532 9.9398 15.341 C 9.9398 16.022 9.8514 16.66 9.6729 17.251 C 9.4943 17.843 9.2373 18.362 8.9001 18.809 C 8.5629 19.257 8.1418 19.617 7.6368 19.891 C 7.1319 20.166 6.5476 20.303 5.8839 20.304 C 4.8938 20.303 4.0192 20.007 3.2618 19.415 C 2.5043 18.824 2.0012 18.172 1.7532 17.461 C 1.7045 17.442 1.7839 17.432 1.9913 17.433 L 2.2437 17.433 C 2.5413 17.364 2.7983 17.26 3.0165 17.121 C 3.2347 16.982 3.4178 16.79 3.5665 16.544 C 3.7153 16.299 3.7893 16.003 3.7893 15.658 C 3.7893 15.08 3.6017 14.637 3.2248 14.33 C 2.8479 14.021 2.4268 13.868 1.9615 13.869 C 1.5161 13.868 1.1004 14.021 .71355 14.33 C .32762 14.637 .13375 15.08 .13375 15.658 C .13375 16.465 .29245 17.23 .60985 17.951 C .92725 18.672 1.3574 19.297 1.902 19.827 C 2.4466 20.355 3.0904 20.773 3.8334 21.082 C 4.5764 21.389 5.3645 21.543 6.1959 21.544 C 7.2256 21.543 8.1697 21.392 9.0263 21.089 C 9.883 20.786 10.613 20.35 11.217 19.783 C 11.822 19.215 12.295 18.559 12.637 17.814 C 12.979 17.068 13.149 16.244 13.149 15.341 C 13.149 14.34 12.922 13.418 12.465 12.577 C 12.01 11.735 11.446 10.963 10.772 10.261 C 10.098 9.5589 9.3825 8.8979 8.6251 8.2776 C 7.8677 7.6572 7.1815 7.0539 6.5674 6.4678 L 3.1499 3.2506 L 7.6224 3.2506 C 8.2464 3.2497 8.8289 3.2542 9.3681 3.2641 C 9.9082 3.2731 10.366 3.2929 10.742 3.3218 C 11.119 3.3507 11.312 3.3696 11.321 3.3804 C 11.401 3.4471 11.475 3.5815 11.545 3.7835 C 11.614 3.9855 11.678 4.2235 11.738 4.4976 C 11.797 4.7717 11.857 5.0504 11.916 5.3344 C 11.976 5.6175 12.03 5.9286 12.08 6.2659 L 13.179 6.2659 Z " fill-rule="evenodd"/>
</g>
<clipPath id="cp4">
<path transform="matrix(1.9976124,0,-.00000012319338,-1.9960038,41.95302,716.137)" d="M 0 0 L 11.482 0 L 11.482 22.007 L 0 22.007 Z " fill-rule="evenodd"/>
</clipPath>
<g clip-path="url(#cp4)">
<path transform="matrix(1.9976124,0,-.00000012319338,-1.9960038,41.95302,716.137)" d="M 10.965 .5671 C 9.1428 .62481 7.3692 .65366 5.6451 .65366 C 3.922 .65366 2.1483 .62481 .32506 .5671 L .32506 1.8078 L 1.3512 1.8078 C 1.6776 1.8069 1.9851 1.8114 2.2718 1.8214 C 2.5595 1.8304 2.8318 1.8547 3.0897 1.8935 C 3.3476 1.9314 3.5703 1.9701 3.7578 2.0098 C 3.9165 2.0378 4.0482 2.1261 4.1519 2.2758 C 4.2565 2.4246 4.3079 2.5905 4.3079 2.7745 L 4.3079 19.034 C 3.8128 18.792 3.2033 18.609 2.4801 18.485 C 1.757 18.359 .96437 18.297 .10234 18.298 L .10234 19.524 C 1.2917 19.524 2.3891 19.665 3.3945 19.949 C 4.3999 20.232 5.2691 20.764 6.0022 21.544 L 6.4629 21.544 C 6.7894 21.543 6.9526 21.385 6.9526 21.068 L 6.9526 2.7745 C 6.9526 2.5815 7.0022 2.4129 7.1014 2.2686 C 7.2005 2.1243 7.3448 2.0378 7.5324 2.0098 C 7.6911 1.9701 7.8949 1.9314 8.1419 1.8935 C 8.3899 1.8547 8.6694 1.8304 8.9814 1.8214 C 9.2934 1.8114 9.5982 1.8069 9.8948 1.8078 L 10.965 1.8078 L 10.965 .5671 Z " fill-rule="evenodd"/>
</g>
<clipPath id="cp5">
<path transform="matrix(1.9975597,.0000029898843,-.0000009419058,-1.9960376,237.31061,382.1231)" d="M 0 0 L 14.487 0 L 14.487 23.012 L 0 23.012 Z " fill-rule="evenodd"/>
</clipPath>
<g clip-path="url(#cp5)">
<path transform="matrix(1.9975597,.0000029898843,-.0000009419058,-1.9960376,237.31061,382.1231)" d="M 13.674 7.0108 C 13.674 6.1831 13.491 5.3887 13.125 4.6294 C 12.759 3.8693 12.268 3.2201 11.653 2.6826 C 10.961 2.0758 10.195 1.6268 9.3584 1.3337 C 8.5216 1.0397 7.647 .89367 6.7353 .89367 C 5.9139 .89367 5.1123 1.0091 4.3296 1.2399 C 3.5469 1.4708 2.8418 1.8017 2.2124 2.2345 C 1.583 2.6673 1.0808 3.1984 .70385 3.8287 C .32784 4.4581 .13938 5.1822 .13938 6.0009 C .13938 6.6159 .34497 7.0748 .75615 7.3778 C 1.1673 7.6808 1.6001 7.8323 2.0555 7.8332 C 2.5316 7.8323 2.9743 7.6808 3.3855 7.3778 C 3.7967 7.0748 4.0023 6.6159 4.0023 6.0009 C 4.0023 5.6348 3.931 5.3291 3.7868 5.0839 C 3.6434 4.8386 3.4604 4.6339 3.2367 4.4707 C 3.014 4.3066 2.7588 4.2065 2.4721 4.1687 C 2.3242 4.129 2.1853 4.11 2.0555 4.1109 C 1.9275 4.11 1.9076 4.1001 1.996 4.0821 C 2.3035 3.5429 2.9076 3.0659 3.8093 2.6529 C 4.711 2.239 5.6858 2.0325 6.7353 2.0334 C 7.2313 2.0325 7.6938 2.1551 8.1249 2.4004 C 8.5559 2.6457 8.9157 2.9748 9.2024 3.3896 C 9.5595 3.927 9.802 4.5041 9.9301 5.1199 C 10.059 5.7349 10.123 6.3652 10.123 7.0108 C 10.123 7.6736 10.059 8.3102 9.9301 8.9215 C 9.802 9.532 9.5595 10.097 9.2024 10.618 C 8.9048 11.04 8.5433 11.381 8.1176 11.641 C 7.692 11.901 7.2313 12.031 6.7353 12.032 L 4.5812 12.032 C 4.2944 12.031 4.1411 12.165 4.1213 12.435 L 4.1213 12.594 C 4.1213 12.709 4.1565 12.8 4.225 12.868 C 4.3143 12.954 4.4279 12.997 4.5667 12.998 C 4.8544 13.036 5.151 13.055 5.4576 13.056 C 5.7552 13.055 6.0482 13.074 6.335 13.114 C 6.8697 13.151 7.335 13.316 7.7308 13.61 C 8.1276 13.903 8.4594 14.279 8.7263 14.736 C 8.9941 15.192 9.197 15.719 9.3358 16.315 C 9.4747 16.912 9.5441 17.523 9.5441 18.149 C 9.5441 18.609 9.4945 19.047 9.3954 19.461 C 9.2962 19.874 9.1131 20.235 8.8453 20.544 C 8.2908 21.177 7.5874 21.49 6.7353 21.481 C 5.8246 21.48 4.9905 21.309 4.2331 20.968 C 3.4757 20.627 2.9671 20.259 2.7092 19.865 C 2.6407 19.855 2.675 19.85 2.8138 19.851 C 3.1709 19.85 3.5072 19.745 3.8237 19.534 C 4.2998 19.254 4.537 18.783 4.537 18.12 C 4.537 17.561 4.3566 17.14 3.9951 16.857 C 3.6335 16.572 3.2295 16.431 2.7841 16.432 C 2.3486 16.431 1.9401 16.57 1.5587 16.849 C 1.1772 17.128 .98608 17.552 .98608 18.12 C .98608 18.821 1.1547 19.441 1.491 19.98 C 1.8283 20.518 2.2611 20.98 2.7913 21.365 C 3.3215 21.749 3.9328 22.043 4.6263 22.245 C 5.3197 22.447 6.023 22.548 6.7353 22.549 C 7.4982 22.548 8.2367 22.447 8.9499 22.245 C 9.6632 22.043 10.337 21.73 10.97 21.308 C 11.486 20.942 11.918 20.492 12.27 19.958 C 12.622 19.425 12.797 18.821 12.797 18.149 C 12.797 17.474 12.677 16.839 12.434 16.243 C 12.192 15.646 11.87 15.108 11.468 14.628 C 11.067 14.146 10.589 13.723 10.035 13.358 C 9.4801 12.992 9.0635 12.762 8.7858 12.666 C 9.0239 12.637 9.4305 12.494 10.005 12.24 C 10.579 11.985 11.128 11.646 11.653 11.224 C 12.268 10.693 12.759 10.061 13.125 9.3255 C 13.491 8.5897 13.674 7.8178 13.674 7.0108 Z " fill-rule="evenodd"/>
</g>
<clipPath id="cp6">
<path transform="matrix(1.9975895,0,-.0000009848934,-1.9960038,298.32646,716.137)" d="M 0 0 L 15.489 0 L 15.489 22.007 L 0 22.007 Z " fill-rule="evenodd"/>
</clipPath>
<g clip-path="url(#cp6)">
<path transform="matrix(1.9975895,0,-.0000009848934,-1.9960038,298.32646,716.137)" d="M 11.371 5.7032 L 11.371 2.7745 C 11.371 2.6004 11.403 2.439 11.468 2.2902 C 11.533 2.1406 11.64 2.0423 11.788 1.9954 C 12.016 1.889 12.387 1.8304 12.902 1.8214 C 13.417 1.8114 13.936 1.8069 14.461 1.8078 L 14.461 .5671 C 12.946 .62481 11.461 .65366 10.004 .65366 C 8.5685 .65366 7.0581 .62481 5.4729 .5671 L 5.4729 1.8078 C 6.0176 1.8069 6.5433 1.8114 7.0482 1.8214 C 7.5532 1.8304 7.9301 1.889 8.1771 1.9954 C 8.3259 2.0423 8.435 2.1406 8.5045 2.2902 C 8.5739 2.439 8.6082 2.6004 8.6082 2.7745 L 8.6082 5.7032 L .13936 5.7032 L .13936 6.8718 L 10.064 21.631 C 10.193 21.803 10.357 21.89 10.554 21.891 L 10.881 21.891 C 11.208 21.89 11.371 21.726 11.371 21.4 L 11.371 6.9728 L 14.566 6.9728 L 14.566 5.7032 Z M 8.756 17.837 L 1.4468 6.9728 L 8.756 6.9728 Z " fill-rule="evenodd"/>
</g>
<clipPath id="cp7">
<path transform="matrix(1.9975757,.0000030928175,-.0000018838116,-1.9960376,437.88288,103.76807)" d="M 0 0 L 14.005 0 L 14.005 23.012 L 0 23.012 Z " fill-rule="evenodd"/>
</clipPath>
<g clip-path="url(#cp7)">
<path transform="matrix(1.9975757,.0000030928175,-.0000018838116,-1.9960376,437.88288,103.76807)" d="M 13.15 7.9486 C 13.15 7.0054 12.973 6.1055 12.616 5.2498 C 12.259 4.3932 11.744 3.624 11.07 2.9423 C 10.386 2.2778 9.6164 1.7701 8.7598 1.4203 C 7.9032 1.0686 6.9934 .89367 6.0322 .89367 C 5.2008 .89367 4.4253 1.0497 3.7067 1.3626 C 2.9889 1.6745 2.365 2.1019 1.8347 2.6457 C 1.3045 3.1885 .88886 3.8188 .58679 4.5356 C .28472 5.2516 .13324 6.0144 .13324 6.8233 C .13324 7.3805 .31899 7.8007 .69049 8.0847 C 1.062 8.3679 1.4461 8.5104 1.842 8.5113 C 2.2585 8.5104 2.6499 8.3706 3.016 8.092 C 3.383 7.8124 3.566 7.3895 3.566 6.8233 C 3.566 6.4761 3.4894 6.1849 3.3361 5.9495 C 3.1828 5.7133 2.9943 5.5311 2.7707 5.4013 C 2.548 5.2714 2.2982 5.1966 2.0205 5.1786 L 1.842 5.1786 L 1.5444 5.1786 C 1.7725 4.3697 2.3027 3.643 3.135 2.9991 C 3.9673 2.3544 4.933 2.0325 6.0322 2.0334 C 6.6075 2.0325 7.1674 2.1813 7.712 2.4798 C 8.2567 2.7773 8.703 3.1723 9.0493 3.6637 C 9.455 4.2498 9.7156 4.9153 9.8292 5.661 C 9.9429 6.4058 9.9997 7.1686 9.9997 7.9486 C 9.9997 8.7367 9.9753 9.4932 9.9257 10.22 C 9.877 10.946 9.6733 11.631 9.3162 12.277 C 9.0592 12.747 8.7301 13.139 8.3288 13.452 C 7.9276 13.764 7.4794 13.921 6.9835 13.921 C 6.0421 13.921 5.2252 13.73 4.5317 13.351 C 3.8383 12.97 3.2784 12.425 2.8528 11.714 C 2.7635 11.55 2.6201 11.468 2.4218 11.469 L 2.3027 11.469 C 1.9565 11.468 1.7825 11.627 1.7825 11.945 L 1.7825 22.073 C 1.7825 22.322 1.9267 22.48 2.2135 22.549 C 2.2631 22.548 2.3 22.543 2.3253 22.534 C 2.3505 22.524 2.3722 22.519 2.392 22.52 C 3.8284 21.865 5.309 21.538 6.8347 21.539 C 8.3802 21.538 9.8617 21.865 11.278 22.52 C 11.298 22.519 11.318 22.524 11.338 22.534 C 11.358 22.543 11.387 22.548 11.427 22.549 C 11.753 22.548 11.912 22.399 11.902 22.102 C 11.902 21.928 11.873 21.812 11.813 21.755 C 11.11 20.792 10.216 20.04 9.1313 19.497 C 8.0466 18.953 6.8951 18.682 5.676 18.682 C 4.6661 18.682 3.7941 18.797 3.0602 19.029 L 3.0602 13.518 C 3.4073 13.882 3.9303 14.206 4.6282 14.49 C 5.327 14.774 6.1124 14.916 6.9835 14.917 C 7.8356 14.916 8.6408 14.723 9.3982 14.339 C 10.157 13.954 10.823 13.454 11.397 12.839 C 11.992 12.146 12.432 11.379 12.719 10.537 C 13.007 9.6952 13.15 8.8323 13.15 7.9486 Z " fill-rule="evenodd"/>
</g>
<clipPath id="cp8">
<path transform="matrix(1.9975597,.0000029898843,-.0000018838116,-1.9960376,633.92166,379.1291)" d="M 0 0 L 14.487 0 L 14.487 23.012 L 0 23.012 Z " fill-rule="evenodd"/>
</clipPath>
<g clip-path="url(#cp8)">
<path transform="matrix(1.9975597,.0000029898843,-.0000018838116,-1.9960376,633.92166,379.1291)" d="M 13.674 8.0063 C 13.674 7.0054 13.526 6.1082 13.229 5.3147 C 12.931 4.5212 12.426 3.7394 11.713 2.9712 C 11.009 2.2489 10.289 1.7223 9.5514 1.3914 C 8.8138 1.0596 7.9247 .89367 6.8841 .89367 C 5.8246 .89367 4.8544 1.1552 3.9725 1.68 C 3.0907 2.2029 2.3873 2.9126 1.8625 3.808 C 1.1195 5.0289 .64704 6.3174 .44416 7.6736 C .24128 9.0297 .13938 10.381 .13938 11.729 C .13938 13.074 .33505 14.398 .72639 15.702 C 1.1177 17.005 1.7435 18.21 2.6055 19.317 C 3.3287 20.259 4.2106 21.033 5.2502 21.639 C 6.2908 22.245 7.4342 22.548 8.6821 22.549 C 9.8814 22.548 10.877 22.24 11.669 21.625 C 12.461 21.009 12.857 20.124 12.857 18.971 C 12.857 18.432 12.694 18.032 12.366 17.773 C 12.04 17.513 11.663 17.383 11.238 17.384 C 10.832 17.383 10.467 17.513 10.146 17.773 C 9.8237 18.032 9.6623 18.432 9.6623 18.971 C 9.6623 19.547 9.876 19.98 10.302 20.269 C 10.579 20.442 10.891 20.528 11.238 20.529 C 11.347 20.528 11.361 20.533 11.282 20.544 C 11.144 20.755 10.839 20.963 10.368 21.17 C 9.8976 21.377 9.3358 21.48 8.6821 21.481 C 7.8003 21.48 7.0086 21.218 6.3052 20.694 C 5.6019 20.169 5.0077 19.514 4.5217 18.726 C 3.9482 17.725 3.601 16.635 3.482 15.457 C 3.363 14.279 3.2935 13.339 3.2737 12.637 C 3.4522 13.05 3.8814 13.557 4.5595 14.159 C 5.2376 14.759 6.0969 15.06 7.1366 15.061 C 8.1276 15.06 8.9824 14.894 9.7001 14.563 C 10.418 14.231 11.109 13.714 11.772 13.013 C 12.466 12.243 12.956 11.468 13.243 10.689 C 13.531 9.9098 13.674 9.0153 13.674 8.0063 Z M 10.509 8.0063 C 10.509 8.9287 10.48 9.7583 10.421 10.494 C 10.361 11.23 10.164 11.876 9.8264 12.435 C 9.4801 13.002 9.0933 13.42 8.6677 13.69 C 8.2421 13.958 7.7218 14.094 7.1068 14.095 C 6.4432 14.094 5.8769 13.925 5.4062 13.589 C 4.9355 13.252 4.537 12.81 4.2106 12.261 C 3.8842 11.713 3.6506 11.074 3.5118 10.344 C 3.4126 9.8422 3.363 9.3084 3.363 8.7421 C 3.363 8.5203 3.3729 8.284 3.3927 8.0352 L 3.3927 7.9197 C 3.4324 7.1975 3.4874 6.5239 3.5568 5.899 C 3.6263 5.2732 3.7354 4.7638 3.8833 4.3706 C 4.161 3.6772 4.5694 3.1146 5.1087 2.6817 C 5.6488 2.2489 6.2403 2.0325 6.8841 2.0334 C 7.5478 2.0325 8.1077 2.1597 8.5631 2.4148 C 9.0194 2.6691 9.4206 3.0812 9.7669 3.6493 C 10.124 4.2155 10.337 4.8576 10.405 5.5744 C 10.475 6.2904 10.509 7.101 10.509 8.0063 Z " fill-rule="evenodd"/>
</g>
<clipPath id="cp9">
<path transform="matrix(1.9975772,0,0,-1.9960376,826.18099,723.132)" d="M 0 0 L 15.007 0 L 15.007 23.012 L 0 23.012 Z " fill-rule="evenodd"/>
</clipPath>
<g clip-path="url(#cp9)">
<path transform="matrix(1.9975772,0,0,-1.9960376,826.18099,723.132)" d="M 14.107 21.092 C 14.107 21.033 14.083 20.951 14.033 20.847 L 9.5758 14.744 C 9.0014 13.945 8.5533 13.062 8.2314 12.096 C 7.9095 11.129 7.6795 10.114 7.5407 9.0514 C 7.4018 7.9883 7.3152 6.9035 7.2801 5.798 C 7.2458 4.6916 7.2278 3.5762 7.2278 2.4518 C 7.2278 1.9315 7.0574 1.5375 6.7156 1.2688 C 6.3748 .99917 6.0006 .86481 5.5939 .86481 C 5.1881 .86481 4.8193 .99917 4.4875 1.2688 C 4.1557 1.5375 3.9898 1.9315 3.9898 2.4518 C 3.9898 4.798 4.3982 7.055 5.2152 9.2245 C 6.0321 11.393 7.134 13.43 8.5208 15.335 L 11.343 19.159 L 5.9952 19.159 C 5.3225 19.158 4.6958 19.152 4.116 19.143 C 3.5371 19.133 3.0439 19.116 2.6381 19.093 C 2.2323 19.068 2.0241 19.052 2.0132 19.043 C 1.914 18.956 1.8275 18.811 1.7535 18.609 C 1.6796 18.407 1.6102 18.171 1.5453 17.902 C 1.4812 17.633 1.4244 17.354 1.3748 17.066 C 1.3252 16.777 1.2756 16.47 1.226 16.143 L .12687 16.143 L 1.1963 22.866 L 2.281 22.866 L 2.281 22.578 C 2.281 22.471 2.3406 22.37 2.4587 22.275 C 2.667 22.14 2.8852 22.053 3.1124 22.015 C 3.3802 21.975 3.7075 21.939 4.0935 21.906 C 4.4794 21.872 4.8933 21.85 5.3342 21.841 C 5.7751 21.831 6.2179 21.827 6.6633 21.828 L 14.107 21.828 L 14.107 21.092 Z " fill-rule="evenodd"/>
</g>
<clipPath id="cp10">
<path transform="matrix(1.9975495,.0000037724436,-.0000019697869,-1.9960038,485.28727,101.1203)" d="M 0 0 L 11.482 0 L 11.482 22.007 L 0 22.007 Z " fill-rule="evenodd"/>
</clipPath>
<g clip-path="url(#cp10)">
<path transform="matrix(1.9975495,.0000037724436,-.0000019697869,-1.9960038,485.28727,101.1203)" d="M 10.965 .5671 C 9.1428 .62481 7.3692 .65366 5.6451 .65366 C 3.922 .65366 2.1483 .62481 .32506 .5671 L .32506 1.8078 L 1.3512 1.8078 C 1.6776 1.8069 1.9851 1.8114 2.2718 1.8214 C 2.5595 1.8304 2.8318 1.8547 3.0897 1.8935 C 3.3476 1.9314 3.5703 1.9701 3.7578 2.0098 C 3.9165 2.0378 4.0482 2.1261 4.1519 2.2758 C 4.2565 2.4246 4.3079 2.5905 4.3079 2.7745 L 4.3079 19.034 C 3.8128 18.792 3.2033 18.609 2.4801 18.485 C 1.757 18.359 .96437 18.297 .10234 18.298 L .10234 19.524 C 1.2917 19.524 2.3891 19.665 3.3945 19.949 C 4.3999 20.232 5.2691 20.764 6.0022 21.544 L 6.4629 21.544 C 6.7894 21.543 6.9526 21.385 6.9526 21.068 L 6.9526 2.7745 C 6.9526 2.5815 7.0022 2.4129 7.1014 2.2686 C 7.2005 2.1243 7.3448 2.0378 7.5324 2.0098 C 7.6911 1.9701 7.8949 1.9314 8.1419 1.8935 C 8.3899 1.8547 8.6694 1.8304 8.9814 1.8214 C 9.2934 1.8114 9.5982 1.8069 9.8948 1.8078 L 10.965 1.8078 L 10.965 .5671 Z " fill="#ffffff" fill-rule="evenodd"/>
</g>
<clipPath id="cp11">
<path transform="matrix(1.9975757,.0000030928175,-.0000009848934,-1.9960038,286.74855,379.1191)" d="M 0 0 L 14.005 0 L 14.005 22.007 L 0 22.007 Z " fill-rule="evenodd"/>
</clipPath>
<g clip-path="url(#cp11)">
<path transform="matrix(1.9975757,.0000030928175,-.0000009848934,-1.9960038,286.74855,379.1191)" d="M 12.226 .5671 L .13097 .5671 L .13097 1.3606 C .13097 1.4174 .16073 1.504 .22024 1.6203 L 5.0795 6.9007 C 5.6539 7.5346 6.2355 8.1838 6.8252 8.8474 C 7.4149 9.5111 7.9433 10.189 8.4086 10.882 C 8.8739 11.574 9.2454 12.288 9.5231 13.024 C 9.8008 13.76 9.9388 14.532 9.9388 15.341 C 9.9388 16.022 9.8495 16.66 9.671 17.251 C 9.4925 17.843 9.2355 18.362 8.8982 18.809 C 8.5619 19.257 8.1408 19.617 7.6358 19.891 C 7.1309 20.166 6.5457 20.303 5.882 20.304 C 4.892 20.303 4.0173 20.007 3.259 19.415 C 2.5016 18.824 1.9984 18.172 1.7504 17.461 C 1.7017 17.442 1.7811 17.432 1.9885 17.433 L 2.241 17.433 C 2.5385 17.364 2.7955 17.26 3.0137 17.121 C 3.2319 16.982 3.415 16.79 3.5638 16.544 C 3.7125 16.299 3.7865 16.003 3.7865 15.658 C 3.7865 15.08 3.5989 14.637 3.222 14.33 C 2.8451 14.021 2.424 13.868 1.9587 13.869 C 1.5133 13.868 1.0967 14.021 .71077 14.33 C .32484 14.637 .13097 15.08 .13097 15.658 C .13097 16.465 .28967 17.23 .60707 17.951 C .92447 18.672 1.3546 19.297 1.8992 19.827 C 2.4438 20.355 3.0877 20.773 3.8307 21.082 C 4.5737 21.389 5.3618 21.543 6.194 21.544 C 7.2247 21.543 8.1688 21.392 9.0254 21.089 C 9.882 20.786 10.612 20.35 11.217 19.783 C 11.821 19.215 12.294 18.559 12.636 17.814 C 12.978 17.068 13.148 16.244 13.148 15.341 C 13.148 14.34 12.921 13.418 12.464 12.577 C 12.009 11.735 11.445 10.963 10.771 10.261 C 10.097 9.5589 9.3815 8.8979 8.6232 8.2776 C 7.8658 7.6572 7.1796 7.0539 6.5655 6.4678 L 3.1472 3.2506 L 7.6205 3.2506 C 8.2445 3.2497 8.827 3.2542 9.3662 3.2641 C 9.9063 3.2731 10.364 3.2929 10.741 3.3218 C 11.118 3.3507 11.311 3.3696 11.32 3.3804 C 11.4 3.4471 11.474 3.5815 11.544 3.7835 C 11.613 3.9855 11.677 4.2235 11.737 4.4976 C 11.796 4.7717 11.856 5.0504 11.915 5.3344 C 11.975 5.6175 12.029 5.9286 12.079 6.2659 L 13.178 6.2659 Z " fill="#ffffff" fill-rule="evenodd"/>
</g>
<clipPath id="cp12">
<path transform="matrix(1.9975597,.0000029898843,-.0000018838116,-1.9960376,678.49349,379.1291)" d="M 0 0 L 14.487 0 L 14.487 23.012 L 0 23.012 Z " fill-rule="evenodd"/>
</clipPath>
<g clip-path="url(#cp12)">
<path transform="matrix(1.9975597,.0000029898843,-.0000018838116,-1.9960376,678.49349,379.1291)" d="M 13.674 7.0108 C 13.674 6.1831 13.491 5.3887 13.125 4.6294 C 12.759 3.8693 12.268 3.2201 11.653 2.6826 C 10.961 2.0758 10.195 1.6268 9.3584 1.3337 C 8.5216 1.0397 7.647 .89367 6.7353 .89367 C 5.9139 .89367 5.1123 1.0091 4.3296 1.2399 C 3.5469 1.4708 2.8418 1.8017 2.2124 2.2345 C 1.583 2.6673 1.0808 3.1984 .70385 3.8287 C .32784 4.4581 .13938 5.1822 .13938 6.0009 C .13938 6.6159 .34497 7.0748 .75615 7.3778 C 1.1673 7.6808 1.6001 7.8323 2.0555 7.8332 C 2.5316 7.8323 2.9743 7.6808 3.3855 7.3778 C 3.7967 7.0748 4.0023 6.6159 4.0023 6.0009 C 4.0023 5.6348 3.931 5.3291 3.7868 5.0839 C 3.6434 4.8386 3.4604 4.6339 3.2367 4.4707 C 3.014 4.3066 2.7588 4.2065 2.4721 4.1687 C 2.3242 4.129 2.1853 4.11 2.0555 4.1109 C 1.9275 4.11 1.9076 4.1001 1.996 4.0821 C 2.3035 3.5429 2.9076 3.0659 3.8093 2.6529 C 4.711 2.239 5.6858 2.0325 6.7353 2.0334 C 7.2313 2.0325 7.6938 2.1551 8.1249 2.4004 C 8.5559 2.6457 8.9157 2.9748 9.2024 3.3896 C 9.5595 3.927 9.802 4.5041 9.9301 5.1199 C 10.059 5.7349 10.123 6.3652 10.123 7.0108 C 10.123 7.6736 10.059 8.3102 9.9301 8.9215 C 9.802 9.532 9.5595 10.097 9.2024 10.618 C 8.9048 11.04 8.5433 11.381 8.1176 11.641 C 7.692 11.901 7.2313 12.031 6.7353 12.032 L 4.5812 12.032 C 4.2944 12.031 4.1411 12.165 4.1213 12.435 L 4.1213 12.594 C 4.1213 12.709 4.1565 12.8 4.225 12.868 C 4.3143 12.954 4.4279 12.997 4.5667 12.998 C 4.8544 13.036 5.151 13.055 5.4576 13.056 C 5.7552 13.055 6.0482 13.074 6.335 13.114 C 6.8697 13.151 7.335 13.316 7.7308 13.61 C 8.1276 13.903 8.4594 14.279 8.7263 14.736 C 8.9941 15.192 9.197 15.719 9.3358 16.315 C 9.4747 16.912 9.5441 17.523 9.5441 18.149 C 9.5441 18.609 9.4945 19.047 9.3954 19.461 C 9.2962 19.874 9.1131 20.235 8.8453 20.544 C 8.2908 21.177 7.5874 21.49 6.7353 21.481 C 5.8246 21.48 4.9905 21.309 4.2331 20.968 C 3.4757 20.627 2.9671 20.259 2.7092 19.865 C 2.6407 19.855 2.675 19.85 2.8138 19.851 C 3.1709 19.85 3.5072 19.745 3.8237 19.534 C 4.2998 19.254 4.537 18.783 4.537 18.12 C 4.537 17.561 4.3566 17.14 3.9951 16.857 C 3.6335 16.572 3.2295 16.431 2.7841 16.432 C 2.3486 16.431 1.9401 16.57 1.5587 16.849 C 1.1772 17.128 .98608 17.552 .98608 18.12 C .98608 18.821 1.1547 19.441 1.491 19.98 C 1.8283 20.518 2.2611 20.98 2.7913 21.365 C 3.3215 21.749 3.9328 22.043 4.6263 22.245 C 5.3197 22.447 6.023 22.548 6.7353 22.549 C 7.4982 22.548 8.2367 22.447 8.9499 22.245 C 9.6632 22.043 10.337 21.73 10.97 21.308 C 11.486 20.942 11.918 20.492 12.27 19.958 C 12.622 19.425 12.797 18.821 12.797 18.149 C 12.797 17.474 12.677 16.839 12.434 16.243 C 12.192 15.646 11.87 15.108 11.468 14.628 C 11.067 14.146 10.589 13.723 10.035 13.358 C 9.4801 12.992 9.0635 12.762 8.7858 12.666 C 9.0239 12.637 9.4305 12.494 10.005 12.24 C 10.579 11.985 11.128 11.646 11.653 11.224 C 12.268 10.693 12.759 10.061 13.125 9.3255 C 13.491 8.5897 13.674 7.8178 13.674 7.0108 Z " fill="#ffffff" fill-rule="evenodd"/>
</g>
<clipPath id="cp13">
<path transform="matrix(1.9975895,0,-.00000024638676,-1.9960038,81.60783,716.137)" d="M 0 0 L 15.489 0 L 15.489 22.007 L 0 22.007 Z " fill-rule="evenodd"/>
</clipPath>
<g clip-path="url(#cp13)">
<path transform="matrix(1.9975895,0,-.00000024638676,-1.9960038,81.60783,716.137)" d="M 11.371 5.7032 L 11.371 2.7745 C 11.371 2.6004 11.403 2.439 11.468 2.2902 C 11.533 2.1406 11.64 2.0423 11.788 1.9954 C 12.016 1.889 12.387 1.8304 12.902 1.8214 C 13.417 1.8114 13.936 1.8069 14.461 1.8078 L 14.461 .5671 C 12.946 .62481 11.461 .65366 10.004 .65366 C 8.5685 .65366 7.0581 .62481 5.4729 .5671 L 5.4729 1.8078 C 6.0176 1.8069 6.5433 1.8114 7.0482 1.8214 C 7.5532 1.8304 7.9301 1.889 8.1771 1.9954 C 8.3259 2.0423 8.435 2.1406 8.5045 2.2902 C 8.5739 2.439 8.6082 2.6004 8.6082 2.7745 L 8.6082 5.7032 L .13936 5.7032 L .13936 6.8718 L 10.064 21.631 C 10.193 21.803 10.357 21.89 10.554 21.891 L 10.881 21.891 C 11.208 21.89 11.371 21.726 11.371 21.4 L 11.371 6.9728 L 14.566 6.9728 L 14.566 5.7032 Z M 8.756 17.837 L 1.4468 6.9728 L 8.756 6.9728 Z " fill="#ffffff" fill-rule="evenodd"/>
</g>
<clipPath id="cp14">
<path transform="matrix(1.9975597,0,-.0000009419058,-1.9960376,347.36585,718.0222)" d="M 0 0 L 14.487 0 L 14.487 23.012 L 0 23.012 Z " fill-rule="evenodd"/>
</clipPath>
<g clip-path="url(#cp14)">
<path transform="matrix(1.9975597,0,-.0000009419058,-1.9960376,347.36585,718.0222)" d="M 13.674 8.0063 C 13.674 7.0054 13.526 6.1082 13.229 5.3147 C 12.931 4.5212 12.426 3.7394 11.713 2.9712 C 11.009 2.2489 10.289 1.7223 9.5514 1.3914 C 8.8138 1.0596 7.9247 .89367 6.8841 .89367 C 5.8246 .89367 4.8544 1.1552 3.9725 1.68 C 3.0907 2.2029 2.3873 2.9126 1.8625 3.808 C 1.1195 5.0289 .64704 6.3174 .44416 7.6736 C .24128 9.0297 .13938 10.381 .13938 11.729 C .13938 13.074 .33505 14.398 .72639 15.702 C 1.1177 17.005 1.7435 18.21 2.6055 19.317 C 3.3287 20.259 4.2106 21.033 5.2502 21.639 C 6.2908 22.245 7.4342 22.548 8.6821 22.549 C 9.8814 22.548 10.877 22.24 11.669 21.625 C 12.461 21.009 12.857 20.124 12.857 18.971 C 12.857 18.432 12.694 18.032 12.366 17.773 C 12.04 17.513 11.663 17.383 11.238 17.384 C 10.832 17.383 10.467 17.513 10.146 17.773 C 9.8237 18.032 9.6623 18.432 9.6623 18.971 C 9.6623 19.547 9.876 19.98 10.302 20.269 C 10.579 20.442 10.891 20.528 11.238 20.529 C 11.347 20.528 11.361 20.533 11.282 20.544 C 11.144 20.755 10.839 20.963 10.368 21.17 C 9.8976 21.377 9.3358 21.48 8.6821 21.481 C 7.8003 21.48 7.0086 21.218 6.3052 20.694 C 5.6019 20.169 5.0077 19.514 4.5217 18.726 C 3.9482 17.725 3.601 16.635 3.482 15.457 C 3.363 14.279 3.2935 13.339 3.2737 12.637 C 3.4522 13.05 3.8814 13.557 4.5595 14.159 C 5.2376 14.759 6.0969 15.06 7.1366 15.061 C 8.1276 15.06 8.9824 14.894 9.7001 14.563 C 10.418 14.231 11.109 13.714 11.772 13.013 C 12.466 12.243 12.956 11.468 13.243 10.689 C 13.531 9.9098 13.674 9.0153 13.674 8.0063 Z M 10.509 8.0063 C 10.509 8.9287 10.48 9.7583 10.421 10.494 C 10.361 11.23 10.164 11.876 9.8264 12.435 C 9.4801 13.002 9.0933 13.42 8.6677 13.69 C 8.2421 13.958 7.7218 14.094 7.1068 14.095 C 6.4432 14.094 5.8769 13.925 5.4062 13.589 C 4.9355 13.252 4.537 12.81 4.2106 12.261 C 3.8842 11.713 3.6506 11.074 3.5118 10.344 C 3.4126 9.8422 3.363 9.3084 3.363 8.7421 C 3.363 8.5203 3.3729 8.284 3.3927 8.0352 L 3.3927 7.9197 C 3.4324 7.1975 3.4874 6.5239 3.5568 5.899 C 3.6263 5.2732 3.7354 4.7638 3.8833 4.3706 C 4.161 3.6772 4.5694 3.1146 5.1087 2.6817 C 5.6488 2.2489 6.2403 2.0325 6.8841 2.0334 C 7.5478 2.0325 8.1077 2.1597 8.5631 2.4148 C 9.0194 2.6691 9.4206 3.0812 9.7669 3.6493 C 10.124 4.2155 10.337 4.8576 10.405 5.5744 C 10.475 6.2904 10.509 7.101 10.509 8.0063 Z " fill="#ffffff" fill-rule="evenodd"/>
</g>
<clipPath id="cp15">
<path transform="matrix(1.9975772,0,-.0000018838116,-1.9960376,616.0314,718.142)" d="M 0 0 L 15.007 0 L 15.007 23.012 L 0 23.012 Z " fill-rule="evenodd"/>
</clipPath>
<g clip-path="url(#cp15)">
<path transform="matrix(1.9975772,0,-.0000018838116,-1.9960376,616.0314,718.142)" d="M 14.107 21.092 C 14.107 21.033 14.083 20.951 14.033 20.847 L 9.5758 14.744 C 9.0014 13.945 8.5533 13.062 8.2314 12.096 C 7.9095 11.129 7.6795 10.114 7.5407 9.0514 C 7.4018 7.9883 7.3152 6.9035 7.2801 5.798 C 7.2458 4.6916 7.2278 3.5762 7.2278 2.4518 C 7.2278 1.9315 7.0574 1.5375 6.7156 1.2688 C 6.3748 .99917 6.0006 .86481 5.5939 .86481 C 5.1881 .86481 4.8193 .99917 4.4875 1.2688 C 4.1557 1.5375 3.9898 1.9315 3.9898 2.4518 C 3.9898 4.798 4.3982 7.055 5.2152 9.2245 C 6.0321 11.393 7.134 13.43 8.5208 15.335 L 11.343 19.159 L 5.9952 19.159 C 5.3225 19.158 4.6958 19.152 4.116 19.143 C 3.5371 19.133 3.0439 19.116 2.6381 19.093 C 2.2323 19.068 2.0241 19.052 2.0132 19.043 C 1.914 18.956 1.8275 18.811 1.7535 18.609 C 1.6796 18.407 1.6102 18.171 1.5453 17.902 C 1.4812 17.633 1.4244 17.354 1.3748 17.066 C 1.3252 16.777 1.2756 16.47 1.226 16.143 L .12687 16.143 L 1.1963 22.866 L 2.281 22.866 L 2.281 22.578 C 2.281 22.471 2.3406 22.37 2.4587 22.275 C 2.667 22.14 2.8852 22.053 3.1124 22.015 C 3.3802 21.975 3.7075 21.939 4.0935 21.906 C 4.4794 21.872 4.8933 21.85 5.3342 21.841 C 5.7751 21.831 6.2179 21.827 6.6633 21.828 L 14.107 21.828 L 14.107 21.092 Z " fill="#ffffff" fill-rule="evenodd"/>
</g>
<clipPath id="cp16">
<path transform="matrix(1.9975597,0,-.0000037676232,-1.9960376,876.1702,723.132)" d="M 0 0 L 14.487 0 L 14.487 23.012 L 0 23.012 Z " fill-rule="evenodd"/>
</clipPath>
<g clip-path="url(#cp16)">
<path transform="matrix(1.9975597,0,-.0000037676232,-1.9960376,876.1702,723.132)" d="M 13.674 6.9098 C 13.674 6.0433 13.491 5.2471 13.125 4.5212 C 12.759 3.7944 12.263 3.1578 11.639 2.6096 C 11.015 2.0614 10.297 1.6385 9.4846 1.3409 C 8.6731 1.0424 7.8057 .89367 6.8841 .89367 C 6.0131 .89367 5.1763 1.0181 4.3738 1.2688 C 3.5713 1.5185 2.858 1.8783 2.234 2.3499 C 1.6101 2.8206 1.1051 3.3977 .71918 4.0812 C .33325 4.7638 .13938 5.5239 .13938 6.3616 C .13938 7.0721 .26382 7.7187 .51088 8.3012 C .75885 8.8828 1.1006 9.4139 1.5361 9.8954 C 1.9725 10.376 2.4748 10.813 3.0438 11.208 C 3.6136 11.602 4.1357 11.911 4.6109 12.132 L 3.5559 12.796 C 2.7841 13.276 2.1628 13.901 1.6921 14.671 C 1.2214 15.44 .98608 16.282 .98608 17.196 C .98608 17.965 1.1502 18.674 1.4766 19.324 C 1.803 19.973 2.2367 20.535 2.776 21.012 C 3.3161 21.488 3.9455 21.863 4.6632 22.137 C 5.3819 22.411 6.1222 22.548 6.8841 22.549 C 7.637 22.548 8.3647 22.437 9.068 22.216 C 9.7714 21.994 10.405 21.677 10.97 21.264 C 11.534 20.85 11.981 20.348 12.307 19.756 C 12.634 19.165 12.797 18.508 12.797 17.788 C 12.797 17.2 12.687 16.662 12.463 16.171 C 12.24 15.681 11.953 15.228 11.602 14.815 C 11.25 14.401 10.832 14.033 10.347 13.711 C 9.8615 13.389 9.435 13.137 9.068 12.955 L 10.762 11.873 C 11.634 11.334 12.338 10.631 12.872 9.7655 C 13.407 8.8999 13.674 7.9477 13.674 6.9098 Z M 11.059 17.788 C 11.059 18.297 10.948 18.78 10.725 19.237 C 10.503 19.693 10.201 20.086 9.8192 20.413 C 9.4377 20.739 8.9968 20.999 8.4964 21.192 C 7.9968 21.384 7.4594 21.48 6.8841 21.481 C 6.3395 21.48 5.8174 21.406 5.317 21.257 C 4.8174 21.107 4.3765 20.893 3.9951 20.615 C 3.6136 20.335 3.3116 20.003 3.0889 19.619 C 2.8661 19.234 2.7543 18.821 2.7543 18.379 C 2.7543 17.878 2.8887 17.421 3.1556 17.008 C 3.4225 16.594 3.7796 16.253 4.225 15.985 L 8.0428 13.59 C 8.885 14.04 9.5982 14.62 10.183 15.327 C 10.767 16.034 11.059 16.854 11.059 17.788 Z M 11.758 5.8278 C 11.758 6.4229 11.595 6.9829 11.267 7.5077 C 10.941 8.0315 10.5 8.4572 9.9445 8.7854 L 5.6217 11.469 C 4.6217 10.977 3.7723 10.285 3.0735 9.3904 C 2.3756 8.4959 2.0257 7.486 2.0257 6.3616 C 2.0257 5.7737 2.1574 5.211 2.4198 4.6727 C 2.6831 4.1335 3.0348 3.67 3.4748 3.2805 C 3.9157 2.8909 4.4333 2.5853 5.0275 2.3643 C 5.6217 2.1425 6.2403 2.0325 6.8841 2.0334 C 7.5388 2.0325 8.1627 2.1281 8.757 2.3211 C 9.3512 2.5131 9.8733 2.7773 10.324 3.1146 C 10.775 3.4509 11.127 3.8476 11.379 4.3048 C 11.632 4.7611 11.758 5.2687 11.758 5.8278 Z " fill="#ffffff" fill-rule="evenodd"/>
</g>
<path transform="matrix(.099878627,0,0,-.099800679,0,773.09628)" d="M 164.13 7321.29 C 164.13 7452.99 270.9 7559.76 402.61 7559.76 L 2275.63 7559.76 C 2407.33 7559.76 2514.1 7452.99 2514.1 7321.29 L 2514.1 5830.37 C 2514.1 5698.66 2407.33 5591.89 2275.63 5591.89 L 402.61 5591.89 C 270.9 5591.89 164.13 5698.66 164.13 5830.37 L 164.13 7321.29 Z " fill="#d5d6d5" fill-rule="evenodd"/>
<path transform="matrix(.099878627,0,0,-.099800679,0,773.09628)" d="M 708.43 7178.73 C 708.43 7080.68 628.94 7001.2 530.89 7001.2 C 432.84 7001.2 353.35 7080.68 353.35 7178.73 C 353.35 7276.79 432.84 7356.27 530.89 7356.27 C 628.94 7356.27 708.43 7276.79 708.43 7178.73 Z " fill="#66a5cc" fill-rule="evenodd"/>
<clipPath id="cp17">
<path transform="matrix(1.9975345,.0000015473713,-.00000038710815,-1.9960014,86.17728,69.59833)" d="M 0 0 L 27.992 0 L 27.992 14.007 L 0 14.007 Z " fill-rule="evenodd"/>
</clipPath>
<g clip-path="url(#cp17)">
<path transform="matrix(1.9975345,.0000015473713,-.00000038710815,-1.9960014,86.17728,69.59833)" d="M 8.3377 4.0777 C 9.5685 3.9194 10.321 3.8438 10.598 3.8438 C 10.875 3.8438 11.012 3.9985 11.012 4.308 L 11.012 8.2809 L 6.8551 8.2809 L 6.8551 2.9261 C 6.8551 2.2316 6.8767 1.6018 6.9127 1.0261 L 5.9626 .50785 C 6.0058 1.3895 6.0238 2.2316 6.0238 3.0413 L 6.0238 8.2809 L 3.4112 8.2809 C 2.8966 8.2773 2.4216 8.2197 1.9862 8.1082 L 1.45 8.6264 L 10.832 8.6264 L 11.487 9.2597 L 12.375 8.4536 L 11.9 8.0506 L 11.9 4.0777 C 11.9 3.689 11.821 3.3832 11.663 3.1528 C 11.505 2.9225 11.17 2.6922 10.655 2.4655 C 10.378 3.1133 9.6045 3.5559 8.3377 3.7898 Z M 9.0503 11.505 C 9.0503 12.347 9.0323 13.114 8.9927 13.808 L 10.418 13.117 L 9.8816 12.772 L 9.8816 11.505 L 11.724 11.505 L 12.793 12.427 L 14.038 11.16 L 9.8816 11.16 C 9.8816 10.62 9.9031 10.138 9.9427 9.7203 L 9.0503 9.3173 L 9.0503 11.16 L 5.6676 11.16 L 5.6676 9.6052 L 4.7751 9.1446 C 4.8183 9.8319 4.8363 10.505 4.8363 11.16 L 2.1625 11.16 C 1.6515 11.156 1.1765 11.099 .73743 10.987 L .20483 11.505 L 4.8363 11.505 C 4.8363 12.383 4.8183 13.132 4.7751 13.751 L 6.1426 13.117 L 5.6676 12.714 L 5.6676 11.505 Z " fill-rule="evenodd"/>
<path transform="matrix(1.9975345,.0000015473713,-.00000038710815,-1.9960014,86.17728,69.59833)" d="M 17.764 8.6264 L 17.764 5.4596 L 24.296 5.4596 L 24.296 8.6264 Z M 16.814 4.0777 C 16.857 4.8802 16.875 5.7439 16.875 6.6651 C 16.875 7.5864 16.857 8.5076 16.814 9.4325 L 17.764 8.9718 L 20.319 8.9718 C 20.319 11.541 20.301 13.211 20.258 13.981 L 21.626 13.463 L 21.151 13.002 L 21.151 11.62 L 25.008 11.62 L 25.782 12.369 L 26.851 11.275 L 21.151 11.275 L 21.151 8.9718 L 24.177 8.9718 L 24.771 9.5476 L 25.663 8.6839 L 25.127 8.2809 C 25.127 6.4744 25.149 5.2436 25.188 4.5959 L 24.296 4.2504 L 24.296 5.1141 L 17.764 5.1141 L 17.764 4.4232 Z M 16.519 3.7898 L 16.757 3.7898 C 16.519 2.2892 16.274 1.4183 16.015 1.17 C 15.756 .91809 15.53 .79574 15.332 .79574 C 15.213 .79574 15.073 .84252 14.914 .93968 C 14.756 1.0332 14.677 1.1412 14.677 1.2564 C 14.677 1.3715 14.777 1.5047 14.975 1.6594 C 15.332 1.9257 15.598 2.174 15.778 2.4043 C 15.958 2.6346 16.203 3.0953 16.519 3.7898 Z M 18.596 3.5019 L 18.714 3.6746 C 19.549 3.0557 20.013 2.6238 20.111 2.3755 C 20.211 2.1236 20.258 1.9473 20.258 1.8321 C 20.258 1.5622 20.172 1.3427 19.992 1.17 C 19.816 .99726 19.708 .9109 19.664 .9109 C 19.506 .9109 19.409 1.1016 19.369 1.4867 C 19.29 2.0589 19.035 2.7318 18.596 3.5019 Z M 21.744 3.5595 L 21.863 3.7322 C 22.615 3.1924 23.08 2.7678 23.259 2.4619 C 23.439 2.1524 23.526 1.9473 23.526 1.8321 C 23.526 1.6378 23.439 1.4471 23.259 1.2564 C 23.08 1.062 22.972 .96847 22.932 .96847 C 22.774 .96847 22.655 1.1988 22.576 1.6594 C 22.457 2.3072 22.18 2.9405 21.744 3.5595 Z M 24.951 3.7322 L 25.07 3.905 C 25.861 3.3652 26.408 2.9009 26.703 2.5195 C 26.998 2.1344 27.146 1.8501 27.146 1.6594 C 27.146 1.4651 27.067 1.2744 26.908 1.0836 C 26.75 .8893 26.653 .79574 26.613 .79574 C 26.455 .79574 26.318 1.0261 26.196 1.4867 C 26.002 2.1344 25.584 2.8829 24.951 3.7322 Z " fill-rule="evenodd"/>
</g>
<clipPath id="cp18">
<path transform="matrix(1.9975793,.000005418116,-.00000037418523,-1.9960145,45.64353,129.60846)" d="M 0 0 L 7.9945 0 L 7.9945 14.491 L 0 14.491 Z " fill-rule="evenodd"/>
</clipPath>
<g clip-path="url(#cp18)">
<path transform="matrix(1.9975793,.000005418116,-.00000037418523,-1.9960145,45.64353,129.60846)" d="M 7.3101 .54473 C 6.0952 .5832 4.9128 .60244 3.7634 .60244 C 2.6146 .60244 1.4322 .5832 .2167 .54473 L .2167 1.3719 L .9008 1.3719 C 1.1184 1.3713 1.3234 1.3743 1.5146 1.3809 C 1.7063 1.3869 1.8879 1.4032 2.0598 1.429 C 2.2317 1.4543 2.3802 1.4801 2.5052 1.5065 C 2.611 1.5252 2.6988 1.5841 2.7679 1.6839 C 2.8377 1.7831 2.8719 1.8937 2.8719 2.0163 L 2.8719 12.856 C 2.5419 12.695 2.1355 12.573 1.6534 12.49 C 1.1713 12.406 .64291 12.365 .068224 12.365 L .068224 13.183 C .86112 13.182 1.5927 13.277 2.263 13.466 C 2.9332 13.655 3.5127 14.01 4.0015 14.53 L 4.3086 14.53 C 4.5262 14.529 4.635 14.423 4.635 14.212 L 4.635 2.0163 C 4.635 1.8877 4.6681 1.7753 4.7342 1.6791 C 4.8004 1.5829 4.8965 1.5252 5.0216 1.5065 C 5.1274 1.4801 5.2632 1.4543 5.4279 1.429 C 5.5933 1.4032 5.7796 1.3869 5.9876 1.3809 C 6.1956 1.3743 6.3988 1.3713 6.5966 1.3719 L 7.3101 1.3719 L 7.3101 .54473 Z " fill="#ffffff" fill-rule="evenodd"/>
</g>
<clipPath id="cp19">
<path transform="matrix(1.9975789,.0000005518763,-.00000047092653,-1.9960065,83.77919,127.161319)" d="M 0 0 L 78.487 0 L 78.487 11.514 L 0 11.514 Z " fill-rule="evenodd"/>
</clipPath>
<g clip-path="url(#cp19)">
<path transform="matrix(1.9975789,.0000005518763,-.00000047092653,-1.9960065,83.77919,127.161319)" d="M 4.9434 1.2954 C 4.9731 2.2724 4.9866 2.9337 4.9866 3.2819 L 4.9866 7.6866 C 4.5143 7.0793 3.9961 6.5476 3.432 6.0888 L 3.2971 6.2183 C 4.069 7.0793 4.6573 7.9781 5.0568 8.9146 C 5.4562 9.8485 5.7018 10.564 5.7882 11.055 L 6.7679 10.494 C 6.5304 10.375 6.2038 9.9159 5.7882 9.1116 L 9.1673 9.1116 L 9.7017 9.6298 L 10.503 8.8525 L 7.9231 8.8525 L 7.9231 7.0388 L 8.8569 7.0388 L 9.3913 7.557 L 10.19 6.7797 L 7.9231 6.7797 L 7.9231 4.966 L 8.9028 4.966 L 9.3913 5.441 L 10.147 4.7069 L 7.9231 4.7069 L 7.9231 2.6773 L 9.3023 2.6773 L 9.8799 3.2387 L 10.725 2.4182 L 5.5669 2.4182 L 5.5669 1.5977 Z M 7.3455 8.8525 L 5.6991 8.8525 L 5.5669 8.6366 L 5.5669 7.0388 L 7.3455 7.0388 Z M 5.5669 6.7797 L 5.5669 4.966 L 7.3455 4.966 L 7.3455 6.7797 Z M 5.5669 4.7069 L 5.5669 2.6773 L 7.3455 2.6773 L 7.3455 4.7069 Z M 6.9893 11.141 L 7.0783 11.271 C 7.7315 10.979 8.139 10.742 8.301 10.556 C 8.4656 10.367 8.5466 10.218 8.5466 10.105 C 8.5466 9.9591 8.4872 9.8053 8.3684 9.6487 C 8.2497 9.4895 8.1768 9.4112 8.1444 9.4139 C 8.0257 9.4112 7.9231 9.5543 7.834 9.8458 C 7.6883 10.245 7.4049 10.677 6.9893 11.141 Z M 2.7195 4.3183 L 4.32 4.8365 L 4.3658 4.6205 C 2.5575 3.8972 1.4159 3.3088 .94085 2.85 L .36057 3.6273 C .83559 3.7407 1.4159 3.9134 2.096 4.1455 L 2.096 7.9025 L 1.0731 7.9025 L .67365 7.8161 L .31739 8.1616 L 2.096 8.1616 L 2.096 10.018 C 2.096 10.391 2.0825 10.78 2.0528 11.184 L 3.0757 10.753 L 2.7195 10.407 L 2.7195 8.1616 L 3.208 8.1616 L 3.6965 8.6366 L 4.409 7.9025 L 2.7195 7.9025 Z " fill-rule="evenodd"/>
<path transform="matrix(1.9975789,.0000005518763,-.00000047092653,-1.9960065,83.77919,127.161319)" d="M 12.108 8.8093 L 12.108 6.0456 L 14.421 6.0456 L 14.421 8.8093 Z M 12.108 5.7865 L 12.108 2.7636 L 14.421 2.7636 L 14.421 5.7865 Z M 14.998 8.5502 C 14.998 5.1792 15.015 2.9769 15.044 1.9432 L 14.421 1.5977 L 14.421 2.5045 L 12.108 2.5045 L 12.108 1.7704 L 11.487 1.425 C 11.517 2.7744 11.53 4.1212 11.53 5.4599 C 11.53 6.7986 11.517 8.1292 11.487 9.4571 L 12.154 9.0685 L 12.599 9.0685 C 12.896 10.045 13.058 10.793 13.088 11.314 L 14.065 10.796 C 13.77 10.65 13.371 10.072 12.864 9.0685 L 14.332 9.0685 L 14.777 9.5003 L 15.444 8.8525 Z M 17.179 11.271 L 18.159 10.709 C 17.921 10.564 17.552 9.9726 17.047 8.9389 L 19.446 8.9389 L 19.938 9.4139 L 20.604 8.7662 L 20.205 8.4639 C 20.145 5.0929 20.064 3.1847 19.959 2.7394 C 19.857 2.2913 19.708 1.9863 19.514 1.8136 C 19.322 1.6409 19.017 1.4816 18.602 1.3386 C 18.456 1.7974 17.965 2.1429 17.133 2.375 L 17.133 2.5909 C 17.876 2.4452 18.41 2.3723 18.737 2.3723 C 19.063 2.3723 19.263 2.6152 19.336 3.1064 C 19.411 3.5949 19.476 5.4518 19.535 8.6798 L 16.958 8.6798 C 16.424 7.8431 15.859 7.136 15.266 6.5638 L 15.133 6.6502 C 15.757 7.5678 16.216 8.3883 16.513 9.1089 C 16.809 9.8269 17.034 10.547 17.179 11.271 Z M 16.378 7.0388 C 17.09 6.5179 17.506 6.1347 17.625 5.8918 C 17.743 5.6462 17.803 5.468 17.803 5.3547 C 17.803 5.1495 17.743 4.9768 17.625 4.8338 C 17.506 4.688 17.417 4.6178 17.357 4.6205 C 17.239 4.6178 17.15 4.8203 17.09 5.2251 C 16.971 5.7973 16.704 6.3587 16.289 6.9093 Z " fill-rule="evenodd"/>
<path transform="matrix(1.9975789,.0000005518763,-.00000047092653,-1.9960065,83.77919,127.161319)" d="M 23.099 3.4114 C 23.099 2.402 23.116 1.7272 23.143 1.3818 L 22.476 1.1659 C 22.508 2.2023 22.522 2.8905 22.522 3.2387 L 22.522 7.5138 C 21.988 6.6772 21.469 5.9997 20.965 5.4842 L 20.83 5.5706 C 21.396 6.4019 21.901 7.3384 22.344 8.3748 C 22.789 9.4112 23.129 10.375 23.367 11.271 L 24.301 10.709 L 23.855 10.45 C 23.38 9.3815 23.07 8.6636 22.921 8.2911 L 23.456 7.9889 L 23.099 7.7298 Z M 25.502 7.8593 L 25.502 6.5638 L 28.927 6.5638 L 28.927 7.8593 Z M 25.502 6.3047 L 25.502 5.0092 L 28.927 5.0092 L 28.927 6.3047 Z M 25.502 4.7501 L 25.502 3.4546 L 28.927 3.4546 L 28.927 4.7501 Z M 25.502 3.1955 L 25.502 1.9 L 28.927 1.9 L 28.927 3.1955 Z M 26.703 9.6298 C 26.732 10.288 26.732 10.85 26.703 11.314 L 27.726 10.839 L 27.369 10.58 L 27.326 9.6298 L 29.326 9.6298 L 29.904 10.191 L 30.748 9.3707 L 27.326 9.3707 L 27.28 8.1184 L 28.837 8.1184 L 29.237 8.5502 L 29.904 7.9889 L 29.504 7.7298 L 29.504 1.9 L 29.904 1.9 L 30.484 2.4614 L 31.329 1.6409 L 24.746 1.6409 C 24.36 1.6409 24.004 1.5977 23.677 1.5113 L 23.278 1.9 L 24.924 1.9 L 24.924 6.6934 C 24.924 7.0361 24.91 7.6272 24.878 8.4639 L 25.502 8.1184 L 26.657 8.1184 L 26.703 9.3707 L 25.367 9.3707 C 24.983 9.368 24.627 9.3249 24.301 9.2412 L 23.901 9.6298 Z " fill-rule="evenodd"/>
<path transform="matrix(1.9975789,.0000005518763,-.00000047092653,-1.9960065,83.77919,127.161319)" d="M 45.191 4.8914 C 45.191 4.5835 45.131 4.2875 45.009 4.0029 C 44.888 3.7183 44.716 3.468 44.493 3.2524 C 44.278 3.0328 44.024 2.8644 43.733 2.7467 C 43.442 2.6289 43.137 2.5703 42.82 2.5703 C 42.548 2.5703 42.302 2.6273 42.085 2.7417 C 41.868 2.8561 41.712 2.9739 41.617 3.0954 L 41.617 1.4465 C 41.617 1.3941 41.625 1.3435 41.64 1.2944 C 41.656 1.2454 41.685 1.2092 41.729 1.1865 C 41.786 1.157 41.879 1.1405 42.006 1.1374 C 42.135 1.134 42.275 1.1325 42.426 1.1325 L 42.426 .735 C 42.005 .74788 41.599 .75463 41.208 .75463 C 40.82 .75463 40.416 .74788 39.995 .735 L 39.995 1.1325 C 40.147 1.1325 40.287 1.134 40.414 1.1374 C 40.543 1.1405 40.637 1.157 40.697 1.1865 C 40.738 1.2061 40.766 1.2404 40.781 1.2895 C 40.796 1.3386 40.804 1.3907 40.804 1.4465 L 40.804 6.2998 C 40.804 6.3716 40.798 6.4375 40.786 6.4982 C 40.774 6.5587 40.743 6.6022 40.692 6.6286 C 40.632 6.6642 40.538 6.6853 40.412 6.6921 C 40.286 6.6985 40.147 6.7019 39.995 6.7022 L 39.995 7.1095 L 41.587 7.2273 L 41.587 6.6482 C 41.705 6.7819 41.89 6.9111 42.143 7.0356 C 42.396 7.1598 42.671 7.222 42.967 7.2224 C 43.27 7.222 43.558 7.1622 43.831 7.0429 C 44.104 6.9233 44.342 6.7543 44.544 6.5353 C 44.756 6.3127 44.917 6.0596 45.027 5.7769 C 45.136 5.4938 45.191 5.1987 45.191 4.8914 Z M 44.23 4.8914 C 44.23 5.1497 44.198 5.399 44.134 5.6395 C 44.071 5.8799 43.968 6.1032 43.826 6.3096 C 43.712 6.4728 43.577 6.6077 43.422 6.7141 C 43.267 6.8203 43.099 6.8736 42.916 6.8739 C 42.63 6.8736 42.371 6.8006 42.141 6.6553 C 41.91 6.5096 41.735 6.324 41.617 6.0986 L 41.617 3.7186 C 41.729 3.4763 41.885 3.2782 42.087 3.1245 C 42.29 2.9705 42.524 2.8939 42.79 2.8942 C 42.985 2.8939 43.17 2.946 43.343 3.0509 C 43.517 3.1555 43.668 3.2929 43.796 3.4634 C 43.951 3.6726 44.062 3.898 44.129 4.1403 C 44.197 4.3823 44.23 4.6326 44.23 4.8914 Z " fill-rule="evenodd"/>
<path transform="matrix(1.9975789,.0000005518763,-.00000047092653,-1.9960065,83.77919,127.161319)" d="M 49.223 6.5501 C 49.223 6.3863 49.172 6.2633 49.069 6.1817 C 48.967 6.0998 48.853 6.059 48.728 6.0593 C 48.604 6.059 48.49 6.0998 48.387 6.1817 C 48.284 6.2633 48.233 6.3863 48.233 6.5501 C 48.233 6.6543 48.258 6.7427 48.309 6.8147 C 48.359 6.8865 48.386 6.9227 48.39 6.923 C 48.45 6.9031 48.46 6.8933 48.42 6.8936 C 48.231 6.8933 48.065 6.8442 47.92 6.746 C 47.775 6.6479 47.652 6.5136 47.551 6.3437 C 47.45 6.1734 47.374 5.9771 47.323 5.7548 C 47.273 5.5321 47.247 5.3018 47.247 5.0632 L 47.247 3.4045 C 47.247 3.3453 47.259 3.292 47.283 3.2447 C 47.307 3.1972 47.339 3.1653 47.379 3.1494 C 47.467 3.1196 47.591 3.1024 47.753 3.0975 C 47.915 3.0926 48.081 3.0902 48.253 3.0905 L 48.253 2.6832 C 47.805 2.6961 47.374 2.7059 46.96 2.7126 L 46.772 2.7126 C 46.415 2.7126 46.043 2.701 45.656 2.6783 L 45.656 3.0905 C 45.807 3.0902 45.946 3.0926 46.073 3.0975 C 46.199 3.1024 46.294 3.1196 46.358 3.1494 C 46.399 3.1687 46.426 3.203 46.441 3.2521 C 46.457 3.3012 46.464 3.3518 46.464 3.4045 L 46.464 6.1918 C 46.464 6.2832 46.46 6.3663 46.452 6.4418 C 46.443 6.5169 46.409 6.5777 46.348 6.6237 C 46.291 6.6626 46.199 6.6853 46.073 6.6921 C 45.946 6.6985 45.807 6.7019 45.656 6.7022 L 45.656 7.1095 L 47.197 7.2273 L 47.197 6.3881 C 47.231 6.4992 47.355 6.6657 47.571 6.8884 C 47.787 7.1107 48.07 7.222 48.42 7.2224 C 48.615 7.222 48.798 7.1632 48.968 7.0454 C 49.138 6.9276 49.223 6.7623 49.223 6.5501 Z " fill-rule="evenodd"/>
<path transform="matrix(1.9975789,.0000005518763,-.00000047092653,-1.9960065,83.77919,127.161319)" d="M 51.317 8.935 C 51.317 8.7743 51.258 8.6369 51.14 8.5225 C 51.022 8.4078 50.881 8.3507 50.715 8.351 C 50.55 8.3507 50.41 8.4078 50.294 8.5225 C 50.177 8.6369 50.119 8.7743 50.119 8.935 C 50.119 9.0951 50.177 9.2316 50.294 9.3444 C 50.41 9.4573 50.55 9.5137 50.715 9.514 C 50.881 9.5137 51.022 9.4573 51.14 9.3444 C 51.258 9.2316 51.317 9.0951 51.317 8.935 Z M 51.999 2.6783 C 51.595 2.701 51.206 2.7126 50.832 2.7126 C 50.465 2.7126 50.079 2.701 49.674 2.6783 L 49.674 3.0905 C 49.826 3.0902 49.965 3.0926 50.091 3.0975 C 50.218 3.1024 50.313 3.1196 50.377 3.1494 C 50.418 3.1687 50.444 3.2021 50.458 3.2496 C 50.471 3.2969 50.478 3.3487 50.478 3.4045 L 50.478 6.1918 C 50.478 6.2832 50.474 6.3663 50.465 6.4418 C 50.457 6.5169 50.428 6.5777 50.377 6.6237 C 50.32 6.6626 50.233 6.6853 50.117 6.6921 C 50.001 6.6985 49.867 6.7019 49.715 6.7022 L 49.715 7.1095 L 51.271 7.2273 L 51.271 3.4045 C 51.271 3.3487 51.277 3.2969 51.287 3.2496 C 51.297 3.2021 51.322 3.1687 51.362 3.1494 C 51.416 3.1196 51.501 3.1024 51.618 3.0975 C 51.734 3.0926 51.861 3.0902 51.999 3.0905 L 51.999 2.6783 Z " fill-rule="evenodd"/>
<path transform="matrix(1.9975789,.0000005518763,-.00000047092653,-1.9960065,83.77919,127.161319)" d="M 57.104 4.8718 C 57.104 4.5639 57.045 4.2694 56.927 3.9882 C 56.809 3.7066 56.637 3.4582 56.412 3.2426 C 56.196 3.0328 55.947 2.8684 55.664 2.7491 C 55.381 2.6298 55.081 2.5703 54.764 2.5703 C 54.448 2.5703 54.148 2.6289 53.865 2.7467 C 53.582 2.8644 53.331 3.0297 53.112 3.2426 C 52.883 3.4616 52.711 3.7109 52.596 3.9906 C 52.482 4.2704 52.425 4.5639 52.425 4.8718 C 52.425 5.1855 52.483 5.488 52.599 5.7793 C 52.715 6.0704 52.886 6.3323 53.112 6.5648 C 53.327 6.7838 53.578 6.9561 53.862 7.0822 C 54.147 7.2079 54.448 7.2711 54.764 7.2714 C 55.081 7.2711 55.381 7.2079 55.664 7.0822 C 55.947 6.9561 56.196 6.7838 56.412 6.5648 C 56.641 6.3289 56.813 6.0664 56.93 5.7769 C 57.046 5.4873 57.104 5.1855 57.104 4.8718 Z M 56.144 4.9847 C 56.144 5.2362 56.126 5.4849 56.091 5.7303 C 56.056 5.9756 55.969 6.1998 55.83 6.4028 C 55.703 6.5758 55.546 6.7108 55.361 6.8074 C 55.175 6.9037 54.977 6.9521 54.764 6.9525 C 54.552 6.9521 54.353 6.9037 54.168 6.8074 C 53.983 6.7108 53.826 6.5758 53.698 6.4028 C 53.56 6.2029 53.473 5.9796 53.438 5.7327 C 53.403 5.4855 53.385 5.2362 53.385 4.9847 C 53.385 4.7194 53.401 4.4568 53.433 4.1967 C 53.465 3.9367 53.553 3.6971 53.698 3.4781 C 53.813 3.3076 53.966 3.1727 54.158 3.073 C 54.35 2.973 54.552 2.9233 54.764 2.9236 C 54.977 2.9233 55.179 2.973 55.371 3.073 C 55.563 3.1727 55.716 3.3076 55.83 3.4781 C 55.976 3.6971 56.064 3.9367 56.096 4.1967 C 56.128 4.4568 56.144 4.7194 56.144 4.9847 Z " fill-rule="evenodd"/>
<path transform="matrix(1.9975789,.0000005518763,-.00000047092653,-1.9960065,83.77919,127.161319)" d="M 61.099 6.5501 C 61.099 6.3863 61.048 6.2633 60.945 6.1817 C 60.842 6.0998 60.728 6.059 60.604 6.0593 C 60.479 6.059 60.366 6.0998 60.263 6.1817 C 60.16 6.2633 60.109 6.3863 60.109 6.5501 C 60.109 6.6543 60.134 6.7427 60.184 6.8147 C 60.235 6.8865 60.262 6.9227 60.265 6.923 C 60.326 6.9031 60.336 6.8933 60.296 6.8936 C 60.107 6.8933 59.94 6.8442 59.795 6.746 C 59.651 6.6479 59.528 6.5136 59.427 6.3437 C 59.325 6.1734 59.25 5.9771 59.199 5.7548 C 59.149 5.5321 59.123 5.3018 59.123 5.0632 L 59.123 3.4045 C 59.123 3.3453 59.135 3.292 59.159 3.2447 C 59.182 3.1972 59.214 3.1653 59.255 3.1494 C 59.342 3.1196 59.467 3.1024 59.629 3.0975 C 59.791 3.0926 59.957 3.0902 60.129 3.0905 L 60.129 2.6832 C 59.681 2.6961 59.25 2.7059 58.835 2.7126 L 58.648 2.7126 C 58.291 2.7126 57.919 2.701 57.531 2.6783 L 57.531 3.0905 C 57.683 3.0902 57.822 3.0926 57.948 3.0975 C 58.075 3.1024 58.17 3.1196 58.234 3.1494 C 58.274 3.1687 58.302 3.203 58.317 3.2521 C 58.333 3.3012 58.34 3.3518 58.34 3.4045 L 58.34 6.1918 C 58.34 6.2832 58.336 6.3663 58.327 6.4418 C 58.319 6.5169 58.284 6.5777 58.224 6.6237 C 58.167 6.6626 58.075 6.6853 57.948 6.6921 C 57.822 6.6985 57.683 6.7019 57.531 6.7022 L 57.531 7.1095 L 59.073 7.2273 L 59.073 6.3881 C 59.106 6.4992 59.231 6.6657 59.447 6.8884 C 59.662 7.1107 59.945 7.222 60.296 7.2224 C 60.491 7.222 60.674 7.1632 60.844 7.0454 C 61.014 6.9276 61.099 6.7623 61.099 6.5501 Z " fill-rule="evenodd"/>
<path transform="matrix(1.9975789,.0000005518763,-.00000047092653,-1.9960065,83.77919,127.161319)" d="M 63.192 8.935 C 63.192 8.7743 63.134 8.6369 63.016 8.5225 C 62.898 8.4078 62.756 8.3507 62.591 8.351 C 62.426 8.3507 62.286 8.4078 62.169 8.5225 C 62.053 8.6369 61.995 8.7743 61.995 8.935 C 61.995 9.0951 62.053 9.2316 62.169 9.3444 C 62.286 9.4573 62.426 9.5137 62.591 9.514 C 62.756 9.5137 62.898 9.4573 63.016 9.3444 C 63.134 9.2316 63.192 9.0951 63.192 8.935 Z M 63.875 2.6783 C 63.471 2.701 63.081 2.7126 62.707 2.7126 C 62.34 2.7126 61.955 2.701 61.55 2.6783 L 61.55 3.0905 C 61.702 3.0902 61.841 3.0926 61.967 3.0975 C 62.094 3.1024 62.189 3.1196 62.253 3.1494 C 62.293 3.1687 62.32 3.2021 62.333 3.2496 C 62.347 3.2969 62.354 3.3487 62.354 3.4045 L 62.354 6.1918 C 62.354 6.2832 62.35 6.3663 62.341 6.4418 C 62.333 6.5169 62.303 6.5777 62.253 6.6237 C 62.195 6.6626 62.109 6.6853 61.992 6.6921 C 61.876 6.6985 61.742 6.7019 61.591 6.7022 L 61.591 7.1095 L 63.147 7.2273 L 63.147 3.4045 C 63.147 3.3487 63.152 3.2969 63.162 3.2496 C 63.173 3.2021 63.198 3.1687 63.238 3.1494 C 63.292 3.1196 63.377 3.1024 63.493 3.0975 C 63.61 3.0926 63.737 3.0902 63.875 3.0905 L 63.875 2.6783 Z " fill-rule="evenodd"/>
<path transform="matrix(1.9975789,.0000005518763,-.00000047092653,-1.9960065,83.77919,127.161319)" d="M 67.54 3.9492 C 67.54 3.7855 67.518 3.6217 67.474 3.4582 C 67.43 3.2944 67.367 3.1472 67.284 3.0166 C 67.202 2.8856 67.095 2.7786 66.964 2.6954 C 66.832 2.612 66.679 2.5703 66.504 2.5703 C 66.322 2.5703 66.14 2.5964 65.958 2.6488 C 65.776 2.701 65.613 2.7973 65.468 2.938 C 65.323 3.0785 65.223 3.238 65.169 3.4165 C 65.115 3.5947 65.088 3.7723 65.088 3.9492 L 65.088 6.7022 L 64.209 6.7022 L 64.209 7.0212 C 64.455 7.0209 64.659 7.0739 64.821 7.1803 C 64.983 7.2865 65.118 7.4272 65.228 7.6024 C 65.337 7.7772 65.419 7.9802 65.473 8.2109 C 65.527 8.4415 65.553 8.6927 65.553 8.9644 L 65.912 8.9644 L 65.912 7.1144 L 67.373 7.1144 L 67.373 6.7022 L 65.912 6.7022 L 65.912 3.9492 C 65.912 3.7983 65.925 3.6569 65.95 3.5245 C 65.975 3.392 66.022 3.2717 66.089 3.1641 C 66.204 3.0034 66.357 2.9233 66.549 2.9236 C 66.65 2.9233 66.738 2.9485 66.814 2.9994 C 66.89 3.05 66.955 3.1236 67.009 3.2202 C 67.063 3.3165 67.105 3.4278 67.135 3.5539 C 67.166 3.6796 67.181 3.8115 67.181 3.9492 L 67.181 4.6019 L 67.54 4.6019 L 67.54 3.9492 Z " fill-rule="evenodd"/>
<path transform="matrix(1.9975789,.0000005518763,-.00000047092653,-1.9960065,83.77919,127.161319)" d="M 73.295 6.7022 C 73.17 6.7019 73.06 6.6896 72.964 6.6651 C 72.868 6.6405 72.783 6.6022 72.708 6.5501 C 72.621 6.4942 72.549 6.4262 72.494 6.3461 C 72.438 6.2658 72.39 6.1802 72.35 6.0888 L 70.55 1.8489 C 70.49 1.695 70.413 1.5447 70.321 1.3975 C 70.228 1.2503 70.125 1.1178 70.01 .99999 C 69.895 .88222 69.767 .78806 69.626 .71783 C 69.484 .64728 69.328 .61232 69.156 .61232 C 69.025 .61232 68.898 .63348 68.777 .67611 C 68.656 .71844 68.55 .77917 68.458 .85768 C 68.368 .9362 68.294 1.0285 68.239 1.1349 C 68.183 1.2411 68.155 1.3582 68.155 1.4858 C 68.155 1.6428 68.205 1.7606 68.304 1.8391 C 68.404 1.9176 68.516 1.9569 68.64 1.9569 C 68.765 1.9569 68.877 1.9176 68.976 1.8391 C 69.076 1.7606 69.126 1.6428 69.126 1.4858 C 69.126 1.3352 69.078 1.2224 68.982 1.1472 C 68.886 1.0718 68.817 1.0325 68.777 1.0294 C 68.78 1.0294 68.823 1.0147 68.903 .98527 C 68.984 .95583 69.068 .9411 69.156 .9411 C 69.277 .9411 69.389 .96809 69.492 1.0221 C 69.595 1.0761 69.689 1.1463 69.775 1.2331 C 69.861 1.3196 69.936 1.4202 70 1.5349 C 70.064 1.6493 70.123 1.7671 70.177 1.8882 L 70.53 2.7322 L 68.999 6.3685 C 68.972 6.4237 68.941 6.4786 68.906 6.5326 C 68.87 6.5866 68.827 6.6249 68.777 6.6482 C 68.713 6.6773 68.628 6.6936 68.522 6.697 C 68.416 6.7 68.293 6.7019 68.155 6.7022 L 68.155 7.1193 C 68.506 7.0896 68.839 7.0733 69.156 7.0702 C 69.193 7.0699 69.233 7.0748 69.277 7.085 C 69.631 7.0846 70.005 7.096 70.399 7.1193 L 70.399 6.7022 C 70.274 6.7019 70.172 6.6985 70.093 6.6921 C 70.014 6.6853 69.944 6.6626 69.883 6.6237 C 69.847 6.5973 69.825 6.5679 69.818 6.5353 L 69.818 6.501 C 69.818 6.4746 69.823 6.4418 69.833 6.4028 L 70.96 3.7431 L 71.981 6.128 C 72.011 6.1866 72.026 6.2504 72.026 6.3194 L 72.026 6.3391 C 72.02 6.4074 71.994 6.4712 71.95 6.5304 C 71.913 6.589 71.861 6.6323 71.794 6.6602 C 71.726 6.6878 71.639 6.7019 71.531 6.7022 L 71.531 7.1193 C 71.848 7.096 72.144 7.0846 72.42 7.085 C 72.451 7.0782 72.481 7.0733 72.511 7.0702 C 72.75 7.0699 73.012 7.0862 73.295 7.1193 L 73.295 6.7022 Z " fill-rule="evenodd"/>
<path transform="matrix(1.9975789,.0000005518763,-.00000047092653,-1.9960065,83.77919,127.161319)" d="M 38.966 .89419 C 35.69 3.0533 35.69 8.3311 38.966 10.49 L 39.481 10.49 C 36.526 8.3311 36.526 3.0533 39.481 .89419 " fill-rule="evenodd"/>
<path transform="matrix(1.9975789,.0000005518763,-.00000047092653,-1.9960065,83.77919,127.161319)" d="M 74.356 10.49 C 77.632 8.3311 77.632 3.0533 74.356 .89419 L 73.842 .89419 C 76.796 3.0533 76.796 8.3311 73.842 10.49 " fill-rule="evenodd"/>
</g>
<clipPath id="cp20">
<path transform="matrix(1.9975793,.000005418116,-.00000037418523,-1.9960145,45.64353,191.98389)" d="M 0 0 L 7.9945 0 L 7.9945 14.491 L 0 14.491 Z " fill-rule="evenodd"/>
</clipPath>
<g clip-path="url(#cp20)">
<path transform="matrix(1.9975793,.000005418116,-.00000037418523,-1.9960145,45.64353,191.98389)" d="M 7.3101 .54473 C 6.0952 .5832 4.9128 .60244 3.7634 .60244 C 2.6146 .60244 1.4322 .5832 .2167 .54473 L .2167 1.3719 L .9008 1.3719 C 1.1184 1.3713 1.3234 1.3743 1.5146 1.3809 C 1.7063 1.3869 1.8879 1.4032 2.0598 1.429 C 2.2317 1.4543 2.3802 1.4801 2.5052 1.5065 C 2.611 1.5252 2.6988 1.5841 2.7679 1.6839 C 2.8377 1.7831 2.8719 1.8937 2.8719 2.0163 L 2.8719 12.856 C 2.5419 12.695 2.1355 12.573 1.6534 12.49 C 1.1713 12.406 .64291 12.365 .068224 12.365 L .068224 13.183 C .86112 13.182 1.5927 13.277 2.263 13.466 C 2.9332 13.655 3.5127 14.01 4.0015 14.53 L 4.3086 14.53 C 4.5262 14.529 4.635 14.423 4.635 14.212 L 4.635 2.0163 C 4.635 1.8877 4.6681 1.7753 4.7342 1.6791 C 4.8004 1.5829 4.8965 1.5252 5.0216 1.5065 C 5.1274 1.4801 5.2632 1.4543 5.4279 1.429 C 5.5933 1.4032 5.7796 1.3869 5.9876 1.3809 C 6.1956 1.3743 6.3988 1.3713 6.5966 1.3719 L 7.3101 1.3719 L 7.3101 .54473 Z " fill-rule="evenodd"/>
</g>
<clipPath id="cp21">
<path transform="matrix(1.9975652,0,-.00000047092653,-1.9960065,83.55846,187.87409)" d="M 0 0 L 57.97 0 L 57.97 11.514 L 0 11.514 Z " fill-rule="evenodd"/>
</clipPath>
<g clip-path="url(#cp21)">
<path transform="matrix(1.9975652,0,-.00000047092653,-1.9960065,83.55846,187.87409)" d="M 3.7478 9.5867 L 6.1958 9.5867 L 6.552 9.9753 L 7.2645 9.4139 L 6.8651 9.1548 C 6.6276 8.086 6.301 7.0361 5.8854 6.0024 C 6.2119 5.5112 6.4198 5.136 6.5088 4.8769 C 6.5979 4.6178 6.6411 4.3884 6.6411 4.1887 C 6.6411 3.9836 6.5979 3.8108 6.5088 3.6678 C 6.4198 3.5221 6.3604 3.4519 6.3307 3.4546 C 6.2416 3.4519 6.1526 3.6381 6.0635 4.016 C 5.9151 4.5612 5.7504 5.0632 5.5723 5.5274 C 4.8921 4.3452 4.104 3.4222 3.2134 2.7636 L 3.1243 2.8932 C 3.9556 3.7245 4.6681 4.7771 5.2619 6.0456 C 4.9353 6.7338 4.6088 7.3816 4.2822 7.9889 L 4.4144 8.0752 C 4.6519 7.7567 5.0082 7.2385 5.4832 6.5206 C 5.7531 7.1792 6.0041 8.1157 6.2416 9.3276 L 4.5926 9.3276 L 4.104 9.2412 Z M 8.5115 11.271 L 9.6261 10.753 L 9.1808 10.494 L 9.1808 8.5934 L 9.5371 8.5934 L 10.026 9.0685 L 10.784 8.3343 L 9.1808 8.3343 L 9.1808 2.1591 C 9.1214 1.7542 8.7652 1.4519 8.112 1.2522 C 8.112 1.6247 7.6073 1.9701 6.5979 2.2886 L 6.5979 2.4614 C 7.2511 2.3426 7.7504 2.2886 8.0904 2.2886 C 8.4305 2.2886 8.587 2.4587 8.5574 2.8068 L 8.5574 8.3343 L 7.5776 8.3343 L 7.1755 8.248 L 6.8192 8.5934 L 8.5574 8.5934 C 8.5574 9.4544 8.5439 10.348 8.5115 11.271 Z M 6.8192 7.082 C 7.2942 6.6772 7.6073 6.3371 7.7558 6.0645 C 7.9042 5.7892 7.9771 5.5679 7.9771 5.3978 C 7.9771 5.2224 7.9177 5.0632 7.7989 4.9201 C 7.6802 4.7744 7.6073 4.7042 7.5776 4.7069 C 7.4589 4.7042 7.3698 4.8904 7.3104 5.2683 C 7.2214 5.8135 7.0135 6.3884 6.687 6.9956 Z M 2.7681 6.9525 C 2.7681 3.9269 2.7842 2.0862 2.8112 1.425 L 2.0987 1.1659 C 2.1311 2.4884 2.1446 4.1428 2.1446 6.132 C 1.6399 5.0632 1.0596 4.186 .40645 3.4978 L .2742 3.5841 C 1.1352 4.8473 1.7586 6.4019 2.1446 8.248 L 1.0299 8.248 L .63047 8.1616 L .2742 8.5071 L 2.1446 8.5071 C 2.1446 9.252 2.1311 10.189 2.0987 11.314 L 3.1675 10.796 L 2.7681 10.537 L 2.7681 8.5071 L 3.2134 8.5071 L 3.7019 8.9821 L 4.4603 8.248 L 2.7681 8.248 L 2.7681 7.1684 C 3.3915 6.9066 3.791 6.6907 3.9691 6.5179 C 4.1472 6.3452 4.2363 6.1725 4.2363 6.0024 C 4.2363 5.8837 4.2012 5.7541 4.1256 5.6111 C 4.0528 5.4653 4.0015 5.3951 3.9691 5.3978 C 3.8827 5.3951 3.7937 5.495 3.7019 5.7001 C 3.5562 6.0132 3.2431 6.4316 2.7681 6.9525 Z " fill-rule="evenodd"/>
<path transform="matrix(1.9975652,0,-.00000047092653,-1.9960065,83.55846,187.87409)" d="M 12.108 8.8093 L 12.108 6.0456 L 14.421 6.0456 L 14.421 8.8093 Z M 12.108 5.7865 L 12.108 2.7636 L 14.421 2.7636 L 14.421 5.7865 Z M 14.998 8.5502 C 14.998 5.1792 15.015 2.9769 15.044 1.9432 L 14.421 1.5977 L 14.421 2.5045 L 12.108 2.5045 L 12.108 1.7704 L 11.487 1.425 C 11.517 2.7744 11.53 4.1212 11.53 5.4599 C 11.53 6.7986 11.517 8.1292 11.487 9.4571 L 12.154 9.0685 L 12.599 9.0685 C 12.896 10.045 13.058 10.793 13.088 11.314 L 14.065 10.796 C 13.77 10.65 13.371 10.072 12.864 9.0685 L 14.332 9.0685 L 14.777 9.5003 L 15.444 8.8525 Z M 17.179 11.271 L 18.159 10.709 C 17.921 10.564 17.552 9.9726 17.047 8.9389 L 19.446 8.9389 L 19.938 9.4139 L 20.604 8.7662 L 20.205 8.4639 C 20.145 5.0929 20.064 3.1847 19.959 2.7394 C 19.857 2.2913 19.708 1.9863 19.514 1.8136 C 19.322 1.6409 19.017 1.4816 18.602 1.3386 C 18.456 1.7974 17.965 2.1429 17.133 2.375 L 17.133 2.5909 C 17.876 2.4452 18.41 2.3723 18.737 2.3723 C 19.063 2.3723 19.263 2.6152 19.336 3.1064 C 19.411 3.5949 19.476 5.4518 19.535 8.6798 L 16.958 8.6798 C 16.424 7.8431 15.859 7.136 15.266 6.5638 L 15.133 6.6502 C 15.757 7.5678 16.216 8.3883 16.513 9.1089 C 16.809 9.8269 17.034 10.547 17.179 11.271 Z M 16.378 7.0388 C 17.09 6.5179 17.506 6.1347 17.625 5.8918 C 17.743 5.6462 17.803 5.468 17.803 5.3547 C 17.803 5.1495 17.743 4.9768 17.625 4.8338 C 17.506 4.688 17.417 4.6178 17.357 4.6205 C 17.239 4.6178 17.15 4.8203 17.09 5.2251 C 16.971 5.7973 16.704 6.3587 16.289 6.9093 Z " fill-rule="evenodd"/>
<path transform="matrix(1.9975652,0,-.00000047092653,-1.9960065,83.55846,187.87409)" d="M 23.099 3.4114 C 23.099 2.402 23.116 1.7272 23.143 1.3818 L 22.476 1.1659 C 22.508 2.2023 22.522 2.8905 22.522 3.2387 L 22.522 7.5138 C 21.988 6.6772 21.469 5.9997 20.965 5.4842 L 20.83 5.5706 C 21.396 6.4019 21.901 7.3384 22.344 8.3748 C 22.789 9.4112 23.129 10.375 23.367 11.271 L 24.301 10.709 L 23.855 10.45 C 23.38 9.3815 23.07 8.6636 22.921 8.2911 L 23.456 7.9889 L 23.099 7.7298 Z M 25.502 7.8593 L 25.502 6.5638 L 28.927 6.5638 L 28.927 7.8593 Z M 25.502 6.3047 L 25.502 5.0092 L 28.927 5.0092 L 28.927 6.3047 Z M 25.502 4.7501 L 25.502 3.4546 L 28.927 3.4546 L 28.927 4.7501 Z M 25.502 3.1955 L 25.502 1.9 L 28.927 1.9 L 28.927 3.1955 Z M 26.703 9.6298 C 26.732 10.288 26.732 10.85 26.703 11.314 L 27.726 10.839 L 27.369 10.58 L 27.326 9.6298 L 29.326 9.6298 L 29.904 10.191 L 30.748 9.3707 L 27.326 9.3707 L 27.28 8.1184 L 28.837 8.1184 L 29.237 8.5502 L 29.904 7.9889 L 29.504 7.7298 L 29.504 1.9 L 29.904 1.9 L 30.484 2.4614 L 31.329 1.6409 L 24.746 1.6409 C 24.36 1.6409 24.004 1.5977 23.677 1.5113 L 23.278 1.9 L 24.924 1.9 L 24.924 6.6934 C 24.924 7.0361 24.91 7.6272 24.878 8.4639 L 25.502 8.1184 L 26.657 8.1184 L 26.703 9.3707 L 25.367 9.3707 C 24.983 9.368 24.627 9.3249 24.301 9.2412 L 23.901 9.6298 Z " fill-rule="evenodd"/>
<path transform="matrix(1.9975652,0,-.00000047092653,-1.9960065,83.55846,187.87409)" d="M 45.145 6.7022 C 45.014 6.7019 44.9 6.6896 44.804 6.6651 C 44.708 6.6405 44.623 6.6022 44.549 6.5501 C 44.468 6.4942 44.4 6.4262 44.344 6.3461 C 44.289 6.2658 44.241 6.1802 44.2 6.0888 L 42.8 2.7126 C 42.76 2.6175 42.688 2.5703 42.583 2.5703 L 42.553 2.5703 C 42.452 2.5703 42.381 2.6175 42.341 2.7126 L 40.83 6.3685 C 40.803 6.4237 40.773 6.4786 40.741 6.5326 C 40.709 6.5866 40.668 6.6249 40.617 6.6482 C 40.557 6.6773 40.471 6.6936 40.36 6.697 C 40.249 6.7 40.127 6.7019 39.996 6.7022 L 39.996 7.1193 C 40.346 7.0896 40.68 7.0733 40.996 7.0702 C 41.033 7.0699 41.074 7.0748 41.118 7.085 C 41.471 7.0846 41.842 7.096 42.229 7.1193 L 42.229 6.7022 C 42.112 6.7019 42.012 6.6985 41.931 6.6921 C 41.851 6.6853 41.776 6.6626 41.709 6.6237 C 41.668 6.5939 41.648 6.5531 41.648 6.501 C 41.648 6.4746 41.653 6.4418 41.663 6.4028 L 42.8 3.6499 L 43.831 6.128 C 43.862 6.1866 43.877 6.2504 43.877 6.3194 L 43.877 6.3391 C 43.87 6.4074 43.846 6.4719 43.804 6.5326 C 43.762 6.593 43.706 6.6362 43.637 6.6626 C 43.568 6.6887 43.479 6.7019 43.371 6.7022 L 43.371 7.1193 C 43.688 7.096 43.985 7.0846 44.261 7.085 C 44.291 7.0782 44.322 7.0733 44.352 7.0702 C 44.598 7.0699 44.862 7.0862 45.145 7.1193 L 45.145 6.7022 Z " fill-rule="evenodd"/>
<path transform="matrix(1.9975652,0,-.00000047092653,-1.9960065,83.55846,187.87409)" d="M 50.374 3.5468 C 50.374 3.4189 50.35 3.3012 50.303 3.1932 C 50.256 3.0853 50.192 2.9877 50.111 2.9012 C 50.031 2.8144 49.935 2.7467 49.823 2.6979 C 49.712 2.6488 49.593 2.6243 49.464 2.6243 C 49.225 2.6243 49.029 2.7108 48.876 2.8841 C 48.722 3.0573 48.642 3.1947 48.636 3.2966 C 48.579 3.1622 48.429 3.0074 48.186 2.8325 C 47.943 2.6577 47.666 2.5703 47.352 2.5703 C 47.15 2.5703 46.947 2.5915 46.743 2.6341 C 46.54 2.6764 46.353 2.7399 46.182 2.8252 C 46.012 2.9101 45.875 3.0239 45.77 3.1662 C 45.666 3.3085 45.614 3.4827 45.614 3.6892 C 45.614 3.9799 45.702 4.2351 45.879 4.4544 C 46.056 4.6734 46.272 4.8485 46.528 4.9798 C 46.852 5.1365 47.186 5.2426 47.532 5.2984 C 47.877 5.3539 48.211 5.3901 48.534 5.4067 L 48.534 5.7993 C 48.534 5.9462 48.509 6.0925 48.459 6.2381 C 48.408 6.3835 48.333 6.5105 48.231 6.6188 C 48.036 6.8442 47.799 6.9555 47.519 6.9525 C 47.29 6.9521 47.079 6.9153 46.885 6.8417 C 46.691 6.7681 46.56 6.6905 46.493 6.609 L 46.442 6.609 C 46.564 6.6086 46.677 6.5758 46.781 6.5108 C 46.906 6.4255 46.968 6.2912 46.968 6.1084 C 46.968 5.9379 46.912 5.8103 46.799 5.7253 C 46.686 5.6401 46.567 5.5978 46.442 5.5981 C 46.315 5.5978 46.194 5.6401 46.081 5.7253 C 45.968 5.8103 45.912 5.9379 45.912 6.1084 C 45.912 6.298 45.96 6.4663 46.056 6.6136 C 46.152 6.7608 46.276 6.8834 46.43 6.9816 C 46.583 7.0797 46.755 7.1524 46.945 7.2 C 47.136 7.2472 47.327 7.2711 47.519 7.2714 C 47.755 7.2711 47.983 7.2368 48.203 7.1681 C 48.424 7.0994 48.626 6.9929 48.807 6.8494 C 48.972 6.7151 49.105 6.5587 49.207 6.3805 C 49.308 6.202 49.358 6.0084 49.358 5.7993 L 49.358 3.5468 C 49.358 3.4125 49.386 3.2944 49.442 3.1932 C 49.497 3.0917 49.581 3.0411 49.692 3.0414 C 49.796 3.0411 49.875 3.0917 49.929 3.1932 C 49.983 3.2944 50.01 3.4125 50.01 3.5468 L 50.01 4.2388 L 50.374 4.2388 L 50.374 3.5468 Z M 48.534 5.0926 C 48.309 5.0825 48.07 5.0512 47.819 4.9991 C 47.569 4.9466 47.335 4.8552 47.12 4.7246 C 46.934 4.6129 46.787 4.4633 46.678 4.2753 C 46.568 4.0869 46.513 3.8916 46.513 3.6892 C 46.513 3.5744 46.535 3.4696 46.579 3.3748 C 46.623 3.2797 46.684 3.1963 46.763 3.1245 C 46.842 3.0524 46.934 2.996 47.039 2.9552 C 47.143 2.9141 47.255 2.8939 47.372 2.8942 C 47.537 2.8939 47.689 2.9233 47.827 2.9822 C 47.965 3.0411 48.087 3.1245 48.193 3.2325 C 48.299 3.3404 48.383 3.4662 48.444 3.6103 C 48.504 3.7542 48.534 3.9063 48.534 4.067 Z " fill-rule="evenodd"/>
<path transform="matrix(1.9975652,0,-.00000047092653,-1.9960065,83.55846,187.87409)" d="M 53.027 2.6783 C 52.609 2.701 52.207 2.7126 51.819 2.7126 C 51.439 2.7126 51.039 2.701 50.621 2.6783 L 50.621 3.0905 C 50.773 3.0902 50.912 3.0926 51.039 3.0975 C 51.165 3.1024 51.26 3.1196 51.324 3.1494 C 51.365 3.1687 51.391 3.2021 51.405 3.2496 C 51.418 3.2969 51.425 3.3487 51.425 3.4045 L 51.425 8.7338 C 51.425 8.8184 51.421 8.9009 51.412 8.9813 C 51.404 9.0613 51.371 9.1227 51.314 9.1656 C 51.257 9.2046 51.164 9.2273 51.036 9.234 C 50.908 9.2405 50.77 9.2438 50.621 9.2441 L 50.621 9.6416 L 52.218 9.7594 L 52.218 3.4045 C 52.218 3.3518 52.226 3.3012 52.241 3.2521 C 52.257 3.203 52.284 3.1687 52.325 3.1494 C 52.389 3.1196 52.484 3.1024 52.61 3.0975 C 52.737 3.0926 52.875 3.0902 53.027 3.0905 L 53.027 2.6783 Z " fill-rule="evenodd"/>
<path transform="matrix(1.9975652,0,-.00000047092653,-1.9960065,83.55846,187.87409)" d="M 38.966 .89419 C 35.69 3.0533 35.69 8.3311 38.966 10.49 L 39.481 10.49 C 36.526 8.3311 36.526 3.0533 39.481 .89419 " fill-rule="evenodd"/>
<path transform="matrix(1.9975652,0,-.00000047092653,-1.9960065,83.55846,187.87409)" d="M 54.1 10.49 C 57.376 8.3311 57.376 3.0533 54.1 .89419 L 53.585 .89419 C 56.54 3.0533 56.54 8.3311 53.585 10.49 " fill-rule="evenodd"/>
</g>
<clipPath id="cp22">
<path transform="matrix(1.9975373,0,-.0000013518993,-1.9959688,166.34087,745.177)" d="M 0 0 L 46.506 0 L 46.506 8.0163 L 0 8.0163 Z " fill-rule="evenodd"/>
</clipPath>
<g clip-path="url(#cp22)">
<path transform="matrix(1.9975373,0,-.0000013518993,-1.9959688,166.34087,745.177)" d="M 4.1553 4.0608 C 4.1553 3.8145 4.1069 3.5777 4.0098 3.35 C 3.9126 3.1223 3.7752 2.9221 3.5971 2.7496 C 3.4248 2.574 3.2219 2.4393 2.9888 2.345 C 2.7557 2.2508 2.5123 2.204 2.2586 2.204 C 2.0189 2.204 1.8067 2.2594 1.6219 2.3706 C 1.4374 2.4817 1.2951 2.6108 1.1952 2.7575 L .91626 2.2942 L .64538 2.2942 L .64538 7.1347 C .64538 7.2025 .64219 7.2685 .63532 7.3327 C .62869 7.3968 .60097 7.4459 .55239 7.4802 C .50675 7.5114 .43314 7.5295 .33205 7.5349 C .23096 7.5401 .11981 7.5428 -.0016389 7.543 L -.0016389 7.861 L 1.272 7.9552 L 1.272 5.4663 C 1.3611 5.5733 1.5039 5.6766 1.7007 5.7762 C 1.8975 5.8755 2.1146 5.9253 2.3519 5.9256 C 2.5999 5.9253 2.8345 5.8775 3.0553 5.7821 C 3.2764 5.6864 3.4678 5.5512 3.6295 5.376 C 3.8047 5.1979 3.9362 4.9954 4.0238 4.7692 C 4.1116 4.5427 4.1553 4.3067 4.1553 4.0608 Z M 3.3868 4.0608 C 3.3868 4.2726 3.3701 4.4772 3.3363 4.675 C 3.3026 4.8725 3.2332 5.0511 3.1282 5.2111 C 3.031 5.347 2.9137 5.4562 2.7763 5.5387 C 2.6389 5.6211 2.492 5.6623 2.3357 5.6626 C 2.1065 5.6623 1.8997 5.6039 1.7149 5.4876 C 1.5304 5.3711 1.3908 5.2199 1.2963 5.0344 L 1.2963 3.1226 C 1.3854 2.9288 1.5108 2.7702 1.6725 2.6473 C 1.8344 2.5242 2.0216 2.4628 2.2346 2.4631 C 2.4044 2.4628 2.5648 2.504 2.7157 2.5865 C 2.8669 2.6689 2.9935 2.7769 3.0958 2.9106 C 3.22 3.0701 3.2995 3.2485 3.3343 3.4462 C 3.3694 3.6437 3.3868 3.8486 3.3868 4.0608 Z " fill-rule="evenodd"/>
<path transform="matrix(1.9975373,0,-.0000013518993,-1.9959688,166.34087,745.177)" d="M 8.5657 5.5095 C 8.4661 5.5092 8.3778 5.4994 8.301 5.4798 C 8.2242 5.4601 8.1562 5.4295 8.0968 5.3878 C 8.0266 5.3431 7.9695 5.2886 7.9251 5.2246 C 7.8807 5.1603 7.8421 5.0919 7.8097 5.0187 L 6.3705 1.6269 C 6.3221 1.5037 6.2608 1.3835 6.1867 1.2657 C 6.1126 1.1479 6.0299 1.0419 5.9381 .94771 C 5.8464 .85349 5.744 .77816 5.6307 .72197 C 5.5176 .66554 5.3922 .63757 5.2548 .63757 C 5.1498 .63757 5.0487 .6545 4.9515 .6886 C 4.8546 .72246 4.7697 .77104 4.6968 .83386 C 4.6242 .89667 4.5656 .97052 4.5209 1.0557 C 4.4765 1.1406 4.4542 1.2343 4.4542 1.3364 C 4.4542 1.462 4.4942 1.5562 4.5737 1.619 C 4.6532 1.6818 4.7427 1.7132 4.8423 1.7132 C 4.9422 1.7132 5.0318 1.6818 5.1113 1.619 C 5.1908 1.5562 5.2305 1.462 5.2305 1.3364 C 5.2305 1.2159 5.1922 1.1256 5.1154 1.0655 C 5.0386 1.0051 4.9839 .97371 4.9515 .97126 C 4.9545 .97126 4.9881 .95948 5.0526 .93593 C 5.1174 .91237 5.1846 .9006 5.2548 .9006 C 5.352 .9006 5.4415 .92219 5.5237 .96537 C 5.6059 1.0086 5.6812 1.0647 5.7499 1.1342 C 5.8186 1.2034 5.8787 1.2838 5.9298 1.3756 C 5.9811 1.4671 6.0282 1.5614 6.0714 1.6583 L 6.3543 2.3335 L 5.1294 5.2425 C 5.1078 5.2867 5.083 5.3306 5.0546 5.3738 C 5.0264 5.417 4.992 5.4476 4.9515 5.4663 C 4.9005 5.4896 4.8323 5.5026 4.7474 5.5053 C 4.6625 5.5077 4.5648 5.5092 4.4542 5.5095 L 4.4542 5.8432 C 4.7346 5.8194 5.0016 5.8063 5.2548 5.8039 C 5.2845 5.8037 5.3169 5.8076 5.3517 5.8157 C 5.6349 5.8154 5.934 5.8245 6.2492 5.8432 L 6.2492 5.5095 C 6.1496 5.5092 6.0679 5.5065 6.0046 5.5014 C 5.9413 5.496 5.8854 5.4778 5.8368 5.4467 C 5.8073 5.4255 5.7897 5.402 5.7843 5.376 L 5.7843 5.3485 C 5.7843 5.3274 5.7885 5.3012 5.7966 5.27 L 6.698 3.1422 L 7.5146 5.0501 C 7.5389 5.097 7.5509 5.148 7.5509 5.2033 L 7.5509 5.219 C 7.5457 5.2737 7.5256 5.3247 7.4903 5.3721 C 7.4608 5.4189 7.4191 5.4535 7.3651 5.4758 C 7.3112 5.4979 7.2412 5.5092 7.1549 5.5095 L 7.1549 5.8432 C 7.4083 5.8245 7.6456 5.8154 7.8664 5.8157 C 7.8907 5.8103 7.915 5.8063 7.939 5.8039 C 8.1304 5.8037 8.3395 5.8167 8.5657 5.8432 L 8.5657 5.5095 Z " fill-rule="evenodd"/>
<path transform="matrix(1.9975373,0,-.0000013518993,-1.9959688,166.34087,745.177)" d="M 16.677 5.9374 C 16.664 6.0733 16.651 6.2041 16.639 6.3297 C 16.627 6.4553 16.608 6.5743 16.584 6.687 C 16.56 6.7993 16.53 6.9041 16.495 7.001 C 16.46 7.0977 16.416 7.1725 16.362 7.225 C 16.241 7.3426 16.094 7.4171 15.923 7.4486 C 15.752 7.48 15.579 7.4957 15.404 7.4959 L 15.032 7.4959 C 14.97 7.4957 14.907 7.4942 14.842 7.4917 C 14.777 7.489 14.73 7.4773 14.7 7.4566 C 14.676 7.438 14.661 7.4086 14.656 7.3681 C 14.65 7.3273 14.648 7.2864 14.648 7.2447 L 14.648 2.8713 C 14.648 2.8188 14.662 2.7742 14.692 2.7376 C 14.722 2.7008 14.764 2.6787 14.817 2.6711 C 14.866 2.6603 14.929 2.6512 15.007 2.6434 C 15.086 2.6355 15.17 2.6297 15.26 2.6257 C 15.35 2.6218 15.443 2.6198 15.537 2.6201 L 15.848 2.6201 L 15.848 2.2942 C 15.296 2.31 14.758 2.3178 14.235 2.3178 C 13.71 2.3178 13.172 2.31 12.622 2.2942 L 12.622 2.6201 L 12.93 2.6201 C 13.029 2.6198 13.124 2.6218 13.213 2.6257 C 13.301 2.6297 13.386 2.6355 13.465 2.6434 C 13.545 2.6512 13.609 2.6603 13.657 2.6711 C 13.711 2.6787 13.754 2.7023 13.785 2.7415 C 13.816 2.7808 13.831 2.824 13.831 2.8713 L 13.831 7.2447 C 13.831 7.2837 13.829 7.3234 13.825 7.3641 C 13.821 7.4046 13.804 7.4355 13.775 7.4566 C 13.748 7.4773 13.7 7.489 13.633 7.4917 C 13.566 7.4942 13.502 7.4957 13.443 7.4959 L 13.071 7.4959 C 12.896 7.4957 12.724 7.48 12.556 7.4486 C 12.387 7.4171 12.242 7.3426 12.121 7.225 C 12.065 7.1671 12.018 7.0913 11.982 6.9971 C 11.945 6.9029 11.916 6.7993 11.893 6.687 C 11.87 6.5743 11.852 6.4553 11.838 6.3297 C 11.825 6.2041 11.811 6.0733 11.797 5.9374 L 11.511 5.9374 L 11.684 7.8257 L 16.798 7.8257 L 16.964 5.9374 Z " fill-rule="evenodd"/>
<path transform="matrix(1.9975373,0,-.0000013518993,-1.9959688,166.34087,745.177)" d="M 22.588 5.9374 C 22.575 6.0733 22.562 6.2041 22.55 6.3297 C 22.538 6.4553 22.519 6.5743 22.495 6.687 C 22.471 6.7993 22.441 6.9041 22.406 7.001 C 22.371 7.0977 22.327 7.1725 22.273 7.225 C 22.152 7.3426 22.005 7.4171 21.834 7.4486 C 21.663 7.48 21.49 7.4957 21.315 7.4959 L 20.943 7.4959 C 20.881 7.4957 20.818 7.4942 20.753 7.4917 C 20.688 7.489 20.641 7.4773 20.611 7.4566 C 20.587 7.438 20.572 7.4086 20.567 7.3681 C 20.561 7.3273 20.558 7.2864 20.558 7.2447 L 20.558 2.8713 C 20.558 2.8188 20.573 2.7742 20.603 2.7376 C 20.633 2.7008 20.675 2.6787 20.728 2.6711 C 20.777 2.6603 20.84 2.6512 20.918 2.6434 C 20.997 2.6355 21.081 2.6297 21.171 2.6257 C 21.261 2.6218 21.354 2.6198 21.448 2.6201 L 21.759 2.6201 L 21.759 2.2942 C 21.207 2.31 20.669 2.3178 20.146 2.3178 C 19.621 2.3178 19.083 2.31 18.533 2.2942 L 18.533 2.6201 L 18.84 2.6201 C 18.94 2.6198 19.035 2.6218 19.124 2.6257 C 19.212 2.6297 19.297 2.6355 19.376 2.6434 C 19.456 2.6512 19.52 2.6603 19.568 2.6711 C 19.622 2.6787 19.665 2.7023 19.696 2.7415 C 19.726 2.7808 19.742 2.824 19.742 2.8713 L 19.742 7.2447 C 19.742 7.2837 19.74 7.3234 19.736 7.3641 C 19.732 7.4046 19.715 7.4355 19.685 7.4566 C 19.659 7.4773 19.611 7.489 19.544 7.4917 C 19.477 7.4942 19.413 7.4957 19.354 7.4959 L 18.982 7.4959 C 18.807 7.4957 18.635 7.48 18.467 7.4486 C 18.298 7.4171 18.153 7.3426 18.032 7.225 C 17.976 7.1671 17.929 7.0913 17.893 6.9971 C 17.856 6.9029 17.827 6.7993 17.804 6.687 C 17.781 6.5743 17.763 6.4553 17.749 6.3297 C 17.736 6.2041 17.722 6.0733 17.708 5.9374 L 17.422 5.9374 L 17.595 7.8257 L 22.709 7.8257 L 22.875 5.9374 Z " fill-rule="evenodd"/>
<path transform="matrix(1.9975373,0,-.0000013518993,-1.9959688,166.34087,745.177)" d="M 27.521 2.2942 L 23.551 2.2942 C 23.462 2.2942 23.417 2.3372 23.417 2.4238 L 23.417 2.5102 C 23.417 2.5362 23.422 2.5583 23.429 2.5769 L 26.664 7.543 L 25.519 7.543 C 25.291 7.5428 25.063 7.5236 24.836 7.4858 C 24.61 7.4478 24.412 7.3531 24.242 7.2015 C 24.083 7.052 23.975 6.872 23.917 6.6614 C 23.859 6.4507 23.824 6.2225 23.813 5.9766 L 23.522 5.9766 L 23.627 7.8649 L 27.484 7.8649 C 27.579 7.8647 27.625 7.8215 27.622 7.7354 L 27.622 7.6647 C 27.622 7.6488 27.615 7.6264 27.602 7.598 L 24.376 2.6397 L 25.568 2.6397 C 25.819 2.6395 26.068 2.6596 26.314 2.7003 C 26.561 2.7408 26.77 2.8448 26.943 3.0127 C 27.034 3.0961 27.106 3.195 27.157 3.3088 C 27.208 3.4227 27.249 3.5444 27.28 3.6739 C 27.311 3.8035 27.332 3.9374 27.343 4.0763 C 27.353 4.2149 27.366 4.3629 27.379 4.5202 L 27.666 4.5202 Z " fill-rule="evenodd"/>
<path transform="matrix(1.9975373,0,-.0000013518993,-1.9959688,166.34087,745.177)" d="M 34.03 7.543 C 33.901 7.5428 33.786 7.5334 33.685 7.5153 C 33.583 7.4969 33.486 7.4655 33.391 7.4213 C 33.219 7.332 33.083 7.2079 32.983 7.0484 L 31.39 4.5162 L 31.39 2.8713 C 31.39 2.824 31.399 2.7813 31.417 2.7435 C 31.434 2.7055 31.463 2.68 31.504 2.6672 C 31.574 2.6434 31.677 2.6297 31.815 2.6257 C 31.952 2.6218 32.095 2.6198 32.243 2.6201 L 32.243 2.2942 C 31.812 2.31 31.396 2.3178 30.994 2.3178 C 30.59 2.3178 30.173 2.31 29.745 2.2942 L 29.745 2.6201 C 29.893 2.6198 30.036 2.6218 30.173 2.6257 C 30.311 2.6297 30.415 2.6434 30.485 2.6672 C 30.523 2.68 30.551 2.7055 30.57 2.7435 C 30.589 2.7813 30.598 2.824 30.598 2.8713 L 30.598 4.5162 L 28.864 7.2761 C 28.834 7.3256 28.799 7.37 28.758 7.4093 C 28.718 7.4486 28.67 7.4787 28.613 7.4998 C 28.538 7.5231 28.442 7.5361 28.326 7.5388 C 28.21 7.5413 28.088 7.5428 27.958 7.543 L 27.958 7.8689 C 28.311 7.8502 28.649 7.8411 28.973 7.8414 C 29.027 7.8411 29.082 7.8438 29.138 7.8492 C 29.519 7.849 29.913 7.8541 30.323 7.8649 L 30.323 7.543 C 30.213 7.5428 30.114 7.5401 30.028 7.5349 C 29.942 7.5295 29.865 7.5101 29.798 7.4763 C 29.771 7.463 29.756 7.438 29.753 7.4017 C 29.745 7.3909 29.741 7.383 29.741 7.3781 C 29.741 7.3595 29.75 7.3399 29.769 7.3192 L 31.269 4.9402 L 32.615 7.0876 C 32.65 7.1423 32.67 7.1973 32.676 7.2525 L 32.676 7.28 C 32.676 7.3242 32.66 7.3661 32.627 7.4056 C 32.59 7.4576 32.535 7.4937 32.464 7.5133 C 32.392 7.533 32.305 7.5428 32.203 7.543 L 32.203 7.8649 C 32.524 7.8541 32.831 7.849 33.125 7.8492 C 33.162 7.8438 33.2 7.8411 33.238 7.8414 C 33.491 7.8411 33.755 7.8502 34.03 7.8689 L 34.03 7.543 Z " fill-rule="evenodd"/>
<path transform="matrix(1.9975373,0,-.0000013518993,-1.9959688,166.34087,745.177)" d="M 39.473 5.9374 C 39.46 6.0733 39.447 6.2041 39.435 6.3297 C 39.423 6.4553 39.404 6.5743 39.38 6.687 C 39.356 6.7993 39.326 6.9041 39.291 7.001 C 39.256 7.0977 39.212 7.1725 39.158 7.225 C 39.037 7.3426 38.89 7.4171 38.719 7.4486 C 38.548 7.48 38.375 7.4957 38.2 7.4959 L 37.828 7.4959 C 37.766 7.4957 37.703 7.4942 37.638 7.4917 C 37.573 7.489 37.526 7.4773 37.496 7.4566 C 37.472 7.438 37.457 7.4086 37.452 7.3681 C 37.446 7.3273 37.443 7.2864 37.443 7.2447 L 37.443 2.8713 C 37.443 2.8188 37.458 2.7742 37.488 2.7376 C 37.518 2.7008 37.559 2.6787 37.613 2.6711 C 37.662 2.6603 37.725 2.6512 37.803 2.6434 C 37.882 2.6355 37.966 2.6297 38.056 2.6257 C 38.146 2.6218 38.239 2.6198 38.333 2.6201 L 38.644 2.6201 L 38.644 2.2942 C 38.092 2.31 37.554 2.3178 37.031 2.3178 C 36.506 2.3178 35.968 2.31 35.418 2.2942 L 35.418 2.6201 L 35.725 2.6201 C 35.825 2.6198 35.92 2.6218 36.009 2.6257 C 36.097 2.6297 36.182 2.6355 36.261 2.6434 C 36.341 2.6512 36.405 2.6603 36.453 2.6711 C 36.507 2.6787 36.55 2.7023 36.58 2.7415 C 36.611 2.7808 36.627 2.824 36.627 2.8713 L 36.627 7.2447 C 36.627 7.2837 36.625 7.3234 36.621 7.3641 C 36.617 7.4046 36.6 7.4355 36.57 7.4566 C 36.543 7.4773 36.496 7.489 36.429 7.4917 C 36.362 7.4942 36.298 7.4957 36.239 7.4959 L 35.867 7.4959 C 35.692 7.4957 35.52 7.48 35.351 7.4486 C 35.183 7.4171 35.038 7.3426 34.917 7.225 C 34.861 7.1671 34.814 7.0913 34.778 6.9971 C 34.741 6.9029 34.712 6.7993 34.689 6.687 C 34.666 6.5743 34.648 6.4553 34.634 6.3297 C 34.621 6.2041 34.607 6.0733 34.593 5.9374 L 34.306 5.9374 L 34.48 7.8257 L 39.594 7.8257 L 39.76 5.9374 Z " fill-rule="evenodd"/>
<path transform="matrix(1.9975373,0,-.0000013518993,-1.9959688,166.34087,745.177)" d="M 45.386 5.9374 C 45.372 6.0733 45.36 6.2041 45.347 6.3297 C 45.335 6.4553 45.317 6.5743 45.293 6.687 C 45.268 6.7993 45.239 6.9041 45.204 7.001 C 45.169 7.0977 45.124 7.1725 45.07 7.225 C 44.949 7.3426 44.803 7.4171 44.632 7.4486 C 44.461 7.48 44.288 7.4957 44.112 7.4959 L 43.74 7.4959 C 43.679 7.4957 43.615 7.4942 43.55 7.4917 C 43.486 7.489 43.439 7.4773 43.409 7.4566 C 43.385 7.438 43.37 7.4086 43.364 7.3681 C 43.359 7.3273 43.356 7.2864 43.356 7.2447 L 43.356 2.8713 C 43.356 2.8188 43.371 2.7742 43.401 2.7376 C 43.43 2.7008 43.472 2.6787 43.526 2.6711 C 43.575 2.6603 43.638 2.6512 43.716 2.6434 C 43.794 2.6355 43.879 2.6297 43.969 2.6257 C 44.059 2.6218 44.151 2.6198 44.246 2.6201 L 44.557 2.6201 L 44.557 2.2942 C 44.004 2.31 43.467 2.3178 42.944 2.3178 C 42.418 2.3178 41.881 2.31 41.331 2.2942 L 41.331 2.6201 L 41.638 2.6201 C 41.738 2.6198 41.832 2.6218 41.921 2.6257 C 42.01 2.6297 42.094 2.6355 42.174 2.6434 C 42.253 2.6512 42.317 2.6603 42.366 2.6711 C 42.42 2.6787 42.462 2.7023 42.493 2.7415 C 42.524 2.7808 42.54 2.824 42.54 2.8713 L 42.54 7.2447 C 42.54 7.2837 42.538 7.3234 42.534 7.3641 C 42.53 7.4046 42.513 7.4355 42.483 7.4566 C 42.456 7.4773 42.409 7.489 42.342 7.4917 C 42.274 7.4942 42.211 7.4957 42.151 7.4959 L 41.78 7.4959 C 41.604 7.4957 41.433 7.48 41.264 7.4486 C 41.096 7.4171 40.951 7.3426 40.83 7.225 C 40.773 7.1671 40.727 7.0913 40.69 6.9971 C 40.654 6.9029 40.624 6.7993 40.601 6.687 C 40.578 6.5743 40.56 6.4553 40.547 6.3297 C 40.533 6.2041 40.52 6.0733 40.506 5.9374 L 40.219 5.9374 L 40.393 7.8257 L 45.507 7.8257 L 45.673 5.9374 Z " fill-rule="evenodd"/>
</g>
</g>
</g>
</g>
</g>
</g>
</svg>
