<?xml version="1.0" encoding="UTF-8" standalone="no"?>
<!DOCTYPE svg PUBLIC "-//W3C//DTD SVG 1.1//EN" "http://www.w3.org/Graphics/SVG/1.1/DTD/svg11.dtd">
<svg xmlns="http://www.w3.org/2000/svg" xmlns:xlink="http://www.w3.org/1999/xlink" version="1.1" width="558.96pt" height="731.04pt" viewBox="0 0 558.96 731.04">
<g enable-background="new">
<g>
<g id="Layer-1" data-name="Span">
<clipPath id="cp0">
<path transform="matrix(1,0,0,-1,0,731.04)" d="M .000008329 0 L 558.96 0 L 558.96 731.04 L .000008329 731.04 Z " fill-rule="evenodd"/>
</clipPath>
<g clip-path="url(#cp0)">
<text xml:space="preserve" transform="matrix(1 0 -0 1 0 731.04)" font-size="10.56" font-family="DengXian"><tspan y=".84003" x="558.48"> </tspan></text>
</g>
</g>
<g id="Layer-1" data-name="P">
<clipPath id="cp1">
<path transform="matrix(1,0,0,-1,0,731.04)" d="M .000008329 .00030518 L 558.4 .00030518 L 558.4 729.5703 L .000008329 729.5703 Z " fill-rule="evenodd"/>
</clipPath>
<g clip-path="url(#cp1)">
<clipPath id="cp2">
<path transform="matrix(.079789619,0,0,-.0798429,0,731.6869)" d="M 0 0 L 6998.65 0 L 6998.65 9145.8 L 0 9145.8 Z " fill-rule="evenodd"/>
</clipPath>
<g clip-path="url(#cp2)">
<path transform="matrix(.079789619,0,0,-.0798429,0,731.6869)" stroke-width="45" stroke-linecap="round" stroke-linejoin="round" fill="none" stroke="#000000" stroke-opacity=".65882" d="M 932.15 8154.17 L 6558.29 305.52 "/>
<path transform="matrix(.079789619,0,0,-.0798429,0,731.6869)" d="M 1450.73 8364.18 C 1450.73 7994.64 1151.16 7695.07 781.62 7695.07 C 412.07 7695.07 112.5 7994.64 112.5 8364.18 C 112.5 8733.73 412.07 9033.3 781.62 9033.3 C 1151.16 9033.3 1450.73 8733.73 1450.73 8364.18 Z " fill="#66a5cc" fill-rule="evenodd"/>
<clipPath id="cp3">
<path transform="matrix(1.595824,.000006036088,-.00000019682995,-1.5968502,53.522874,79.039798)" d="M 0 0 L 11.482 0 L 11.482 22.007 L 0 22.007 Z " fill-rule="evenodd"/>
</clipPath>
<g clip-path="url(#cp3)">
<path transform="matrix(1.595824,.000006036088,-.00000019682995,-1.5968502,53.522874,79.039798)" d="M 10.967 .5671 C 9.1442 .62481 7.3715 .65366 5.6474 .65366 C 3.9243 .65366 2.1515 .62481 .3292 .5671 L .3292 1.8078 L 1.3544 1.8078 C 1.6809 1.8069 1.9883 1.8114 2.2751 1.8214 C 2.5627 1.8304 2.835 1.8547 3.0929 1.8935 C 3.3508 1.9314 3.5735 1.9701 3.7611 2.0098 C 3.9198 2.0378 4.0505 2.1261 4.1542 2.2758 C 4.2588 2.4246 4.3102 2.5905 4.3102 2.7745 L 4.3102 19.034 C 3.8161 18.792 3.2065 18.609 2.4834 18.485 C 1.7602 18.359 .96851 18.297 .10648 18.298 L .10648 19.524 C 1.2949 19.524 2.3923 19.665 3.3977 19.949 C 4.4031 20.232 5.2723 20.764 6.0045 21.544 L 6.4653 21.544 C 6.7917 21.543 6.9549 21.385 6.9549 21.068 L 6.9549 2.7745 C 6.9549 2.5815 7.0045 2.4129 7.1037 2.2686 C 7.2029 2.1243 7.3472 2.0378 7.5347 2.0098 C 7.6934 1.9701 7.8972 1.9314 8.1443 1.8935 C 8.3913 1.8547 8.6709 1.8304 8.9828 1.8214 C 9.2948 1.8114 9.5996 1.8069 9.8972 1.8078 L 10.967 1.8078 L 10.967 .5671 Z " fill-rule="evenodd"/>
</g>
<path transform="matrix(.079789619,0,0,-.0798429,0,731.6869)" d="M 2792.83 6491.91 C 2792.83 6122.36 2493.26 5822.79 2123.72 5822.79 C 1754.17 5822.79 1454.6 6122.36 1454.6 6491.91 C 1454.6 6861.45 1754.17 7161.02 2123.72 7161.02 C 2493.26 7161.02 2792.83 6861.45 2792.83 6491.91 Z " fill="#66a5cc" fill-rule="evenodd"/>
<path transform="matrix(.079789619,0,0,-.0798429,0,731.6869)" d="M 4181.12 4555.19 C 4181.12 4185.65 3881.55 3886.08 3512 3886.08 C 3142.46 3886.08 2842.89 4185.65 2842.89 4555.19 C 2842.89 4924.74 3142.46 5224.31 3512 5224.31 C 3881.55 5224.31 4181.12 4924.74 4181.12 4555.19 Z " fill="#66a5cc" fill-rule="evenodd"/>
<path transform="matrix(.079789619,0,0,-.0798429,0,731.6869)" d="M 5518.05 2690.15 C 5518.05 2320.61 5218.47 2021.04 4848.93 2021.04 C 4479.39 2021.04 4179.81 2320.61 4179.81 2690.15 C 4179.81 3059.7 4479.39 3359.27 4848.93 3359.27 C 5218.47 3359.27 5518.05 3059.7 5518.05 2690.15 Z " fill="#66a5cc" fill-rule="evenodd"/>
<path transform="matrix(.079789619,0,0,-.0798429,0,731.6869)" d="M 6886.14 781.62 C 6886.14 412.07 6586.56 112.5 6217.02 112.5 C 5847.48 112.5 5547.91 412.07 5547.91 781.62 C 5547.91 1151.16 5847.48 1450.73 6217.02 1450.73 C 6586.56 1450.73 6886.14 1151.16 6886.14 781.62 Z " fill="#66a5cc" fill-rule="evenodd"/>
<clipPath id="cp4">
<path transform="matrix(1.5957949,.0000024743272,-.00000078679769,-1.5968502,157.2342,230.12415)" d="M 0 0 L 14.005 0 L 14.005 22.007 L 0 22.007 Z " fill-rule="evenodd"/>
</clipPath>
<g clip-path="url(#cp4)">
<path transform="matrix(1.5957949,.0000024743272,-.00000078679769,-1.5968502,157.2342,230.12415)" d="M 12.227 .5671 L .13375 .5671 L .13375 1.3606 C .13375 1.4174 .16351 1.504 .22302 1.6203 L 5.0814 6.9007 C 5.6567 7.5346 6.2383 8.1838 6.828 8.8474 C 7.4177 9.5111 7.9443 10.189 8.4096 10.882 C 8.8749 11.574 9.2464 12.288 9.5241 13.024 C 9.8018 13.76 9.9398 14.532 9.9398 15.341 C 9.9398 16.022 9.8514 16.66 9.6729 17.251 C 9.4943 17.843 9.2373 18.362 8.9001 18.809 C 8.5629 19.257 8.1418 19.617 7.6368 19.891 C 7.1319 20.166 6.5476 20.303 5.8839 20.304 C 4.8938 20.303 4.0192 20.007 3.2618 19.415 C 2.5043 18.824 2.0012 18.172 1.7532 17.461 C 1.7045 17.442 1.7839 17.432 1.9913 17.433 L 2.2437 17.433 C 2.5413 17.364 2.7983 17.26 3.0165 17.121 C 3.2347 16.982 3.4178 16.79 3.5665 16.544 C 3.7153 16.299 3.7893 16.003 3.7893 15.658 C 3.7893 15.08 3.6017 14.637 3.2248 14.33 C 2.8479 14.021 2.4268 13.868 1.9615 13.869 C 1.5161 13.868 1.1004 14.021 .71355 14.33 C .32762 14.637 .13375 15.08 .13375 15.658 C .13375 16.465 .29245 17.23 .60985 17.951 C .92725 18.672 1.3574 19.297 1.902 19.827 C 2.4466 20.355 3.0904 20.773 3.8334 21.082 C 4.5764 21.389 5.3645 21.543 6.1959 21.544 C 7.2256 21.543 8.1697 21.392 9.0263 21.089 C 9.883 20.786 10.613 20.35 11.217 19.783 C 11.822 19.215 12.295 18.559 12.637 17.814 C 12.979 17.068 13.149 16.244 13.149 15.341 C 13.149 14.34 12.922 13.418 12.465 12.577 C 12.01 11.735 11.446 10.963 10.772 10.261 C 10.098 9.5589 9.3825 8.8979 8.6251 8.2776 C 7.8677 7.6572 7.1815 7.0539 6.5674 6.4678 L 3.1499 3.2506 L 7.6224 3.2506 C 8.2464 3.2497 8.8289 3.2542 9.3681 3.2641 C 9.9082 3.2731 10.366 3.2929 10.742 3.3218 C 11.119 3.3507 11.312 3.3696 11.321 3.3804 C 11.401 3.4471 11.475 3.5815 11.545 3.7835 C 11.614 3.9855 11.678 4.2235 11.738 4.4976 C 11.797 4.7717 11.857 5.0504 11.916 5.3344 C 11.976 5.6175 12.03 5.9286 12.08 6.2659 L 13.179 6.2659 Z " fill-rule="evenodd"/>
</g>
<clipPath id="cp5">
<path transform="matrix(1.595782,.0000023919782,-.0000007524563,-1.5968773,269.20219,384.76469)" d="M 0 0 L 14.487 0 L 14.487 23.012 L 0 23.012 Z " fill-rule="evenodd"/>
</clipPath>
<g clip-path="url(#cp5)">
<path transform="matrix(1.595782,.0000023919782,-.0000007524563,-1.5968773,269.20219,384.76469)" d="M 13.674 7.0108 C 13.674 6.1831 13.491 5.3887 13.125 4.6294 C 12.759 3.8693 12.268 3.2201 11.653 2.6826 C 10.961 2.0758 10.195 1.6268 9.3584 1.3337 C 8.5216 1.0397 7.647 .89367 6.7353 .89367 C 5.9139 .89367 5.1123 1.0091 4.3296 1.2399 C 3.5469 1.4708 2.8418 1.8017 2.2124 2.2345 C 1.583 2.6673 1.0808 3.1984 .70385 3.8287 C .32784 4.4581 .13938 5.1822 .13938 6.0009 C .13938 6.6159 .34497 7.0748 .75615 7.3778 C 1.1673 7.6808 1.6001 7.8323 2.0555 7.8332 C 2.5316 7.8323 2.9743 7.6808 3.3855 7.3778 C 3.7967 7.0748 4.0023 6.6159 4.0023 6.0009 C 4.0023 5.6348 3.931 5.3291 3.7868 5.0839 C 3.6434 4.8386 3.4604 4.6339 3.2367 4.4707 C 3.014 4.3066 2.7588 4.2065 2.4721 4.1687 C 2.3242 4.129 2.1853 4.11 2.0555 4.1109 C 1.9275 4.11 1.9076 4.1001 1.996 4.0821 C 2.3035 3.5429 2.9076 3.0659 3.8093 2.6529 C 4.711 2.239 5.6858 2.0325 6.7353 2.0334 C 7.2313 2.0325 7.6938 2.1551 8.1249 2.4004 C 8.5559 2.6457 8.9157 2.9748 9.2024 3.3896 C 9.5595 3.927 9.802 4.5041 9.9301 5.1199 C 10.059 5.7349 10.123 6.3652 10.123 7.0108 C 10.123 7.6736 10.059 8.3102 9.9301 8.9215 C 9.802 9.532 9.5595 10.097 9.2024 10.618 C 8.9048 11.04 8.5433 11.381 8.1176 11.641 C 7.692 11.901 7.2313 12.031 6.7353 12.032 L 4.5812 12.032 C 4.2944 12.031 4.1411 12.165 4.1213 12.435 L 4.1213 12.594 C 4.1213 12.709 4.1565 12.8 4.225 12.868 C 4.3143 12.954 4.4279 12.997 4.5667 12.998 C 4.8544 13.036 5.151 13.055 5.4576 13.056 C 5.7552 13.055 6.0482 13.074 6.335 13.114 C 6.8697 13.151 7.335 13.316 7.7308 13.61 C 8.1276 13.903 8.4594 14.279 8.7263 14.736 C 8.9941 15.192 9.197 15.719 9.3358 16.315 C 9.4747 16.912 9.5441 17.523 9.5441 18.149 C 9.5441 18.609 9.4945 19.047 9.3954 19.461 C 9.2962 19.874 9.1131 20.235 8.8453 20.544 C 8.2908 21.177 7.5874 21.49 6.7353 21.481 C 5.8246 21.48 4.9905 21.309 4.2331 20.968 C 3.4757 20.627 2.9671 20.259 2.7092 19.865 C 2.6407 19.855 2.675 19.85 2.8138 19.851 C 3.1709 19.85 3.5072 19.745 3.8237 19.534 C 4.2998 19.254 4.537 18.783 4.537 18.12 C 4.537 17.561 4.3566 17.14 3.9951 16.857 C 3.6335 16.572 3.2295 16.431 2.7841 16.432 C 2.3486 16.431 1.9401 16.57 1.5587 16.849 C 1.1772 17.128 .98608 17.552 .98608 18.12 C .98608 18.821 1.1547 19.441 1.491 19.98 C 1.8283 20.518 2.2611 20.98 2.7913 21.365 C 3.3215 21.749 3.9328 22.043 4.6263 22.245 C 5.3197 22.447 6.023 22.548 6.7353 22.549 C 7.4982 22.548 8.2367 22.447 8.9499 22.245 C 9.6632 22.043 10.337 21.73 10.97 21.308 C 11.486 20.942 11.918 20.492 12.27 19.958 C 12.622 19.425 12.797 18.821 12.797 18.149 C 12.797 17.474 12.677 16.839 12.434 16.243 C 12.192 15.646 11.87 15.108 11.468 14.628 C 11.067 14.146 10.589 13.723 10.035 13.358 C 9.4801 12.992 9.0635 12.762 8.7858 12.666 C 9.0239 12.637 9.4305 12.494 10.005 12.24 C 10.579 11.985 11.128 11.646 11.653 11.224 C 12.268 10.693 12.759 10.061 13.125 9.3255 C 13.491 8.5897 13.674 7.8178 13.674 7.0108 Z " fill-rule="evenodd"/>
</g>
<clipPath id="cp6">
<path transform="matrix(1.5958059,0,0,-1.5968502,373.15373,534.0669)" d="M 0 0 L 15.489 0 L 15.489 22.007 L 0 22.007 Z " fill-rule="evenodd"/>
</clipPath>
<g clip-path="url(#cp6)">
<path transform="matrix(1.5958059,0,0,-1.5968502,373.15373,534.0669)" d="M 11.371 5.7032 L 11.371 2.7745 C 11.371 2.6004 11.403 2.439 11.468 2.2902 C 11.533 2.1406 11.64 2.0423 11.788 1.9954 C 12.016 1.889 12.387 1.8304 12.902 1.8214 C 13.417 1.8114 13.936 1.8069 14.461 1.8078 L 14.461 .5671 C 12.946 .62481 11.461 .65366 10.004 .65366 C 8.5685 .65366 7.0581 .62481 5.4729 .5671 L 5.4729 1.8078 C 6.0176 1.8069 6.5433 1.8114 7.0482 1.8214 C 7.5532 1.8304 7.9301 1.889 8.1771 1.9954 C 8.3259 2.0423 8.435 2.1406 8.5045 2.2902 C 8.5739 2.439 8.6082 2.6004 8.6082 2.7745 L 8.6082 5.7032 L .13936 5.7032 L .13936 6.8718 L 10.064 21.631 C 10.193 21.803 10.357 21.89 10.554 21.891 L 10.881 21.891 C 11.208 21.89 11.371 21.726 11.371 21.4 L 11.371 6.9728 L 14.566 6.9728 L 14.566 5.7032 Z M 8.756 17.837 L 1.4468 6.9728 L 8.756 6.9728 Z " fill-rule="evenodd"/>
</g>
<clipPath id="cp7">
<path transform="matrix(1.5957538,0,-.0000015049126,-1.5968773,484.4594,689.05239)" d="M 0 0 L 14.005 0 L 14.005 23.012 L 0 23.012 Z " fill-rule="evenodd"/>
</clipPath>
<g clip-path="url(#cp7)">
<path transform="matrix(1.5957538,0,-.0000015049126,-1.5968773,484.4594,689.05239)" d="M 13.151 7.9486 C 13.151 7.0054 12.974 6.1055 12.616 5.2498 C 12.26 4.3932 11.745 3.624 11.071 2.9423 C 10.387 2.2778 9.6174 1.7701 8.7608 1.4203 C 7.9042 1.0686 6.9962 .89367 6.035 .89367 C 5.2036 .89367 4.4281 1.0497 3.7104 1.3626 C 2.9926 1.6745 2.3686 2.1019 1.8384 2.6457 C 1.3082 3.1885 .89254 3.8188 .58957 4.5356 C .2875 5.2516 .13601 6.0144 .13601 6.8233 C .13601 7.3805 .32177 7.8007 .69327 8.0847 C 1.0648 8.3679 1.4489 8.5104 1.8447 8.5113 C 2.2613 8.5104 2.6527 8.3706 3.0188 8.092 C 3.3858 7.8124 3.5688 7.3895 3.5688 6.8233 C 3.5688 6.4761 3.4922 6.1849 3.3389 5.9495 C 3.1856 5.7133 2.9971 5.5311 2.7735 5.4013 C 2.5508 5.2714 2.301 5.1966 2.0233 5.1786 L 1.8447 5.1786 L 1.5481 5.1786 C 1.7762 4.3697 2.3064 3.643 3.1378 2.9991 C 3.9701 2.3544 4.9358 2.0325 6.035 2.0334 C 6.6093 2.0325 7.1693 2.1813 7.7139 2.4798 C 8.2586 2.7773 8.704 3.1723 9.0502 3.6637 C 9.4569 4.2498 9.7175 4.9153 9.8311 5.661 C 9.9447 6.4058 10.002 7.1686 10.002 7.9486 C 10.002 8.7367 9.9772 9.4932 9.9276 10.22 C 9.878 10.946 9.6751 11.631 9.3181 12.277 C 9.0611 12.747 8.7319 13.139 8.3307 13.452 C 7.9294 13.764 7.4813 13.921 6.9853 13.921 C 6.0449 13.921 5.2279 13.73 4.5345 13.351 C 3.8411 12.97 3.2812 12.425 2.8556 11.714 C 2.7663 11.55 2.6229 11.468 2.4245 11.469 L 2.3055 11.469 C 1.9593 11.468 1.7852 11.627 1.7852 11.945 L 1.7852 22.073 C 1.7852 22.322 1.9295 22.48 2.2162 22.549 C 2.2667 22.548 2.3037 22.543 2.3281 22.534 C 2.3533 22.524 2.3749 22.519 2.3948 22.52 C 3.8312 21.865 5.3118 21.538 6.8366 21.539 C 8.3821 21.538 9.8636 21.865 11.279 22.52 C 11.299 22.519 11.319 22.524 11.339 22.534 C 11.359 22.543 11.388 22.548 11.428 22.549 C 11.754 22.548 11.913 22.399 11.903 22.102 C 11.903 21.928 11.873 21.812 11.814 21.755 C 11.111 20.792 10.217 20.04 9.1323 19.497 C 8.0485 18.953 6.897 18.682 5.6779 18.682 C 4.668 18.682 3.7969 18.797 3.0629 19.029 L 3.0629 13.518 C 3.4101 13.882 3.9331 14.206 4.631 14.49 C 5.3289 14.774 6.1143 14.916 6.9853 14.917 C 7.8375 14.916 8.6427 14.723 9.4001 14.339 C 10.158 13.954 10.824 13.454 11.398 12.839 C 11.993 12.146 12.433 11.379 12.72 10.537 C 13.008 9.6952 13.151 8.8323 13.151 7.9486 Z " fill-rule="evenodd"/>
</g>
<clipPath id="cp8">
<path transform="matrix(1.5957642,0,-.0000043199445,-1.5968939,316.32273,702.7119)" d="M 0 0 L 46.506 0 L 46.506 8.0163 L 0 8.0163 Z " fill-rule="evenodd"/>
</clipPath>
<g clip-path="url(#cp8)">
<path transform="matrix(1.5957642,0,-.0000043199445,-1.5968939,316.32273,702.7119)" d="M 4.1553 4.0608 C 4.1553 3.8145 4.1069 3.5777 4.0098 3.35 C 3.9126 3.1223 3.7752 2.9221 3.5971 2.7496 C 3.4248 2.574 3.2219 2.4393 2.9888 2.345 C 2.7557 2.2508 2.5123 2.204 2.2586 2.204 C 2.0189 2.204 1.8067 2.2594 1.6219 2.3706 C 1.4374 2.4817 1.2951 2.6108 1.1952 2.7575 L .91626 2.2942 L .64538 2.2942 L .64538 7.1347 C .64538 7.2025 .64219 7.2685 .63532 7.3327 C .62869 7.3968 .60097 7.4459 .55239 7.4802 C .50675 7.5114 .43314 7.5295 .33205 7.5349 C .23096 7.5401 .11981 7.5428 -.0016389 7.543 L -.0016389 7.861 L 1.272 7.9552 L 1.272 5.4663 C 1.3611 5.5733 1.5039 5.6766 1.7007 5.7762 C 1.8975 5.8755 2.1146 5.9253 2.3519 5.9256 C 2.5999 5.9253 2.8345 5.8775 3.0553 5.7821 C 3.2764 5.6864 3.4678 5.5512 3.6295 5.376 C 3.8047 5.1979 3.9362 4.9954 4.0238 4.7692 C 4.1116 4.5427 4.1553 4.3067 4.1553 4.0608 Z M 3.3868 4.0608 C 3.3868 4.2726 3.3701 4.4772 3.3363 4.675 C 3.3026 4.8725 3.2332 5.0511 3.1282 5.2111 C 3.031 5.347 2.9137 5.4562 2.7763 5.5387 C 2.6389 5.6211 2.492 5.6623 2.3357 5.6626 C 2.1065 5.6623 1.8997 5.6039 1.7149 5.4876 C 1.5304 5.3711 1.3908 5.2199 1.2963 5.0344 L 1.2963 3.1226 C 1.3854 2.9288 1.5108 2.7702 1.6725 2.6473 C 1.8344 2.5242 2.0216 2.4628 2.2346 2.4631 C 2.4044 2.4628 2.5648 2.504 2.7157 2.5865 C 2.8669 2.6689 2.9935 2.7769 3.0958 2.9106 C 3.22 3.0701 3.2995 3.2485 3.3343 3.4462 C 3.3694 3.6437 3.3868 3.8486 3.3868 4.0608 Z " fill-rule="evenodd"/>
<path transform="matrix(1.5957642,0,-.0000043199445,-1.5968939,316.32273,702.7119)" d="M 8.5667 5.5095 C 8.4671 5.5092 8.3787 5.4994 8.3019 5.4798 C 8.2251 5.4601 8.1569 5.4295 8.0976 5.3878 C 8.0276 5.3431 7.9705 5.2886 7.9258 5.2246 C 7.8814 5.1603 7.8429 5.0919 7.8105 5.0187 L 6.3709 1.6269 C 6.3224 1.5037 6.261 1.3835 6.1869 1.2657 C 6.1128 1.1479 6.0301 1.0419 5.9384 .94771 C 5.8466 .85349 5.7443 .77816 5.6309 .72197 C 5.5178 .66554 5.3924 .63757 5.255 .63757 C 5.15 .63757 5.0489 .6545 4.9518 .6886 C 4.8546 .72246 4.7697 .77104 4.6968 .83386 C 4.6242 .89667 4.5656 .97052 4.5212 1.0557 C 4.4768 1.1406 4.4544 1.2343 4.4544 1.3364 C 4.4544 1.462 4.4942 1.5562 4.5737 1.619 C 4.6532 1.6818 4.743 1.7132 4.8426 1.7132 C 4.9422 1.7132 5.032 1.6818 5.1115 1.619 C 5.191 1.5562 5.2308 1.462 5.2308 1.3364 C 5.2308 1.2159 5.1925 1.1256 5.1154 1.0655 C 5.0386 1.0051 4.9842 .97371 4.9518 .97126 C 4.9545 .97126 4.9881 .95948 5.0529 .93593 C 5.1176 .91237 5.1849 .9006 5.255 .9006 C 5.3522 .9006 5.4418 .92219 5.524 .96537 C 5.6062 1.0086 5.6817 1.0647 5.7504 1.1342 C 5.8191 1.2034 5.8792 1.2838 5.9303 1.3756 C 5.9816 1.4671 6.0287 1.5614 6.0718 1.6583 L 6.3548 2.3335 L 5.1297 5.2425 C 5.1081 5.2867 5.0833 5.3306 5.0548 5.3738 C 5.0266 5.417 4.9923 5.4476 4.9518 5.4663 C 4.9005 5.4896 4.8323 5.5026 4.7474 5.5053 C 4.6625 5.5077 4.5648 5.5092 4.4544 5.5095 L 4.4544 5.8432 C 4.7346 5.8194 5.0016 5.8063 5.255 5.8039 C 5.2847 5.8037 5.3171 5.8076 5.352 5.8157 C 5.6351 5.8154 5.9342 5.8245 6.2497 5.8432 L 6.2497 5.5095 C 6.1501 5.5092 6.0684 5.5065 6.0051 5.5014 C 5.9418 5.496 5.8859 5.4778 5.8373 5.4467 C 5.8076 5.4255 5.7899 5.402 5.7845 5.376 L 5.7845 5.3485 C 5.7845 5.3274 5.7887 5.3012 5.7968 5.27 L 6.6985 3.1422 L 7.5153 5.0501 C 7.5396 5.097 7.5516 5.148 7.5516 5.2033 L 7.5516 5.219 C 7.5462 5.2737 7.5261 5.3247 7.491 5.3721 C 7.4616 5.4189 7.4199 5.4535 7.3659 5.4758 C 7.3119 5.4979 7.2417 5.5092 7.1554 5.5095 L 7.1554 5.8432 C 7.4088 5.8245 7.6461 5.8154 7.8672 5.8157 C 7.8914 5.8103 7.9157 5.8063 7.9398 5.8039 C 8.1312 5.8037 8.3402 5.8167 8.5667 5.8432 L 8.5667 5.5095 Z " fill-rule="evenodd"/>
<path transform="matrix(1.5957642,0,-.0000043199445,-1.5968939,316.32273,702.7119)" d="M 16.678 5.9374 C 16.665 6.0733 16.652 6.2041 16.64 6.3297 C 16.628 6.4553 16.61 6.5743 16.585 6.687 C 16.561 6.7993 16.531 6.9041 16.496 7.001 C 16.461 7.0977 16.417 7.1725 16.363 7.225 C 16.242 7.3426 16.095 7.4171 15.924 7.4486 C 15.753 7.48 15.58 7.4957 15.404 7.4959 L 15.032 7.4959 C 14.971 7.4957 14.907 7.4942 14.843 7.4917 C 14.778 7.489 14.731 7.4773 14.701 7.4566 C 14.677 7.438 14.662 7.4086 14.656 7.3681 C 14.651 7.3273 14.648 7.2864 14.648 7.2447 L 14.648 2.8713 C 14.648 2.8188 14.663 2.7742 14.693 2.7376 C 14.723 2.7008 14.764 2.6787 14.818 2.6711 C 14.867 2.6603 14.93 2.6512 15.008 2.6434 C 15.086 2.6355 15.171 2.6297 15.261 2.6257 C 15.351 2.6218 15.444 2.6198 15.538 2.6201 L 15.849 2.6201 L 15.849 2.2942 C 15.297 2.31 14.759 2.3178 14.236 2.3178 C 13.71 2.3178 13.173 2.31 12.623 2.2942 L 12.623 2.6201 L 12.93 2.6201 C 13.03 2.6198 13.124 2.6218 13.213 2.6257 C 13.302 2.6297 13.386 2.6355 13.466 2.6434 C 13.545 2.6512 13.609 2.6603 13.658 2.6711 C 13.712 2.6787 13.754 2.7023 13.785 2.7415 C 13.816 2.7808 13.831 2.824 13.831 2.8713 L 13.831 7.2447 C 13.831 7.2837 13.829 7.3234 13.826 7.3641 C 13.822 7.4046 13.805 7.4355 13.775 7.4566 C 13.748 7.4773 13.701 7.489 13.633 7.4917 C 13.566 7.4942 13.503 7.4957 13.443 7.4959 L 13.071 7.4959 C 12.896 7.4957 12.724 7.48 12.556 7.4486 C 12.387 7.4171 12.242 7.3426 12.121 7.225 C 12.065 7.1671 12.018 7.0913 11.982 6.9971 C 11.945 6.9029 11.916 6.7993 11.893 6.687 C 11.87 6.5743 11.852 6.4553 11.838 6.3297 C 11.825 6.2041 11.811 6.0733 11.798 5.9374 L 11.511 5.9374 L 11.685 7.8257 L 16.8 7.8257 L 16.965 5.9374 Z " fill-rule="evenodd"/>
<path transform="matrix(1.5957642,0,-.0000043199445,-1.5968939,316.32273,702.7119)" d="M 22.589 5.9374 C 22.576 6.0733 22.563 6.2041 22.551 6.3297 C 22.539 6.4553 22.521 6.5743 22.496 6.687 C 22.472 6.7993 22.442 6.9041 22.407 7.001 C 22.372 7.0977 22.328 7.1725 22.274 7.225 C 22.153 7.3426 22.006 7.4171 21.835 7.4486 C 21.664 7.48 21.491 7.4957 21.315 7.4959 L 20.943 7.4959 C 20.882 7.4957 20.818 7.4942 20.754 7.4917 C 20.689 7.489 20.642 7.4773 20.612 7.4566 C 20.588 7.438 20.573 7.4086 20.567 7.3681 C 20.562 7.3273 20.559 7.2864 20.559 7.2447 L 20.559 2.8713 C 20.559 2.8188 20.574 2.7742 20.604 2.7376 C 20.634 2.7008 20.675 2.6787 20.729 2.6711 C 20.778 2.6603 20.841 2.6512 20.919 2.6434 C 20.997 2.6355 21.082 2.6297 21.172 2.6257 C 21.262 2.6218 21.355 2.6198 21.449 2.6201 L 21.76 2.6201 L 21.76 2.2942 C 21.208 2.31 20.67 2.3178 20.147 2.3178 C 19.621 2.3178 19.084 2.31 18.534 2.2942 L 18.534 2.6201 L 18.841 2.6201 C 18.941 2.6198 19.035 2.6218 19.124 2.6257 C 19.213 2.6297 19.297 2.6355 19.377 2.6434 C 19.456 2.6512 19.52 2.6603 19.569 2.6711 C 19.623 2.6787 19.665 2.7023 19.696 2.7415 C 19.727 2.7808 19.742 2.824 19.742 2.8713 L 19.742 7.2447 C 19.742 7.2837 19.74 7.3234 19.737 7.3641 C 19.733 7.4046 19.716 7.4355 19.686 7.4566 C 19.659 7.4773 19.612 7.489 19.544 7.4917 C 19.477 7.4942 19.414 7.4957 19.354 7.4959 L 18.982 7.4959 C 18.807 7.4957 18.635 7.48 18.467 7.4486 C 18.298 7.4171 18.153 7.3426 18.032 7.225 C 17.976 7.1671 17.929 7.0913 17.893 6.9971 C 17.856 6.9029 17.827 6.7993 17.804 6.687 C 17.781 6.5743 17.763 6.4553 17.749 6.3297 C 17.736 6.2041 17.722 6.0733 17.709 5.9374 L 17.422 5.9374 L 17.596 7.8257 L 22.711 7.8257 L 22.876 5.9374 Z " fill-rule="evenodd"/>
<path transform="matrix(1.5957642,0,-.0000043199445,-1.5968939,316.32273,702.7119)" d="M 27.522 2.2942 L 23.551 2.2942 C 23.462 2.2942 23.417 2.3372 23.417 2.4238 L 23.417 2.5102 C 23.417 2.5362 23.422 2.5583 23.429 2.5769 L 26.664 7.543 L 25.52 7.543 C 25.291 7.5428 25.063 7.5236 24.837 7.4858 C 24.61 7.4478 24.412 7.3531 24.242 7.2015 C 24.083 7.052 23.975 6.872 23.917 6.6614 C 23.859 6.4507 23.824 6.2225 23.814 5.9766 L 23.522 5.9766 L 23.628 7.8649 L 27.485 7.8649 C 27.58 7.8647 27.626 7.8215 27.623 7.7354 L 27.623 7.6647 C 27.623 7.6488 27.616 7.6264 27.603 7.598 L 24.376 2.6397 L 25.568 2.6397 C 25.819 2.6395 26.068 2.6596 26.315 2.7003 C 26.561 2.7408 26.771 2.8448 26.943 3.0127 C 27.035 3.0961 27.107 3.195 27.158 3.3088 C 27.209 3.4227 27.25 3.5444 27.281 3.6739 C 27.312 3.8035 27.333 3.9374 27.344 4.0763 C 27.354 4.2149 27.367 4.3629 27.38 4.5202 L 27.667 4.5202 Z " fill-rule="evenodd"/>
<path transform="matrix(1.5957642,0,-.0000043199445,-1.5968939,316.32273,702.7119)" d="M 34.031 7.543 C 33.902 7.5428 33.787 7.5334 33.686 7.5153 C 33.585 7.4969 33.487 7.4655 33.393 7.4213 C 33.22 7.332 33.084 7.2079 32.984 7.0484 L 31.391 4.5162 L 31.391 2.8713 C 31.391 2.824 31.4 2.7813 31.417 2.7435 C 31.435 2.7055 31.464 2.68 31.504 2.6672 C 31.574 2.6434 31.678 2.6297 31.816 2.6257 C 31.953 2.6218 32.096 2.6198 32.244 2.6201 L 32.244 2.2942 C 31.813 2.31 31.397 2.3178 30.995 2.3178 C 30.59 2.3178 30.174 2.31 29.745 2.2942 L 29.745 2.6201 C 29.893 2.6198 30.036 2.6218 30.174 2.6257 C 30.311 2.6297 30.415 2.6434 30.485 2.6672 C 30.523 2.68 30.552 2.7055 30.57 2.7435 C 30.589 2.7813 30.598 2.824 30.598 2.8713 L 30.598 4.5162 L 28.864 7.2761 C 28.834 7.3256 28.799 7.37 28.759 7.4093 C 28.718 7.4486 28.67 7.4787 28.613 7.4998 C 28.538 7.5231 28.442 7.5361 28.326 7.5388 C 28.21 7.5413 28.088 7.5428 27.958 7.543 L 27.958 7.8689 C 28.311 7.8502 28.649 7.8411 28.973 7.8414 C 29.027 7.8411 29.082 7.8438 29.139 7.8492 C 29.519 7.849 29.914 7.8541 30.324 7.8649 L 30.324 7.543 C 30.213 7.5428 30.115 7.5401 30.028 7.5349 C 29.942 7.5295 29.865 7.5101 29.798 7.4763 C 29.771 7.463 29.756 7.438 29.753 7.4017 C 29.745 7.3909 29.741 7.383 29.741 7.3781 C 29.741 7.3595 29.751 7.3399 29.77 7.3192 L 31.27 4.9402 L 32.616 7.0876 C 32.651 7.1423 32.671 7.1973 32.677 7.2525 L 32.677 7.28 C 32.677 7.3242 32.661 7.3661 32.628 7.4056 C 32.59 7.4576 32.536 7.4937 32.465 7.5133 C 32.393 7.533 32.306 7.5428 32.204 7.543 L 32.204 7.8649 C 32.525 7.8541 32.832 7.849 33.126 7.8492 C 33.163 7.8438 33.201 7.8411 33.239 7.8414 C 33.492 7.8411 33.757 7.8502 34.031 7.8689 L 34.031 7.543 Z " fill-rule="evenodd"/>
<path transform="matrix(1.5957642,0,-.0000043199445,-1.5968939,316.32273,702.7119)" d="M 39.474 5.9374 C 39.461 6.0733 39.448 6.2041 39.436 6.3297 C 39.424 6.4553 39.406 6.5743 39.381 6.687 C 39.357 6.7993 39.327 6.9041 39.292 7.001 C 39.257 7.0977 39.213 7.1725 39.159 7.225 C 39.038 7.3426 38.891 7.4171 38.72 7.4486 C 38.549 7.48 38.376 7.4957 38.2 7.4959 L 37.828 7.4959 C 37.767 7.4957 37.703 7.4942 37.638 7.4917 C 37.574 7.489 37.527 7.4773 37.497 7.4566 C 37.473 7.438 37.458 7.4086 37.452 7.3681 C 37.447 7.3273 37.444 7.2864 37.444 7.2447 L 37.444 2.8713 C 37.444 2.8188 37.459 2.7742 37.489 2.7376 C 37.519 2.7008 37.56 2.6787 37.614 2.6711 C 37.663 2.6603 37.726 2.6512 37.804 2.6434 C 37.882 2.6355 37.967 2.6297 38.057 2.6257 C 38.147 2.6218 38.24 2.6198 38.334 2.6201 L 38.645 2.6201 L 38.645 2.2942 C 38.093 2.31 37.555 2.3178 37.032 2.3178 C 36.506 2.3178 35.969 2.31 35.418 2.2942 L 35.418 2.6201 L 35.726 2.6201 C 35.826 2.6198 35.92 2.6218 36.009 2.6257 C 36.098 2.6297 36.182 2.6355 36.262 2.6434 C 36.341 2.6512 36.405 2.6603 36.454 2.6711 C 36.508 2.6787 36.55 2.7023 36.581 2.7415 C 36.612 2.7808 36.627 2.824 36.627 2.8713 L 36.627 7.2447 C 36.627 7.2837 36.625 7.3234 36.621 7.3641 C 36.618 7.4046 36.601 7.4355 36.571 7.4566 C 36.544 7.4773 36.497 7.489 36.429 7.4917 C 36.362 7.4942 36.299 7.4957 36.239 7.4959 L 35.867 7.4959 C 35.692 7.4957 35.52 7.48 35.352 7.4486 C 35.183 7.4171 35.038 7.3426 34.917 7.225 C 34.861 7.1671 34.814 7.0913 34.778 6.9971 C 34.741 6.9029 34.712 6.7993 34.689 6.687 C 34.666 6.5743 34.648 6.4553 34.634 6.3297 C 34.621 6.2041 34.607 6.0733 34.594 5.9374 L 34.306 5.9374 L 34.48 7.8257 L 39.595 7.8257 L 39.761 5.9374 Z " fill-rule="evenodd"/>
<path transform="matrix(1.5957642,0,-.0000043199445,-1.5968939,316.32273,702.7119)" d="M 45.387 5.9374 C 45.373 6.0733 45.361 6.2041 45.348 6.3297 C 45.336 6.4553 45.318 6.5743 45.294 6.687 C 45.27 6.7993 45.24 6.9041 45.205 7.001 C 45.17 7.0977 45.125 7.1725 45.071 7.225 C 44.95 7.3426 44.804 7.4171 44.633 7.4486 C 44.461 7.48 44.288 7.4957 44.113 7.4959 L 43.741 7.4959 C 43.679 7.4957 43.616 7.4942 43.551 7.4917 C 43.486 7.489 43.439 7.4773 43.41 7.4566 C 43.385 7.438 43.37 7.4086 43.365 7.3681 C 43.36 7.3273 43.357 7.2864 43.357 7.2447 L 43.357 2.8713 C 43.357 2.8188 43.372 2.7742 43.402 2.7376 C 43.431 2.7008 43.473 2.6787 43.527 2.6711 C 43.575 2.6603 43.639 2.6512 43.717 2.6434 C 43.795 2.6355 43.879 2.6297 43.97 2.6257 C 44.06 2.6218 44.152 2.6198 44.247 2.6201 L 44.558 2.6201 L 44.558 2.2942 C 44.005 2.31 43.468 2.3178 42.944 2.3178 C 42.419 2.3178 41.881 2.31 41.331 2.2942 L 41.331 2.6201 L 41.638 2.6201 C 41.738 2.6198 41.833 2.6218 41.922 2.6257 C 42.011 2.6297 42.095 2.6355 42.174 2.6434 C 42.254 2.6512 42.318 2.6603 42.366 2.6711 C 42.42 2.6787 42.463 2.7023 42.494 2.7415 C 42.525 2.7808 42.54 2.824 42.54 2.8713 L 42.54 7.2447 C 42.54 7.2837 42.538 7.3234 42.534 7.3641 C 42.53 7.4046 42.513 7.4355 42.484 7.4566 C 42.457 7.4773 42.41 7.489 42.342 7.4917 C 42.275 7.4942 42.211 7.4957 42.152 7.4959 L 41.78 7.4959 C 41.605 7.4957 41.433 7.48 41.264 7.4486 C 41.096 7.4171 40.951 7.3426 40.83 7.225 C 40.773 7.1671 40.727 7.0913 40.69 6.9971 C 40.654 6.9029 40.624 6.7993 40.601 6.687 C 40.578 6.5743 40.56 6.4553 40.547 6.3297 C 40.533 6.2041 40.52 6.0733 40.506 5.9374 L 40.219 5.9374 L 40.393 7.8257 L 45.508 7.8257 L 45.674 5.9374 Z " fill-rule="evenodd"/>
</g>
</g>
</g>
</g>
</g>
</g>
</svg>
