<svg version="1.1" xmlns="http://www.w3.org/2000/svg" viewBox="0 0 829.6261718599358 645.7129128447383" width="829.6261718599358" height="645.7129128447383">
  <!-- svg-source:excalidraw -->
  
  <defs>
    <style class="style-fonts">
      @font-face {
        font-family: "Virgil";
        src: url("https://excalidraw.com/Virgil.woff2");
      }
      @font-face {
        font-family: "Cascadia";
        src: url("https://excalidraw.com/Cascadia.woff2");
      }
      @font-face {
        font-family: "Assistant";
        src: url("https://excalidraw.com/Assistant-Regular.woff2");
      }
    </style>
    
  </defs>
  <rect x="0" y="0" width="829.6261718599358" height="645.7129128447383" fill="#ffffff"></rect><g stroke-linecap="round" transform="translate(91.01316680154969 60.34522431685082) rotate(0 31.599990844726562 31.304657089045293)"><path d="M63.2 31.3 C63.2 33.12, 63.04 34.96, 62.72 36.74 C62.4 38.53, 61.92 40.31, 61.29 42.01 C60.67 43.71, 59.88 45.39, 58.97 46.96 C58.05 48.53, 56.98 50.04, 55.81 51.43 C54.63 52.81, 53.31 54.12, 51.91 55.29 C50.51 56.45, 48.98 57.51, 47.4 58.42 C45.82 59.32, 44.13 60.1, 42.41 60.72 C40.69 61.34, 38.89 61.82, 37.09 62.13 C35.29 62.45, 33.43 62.61, 31.6 62.61 C29.77 62.61, 27.91 62.45, 26.11 62.13 C24.31 61.82, 22.51 61.34, 20.79 60.72 C19.07 60.1, 17.38 59.32, 15.8 58.42 C14.22 57.51, 12.69 56.45, 11.29 55.29 C9.89 54.12, 8.57 52.81, 7.39 51.43 C6.22 50.04, 5.15 48.53, 4.23 46.96 C3.32 45.39, 2.53 43.71, 1.91 42.01 C1.28 40.31, 0.8 38.53, 0.48 36.74 C0.16 34.96, 0 33.12, 0 31.3 C0 29.49, 0.16 27.65, 0.48 25.87 C0.8 24.08, 1.28 22.3, 1.91 20.6 C2.53 18.9, 3.32 17.22, 4.23 15.65 C5.15 14.08, 6.22 12.57, 7.39 11.18 C8.57 9.79, 9.89 8.49, 11.29 7.32 C12.69 6.16, 14.22 5.1, 15.8 4.19 C17.38 3.29, 19.07 2.51, 20.79 1.89 C22.51 1.27, 24.31 0.79, 26.11 0.48 C27.91 0.16, 29.77 0, 31.6 0 C33.43 0, 35.29 0.16, 37.09 0.48 C38.89 0.79, 40.69 1.27, 42.41 1.89 C44.13 2.51, 45.82 3.29, 47.4 4.19 C48.98 5.1, 50.51 6.16, 51.91 7.32 C53.31 8.49, 54.63 9.79, 55.81 11.18 C56.98 12.57, 58.05 14.08, 58.97 15.65 C59.88 17.22, 60.67 18.9, 61.29 20.6 C61.92 22.3, 62.4 24.08, 62.72 25.87 C63.04 27.65, 63.12 30.4, 63.2 31.3 C63.28 32.21, 63.28 30.4, 63.2 31.3" stroke="none" stroke-width="0" fill="#fa5252"></path><path d="M63.2 31.3 C63.2 33.12, 63.04 34.96, 62.72 36.74 C62.4 38.53, 61.92 40.31, 61.29 42.01 C60.67 43.71, 59.88 45.39, 58.97 46.96 C58.05 48.53, 56.98 50.04, 55.81 51.43 C54.63 52.81, 53.31 54.12, 51.91 55.29 C50.51 56.45, 48.98 57.51, 47.4 58.42 C45.82 59.32, 44.13 60.1, 42.41 60.72 C40.69 61.34, 38.89 61.82, 37.09 62.13 C35.29 62.45, 33.43 62.61, 31.6 62.61 C29.77 62.61, 27.91 62.45, 26.11 62.13 C24.31 61.82, 22.51 61.34, 20.79 60.72 C19.07 60.1, 17.38 59.32, 15.8 58.42 C14.22 57.51, 12.69 56.45, 11.29 55.29 C9.89 54.12, 8.57 52.81, 7.39 51.43 C6.22 50.04, 5.15 48.53, 4.23 46.96 C3.32 45.39, 2.53 43.71, 1.91 42.01 C1.28 40.31, 0.8 38.53, 0.48 36.74 C0.16 34.96, 0 33.12, 0 31.3 C0 29.49, 0.16 27.65, 0.48 25.87 C0.8 24.08, 1.28 22.3, 1.91 20.6 C2.53 18.9, 3.32 17.22, 4.23 15.65 C5.15 14.08, 6.22 12.57, 7.39 11.18 C8.57 9.79, 9.89 8.49, 11.29 7.32 C12.69 6.16, 14.22 5.1, 15.8 4.19 C17.38 3.29, 19.07 2.51, 20.79 1.89 C22.51 1.27, 24.31 0.79, 26.11 0.48 C27.91 0.16, 29.77 0, 31.6 0 C33.43 0, 35.29 0.16, 37.09 0.48 C38.89 0.79, 40.69 1.27, 42.41 1.89 C44.13 2.51, 45.82 3.29, 47.4 4.19 C48.98 5.1, 50.51 6.16, 51.91 7.32 C53.31 8.49, 54.63 9.79, 55.81 11.18 C56.98 12.57, 58.05 14.08, 58.97 15.65 C59.88 17.22, 60.67 18.9, 61.29 20.6 C61.92 22.3, 62.4 24.08, 62.72 25.87 C63.04 27.65, 63.12 30.4, 63.2 31.3 C63.28 32.21, 63.28 30.4, 63.2 31.3" stroke="#1e1e1e" stroke-width="2" fill="none"></path></g><g transform="translate(116.3613632720373 78.38914609551267) rotate(0 6.4072265625 13.125)"><text x="6.4072265625" y="0" font-family="Cascadia, Segoe UI Emoji" font-size="21.874999999999996px" fill="#ffffff" text-anchor="middle" style="white-space: pre;" direction="ltr" dominant-baseline="text-before-edge">0</text></g><g stroke-linecap="round" transform="translate(241.8131698533075 62.707864700375865) rotate(0 29.599990844726562 29.32334910431402)"><path d="M59.2 29.32 C59.2 31.02, 59.05 32.74, 58.75 34.42 C58.45 36.09, 58 37.76, 57.41 39.35 C56.83 40.95, 56.09 42.52, 55.23 43.99 C54.38 45.45, 53.38 46.87, 52.27 48.17 C51.17 49.47, 49.94 50.7, 48.63 51.79 C47.31 52.88, 45.88 53.87, 44.4 54.72 C42.92 55.57, 41.33 56.3, 39.72 56.88 C38.11 57.46, 36.43 57.91, 34.74 58.2 C33.05 58.5, 31.31 58.65, 29.6 58.65 C27.89 58.65, 26.15 58.5, 24.46 58.2 C22.77 57.91, 21.09 57.46, 19.48 56.88 C17.87 56.3, 16.28 55.57, 14.8 54.72 C13.32 53.87, 11.89 52.88, 10.57 51.79 C9.26 50.7, 8.03 49.47, 6.93 48.17 C5.82 46.87, 4.82 45.45, 3.97 43.99 C3.11 42.52, 2.37 40.95, 1.79 39.35 C1.2 37.76, 0.75 36.09, 0.45 34.42 C0.15 32.74, 0 31.02, 0 29.32 C0 27.63, 0.15 25.9, 0.45 24.23 C0.75 22.56, 1.2 20.89, 1.79 19.29 C2.37 17.7, 3.11 16.13, 3.97 14.66 C4.82 13.19, 5.82 11.77, 6.93 10.47 C8.03 9.17, 9.26 7.95, 10.57 6.86 C11.89 5.77, 13.32 4.78, 14.8 3.93 C16.28 3.08, 17.87 2.35, 19.48 1.77 C21.09 1.19, 22.77 0.74, 24.46 0.45 C26.15 0.15, 27.89 0, 29.6 0 C31.31 0, 33.05 0.15, 34.74 0.45 C36.43 0.74, 38.11 1.19, 39.72 1.77 C41.33 2.35, 42.92 3.08, 44.4 3.93 C45.88 4.78, 47.31 5.77, 48.63 6.86 C49.94 7.95, 51.17 9.17, 52.27 10.47 C53.38 11.77, 54.38 13.19, 55.23 14.66 C56.09 16.13, 56.83 17.7, 57.41 19.29 C58 20.89, 58.45 22.56, 58.75 24.23 C59.05 25.9, 59.13 28.47, 59.2 29.32 C59.27 30.17, 59.27 28.47, 59.2 29.32" stroke="#1e1e1e" stroke-width="2" fill="none"></path></g><g transform="translate(265.62343144866816 79.79647480592894) rotate(0 5.859375 12)"><text x="5.859375" y="0" font-family="Cascadia, Segoe UI Emoji" font-size="20px" fill="#1e1e1e" text-anchor="middle" style="white-space: pre;" direction="ltr" dominant-baseline="text-before-edge">1</text></g><g stroke-linecap="round"><g transform="translate(156.6823899132928 83.22528905385252) rotate(0 42.78595222436303 -0.19982823457905852)"><path d="M0 0 C14.26 -0.07, 71.31 -0.33, 85.57 -0.4 M0 0 C14.26 -0.07, 71.31 -0.33, 85.57 -0.4" stroke="#1e1e1e" stroke-width="2" fill="none"></path></g><g transform="translate(156.6823899132928 83.22528905385252) rotate(0 42.78595222436303 -0.19982823457905852)"><path d="M62.12 8.26 C68.69 5.83, 75.26 3.41, 85.57 -0.4 M62.12 8.26 C70.76 5.07, 79.41 1.88, 85.57 -0.4" stroke="#1e1e1e" stroke-width="2" fill="none"></path></g><g transform="translate(156.6823899132928 83.22528905385252) rotate(0 42.78595222436303 -0.19982823457905852)"><path d="M62.04 -8.84 C68.63 -6.48, 75.22 -4.11, 85.57 -0.4 M62.04 -8.84 C70.71 -5.73, 79.39 -2.62, 85.57 -0.4" stroke="#1e1e1e" stroke-width="2" fill="none"></path></g></g><mask></mask><g stroke-linecap="round" transform="translate(383.0131210251825 61.031213804689855) rotate(0 29.599990844726562 29.32334910431402)"><path d="M59.2 29.32 C59.2 31.02, 59.05 32.74, 58.75 34.42 C58.45 36.09, 58 37.76, 57.41 39.35 C56.83 40.95, 56.09 42.52, 55.23 43.99 C54.38 45.45, 53.38 46.87, 52.27 48.17 C51.17 49.47, 49.94 50.7, 48.63 51.79 C47.31 52.88, 45.88 53.87, 44.4 54.72 C42.92 55.57, 41.33 56.3, 39.72 56.88 C38.11 57.46, 36.43 57.91, 34.74 58.2 C33.05 58.5, 31.31 58.65, 29.6 58.65 C27.89 58.65, 26.15 58.5, 24.46 58.2 C22.77 57.91, 21.09 57.46, 19.48 56.88 C17.87 56.3, 16.28 55.57, 14.8 54.72 C13.32 53.87, 11.89 52.88, 10.57 51.79 C9.26 50.7, 8.03 49.47, 6.93 48.17 C5.82 46.87, 4.82 45.45, 3.97 43.99 C3.11 42.52, 2.37 40.95, 1.79 39.35 C1.2 37.76, 0.75 36.09, 0.45 34.42 C0.15 32.74, 0 31.02, 0 29.32 C0 27.63, 0.15 25.9, 0.45 24.23 C0.75 22.56, 1.2 20.89, 1.79 19.29 C2.37 17.7, 3.11 16.13, 3.97 14.66 C4.82 13.19, 5.82 11.77, 6.93 10.47 C8.03 9.17, 9.26 7.95, 10.57 6.86 C11.89 5.77, 13.32 4.78, 14.8 3.93 C16.28 3.08, 17.87 2.35, 19.48 1.77 C21.09 1.19, 22.77 0.74, 24.46 0.45 C26.15 0.15, 27.89 0, 29.6 0 C31.31 0, 33.05 0.15, 34.74 0.45 C36.43 0.74, 38.11 1.19, 39.72 1.77 C41.33 2.35, 42.92 3.08, 44.4 3.93 C45.88 4.78, 47.31 5.77, 48.63 6.86 C49.94 7.95, 51.17 9.17, 52.27 10.47 C53.38 11.77, 54.38 13.19, 55.23 14.66 C56.09 16.13, 56.83 17.7, 57.41 19.29 C58 20.89, 58.45 22.56, 58.75 24.23 C59.05 25.9, 59.13 28.47, 59.2 29.32 C59.27 30.17, 59.27 28.47, 59.2 29.32" stroke="#1e1e1e" stroke-width="2" fill="none"></path></g><g transform="translate(406.82338262054316 78.11982391024293) rotate(0 5.859375 12)"><text x="5.859375" y="0" font-family="Cascadia, Segoe UI Emoji" font-size="20px" fill="#1e1e1e" text-anchor="middle" style="white-space: pre;" direction="ltr" dominant-baseline="text-before-edge">2</text></g><g stroke-linecap="round" transform="translate(526.6131576462762 58.63121990820548) rotate(0 29.599990844726562 29.32334910431402)"><path d="M59.2 29.32 C59.2 31.02, 59.05 32.74, 58.75 34.42 C58.45 36.09, 58 37.76, 57.41 39.35 C56.83 40.95, 56.09 42.52, 55.23 43.99 C54.38 45.45, 53.38 46.87, 52.27 48.17 C51.17 49.47, 49.94 50.7, 48.63 51.79 C47.31 52.88, 45.88 53.87, 44.4 54.72 C42.92 55.57, 41.33 56.3, 39.72 56.88 C38.11 57.46, 36.43 57.91, 34.74 58.2 C33.05 58.5, 31.31 58.65, 29.6 58.65 C27.89 58.65, 26.15 58.5, 24.46 58.2 C22.77 57.91, 21.09 57.46, 19.48 56.88 C17.87 56.3, 16.28 55.57, 14.8 54.72 C13.32 53.87, 11.89 52.88, 10.57 51.79 C9.26 50.7, 8.03 49.47, 6.93 48.17 C5.82 46.87, 4.82 45.45, 3.97 43.99 C3.11 42.52, 2.37 40.95, 1.79 39.35 C1.2 37.76, 0.75 36.09, 0.45 34.42 C0.15 32.74, 0 31.02, 0 29.32 C0 27.63, 0.15 25.9, 0.45 24.23 C0.75 22.56, 1.2 20.89, 1.79 19.29 C2.37 17.7, 3.11 16.13, 3.97 14.66 C4.82 13.19, 5.82 11.77, 6.93 10.47 C8.03 9.17, 9.26 7.95, 10.57 6.86 C11.89 5.77, 13.32 4.78, 14.8 3.93 C16.28 3.08, 17.87 2.35, 19.48 1.77 C21.09 1.19, 22.77 0.74, 24.46 0.45 C26.15 0.15, 27.89 0, 29.6 0 C31.31 0, 33.05 0.15, 34.74 0.45 C36.43 0.74, 38.11 1.19, 39.72 1.77 C41.33 2.35, 42.92 3.08, 44.4 3.93 C45.88 4.78, 47.31 5.77, 48.63 6.86 C49.94 7.95, 51.17 9.17, 52.27 10.47 C53.38 11.77, 54.38 13.19, 55.23 14.66 C56.09 16.13, 56.83 17.7, 57.41 19.29 C58 20.89, 58.45 22.56, 58.75 24.23 C59.05 25.9, 59.13 28.47, 59.2 29.32 C59.27 30.17, 59.27 28.47, 59.2 29.32" stroke="#1e1e1e" stroke-width="2" fill="none"></path></g><g transform="translate(550.4234192416369 75.71983001375855) rotate(0 5.859375 12)"><text x="5.859375" y="0" font-family="Cascadia, Segoe UI Emoji" font-size="20px" fill="#1e1e1e" text-anchor="middle" style="white-space: pre;" direction="ltr" dominant-baseline="text-before-edge">3</text></g><g stroke-linecap="round"><g transform="translate(302.0827108082035 82.77829980715728) rotate(0 39.19487133681548 -0.23615306397778113)"><path d="M0 0 C13.06 -0.08, 65.32 -0.39, 78.39 -0.47 M0 0 C13.06 -0.08, 65.32 -0.39, 78.39 -0.47" stroke="#1e1e1e" stroke-width="2" fill="none"></path></g><g transform="translate(302.0827108082035 82.77829980715728) rotate(0 39.19487133681548 -0.23615306397778113)"><path d="M54.95 8.22 C62.4 5.46, 69.85 2.69, 78.39 -0.47 M54.95 8.22 C61.61 5.75, 68.27 3.28, 78.39 -0.47" stroke="#1e1e1e" stroke-width="2" fill="none"></path></g><g transform="translate(302.0827108082035 82.77829980715728) rotate(0 39.19487133681548 -0.23615306397778113)"><path d="M54.85 -8.88 C62.33 -6.21, 69.82 -3.53, 78.39 -0.47 M54.85 -8.88 C61.54 -6.49, 68.22 -4.1, 78.39 -0.47" stroke="#1e1e1e" stroke-width="2" fill="none"></path></g></g><mask></mask><g stroke-linecap="round"><g transform="translate(594.3819439874636 200.59892760406603) rotate(0 33.61304320535845 -0.24351153417393334)"><path d="M0 0 C11.2 -0.08, 56.02 -0.41, 67.23 -0.49 M0 0 C11.2 -0.08, 56.02 -0.41, 67.23 -0.49" stroke="#1e1e1e" stroke-width="2" fill="none"></path></g><g transform="translate(594.3819439874636 200.59892760406603) rotate(0 33.61304320535845 -0.24351153417393334)"><path d="M43.8 8.23 C49.26 6.2, 54.72 4.17, 67.23 -0.49 M43.8 8.23 C49.83 5.99, 55.85 3.75, 67.23 -0.49" stroke="#1e1e1e" stroke-width="2" fill="none"></path></g><g transform="translate(594.3819439874636 200.59892760406603) rotate(0 33.61304320535845 -0.24351153417393334)"><path d="M43.67 -8.87 C49.17 -6.91, 54.66 -4.96, 67.23 -0.49 M43.67 -8.87 C49.73 -6.71, 55.79 -4.55, 67.23 -0.49" stroke="#1e1e1e" stroke-width="2" fill="none"></path></g></g><mask></mask><g stroke-linecap="round" transform="translate(664.2130111619012 59.83123211523673) rotate(0 29.599990844726562 29.32334910431402)"><path d="M59.2 29.32 C59.2 31.02, 59.05 32.74, 58.75 34.42 C58.45 36.09, 58 37.76, 57.41 39.35 C56.83 40.95, 56.09 42.52, 55.23 43.99 C54.38 45.45, 53.38 46.87, 52.27 48.17 C51.17 49.47, 49.94 50.7, 48.63 51.79 C47.31 52.88, 45.88 53.87, 44.4 54.72 C42.92 55.57, 41.33 56.3, 39.72 56.88 C38.11 57.46, 36.43 57.91, 34.74 58.2 C33.05 58.5, 31.31 58.65, 29.6 58.65 C27.89 58.65, 26.15 58.5, 24.46 58.2 C22.77 57.91, 21.09 57.46, 19.48 56.88 C17.87 56.3, 16.28 55.57, 14.8 54.72 C13.32 53.87, 11.89 52.88, 10.57 51.79 C9.26 50.7, 8.03 49.47, 6.93 48.17 C5.82 46.87, 4.82 45.45, 3.97 43.99 C3.11 42.52, 2.37 40.95, 1.79 39.35 C1.2 37.76, 0.75 36.09, 0.45 34.42 C0.15 32.74, 0 31.02, 0 29.32 C0 27.63, 0.15 25.9, 0.45 24.23 C0.75 22.56, 1.2 20.89, 1.79 19.29 C2.37 17.7, 3.11 16.13, 3.97 14.66 C4.82 13.19, 5.82 11.77, 6.93 10.47 C8.03 9.17, 9.26 7.95, 10.57 6.86 C11.89 5.77, 13.32 4.78, 14.8 3.93 C16.28 3.08, 17.87 2.35, 19.48 1.77 C21.09 1.19, 22.77 0.74, 24.46 0.45 C26.15 0.15, 27.89 0, 29.6 0 C31.31 0, 33.05 0.15, 34.74 0.45 C36.43 0.74, 38.11 1.19, 39.72 1.77 C41.33 2.35, 42.92 3.08, 44.4 3.93 C45.88 4.78, 47.31 5.77, 48.63 6.86 C49.94 7.95, 51.17 9.17, 52.27 10.47 C53.38 11.77, 54.38 13.19, 55.23 14.66 C56.09 16.13, 56.83 17.7, 57.41 19.29 C58 20.89, 58.45 22.56, 58.75 24.23 C59.05 25.9, 59.13 28.47, 59.2 29.32 C59.27 30.17, 59.27 28.47, 59.2 29.32" stroke="#1e1e1e" stroke-width="2" fill="none"></path></g><g transform="translate(688.023272757262 76.9198422207898) rotate(0 5.859375 12)"><text x="5.859375" y="0" font-family="Cascadia, Segoe UI Emoji" font-size="20px" fill="#1e1e1e" text-anchor="middle" style="white-space: pre;" direction="ltr" dominant-baseline="text-before-edge">4</text></g><g stroke-linecap="round"><g transform="translate(585.3576011298551 78.71362297637006) rotate(0 39.445208839892985 -0.05309300161289343)"><path d="M0 0 C13.15 -0.02, 65.74 -0.09, 78.89 -0.11 M0 0 C13.15 -0.02, 65.74 -0.09, 78.89 -0.11" stroke="#1e1e1e" stroke-width="2" fill="none"></path></g><g transform="translate(585.3576011298551 78.71362297637006) rotate(0 39.445208839892985 -0.05309300161289343)"><path d="M55.41 8.48 C63.71 5.44, 72.01 2.41, 78.89 -0.11 M55.41 8.48 C64.73 5.07, 74.06 1.66, 78.89 -0.11" stroke="#1e1e1e" stroke-width="2" fill="none"></path></g><g transform="translate(585.3576011298551 78.71362297637006) rotate(0 39.445208839892985 -0.05309300161289343)"><path d="M55.39 -8.63 C63.69 -5.61, 72 -2.6, 78.89 -0.11 M55.39 -8.63 C64.72 -5.24, 74.05 -1.86, 78.89 -0.11" stroke="#1e1e1e" stroke-width="2" fill="none"></path></g></g><mask></mask><g stroke-linecap="round"><g transform="translate(241.48738678058862 104.53089687003347) rotate(0 -44.489692814225805 0.03232102031873296)"><path d="M0 0 C-14.83 0.01, -74.15 0.05, -88.98 0.06 M0 0 C-14.83 0.01, -74.15 0.05, -88.98 0.06" stroke="#1e1e1e" stroke-width="2" fill="none"></path></g><g transform="translate(241.48738678058862 104.53089687003347) rotate(0 -44.489692814225805 0.03232102031873296)"><path d="M-65.49 -8.5 C-74.64 -5.17, -83.79 -1.83, -88.98 0.06 M-65.49 -8.5 C-72.74 -5.86, -79.99 -3.21, -88.98 0.06" stroke="#1e1e1e" stroke-width="2" fill="none"></path></g><g transform="translate(241.48738678058862 104.53089687003347) rotate(0 -44.489692814225805 0.03232102031873296)"><path d="M-65.48 8.6 C-74.64 5.27, -83.79 1.95, -88.98 0.06 M-65.48 8.6 C-72.73 5.96, -79.98 3.33, -88.98 0.06" stroke="#1e1e1e" stroke-width="2" fill="none"></path></g></g><mask></mask><g stroke-linecap="round"><g transform="translate(380.8130935593622 102.55457511603515) rotate(0 -40 0.399993896484375)"><path d="M0 0 C-13.33 0.13, -66.67 0.67, -80 0.8 M0 0 C-13.33 0.13, -66.67 0.67, -80 0.8" stroke="#1e1e1e" stroke-width="2" fill="none"></path></g><g transform="translate(380.8130935593622 102.55457511603515) rotate(0 -40 0.399993896484375)"><path d="M-56.59 -7.98 C-61.81 -6.03, -67.03 -4.07, -80 0.8 M-56.59 -7.98 C-64.48 -5.03, -72.36 -2.07, -80 0.8" stroke="#1e1e1e" stroke-width="2" fill="none"></path></g><g transform="translate(380.8130935593622 102.55457511603515) rotate(0 -40 0.399993896484375)"><path d="M-56.42 9.12 C-61.68 7.26, -66.94 5.41, -80 0.8 M-56.42 9.12 C-64.36 6.31, -72.3 3.51, -80 0.8" stroke="#1e1e1e" stroke-width="2" fill="none"></path></g></g><mask></mask><g stroke-linecap="round"><g transform="translate(528.6131118699091 100.95456901251953) rotate(0 -43.70002746582031 0)"><path d="M0 0 C-14.57 0, -72.83 0, -87.4 0 M0 0 C-14.57 0, -72.83 0, -87.4 0" stroke="#1e1e1e" stroke-width="2" fill="none"></path></g><g transform="translate(528.6131118699091 100.95456901251953) rotate(0 -43.70002746582031 0)"><path d="M-63.91 -8.55 C-71.29 -5.86, -78.67 -3.18, -87.4 0 M-63.91 -8.55 C-72.42 -5.45, -80.93 -2.35, -87.4 0" stroke="#1e1e1e" stroke-width="2" fill="none"></path></g><g transform="translate(528.6131118699091 100.95456901251953) rotate(0 -43.70002746582031 0)"><path d="M-63.91 8.55 C-71.29 5.86, -78.67 3.18, -87.4 0 M-63.91 8.55 C-72.42 5.45, -80.93 2.35, -87.4 0" stroke="#1e1e1e" stroke-width="2" fill="none"></path></g></g><mask></mask><g stroke-linecap="round"><g transform="translate(665.1675832715737 101.6407121521479) rotate(0 -39.61707000434751 0.1408628566198331)"><path d="M0 0 C-13.21 0.05, -66.03 0.23, -79.23 0.28 M0 0 C-13.21 0.05, -66.03 0.23, -79.23 0.28" stroke="#1e1e1e" stroke-width="2" fill="none"></path></g><g transform="translate(665.1675832715737 101.6407121521479) rotate(0 -39.61707000434751 0.1408628566198331)"><path d="M-55.77 -8.35 C-63.59 -5.48, -71.41 -2.6, -79.23 0.28 M-55.77 -8.35 C-65 -4.95, -74.24 -1.56, -79.23 0.28" stroke="#1e1e1e" stroke-width="2" fill="none"></path></g><g transform="translate(665.1675832715737 101.6407121521479) rotate(0 -39.61707000434751 0.1408628566198331)"><path d="M-55.71 8.75 C-63.55 5.93, -71.39 3.11, -79.23 0.28 M-55.71 8.75 C-64.97 5.42, -74.22 2.09, -79.23 0.28" stroke="#1e1e1e" stroke-width="2" fill="none"></path></g></g><mask></mask><g stroke-linecap="round" transform="translate(523.4130920334833 177.95647778467378) rotate(0 34.799957275390625 32.80000305175781)"><path d="M16.4 0 C31.08 0, 45.75 0, 53.2 0 C64.13 0, 69.6 5.47, 69.6 16.4 C69.6 24.62, 69.6 32.83, 69.6 49.2 C69.6 60.13, 64.13 65.6, 53.2 65.6 C44.35 65.6, 35.51 65.6, 16.4 65.6 C5.47 65.6, 0 60.13, 0 49.2 C0 41.82, 0 34.43, 0 16.4 C0 5.47, 5.47 0, 16.4 0" stroke="none" stroke-width="0" fill="#a5d8ff"></path><path d="M16.4 0 C27.17 0, 37.95 0, 53.2 0 M16.4 0 C27.37 0, 38.34 0, 53.2 0 M53.2 0 C64.13 0, 69.6 5.47, 69.6 16.4 M53.2 0 C64.13 0, 69.6 5.47, 69.6 16.4 M69.6 16.4 C69.6 25.36, 69.6 34.33, 69.6 49.2 M69.6 16.4 C69.6 26.98, 69.6 37.55, 69.6 49.2 M69.6 49.2 C69.6 60.13, 64.13 65.6, 53.2 65.6 M69.6 49.2 C69.6 60.13, 64.13 65.6, 53.2 65.6 M53.2 65.6 C40.01 65.6, 26.81 65.6, 16.4 65.6 M53.2 65.6 C38.53 65.6, 23.87 65.6, 16.4 65.6 M16.4 65.6 C5.47 65.6, 0 60.13, 0 49.2 M16.4 65.6 C5.47 65.6, 0 60.13, 0 49.2 M0 49.2 C0 39.09, 0 28.99, 0 16.4 M0 49.2 C0 39.11, 0 29.02, 0 16.4 M0 16.4 C0 5.47, 5.47 0, 16.4 0 M0 16.4 C0 5.47, 5.47 0, 16.4 0" stroke="#1e1e1e" stroke-width="2" fill="none"></path></g><g transform="translate(552.3536743088739 198.7564808364316) rotate(0 5.859375 12)"><text x="5.859375" y="0" font-family="Cascadia, Segoe UI Emoji" font-size="20px" fill="#1e1e1e" text-anchor="middle" style="white-space: pre;" direction="ltr" dominant-baseline="text-before-edge">6</text></g><g stroke-linecap="round" transform="translate(663.2132324143427 177.1565052504941) rotate(0 34.799957275390625 32.80000305175781)"><path d="M16.4 0 C24.86 0, 33.31 0, 53.2 0 C64.13 0, 69.6 5.47, 69.6 16.4 C69.6 23.46, 69.6 30.52, 69.6 49.2 C69.6 60.13, 64.13 65.6, 53.2 65.6 C41.77 65.6, 30.35 65.6, 16.4 65.6 C5.47 65.6, 0 60.13, 0 49.2 C0 39.16, 0 29.12, 0 16.4 C0 5.47, 5.47 0, 16.4 0" stroke="none" stroke-width="0" fill="#a5d8ff"></path><path d="M16.4 0 C30.97 0, 45.54 0, 53.2 0 M16.4 0 C27.42 0, 38.43 0, 53.2 0 M53.2 0 C64.13 0, 69.6 5.47, 69.6 16.4 M53.2 0 C64.13 0, 69.6 5.47, 69.6 16.4 M69.6 16.4 C69.6 27.21, 69.6 38.02, 69.6 49.2 M69.6 16.4 C69.6 23.04, 69.6 29.67, 69.6 49.2 M69.6 49.2 C69.6 60.13, 64.13 65.6, 53.2 65.6 M69.6 49.2 C69.6 60.13, 64.13 65.6, 53.2 65.6 M53.2 65.6 C44.14 65.6, 35.07 65.6, 16.4 65.6 M53.2 65.6 C45.74 65.6, 38.28 65.6, 16.4 65.6 M16.4 65.6 C5.47 65.6, 0 60.13, 0 49.2 M16.4 65.6 C5.47 65.6, 0 60.13, 0 49.2 M0 49.2 C0 38.43, 0 27.65, 0 16.4 M0 49.2 C0 39.41, 0 29.62, 0 16.4 M0 16.4 C0 5.47, 5.47 0, 16.4 0 M0 16.4 C0 5.47, 5.47 0, 16.4 0" stroke="#1e1e1e" stroke-width="2" fill="none"></path></g><g transform="translate(692.1538146897333 197.9565083022519) rotate(0 5.859375 12)"><text x="5.859375" y="0" font-family="Cascadia, Segoe UI Emoji" font-size="20px" fill="#1e1e1e" text-anchor="middle" style="white-space: pre;" direction="ltr" dominant-baseline="text-before-edge">5</text></g><g stroke-linecap="round" transform="translate(383.21311034403016 286.15656628565034) rotate(0 34.799957275390625 32.80000305175781)"><path d="M16.4 0 C30.98 0, 45.57 0, 53.2 0 C64.13 0, 69.6 5.47, 69.6 16.4 C69.6 28.68, 69.6 40.96, 69.6 49.2 C69.6 60.13, 64.13 65.6, 53.2 65.6 C39.19 65.6, 25.17 65.6, 16.4 65.6 C5.47 65.6, 0 60.13, 0 49.2 C0 40.64, 0 32.08, 0 16.4 C0 5.47, 5.47 0, 16.4 0" stroke="none" stroke-width="0" fill="#a5d8ff"></path><path d="M16.4 0 C25.39 0, 34.39 0, 53.2 0 M16.4 0 C26.26 0, 36.12 0, 53.2 0 M53.2 0 C64.13 0, 69.6 5.47, 69.6 16.4 M53.2 0 C64.13 0, 69.6 5.47, 69.6 16.4 M69.6 16.4 C69.6 24.56, 69.6 32.71, 69.6 49.2 M69.6 16.4 C69.6 28.46, 69.6 40.53, 69.6 49.2 M69.6 49.2 C69.6 60.13, 64.13 65.6, 53.2 65.6 M69.6 49.2 C69.6 60.13, 64.13 65.6, 53.2 65.6 M53.2 65.6 C42.56 65.6, 31.92 65.6, 16.4 65.6 M53.2 65.6 C39.9 65.6, 26.59 65.6, 16.4 65.6 M16.4 65.6 C5.47 65.6, 0 60.13, 0 49.2 M16.4 65.6 C5.47 65.6, 0 60.13, 0 49.2 M0 49.2 C0 36.38, 0 23.56, 0 16.4 M0 49.2 C0 38.87, 0 28.55, 0 16.4 M0 16.4 C0 5.47, 5.47 0, 16.4 0 M0 16.4 C0 5.47, 5.47 0, 16.4 0" stroke="#1e1e1e" stroke-width="2" fill="none"></path></g><g transform="translate(412.1536926194208 306.95656933740815) rotate(0 5.859375 12)"><text x="5.859375" y="0" font-family="Cascadia, Segoe UI Emoji" font-size="20px" fill="#1e1e1e" text-anchor="middle" style="white-space: pre;" direction="ltr" dominant-baseline="text-before-edge">8</text></g><g stroke-linecap="round" transform="translate(383.61313475809266 396.75657238916597) rotate(0 34.799957275390625 32.80000305175781)"><path d="M16.4 0 C26.2 0, 36.01 0, 53.2 0 C64.13 0, 69.6 5.47, 69.6 16.4 C69.6 28.77, 69.6 41.13, 69.6 49.2 C69.6 60.13, 64.13 65.6, 53.2 65.6 C39.28 65.6, 25.35 65.6, 16.4 65.6 C5.47 65.6, 0 60.13, 0 49.2 C0 38.33, 0 27.45, 0 16.4 C0 5.47, 5.47 0, 16.4 0" stroke="none" stroke-width="0" fill="#a5d8ff"></path><path d="M16.4 0 C27.13 0, 37.85 0, 53.2 0 M16.4 0 C30.55 0, 44.69 0, 53.2 0 M53.2 0 C64.13 0, 69.6 5.47, 69.6 16.4 M53.2 0 C64.13 0, 69.6 5.47, 69.6 16.4 M69.6 16.4 C69.6 26.58, 69.6 36.75, 69.6 49.2 M69.6 16.4 C69.6 28.21, 69.6 40.03, 69.6 49.2 M69.6 49.2 C69.6 60.13, 64.13 65.6, 53.2 65.6 M69.6 49.2 C69.6 60.13, 64.13 65.6, 53.2 65.6 M53.2 65.6 C42.78 65.6, 32.36 65.6, 16.4 65.6 M53.2 65.6 C39.29 65.6, 25.38 65.6, 16.4 65.6 M16.4 65.6 C5.47 65.6, 0 60.13, 0 49.2 M16.4 65.6 C5.47 65.6, 0 60.13, 0 49.2 M0 49.2 C0 41.46, 0 33.72, 0 16.4 M0 49.2 C0 39.62, 0 30.03, 0 16.4 M0 16.4 C0 5.47, 5.47 0, 16.4 0 M0 16.4 C0 5.47, 5.47 0, 16.4 0" stroke="#1e1e1e" stroke-width="2" fill="none"></path></g><g transform="translate(406.6943420334833 417.5565754409238) rotate(0 11.71875 12)"><text x="11.71875" y="0" font-family="Cascadia, Segoe UI Emoji" font-size="20px" fill="#1e1e1e" text-anchor="middle" style="white-space: pre;" direction="ltr" dominant-baseline="text-before-edge">11</text></g><g stroke-linecap="round" transform="translate(245.01315917215516 517.3566395278378) rotate(0 34.799957275390625 32.80000305175781)"><path d="M16.4 0 C27.36 0, 38.32 0, 53.2 0 C64.13 0, 69.6 5.47, 69.6 16.4 C69.6 26.75, 69.6 37.11, 69.6 49.2 C69.6 60.13, 64.13 65.6, 53.2 65.6 C41.97 65.6, 30.74 65.6, 16.4 65.6 C5.47 65.6, 0 60.13, 0 49.2 C0 36.42, 0 23.63, 0 16.4 C0 5.47, 5.47 0, 16.4 0" stroke="none" stroke-width="0" fill="#a5d8ff"></path><path d="M16.4 0 C23.8 0, 31.19 0, 53.2 0 M16.4 0 C26.92 0, 37.45 0, 53.2 0 M53.2 0 C64.13 0, 69.6 5.47, 69.6 16.4 M53.2 0 C64.13 0, 69.6 5.47, 69.6 16.4 M69.6 16.4 C69.6 26.76, 69.6 37.11, 69.6 49.2 M69.6 16.4 C69.6 29.2, 69.6 42.01, 69.6 49.2 M69.6 49.2 C69.6 60.13, 64.13 65.6, 53.2 65.6 M69.6 49.2 C69.6 60.13, 64.13 65.6, 53.2 65.6 M53.2 65.6 C39.64 65.6, 26.08 65.6, 16.4 65.6 M53.2 65.6 C43.61 65.6, 34.02 65.6, 16.4 65.6 M16.4 65.6 C5.47 65.6, 0 60.13, 0 49.2 M16.4 65.6 C5.47 65.6, 0 60.13, 0 49.2 M0 49.2 C0 41.96, 0 34.72, 0 16.4 M0 49.2 C0 37.01, 0 24.82, 0 16.4 M0 16.4 C0 5.47, 5.47 0, 16.4 0 M0 16.4 C0 5.47, 5.47 0, 16.4 0" stroke="#1e1e1e" stroke-width="2" fill="none"></path></g><g transform="translate(268.0943664475458 538.1566425795957) rotate(0 11.71875 12)"><text x="11.71875" y="0" font-family="Cascadia, Segoe UI Emoji" font-size="20px" fill="#1e1e1e" text-anchor="middle" style="white-space: pre;" direction="ltr" dominant-baseline="text-before-edge">14</text></g><g stroke-linecap="round" transform="translate(385.21311034403016 515.5565296645566) rotate(0 34.799957275390625 32.80000305175781)"><path d="M16.4 0 C25.57 0, 34.74 0, 53.2 0 C64.13 0, 69.6 5.47, 69.6 16.4 C69.6 23.85, 69.6 31.3, 69.6 49.2 C69.6 60.13, 64.13 65.6, 53.2 65.6 C44.95 65.6, 36.7 65.6, 16.4 65.6 C5.47 65.6, 0 60.13, 0 49.2 C0 36.17, 0 23.14, 0 16.4 C0 5.47, 5.47 0, 16.4 0" stroke="none" stroke-width="0" fill="#a5d8ff"></path><path d="M16.4 0 C27.27 0, 38.14 0, 53.2 0 M16.4 0 C30.63 0, 44.85 0, 53.2 0 M53.2 0 C64.13 0, 69.6 5.47, 69.6 16.4 M53.2 0 C64.13 0, 69.6 5.47, 69.6 16.4 M69.6 16.4 C69.6 27.9, 69.6 39.39, 69.6 49.2 M69.6 16.4 C69.6 23.31, 69.6 30.22, 69.6 49.2 M69.6 49.2 C69.6 60.13, 64.13 65.6, 53.2 65.6 M69.6 49.2 C69.6 60.13, 64.13 65.6, 53.2 65.6 M53.2 65.6 C44.84 65.6, 36.48 65.6, 16.4 65.6 M53.2 65.6 C40.87 65.6, 28.54 65.6, 16.4 65.6 M16.4 65.6 C5.47 65.6, 0 60.13, 0 49.2 M16.4 65.6 C5.47 65.6, 0 60.13, 0 49.2 M0 49.2 C0 42.08, 0 34.96, 0 16.4 M0 49.2 C0 37, 0 24.79, 0 16.4 M0 16.4 C0 5.47, 5.47 0, 16.4 0 M0 16.4 C0 5.47, 5.47 0, 16.4 0" stroke="#1e1e1e" stroke-width="2" fill="none"></path></g><g transform="translate(408.2943176194208 536.3565327163144) rotate(0 11.71875 12)"><text x="11.71875" y="0" font-family="Cascadia, Segoe UI Emoji" font-size="20px" fill="#1e1e1e" text-anchor="middle" style="white-space: pre;" direction="ltr" dominant-baseline="text-before-edge">13</text></g><g stroke-linecap="round" transform="translate(526.6131347580927 288.55649914697847) rotate(0 34.799957275390625 32.80000305175781)"><path d="M16.4 0 C26.04 0, 35.67 0, 53.2 0 C64.13 0, 69.6 5.47, 69.6 16.4 C69.6 28.01, 69.6 39.61, 69.6 49.2 C69.6 60.13, 64.13 65.6, 53.2 65.6 C39.55 65.6, 25.89 65.6, 16.4 65.6 C5.47 65.6, 0 60.13, 0 49.2 C0 41.47, 0 33.74, 0 16.4 C0 5.47, 5.47 0, 16.4 0" stroke="none" stroke-width="0" fill="#a5d8ff"></path><path d="M16.4 0 C29.17 0, 41.94 0, 53.2 0 M16.4 0 C29.57 0, 42.73 0, 53.2 0 M53.2 0 C64.13 0, 69.6 5.47, 69.6 16.4 M53.2 0 C64.13 0, 69.6 5.47, 69.6 16.4 M69.6 16.4 C69.6 25.79, 69.6 35.19, 69.6 49.2 M69.6 16.4 C69.6 28.52, 69.6 40.64, 69.6 49.2 M69.6 49.2 C69.6 60.13, 64.13 65.6, 53.2 65.6 M69.6 49.2 C69.6 60.13, 64.13 65.6, 53.2 65.6 M53.2 65.6 C39.81 65.6, 26.41 65.6, 16.4 65.6 M53.2 65.6 C41.25 65.6, 29.29 65.6, 16.4 65.6 M16.4 65.6 C5.47 65.6, 0 60.13, 0 49.2 M16.4 65.6 C5.47 65.6, 0 60.13, 0 49.2 M0 49.2 C0 41.89, 0 34.59, 0 16.4 M0 49.2 C0 38.94, 0 28.68, 0 16.4 M0 16.4 C0 5.47, 5.47 0, 16.4 0 M0 16.4 C0 5.47, 5.47 0, 16.4 0" stroke="#1e1e1e" stroke-width="2" fill="none"></path></g><g transform="translate(555.5537170334833 309.3565021987363) rotate(0 5.859375 12)"><text x="5.859375" y="0" font-family="Cascadia, Segoe UI Emoji" font-size="20px" fill="#1e1e1e" text-anchor="middle" style="white-space: pre;" direction="ltr" dominant-baseline="text-before-edge">7</text></g><g stroke-linecap="round" transform="translate(526.8131469651239 394.35651745752534) rotate(0 34.799957275390625 32.80000305175781)"><path d="M16.4 0 C28.27 0, 40.15 0, 53.2 0 C64.13 0, 69.6 5.47, 69.6 16.4 C69.6 23.25, 69.6 30.1, 69.6 49.2 C69.6 60.13, 64.13 65.6, 53.2 65.6 C41.3 65.6, 29.41 65.6, 16.4 65.6 C5.47 65.6, 0 60.13, 0 49.2 C0 37.24, 0 25.29, 0 16.4 C0 5.47, 5.47 0, 16.4 0" stroke="none" stroke-width="0" fill="#a5d8ff"></path><path d="M16.4 0 C28.3 0, 40.2 0, 53.2 0 M16.4 0 C25.73 0, 35.07 0, 53.2 0 M53.2 0 C64.13 0, 69.6 5.47, 69.6 16.4 M53.2 0 C64.13 0, 69.6 5.47, 69.6 16.4 M69.6 16.4 C69.6 25.22, 69.6 34.04, 69.6 49.2 M69.6 16.4 C69.6 28.86, 69.6 41.31, 69.6 49.2 M69.6 49.2 C69.6 60.13, 64.13 65.6, 53.2 65.6 M69.6 49.2 C69.6 60.13, 64.13 65.6, 53.2 65.6 M53.2 65.6 C45.53 65.6, 37.86 65.6, 16.4 65.6 M53.2 65.6 C43.27 65.6, 33.33 65.6, 16.4 65.6 M16.4 65.6 C5.47 65.6, 0 60.13, 0 49.2 M16.4 65.6 C5.47 65.6, 0 60.13, 0 49.2 M0 49.2 C0 38.15, 0 27.1, 0 16.4 M0 49.2 C0 40.86, 0 32.51, 0 16.4 M0 16.4 C0 5.47, 5.47 0, 16.4 0 M0 16.4 C0 5.47, 5.47 0, 16.4 0" stroke="#1e1e1e" stroke-width="2" fill="none"></path></g><g transform="translate(549.8943542405145 415.15652050928315) rotate(0 11.71875 12)"><text x="11.71875" y="0" font-family="Cascadia, Segoe UI Emoji" font-size="20px" fill="#1e1e1e" text-anchor="middle" style="white-space: pre;" direction="ltr" dominant-baseline="text-before-edge">10</text></g><g stroke-linecap="round" transform="translate(664.2131103440302 393.1565052504941) rotate(0 34.799957275390625 32.80000305175781)"><path d="M16.4 0 C25.32 0, 34.24 0, 53.2 0 C64.13 0, 69.6 5.47, 69.6 16.4 C69.6 24.54, 69.6 32.67, 69.6 49.2 C69.6 60.13, 64.13 65.6, 53.2 65.6 C38.85 65.6, 24.5 65.6, 16.4 65.6 C5.47 65.6, 0 60.13, 0 49.2 C0 36.75, 0 24.29, 0 16.4 C0 5.47, 5.47 0, 16.4 0" stroke="none" stroke-width="0" fill="#a5d8ff"></path><path d="M16.4 0 C28.47 0, 40.54 0, 53.2 0 M16.4 0 C29.98 0, 43.56 0, 53.2 0 M53.2 0 C64.13 0, 69.6 5.47, 69.6 16.4 M53.2 0 C64.13 0, 69.6 5.47, 69.6 16.4 M69.6 16.4 C69.6 28.71, 69.6 41.02, 69.6 49.2 M69.6 16.4 C69.6 24.25, 69.6 32.11, 69.6 49.2 M69.6 49.2 C69.6 60.13, 64.13 65.6, 53.2 65.6 M69.6 49.2 C69.6 60.13, 64.13 65.6, 53.2 65.6 M53.2 65.6 C38.79 65.6, 24.38 65.6, 16.4 65.6 M53.2 65.6 C39.32 65.6, 25.45 65.6, 16.4 65.6 M16.4 65.6 C5.47 65.6, 0 60.13, 0 49.2 M16.4 65.6 C5.47 65.6, 0 60.13, 0 49.2 M0 49.2 C0 39.28, 0 29.37, 0 16.4 M0 49.2 C0 41.23, 0 33.27, 0 16.4 M0 16.4 C0 5.47, 5.47 0, 16.4 0 M0 16.4 C0 5.47, 5.47 0, 16.4 0" stroke="#1e1e1e" stroke-width="2" fill="none"></path></g><g transform="translate(693.1536926194208 413.9565083022519) rotate(0 5.859375 12)"><text x="5.859375" y="0" font-family="Cascadia, Segoe UI Emoji" font-size="20px" fill="#1e1e1e" text-anchor="middle" style="white-space: pre;" direction="ltr" dominant-baseline="text-before-edge">9</text></g><g stroke-linecap="round" transform="translate(665.8132080002802 510.95652356104097) rotate(0 34.799957275390625 32.80000305175781)"><path d="M16.4 0 C25.27 0, 34.14 0, 53.2 0 C64.13 0, 69.6 5.47, 69.6 16.4 C69.6 26.27, 69.6 36.14, 69.6 49.2 C69.6 60.13, 64.13 65.6, 53.2 65.6 C43.1 65.6, 33 65.6, 16.4 65.6 C5.47 65.6, 0 60.13, 0 49.2 C0 41.03, 0 32.87, 0 16.4 C0 5.47, 5.47 0, 16.4 0" stroke="none" stroke-width="0" fill="#a5d8ff"></path><path d="M16.4 0 C28.57 0, 40.75 0, 53.2 0 M16.4 0 C28.15 0, 39.91 0, 53.2 0 M53.2 0 C64.13 0, 69.6 5.47, 69.6 16.4 M53.2 0 C64.13 0, 69.6 5.47, 69.6 16.4 M69.6 16.4 C69.6 26.17, 69.6 35.94, 69.6 49.2 M69.6 16.4 C69.6 26.14, 69.6 35.88, 69.6 49.2 M69.6 49.2 C69.6 60.13, 64.13 65.6, 53.2 65.6 M69.6 49.2 C69.6 60.13, 64.13 65.6, 53.2 65.6 M53.2 65.6 C40.59 65.6, 27.98 65.6, 16.4 65.6 M53.2 65.6 C39.97 65.6, 26.75 65.6, 16.4 65.6 M16.4 65.6 C5.47 65.6, 0 60.13, 0 49.2 M16.4 65.6 C5.47 65.6, 0 60.13, 0 49.2 M0 49.2 C0 36.36, 0 23.52, 0 16.4 M0 49.2 C0 41.8, 0 34.39, 0 16.4 M0 16.4 C0 5.47, 5.47 0, 16.4 0 M0 16.4 C0 5.47, 5.47 0, 16.4 0" stroke="#1e1e1e" stroke-width="2" fill="none"></path></g><g transform="translate(688.8944152756708 531.7565266127988) rotate(0 11.71875 12)"><text x="11.71875" y="0" font-family="Cascadia, Segoe UI Emoji" font-size="20px" fill="#1e1e1e" text-anchor="middle" style="white-space: pre;" direction="ltr" dominant-baseline="text-before-edge">12</text></g><g stroke-linecap="round"><g transform="translate(457.800109863281 311.8499379657227) rotate(0 33.212988273718 -0.028257355717187238)"><path d="M0 0 C11.07 -0.01, 55.35 -0.05, 66.43 -0.06 M0 0 C11.07 -0.01, 55.35 -0.05, 66.43 -0.06" stroke="#1e1e1e" stroke-width="2" fill="none"></path></g><g transform="translate(457.800109863281 311.8499379657227) rotate(0 33.212988273718 -0.028257355717187238)"><path d="M42.94 8.51 C51.51 5.39, 60.07 2.26, 66.43 -0.06 M42.94 8.51 C51.72 5.31, 60.5 2.11, 66.43 -0.06" stroke="#1e1e1e" stroke-width="2" fill="none"></path></g><g transform="translate(457.800109863281 311.8499379657227) rotate(0 33.212988273718 -0.028257355717187238)"><path d="M42.93 -8.59 C51.5 -5.48, 60.07 -2.36, 66.43 -0.06 M42.93 -8.59 C51.71 -5.4, 60.49 -2.21, 66.43 -0.06" stroke="#1e1e1e" stroke-width="2" fill="none"></path></g></g><mask></mask><g stroke-linecap="round"><g transform="translate(454.6000366210934 416.7167368999478) rotate(0 34.013037101842826 -0.4260613478506343)"><path d="M0 0 C11.34 -0.14, 56.69 -0.71, 68.03 -0.85 M0 0 C11.34 -0.14, 56.69 -0.71, 68.03 -0.85" stroke="#1e1e1e" stroke-width="2" fill="none"></path></g><g transform="translate(454.6000366210934 416.7167368999478) rotate(0 34.013037101842826 -0.4260613478506343)"><path d="M44.64 7.99 C53.16 4.77, 61.68 1.55, 68.03 -0.85 M44.64 7.99 C50.38 5.82, 56.13 3.65, 68.03 -0.85" stroke="#1e1e1e" stroke-width="2" fill="none"></path></g><g transform="translate(454.6000366210934 416.7167368999478) rotate(0 34.013037101842826 -0.4260613478506343)"><path d="M44.43 -9.11 C53.02 -6.1, 61.62 -3.09, 68.03 -0.85 M44.43 -9.11 C50.22 -7.08, 56.02 -5.05, 68.03 -0.85" stroke="#1e1e1e" stroke-width="2" fill="none"></path></g></g><mask></mask><g stroke-linecap="round"><g transform="translate(598.4000244140623 412.3331437975621) rotate(0 31.613043205358395 0.14615113602582142)"><path d="M0 0 C10.54 0.05, 52.69 0.24, 63.23 0.29 M0 0 C10.54 0.05, 52.69 0.24, 63.23 0.29" stroke="#1e1e1e" stroke-width="2" fill="none"></path></g><g transform="translate(598.4000244140623 412.3331437975621) rotate(0 31.613043205358395 0.14615113602582142)"><path d="M39.69 8.73 C46.62 6.25, 53.55 3.76, 63.23 0.29 M39.69 8.73 C44.85 6.89, 50 5.04, 63.23 0.29" stroke="#1e1e1e" stroke-width="2" fill="none"></path></g><g transform="translate(598.4000244140623 412.3331437975621) rotate(0 31.613043205358395 0.14615113602582142)"><path d="M39.77 -8.37 C46.68 -5.82, 53.59 -3.27, 63.23 0.29 M39.77 -8.37 C44.91 -6.47, 50.04 -4.58, 63.23 0.29" stroke="#1e1e1e" stroke-width="2" fill="none"></path></g></g><mask></mask><g stroke-linecap="round"><g transform="translate(457.20007324218716 534.1082120973896) rotate(0 102.01303710184283 -0.09758630235114651)"><path d="M0 0 C34 -0.03, 170.02 -0.16, 204.03 -0.2 M0 0 C34 -0.03, 170.02 -0.16, 204.03 -0.2" stroke="#1e1e1e" stroke-width="2" fill="none"></path></g><g transform="translate(457.20007324218716 534.1082120973896) rotate(0 102.01303710184283 -0.09758630235114651)"><path d="M180.54 8.38 C189.7 5.03, 198.86 1.69, 204.03 -0.2 M180.54 8.38 C186.61 6.16, 192.67 3.95, 204.03 -0.2" stroke="#1e1e1e" stroke-width="2" fill="none"></path></g><g transform="translate(457.20007324218716 534.1082120973896) rotate(0 102.01303710184283 -0.09758630235114651)"><path d="M180.53 -8.72 C189.69 -5.4, 198.86 -2.07, 204.03 -0.2 M180.53 -8.72 C186.59 -6.52, 192.66 -4.32, 204.03 -0.2" stroke="#1e1e1e" stroke-width="2" fill="none"></path></g></g><mask></mask><g stroke-linecap="round"><g transform="translate(317.6000366210934 541.0481055712052) rotate(0 32.813024894811576 0.19866639590850355)"><path d="M0 0 C10.94 0.07, 54.69 0.33, 65.63 0.4 M0 0 C10.94 0.07, 54.69 0.33, 65.63 0.4" stroke="#1e1e1e" stroke-width="2" fill="none"></path></g><g transform="translate(317.6000366210934 541.0481055712052) rotate(0 32.813024894811576 0.19866639590850355)"><path d="M42.08 8.81 C47.73 6.79, 53.38 4.77, 65.63 0.4 M42.08 8.81 C50.89 5.66, 59.7 2.51, 65.63 0.4" stroke="#1e1e1e" stroke-width="2" fill="none"></path></g><g transform="translate(317.6000366210934 541.0481055712052) rotate(0 32.813024894811576 0.19866639590850355)"><path d="M42.19 -8.3 C47.81 -6.21, 53.44 -4.12, 65.63 0.4 M42.19 -8.3 C50.95 -5.04, 59.72 -1.79, 65.63 0.4" stroke="#1e1e1e" stroke-width="2" fill="none"></path></g></g><mask></mask><g stroke-linecap="round"><g transform="translate(661.4000854492183 218.60001373291016) rotate(0 -33.18697510518837 -0.24351153417393334)"><path d="M0 0 C-11.06 -0.08, -55.31 -0.41, -66.37 -0.49 M0 0 C-11.06 -0.08, -55.31 -0.41, -66.37 -0.49" stroke="#1e1e1e" stroke-width="2" fill="none"></path></g><g transform="translate(661.4000854492183 218.60001373291016) rotate(0 -33.18697510518837 -0.24351153417393334)"><path d="M-42.82 -8.86 C-47.84 -7.08, -52.85 -5.3, -66.37 -0.49 M-42.82 -8.86 C-49.6 -6.45, -56.39 -4.04, -66.37 -0.49" stroke="#1e1e1e" stroke-width="2" fill="none"></path></g><g transform="translate(661.4000854492183 218.60001373291016) rotate(0 -33.18697510518837 -0.24351153417393334)"><path d="M-42.95 8.24 C-47.93 6.38, -52.92 4.52, -66.37 -0.49 M-42.95 8.24 C-49.69 5.72, -56.44 3.21, -66.37 -0.49" stroke="#1e1e1e" stroke-width="2" fill="none"></path></g></g><mask></mask><g stroke-linecap="round"><g transform="translate(520.6000671386716 332.86746743340757) rotate(0 -32.78695069112587 -0.6610246080314255)"><path d="M0 0 C-10.93 -0.22, -54.64 -1.1, -65.57 -1.32 M0 0 C-10.93 -0.22, -54.64 -1.1, -65.57 -1.32" stroke="#1e1e1e" stroke-width="2" fill="none"></path></g><g transform="translate(520.6000671386716 332.86746743340757) rotate(0 -32.78695069112587 -0.6610246080314255)"><path d="M-41.91 -9.4 C-51.03 -6.28, -60.16 -3.17, -65.57 -1.32 M-41.91 -9.4 C-46.79 -7.73, -51.66 -6.07, -65.57 -1.32" stroke="#1e1e1e" stroke-width="2" fill="none"></path></g><g transform="translate(520.6000671386716 332.86746743340757) rotate(0 -32.78695069112587 -0.6610246080314255)"><path d="M-42.26 7.7 C-51.25 4.22, -60.23 0.74, -65.57 -1.32 M-42.26 7.7 C-47.06 5.84, -51.87 3.98, -65.57 -1.32" stroke="#1e1e1e" stroke-width="2" fill="none"></path></g></g><mask></mask><g stroke-linecap="round"><g transform="translate(663.6000061035156 439.0000076293944) rotate(0 -33.18697510518837 -0.24351153417393334)"><path d="M0 0 C-11.06 -0.08, -55.31 -0.41, -66.37 -0.49 M0 0 C-11.06 -0.08, -55.31 -0.41, -66.37 -0.49" stroke="#1e1e1e" stroke-width="2" fill="none"></path></g><g transform="translate(663.6000061035156 439.0000076293944) rotate(0 -33.18697510518837 -0.24351153417393334)"><path d="M-42.82 -8.86 C-50.98 -5.96, -59.13 -3.06, -66.37 -0.49 M-42.82 -8.86 C-52.17 -5.54, -61.52 -2.21, -66.37 -0.49" stroke="#1e1e1e" stroke-width="2" fill="none"></path></g><g transform="translate(663.6000061035156 439.0000076293944) rotate(0 -33.18697510518837 -0.24351153417393334)"><path d="M-42.95 8.24 C-51.06 5.21, -59.17 2.19, -66.37 -0.49 M-42.95 8.24 C-52.25 4.77, -61.55 1.31, -66.37 -0.49" stroke="#1e1e1e" stroke-width="2" fill="none"></path></g></g><mask></mask><g stroke-linecap="round"><g transform="translate(525.1999816894531 440.20001983642567) rotate(0 -35.18697510518837 -0.24351153417393334)"><path d="M0 0 C-11.73 -0.08, -58.64 -0.41, -70.37 -0.49 M0 0 C-11.73 -0.08, -58.64 -0.41, -70.37 -0.49" stroke="#1e1e1e" stroke-width="2" fill="none"></path></g><g transform="translate(525.1999816894531 440.20001983642567) rotate(0 -35.18697510518837 -0.24351153417393334)"><path d="M-46.82 -8.87 C-52.5 -6.85, -58.18 -4.83, -70.37 -0.49 M-46.82 -8.87 C-53.39 -6.54, -59.95 -4.2, -70.37 -0.49" stroke="#1e1e1e" stroke-width="2" fill="none"></path></g><g transform="translate(525.1999816894531 440.20001983642567) rotate(0 -35.18697510518837 -0.24351153417393334)"><path d="M-46.94 8.23 C-52.59 6.13, -58.24 4.03, -70.37 -0.49 M-46.94 8.23 C-53.47 5.8, -60 3.37, -70.37 -0.49" stroke="#1e1e1e" stroke-width="2" fill="none"></path></g></g><mask></mask><g stroke-linecap="round"><g transform="translate(381.60006713867165 564.0000076293944) rotate(0 -33.18697510518837 -0.24351153417393334)"><path d="M0 0 C-11.06 -0.08, -55.31 -0.41, -66.37 -0.49 M0 0 C-11.06 -0.08, -55.31 -0.41, -66.37 -0.49" stroke="#1e1e1e" stroke-width="2" fill="none"></path></g><g transform="translate(381.60006713867165 564.0000076293944) rotate(0 -33.18697510518837 -0.24351153417393334)"><path d="M-42.82 -8.86 C-49.03 -6.66, -55.24 -4.45, -66.37 -0.49 M-42.82 -8.86 C-51.53 -5.77, -60.25 -2.67, -66.37 -0.49" stroke="#1e1e1e" stroke-width="2" fill="none"></path></g><g transform="translate(381.60006713867165 564.0000076293944) rotate(0 -33.18697510518837 -0.24351153417393334)"><path d="M-42.95 8.24 C-49.12 5.94, -55.3 3.64, -66.37 -0.49 M-42.95 8.24 C-51.61 5.01, -60.28 1.78, -66.37 -0.49" stroke="#1e1e1e" stroke-width="2" fill="none"></path></g></g><mask></mask><g stroke-linecap="round"><g transform="translate(660.8000183105466 555.0000381469725) rotate(0 -101.58696900167274 0.15648236231044166)"><path d="M0 0 C-33.86 0.05, -169.31 0.26, -203.17 0.31 M0 0 C-33.86 0.05, -169.31 0.26, -203.17 0.31" stroke="#1e1e1e" stroke-width="2" fill="none"></path></g><g transform="translate(660.8000183105466 555.0000381469725) rotate(0 -101.58696900167274 0.15648236231044166)"><path d="M-179.69 -8.27 C-185.1 -6.3, -190.51 -4.32, -203.17 0.31 M-179.69 -8.27 C-185.34 -6.21, -190.99 -4.14, -203.17 0.31" stroke="#1e1e1e" stroke-width="2" fill="none"></path></g><g transform="translate(660.8000183105466 555.0000381469725) rotate(0 -101.58696900167274 0.15648236231044166)"><path d="M-179.67 8.83 C-185.08 6.87, -190.5 4.9, -203.17 0.31 M-179.67 8.83 C-185.32 6.78, -190.98 4.73, -203.17 0.31" stroke="#1e1e1e" stroke-width="2" fill="none"></path></g></g><mask></mask><g stroke-linecap="round"><g transform="translate(443.40002441406216 83.20003509521484) rotate(0 40.4130309983272 -0.6435206894473708)"><path d="M0 0 C13.47 -0.21, 67.36 -1.07, 80.83 -1.29 M0 0 C13.47 -0.21, 67.36 -1.07, 80.83 -1.29" stroke="#1e1e1e" stroke-width="2" fill="none"></path></g><g transform="translate(443.40002441406216 83.20003509521484) rotate(0 40.4130309983272 -0.6435206894473708)"><path d="M57.47 7.64 C65.8 4.46, 74.12 1.27, 80.83 -1.29 M57.47 7.64 C64.76 4.85, 72.05 2.07, 80.83 -1.29" stroke="#1e1e1e" stroke-width="2" fill="none"></path></g><g transform="translate(443.40002441406216 83.20003509521484) rotate(0 40.4130309983272 -0.6435206894473708)"><path d="M57.2 -9.46 C65.62 -6.55, 74.04 -3.63, 80.83 -1.29 M57.2 -9.46 C64.58 -6.91, 71.95 -4.36, 80.83 -1.29" stroke="#1e1e1e" stroke-width="2" fill="none"></path></g></g><mask></mask><g stroke-linecap="round"><g transform="translate(571.8001403808591 286.5445390643973) rotate(0 0.4130004807492469 -19.987994141051786)"><path d="M0 0 C0.14 -6.66, 0.69 -33.31, 0.83 -39.98 M0 0 C0.14 -6.66, 0.69 -33.31, 0.83 -39.98" stroke="#1e1e1e" stroke-width="2" fill="none"></path></g><g transform="translate(571.8001403808591 286.5445390643973) rotate(0 0.4130004807492469 -19.987994141051786)"><path d="M7.27 -21.05 C5.51 -26.22, 3.75 -31.38, 0.83 -39.98 M7.27 -21.05 C5.23 -27.05, 3.19 -33.05, 0.83 -39.98" stroke="#1e1e1e" stroke-width="2" fill="none"></path></g><g transform="translate(571.8001403808591 286.5445390643973) rotate(0 0.4130004807492469 -19.987994141051786)"><path d="M-6.4 -21.33 C-4.43 -26.42, -2.45 -31.51, 0.83 -39.98 M-6.4 -21.33 C-4.11 -27.25, -1.82 -33.16, 0.83 -39.98" stroke="#1e1e1e" stroke-width="2" fill="none"></path></g></g><mask></mask><g stroke-linecap="round"><g transform="translate(569.6000671386716 392.1445146503348) rotate(0 0.4130004807492469 -18.38798803753616)"><path d="M0 0 C0.14 -6.13, 0.69 -30.65, 0.83 -36.78 M0 0 C0.14 -6.13, 0.69 -30.65, 0.83 -36.78" stroke="#1e1e1e" stroke-width="2" fill="none"></path></g><g transform="translate(569.6000671386716 392.1445146503348) rotate(0 0.4130004807492469 -18.38798803753616)"><path d="M6.73 -19.36 C4.98 -24.51, 3.24 -29.66, 0.83 -36.78 M6.73 -19.36 C4.48 -26, 2.22 -32.65, 0.83 -36.78" stroke="#1e1e1e" stroke-width="2" fill="none"></path></g><g transform="translate(569.6000671386716 392.1445146503348) rotate(0 0.4130004807492469 -18.38798803753616)"><path d="M-5.85 -19.64 C-3.88 -24.71, -1.9 -29.78, 0.83 -36.78 M-5.85 -19.64 C-3.3 -26.18, -0.76 -32.72, 0.83 -36.78" stroke="#1e1e1e" stroke-width="2" fill="none"></path></g></g><mask></mask><g stroke-linecap="round"><g transform="translate(569.2001037597652 177.34454211615514) rotate(0 -0.3869873122195031 -29.987986511657255)"><path d="M0 0 C-0.13 -10, -0.64 -49.98, -0.77 -59.98 M0 0 C-0.13 -10, -0.64 -49.98, -0.77 -59.98" stroke="#1e1e1e" stroke-width="2" fill="none"></path></g><g transform="translate(569.2001037597652 177.34454211615514) rotate(0 -0.3869873122195031 -29.987986511657255)"><path d="M8.08 -36.6 C4.54 -45.94, 1 -55.28, -0.77 -59.98 M8.08 -36.6 C5.02 -44.67, 1.97 -52.74, -0.77 -59.98" stroke="#1e1e1e" stroke-width="2" fill="none"></path></g><g transform="translate(569.2001037597652 177.34454211615514) rotate(0 -0.3869873122195031 -29.987986511657255)"><path d="M-9.02 -36.38 C-5.73 -45.81, -2.43 -55.23, -0.77 -59.98 M-9.02 -36.38 C-6.17 -44.52, -3.33 -52.67, -0.77 -59.98" stroke="#1e1e1e" stroke-width="2" fill="none"></path></g></g><mask></mask><g stroke-linecap="round"><g transform="translate(709.0000915527337 173.74447497748338) rotate(0 0.01297606668674689 -29.187998718688505)"><path d="M0 0 C0 -9.73, 0.02 -48.65, 0.03 -58.38 M0 0 C0 -9.73, 0.02 -48.65, 0.03 -58.38" stroke="#1e1e1e" stroke-width="2" fill="none"></path></g><g transform="translate(709.0000915527337 173.74447497748338) rotate(0 0.01297606668674689 -29.187998718688505)"><path d="M8.57 -34.88 C6.45 -40.72, 4.32 -46.55, 0.03 -58.38 M8.57 -34.88 C6.39 -40.88, 4.21 -46.88, 0.03 -58.38" stroke="#1e1e1e" stroke-width="2" fill="none"></path></g><g transform="translate(709.0000915527337 173.74447497748338) rotate(0 0.01297606668674689 -29.187998718688505)"><path d="M-8.53 -34.89 C-6.41 -40.72, -4.28 -46.55, 0.03 -58.38 M-8.53 -34.89 C-6.35 -40.88, -4.16 -46.88, 0.03 -58.38" stroke="#1e1e1e" stroke-width="2" fill="none"></path></g></g><mask></mask><g stroke-linecap="round"><g transform="translate(712.6000671386712 389.34449633978807) rotate(0 -0.3869873122195031 -71.98799414105179)"><path d="M0 0 C-0.13 -24, -0.64 -119.98, -0.77 -143.98 M0 0 C-0.13 -24, -0.64 -119.98, -0.77 -143.98" stroke="#1e1e1e" stroke-width="2" fill="none"></path></g><g transform="translate(712.6000671386712 389.34449633978807) rotate(0 -0.3869873122195031 -71.98799414105179)"><path d="M7.9 -120.53 C6.02 -125.62, 4.13 -130.72, -0.77 -143.98 M7.9 -120.53 C4.75 -129.05, 1.6 -137.56, -0.77 -143.98" stroke="#1e1e1e" stroke-width="2" fill="none"></path></g><g transform="translate(712.6000671386712 389.34449633978807) rotate(0 -0.3869873122195031 -71.98799414105179)"><path d="M-9.2 -120.44 C-7.37 -125.55, -5.54 -130.67, -0.77 -143.98 M-9.2 -120.44 C-6.14 -128.99, -3.08 -137.54, -0.77 -143.98" stroke="#1e1e1e" stroke-width="2" fill="none"></path></g></g><mask></mask><g stroke-linecap="round"><g transform="translate(716.6000671386712 507.7444292011161) rotate(0 -0.3869873122195031 -23.587969726989286)"><path d="M0 0 C-0.13 -7.86, -0.64 -39.31, -0.77 -47.18 M0 0 C-0.13 -7.86, -0.64 -39.31, -0.77 -47.18" stroke="#1e1e1e" stroke-width="2" fill="none"></path></g><g transform="translate(716.6000671386712 507.7444292011161) rotate(0 -0.3869873122195031 -23.587969726989286)"><path d="M7.66 -25.14 C5.61 -30.49, 3.56 -35.84, -0.77 -47.18 M7.66 -25.14 C5.88 -29.79, 4.1 -34.43, -0.77 -47.18" stroke="#1e1e1e" stroke-width="2" fill="none"></path></g><g transform="translate(716.6000671386712 507.7444292011161) rotate(0 -0.3869873122195031 -23.587969726989286)"><path d="M-8.48 -24.88 C-6.61 -30.29, -4.74 -35.7, -0.77 -47.18 M-8.48 -24.88 C-6.85 -29.58, -5.23 -34.28, -0.77 -47.18" stroke="#1e1e1e" stroke-width="2" fill="none"></path></g></g><mask></mask><g stroke-linecap="round"><g transform="translate(428.90288612156746 282.9445329608817) rotate(0 -0.2847950804646757 -81.6161078678922)"><path d="M0 0 C-0.09 -27.21, -0.47 -136.03, -0.57 -163.23 M0 0 C-0.09 -27.21, -0.47 -136.03, -0.57 -163.23" stroke="#1e1e1e" stroke-width="2" fill="none"></path></g><g transform="translate(428.90288612156746 282.9445329608817) rotate(0 -0.2847950804646757 -81.6161078678922)"><path d="M8.06 -139.77 C6.25 -144.7, 4.44 -149.63, -0.57 -163.23 M8.06 -139.77 C5.93 -145.56, 3.8 -151.35, -0.57 -163.23" stroke="#1e1e1e" stroke-width="2" fill="none"></path></g><g transform="translate(428.90288612156746 282.9445329608817) rotate(0 -0.2847950804646757 -81.6161078678922)"><path d="M-9.04 -139.71 C-7.26 -144.65, -5.48 -149.59, -0.57 -163.23 M-9.04 -139.71 C-6.95 -145.51, -4.86 -151.32, -0.57 -163.23" stroke="#1e1e1e" stroke-width="2" fill="none"></path></g></g><mask></mask><g stroke-linecap="round"><g transform="translate(430.27292806076116 394.5444169940848) rotate(0 0.5942776083721242 -20.787920898864286)"><path d="M0 0 C0.2 -6.93, 0.99 -34.65, 1.19 -41.58 M0 0 C0.2 -6.93, 0.99 -34.65, 1.19 -41.58" stroke="#1e1e1e" stroke-width="2" fill="none"></path></g><g transform="translate(430.27292806076116 394.5444169940848) rotate(0 0.5942776083721242 -20.787920898864286)"><path d="M7.74 -21.84 C6 -27.08, 4.26 -32.33, 1.19 -41.58 M7.74 -21.84 C5.44 -28.76, 3.14 -35.69, 1.19 -41.58" stroke="#1e1e1e" stroke-width="2" fill="none"></path></g><g transform="translate(430.27292806076116 394.5444169940848) rotate(0 0.5942776083721242 -20.787920898864286)"><path d="M-6.48 -22.24 C-4.44 -27.38, -2.4 -32.52, 1.19 -41.58 M-6.48 -22.24 C-3.79 -29.03, -1.1 -35.81, 1.19 -41.58" stroke="#1e1e1e" stroke-width="2" fill="none"></path></g></g><mask></mask><g stroke-linecap="round"><g transform="translate(431.00009155273415 511.9445329608817) rotate(0 0.4130004807492469 -23.58800024456741)"><path d="M0 0 C0.14 -7.86, 0.69 -39.31, 0.83 -47.18 M0 0 C0.14 -7.86, 0.69 -39.31, 0.83 -47.18" stroke="#1e1e1e" stroke-width="2" fill="none"></path></g><g transform="translate(431.00009155273415 511.9445329608817) rotate(0 0.4130004807492469 -23.58800024456741)"><path d="M8.51 -24.87 C5.92 -32.37, 3.34 -39.88, 0.83 -47.18 M8.51 -24.87 C6.83 -29.75, 5.15 -34.62, 0.83 -47.18" stroke="#1e1e1e" stroke-width="2" fill="none"></path></g><g transform="translate(431.00009155273415 511.9445329608817) rotate(0 0.4130004807492469 -23.58800024456741)"><path d="M-7.63 -25.15 C-4.78 -32.56, -1.94 -39.97, 0.83 -47.18 M-7.63 -25.15 C-5.78 -29.97, -3.93 -34.78, 0.83 -47.18" stroke="#1e1e1e" stroke-width="2" fill="none"></path></g></g><mask></mask><g stroke-linecap="round"><g transform="translate(289.00009155273415 515.7445512714286) rotate(0 -0.3869873122195031 -196.78798956341507)"><path d="M0 0 C-0.13 -65.6, -0.64 -327.98, -0.77 -393.58 M0 0 C-0.13 -65.6, -0.64 -327.98, -0.77 -393.58" stroke="#1e1e1e" stroke-width="2" fill="none"></path></g><g transform="translate(289.00009155273415 515.7445512714286) rotate(0 -0.3869873122195031 -196.78798956341507)"><path d="M7.82 -370.1 C5.82 -375.56, 3.83 -381.02, -0.77 -393.58 M7.82 -370.1 C5.4 -376.72, 2.97 -383.34, -0.77 -393.58" stroke="#1e1e1e" stroke-width="2" fill="none"></path></g><g transform="translate(289.00009155273415 515.7445512714286) rotate(0 -0.3869873122195031 -196.78798956341507)"><path d="M-9.28 -370.07 C-7.3 -375.53, -5.32 -381, -0.77 -393.58 M-9.28 -370.07 C-6.88 -376.7, -4.48 -383.33, -0.77 -393.58" stroke="#1e1e1e" stroke-width="2" fill="none"></path></g></g><mask></mask><g stroke-linecap="round"><g transform="translate(266.20004272460915 123.54450854681932) rotate(0 -0.7869812087038781 195.2120028071904)"><path d="M0 0 C-0.26 65.07, -1.31 325.35, -1.57 390.42 M0 0 C-0.26 65.07, -1.31 325.35, -1.57 390.42" stroke="#1e1e1e" stroke-width="2" fill="none"></path></g><g transform="translate(266.20004272460915 123.54450854681932) rotate(0 -0.7869812087038781 195.2120028071904)"><path d="M-10.03 366.9 C-7.82 373.06, -5.6 379.21, -1.57 390.42 M-10.03 366.9 C-7.75 373.24, -5.47 379.58, -1.57 390.42" stroke="#1e1e1e" stroke-width="2" fill="none"></path></g><g transform="translate(266.20004272460915 123.54450854681932) rotate(0 -0.7869812087038781 195.2120028071904)"><path d="M7.07 366.97 C4.81 373.11, 2.55 379.25, -1.57 390.42 M7.07 366.97 C4.74 373.29, 2.41 379.61, -1.57 390.42" stroke="#1e1e1e" stroke-width="2" fill="none"></path></g></g><mask></mask><g stroke-linecap="round"><g transform="translate(409.91187251637314 124.75331377363563) rotate(0 0.2798883894745927 78.00761697845022)"><path d="M0 0 C0.09 26, 0.47 130.01, 0.56 156.02 M0 0 C0.09 26, 0.47 130.01, 0.56 156.02" stroke="#1e1e1e" stroke-width="2" fill="none"></path></g><g transform="translate(409.91187251637314 124.75331377363563) rotate(0 0.2798883894745927 78.00761697845022)"><path d="M-8.07 132.55 C-6.01 138.16, -3.95 143.76, 0.56 156.02 M-8.07 132.55 C-5.21 140.34, -2.34 148.13, 0.56 156.02" stroke="#1e1e1e" stroke-width="2" fill="none"></path></g><g transform="translate(409.91187251637314 124.75331377363563) rotate(0 0.2798883894745927 78.00761697845022)"><path d="M9.03 132.49 C7 138.11, 4.98 143.73, 0.56 156.02 M9.03 132.49 C6.22 140.3, 3.41 148.11, 0.56 156.02" stroke="#1e1e1e" stroke-width="2" fill="none"></path></g></g><mask></mask><g stroke-linecap="round"><g transform="translate(694.2001647949219 459.3445268573661) rotate(0 0.4130004807492469 24.412030273010714)"><path d="M0 0 C0.14 8.14, 0.69 40.69, 0.83 48.82 M0 0 C0.14 8.14, 0.69 40.69, 0.83 48.82" stroke="#1e1e1e" stroke-width="2" fill="none"></path></g><g transform="translate(694.2001647949219 459.3445268573661) rotate(0 0.4130004807492469 24.412030273010714)"><path d="M-7.91 26.03 C-5.49 32.35, -3.06 38.68, 0.83 48.82 M-7.91 26.03 C-4.47 35.01, -1.03 43.99, 0.83 48.82" stroke="#1e1e1e" stroke-width="2" fill="none"></path></g><g transform="translate(694.2001647949219 459.3445268573661) rotate(0 0.4130004807492469 24.412030273010714)"><path d="M8.79 25.74 C6.58 32.15, 4.37 38.56, 0.83 48.82 M8.79 25.74 C5.65 34.84, 2.51 43.93, 0.83 48.82" stroke="#1e1e1e" stroke-width="2" fill="none"></path></g></g><mask></mask><g stroke-linecap="round"><g transform="translate(411.4001159667964 462.5444780292411) rotate(0 0.4130004807492469 24.412030273010714)"><path d="M0 0 C0.14 8.14, 0.69 40.69, 0.83 48.82 M0 0 C0.14 8.14, 0.69 40.69, 0.83 48.82" stroke="#1e1e1e" stroke-width="2" fill="none"></path></g><g transform="translate(411.4001159667964 462.5444780292411) rotate(0 0.4130004807492469 24.412030273010714)"><path d="M-7.91 26.03 C-5.49 32.36, -3.06 38.69, 0.83 48.82 M-7.91 26.03 C-4.84 34.04, -1.77 42.06, 0.83 48.82" stroke="#1e1e1e" stroke-width="2" fill="none"></path></g><g transform="translate(411.4001159667964 462.5444780292411) rotate(0 0.4130004807492469 24.412030273010714)"><path d="M8.79 25.74 C6.58 32.15, 4.37 38.56, 0.83 48.82 M8.79 25.74 C5.99 33.86, 3.19 41.97, 0.83 48.82" stroke="#1e1e1e" stroke-width="2" fill="none"></path></g></g><mask></mask><g stroke-linecap="round"><g transform="translate(410.28043011923467 353.9445024433036) rotate(0 -0.12588962742921694 20.01199060015915)"><path d="M0 0 C-0.04 6.67, -0.21 33.35, -0.25 40.02 M0 0 C-0.04 6.67, -0.21 33.35, -0.25 40.02" stroke="#1e1e1e" stroke-width="2" fill="none"></path></g><g transform="translate(410.28043011923467 353.9445024433036) rotate(0 -0.12588962742921694 20.01199060015915)"><path d="M-6.98 21.18 C-5.02 26.67, -3.05 32.17, -0.25 40.02 M-6.98 21.18 C-5.11 26.41, -3.25 31.63, -0.25 40.02" stroke="#1e1e1e" stroke-width="2" fill="none"></path></g><g transform="translate(410.28043011923467 353.9445024433036) rotate(0 -0.12588962742921694 20.01199060015915)"><path d="M6.71 21.26 C4.68 26.73, 2.65 32.21, -0.25 40.02 M6.71 21.26 C4.78 26.47, 2.85 31.67, -0.25 40.02" stroke="#1e1e1e" stroke-width="2" fill="none"></path></g></g><mask></mask><g stroke-linecap="round"><g transform="translate(545.8000793457027 245.7444597186942) rotate(0 0.4130004807492469 20.012021117737277)"><path d="M0 0 C0.14 6.67, 0.69 33.35, 0.83 40.02 M0 0 C0.14 6.67, 0.69 33.35, 0.83 40.02" stroke="#1e1e1e" stroke-width="2" fill="none"></path></g><g transform="translate(545.8000793457027 245.7444597186942) rotate(0 0.4130004807492469 20.012021117737277)"><path d="M-6.41 21.36 C-3.69 28.37, -0.98 35.37, 0.83 40.02 M-6.41 21.36 C-4.68 25.83, -2.94 30.29, 0.83 40.02" stroke="#1e1e1e" stroke-width="2" fill="none"></path></g><g transform="translate(545.8000793457027 245.7444597186942) rotate(0 0.4130004807492469 20.012021117737277)"><path d="M7.28 21.08 C4.86 28.19, 2.43 35.3, 0.83 40.02 M7.28 21.08 C5.74 25.61, 4.19 30.15, 0.83 40.02" stroke="#1e1e1e" stroke-width="2" fill="none"></path></g></g><mask></mask><g stroke-linecap="round"><g transform="translate(545.4000549316402 116.94447192572545) rotate(0 0.4130004807492469 28.412030273010714)"><path d="M0 0 C0.14 9.47, 0.69 47.35, 0.83 56.82 M0 0 C0.14 9.47, 0.69 47.35, 0.83 56.82" stroke="#1e1e1e" stroke-width="2" fill="none"></path></g><g transform="translate(545.4000549316402 116.94447192572545) rotate(0 0.4130004807492469 28.412030273010714)"><path d="M-8.07 33.46 C-5.42 40.4, -2.78 47.34, 0.83 56.82 M-8.07 33.46 C-4.77 42.11, -1.48 50.76, 0.83 56.82" stroke="#1e1e1e" stroke-width="2" fill="none"></path></g><g transform="translate(545.4000549316402 116.94447192572545) rotate(0 0.4130004807492469 28.412030273010714)"><path d="M9.03 33.21 C6.6 40.22, 4.16 47.24, 0.83 56.82 M9.03 33.21 C5.99 41.95, 2.95 50.7, 0.83 56.82" stroke="#1e1e1e" stroke-width="2" fill="none"></path></g></g><mask></mask><g stroke-linecap="round"><g transform="translate(690.6001281738277 120.14446887396764) rotate(0 0.4130004807492469 26.01204400592087)"><path d="M0 0 C0.14 8.67, 0.69 43.35, 0.83 52.02 M0 0 C0.14 8.67, 0.69 43.35, 0.83 52.02" stroke="#1e1e1e" stroke-width="2" fill="none"></path></g><g transform="translate(690.6001281738277 120.14446887396764) rotate(0 0.4130004807492469 26.01204400592087)"><path d="M-8.1 28.67 C-6.03 34.07, -3.97 39.47, 0.83 52.02 M-8.1 28.67 C-5.27 36.08, -2.44 43.49, 0.83 52.02" stroke="#1e1e1e" stroke-width="2" fill="none"></path></g><g transform="translate(690.6001281738277 120.14446887396764) rotate(0 0.4130004807492469 26.01204400592087)"><path d="M9 28.4 C7.11 33.86, 5.22 39.32, 0.83 52.02 M9 28.4 C6.41 35.89, 3.82 43.39, 0.83 52.02" stroke="#1e1e1e" stroke-width="2" fill="none"></path></g></g><mask></mask><g stroke-linecap="round"><g transform="translate(692.0000305175777 244.94447192572545) rotate(0 0.01300658426487189 72.01203637652634)"><path d="M0 0 C0 24, 0.02 120.02, 0.03 144.02 M0 0 C0 24, 0.02 120.02, 0.03 144.02" stroke="#1e1e1e" stroke-width="2" fill="none"></path></g><g transform="translate(692.0000305175777 244.94447192572545) rotate(0 0.01300658426487189 72.01203637652634)"><path d="M-8.53 120.53 C-6.7 125.56, -4.87 130.59, 0.03 144.02 M-8.53 120.53 C-5.58 128.64, -2.63 136.74, 0.03 144.02" stroke="#1e1e1e" stroke-width="2" fill="none"></path></g><g transform="translate(692.0000305175777 244.94447192572545) rotate(0 0.01300658426487189 72.01203637652634)"><path d="M8.57 120.53 C6.74 125.56, 4.91 130.59, 0.03 144.02 M8.57 120.53 C5.62 128.63, 2.68 136.74, 0.03 144.02" stroke="#1e1e1e" stroke-width="2" fill="none"></path></g></g><mask></mask><g stroke-linecap="round"><g transform="translate(551.8000793457027 355.7444597186942) rotate(0 0.01300658426487189 17.6120272212529)"><path d="M0 0 C0 5.87, 0.02 29.35, 0.03 35.22 M0 0 C0 5.87, 0.02 29.35, 0.03 35.22" stroke="#1e1e1e" stroke-width="2" fill="none"></path></g><g transform="translate(551.8000793457027 355.7444597186942) rotate(0 0.01300658426487189 17.6120272212529)"><path d="M-6.01 18.68 C-4.27 23.44, -2.54 28.19, 0.03 35.22 M-6.01 18.68 C-4.44 22.98, -2.87 27.29, 0.03 35.22" stroke="#1e1e1e" stroke-width="2" fill="none"></path></g><g transform="translate(551.8000793457027 355.7444597186942) rotate(0 0.01300658426487189 17.6120272212529)"><path d="M6.04 18.67 C4.31 23.43, 2.58 28.19, 0.03 35.22 M6.04 18.67 C4.47 22.98, 2.91 27.29, 0.03 35.22" stroke="#1e1e1e" stroke-width="2" fill="none"></path></g></g><mask></mask><g stroke-linecap="round"><g transform="translate(723.0000610351562 77.59999847412121) rotate(0 40.41303099832726 -0.6435206894473708)"><path d="M0 0 C13.47 -0.21, 67.36 -1.07, 80.83 -1.29 M0 0 C13.47 -0.21, 67.36 -1.07, 80.83 -1.29" stroke="#2f9e44" stroke-width="2" fill="none"></path></g><g transform="translate(723.0000610351562 77.59999847412121) rotate(0 40.41303099832726 -0.6435206894473708)"><path d="M57.47 7.64 C64.59 4.92, 71.7 2.2, 80.83 -1.29 M57.47 7.64 C62.99 5.53, 68.51 3.42, 80.83 -1.29" stroke="#2f9e44" stroke-width="2" fill="none"></path></g><g transform="translate(723.0000610351562 77.59999847412121) rotate(0 40.41303099832726 -0.6435206894473708)"><path d="M57.2 -9.46 C64.4 -6.97, 71.59 -4.48, 80.83 -1.29 M57.2 -9.46 C62.78 -7.53, 68.37 -5.6, 80.83 -1.29" stroke="#2f9e44" stroke-width="2" fill="none"></path></g></g><mask></mask><g stroke-linecap="round"><g transform="translate(734.4000854492188 197.20003509521484) rotate(0 40.41303099832726 -0.6435206894473708)"><path d="M0 0 C13.47 -0.21, 67.36 -1.07, 80.83 -1.29 M0 0 C13.47 -0.21, 67.36 -1.07, 80.83 -1.29" stroke="#2f9e44" stroke-width="2" fill="none"></path></g><g transform="translate(734.4000854492188 197.20003509521484) rotate(0 40.41303099832726 -0.6435206894473708)"><path d="M57.47 7.64 C65.09 4.72, 72.72 1.81, 80.83 -1.29 M57.47 7.64 C65.7 4.49, 73.92 1.35, 80.83 -1.29" stroke="#2f9e44" stroke-width="2" fill="none"></path></g><g transform="translate(734.4000854492188 197.20003509521484) rotate(0 40.41303099832726 -0.6435206894473708)"><path d="M57.2 -9.46 C64.91 -6.79, 72.62 -4.13, 80.83 -1.29 M57.2 -9.46 C65.52 -6.58, 73.84 -3.71, 80.83 -1.29" stroke="#2f9e44" stroke-width="2" fill="none"></path></g></g><mask></mask><g stroke-linecap="round"><g transform="translate(735.2001342773438 418.0000534057617) rotate(0 40.41303099832726 -0.6435206894473708)"><path d="M0 0 C13.47 -0.21, 67.36 -1.07, 80.83 -1.29 M0 0 C13.47 -0.21, 67.36 -1.07, 80.83 -1.29" stroke="#2f9e44" stroke-width="2" fill="none"></path></g><g transform="translate(735.2001342773438 418.0000534057617) rotate(0 40.41303099832726 -0.6435206894473708)"><path d="M57.47 7.64 C62.21 5.83, 66.94 4.02, 80.83 -1.29 M57.47 7.64 C62.87 5.57, 68.26 3.51, 80.83 -1.29" stroke="#2f9e44" stroke-width="2" fill="none"></path></g><g transform="translate(735.2001342773438 418.0000534057617) rotate(0 40.41303099832726 -0.6435206894473708)"><path d="M57.2 -9.46 C61.99 -7.81, 66.78 -6.15, 80.83 -1.29 M57.2 -9.46 C62.66 -7.57, 68.12 -5.68, 80.83 -1.29" stroke="#2f9e44" stroke-width="2" fill="none"></path></g></g><mask></mask><g stroke-linecap="round"><g transform="translate(738.8001098632812 535.6000289916992) rotate(0 40.41303099832726 -0.6435206894473708)"><path d="M0 0 C13.47 -0.21, 67.36 -1.07, 80.83 -1.29 M0 0 C13.47 -0.21, 67.36 -1.07, 80.83 -1.29" stroke="#2f9e44" stroke-width="2" fill="none"></path></g><g transform="translate(738.8001098632812 535.6000289916992) rotate(0 40.41303099832726 -0.6435206894473708)"><path d="M57.47 7.64 C62.74 5.62, 68.01 3.61, 80.83 -1.29 M57.47 7.64 C63.02 5.52, 68.56 3.4, 80.83 -1.29" stroke="#2f9e44" stroke-width="2" fill="none"></path></g><g transform="translate(738.8001098632812 535.6000289916992) rotate(0 40.41303099832726 -0.6435206894473708)"><path d="M57.2 -9.46 C62.53 -7.62, 67.86 -5.78, 80.83 -1.29 M57.2 -9.46 C62.81 -7.52, 68.42 -5.58, 80.83 -1.29" stroke="#2f9e44" stroke-width="2" fill="none"></path></g></g><mask></mask><g stroke-linecap="round"><g transform="translate(598 308.0000228881836) rotate(0 110.41300048074913 -0.6435206894473708)"><path d="M0 0 C36.8 -0.21, 184.02 -1.07, 220.83 -1.29 M0 0 C36.8 -0.21, 184.02 -1.07, 220.83 -1.29" stroke="#2f9e44" stroke-width="2" fill="none"></path></g><g transform="translate(598 308.0000228881836) rotate(0 110.41300048074913 -0.6435206894473708)"><path d="M197.38 7.4 C206.67 3.96, 215.96 0.52, 220.83 -1.29 M197.38 7.4 C205.91 4.24, 214.43 1.08, 220.83 -1.29" stroke="#2f9e44" stroke-width="2" fill="none"></path></g><g transform="translate(598 308.0000228881836) rotate(0 110.41300048074913 -0.6435206894473708)"><path d="M197.28 -9.7 C206.61 -6.37, 215.94 -3.03, 220.83 -1.29 M197.28 -9.7 C205.84 -6.64, 214.4 -3.58, 220.83 -1.29" stroke="#2f9e44" stroke-width="2" fill="none"></path></g></g><mask></mask><g stroke-linecap="round"><g transform="translate(803.7999877929688 98.80004119873058) rotate(0 -40.78698120870399 0.5564610000057542)"><path d="M0 0 C-13.6 0.19, -67.98 0.93, -81.57 1.11 M0 0 C-13.6 0.19, -67.98 0.93, -81.57 1.11" stroke="#2f9e44" stroke-width="2" fill="none"></path></g><g transform="translate(803.7999877929688 98.80004119873058) rotate(0 -40.78698120870399 0.5564610000057542)"><path d="M-58.2 -7.76 C-63.96 -5.57, -69.72 -3.39, -81.57 1.11 M-58.2 -7.76 C-65.18 -5.11, -72.15 -2.46, -81.57 1.11" stroke="#2f9e44" stroke-width="2" fill="none"></path></g><g transform="translate(803.7999877929688 98.80004119873058) rotate(0 -40.78698120870399 0.5564610000057542)"><path d="M-57.97 9.34 C-63.78 7.32, -69.6 5.29, -81.57 1.11 M-57.97 9.34 C-65.01 6.89, -72.06 4.43, -81.57 1.11" stroke="#2f9e44" stroke-width="2" fill="none"></path></g></g><mask></mask><g stroke-linecap="round"><g transform="translate(816.000122070312 219.20005035400402) rotate(0 -40.78698120870399 0.5564610000057542)"><path d="M0 0 C-13.6 0.19, -67.98 0.93, -81.57 1.11 M0 0 C-13.6 0.19, -67.98 0.93, -81.57 1.11" stroke="#2f9e44" stroke-width="2" fill="none"></path></g><g transform="translate(816.000122070312 219.20005035400402) rotate(0 -40.78698120870399 0.5564610000057542)"><path d="M-58.2 -7.76 C-67.53 -4.22, -76.86 -0.68, -81.57 1.11 M-58.2 -7.76 C-67.21 -4.34, -76.21 -0.92, -81.57 1.11" stroke="#2f9e44" stroke-width="2" fill="none"></path></g><g transform="translate(816.000122070312 219.20005035400402) rotate(0 -40.78698120870399 0.5564610000057542)"><path d="M-57.97 9.34 C-67.39 6.06, -76.81 2.77, -81.57 1.11 M-57.97 9.34 C-67.06 6.17, -76.16 3, -81.57 1.11" stroke="#2f9e44" stroke-width="2" fill="none"></path></g></g><mask></mask><g stroke-linecap="round"><g transform="translate(818.799926757812 333.20000457763683) rotate(0 -109.98690186300087 -0.24352679296299584)"><path d="M0 0 C-36.66 -0.08, -183.31 -0.41, -219.97 -0.49 M0 0 C-36.66 -0.08, -183.31 -0.41, -219.97 -0.49" stroke="#2f9e44" stroke-width="2" fill="none"></path></g><g transform="translate(818.799926757812 333.20000457763683) rotate(0 -109.98690186300087 -0.24352679296299584)"><path d="M-196.46 -8.99 C-205.36 -5.77, -214.26 -2.55, -219.97 -0.49 M-196.46 -8.99 C-203.34 -6.5, -210.21 -4.02, -219.97 -0.49" stroke="#2f9e44" stroke-width="2" fill="none"></path></g><g transform="translate(818.799926757812 333.20000457763683) rotate(0 -109.98690186300087 -0.24352679296299584)"><path d="M-196.5 8.12 C-205.39 4.86, -214.27 1.6, -219.97 -0.49 M-196.5 8.12 C-203.36 5.6, -210.22 3.09, -219.97 -0.49" stroke="#2f9e44" stroke-width="2" fill="none"></path></g></g><mask></mask><g stroke-linecap="round"><g transform="translate(818.000122070312 436.8000717163087) rotate(0 -40.78698120870399 0.5564610000057542)"><path d="M0 0 C-13.6 0.19, -67.98 0.93, -81.57 1.11 M0 0 C-13.6 0.19, -67.98 0.93, -81.57 1.11" stroke="#2f9e44" stroke-width="2" fill="none"></path></g><g transform="translate(818.000122070312 436.8000717163087) rotate(0 -40.78698120870399 0.5564610000057542)"><path d="M-58.2 -7.76 C-63.9 -5.59, -69.61 -3.43, -81.57 1.11 M-58.2 -7.76 C-67.12 -4.37, -76.04 -0.99, -81.57 1.11" stroke="#2f9e44" stroke-width="2" fill="none"></path></g><g transform="translate(818.000122070312 436.8000717163087) rotate(0 -40.78698120870399 0.5564610000057542)"><path d="M-57.97 9.34 C-63.73 7.33, -69.49 5.33, -81.57 1.11 M-57.97 9.34 C-66.98 6.2, -75.99 3.06, -81.57 1.11" stroke="#2f9e44" stroke-width="2" fill="none"></path></g></g><mask></mask><g stroke-linecap="round"><g transform="translate(818.800170898437 553.00008392334) rotate(0 -40.78698120870399 0.5564610000057542)"><path d="M0 0 C-13.6 0.19, -67.98 0.93, -81.57 1.11 M0 0 C-13.6 0.19, -67.98 0.93, -81.57 1.11" stroke="#2f9e44" stroke-width="2" fill="none"></path></g><g transform="translate(818.800170898437 553.00008392334) rotate(0 -40.78698120870399 0.5564610000057542)"><path d="M-58.2 -7.76 C-66.02 -4.79, -73.85 -1.82, -81.57 1.11 M-58.2 -7.76 C-65.11 -5.14, -72.02 -2.51, -81.57 1.11" stroke="#2f9e44" stroke-width="2" fill="none"></path></g><g transform="translate(818.800170898437 553.00008392334) rotate(0 -40.78698120870399 0.5564610000057542)"><path d="M-57.97 9.34 C-65.87 6.59, -73.77 3.83, -81.57 1.11 M-57.97 9.34 C-64.94 6.91, -71.92 4.48, -81.57 1.11" stroke="#2f9e44" stroke-width="2" fill="none"></path></g></g><mask></mask><g stroke-linecap="round"><g transform="translate(92.2001037597654 106.40004730224621) rotate(0 -40.78698120870399 0.5564610000057542)"><path d="M0 0 C-13.6 0.19, -67.98 0.93, -81.57 1.11 M0 0 C-13.6 0.19, -67.98 0.93, -81.57 1.11" stroke="#2f9e44" stroke-width="2" fill="none"></path></g><g transform="translate(92.2001037597654 106.40004730224621) rotate(0 -40.78698120870399 0.5564610000057542)"><path d="M-58.2 -7.76 C-65.63 -4.94, -73.06 -2.12, -81.57 1.11 M-58.2 -7.76 C-63.39 -5.79, -68.57 -3.82, -81.57 1.11" stroke="#2f9e44" stroke-width="2" fill="none"></path></g><g transform="translate(92.2001037597654 106.40004730224621) rotate(0 -40.78698120870399 0.5564610000057542)"><path d="M-57.97 9.34 C-65.47 6.73, -72.98 4.11, -81.57 1.11 M-57.97 9.34 C-63.2 7.52, -68.44 5.69, -81.57 1.11" stroke="#2f9e44" stroke-width="2" fill="none"></path></g></g><mask></mask><g stroke-linecap="round"><g transform="translate(522.8000793457029 223.60002899169933) rotate(0 -255.98697815694618 0.9564701552791917)"><path d="M0 0 C-85.33 0.32, -426.64 1.59, -511.97 1.91 M0 0 C-85.33 0.32, -426.64 1.59, -511.97 1.91" stroke="#2f9e44" stroke-width="2" fill="none"></path></g><g transform="translate(522.8000793457029 223.60002899169933) rotate(0 -255.98697815694618 0.9564701552791917)"><path d="M-488.51 -6.73 C-496.9 -3.64, -505.28 -0.55, -511.97 1.91 M-488.51 -6.73 C-496.28 -3.87, -504.04 -1.01, -511.97 1.91" stroke="#2f9e44" stroke-width="2" fill="none"></path></g><g transform="translate(522.8000793457029 223.60002899169933) rotate(0 -255.98697815694618 0.9564701552791917)"><path d="M-488.45 10.38 C-496.86 7.35, -505.26 4.33, -511.97 1.91 M-488.45 10.38 C-496.24 7.57, -504.02 4.77, -511.97 1.91" stroke="#2f9e44" stroke-width="2" fill="none"></path></g></g><mask></mask><g stroke-linecap="round"><g transform="translate(382.21311034403016 332.1920594632933) rotate(0 -182.39349823374653 0.860413720751751)"><path d="M0 0 C-60.8 0.29, -303.99 1.43, -364.79 1.72 M0 0 C-60.8 0.29, -303.99 1.43, -364.79 1.72" stroke="#2f9e44" stroke-width="2" fill="none"></path></g><g transform="translate(382.21311034403016 332.1920594632933) rotate(0 -182.39349823374653 0.860413720751751)"><path d="M-341.34 -6.94 C-347.98 -4.49, -354.62 -2.03, -364.79 1.72 M-341.34 -6.94 C-348.42 -4.32, -355.5 -1.71, -364.79 1.72" stroke="#2f9e44" stroke-width="2" fill="none"></path></g><g transform="translate(382.21311034403016 332.1920594632933) rotate(0 -182.39349823374653 0.860413720751751)"><path d="M-341.25 10.16 C-347.92 7.77, -354.58 5.38, -364.79 1.72 M-341.25 10.16 C-348.36 7.61, -355.47 5.06, -364.79 1.72" stroke="#2f9e44" stroke-width="2" fill="none"></path></g></g><mask></mask><g stroke-linecap="round"><g transform="translate(380.0000762939451 438.80001068115246) rotate(0 -182.38697205343055 0.15646710352137916)"><path d="M0 0 C-60.8 0.05, -303.98 0.26, -364.77 0.31 M0 0 C-60.8 0.05, -303.98 0.26, -364.77 0.31" stroke="#2f9e44" stroke-width="2" fill="none"></path></g><g transform="translate(380.0000762939451 438.80001068115246) rotate(0 -182.38697205343055 0.15646710352137916)"><path d="M-341.29 -8.26 C-346.05 -6.52, -350.81 -4.78, -364.77 0.31 M-341.29 -8.26 C-347.94 -5.83, -354.6 -3.4, -364.77 0.31" stroke="#2f9e44" stroke-width="2" fill="none"></path></g><g transform="translate(380.0000762939451 438.80001068115246) rotate(0 -182.38697205343055 0.15646710352137916)"><path d="M-341.27 8.84 C-346.04 7.11, -350.8 5.38, -364.77 0.31 M-341.27 8.84 C-347.93 6.43, -354.59 4.01, -364.77 0.31" stroke="#2f9e44" stroke-width="2" fill="none"></path></g></g><mask></mask><g stroke-linecap="round"><g transform="translate(242.40003967285134 558.6000289916993) rotate(0 -110.78696594991493 0.5564610000057542)"><path d="M0 0 C-36.93 0.19, -184.64 0.93, -221.57 1.11 M0 0 C-36.93 0.19, -184.64 0.93, -221.57 1.11" stroke="#2f9e44" stroke-width="2" fill="none"></path></g><g transform="translate(242.40003967285134 558.6000289916993) rotate(0 -110.78696594991493 0.5564610000057542)"><path d="M-198.12 -7.56 C-203.78 -5.47, -209.43 -3.38, -221.57 1.11 M-198.12 -7.56 C-203.33 -5.63, -208.54 -3.71, -221.57 1.11" stroke="#2f9e44" stroke-width="2" fill="none"></path></g><g transform="translate(242.40003967285134 558.6000289916993) rotate(0 -110.78696594991493 0.5564610000057542)"><path d="M-198.04 9.55 C-203.71 7.51, -209.39 5.48, -221.57 1.11 M-198.04 9.55 C-203.26 7.67, -208.49 5.8, -221.57 1.11" stroke="#2f9e44" stroke-width="2" fill="none"></path></g></g><mask></mask><g stroke-linecap="round"><g transform="translate(18.600051879882585 200.6000442504884) rotate(0 251.6130432053585 0.15648236231044166)"><path d="M0 0 C83.87 0.05, 419.36 0.26, 503.23 0.31 M0 0 C83.87 0.05, 419.36 0.26, 503.23 0.31" stroke="#2f9e44" stroke-width="2" fill="none"></path></g><g transform="translate(18.600051879882585 200.6000442504884) rotate(0 251.6130432053585 0.15648236231044166)"><path d="M479.73 8.85 C488.84 5.54, 497.96 2.23, 503.23 0.31 M479.73 8.85 C485.05 6.91, 490.38 4.98, 503.23 0.31" stroke="#2f9e44" stroke-width="2" fill="none"></path></g><g transform="translate(18.600051879882585 200.6000442504884) rotate(0 251.6130432053585 0.15648236231044166)"><path d="M479.74 -8.25 C488.85 -4.93, 497.96 -1.61, 503.23 0.31 M479.74 -8.25 C485.06 -6.31, 490.39 -4.37, 503.23 0.31" stroke="#2f9e44" stroke-width="2" fill="none"></path></g></g><mask></mask><g stroke-linecap="round"><g transform="translate(19.600067138671648 312.40003204345714) rotate(0 180.01305236063195 -0.5750684087757918)"><path d="M0 0 C60 -0.19, 300.02 -0.96, 360.03 -1.15 M0 0 C60 -0.19, 300.02 -0.96, 360.03 -1.15" stroke="#2f9e44" stroke-width="2" fill="none"></path></g><g transform="translate(19.600067138671648 312.40003204345714) rotate(0 180.01305236063195 -0.5750684087757918)"><path d="M336.56 7.48 C342.91 5.14, 349.25 2.81, 360.03 -1.15 M336.56 7.48 C344.39 4.6, 352.22 1.72, 360.03 -1.15" stroke="#2f9e44" stroke-width="2" fill="none"></path></g><g transform="translate(19.600067138671648 312.40003204345714) rotate(0 180.01305236063195 -0.5750684087757918)"><path d="M336.51 -9.63 C342.87 -7.33, 349.23 -5.04, 360.03 -1.15 M336.51 -9.63 C344.35 -6.8, 352.2 -3.97, 360.03 -1.15" stroke="#2f9e44" stroke-width="2" fill="none"></path></g></g><mask></mask><g stroke-linecap="round"><g transform="translate(19.000076293945085 419.0000228881837) rotate(0 179.61302794656945 0.15649762109950416)"><path d="M0 0 C59.87 0.05, 299.36 0.26, 359.23 0.31 M0 0 C59.87 0.05, 299.36 0.26, 359.23 0.31" stroke="#2f9e44" stroke-width="2" fill="none"></path></g><g transform="translate(19.000076293945085 419.0000228881837) rotate(0 179.61302794656945 0.15649762109950416)"><path d="M335.73 8.84 C342.55 6.37, 349.37 3.89, 359.23 0.31 M335.73 8.84 C342.39 6.42, 349.06 4, 359.23 0.31" stroke="#2f9e44" stroke-width="2" fill="none"></path></g><g transform="translate(19.000076293945085 419.0000228881837) rotate(0 179.61302794656945 0.15649762109950416)"><path d="M335.74 -8.26 C342.56 -5.77, 349.38 -3.28, 359.23 0.31 M335.74 -8.26 C342.41 -5.83, 349.07 -3.39, 359.23 0.31" stroke="#2f9e44" stroke-width="2" fill="none"></path></g></g><mask></mask><g stroke-linecap="round"><g transform="translate(28.600051879882585 542.0000228881837) rotate(0 106.01305236063195 -0.6435206894473708)"><path d="M0 0 C35.34 -0.21, 176.69 -1.07, 212.03 -1.29 M0 0 C35.34 -0.21, 176.69 -1.07, 212.03 -1.29" stroke="#2f9e44" stroke-width="2" fill="none"></path></g><g transform="translate(28.600051879882585 542.0000228881837) rotate(0 106.01305236063195 -0.6435206894473708)"><path d="M188.59 7.41 C197.55 4.08, 206.52 0.75, 212.03 -1.29 M188.59 7.41 C195.58 4.81, 202.57 2.22, 212.03 -1.29" stroke="#2f9e44" stroke-width="2" fill="none"></path></g><g transform="translate(28.600051879882585 542.0000228881837) rotate(0 106.01305236063195 -0.6435206894473708)"><path d="M188.48 -9.69 C197.49 -6.48, 206.5 -3.26, 212.03 -1.29 M188.48 -9.69 C195.51 -7.19, 202.53 -4.68, 212.03 -1.29" stroke="#2f9e44" stroke-width="2" fill="none"></path></g></g><mask></mask><g stroke-linecap="round"><g transform="translate(10 86.0000228881836) rotate(0 40.4130309983272 -0.6435206894473708)"><path d="M0 0 C13.47 -0.21, 67.36 -1.07, 80.83 -1.29 M0 0 C13.47 -0.21, 67.36 -1.07, 80.83 -1.29" stroke="#2f9e44" stroke-width="2" fill="none"></path></g><g transform="translate(10 86.0000228881836) rotate(0 40.4130309983272 -0.6435206894473708)"><path d="M57.47 7.64 C64.08 5.11, 70.68 2.59, 80.83 -1.29 M57.47 7.64 C63.08 5.49, 68.69 3.35, 80.83 -1.29" stroke="#2f9e44" stroke-width="2" fill="none"></path></g><g transform="translate(10 86.0000228881836) rotate(0 40.4130309983272 -0.6435206894473708)"><path d="M57.2 -9.46 C63.88 -7.15, 70.56 -4.84, 80.83 -1.29 M57.2 -9.46 C62.88 -7.5, 68.55 -5.53, 80.83 -1.29" stroke="#2f9e44" stroke-width="2" fill="none"></path></g></g><mask></mask><g transform="translate(440.41315306863953 134.1565815444394) rotate(0 46.875 12)"><text x="0" y="0" font-family="Cascadia, Segoe UI Emoji" font-size="20px" fill="#e03131" text-anchor="start" style="white-space: pre;" direction="ltr" dominant-baseline="text-before-edge">first[1]</text></g><g stroke-linecap="round"><g transform="translate(494.61310424051453 155.7564808364316) rotate(0 17.20001220703125 12.400016784667969)"><path d="M0 0 C5.73 4.13, 28.67 20.67, 34.4 24.8 M0 0 C5.73 4.13, 28.67 20.67, 34.4 24.8" stroke="#e03131" stroke-width="2" fill="none"></path></g><g transform="translate(494.61310424051453 155.7564808364316) rotate(0 17.20001220703125 12.400016784667969)"><path d="M14 19.03 C20.5 20.87, 26.99 22.71, 34.4 24.8 M14 19.03 C21.32 21.1, 28.63 23.17, 34.4 24.8" stroke="#e03131" stroke-width="2" fill="none"></path></g><g transform="translate(494.61310424051453 155.7564808364316) rotate(0 17.20001220703125 12.400016784667969)"><path d="M22.48 7.27 C26.28 12.85, 30.07 18.44, 34.4 24.8 M22.48 7.27 C26.75 13.56, 31.03 19.85, 34.4 24.8" stroke="#e03131" stroke-width="2" fill="none"></path></g></g><mask></mask><g transform="translate(298.33807982645203 237.75654187158784) rotate(0 46.875 12)"><text x="0" y="0" font-family="Cascadia, Segoe UI Emoji" font-size="20px" fill="#e03131" text-anchor="start" style="white-space: pre;" direction="ltr" dominant-baseline="text-before-edge">first[2]</text></g><g stroke-linecap="round"><g transform="translate(349.61448326715526 261.35649456934175) rotate(0 16.37314390843062 12.138541218706735)"><path d="M0 0 C5.46 4.05, 27.29 20.23, 32.75 24.28 M0 0 C5.46 4.05, 27.29 20.23, 32.75 24.28" stroke="#e03131" stroke-width="2" fill="none"></path></g><g transform="translate(349.61448326715526 261.35649456934175) rotate(0 16.37314390843062 12.138541218706735)"><path d="M13.21 18.47 C18.72 20.11, 24.24 21.75, 32.75 24.28 M13.21 18.47 C20.06 20.51, 26.91 22.54, 32.75 24.28" stroke="#e03131" stroke-width="2" fill="none"></path></g><g transform="translate(349.61448326715526 261.35649456934175) rotate(0 16.37314390843062 12.138541218706735)"><path d="M21.51 7.27 C24.68 12.07, 27.85 16.87, 32.75 24.28 M21.51 7.27 C25.45 13.23, 29.39 19.2, 32.75 24.28" stroke="#e03131" stroke-width="2" fill="none"></path></g></g><mask></mask><g transform="translate(296.3381408616083 348.75649609522065) rotate(0 46.875 12)"><text x="0" y="0" font-family="Cascadia, Segoe UI Emoji" font-size="20px" fill="#e03131" text-anchor="start" style="white-space: pre;" direction="ltr" dominant-baseline="text-before-edge">first[3]</text></g><g stroke-linecap="round"><g transform="translate(344.5443429634763 377.2179609800296) rotate(0 18.620946489218795 12.131927245337863)"><path d="M0 0 C6.21 4.04, 31.03 20.22, 37.24 24.26 M0 0 C6.21 4.04, 31.03 20.22, 37.24 24.26" stroke="#e03131" stroke-width="2" fill="none"></path></g><g transform="translate(344.5443429634763 377.2179609800296) rotate(0 18.620946489218795 12.131927245337863)"><path d="M15.59 19.23 C23.97 21.18, 32.34 23.12, 37.24 24.26 M15.59 19.23 C23.19 21, 30.79 22.76, 37.24 24.26" stroke="#e03131" stroke-width="2" fill="none"></path></g><g transform="translate(344.5443429634763 377.2179609800296) rotate(0 18.620946489218795 12.131927245337863)"><path d="M23.89 6.49 C29.06 13.37, 34.22 20.24, 37.24 24.26 M23.89 6.49 C28.58 12.73, 33.26 18.97, 37.24 24.26" stroke="#e03131" stroke-width="2" fill="none"></path></g></g><mask></mask><g transform="translate(141.7380737229364 475.95653881983003) rotate(0 46.875 12)"><text x="0" y="0" font-family="Cascadia, Segoe UI Emoji" font-size="20px" fill="#e03131" text-anchor="start" style="white-space: pre;" direction="ltr" dominant-baseline="text-before-edge">first[4]</text></g><g stroke-linecap="round"><g transform="translate(190.9921272337176 502.02459326394523) rotate(0 25.820943437460983 8.931945555884738)"><path d="M0 0 C8.61 2.98, 43.03 14.89, 51.64 17.86 M0 0 C8.61 2.98, 43.03 14.89, 51.64 17.86" stroke="#e03131" stroke-width="2" fill="none"></path></g><g transform="translate(190.9921272337176 502.02459326394523) rotate(0 25.820943437460983 8.931945555884738)"><path d="M26.65 18.26 C33.64 18.15, 40.64 18.04, 51.64 17.86 M26.65 18.26 C32.37 18.17, 38.1 18.08, 51.64 17.86" stroke="#e03131" stroke-width="2" fill="none"></path></g><g transform="translate(190.9921272337176 502.02459326394523) rotate(0 25.820943437460983 8.931945555884738)"><path d="M32.24 2.1 C37.67 6.52, 43.1 10.93, 51.64 17.86 M32.24 2.1 C36.68 5.71, 41.12 9.32, 51.64 17.86" stroke="#e03131" stroke-width="2" fill="none"></path></g></g><mask></mask><g stroke-linecap="round"><g transform="translate(282.5999755859375 61.19994354248047) rotate(0 0.01303710184282636 -24.643528318841902)"><path d="M0 0 C0 -8.21, 0.02 -41.07, 0.03 -49.29 M0 0 C0 -8.21, 0.02 -41.07, 0.03 -49.29" stroke="#2f9e44" stroke-width="2" fill="none"></path></g><g transform="translate(282.5999755859375 61.19994354248047) rotate(0 0.01303710184282636 -24.643528318841902)"><path d="M8.44 -26.13 C6.1 -32.58, 3.75 -39.03, 0.03 -49.29 M8.44 -26.13 C5.19 -35.07, 1.94 -44.02, 0.03 -49.29" stroke="#2f9e44" stroke-width="2" fill="none"></path></g><g transform="translate(282.5999755859375 61.19994354248047) rotate(0 0.01303710184282636 -24.643528318841902)"><path d="M-8.41 -26.13 C-6.06 -32.59, -3.71 -39.04, 0.03 -49.29 M-8.41 -26.13 C-5.15 -35.08, -1.89 -44.02, 0.03 -49.29" stroke="#2f9e44" stroke-width="2" fill="none"></path></g></g><mask></mask><g stroke-linecap="round"><g transform="translate(424.00009155273415 60.600036621093864) rotate(0 0.01303710184282636 -24.643528318841902)"><path d="M0 0 C0 -8.21, 0.02 -41.07, 0.03 -49.29 M0 0 C0 -8.21, 0.02 -41.07, 0.03 -49.29" stroke="#2f9e44" stroke-width="2" fill="none"></path></g><g transform="translate(424.00009155273415 60.600036621093864) rotate(0 0.01303710184282636 -24.643528318841902)"><path d="M8.44 -26.13 C5.66 -33.78, 2.88 -41.43, 0.03 -49.29 M8.44 -26.13 C6.41 -31.73, 4.37 -37.33, 0.03 -49.29" stroke="#2f9e44" stroke-width="2" fill="none"></path></g><g transform="translate(424.00009155273415 60.600036621093864) rotate(0 0.01303710184282636 -24.643528318841902)"><path d="M-8.41 -26.13 C-5.63 -33.79, -2.84 -41.44, 0.03 -49.29 M-8.41 -26.13 C-6.37 -31.74, -4.33 -37.34, 0.03 -49.29" stroke="#2f9e44" stroke-width="2" fill="none"></path></g></g><mask></mask><g stroke-linecap="round"><g transform="translate(709.2001037597654 61.000061035156364) rotate(0 0.013037101842769516 -24.643528318841902)"><path d="M0 0 C0 -8.21, 0.02 -41.07, 0.03 -49.29 M0 0 C0 -8.21, 0.02 -41.07, 0.03 -49.29" stroke="#2f9e44" stroke-width="2" fill="none"></path></g><g transform="translate(709.2001037597654 61.000061035156364) rotate(0 0.013037101842769516 -24.643528318841902)"><path d="M8.44 -26.13 C5.43 -34.43, 2.41 -42.73, 0.03 -49.29 M8.44 -26.13 C5.59 -33.97, 2.74 -41.81, 0.03 -49.29" stroke="#2f9e44" stroke-width="2" fill="none"></path></g><g transform="translate(709.2001037597654 61.000061035156364) rotate(0 0.013037101842769516 -24.643528318841902)"><path d="M-8.41 -26.13 C-5.39 -34.43, -2.36 -42.74, 0.03 -49.29 M-8.41 -26.13 C-5.56 -33.97, -2.7 -41.81, 0.03 -49.29" stroke="#2f9e44" stroke-width="2" fill="none"></path></g></g><mask></mask><g stroke-linecap="round"><g transform="translate(566.8000183105466 60.800048828125) rotate(0 0.01303710184282636 -24.643528318841902)"><path d="M0 0 C0 -8.21, 0.02 -41.07, 0.03 -49.29 M0 0 C0 -8.21, 0.02 -41.07, 0.03 -49.29" stroke="#2f9e44" stroke-width="2" fill="none"></path></g><g transform="translate(566.8000183105466 60.800048828125) rotate(0 0.01303710184282636 -24.643528318841902)"><path d="M8.44 -26.13 C5.58 -33.99, 2.72 -41.86, 0.03 -49.29 M8.44 -26.13 C5.72 -33.61, 3 -41.1, 0.03 -49.29" stroke="#2f9e44" stroke-width="2" fill="none"></path></g><g transform="translate(566.8000183105466 60.800048828125) rotate(0 0.01303710184282636 -24.643528318841902)"><path d="M-8.41 -26.13 C-5.55 -34, -2.68 -41.87, 0.03 -49.29 M-8.41 -26.13 C-5.69 -33.62, -2.96 -41.1, 0.03 -49.29" stroke="#2f9e44" stroke-width="2" fill="none"></path></g></g><mask></mask><g stroke-linecap="round"><g transform="translate(716.2001037597659 629.4000549316406) rotate(0 0.013037101842769516 -24.643528318841902)"><path d="M0 0 C0 -8.21, 0.02 -41.07, 0.03 -49.29 M0 0 C0 -8.21, 0.02 -41.07, 0.03 -49.29" stroke="#2f9e44" stroke-width="2" fill="none"></path></g><g transform="translate(716.2001037597659 629.4000549316406) rotate(0 0.013037101842769516 -24.643528318841902)"><path d="M8.44 -26.13 C5.15 -35.2, 1.85 -44.27, 0.03 -49.29 M8.44 -26.13 C5.52 -34.17, 2.59 -42.22, 0.03 -49.29" stroke="#2f9e44" stroke-width="2" fill="none"></path></g><g transform="translate(716.2001037597659 629.4000549316406) rotate(0 0.013037101842769516 -24.643528318841902)"><path d="M-8.41 -26.13 C-5.11 -35.2, -1.8 -44.27, 0.03 -49.29 M-8.41 -26.13 C-5.48 -34.18, -2.55 -42.22, 0.03 -49.29" stroke="#2f9e44" stroke-width="2" fill="none"></path></g></g><mask></mask><g stroke-linecap="round"><g transform="translate(576.0000915527341 628.2001037597656) rotate(0 -0.7869812087040486 -82.6435283188419)"><path d="M0 0 C-0.26 -27.55, -1.31 -137.74, -1.57 -165.29 M0 0 C-0.26 -27.55, -1.31 -137.74, -1.57 -165.29" stroke="#2f9e44" stroke-width="2" fill="none"></path></g><g transform="translate(576.0000915527341 628.2001037597656) rotate(0 -0.7869812087040486 -82.6435283188419)"><path d="M7.2 -141.88 C4.11 -150.13, 1.01 -158.38, -1.57 -165.29 M7.2 -141.88 C4.39 -149.37, 1.59 -156.86, -1.57 -165.29" stroke="#2f9e44" stroke-width="2" fill="none"></path></g><g transform="translate(576.0000915527341 628.2001037597656) rotate(0 -0.7869812087040486 -82.6435283188419)"><path d="M-9.9 -141.71 C-6.97 -150.02, -4.03 -158.33, -1.57 -165.29 M-9.9 -141.71 C-7.24 -149.26, -4.57 -156.8, -1.57 -165.29" stroke="#2f9e44" stroke-width="2" fill="none"></path></g></g><mask></mask><g stroke-linecap="round"><g transform="translate(433.60006713867165 631.0000610351562) rotate(0 0.01303710184282636 -24.643528318841902)"><path d="M0 0 C0 -8.21, 0.02 -41.07, 0.03 -49.29 M0 0 C0 -8.21, 0.02 -41.07, 0.03 -49.29" stroke="#2f9e44" stroke-width="2" fill="none"></path></g><g transform="translate(433.60006713867165 631.0000610351562) rotate(0 0.01303710184282636 -24.643528318841902)"><path d="M8.44 -26.13 C5.72 -33.61, 3.01 -41.09, 0.03 -49.29 M8.44 -26.13 C6.13 -32.48, 3.82 -38.84, 0.03 -49.29" stroke="#2f9e44" stroke-width="2" fill="none"></path></g><g transform="translate(433.60006713867165 631.0000610351562) rotate(0 0.01303710184282636 -24.643528318841902)"><path d="M-8.41 -26.13 C-5.69 -33.61, -2.96 -41.09, 0.03 -49.29 M-8.41 -26.13 C-6.1 -32.49, -3.78 -38.84, 0.03 -49.29" stroke="#2f9e44" stroke-width="2" fill="none"></path></g></g><mask></mask><g stroke-linecap="round"><g transform="translate(294.60006713867165 633.4000854492188) rotate(0 0.01303710184282636 -24.643528318841902)"><path d="M0 0 C0 -8.21, 0.02 -41.07, 0.03 -49.29 M0 0 C0 -8.21, 0.02 -41.07, 0.03 -49.29" stroke="#2f9e44" stroke-width="2" fill="none"></path></g><g transform="translate(294.60006713867165 633.4000854492188) rotate(0 0.01303710184282636 -24.643528318841902)"><path d="M8.44 -26.13 C5.53 -34.15, 2.61 -42.18, 0.03 -49.29 M8.44 -26.13 C5.56 -34.04, 2.69 -41.96, 0.03 -49.29" stroke="#2f9e44" stroke-width="2" fill="none"></path></g><g transform="translate(294.60006713867165 633.4000854492188) rotate(0 0.01303710184282636 -24.643528318841902)"><path d="M-8.41 -26.13 C-5.49 -34.16, -2.57 -42.18, 0.03 -49.29 M-8.41 -26.13 C-5.53 -34.05, -2.64 -41.97, 0.03 -49.29" stroke="#2f9e44" stroke-width="2" fill="none"></path></g></g><mask></mask><g stroke-linecap="round"><g transform="translate(271.00009155273415 583) rotate(0 0.8130248948115764 24.156459474126848)"><path d="M0 0 C0.27 8.05, 1.36 40.26, 1.63 48.31 M0 0 C0.27 8.05, 1.36 40.26, 1.63 48.31" stroke="#2f9e44" stroke-width="2" fill="none"></path></g><g transform="translate(271.00009155273415 583) rotate(0 0.8130248948115764 24.156459474126848)"><path d="M-7.4 25.89 C-5.11 31.57, -2.83 37.25, 1.63 48.31 M-7.4 25.89 C-4.17 33.92, -0.93 41.96, 1.63 48.31" stroke="#2f9e44" stroke-width="2" fill="none"></path></g><g transform="translate(271.00009155273415 583) rotate(0 0.8130248948115764 24.156459474126848)"><path d="M9.12 25.34 C7.22 31.16, 5.33 36.98, 1.63 48.31 M9.12 25.34 C6.44 33.57, 3.75 41.8, 1.63 48.31" stroke="#2f9e44" stroke-width="2" fill="none"></path></g></g><mask></mask><g stroke-linecap="round"><g transform="translate(408.8000793457029 582.8000488281252) rotate(0 0.8130248948115764 24.156459474126848)"><path d="M0 0 C0.27 8.05, 1.36 40.26, 1.63 48.31 M0 0 C0.27 8.05, 1.36 40.26, 1.63 48.31" stroke="#2f9e44" stroke-width="2" fill="none"></path></g><g transform="translate(408.8000793457029 582.8000488281252) rotate(0 0.8130248948115764 24.156459474126848)"><path d="M-7.4 25.89 C-4.27 33.66, -1.14 41.44, 1.63 48.31 M-7.4 25.89 C-5.36 30.95, -3.32 36.02, 1.63 48.31" stroke="#2f9e44" stroke-width="2" fill="none"></path></g><g transform="translate(408.8000793457029 582.8000488281252) rotate(0 0.8130248948115764 24.156459474126848)"><path d="M9.12 25.34 C6.52 33.3, 3.93 41.27, 1.63 48.31 M9.12 25.34 C7.43 30.52, 5.74 35.71, 1.63 48.31" stroke="#2f9e44" stroke-width="2" fill="none"></path></g></g><mask></mask><g stroke-linecap="round"><g transform="translate(553.0000915527341 463.4000244140627) rotate(0 0.41303099832720136 86.15644421533779)"><path d="M0 0 C0.14 28.72, 0.69 143.59, 0.83 172.31 M0 0 C0.14 28.72, 0.69 143.59, 0.83 172.31" stroke="#2f9e44" stroke-width="2" fill="none"></path></g><g transform="translate(553.0000915527341 463.4000244140627) rotate(0 0.41303099832720136 86.15644421533779)"><path d="M-7.84 148.86 C-5.65 154.78, -3.46 160.7, 0.83 172.31 M-7.84 148.86 C-5.08 156.34, -2.31 163.81, 0.83 172.31" stroke="#2f9e44" stroke-width="2" fill="none"></path></g><g transform="translate(553.0000915527341 463.4000244140627) rotate(0 0.41303099832720136 86.15644421533779)"><path d="M9.26 148.78 C7.13 154.72, 5 160.66, 0.83 172.31 M9.26 148.78 C6.57 156.28, 3.88 163.78, 0.83 172.31" stroke="#2f9e44" stroke-width="2" fill="none"></path></g></g><mask></mask><g stroke-linecap="round"><g transform="translate(690.2001037597654 579.2000732421877) rotate(0 0.8130248948115195 24.156459474126848)"><path d="M0 0 C0.27 8.05, 1.36 40.26, 1.63 48.31 M0 0 C0.27 8.05, 1.36 40.26, 1.63 48.31" stroke="#2f9e44" stroke-width="2" fill="none"></path></g><g transform="translate(690.2001037597654 579.2000732421877) rotate(0 0.8130248948115195 24.156459474126848)"><path d="M-7.4 25.89 C-5.53 30.53, -3.67 35.16, 1.63 48.31 M-7.4 25.89 C-5.57 30.43, -3.74 34.98, 1.63 48.31" stroke="#2f9e44" stroke-width="2" fill="none"></path></g><g transform="translate(690.2001037597654 579.2000732421877) rotate(0 0.8130248948115195 24.156459474126848)"><path d="M9.12 25.34 C7.57 30.09, 6.02 34.84, 1.63 48.31 M9.12 25.34 C7.61 29.99, 6.09 34.64, 1.63 48.31" stroke="#2f9e44" stroke-width="2" fill="none"></path></g></g><mask></mask><g stroke-linecap="round"><g transform="translate(403.4000549316404 11.200103759765625) rotate(0 0.8130248948115764 24.156459474126848)"><path d="M0 0 C0.27 8.05, 1.36 40.26, 1.63 48.31 M0 0 C0.27 8.05, 1.36 40.26, 1.63 48.31" stroke="#2f9e44" stroke-width="2" fill="none"></path></g><g transform="translate(403.4000549316404 11.200103759765625) rotate(0 0.8130248948115764 24.156459474126848)"><path d="M-7.4 25.89 C-4.52 33.04, -1.65 40.18, 1.63 48.31 M-7.4 25.89 C-4.17 33.92, -0.93 41.95, 1.63 48.31" stroke="#2f9e44" stroke-width="2" fill="none"></path></g><g transform="translate(403.4000549316404 11.200103759765625) rotate(0 0.8130248948115764 24.156459474126848)"><path d="M9.12 25.34 C6.73 32.66, 4.35 39.98, 1.63 48.31 M9.12 25.34 C6.44 33.57, 3.75 41.8, 1.63 48.31" stroke="#2f9e44" stroke-width="2" fill="none"></path></g></g><mask></mask><g stroke-linecap="round"><g transform="translate(263.4000549316404 13.600067138671875) rotate(0 0.8130248948115764 24.156459474126848)"><path d="M0 0 C0.27 8.05, 1.36 40.26, 1.63 48.31 M0 0 C0.27 8.05, 1.36 40.26, 1.63 48.31" stroke="#2f9e44" stroke-width="2" fill="none"></path></g><g transform="translate(263.4000549316404 13.600067138671875) rotate(0 0.8130248948115764 24.156459474126848)"><path d="M-7.4 25.89 C-4.52 33.04, -1.64 40.19, 1.63 48.31 M-7.4 25.89 C-5.27 31.18, -3.14 36.46, 1.63 48.31" stroke="#2f9e44" stroke-width="2" fill="none"></path></g><g transform="translate(263.4000549316404 13.600067138671875) rotate(0 0.8130248948115764 24.156459474126848)"><path d="M9.12 25.34 C6.73 32.66, 4.34 39.99, 1.63 48.31 M9.12 25.34 C7.36 30.75, 5.59 36.17, 1.63 48.31" stroke="#2f9e44" stroke-width="2" fill="none"></path></g></g><mask></mask><g stroke-linecap="round"><g transform="translate(546.6000671386716 10) rotate(0 0.8130248948115764 24.156459474126848)"><path d="M0 0 C0.27 8.05, 1.36 40.26, 1.63 48.31 M0 0 C0.27 8.05, 1.36 40.26, 1.63 48.31" stroke="#2f9e44" stroke-width="2" fill="none"></path></g><g transform="translate(546.6000671386716 10) rotate(0 0.8130248948115764 24.156459474126848)"><path d="M-7.4 25.89 C-5.24 31.26, -3.08 36.62, 1.63 48.31 M-7.4 25.89 C-4.04 34.24, -0.68 42.59, 1.63 48.31" stroke="#2f9e44" stroke-width="2" fill="none"></path></g><g transform="translate(546.6000671386716 10) rotate(0 0.8130248948115764 24.156459474126848)"><path d="M9.12 25.34 C7.33 30.83, 5.54 36.33, 1.63 48.31 M9.12 25.34 C6.33 33.89, 3.54 42.45, 1.63 48.31" stroke="#2f9e44" stroke-width="2" fill="none"></path></g></g><mask></mask><g stroke-linecap="round"><g transform="translate(689.2000427246091 10.200042724609375) rotate(0 0.8130248948115195 24.156459474126848)"><path d="M0 0 C0.27 8.05, 1.36 40.26, 1.63 48.31 M0 0 C0.27 8.05, 1.36 40.26, 1.63 48.31" stroke="#2f9e44" stroke-width="2" fill="none"></path></g><g transform="translate(689.2000427246091 10.200042724609375) rotate(0 0.8130248948115195 24.156459474126848)"><path d="M-7.4 25.89 C-5.49 30.64, -3.57 35.39, 1.63 48.31 M-7.4 25.89 C-4.41 33.32, -1.42 40.76, 1.63 48.31" stroke="#2f9e44" stroke-width="2" fill="none"></path></g><g transform="translate(689.2000427246091 10.200042724609375) rotate(0 0.8130248948115195 24.156459474126848)"><path d="M9.12 25.34 C7.54 30.2, 5.95 35.07, 1.63 48.31 M9.12 25.34 C6.64 32.95, 4.15 40.57, 1.63 48.31" stroke="#2f9e44" stroke-width="2" fill="none"></path></g></g><mask></mask></svg>