<svg version="1.1" xmlns="http://www.w3.org/2000/svg" viewBox="0 0 560.1997985839844 450.4000015258789" width="560.1997985839844" height="450.4000015258789">
  <!-- svg-source:excalidraw -->
  
  <defs>
    <style class="style-fonts">
      @font-face {
        font-family: "Virgil";
        src: url("https://excalidraw.com/Virgil.woff2");
      }
      @font-face {
        font-family: "Cascadia";
        src: url("https://excalidraw.com/Cascadia.woff2");
      }
      @font-face {
        font-family: "Assistant";
        src: url("https://excalidraw.com/Assistant-Regular.woff2");
      }
    </style>
    
  </defs>
  <rect x="0" y="0" width="560.1997985839844" height="450.4000015258789" fill="#ffffff"></rect><g stroke-linecap="round" transform="translate(295.3999938964844 53.19996643066406) rotate(0 41.600006103515625 18.800003051757812)"><path d="M9.4 0 C23.19 0, 36.99 0, 73.8 0 C80.07 0, 83.2 3.13, 83.2 9.4 C83.2 13.79, 83.2 18.18, 83.2 28.2 C83.2 34.47, 80.07 37.6, 73.8 37.6 C51.22 37.6, 28.64 37.6, 9.4 37.6 C3.13 37.6, 0 34.47, 0 28.2 C0 21.27, 0 14.33, 0 9.4 C0 3.13, 3.13 0, 9.4 0" stroke="none" stroke-width="0" fill="#ffec99"></path><path d="M9.4 0 C26.62 0, 43.85 0, 73.8 0 M9.4 0 C32.53 0, 55.65 0, 73.8 0 M73.8 0 C80.07 0, 83.2 3.13, 83.2 9.4 M73.8 0 C80.07 0, 83.2 3.13, 83.2 9.4 M83.2 9.4 C83.2 14, 83.2 18.6, 83.2 28.2 M83.2 9.4 C83.2 15.49, 83.2 21.58, 83.2 28.2 M83.2 28.2 C83.2 34.47, 80.07 37.6, 73.8 37.6 M83.2 28.2 C83.2 34.47, 80.07 37.6, 73.8 37.6 M73.8 37.6 C58.33 37.6, 42.86 37.6, 9.4 37.6 M73.8 37.6 C60.85 37.6, 47.9 37.6, 9.4 37.6 M9.4 37.6 C3.13 37.6, 0 34.47, 0 28.2 M9.4 37.6 C3.13 37.6, 0 34.47, 0 28.2 M0 28.2 C0 21.65, 0 15.1, 0 9.4 M0 28.2 C0 24.18, 0 20.16, 0 9.4 M0 9.4 C0 3.13, 3.13 0, 9.4 0 M0 9.4 C0 3.13, 3.13 0, 9.4 0" stroke="#1e1e1e" stroke-width="2" fill="none"></path></g><g transform="translate(331.140625 59.999969482421875) rotate(0 5.859375 12)"><text x="5.859375" y="0" font-family="Cascadia, Segoe UI Emoji" font-size="20px" fill="#1e1e1e" text-anchor="middle" style="white-space: pre;" direction="ltr" dominant-baseline="text-before-edge">c</text></g><g stroke-linecap="round" transform="translate(292.99993896484375 125.59999084472656) rotate(0 41.600006103515625 26.800003051757812)"><path d="M13.4 0 C28.6 0, 43.81 0, 69.8 0 M13.4 0 C27.91 0, 42.42 0, 69.8 0 M69.8 0 C78.73 0, 83.2 4.47, 83.2 13.4 M69.8 0 C78.73 0, 83.2 4.47, 83.2 13.4 M83.2 13.4 C83.2 19.55, 83.2 25.7, 83.2 40.2 M83.2 13.4 C83.2 21.07, 83.2 28.74, 83.2 40.2 M83.2 40.2 C83.2 49.13, 78.73 53.6, 69.8 53.6 M83.2 40.2 C83.2 49.13, 78.73 53.6, 69.8 53.6 M69.8 53.6 C53.33 53.6, 36.85 53.6, 13.4 53.6 M69.8 53.6 C49.83 53.6, 29.85 53.6, 13.4 53.6 M13.4 53.6 C4.47 53.6, 0 49.13, 0 40.2 M13.4 53.6 C4.47 53.6, 0 49.13, 0 40.2 M0 40.2 C0 30.04, 0 19.89, 0 13.4 M0 40.2 C0 31.22, 0 22.24, 0 13.4 M0 13.4 C0 4.47, 4.47 0, 13.4 0 M0 13.4 C0 4.47, 4.47 0, 13.4 0" stroke="#1e1e1e" stroke-width="2" fill="none"></path></g><g stroke-linecap="round" transform="translate(294.7999267578125 218.79991149902344) rotate(0 41.600006103515625 41.20001220703125)"><path d="M20.6 0 C33.73 0, 46.85 0, 62.6 0 C76.33 0, 83.2 6.87, 83.2 20.6 C83.2 29.61, 83.2 38.61, 83.2 61.8 C83.2 75.53, 76.33 82.4, 62.6 82.4 C48.04 82.4, 33.47 82.4, 20.6 82.4 C6.87 82.4, 0 75.53, 0 61.8 C0 52.16, 0 42.52, 0 20.6 C0 6.87, 6.87 0, 20.6 0" stroke="none" stroke-width="0" fill="#b2f2bb"></path><path d="M20.6 0 C29.71 0, 38.83 0, 62.6 0 M20.6 0 C30.74 0, 40.89 0, 62.6 0 M62.6 0 C76.33 0, 83.2 6.87, 83.2 20.6 M62.6 0 C76.33 0, 83.2 6.87, 83.2 20.6 M83.2 20.6 C83.2 30.07, 83.2 39.54, 83.2 61.8 M83.2 20.6 C83.2 35.52, 83.2 50.44, 83.2 61.8 M83.2 61.8 C83.2 75.53, 76.33 82.4, 62.6 82.4 M83.2 61.8 C83.2 75.53, 76.33 82.4, 62.6 82.4 M62.6 82.4 C51.09 82.4, 39.58 82.4, 20.6 82.4 M62.6 82.4 C49.68 82.4, 36.77 82.4, 20.6 82.4 M20.6 82.4 C6.87 82.4, 0 75.53, 0 61.8 M20.6 82.4 C6.87 82.4, 0 75.53, 0 61.8 M0 61.8 C0 46.8, 0 31.81, 0 20.6 M0 61.8 C0 50.43, 0 39.05, 0 20.6 M0 20.6 C0 6.87, 6.87 0, 20.6 0 M0 20.6 C0 6.87, 6.87 0, 20.6 0" stroke="#1e1e1e" stroke-width="2" fill="none"></path></g><g transform="translate(318.8218078613281 247.9999237060547) rotate(0 17.578125 12)"><text x="17.578125" y="0" font-family="Cascadia, Segoe UI Emoji" font-size="20px" fill="#1e1e1e" text-anchor="middle" style="white-space: pre;" direction="ltr" dominant-baseline="text-before-edge">idx</text></g><g stroke-linecap="round" transform="translate(295.20001220703125 343.19996643066406) rotate(0 41.600006103515625 26.800003051757812)"><path d="M13.4 0 C25.75 0, 38.1 0, 69.8 0 M13.4 0 C30.48 0, 47.56 0, 69.8 0 M69.8 0 C78.73 0, 83.2 4.47, 83.2 13.4 M69.8 0 C78.73 0, 83.2 4.47, 83.2 13.4 M83.2 13.4 C83.2 23.78, 83.2 34.15, 83.2 40.2 M83.2 13.4 C83.2 23.55, 83.2 33.7, 83.2 40.2 M83.2 40.2 C83.2 49.13, 78.73 53.6, 69.8 53.6 M83.2 40.2 C83.2 49.13, 78.73 53.6, 69.8 53.6 M69.8 53.6 C48.76 53.6, 27.72 53.6, 13.4 53.6 M69.8 53.6 C54.89 53.6, 39.99 53.6, 13.4 53.6 M13.4 53.6 C4.47 53.6, 0 49.13, 0 40.2 M13.4 53.6 C4.47 53.6, 0 49.13, 0 40.2 M0 40.2 C0 33.11, 0 26.03, 0 13.4 M0 40.2 C0 29.88, 0 19.57, 0 13.4 M0 13.4 C0 4.47, 4.47 0, 13.4 0 M0 13.4 C0 4.47, 4.47 0, 13.4 0" stroke="#1e1e1e" stroke-width="2" fill="none"></path></g><g stroke-linecap="round" transform="translate(428.59991455078125 221.59996032714844) rotate(0 31.20001220703125 40.40002441406253)"><path d="M15.6 0 C26.9 0, 38.21 0, 46.8 0 M15.6 0 C25.79 0, 35.97 0, 46.8 0 M46.8 0 C57.2 0, 62.4 5.2, 62.4 15.6 M46.8 0 C57.2 0, 62.4 5.2, 62.4 15.6 M62.4 15.6 C62.4 27.83, 62.4 40.06, 62.4 65.2 M62.4 15.6 C62.4 34.3, 62.4 53, 62.4 65.2 M62.4 65.2 C62.4 75.6, 57.2 80.8, 46.8 80.8 M62.4 65.2 C62.4 75.6, 57.2 80.8, 46.8 80.8 M46.8 80.8 C35.81 80.8, 24.82 80.8, 15.6 80.8 M46.8 80.8 C37.62 80.8, 28.44 80.8, 15.6 80.8 M15.6 80.8 C5.2 80.8, 0 75.6, 0 65.2 M15.6 80.8 C5.2 80.8, 0 75.6, 0 65.2 M0 65.2 C0 51.55, 0 37.91, 0 15.6 M0 65.2 C0 50.89, 0 36.58, 0 15.6 M0 15.6 C0 5.2, 5.2 0, 15.6 0 M0 15.6 C0 5.2, 5.2 0, 15.6 0" stroke="#1e1e1e" stroke-width="2" fill="none"></path></g><g stroke-linecap="round" transform="translate(172.39993286132812 223.9998779296875) rotate(0 31.20001220703125 40.40002441406253)"><path d="M15.6 0 C25.65 0, 35.7 0, 46.8 0 M15.6 0 C27.92 0, 40.23 0, 46.8 0 M46.8 0 C57.2 0, 62.4 5.2, 62.4 15.6 M46.8 0 C57.2 0, 62.4 5.2, 62.4 15.6 M62.4 15.6 C62.4 32.71, 62.4 49.83, 62.4 65.2 M62.4 15.6 C62.4 35.18, 62.4 54.76, 62.4 65.2 M62.4 65.2 C62.4 75.6, 57.2 80.8, 46.8 80.8 M62.4 65.2 C62.4 75.6, 57.2 80.8, 46.8 80.8 M46.8 80.8 C36.6 80.8, 26.4 80.8, 15.6 80.8 M46.8 80.8 C35.27 80.8, 23.73 80.8, 15.6 80.8 M15.6 80.8 C5.2 80.8, 0 75.6, 0 65.2 M15.6 80.8 C5.2 80.8, 0 75.6, 0 65.2 M0 65.2 C0 48.81, 0 32.42, 0 15.6 M0 65.2 C0 51.6, 0 38, 0 15.6 M0 15.6 C0 5.2, 5.2 0, 15.6 0 M0 15.6 C0 5.2, 5.2 0, 15.6 0" stroke="#1e1e1e" stroke-width="2" fill="none"></path></g><g stroke-linecap="round"><g transform="translate(360.8064996166968 93.19996643066406) rotate(0 18.469894235041806 61.60001373291027)"><path d="M0 0 C6.57 10, 39.8 39.47, 39.39 60 C38.98 80.53, 4.52 112.67, -2.45 123.2 M0 0 C6.57 10, 39.8 39.47, 39.39 60 C38.98 80.53, 4.52 112.67, -2.45 123.2" stroke="#e03131" stroke-width="2" fill="none"></path></g><g transform="translate(360.8064996166968 93.19996643066406) rotate(0 18.469894235041806 61.60001373291027)"><path d="M6.04 99.69 C3.49 106.75, 0.93 113.82, -2.45 123.2 M6.04 99.69 C3.26 107.37, 0.49 115.06, -2.45 123.2" stroke="#e03131" stroke-width="2" fill="none"></path></g><g transform="translate(360.8064996166968 93.19996643066406) rotate(0 18.469894235041806 61.60001373291027)"><path d="M19.17 110.65 C12.67 114.42, 6.17 118.19, -2.45 123.2 M19.17 110.65 C12.1 114.75, 5.03 118.85, -2.45 123.2" stroke="#e03131" stroke-width="2" fill="none"></path></g></g><mask></mask><g stroke-linecap="round"><g transform="translate(349.7901072428199 216.40005493164074) rotate(0 -0.3417678716612613 -18.000045776367216)"><path d="M0 0 C-0.11 -6, -0.57 -30, -0.68 -36 M0 0 C-0.11 -6, -0.57 -30, -0.68 -36" stroke="#e03131" stroke-width="2" fill="none"></path></g><g transform="translate(349.7901072428199 216.40005493164074) rotate(0 -0.3417678716612613 -18.000045776367216)"><path d="M5.79 -19.2 C4.39 -22.84, 2.98 -26.49, -0.68 -36 M5.79 -19.2 C3.21 -25.9, 0.63 -32.6, -0.68 -36" stroke="#e03131" stroke-width="2" fill="none"></path></g><g transform="translate(349.7901072428199 216.40005493164074) rotate(0 -0.3417678716612613 -18.000045776367216)"><path d="M-6.52 -18.97 C-5.25 -22.66, -3.99 -26.35, -0.68 -36 M-6.52 -18.97 C-4.19 -25.76, -1.86 -32.56, -0.68 -36" stroke="#e03131" stroke-width="2" fill="none"></path></g></g><mask></mask><g stroke-linecap="round"><g transform="translate(312.2950853931136 217.19993591308605) rotate(0 -21.59340572835532 -61.60000610351568)"><path d="M0 0 C-7.62 -10.13, -46.11 -40.27, -45.7 -60.8 C-45.28 -81.33, -5.53 -112.8, 2.51 -123.2 M0 0 C-7.62 -10.13, -46.11 -40.27, -45.7 -60.8 C-45.28 -81.33, -5.53 -112.8, 2.51 -123.2" stroke="#e03131" stroke-width="2" fill="none"></path></g><g transform="translate(312.2950853931136 217.19993591308605) rotate(0 -21.59340572835532 -61.60000610351568)"><path d="M-7.81 -100.43 C-4.84 -106.97, -1.88 -113.51, 2.51 -123.2 M-7.81 -100.43 C-4.42 -107.91, -1.03 -115.39, 2.51 -123.2" stroke="#e03131" stroke-width="2" fill="none"></path></g><g transform="translate(312.2950853931136 217.19993591308605) rotate(0 -21.59340572835532 -61.60000610351568)"><path d="M-20.03 -112.39 C-13.56 -115.49, -7.08 -118.6, 2.51 -123.2 M-20.03 -112.39 C-12.63 -115.94, -5.22 -119.49, 2.51 -123.2" stroke="#e03131" stroke-width="2" fill="none"></path></g></g><mask></mask><g stroke-linecap="round"><g transform="translate(322.3583616344197 180.1999969482422) rotate(0 0.1658355368979869 18.29998779296875)"><path d="M0 0 C0.06 6.1, 0.28 30.5, 0.33 36.6 M0 0 C0.06 6.1, 0.28 30.5, 0.33 36.6" stroke="#e03131" stroke-width="2" fill="none"></path></g><g transform="translate(322.3583616344197 180.1999969482422) rotate(0 0.1658355368979869 18.29998779296875)"><path d="M-6.08 19.46 C-3.95 25.16, -1.82 30.86, 0.33 36.6 M-6.08 19.46 C-4.45 23.83, -2.81 28.21, 0.33 36.6" stroke="#e03131" stroke-width="2" fill="none"></path></g><g transform="translate(322.3583616344197 180.1999969482422) rotate(0 0.1658355368979869 18.29998779296875)"><path d="M6.43 19.35 C4.41 25.08, 2.38 30.82, 0.33 36.6 M6.43 19.35 C4.88 23.75, 3.32 28.15, 0.33 36.6" stroke="#e03131" stroke-width="2" fill="none"></path></g></g><mask></mask><g stroke-linecap="round" transform="translate(54.799957275390625 224.19998168945312) rotate(0 31.20001220703125 40.40002441406253)"><path d="M15.6 0 C26.69 0, 37.78 0, 46.8 0 C57.2 0, 62.4 5.2, 62.4 15.6 C62.4 30.12, 62.4 44.65, 62.4 65.2 C62.4 75.6, 57.2 80.8, 46.8 80.8 C36.63 80.8, 26.45 80.8, 15.6 80.8 C5.2 80.8, 0 75.6, 0 65.2 C0 48.28, 0 31.35, 0 15.6 C0 5.2, 5.2 0, 15.6 0" stroke="none" stroke-width="0" fill="#a5d8ff"></path><path d="M15.6 0 C24.33 0, 33.06 0, 46.8 0 M15.6 0 C26.61 0, 37.62 0, 46.8 0 M46.8 0 C57.2 0, 62.4 5.2, 62.4 15.6 M46.8 0 C57.2 0, 62.4 5.2, 62.4 15.6 M62.4 15.6 C62.4 30.3, 62.4 44.99, 62.4 65.2 M62.4 15.6 C62.4 26.31, 62.4 37.03, 62.4 65.2 M62.4 65.2 C62.4 75.6, 57.2 80.8, 46.8 80.8 M62.4 65.2 C62.4 75.6, 57.2 80.8, 46.8 80.8 M46.8 80.8 C36.49 80.8, 26.18 80.8, 15.6 80.8 M46.8 80.8 C39.13 80.8, 31.45 80.8, 15.6 80.8 M15.6 80.8 C5.2 80.8, 0 75.6, 0 65.2 M15.6 80.8 C5.2 80.8, 0 75.6, 0 65.2 M0 65.2 C0 52.86, 0 40.52, 0 15.6 M0 65.2 C0 51.32, 0 37.44, 0 15.6 M0 15.6 C0 5.2, 5.2 0, 15.6 0 M0 15.6 C0 5.2, 5.2 0, 15.6 0" stroke="#1e1e1e" stroke-width="2" fill="none"></path></g><g transform="translate(10 142) rotate(0 46.875 12)"><text x="0" y="0" font-family="Cascadia, Segoe UI Emoji" font-size="20px" fill="#1e1e1e" text-anchor="start" style="white-space: pre;" direction="ltr" dominant-baseline="text-before-edge">first[r]</text></g><g stroke-linecap="round"><g transform="translate(58.599945068359375 168.39999389648438) rotate(0 13.199981689453125 27.599960327148438)"><path d="M0 0 C4.4 9.2, 22 46, 26.4 55.2 M0 0 C4.4 9.2, 22 46, 26.4 55.2" stroke="#1e1e1e" stroke-width="2" fill="none"></path></g><g transform="translate(58.599945068359375 168.39999389648438) rotate(0 13.199981689453125 27.599960327148438)"><path d="M8.55 37.7 C14.05 43.09, 19.55 48.48, 26.4 55.2 M8.55 37.7 C14.58 43.6, 20.6 49.51, 26.4 55.2" stroke="#1e1e1e" stroke-width="2" fill="none"></path></g><g transform="translate(58.599945068359375 168.39999389648438) rotate(0 13.199981689453125 27.599960327148438)"><path d="M23.98 30.32 C24.72 37.98, 25.47 45.65, 26.4 55.2 M23.98 30.32 C24.8 38.72, 25.61 47.12, 26.4 55.2" stroke="#1e1e1e" stroke-width="2" fill="none"></path></g></g><mask></mask><g stroke-linecap="round"><g transform="translate(117.79995727539062 246) rotate(0 88.4000244140625 -22)"><path d="M0 0 C14.53 -7.33, 57.73 -42.19, 87.2 -44 C116.67 -45.81, 161.87 -16.36, 176.8 -10.83 M0 0 C14.53 -7.33, 57.73 -42.19, 87.2 -44 C116.67 -45.81, 161.87 -16.36, 176.8 -10.83" stroke="#e03131" stroke-width="2" fill="none"></path></g><g transform="translate(117.79995727539062 246) rotate(0 88.4000244140625 -22)"><path d="M151.94 -13.45 C158.14 -12.8, 164.34 -12.15, 176.8 -10.83 M151.94 -13.45 C159.88 -12.62, 167.82 -11.78, 176.8 -10.83" stroke="#e03131" stroke-width="2" fill="none"></path></g><g transform="translate(117.79995727539062 246) rotate(0 88.4000244140625 -22)"><path d="M159.44 -28.82 C163.77 -24.33, 168.1 -19.85, 176.8 -10.83 M159.44 -28.82 C164.99 -23.07, 170.53 -17.33, 176.8 -10.83" stroke="#e03131" stroke-width="2" fill="none"></path></g></g><mask></mask><g stroke-linecap="round"><g transform="translate(294.5999450683594 291.1620839776279) rotate(0 -88.39999389648438 6.837870246004911)"><path d="M0 0 C-14.8 5.14, -59.33 33.7, -88.8 30.84 C-118.27 27.98, -162.13 -9.16, -176.8 -17.16 M0 0 C-14.8 5.14, -59.33 33.7, -88.8 30.84 C-118.27 27.98, -162.13 -9.16, -176.8 -17.16" stroke="#e03131" stroke-width="2" fill="none"></path></g><g transform="translate(294.5999450683594 291.1620839776279) rotate(0 -88.39999389648438 6.837870246004911)"><path d="M-152.53 -11.17 C-159.94 -13, -167.35 -14.83, -176.8 -17.16 M-152.53 -11.17 C-160.75 -13.2, -168.98 -15.23, -176.8 -17.16" stroke="#e03131" stroke-width="2" fill="none"></path></g><g transform="translate(294.5999450683594 291.1620839776279) rotate(0 -88.39999389648438 6.837870246004911)"><path d="M-162.06 3.03 C-166.56 -3.14, -171.06 -9.3, -176.8 -17.16 M-162.06 3.03 C-167.05 -3.82, -172.05 -10.66, -176.8 -17.16" stroke="#e03131" stroke-width="2" fill="none"></path></g></g><mask></mask><g stroke-linecap="round"><g transform="translate(293.7999267578125 248.41344884612874) rotate(0 -28.999984741210938 -0.40539448064885164)"><path d="M0 0 C-9.67 -0.14, -48.33 -0.68, -58 -0.81 M0 0 C-9.67 -0.14, -48.33 -0.68, -58 -0.81" stroke="#e03131" stroke-width="2" fill="none"></path></g><g transform="translate(293.7999267578125 248.41344884612874) rotate(0 -28.999984741210938 -0.40539448064885164)"><path d="M-34.39 -9.03 C-42.08 -6.36, -49.76 -3.68, -58 -0.81 M-34.39 -9.03 C-42.33 -6.27, -50.27 -3.5, -58 -0.81" stroke="#e03131" stroke-width="2" fill="none"></path></g><g transform="translate(293.7999267578125 248.41344884612874) rotate(0 -28.999984741210938 -0.40539448064885164)"><path d="M-34.63 8.07 C-42.24 5.18, -49.85 2.29, -58 -0.81 M-34.63 8.07 C-42.49 5.08, -50.35 2.1, -58 -0.81" stroke="#e03131" stroke-width="2" fill="none"></path></g></g><mask></mask><g stroke-linecap="round"><g transform="translate(236.31835247782737 273.5880848802458) rotate(0 28.681678039750807 0.8169237058152987)"><path d="M0 0 C9.56 0.27, 47.8 1.36, 57.36 1.63 M0 0 C9.56 0.27, 47.8 1.36, 57.36 1.63" stroke="#e03131" stroke-width="2" fill="none"></path></g><g transform="translate(236.31835247782737 273.5880848802458) rotate(0 28.681678039750807 0.8169237058152987)"><path d="M33.64 9.51 C40.99 7.07, 48.35 4.63, 57.36 1.63 M33.64 9.51 C38.87 7.77, 44.11 6.04, 57.36 1.63" stroke="#e03131" stroke-width="2" fill="none"></path></g><g transform="translate(236.31835247782737 273.5880848802458) rotate(0 28.681678039750807 0.8169237058152987)"><path d="M34.12 -7.58 C41.33 -4.73, 48.53 -1.87, 57.36 1.63 M34.12 -7.58 C39.25 -5.55, 44.38 -3.51, 57.36 1.63" stroke="#e03131" stroke-width="2" fill="none"></path></g></g><mask></mask><g stroke-linecap="round"><g transform="translate(316.9999694824219 51.59999084472656) rotate(0 0 -20.79999542236328)"><path d="M0 0 C0 -6.93, 0 -34.67, 0 -41.6 M0 0 C0 -6.93, 0 -34.67, 0 -41.6" stroke="#1e1e1e" stroke-width="2" fill="none"></path></g><g transform="translate(316.9999694824219 51.59999084472656) rotate(0 0 -20.79999542236328)"><path d="M7.11 -22.05 C4.61 -28.94, 2.11 -35.82, 0 -41.6 M7.11 -22.05 C4.65 -28.81, 2.19 -35.57, 0 -41.6" stroke="#1e1e1e" stroke-width="2" fill="none"></path></g><g transform="translate(316.9999694824219 51.59999084472656) rotate(0 0 -20.79999542236328)"><path d="M-7.11 -22.05 C-4.61 -28.94, -2.11 -35.82, 0 -41.6 M-7.11 -22.05 C-4.65 -28.81, -2.19 -35.57, 0 -41.6" stroke="#1e1e1e" stroke-width="2" fill="none"></path></g></g><mask></mask><g stroke-linecap="round"><g transform="translate(354.6000061035156 10.799934387207031) rotate(0 -0.4000244140625 20.399978637695312)"><path d="M0 0 C-0.13 6.8, -0.67 34, -0.8 40.8 M0 0 C-0.13 6.8, -0.67 34, -0.8 40.8" stroke="#1e1e1e" stroke-width="2" fill="none"></path></g><g transform="translate(354.6000061035156 10.799934387207031) rotate(0 -0.4000244140625 20.399978637695312)"><path d="M-7.4 21.49 C-5.85 26.02, -4.31 30.55, -0.8 40.8 M-7.4 21.49 C-5.63 26.68, -3.85 31.87, -0.8 40.8" stroke="#1e1e1e" stroke-width="2" fill="none"></path></g><g transform="translate(354.6000061035156 10.799934387207031) rotate(0 -0.4000244140625 20.399978637695312)"><path d="M6.55 21.77 C4.83 26.23, 3.1 30.69, -0.8 40.8 M6.55 21.77 C4.58 26.88, 2.6 32, -0.8 40.8" stroke="#1e1e1e" stroke-width="2" fill="none"></path></g></g><mask></mask><g stroke-linecap="round"><g transform="translate(314.5999450683594 440.4000015258789) rotate(0 0 -20.79999542236328)"><path d="M0 0 C0 -6.93, 0 -34.67, 0 -41.6 M0 0 C0 -6.93, 0 -34.67, 0 -41.6" stroke="#1e1e1e" stroke-width="2" fill="none"></path></g><g transform="translate(314.5999450683594 440.4000015258789) rotate(0 0 -20.79999542236328)"><path d="M7.11 -22.05 C5.22 -27.27, 3.32 -32.48, 0 -41.6 M7.11 -22.05 C4.57 -29.04, 2.03 -36.02, 0 -41.6" stroke="#1e1e1e" stroke-width="2" fill="none"></path></g><g transform="translate(314.5999450683594 440.4000015258789) rotate(0 0 -20.79999542236328)"><path d="M-7.11 -22.05 C-5.22 -27.27, -3.32 -32.48, 0 -41.6 M-7.11 -22.05 C-4.57 -29.04, -2.03 -36.02, 0 -41.6" stroke="#1e1e1e" stroke-width="2" fill="none"></path></g></g><mask></mask><g stroke-linecap="round"><g transform="translate(363.3999938964844 398.7999725341797) rotate(0 -0.4000244140625 20.399978637695312)"><path d="M0 0 C-0.13 6.8, -0.67 34, -0.8 40.8 M0 0 C-0.13 6.8, -0.67 34, -0.8 40.8" stroke="#1e1e1e" stroke-width="2" fill="none"></path></g><g transform="translate(363.3999938964844 398.7999725341797) rotate(0 -0.4000244140625 20.399978637695312)"><path d="M-7.4 21.49 C-5.69 26.49, -3.98 31.5, -0.8 40.8 M-7.4 21.49 C-5.12 28.16, -2.84 34.84, -0.8 40.8" stroke="#1e1e1e" stroke-width="2" fill="none"></path></g><g transform="translate(363.3999938964844 398.7999725341797) rotate(0 -0.4000244140625 20.399978637695312)"><path d="M6.55 21.77 C4.65 26.7, 2.74 31.63, -0.8 40.8 M6.55 21.77 C4.01 28.34, 1.47 34.92, -0.8 40.8" stroke="#1e1e1e" stroke-width="2" fill="none"></path></g></g><mask></mask><g stroke-linecap="round"><g transform="translate(311.9999084472656 375.19991302490234) rotate(0 -0.79998779296875 -108.00000762939453)"><path d="M0 0 C-0.27 -36, -1.33 -180, -1.6 -216 M0 0 C-0.27 -36, -1.33 -180, -1.6 -216" stroke="#1e1e1e" stroke-width="2" fill="none"></path></g><g transform="translate(311.9999084472656 375.19991302490234) rotate(0 -0.79998779296875 -108.00000762939453)"><path d="M7.12 -192.57 C3.84 -201.4, 0.55 -210.22, -1.6 -216 M7.12 -192.57 C4.68 -199.14, 2.23 -205.71, -1.6 -216" stroke="#1e1e1e" stroke-width="2" fill="none"></path></g><g transform="translate(311.9999084472656 375.19991302490234) rotate(0 -0.79998779296875 -108.00000762939453)"><path d="M-9.98 -192.45 C-6.82 -201.32, -3.67 -210.19, -1.6 -216 M-9.98 -192.45 C-7.63 -199.05, -5.28 -205.66, -1.6 -216" stroke="#1e1e1e" stroke-width="2" fill="none"></path></g></g><mask></mask><g stroke-linecap="round"><g transform="translate(363.3998718261719 160.5999526977539) rotate(0 0.800018310546875 107.20001983642578)"><path d="M0 0 C0.27 35.73, 1.33 178.67, 1.6 214.4 M0 0 C0.27 35.73, 1.33 178.67, 1.6 214.4" stroke="#1e1e1e" stroke-width="2" fill="none"></path></g><g transform="translate(363.3998718261719 160.5999526977539) rotate(0 0.800018310546875 107.20001983642578)"><path d="M-7.13 190.97 C-4.25 198.7, -1.37 206.42, 1.6 214.4 M-7.13 190.97 C-5.35 195.73, -3.58 200.49, 1.6 214.4" stroke="#1e1e1e" stroke-width="2" fill="none"></path></g><g transform="translate(363.3998718261719 160.5999526977539) rotate(0 0.800018310546875 107.20001983642578)"><path d="M9.97 190.84 C7.21 198.61, 4.45 206.38, 1.6 214.4 M9.97 190.84 C8.27 195.63, 6.57 200.42, 1.6 214.4" stroke="#1e1e1e" stroke-width="2" fill="none"></path></g></g><mask></mask><g stroke-linecap="round"><g transform="translate(455.5998840332031 283.8000259399414) rotate(0 -117.5999755859375 0.39995574951171875)"><path d="M0 0 C-39.2 0.13, -196 0.67, -235.2 0.8 M0 0 C-39.2 0.13, -196 0.67, -235.2 0.8" stroke="#1e1e1e" stroke-width="2" fill="none"></path></g><g transform="translate(455.5998840332031 283.8000259399414) rotate(0 -117.5999755859375 0.39995574951171875)"><path d="M-211.74 -7.83 C-217.09 -5.86, -222.44 -3.89, -235.2 0.8 M-211.74 -7.83 C-219.8 -4.86, -227.87 -1.9, -235.2 0.8" stroke="#1e1e1e" stroke-width="2" fill="none"></path></g><g transform="translate(455.5998840332031 283.8000259399414) rotate(0 -117.5999755859375 0.39995574951171875)"><path d="M-211.68 9.27 C-217.04 7.34, -222.41 5.41, -235.2 0.8 M-211.68 9.27 C-219.77 6.36, -227.85 3.45, -235.2 0.8" stroke="#1e1e1e" stroke-width="2" fill="none"></path></g></g><mask></mask><g stroke-linecap="round"><g transform="translate(223.39987182617188 238.40009307861328) rotate(0 114.00003051757812 -0.40010833740234375)"><path d="M0 0 C38 -0.13, 190 -0.67, 228 -0.8 M0 0 C38 -0.13, 190 -0.67, 228 -0.8" stroke="#1e1e1e" stroke-width="2" fill="none"></path></g><g transform="translate(223.39987182617188 238.40009307861328) rotate(0 114.00003051757812 -0.40010833740234375)"><path d="M204.54 7.83 C211.26 5.36, 217.99 2.88, 228 -0.8 M204.54 7.83 C211.74 5.18, 218.94 2.53, 228 -0.8" stroke="#1e1e1e" stroke-width="2" fill="none"></path></g><g transform="translate(223.39987182617188 238.40009307861328) rotate(0 114.00003051757812 -0.40010833740234375)"><path d="M204.48 -9.27 C211.22 -6.84, 217.96 -4.41, 228 -0.8 M204.48 -9.27 C211.7 -6.67, 218.91 -4.07, 228 -0.8" stroke="#1e1e1e" stroke-width="2" fill="none"></path></g></g><mask></mask><g stroke-linecap="round"><g transform="translate(493.3998718261719 245.6000518798828) rotate(0 28.39996337890625 -0.0000152587890625)"><path d="M0 0 C9.47 0, 47.33 0, 56.8 0 M0 0 C9.47 0, 47.33 0, 56.8 0" stroke="#1e1e1e" stroke-width="2" fill="none"></path></g><g transform="translate(493.3998718261719 245.6000518798828) rotate(0 28.39996337890625 -0.0000152587890625)"><path d="M33.31 8.55 C38.88 6.52, 44.45 4.5, 56.8 0 M33.31 8.55 C39.7 6.23, 46.08 3.9, 56.8 0" stroke="#1e1e1e" stroke-width="2" fill="none"></path></g><g transform="translate(493.3998718261719 245.6000518798828) rotate(0 28.39996337890625 -0.0000152587890625)"><path d="M33.31 -8.55 C38.88 -6.52, 44.45 -4.5, 56.8 0 M33.31 -8.55 C39.7 -6.23, 46.08 -3.9, 56.8 0" stroke="#1e1e1e" stroke-width="2" fill="none"></path></g></g><mask></mask><g stroke-linecap="round"><g transform="translate(547.0000915527344 279.1999969482422) rotate(0 -26.800079345703125 -0.0000152587890625)"><path d="M0 0 C-8.93 0, -44.67 0, -53.6 0 M0 0 C-8.93 0, -44.67 0, -53.6 0" stroke="#1e1e1e" stroke-width="2" fill="none"></path></g><g transform="translate(547.0000915527344 279.1999969482422) rotate(0 -26.800079345703125 -0.0000152587890625)"><path d="M-30.11 -8.55 C-36.85 -6.1, -43.59 -3.64, -53.6 0 M-30.11 -8.55 C-35.27 -6.67, -40.43 -4.79, -53.6 0" stroke="#1e1e1e" stroke-width="2" fill="none"></path></g><g transform="translate(547.0000915527344 279.1999969482422) rotate(0 -26.800079345703125 -0.0000152587890625)"><path d="M-30.11 8.55 C-36.85 6.1, -43.59 3.64, -53.6 0 M-30.11 8.55 C-35.27 6.67, -40.43 4.79, -53.6 0" stroke="#1e1e1e" stroke-width="2" fill="none"></path></g></g><mask></mask></svg>