<svg version="1.1" xmlns="http://www.w3.org/2000/svg" viewBox="0 0 594.4000854492188 447.1999969482422" width="594.4000854492188" height="447.1999969482422">
  <!-- svg-source:excalidraw -->
  
  <defs>
    <style class="style-fonts">
      @font-face {
        font-family: "Virgil";
        src: url("https://excalidraw.com/Virgil.woff2");
      }
      @font-face {
        font-family: "Cascadia";
        src: url("https://excalidraw.com/Cascadia.woff2");
      }
      @font-face {
        font-family: "Assistant";
        src: url("https://excalidraw.com/Assistant-Regular.woff2");
      }
    </style>
    
  </defs>
  <rect x="0" y="0" width="594.4000854492188" height="447.1999969482422" fill="#ffffff"></rect><g stroke-linecap="round" transform="translate(320.40003967285156 102.00003051757812) rotate(0 38.79998016357422 36.399986267089844)"><path d="M18.2 0 C30.56 0, 42.91 0, 59.4 0 M18.2 0 C29.81 0, 41.41 0, 59.4 0 M59.4 0 C71.53 0, 77.6 6.07, 77.6 18.2 M59.4 0 C71.53 0, 77.6 6.07, 77.6 18.2 M77.6 18.2 C77.6 27.86, 77.6 37.52, 77.6 54.6 M77.6 18.2 C77.6 27.61, 77.6 37.03, 77.6 54.6 M77.6 54.6 C77.6 66.73, 71.53 72.8, 59.4 72.8 M77.6 54.6 C77.6 66.73, 71.53 72.8, 59.4 72.8 M59.4 72.8 C46.97 72.8, 34.53 72.8, 18.2 72.8 M59.4 72.8 C43.68 72.8, 27.95 72.8, 18.2 72.8 M18.2 72.8 C6.07 72.8, 0 66.73, 0 54.6 M18.2 72.8 C6.07 72.8, 0 66.73, 0 54.6 M0 54.6 C0 44.58, 0 34.56, 0 18.2 M0 54.6 C0 40.97, 0 27.34, 0 18.2 M0 18.2 C0 6.07, 6.07 0, 18.2 0 M0 18.2 C0 6.07, 6.07 0, 18.2 0" stroke="#1e1e1e" stroke-width="2" fill="none"></path></g><g transform="translate(335.7625198364258 126.40001678466797) rotate(0 23.4375 12)"><text x="23.4375" y="0" font-family="Cascadia, Segoe UI Emoji" font-size="20px" fill="#1e1e1e" text-anchor="middle" style="white-space: pre;" direction="ltr" dominant-baseline="text-before-edge">U(i)</text></g><g stroke-linecap="round" transform="translate(325.40003204345703 219.6000213623047) rotate(0 34.399986267089844 32.399993896484375)"><path d="M16.2 0 C27.23 0, 38.26 0, 52.6 0 C63.4 0, 68.8 5.4, 68.8 16.2 C68.8 26.44, 68.8 36.68, 68.8 48.6 C68.8 59.4, 63.4 64.8, 52.6 64.8 C39.96 64.8, 27.33 64.8, 16.2 64.8 C5.4 64.8, 0 59.4, 0 48.6 C0 37.22, 0 25.83, 0 16.2 C0 5.4, 5.4 0, 16.2 0" stroke="none" stroke-width="0" fill="#ffffff"></path><path d="M16.2 0 C28.2 0, 40.2 0, 52.6 0 M16.2 0 C26.67 0, 37.14 0, 52.6 0 M52.6 0 C63.4 0, 68.8 5.4, 68.8 16.2 M52.6 0 C63.4 0, 68.8 5.4, 68.8 16.2 M68.8 16.2 C68.8 25.94, 68.8 35.67, 68.8 48.6 M68.8 16.2 C68.8 23.7, 68.8 31.2, 68.8 48.6 M68.8 48.6 C68.8 59.4, 63.4 64.8, 52.6 64.8 M68.8 48.6 C68.8 59.4, 63.4 64.8, 52.6 64.8 M52.6 64.8 C44.19 64.8, 35.78 64.8, 16.2 64.8 M52.6 64.8 C43.67 64.8, 34.74 64.8, 16.2 64.8 M16.2 64.8 C5.4 64.8, 0 59.4, 0 48.6 M16.2 64.8 C5.4 64.8, 0 59.4, 0 48.6 M0 48.6 C0 39.4, 0 30.19, 0 16.2 M0 48.6 C0 36.09, 0 23.58, 0 16.2 M0 16.2 C0 5.4, 5.4 0, 16.2 0 M0 16.2 C0 5.4, 5.4 0, 16.2 0" stroke="#1e1e1e" stroke-width="2" fill="none"></path></g><g transform="translate(353.9406433105469 240.00001525878906) rotate(0 5.859375 12)"><text x="5.859375" y="0" font-family="Cascadia, Segoe UI Emoji" font-size="20px" fill="#1e1e1e" text-anchor="middle" style="white-space: pre;" direction="ltr" dominant-baseline="text-before-edge">i</text></g><g stroke-linecap="round" transform="translate(184.60005950927734 217.20005798339844) rotate(0 34.399986267089844 35.99998474121094)"><path d="M17.2 0 C26.68 0, 36.17 0, 51.6 0 M17.2 0 C26.89 0, 36.57 0, 51.6 0 M51.6 0 C63.07 0, 68.8 5.73, 68.8 17.2 M51.6 0 C63.07 0, 68.8 5.73, 68.8 17.2 M68.8 17.2 C68.8 30.03, 68.8 42.86, 68.8 54.8 M68.8 17.2 C68.8 27.44, 68.8 37.69, 68.8 54.8 M68.8 54.8 C68.8 66.27, 63.07 72, 51.6 72 M68.8 54.8 C68.8 66.27, 63.07 72, 51.6 72 M51.6 72 C43.59 72, 35.59 72, 17.2 72 M51.6 72 C38.9 72, 26.2 72, 17.2 72 M17.2 72 C5.73 72, 0 66.27, 0 54.8 M17.2 72 C5.73 72, 0 66.27, 0 54.8 M0 54.8 C0 42.82, 0 30.85, 0 17.2 M0 54.8 C0 43.42, 0 32.04, 0 17.2 M0 17.2 C0 5.73, 5.73 0, 17.2 0 M0 17.2 C0 5.73, 5.73 0, 17.2 0" stroke="#1e1e1e" stroke-width="2" fill="none"></path></g><g transform="translate(195.5625457763672 241.20004272460938) rotate(0 23.4375 12)"><text x="23.4375" y="0" font-family="Cascadia, Segoe UI Emoji" font-size="20px" fill="#1e1e1e" text-anchor="middle" style="white-space: pre;" direction="ltr" dominant-baseline="text-before-edge">L(i)</text></g><g stroke-linecap="round" transform="translate(466.0000686645508 218.6000518798828) rotate(0 36.399986267089844 35.99998474121094)"><path d="M18 0 C29.98 0, 41.95 0, 54.8 0 M18 0 C31.94 0, 45.89 0, 54.8 0 M54.8 0 C66.8 0, 72.8 6, 72.8 18 M54.8 0 C66.8 0, 72.8 6, 72.8 18 M72.8 18 C72.8 31.3, 72.8 44.6, 72.8 54 M72.8 18 C72.8 31.33, 72.8 44.65, 72.8 54 M72.8 54 C72.8 66, 66.8 72, 54.8 72 M72.8 54 C72.8 66, 66.8 72, 54.8 72 M54.8 72 C47.04 72, 39.29 72, 18 72 M54.8 72 C46.08 72, 37.36 72, 18 72 M18 72 C6 72, 0 66, 0 54 M18 72 C6 72, 0 66, 0 54 M0 54 C0 45.6, 0 37.21, 0 18 M0 54 C0 45.93, 0 37.86, 0 18 M0 18 C0 6, 6 0, 18 0 M0 18 C0 6, 6 0, 18 0" stroke="#1e1e1e" stroke-width="2" fill="none"></path></g><g transform="translate(478.9625549316406 242.60003662109375) rotate(0 23.4375 12)"><text x="23.4375" y="0" font-family="Cascadia, Segoe UI Emoji" font-size="20px" fill="#1e1e1e" text-anchor="middle" style="white-space: pre;" direction="ltr" dominant-baseline="text-before-edge">R(i)</text></g><g stroke-linecap="round" transform="translate(325.60013580322266 334.8000030517578) rotate(0 36.399986267089844 34)"><path d="M17 0 C26.18 0, 35.35 0, 55.8 0 M17 0 C29.68 0, 42.35 0, 55.8 0 M55.8 0 C67.13 0, 72.8 5.67, 72.8 17 M55.8 0 C67.13 0, 72.8 5.67, 72.8 17 M72.8 17 C72.8 27.92, 72.8 38.85, 72.8 51 M72.8 17 C72.8 24.15, 72.8 31.3, 72.8 51 M72.8 51 C72.8 62.33, 67.13 68, 55.8 68 M72.8 51 C72.8 62.33, 67.13 68, 55.8 68 M55.8 68 C43.84 68, 31.88 68, 17 68 M55.8 68 C40.5 68, 25.19 68, 17 68 M17 68 C5.67 68, 0 62.33, 0 51 M17 68 C5.67 68, 0 62.33, 0 51 M0 51 C0 40.6, 0 30.19, 0 17 M0 51 C0 38.11, 0 25.22, 0 17 M0 17 C0 5.67, 5.67 0, 17 0 M0 17 C0 5.67, 5.67 0, 17 0" stroke="#1e1e1e" stroke-width="2" fill="none"></path></g><g transform="translate(338.5626220703125 356.8000030517578) rotate(0 23.4375 12)"><text x="23.4375" y="0" font-family="Cascadia, Segoe UI Emoji" font-size="20px" fill="#1e1e1e" text-anchor="middle" style="white-space: pre;" direction="ltr" dominant-baseline="text-before-edge">D(i)</text></g><g transform="translate(38.799964904785156 238.99996948242188) rotate(0 35.15625 12)"><text x="0" y="0" font-family="Cascadia, Segoe UI Emoji" font-size="20px" fill="#e03131" text-anchor="start" style="white-space: pre;" direction="ltr" dominant-baseline="text-before-edge">col(i)</text></g><g transform="translate(328.40008544921875 42.00006103515625) rotate(0 35.15625 12)"><text x="0" y="0" font-family="Cascadia, Segoe UI Emoji" font-size="20px" fill="#2f9e44" text-anchor="start" style="white-space: pre;" direction="ltr" dominant-baseline="text-before-edge">row(i)</text></g><g stroke-linecap="round" transform="translate(293.20001220703125 10) rotate(0 66.79998779296875 213.5999984741211)"><path d="M0 0 C51.23 0, 102.46 0, 133.6 0 M0 0 C33.01 0, 66.02 0, 133.6 0 M133.6 0 C133.6 157.83, 133.6 315.66, 133.6 427.2 M133.6 0 C133.6 158.14, 133.6 316.28, 133.6 427.2 M133.6 427.2 C89.95 427.2, 46.31 427.2, 0 427.2 M133.6 427.2 C98.77 427.2, 63.94 427.2, 0 427.2 M0 427.2 C0 321.56, 0 215.93, 0 0 M0 427.2 C0 274.8, 0 122.4, 0 0" stroke="#2f9e44" stroke-width="2" fill="none"></path></g><g stroke-linecap="round" transform="translate(10 196.40008544921875) rotate(0 287.2000427246094 53.19999694824219)"><path d="M0 0 C218.48 0, 436.96 0, 574.4 0 M0 0 C163.12 0, 326.23 0, 574.4 0 M574.4 0 C574.4 34.19, 574.4 68.37, 574.4 106.4 M574.4 0 C574.4 22.37, 574.4 44.74, 574.4 106.4 M574.4 106.4 C401.04 106.4, 227.67 106.4, 0 106.4 M574.4 106.4 C355.18 106.4, 135.95 106.4, 0 106.4 M0 106.4 C0 80.04, 0 53.68, 0 0 M0 106.4 C0 81.03, 0 55.65, 0 0" stroke="#e03131" stroke-width="2" fill="none"></path></g><g stroke-linecap="round"><g transform="translate(348.313768791866 176.40005493164068) rotate(0 -0.3843080557064127 20.79998779296872)"><path d="M0 0 C-0.18 9.97, -0.37 19.93, -0.77 41.6 M0 0 C-0.28 15.27, -0.56 30.53, -0.77 41.6" stroke="#1971c2" stroke-width="2" fill="none"></path></g><g transform="translate(348.313768791866 176.40005493164068) rotate(0 -0.3843080557064127 20.79998779296872)"><path d="M-7.52 21.92 C-5.9 26.64, -4.29 31.35, -0.77 41.6 M-7.52 21.92 C-5.04 29.14, -2.56 36.37, -0.77 41.6" stroke="#1971c2" stroke-width="2" fill="none"></path></g><g transform="translate(348.313768791866 176.40005493164068) rotate(0 -0.3843080557064127 20.79998779296872)"><path d="M6.71 22.19 C4.92 26.84, 3.12 31.49, -0.77 41.6 M6.71 22.19 C3.96 29.31, 1.22 36.44, -0.77 41.6" stroke="#1971c2" stroke-width="2" fill="none"></path></g></g><mask></mask><g stroke-linecap="round"><g transform="translate(368.60993734777935 216.4000244140625) rotate(0 -0.48703542924477006 -20)"><path d="M0 0 C-0.25 -10.23, -0.5 -20.45, -0.97 -40 M0 0 C-0.26 -10.62, -0.52 -21.25, -0.97 -40" stroke="#1971c2" stroke-width="2" fill="none"></path></g><g transform="translate(368.60993734777935 216.4000244140625) rotate(0 -0.48703542924477006 -20)"><path d="M6.32 -21.37 C4.46 -26.14, 2.59 -30.9, -0.97 -40 M6.32 -21.37 C4.39 -26.32, 2.45 -31.27, -0.97 -40" stroke="#1971c2" stroke-width="2" fill="none"></path></g><g transform="translate(368.60993734777935 216.4000244140625) rotate(0 -0.48703542924477006 -20)"><path d="M-7.36 -21.04 C-5.72 -25.89, -4.09 -30.74, -0.97 -40 M-7.36 -21.04 C-5.66 -26.08, -3.97 -31.11, -0.97 -40" stroke="#1971c2" stroke-width="2" fill="none"></path></g></g><mask></mask><g stroke-linecap="round"><g transform="translate(322.79998779296875 240.16950669386233) rotate(0 -33.5999755859375 -0.21070733529114705)"><path d="M0 0 C-17.83 -0.11, -35.66 -0.22, -67.2 -0.42 M0 0 C-17.38 -0.11, -34.76 -0.22, -67.2 -0.42" stroke="#1971c2" stroke-width="2" fill="none"></path></g><g transform="translate(322.79998779296875 240.16950669386233) rotate(0 -33.5999755859375 -0.21070733529114705)"><path d="M-43.65 -8.82 C-49.9 -6.59, -56.15 -4.36, -67.2 -0.42 M-43.65 -8.82 C-49.74 -6.65, -55.83 -4.48, -67.2 -0.42" stroke="#1971c2" stroke-width="2" fill="none"></path></g><g transform="translate(322.79998779296875 240.16950669386233) rotate(0 -33.5999755859375 -0.21070733529114705)"><path d="M-43.76 8.28 C-49.98 5.97, -56.2 3.66, -67.2 -0.42 M-43.76 8.28 C-49.82 6.03, -55.89 3.78, -67.2 -0.42" stroke="#1971c2" stroke-width="2" fill="none"></path></g></g><mask></mask><g stroke-linecap="round"><g transform="translate(258 264.8197480094025) rotate(0 32.399993896484375 0.2974979912032154)"><path d="M0 0 C19.47 0.18, 38.94 0.36, 64.8 0.59 M0 0 C15 0.14, 29.99 0.28, 64.8 0.59" stroke="#1971c2" stroke-width="2" fill="none"></path></g><g transform="translate(258 264.8197480094025) rotate(0 32.399993896484375 0.2974979912032154)"><path d="M41.23 8.93 C48.31 6.43, 55.39 3.92, 64.8 0.59 M41.23 8.93 C46.69 7, 52.14 5.07, 64.8 0.59" stroke="#1971c2" stroke-width="2" fill="none"></path></g><g transform="translate(258 264.8197480094025) rotate(0 32.399993896484375 0.2974979912032154)"><path d="M41.39 -8.17 C48.42 -5.54, 55.46 -2.9, 64.8 0.59 M41.39 -8.17 C46.81 -6.14, 52.22 -4.11, 64.8 0.59" stroke="#1971c2" stroke-width="2" fill="none"></path></g></g><mask></mask><g stroke-linecap="round"><g transform="translate(350.72576409555177 286.00006103515625) rotate(0 0.7261889039187963 23.89997100830078)"><path d="M0 0 C0.5 16.31, 0.99 32.63, 1.45 47.8 M0 0 C0.4 13.02, 0.79 26.04, 1.45 47.8" stroke="#1971c2" stroke-width="2" fill="none"></path></g><g transform="translate(350.72576409555177 286.00006103515625) rotate(0 0.7261889039187963 23.89997100830078)"><path d="M-7.4 25.59 C-4.38 33.17, -1.36 40.75, 1.45 47.8 M-7.4 25.59 C-4.99 31.64, -2.58 37.69, 1.45 47.8" stroke="#1971c2" stroke-width="2" fill="none"></path></g><g transform="translate(350.72576409555177 286.00006103515625) rotate(0 0.7261889039187963 23.89997100830078)"><path d="M8.94 25.09 C6.39 32.84, 3.83 40.59, 1.45 47.8 M8.94 25.09 C6.9 31.28, 4.86 37.46, 1.45 47.8" stroke="#1971c2" stroke-width="2" fill="none"></path></g></g><mask></mask><g stroke-linecap="round"><g transform="translate(368.65415660804763 332.40008544921875) rotate(0 -0.9565300219475716 -23.500038146972656)"><path d="M0 0 C-0.71 -17.36, -1.41 -34.73, -1.91 -47 M0 0 C-0.71 -17.4, -1.42 -34.8, -1.91 -47" stroke="#1971c2" stroke-width="2" fill="none"></path></g><g transform="translate(368.65415660804763 332.40008544921875) rotate(0 -0.9565300219475716 -23.500038146972656)"><path d="M7.02 -25.24 C3.72 -33.28, 0.42 -41.32, -1.91 -47 M7.02 -25.24 C3.72 -33.3, 0.41 -41.35, -1.91 -47" stroke="#1971c2" stroke-width="2" fill="none"></path></g><g transform="translate(368.65415660804763 332.40008544921875) rotate(0 -0.9565300219475716 -23.500038146972656)"><path d="M-9.05 -24.59 C-6.41 -32.87, -3.78 -41.15, -1.91 -47 M-9.05 -24.59 C-6.41 -32.89, -3.77 -41.18, -1.91 -47" stroke="#1971c2" stroke-width="2" fill="none"></path></g></g><mask></mask><g stroke-linecap="round"><g transform="translate(395.5999755859375 268.6209273333013) rotate(0 34.000030517578125 0.5139555196449805)"><path d="M0 0 C21.85 0.33, 43.7 0.66, 68 1.03 M0 0 C14.3 0.22, 28.59 0.43, 68 1.03" stroke="#1971c2" stroke-width="2" fill="none"></path></g><g transform="translate(395.5999755859375 268.6209273333013) rotate(0 34.000030517578125 0.5139555196449805)"><path d="M44.38 9.22 C51.97 6.59, 59.56 3.96, 68 1.03 M44.38 9.22 C49.35 7.5, 54.31 5.78, 68 1.03" stroke="#1971c2" stroke-width="2" fill="none"></path></g><g transform="translate(395.5999755859375 268.6209273333013) rotate(0 34.000030517578125 0.5139555196449805)"><path d="M44.64 -7.88 C52.15 -5.02, 59.65 -2.15, 68 1.03 M44.64 -7.88 C49.55 -6, 54.46 -4.13, 68 1.03" stroke="#1971c2" stroke-width="2" fill="none"></path></g></g><mask></mask><g stroke-linecap="round"><g transform="translate(463.4000930786133 246.47956794328468) rotate(0 -33.90005874633789 0.07181869781442174)"><path d="M0 0 C-23.1 0.05, -46.21 0.1, -67.8 0.14 M0 0 C-18.44 0.04, -36.89 0.08, -67.8 0.14" stroke="#1971c2" stroke-width="2" fill="none"></path></g><g transform="translate(463.4000930786133 246.47956794328468) rotate(0 -33.90005874633789 0.07181869781442174)"><path d="M-44.33 -8.46 C-52.33 -5.53, -60.32 -2.6, -67.8 0.14 M-44.33 -8.46 C-50.71 -6.12, -57.1 -3.78, -67.8 0.14" stroke="#1971c2" stroke-width="2" fill="none"></path></g><g transform="translate(463.4000930786133 246.47956794328468) rotate(0 -33.90005874633789 0.07181869781442174)"><path d="M-44.29 8.64 C-52.3 5.75, -60.31 2.85, -67.8 0.14 M-44.29 8.64 C-50.68 6.33, -57.08 4.02, -67.8 0.14" stroke="#1971c2" stroke-width="2" fill="none"></path></g></g><mask></mask></svg>