<svg version="1.1" xmlns="http://www.w3.org/2000/svg" viewBox="0 0 652.3998260498047 181.616508955862" width="652.3998260498047" height="181.616508955862">
  <!-- svg-source:excalidraw -->
  
  <defs>
    <style class="style-fonts">
      @font-face {
        font-family: "Virgil";
        src: url("https://excalidraw.com/Virgil.woff2");
      }
      @font-face {
        font-family: "Cascadia";
        src: url("https://excalidraw.com/Cascadia.woff2");
      }
      @font-face {
        font-family: "Assistant";
        src: url("https://excalidraw.com/Assistant-Regular.woff2");
      }
    </style>
    
  </defs>
  <rect x="0" y="0" width="652.3998260498047" height="181.616508955862" fill="#ffffff"></rect><g stroke-linecap="round" transform="translate(10 68.19697049252994) rotate(0 31.599990844726562 31.304657089045293)"><path d="M63.2 31.3 C63.2 33.12, 63.04 34.96, 62.72 36.74 C62.4 38.53, 61.92 40.31, 61.29 42.01 C60.67 43.71, 59.88 45.39, 58.97 46.96 C58.05 48.53, 56.98 50.04, 55.81 51.43 C54.63 52.81, 53.31 54.12, 51.91 55.29 C50.51 56.45, 48.98 57.51, 47.4 58.42 C45.82 59.32, 44.13 60.1, 42.41 60.72 C40.69 61.34, 38.89 61.82, 37.09 62.13 C35.29 62.45, 33.43 62.61, 31.6 62.61 C29.77 62.61, 27.91 62.45, 26.11 62.13 C24.31 61.82, 22.51 61.34, 20.79 60.72 C19.07 60.1, 17.38 59.32, 15.8 58.42 C14.22 57.51, 12.69 56.45, 11.29 55.29 C9.89 54.12, 8.57 52.81, 7.39 51.43 C6.22 50.04, 5.15 48.53, 4.23 46.96 C3.32 45.39, 2.53 43.71, 1.91 42.01 C1.28 40.31, 0.8 38.53, 0.48 36.74 C0.16 34.96, 0 33.12, 0 31.3 C0 29.49, 0.16 27.65, 0.48 25.87 C0.8 24.08, 1.28 22.3, 1.91 20.6 C2.53 18.9, 3.32 17.22, 4.23 15.65 C5.15 14.08, 6.22 12.57, 7.39 11.18 C8.57 9.79, 9.89 8.49, 11.29 7.32 C12.69 6.16, 14.22 5.1, 15.8 4.19 C17.38 3.29, 19.07 2.51, 20.79 1.89 C22.51 1.27, 24.31 0.79, 26.11 0.48 C27.91 0.16, 29.77 0, 31.6 0 C33.43 0, 35.29 0.16, 37.09 0.48 C38.89 0.79, 40.69 1.27, 42.41 1.89 C44.13 2.51, 45.82 3.29, 47.4 4.19 C48.98 5.1, 50.51 6.16, 51.91 7.32 C53.31 8.49, 54.63 9.79, 55.81 11.18 C56.98 12.57, 58.05 14.08, 58.97 15.65 C59.88 17.22, 60.67 18.9, 61.29 20.6 C61.92 22.3, 62.4 24.08, 62.72 25.87 C63.04 27.65, 63.12 30.4, 63.2 31.3 C63.28 32.21, 63.28 30.4, 63.2 31.3" stroke="none" stroke-width="0" fill="#fa5252"></path><path d="M63.2 31.3 C63.2 33.12, 63.04 34.96, 62.72 36.74 C62.4 38.53, 61.92 40.31, 61.29 42.01 C60.67 43.71, 59.88 45.39, 58.97 46.96 C58.05 48.53, 56.98 50.04, 55.81 51.43 C54.63 52.81, 53.31 54.12, 51.91 55.29 C50.51 56.45, 48.98 57.51, 47.4 58.42 C45.82 59.32, 44.13 60.1, 42.41 60.72 C40.69 61.34, 38.89 61.82, 37.09 62.13 C35.29 62.45, 33.43 62.61, 31.6 62.61 C29.77 62.61, 27.91 62.45, 26.11 62.13 C24.31 61.82, 22.51 61.34, 20.79 60.72 C19.07 60.1, 17.38 59.32, 15.8 58.42 C14.22 57.51, 12.69 56.45, 11.29 55.29 C9.89 54.12, 8.57 52.81, 7.39 51.43 C6.22 50.04, 5.15 48.53, 4.23 46.96 C3.32 45.39, 2.53 43.71, 1.91 42.01 C1.28 40.31, 0.8 38.53, 0.48 36.74 C0.16 34.96, 0 33.12, 0 31.3 C0 29.49, 0.16 27.65, 0.48 25.87 C0.8 24.08, 1.28 22.3, 1.91 20.6 C2.53 18.9, 3.32 17.22, 4.23 15.65 C5.15 14.08, 6.22 12.57, 7.39 11.18 C8.57 9.79, 9.89 8.49, 11.29 7.32 C12.69 6.16, 14.22 5.1, 15.8 4.19 C17.38 3.29, 19.07 2.51, 20.79 1.89 C22.51 1.27, 24.31 0.79, 26.11 0.48 C27.91 0.16, 29.77 0, 31.6 0 C33.43 0, 35.29 0.16, 37.09 0.48 C38.89 0.79, 40.69 1.27, 42.41 1.89 C44.13 2.51, 45.82 3.29, 47.4 4.19 C48.98 5.1, 50.51 6.16, 51.91 7.32 C53.31 8.49, 54.63 9.79, 55.81 11.18 C56.98 12.57, 58.05 14.08, 58.97 15.65 C59.88 17.22, 60.67 18.9, 61.29 20.6 C61.92 22.3, 62.4 24.08, 62.72 25.87 C63.04 27.65, 63.12 30.4, 63.2 31.3 C63.28 32.21, 63.28 30.4, 63.2 31.3" stroke="#1e1e1e" stroke-width="2" fill="none"></path></g><g transform="translate(35.34819647048761 86.2408922711918) rotate(0 6.4072265625 13.125)"><text x="6.4072265625" y="0" font-family="Cascadia, Segoe UI Emoji" font-size="21.874999999999996px" fill="#ffffff" text-anchor="middle" style="white-space: pre;" direction="ltr" dominant-baseline="text-before-edge">0</text></g><g stroke-linecap="round" transform="translate(160.8000030517578 70.55961087605499) rotate(0 29.599990844726562 29.32334910431402)"><path d="M59.2 29.32 C59.2 31.02, 59.05 32.74, 58.75 34.42 C58.45 36.09, 58 37.76, 57.41 39.35 C56.83 40.95, 56.09 42.52, 55.23 43.99 C54.38 45.45, 53.38 46.87, 52.27 48.17 C51.17 49.47, 49.94 50.7, 48.63 51.79 C47.31 52.88, 45.88 53.87, 44.4 54.72 C42.92 55.57, 41.33 56.3, 39.72 56.88 C38.11 57.46, 36.43 57.91, 34.74 58.2 C33.05 58.5, 31.31 58.65, 29.6 58.65 C27.89 58.65, 26.15 58.5, 24.46 58.2 C22.77 57.91, 21.09 57.46, 19.48 56.88 C17.87 56.3, 16.28 55.57, 14.8 54.72 C13.32 53.87, 11.89 52.88, 10.57 51.79 C9.26 50.7, 8.03 49.47, 6.93 48.17 C5.82 46.87, 4.82 45.45, 3.97 43.99 C3.11 42.52, 2.37 40.95, 1.79 39.35 C1.2 37.76, 0.75 36.09, 0.45 34.42 C0.15 32.74, 0 31.02, 0 29.32 C0 27.63, 0.15 25.9, 0.45 24.23 C0.75 22.56, 1.2 20.89, 1.79 19.29 C2.37 17.7, 3.11 16.13, 3.97 14.66 C4.82 13.19, 5.82 11.77, 6.93 10.47 C8.03 9.17, 9.26 7.95, 10.57 6.86 C11.89 5.77, 13.32 4.78, 14.8 3.93 C16.28 3.08, 17.87 2.35, 19.48 1.77 C21.09 1.19, 22.77 0.74, 24.46 0.45 C26.15 0.15, 27.89 0, 29.6 0 C31.31 0, 33.05 0.15, 34.74 0.45 C36.43 0.74, 38.11 1.19, 39.72 1.77 C41.33 2.35, 42.92 3.08, 44.4 3.93 C45.88 4.78, 47.31 5.77, 48.63 6.86 C49.94 7.95, 51.17 9.17, 52.27 10.47 C53.38 11.77, 54.38 13.19, 55.23 14.66 C56.09 16.13, 56.83 17.7, 57.41 19.29 C58 20.89, 58.45 22.56, 58.75 24.23 C59.05 25.9, 59.13 28.47, 59.2 29.32 C59.27 30.17, 59.27 28.47, 59.2 29.32" stroke="#1e1e1e" stroke-width="2" fill="none"></path></g><g transform="translate(184.61026464711847 87.64822098160806) rotate(0 5.859375 12)"><text x="5.859375" y="0" font-family="Cascadia, Segoe UI Emoji" font-size="20px" fill="#1e1e1e" text-anchor="middle" style="white-space: pre;" direction="ltr" dominant-baseline="text-before-edge">1</text></g><g stroke-linecap="round"><g transform="translate(75.66922311174312 91.07703522953165) rotate(0 42.78595222436303 -0.19982823457905852)"><path d="M0 0 C14.26 -0.07, 71.31 -0.33, 85.57 -0.4 M0 0 C14.26 -0.07, 71.31 -0.33, 85.57 -0.4" stroke="#1e1e1e" stroke-width="2" fill="none"></path></g><g transform="translate(75.66922311174312 91.07703522953165) rotate(0 42.78595222436303 -0.19982823457905852)"><path d="M62.12 8.26 C68.69 5.83, 75.26 3.41, 85.57 -0.4 M62.12 8.26 C70.76 5.07, 79.41 1.88, 85.57 -0.4" stroke="#1e1e1e" stroke-width="2" fill="none"></path></g><g transform="translate(75.66922311174312 91.07703522953165) rotate(0 42.78595222436303 -0.19982823457905852)"><path d="M62.04 -8.84 C68.63 -6.48, 75.22 -4.11, 85.57 -0.4 M62.04 -8.84 C70.71 -5.73, 79.39 -2.62, 85.57 -0.4" stroke="#1e1e1e" stroke-width="2" fill="none"></path></g></g><mask></mask><g stroke-linecap="round" transform="translate(301.9999542236328 68.88295998036898) rotate(0 29.599990844726562 29.32334910431402)"><path d="M59.2 29.32 C59.2 31.02, 59.05 32.74, 58.75 34.42 C58.45 36.09, 58 37.76, 57.41 39.35 C56.83 40.95, 56.09 42.52, 55.23 43.99 C54.38 45.45, 53.38 46.87, 52.27 48.17 C51.17 49.47, 49.94 50.7, 48.63 51.79 C47.31 52.88, 45.88 53.87, 44.4 54.72 C42.92 55.57, 41.33 56.3, 39.72 56.88 C38.11 57.46, 36.43 57.91, 34.74 58.2 C33.05 58.5, 31.31 58.65, 29.6 58.65 C27.89 58.65, 26.15 58.5, 24.46 58.2 C22.77 57.91, 21.09 57.46, 19.48 56.88 C17.87 56.3, 16.28 55.57, 14.8 54.72 C13.32 53.87, 11.89 52.88, 10.57 51.79 C9.26 50.7, 8.03 49.47, 6.93 48.17 C5.82 46.87, 4.82 45.45, 3.97 43.99 C3.11 42.52, 2.37 40.95, 1.79 39.35 C1.2 37.76, 0.75 36.09, 0.45 34.42 C0.15 32.74, 0 31.02, 0 29.32 C0 27.63, 0.15 25.9, 0.45 24.23 C0.75 22.56, 1.2 20.89, 1.79 19.29 C2.37 17.7, 3.11 16.13, 3.97 14.66 C4.82 13.19, 5.82 11.77, 6.93 10.47 C8.03 9.17, 9.26 7.95, 10.57 6.86 C11.89 5.77, 13.32 4.78, 14.8 3.93 C16.28 3.08, 17.87 2.35, 19.48 1.77 C21.09 1.19, 22.77 0.74, 24.46 0.45 C26.15 0.15, 27.89 0, 29.6 0 C31.31 0, 33.05 0.15, 34.74 0.45 C36.43 0.74, 38.11 1.19, 39.72 1.77 C41.33 2.35, 42.92 3.08, 44.4 3.93 C45.88 4.78, 47.31 5.77, 48.63 6.86 C49.94 7.95, 51.17 9.17, 52.27 10.47 C53.38 11.77, 54.38 13.19, 55.23 14.66 C56.09 16.13, 56.83 17.7, 57.41 19.29 C58 20.89, 58.45 22.56, 58.75 24.23 C59.05 25.9, 59.13 28.47, 59.2 29.32 C59.27 30.17, 59.27 28.47, 59.2 29.32" stroke="#1e1e1e" stroke-width="2" fill="none"></path></g><g transform="translate(325.81021581899347 85.97157008592205) rotate(0 5.859375 12)"><text x="5.859375" y="0" font-family="Cascadia, Segoe UI Emoji" font-size="20px" fill="#1e1e1e" text-anchor="middle" style="white-space: pre;" direction="ltr" dominant-baseline="text-before-edge">2</text></g><g stroke-linecap="round" transform="translate(445.59999084472656 66.4829660838846) rotate(0 29.599990844726562 29.32334910431402)"><path d="M59.2 29.32 C59.2 31.02, 59.05 32.74, 58.75 34.42 C58.45 36.09, 58 37.76, 57.41 39.35 C56.83 40.95, 56.09 42.52, 55.23 43.99 C54.38 45.45, 53.38 46.87, 52.27 48.17 C51.17 49.47, 49.94 50.7, 48.63 51.79 C47.31 52.88, 45.88 53.87, 44.4 54.72 C42.92 55.57, 41.33 56.3, 39.72 56.88 C38.11 57.46, 36.43 57.91, 34.74 58.2 C33.05 58.5, 31.31 58.65, 29.6 58.65 C27.89 58.65, 26.15 58.5, 24.46 58.2 C22.77 57.91, 21.09 57.46, 19.48 56.88 C17.87 56.3, 16.28 55.57, 14.8 54.72 C13.32 53.87, 11.89 52.88, 10.57 51.79 C9.26 50.7, 8.03 49.47, 6.93 48.17 C5.82 46.87, 4.82 45.45, 3.97 43.99 C3.11 42.52, 2.37 40.95, 1.79 39.35 C1.2 37.76, 0.75 36.09, 0.45 34.42 C0.15 32.74, 0 31.02, 0 29.32 C0 27.63, 0.15 25.9, 0.45 24.23 C0.75 22.56, 1.2 20.89, 1.79 19.29 C2.37 17.7, 3.11 16.13, 3.97 14.66 C4.82 13.19, 5.82 11.77, 6.93 10.47 C8.03 9.17, 9.26 7.95, 10.57 6.86 C11.89 5.77, 13.32 4.78, 14.8 3.93 C16.28 3.08, 17.87 2.35, 19.48 1.77 C21.09 1.19, 22.77 0.74, 24.46 0.45 C26.15 0.15, 27.89 0, 29.6 0 C31.31 0, 33.05 0.15, 34.74 0.45 C36.43 0.74, 38.11 1.19, 39.72 1.77 C41.33 2.35, 42.92 3.08, 44.4 3.93 C45.88 4.78, 47.31 5.77, 48.63 6.86 C49.94 7.95, 51.17 9.17, 52.27 10.47 C53.38 11.77, 54.38 13.19, 55.23 14.66 C56.09 16.13, 56.83 17.7, 57.41 19.29 C58 20.89, 58.45 22.56, 58.75 24.23 C59.05 25.9, 59.13 28.47, 59.2 29.32 C59.27 30.17, 59.27 28.47, 59.2 29.32" stroke="#1e1e1e" stroke-width="2" fill="none"></path></g><g transform="translate(469.4102524400872 83.57157618943768) rotate(0 5.859375 12)"><text x="5.859375" y="0" font-family="Cascadia, Segoe UI Emoji" font-size="20px" fill="#1e1e1e" text-anchor="middle" style="white-space: pre;" direction="ltr" dominant-baseline="text-before-edge">3</text></g><g stroke-linecap="round"><g transform="translate(221.0695440066538 90.6300459828364) rotate(0 39.19487133681548 -0.23615306397778113)"><path d="M0 0 C13.06 -0.08, 65.32 -0.39, 78.39 -0.47 M0 0 C13.06 -0.08, 65.32 -0.39, 78.39 -0.47" stroke="#1e1e1e" stroke-width="2" fill="none"></path></g><g transform="translate(221.0695440066538 90.6300459828364) rotate(0 39.19487133681548 -0.23615306397778113)"><path d="M54.95 8.22 C62.4 5.46, 69.85 2.69, 78.39 -0.47 M54.95 8.22 C61.61 5.75, 68.27 3.28, 78.39 -0.47" stroke="#1e1e1e" stroke-width="2" fill="none"></path></g><g transform="translate(221.0695440066538 90.6300459828364) rotate(0 39.19487133681548 -0.23615306397778113)"><path d="M54.85 -8.88 C62.33 -6.21, 69.82 -3.53, 78.39 -0.47 M54.85 -8.88 C61.54 -6.49, 68.22 -4.1, 78.39 -0.47" stroke="#1e1e1e" stroke-width="2" fill="none"></path></g></g><mask></mask><g stroke-linecap="round"><g transform="translate(360.56878939294506 88.4381683024406) rotate(0 41.61304320535851 -0.2340061346239395)"><path d="M0 0 C13.87 -0.08, 69.36 -0.39, 83.23 -0.47 M0 0 C13.87 -0.08, 69.36 -0.39, 83.23 -0.47" stroke="#1e1e1e" stroke-width="2" fill="none"></path></g><g transform="translate(360.56878939294506 88.4381683024406) rotate(0 41.61304320535851 -0.2340061346239395)"><path d="M59.78 8.21 C65.25 6.19, 70.72 4.16, 83.23 -0.47 M59.78 8.21 C65.81 5.98, 71.85 3.75, 83.23 -0.47" stroke="#1e1e1e" stroke-width="2" fill="none"></path></g><g transform="translate(360.56878939294506 88.4381683024406) rotate(0 41.61304320535851 -0.2340061346239395)"><path d="M59.69 -8.89 C65.18 -6.92, 70.67 -4.96, 83.23 -0.47 M59.69 -8.89 C65.74 -6.72, 71.8 -4.55, 83.23 -0.47" stroke="#1e1e1e" stroke-width="2" fill="none"></path></g></g><mask></mask><g stroke-linecap="round" transform="translate(583.1998443603516 67.68297829091586) rotate(0 29.599990844726562 29.32334910431402)"><path d="M59.2 29.32 C59.2 31.02, 59.05 32.74, 58.75 34.42 C58.45 36.09, 58 37.76, 57.41 39.35 C56.83 40.95, 56.09 42.52, 55.23 43.99 C54.38 45.45, 53.38 46.87, 52.27 48.17 C51.17 49.47, 49.94 50.7, 48.63 51.79 C47.31 52.88, 45.88 53.87, 44.4 54.72 C42.92 55.57, 41.33 56.3, 39.72 56.88 C38.11 57.46, 36.43 57.91, 34.74 58.2 C33.05 58.5, 31.31 58.65, 29.6 58.65 C27.89 58.65, 26.15 58.5, 24.46 58.2 C22.77 57.91, 21.09 57.46, 19.48 56.88 C17.87 56.3, 16.28 55.57, 14.8 54.72 C13.32 53.87, 11.89 52.88, 10.57 51.79 C9.26 50.7, 8.03 49.47, 6.93 48.17 C5.82 46.87, 4.82 45.45, 3.97 43.99 C3.11 42.52, 2.37 40.95, 1.79 39.35 C1.2 37.76, 0.75 36.09, 0.45 34.42 C0.15 32.74, 0 31.02, 0 29.32 C0 27.63, 0.15 25.9, 0.45 24.23 C0.75 22.56, 1.2 20.89, 1.79 19.29 C2.37 17.7, 3.11 16.13, 3.97 14.66 C4.82 13.19, 5.82 11.77, 6.93 10.47 C8.03 9.17, 9.26 7.95, 10.57 6.86 C11.89 5.77, 13.32 4.78, 14.8 3.93 C16.28 3.08, 17.87 2.35, 19.48 1.77 C21.09 1.19, 22.77 0.74, 24.46 0.45 C26.15 0.15, 27.89 0, 29.6 0 C31.31 0, 33.05 0.15, 34.74 0.45 C36.43 0.74, 38.11 1.19, 39.72 1.77 C41.33 2.35, 42.92 3.08, 44.4 3.93 C45.88 4.78, 47.31 5.77, 48.63 6.86 C49.94 7.95, 51.17 9.17, 52.27 10.47 C53.38 11.77, 54.38 13.19, 55.23 14.66 C56.09 16.13, 56.83 17.7, 57.41 19.29 C58 20.89, 58.45 22.56, 58.75 24.23 C59.05 25.9, 59.13 28.47, 59.2 29.32 C59.27 30.17, 59.27 28.47, 59.2 29.32" stroke="#1e1e1e" stroke-width="2" fill="none"></path></g><g transform="translate(607.0101059557123 84.77158839646893) rotate(0 5.859375 12)"><text x="5.859375" y="0" font-family="Cascadia, Segoe UI Emoji" font-size="20px" fill="#1e1e1e" text-anchor="middle" style="white-space: pre;" direction="ltr" dominant-baseline="text-before-edge">4</text></g><g stroke-linecap="round"><g transform="translate(504.3444343283054 86.56536915204919) rotate(0 39.445208839892985 -0.05309300161289343)"><path d="M0 0 C13.15 -0.02, 65.74 -0.09, 78.89 -0.11 M0 0 C13.15 -0.02, 65.74 -0.09, 78.89 -0.11" stroke="#1e1e1e" stroke-width="2" fill="none"></path></g><g transform="translate(504.3444343283054 86.56536915204919) rotate(0 39.445208839892985 -0.05309300161289343)"><path d="M55.41 8.48 C63.71 5.44, 72.01 2.41, 78.89 -0.11 M55.41 8.48 C64.73 5.07, 74.06 1.66, 78.89 -0.11" stroke="#1e1e1e" stroke-width="2" fill="none"></path></g><g transform="translate(504.3444343283054 86.56536915204919) rotate(0 39.445208839892985 -0.05309300161289343)"><path d="M55.39 -8.63 C63.69 -5.61, 72 -2.6, 78.89 -0.11 M55.39 -8.63 C64.72 -5.24, 74.05 -1.86, 78.89 -0.11" stroke="#1e1e1e" stroke-width="2" fill="none"></path></g></g><mask></mask><g stroke-linecap="round"><g transform="translate(160.47421997903893 112.3826430457126) rotate(0 -44.489692814225805 0.03232102031873296)"><path d="M0 0 C-14.83 0.01, -74.15 0.05, -88.98 0.06 M0 0 C-14.83 0.01, -74.15 0.05, -88.98 0.06" stroke="#1e1e1e" stroke-width="2" fill="none"></path></g><g transform="translate(160.47421997903893 112.3826430457126) rotate(0 -44.489692814225805 0.03232102031873296)"><path d="M-65.49 -8.5 C-74.64 -5.17, -83.79 -1.83, -88.98 0.06 M-65.49 -8.5 C-72.74 -5.86, -79.99 -3.21, -88.98 0.06" stroke="#1e1e1e" stroke-width="2" fill="none"></path></g><g transform="translate(160.47421997903893 112.3826430457126) rotate(0 -44.489692814225805 0.03232102031873296)"><path d="M-65.48 8.6 C-74.64 5.27, -83.79 1.95, -88.98 0.06 M-65.48 8.6 C-72.73 5.96, -79.98 3.33, -88.98 0.06" stroke="#1e1e1e" stroke-width="2" fill="none"></path></g></g><mask></mask><g stroke-linecap="round"><g transform="translate(299.7999267578125 110.40632129171428) rotate(0 -40 0.399993896484375)"><path d="M0 0 C-13.33 0.13, -66.67 0.67, -80 0.8 M0 0 C-13.33 0.13, -66.67 0.67, -80 0.8" stroke="#1e1e1e" stroke-width="2" fill="none"></path></g><g transform="translate(299.7999267578125 110.40632129171428) rotate(0 -40 0.399993896484375)"><path d="M-56.59 -7.98 C-61.81 -6.03, -67.03 -4.07, -80 0.8 M-56.59 -7.98 C-64.48 -5.03, -72.36 -2.07, -80 0.8" stroke="#1e1e1e" stroke-width="2" fill="none"></path></g><g transform="translate(299.7999267578125 110.40632129171428) rotate(0 -40 0.399993896484375)"><path d="M-56.42 9.12 C-61.68 7.26, -66.94 5.41, -80 0.8 M-56.42 9.12 C-64.36 6.31, -72.3 3.51, -80 0.8" stroke="#1e1e1e" stroke-width="2" fill="none"></path></g></g><mask></mask><g stroke-linecap="round"><g transform="translate(447.5999450683594 108.80631518819865) rotate(0 -43.70002746582031 0)"><path d="M0 0 C-14.57 0, -72.83 0, -87.4 0 M0 0 C-14.57 0, -72.83 0, -87.4 0" stroke="#1e1e1e" stroke-width="2" fill="none"></path></g><g transform="translate(447.5999450683594 108.80631518819865) rotate(0 -43.70002746582031 0)"><path d="M-63.91 -8.55 C-71.29 -5.86, -78.67 -3.18, -87.4 0 M-63.91 -8.55 C-72.42 -5.45, -80.93 -2.35, -87.4 0" stroke="#1e1e1e" stroke-width="2" fill="none"></path></g><g transform="translate(447.5999450683594 108.80631518819865) rotate(0 -43.70002746582031 0)"><path d="M-63.91 8.55 C-71.29 5.86, -78.67 3.18, -87.4 0 M-63.91 8.55 C-72.42 5.45, -80.93 2.35, -87.4 0" stroke="#1e1e1e" stroke-width="2" fill="none"></path></g></g><mask></mask><g stroke-linecap="round"><g transform="translate(580.9542821926802 109.49245832782702) rotate(0 -38.017002865675636 0.1408628566198331)"><path d="M0 0 C-12.67 0.05, -63.36 0.23, -76.03 0.28 M0 0 C-12.67 0.05, -63.36 0.23, -76.03 0.28" stroke="#1e1e1e" stroke-width="2" fill="none"></path></g><g transform="translate(580.9542821926802 109.49245832782702) rotate(0 -38.017002865675636 0.1408628566198331)"><path d="M-52.57 -8.36 C-60.39 -5.48, -68.21 -2.6, -76.03 0.28 M-52.57 -8.36 C-61.8 -4.96, -71.04 -1.56, -76.03 0.28" stroke="#1e1e1e" stroke-width="2" fill="none"></path></g><g transform="translate(580.9542821926802 109.49245832782702) rotate(0 -38.017002865675636 0.1408628566198331)"><path d="M-52.51 8.75 C-60.35 5.92, -68.19 3.1, -76.03 0.28 M-52.51 8.75 C-61.77 5.41, -71.02 2.08, -76.03 0.28" stroke="#1e1e1e" stroke-width="2" fill="none"></path></g></g><mask></mask><g stroke-linecap="round"><g transform="translate(42.800048828125 134.00629687765178) rotate(0 284.8000030517578 16.799972534179688)"><path d="M0 0 C48.67 6.27, 197.07 38.27, 292 37.6 C386.93 36.93, 523.33 2.93, 569.6 -4 M0 0 C48.67 6.27, 197.07 38.27, 292 37.6 C386.93 36.93, 523.33 2.93, 569.6 -4" stroke="#2f9e44" stroke-width="2" fill="none"></path></g><g transform="translate(42.800048828125 134.00629687765178) rotate(0 284.8000030517578 16.799972534179688)"><path d="M548.13 8.8 C553.55 5.57, 558.97 2.34, 569.6 -4 M548.13 8.8 C552.86 5.98, 557.59 3.16, 569.6 -4" stroke="#2f9e44" stroke-width="2" fill="none"></path></g><g transform="translate(42.800048828125 134.00629687765178) rotate(0 284.8000030517578 16.799972534179688)"><path d="M544.92 -7.99 C551.15 -6.99, 557.38 -5.98, 569.6 -4 M544.92 -7.99 C550.36 -7.11, 555.8 -6.23, 569.6 -4" stroke="#2f9e44" stroke-width="2" fill="none"></path></g></g><mask></mask><g stroke-linecap="round"><g transform="translate(612.1998748779297 66.80119694206229) rotate(0 -284.3999938964844 -28.4000244140625)"><path d="M0 0 C-47.2 -9.47, -188.4 -56.53, -283.2 -56.8 C-378 -57.07, -521.2 -10.8, -568.8 -1.6 M0 0 C-47.2 -9.47, -188.4 -56.53, -283.2 -56.8 C-378 -57.07, -521.2 -10.8, -568.8 -1.6" stroke="#2f9e44" stroke-width="2" fill="none"></path></g><g transform="translate(612.1998748779297 66.80119694206229) rotate(0 -284.3999938964844 -28.4000244140625)"><path d="M-548.05 -15.54 C-553.19 -12.09, -558.32 -8.64, -568.8 -1.6 M-548.05 -15.54 C-554.23 -11.39, -560.42 -7.23, -568.8 -1.6" stroke="#2f9e44" stroke-width="2" fill="none"></path></g><g transform="translate(612.1998748779297 66.80119694206229) rotate(0 -284.3999938964844 -28.4000244140625)"><path d="M-543.94 1.06 C-550.09 0.4, -556.25 -0.26, -568.8 -1.6 M-543.94 1.06 C-551.35 0.26, -558.76 -0.53, -568.8 -1.6" stroke="#2f9e44" stroke-width="2" fill="none"></path></g></g><mask></mask></svg>