<svg version="1.1" xmlns="http://www.w3.org/2000/svg" xmlns:xlink="http://www.w3.org/1999/xlink" width="596" height="620"><defs><clipPath id="MHPTaBVzmrKd"><path fill="none" stroke="none" d=" M 0 0 L 596 0 L 596 620 L 0 620 L 0 0 Z"/></clipPath></defs><g transform="scale(1,1)" clip-path="url(#MHPTaBVzmrKd)"><g><rect fill="rgb(255,255,255)" stroke="none" x="0" y="0" width="596" height="620" fill-opacity="1"/><path fill="none" stroke="rgb(192,192,192)" paint-order="fill stroke markers" d=" M 75.5 0.5 L 75.5 620.5 M 128.5 0.5 L 128.5 620.5 M 181.5 0.5 L 181.5 620.5 M 234.5 0.5 L 234.5 620.5 M 287.5 0.5 L 287.5 620.5 M 340.5 0.5 L 340.5 620.5 M 394.5 0.5 L 394.5 620.5 M 447.5 0.5 L 447.5 620.5 M 500.5 0.5 L 500.5 620.5 M 553.5 0.5 L 553.5 620.5" stroke-opacity="1" stroke-linecap="round" stroke-linejoin="round" stroke-miterlimit="10"/><path fill="none" stroke="rgb(192,192,192)" paint-order="fill stroke markers" d=" M 1.5 0.5 L 1.5 620.5 M 12.5 0.5 L 12.5 620.5 M 33.5 0.5 L 33.5 620.5 M 43.5 0.5 L 43.5 620.5 M 54.5 0.5 L 54.5 620.5 M 65.5 0.5 L 65.5 620.5 M 86.5 0.5 L 86.5 620.5 M 96.5 0.5 L 96.5 620.5 M 107.5 0.5 L 107.5 620.5 M 118.5 0.5 L 118.5 620.5 M 139.5 0.5 L 139.5 620.5 M 149.5 0.5 L 149.5 620.5 M 160.5 0.5 L 160.5 620.5 M 171.5 0.5 L 171.5 620.5 M 192.5 0.5 L 192.5 620.5 M 203.5 0.5 L 203.5 620.5 M 213.5 0.5 L 213.5 620.5 M 224.5 0.5 L 224.5 620.5 M 245.5 0.5 L 245.5 620.5 M 256.5 0.5 L 256.5 620.5 M 266.5 0.5 L 266.5 620.5 M 277.5 0.5 L 277.5 620.5 M 298.5 0.5 L 298.5 620.5 M 309.5 0.5 L 309.5 620.5 M 319.5 0.5 L 319.5 620.5 M 330.5 0.5 L 330.5 620.5 M 351.5 0.5 L 351.5 620.5 M 362.5 0.5 L 362.5 620.5 M 372.5 0.5 L 372.5 620.5 M 383.5 0.5 L 383.5 620.5 M 404.5 0.5 L 404.5 620.5 M 415.5 0.5 L 415.5 620.5 M 425.5 0.5 L 425.5 620.5 M 436.5 0.5 L 436.5 620.5 M 457.5 0.5 L 457.5 620.5 M 468.5 0.5 L 468.5 620.5 M 478.5 0.5 L 478.5 620.5 M 489.5 0.5 L 489.5 620.5 M 510.5 0.5 L 510.5 620.5 M 521.5 0.5 L 521.5 620.5 M 531.5 0.5 L 531.5 620.5 M 542.5 0.5 L 542.5 620.5 M 563.5 0.5 L 563.5 620.5 M 574.5 0.5 L 574.5 620.5 M 585.5 0.5 L 585.5 620.5 M 595.5 0.5 L 595.5 620.5" stroke-opacity="0.23529411764705882" stroke-linecap="round" stroke-linejoin="round" stroke-miterlimit="10"/><path fill="none" stroke="rgb(192,192,192)" paint-order="fill stroke markers" d=" M 0.5 31.5 L 596.5 31.5 M 0.5 31.5 L 596.5 31.5 M 0.5 84.5 L 596.5 84.5 M 0.5 137.5 L 596.5 137.5 M 0.5 190.5 L 596.5 190.5 M 0.5 243.5 L 596.5 243.5 M 0.5 296.5 L 596.5 296.5 M 0.5 349.5 L 596.5 349.5 M 0.5 402.5 L 596.5 402.5 M 0.5 455.5 L 596.5 455.5 M 0.5 508.5 L 596.5 508.5 M 0.5 614.5 L 596.5 614.5" stroke-opacity="1" stroke-linecap="round" stroke-linejoin="round" stroke-miterlimit="10"/><path fill="none" stroke="rgb(192,192,192)" paint-order="fill stroke markers" d=" M 0.5 9.5 L 596.5 9.5 M 0.5 9.5 L 596.5 9.5 M 0.5 20.5 L 596.5 20.5 M 0.5 41.5 L 596.5 41.5 M 0.5 52.5 L 596.5 52.5 M 0.5 62.5 L 596.5 62.5 M 0.5 73.5 L 596.5 73.5 M 0.5 94.5 L 596.5 94.5 M 0.5 105.5 L 596.5 105.5 M 0.5 115.5 L 596.5 115.5 M 0.5 126.5 L 596.5 126.5 M 0.5 147.5 L 596.5 147.5 M 0.5 158.5 L 596.5 158.5 M 0.5 168.5 L 596.5 168.5 M 0.5 179.5 L 596.5 179.5 M 0.5 200.5 L 596.5 200.5 M 0.5 211.5 L 596.5 211.5 M 0.5 222.5 L 596.5 222.5 M 0.5 232.5 L 596.5 232.5 M 0.5 253.5 L 596.5 253.5 M 0.5 264.5 L 596.5 264.5 M 0.5 275.5 L 596.5 275.5 M 0.5 285.5 L 596.5 285.5 M 0.5 306.5 L 596.5 306.5 M 0.5 317.5 L 596.5 317.5 M 0.5 328.5 L 596.5 328.5 M 0.5 338.5 L 596.5 338.5 M 0.5 360.5 L 596.5 360.5 M 0.5 370.5 L 596.5 370.5 M 0.5 381.5 L 596.5 381.5 M 0.5 391.5 L 596.5 391.5 M 0.5 413.5 L 596.5 413.5 M 0.5 423.5 L 596.5 423.5 M 0.5 434.5 L 596.5 434.5 M 0.5 444.5 L 596.5 444.5 M 0.5 466.5 L 596.5 466.5 M 0.5 476.5 L 596.5 476.5 M 0.5 487.5 L 596.5 487.5 M 0.5 497.5 L 596.5 497.5 M 0.5 519.5 L 596.5 519.5 M 0.5 529.5 L 596.5 529.5 M 0.5 540.5 L 596.5 540.5 M 0.5 551.5 L 596.5 551.5 M 0.5 572.5 L 596.5 572.5 M 0.5 582.5 L 596.5 582.5 M 0.5 593.5 L 596.5 593.5 M 0.5 604.5 L 596.5 604.5" stroke-opacity="0.23529411764705882" stroke-linecap="round" stroke-linejoin="round" stroke-miterlimit="10"/><path fill="none" stroke="rgb(37,37,37)" paint-order="fill stroke markers" d=" M 22.5 2.5 L 22.5 620.5" stroke-opacity="1" stroke-miterlimit="10"/><path fill="none" stroke="rgb(37,37,37)" paint-order="fill stroke markers" d=" M 22.5 1.5 L 18.5 5.5" stroke-opacity="1" stroke-miterlimit="10"/><path fill="none" stroke="rgb(37,37,37)" paint-order="fill stroke markers" d=" M 22.5 1.5 L 26.5 5.5" stroke-opacity="1" stroke-miterlimit="10"/><path fill="none" stroke="rgb(37,37,37)" paint-order="fill stroke markers" d=" M 0.5 561.5 L 594.5 561.5" stroke-opacity="1" stroke-miterlimit="10"/><path fill="none" stroke="rgb(37,37,37)" paint-order="fill stroke markers" d=" M 595.5 561.5 L 591.5 557.5" stroke-opacity="1" stroke-miterlimit="10"/><path fill="none" stroke="rgb(37,37,37)" paint-order="fill stroke markers" d=" M 595.5 561.5 L 591.5 565.5" stroke-opacity="1" stroke-miterlimit="10"/><text fill="rgb(37,37,37)" stroke="none" font-family="geogebra-sans-serif, sans-serif" font-size="12px" font-style="normal" font-weight="normal" text-decoration="normal" x="73" y="577" text-anchor="start" dominant-baseline="alphabetic" fill-opacity="1">1</text><text fill="rgb(37,37,37)" stroke="none" font-family="geogebra-sans-serif, sans-serif" font-size="12px" font-style="normal" font-weight="normal" text-decoration="normal" x="126" y="577" text-anchor="start" dominant-baseline="alphabetic" fill-opacity="1">2</text><text fill="rgb(37,37,37)" stroke="none" font-family="geogebra-sans-serif, sans-serif" font-size="12px" font-style="normal" font-weight="normal" text-decoration="normal" x="179" y="577" text-anchor="start" dominant-baseline="alphabetic" fill-opacity="1">3</text><text fill="rgb(37,37,37)" stroke="none" font-family="geogebra-sans-serif, sans-serif" font-size="12px" font-style="normal" font-weight="normal" text-decoration="normal" x="232" y="577" text-anchor="start" dominant-baseline="alphabetic" fill-opacity="1">4</text><text fill="rgb(37,37,37)" stroke="none" font-family="geogebra-sans-serif, sans-serif" font-size="12px" font-style="normal" font-weight="normal" text-decoration="normal" x="285" y="577" text-anchor="start" dominant-baseline="alphabetic" fill-opacity="1">5</text><text fill="rgb(37,37,37)" stroke="none" font-family="geogebra-sans-serif, sans-serif" font-size="12px" font-style="normal" font-weight="normal" text-decoration="normal" x="338" y="577" text-anchor="start" dominant-baseline="alphabetic" fill-opacity="1">6</text><text fill="rgb(37,37,37)" stroke="none" font-family="geogebra-sans-serif, sans-serif" font-size="12px" font-style="normal" font-weight="normal" text-decoration="normal" x="392" y="577" text-anchor="start" dominant-baseline="alphabetic" fill-opacity="1">7</text><text fill="rgb(37,37,37)" stroke="none" font-family="geogebra-sans-serif, sans-serif" font-size="12px" font-style="normal" font-weight="normal" text-decoration="normal" x="445" y="577" text-anchor="start" dominant-baseline="alphabetic" fill-opacity="1">8</text><text fill="rgb(37,37,37)" stroke="none" font-family="geogebra-sans-serif, sans-serif" font-size="12px" font-style="normal" font-weight="normal" text-decoration="normal" x="498" y="577" text-anchor="start" dominant-baseline="alphabetic" fill-opacity="1">9</text><text fill="rgb(37,37,37)" stroke="none" font-family="geogebra-sans-serif, sans-serif" font-size="12px" font-style="normal" font-weight="normal" text-decoration="normal" x="548" y="577" text-anchor="start" dominant-baseline="alphabetic" fill-opacity="1">10</text><text fill="rgb(37,37,37)" stroke="none" font-family="geogebra-sans-serif, sans-serif" font-size="12px" font-style="normal" font-weight="normal" text-decoration="normal" x="10" y="513" text-anchor="start" dominant-baseline="alphabetic" fill-opacity="1">1</text><text fill="rgb(37,37,37)" stroke="none" font-family="geogebra-sans-serif, sans-serif" font-size="12px" font-style="normal" font-weight="normal" text-decoration="normal" x="10" y="460" text-anchor="start" dominant-baseline="alphabetic" fill-opacity="1">2</text><text fill="rgb(37,37,37)" stroke="none" font-family="geogebra-sans-serif, sans-serif" font-size="12px" font-style="normal" font-weight="normal" text-decoration="normal" x="10" y="407" text-anchor="start" dominant-baseline="alphabetic" fill-opacity="1">3</text><text fill="rgb(37,37,37)" stroke="none" font-family="geogebra-sans-serif, sans-serif" font-size="12px" font-style="normal" font-weight="normal" text-decoration="normal" x="10" y="354" text-anchor="start" dominant-baseline="alphabetic" fill-opacity="1">4</text><text fill="rgb(37,37,37)" stroke="none" font-family="geogebra-sans-serif, sans-serif" font-size="12px" font-style="normal" font-weight="normal" text-decoration="normal" x="10" y="301" text-anchor="start" dominant-baseline="alphabetic" fill-opacity="1">5</text><text fill="rgb(37,37,37)" stroke="none" font-family="geogebra-sans-serif, sans-serif" font-size="12px" font-style="normal" font-weight="normal" text-decoration="normal" x="10" y="248" text-anchor="start" dominant-baseline="alphabetic" fill-opacity="1">6</text><text fill="rgb(37,37,37)" stroke="none" font-family="geogebra-sans-serif, sans-serif" font-size="12px" font-style="normal" font-weight="normal" text-decoration="normal" x="10" y="195" text-anchor="start" dominant-baseline="alphabetic" fill-opacity="1">7</text><text fill="rgb(37,37,37)" stroke="none" font-family="geogebra-sans-serif, sans-serif" font-size="12px" font-style="normal" font-weight="normal" text-decoration="normal" x="10" y="142" text-anchor="start" dominant-baseline="alphabetic" fill-opacity="1">8</text><text fill="rgb(37,37,37)" stroke="none" font-family="geogebra-sans-serif, sans-serif" font-size="12px" font-style="normal" font-weight="normal" text-decoration="normal" x="10" y="89" text-anchor="start" dominant-baseline="alphabetic" fill-opacity="1">9</text><text fill="rgb(37,37,37)" stroke="none" font-family="geogebra-sans-serif, sans-serif" font-size="12px" font-style="normal" font-weight="normal" text-decoration="normal" x="3" y="36" text-anchor="start" dominant-baseline="alphabetic" fill-opacity="1">10</text><text fill="rgb(37,37,37)" stroke="none" font-family="geogebra-sans-serif, sans-serif" font-size="12px" font-style="normal" font-weight="normal" text-decoration="normal" x="8" y="577" text-anchor="start" dominant-baseline="alphabetic" fill-opacity="1">0</text><path fill="none" stroke="rgb(0,0,255)" paint-order="fill stroke markers" d=" M 319.5989227933687 625 L 4.598922793366266 -5" stroke-opacity="1" stroke-linecap="round" stroke-linejoin="round" stroke-miterlimit="10" stroke-width="2.5"/><text fill="rgb(0,0,255)" stroke="none" font-family="geogebra-sans-serif, sans-serif" font-size="16px" font-style="normal" font-weight="normal" text-decoration="normal" x="295" y="612" text-anchor="start" dominant-baseline="alphabetic" fill-opacity="1">a</text><path fill="none" stroke="rgb(102,0,204)" paint-order="fill stroke markers" d=" M -5 109.54175231085041 L 510.4582476891535 625" stroke-opacity="1" stroke-linecap="round" stroke-linejoin="round" stroke-miterlimit="10" stroke-width="2.5"/><text fill="rgb(102,0,204)" stroke="none" font-family="geogebra-sans-serif, sans-serif" font-size="16px" font-style="normal" font-weight="normal" text-decoration="normal" x="479" y="612" text-anchor="start" dominant-baseline="alphabetic" fill-opacity="1">b</text><path fill="none" stroke="rgb(255,102,0)" paint-order="fill stroke markers" d=" M -5 190.2228661694004 L 601 190.2228661694004" stroke-opacity="1" stroke-linecap="round" stroke-linejoin="round" stroke-miterlimit="10" stroke-width="2.5"/><text fill="rgb(255,102,0)" stroke="none" font-family="geogebra-sans-serif, sans-serif" font-size="16px" font-style="normal" font-weight="normal" text-decoration="normal" x="8" y="206" text-anchor="start" dominant-baseline="alphabetic" fill-opacity="1">c</text><path fill="rgb(255,153,204)" stroke="none" paint-order="stroke fill markers" d=" M 0 190.2228661694004 L 0 620 L 317.0989227933686 620 L 128.73959789758388 243.2813502084333 L 75.68111385855057 190.2228661694004 Z" fill-opacity="0.24705882352941178"/></g></g></svg>