<?xml version="1.0" encoding="UTF-8" standalone="no"?>
<!DOCTYPE svg PUBLIC "-//W3C//DTD SVG 1.1//EN" "http://www.w3.org/Graphics/SVG/1.1/DTD/svg11.dtd">
<svg width="600" height="480" viewBox="0 0 600 480" xmlns="http://www.w3.org/2000/svg" xmlns:xlink="http://www.w3.org/1999/xlink">
<desc>Produced by GNUPLOT 4.2 patchlevel 0 </desc>

<defs>


	<circle id="gpDot" r="1"/>
	<path id="gpPt0" style="stroke-width:0.107" d="M-1,0 h2 M0,-1 v2"/>
	<path id="gpPt1" style="stroke-width:0.107" d="M-1,-1 L1,1 M1,-1 L-1,1"/>
	<path id="gpPt2" style="stroke-width:0.107" d="M-1,0 L1,0 M0,-1 L0,1 M-1,-1 L1,1 M-1,1 L1,-1"/>
	<rect id="gpPt3" style="stroke-width:0.107" x="-1" y="-1" width="2" height="2"/>
	<use xlink:href="#gpPt3" id="gpPt4" style="fill:currentColor; stroke:none"/>
	<circle id="gpPt5" style="stroke-width:0.107" cx="0" cy="0" r="1"/>
	<use xlink:href="#gpPt5" id="gpPt6" style="fill:currentColor; stroke:none"/>
	<path id="gpPt7" style="stroke-width:0.107" d="M0,-1.33 L-1.33,0.67 L1.33,0.67 z"/>
	<use xlink:href="#gpPt7" id="gpPt8" style="fill:currentColor; stroke:none"/>
	<use xlink:href="#gpPt7" id="gpPt9" transform="rotate(180)"/>
	<use xlink:href="#gpPt9" id="gpPt10" style="fill:currentColor; stroke:none"/>
	<use xlink:href="#gpPt3" id="gpPt11" transform="rotate(45)"/>
	<use xlink:href="#gpPt11" id="gpPt12" style="fill:currentColor; stroke:none"/>
</defs>
<g style="fill:none; color:white; stroke:currentColor; stroke-width:1.00; stroke-linecap:butt; stroke-linejoin:miter">
</g>
<g style="fill:none; color:black; stroke:currentColor; stroke-width:1.00; stroke-linecap:butt; stroke-linejoin:miter">
	<path d="M88.3,426.5 L107.0,426.5 "/>
	<g transform="translate(70.9,435.9)" style="stroke:none; fill:black; font-family:Vera; font-size:25.00; text-anchor:end">
		<text>-1</text>
	</g>
	<path d="M88.3,240.0 L107.0,240.0 "/>
	<g transform="translate(70.9,249.4)" style="stroke:none; fill:black; font-family:Vera; font-size:25.00; text-anchor:end">
		<text> 0</text>
	</g>
	<path d="M88.3,53.5 L107.0,53.5 "/>
	<g transform="translate(70.9,62.9)" style="stroke:none; fill:black; font-family:Vera; font-size:25.00; text-anchor:end">
		<text> 1</text>
	</g>
	<path d="M164.7,240.0 L164.7,258.7 M164.7,240.0 L164.7,221.3 "/>
	<g transform="translate(164.7,305.5)" style="stroke:none; fill:black; font-family:Vera; font-size:25.00; text-anchor:middle">
		<text> 1</text>
	</g>
	<path d="M241.0,240.0 L241.0,258.7 M241.0,240.0 L241.0,221.3 "/>
	<g transform="translate(241.0,305.5)" style="stroke:none; fill:black; font-family:Vera; font-size:25.00; text-anchor:middle">
		<text> 2</text>
	</g>
	<path d="M317.4,240.0 L317.4,258.7 M317.4,240.0 L317.4,221.3 "/>
	<g transform="translate(317.4,305.5)" style="stroke:none; fill:black; font-family:Vera; font-size:25.00; text-anchor:middle">
		<text> 3</text>
	</g>
	<path d="M393.8,240.0 L393.8,258.7 M393.8,240.0 L393.8,221.3 "/>
	<g transform="translate(393.8,305.5)" style="stroke:none; fill:black; font-family:Vera; font-size:25.00; text-anchor:middle">
		<text> 4</text>
	</g>
	<path d="M470.1,240.0 L470.1,258.7 M470.1,240.0 L470.1,221.3 "/>
	<g transform="translate(470.1,305.5)" style="stroke:none; fill:black; font-family:Vera; font-size:25.00; text-anchor:middle">
		<text> 5</text>
	</g>
	<path d="M546.5,240.0 L546.5,258.7 M546.5,240.0 L546.5,221.3 "/>
	<g transform="translate(546.5,305.5)" style="stroke:none; fill:black; font-family:Vera; font-size:25.00; text-anchor:middle">
		<text> 6</text>
	</g>
</g>
<g style="fill:none; color:gray; stroke:currentColor; stroke-width:1.00; stroke-linecap:butt; stroke-linejoin:miter">
	<path d="M88.3,240.0 L546.5,240.0 "/>
</g>
<g style="fill:none; color:black; stroke:currentColor; stroke-width:1.00; stroke-linecap:butt; stroke-linejoin:miter">
	<path d="M88.3,34.8 L88.3,445.2 M546.5,445.2 M546.5,34.8 M88.3,34.8 "/>
</g>
<g style="fill:none; color:black; stroke:currentColor; stroke-width:4.00; stroke-linecap:butt; stroke-linejoin:miter">
</g>
<g style="fill:none; color:blue; stroke:currentColor; stroke-width:4.00; stroke-linecap:butt; stroke-linejoin:miter">
	<path d="M88.3,240.0 L89.8,236.6 L91.4,233.2 L92.9,229.7 L94.4,226.2 L96.0,222.7 L97.5,219.2 L99.0,215.7 L100.6,212.1 L102.1,208.6    L103.6,205.0 L105.2,201.4 L106.7,197.8 L108.2,194.3 L109.8,190.7 L111.3,187.1 L112.8,183.6 L114.4,180.1 L115.9,176.5 L117.4,173.0    L118.9,169.5 L120.5,166.1 L122.0,162.6 L123.5,159.2 L125.1,155.8 L126.6,152.4 L128.1,149.1 L129.7,145.8 L131.2,142.5 L132.7,139.3    L134.3,136.1 L135.8,132.9 L137.3,129.8 L138.9,126.7 L140.4,123.7 L141.9,120.7 L143.5,117.8 L145.0,114.9 L146.5,112.1 L148.1,109.3    L149.6,106.6 L151.1,103.9 L152.7,101.3 L154.2,98.8 L155.7,96.3 L157.3,93.9 L158.8,91.5 L160.3,89.2 L161.9,87.0 L163.4,84.8    L164.9,82.7 L166.5,80.6 L168.0,78.6 L169.5,76.7 L171.1,74.9 L172.6,73.1 L174.1,71.4 L175.6,69.8 L177.2,68.2 L178.7,66.8    L180.2,65.4 L181.8,64.0 L183.3,62.8 L184.8,61.6 L186.4,60.4 L187.9,59.4 L189.4,58.4 L191.0,57.6 L192.5,56.7 L194.0,56.0    L195.6,55.4 L197.1,54.8 L198.6,54.3 L200.2,53.8 L201.7,53.5 L203.2,53.2 L204.8,53.0 L206.3,52.9 L207.8,52.9 L209.4,52.9    L210.9,53.0 L212.4,53.2 L214.0,53.5 L215.5,53.8 L217.0,54.2 L218.6,54.7 L220.1,55.3 L221.6,55.9 L223.2,56.6 L224.7,57.4    L226.2,58.3 L227.8,59.2 L229.3,60.2 L230.8,61.3 L232.3,62.5 L233.9,63.7 L235.4,65.0 L236.9,66.4 L238.5,67.8 L240.0,69.3    L241.5,70.9 L243.1,72.5 L244.6,74.2 L246.1,76.0 L247.7,77.8 L249.2,79.7 L250.7,81.7 L252.3,83.7 L253.8,85.8 L255.3,88.0    L256.9,90.2 L258.4,92.5 L259.9,94.8 L261.5,97.2 L263.0,99.6 L264.5,102.1 L266.1,104.7 L267.6,107.3 L269.1,109.9 L270.7,112.7    L272.2,115.4 L273.7,118.2 L275.3,121.1 L276.8,124.0 L278.3,126.9 L279.9,129.9 L281.4,133.0 L282.9,136.0 L284.5,139.2 L286.0,142.3    L287.5,145.5 L289.0,148.7 L290.6,152.0 L292.1,155.3 L293.6,158.7 L295.2,162.0 L296.7,165.4 L298.2,168.8 L299.8,172.3 L301.3,175.8    L302.8,179.3 L304.4,182.8 L305.9,186.4 L307.4,189.9 L309.0,193.5 L310.5,197.2 L312.0,200.8 L313.6,204.4 L315.1,208.1 L316.6,211.8    L318.2,215.4 L319.7,219.1 L321.2,222.8 L322.8,226.5 L324.3,230.3 L325.8,234.0 L327.4,237.7 L328.9,241.4 L330.4,245.1 L332.0,248.9    L333.5,252.6 L335.0,256.3 L336.6,260.0 L338.1,263.7 L339.6,267.4 L341.2,271.1 L342.7,274.7 L344.2,278.4 L345.8,282.0 L347.3,285.7    L348.8,289.3 L350.3,292.8 L351.9,296.4 L353.4,300.0 L354.9,303.5 L356.5,307.0 L358.0,310.5 L359.5,313.9 L361.1,317.3 L362.6,320.7    L364.1,324.1 L365.7,327.4 L367.2,330.7 L368.7,333.9 L370.3,337.2 L371.8,340.3 L373.3,343.5 L374.9,346.6 L376.4,349.6 L377.9,352.7    L379.5,355.6 L381.0,358.6 L382.5,361.4 L384.1,364.3 L385.6,367.1 L387.1,369.8 L388.7,372.5 L390.2,375.1 L391.7,377.7 L393.3,380.2    L394.8,382.7 L396.3,385.1 L397.9,387.4 L399.4,389.7 L400.9,391.9 L402.5,394.1 L404.0,396.2 L405.5,398.3 L407.0,400.2 L408.6,402.2    L410.1,404.0 L411.6,405.8 L413.2,407.5 L414.7,409.2 L416.2,410.7 L417.8,412.3 L419.3,413.7 L420.8,415.1 L422.4,416.4 L423.9,417.6    L425.4,418.7 L427.0,419.8 L428.5,420.8 L430.0,421.8 L431.6,422.6 L433.1,423.4 L434.6,424.1 L436.2,424.7 L437.7,425.3 L439.2,425.7    L440.8,426.1 L442.3,426.5 L443.8,426.7 L445.4,426.9 L446.9,426.9 L448.4,427.0 L450.0,426.9 L451.5,426.7 L453.0,426.5 L454.6,426.2    L456.1,425.8 L457.6,425.3 L459.2,424.8 L460.7,424.2 L462.2,423.5 L463.7,422.7 L465.3,421.8 L466.8,420.9 L468.3,419.9 L469.9,418.8    L471.4,417.7 L472.9,416.4 L474.5,415.1 L476.0,413.7 L477.5,412.3 L479.1,410.7 L480.6,409.1 L482.1,407.5 L483.7,405.7 L485.2,403.9    L486.7,402.0 L488.3,400.1 L489.8,398.1 L491.3,396.0 L492.9,393.9 L494.4,391.6 L495.9,389.4 L497.5,387.1 L499.0,384.7 L500.5,382.2    L502.1,379.7 L503.6,377.2 L505.1,374.6 L506.7,371.9 L508.2,369.2 L509.7,366.4 L511.3,363.6 L512.8,360.8 L514.3,357.9 L515.9,355.0    L517.4,352.0 L518.9,349.0 L520.4,346.0 L522.0,342.9 L523.5,339.8 L525.0,336.7 L526.6,333.6 L528.1,330.4 L529.6,327.2 L531.2,324.0    L532.7,320.8 L534.2,317.6 L535.8,314.4 L537.3,311.1 L538.8,307.9 L540.4,304.6 L541.9,301.4 L543.4,298.2 L545.0,295.0 L546.5,291.8    "/>
</g>
<g style="fill:none; color:blue; stroke:currentColor; stroke-width:1.00; stroke-linecap:butt; stroke-linejoin:miter">
</g>
<g style="fill:none; color:red; stroke:currentColor; stroke-width:1.00; stroke-linecap:butt; stroke-linejoin:miter">
	<use xlink:href="#gpPt6" transform="translate(88.3,240.0) scale(6.54)"/>
	<use xlink:href="#gpPt6" transform="translate(164.7,83.0) scale(6.54)"/>
	<use xlink:href="#gpPt6" transform="translate(241.0,70.4) scale(6.54)"/>
	<use xlink:href="#gpPt6" transform="translate(317.4,213.7) scale(6.54)"/>
	<use xlink:href="#gpPt6" transform="translate(393.8,381.2) scale(6.54)"/>
	<use xlink:href="#gpPt6" transform="translate(470.1,418.9) scale(6.54)"/>
	<use xlink:href="#gpPt6" transform="translate(546.5,292.1) scale(6.54)"/>
</g>
<g style="fill:none; color:black; stroke:currentColor; stroke-width:1.00; stroke-linecap:butt; stroke-linejoin:miter">
	<path d="M88.3,240.0 L89.8,240.0 L91.4,240.0 L92.9,240.0 L94.4,240.0 L96.0,240.0 L97.5,240.0 L99.0,240.0 L100.6,240.0 L102.1,240.0    L103.6,240.0 L105.2,240.0 L106.7,240.0 L108.2,240.0 L109.8,240.0 L111.3,240.0 L112.8,240.0 L114.4,240.0 L115.9,240.0 L117.4,240.0    L118.9,240.0 L120.5,240.0 L122.0,240.0 L123.5,240.0 L125.1,240.0 L126.6,240.0 L128.1,240.0 L129.7,240.0 L131.2,240.0 L132.7,240.0    L134.3,240.0 L135.8,240.0 L137.3,240.0 L138.9,240.0 L140.4,240.0 L141.9,240.0 L143.5,240.0 L145.0,240.0 L146.5,240.0 L148.1,240.0    L149.6,240.0 L151.1,240.0 L152.7,240.0 L154.2,240.0 L155.7,240.0 L157.3,240.0 L158.8,240.0 L160.3,240.0 L161.9,240.0 L163.4,240.0    L164.9,240.0 L166.5,240.0 L168.0,240.0 L169.5,240.0 L171.1,240.0 L172.6,240.0 L174.1,240.0 L175.6,240.0 L177.2,240.0 L178.7,240.0    L180.2,240.0 L181.8,240.0 L183.3,240.0 L184.8,240.0 L186.4,240.0 L187.9,240.0 L189.4,240.0 L191.0,240.0 L192.5,240.0 L194.0,240.0    L195.6,240.0 L197.1,240.0 L198.6,240.0 L200.2,240.0 L201.7,240.0 L203.2,240.0 L204.8,240.0 L206.3,240.0 L207.8,240.0 L209.4,240.0    L210.9,240.0 L212.4,240.0 L214.0,240.0 L215.5,240.0 L217.0,240.0 L218.6,240.0 L220.1,240.0 L221.6,240.0 L223.2,240.0 L224.7,240.0    L226.2,240.0 L227.8,240.0 L229.3,240.0 L230.8,240.0 L232.3,240.0 L233.9,240.0 L235.4,240.0 L236.9,240.0 L238.5,240.0 L240.0,240.0    L241.5,240.0 L243.1,240.0 L244.6,240.0 L246.1,240.0 L247.7,240.0 L249.2,240.0 L250.7,240.0 L252.3,240.0 L253.8,240.0 L255.3,240.0    L256.9,240.0 L258.4,240.0 L259.9,240.0 L261.5,240.0 L263.0,240.0 L264.5,240.0 L266.1,240.0 L267.6,240.0 L269.1,240.0 L270.7,240.0    L272.2,240.0 L273.7,240.0 L275.3,240.0 L276.8,240.0 L278.3,240.0 L279.9,240.0 L281.4,240.0 L282.9,240.0 L284.5,240.0 L286.0,240.0    L287.5,240.0 L289.0,240.0 L290.6,240.0 L292.1,240.0 L293.6,240.0 L295.2,240.0 L296.7,240.0 L298.2,240.0 L299.8,240.0 L301.3,240.0    L302.8,240.0 L304.4,240.0 L305.9,240.0 L307.4,240.0 L309.0,240.0 L310.5,240.0 L312.0,240.0 L313.6,240.0 L315.1,240.0 L316.6,240.0    L318.2,240.0 L319.7,240.0 L321.2,240.0 L322.8,240.0 L324.3,240.0 L325.8,240.0 L327.4,240.0 L328.9,240.0 L330.4,240.0 L332.0,240.0    L333.5,240.0 L335.0,240.0 L336.6,240.0 L338.1,240.0 L339.6,240.0 L341.2,240.0 L342.7,240.0 L344.2,240.0 L345.8,240.0 L347.3,240.0    L348.8,240.0 L350.3,240.0 L351.9,240.0 L353.4,240.0 L354.9,240.0 L356.5,240.0 L358.0,240.0 L359.5,240.0 L361.1,240.0 L362.6,240.0    L364.1,240.0 L365.7,240.0 L367.2,240.0 L368.7,240.0 L370.3,240.0 L371.8,240.0 L373.3,240.0 L374.9,240.0 L376.4,240.0 L377.9,240.0    L379.5,240.0 L381.0,240.0 L382.5,240.0 L384.1,240.0 L385.6,240.0 L387.1,240.0 L388.7,240.0 L390.2,240.0 L391.7,240.0 L393.3,240.0    L394.8,240.0 L396.3,240.0 L397.9,240.0 L399.4,240.0 L400.9,240.0 L402.5,240.0 L404.0,240.0 L405.5,240.0 L407.0,240.0 L408.6,240.0    L410.1,240.0 L411.6,240.0 L413.2,240.0 L414.7,240.0 L416.2,240.0 L417.8,240.0 L419.3,240.0 L420.8,240.0 L422.4,240.0 L423.9,240.0    L425.4,240.0 L427.0,240.0 L428.5,240.0 L430.0,240.0 L431.6,240.0 L433.1,240.0 L434.6,240.0 L436.2,240.0 L437.7,240.0 L439.2,240.0    L440.8,240.0 L442.3,240.0 L443.8,240.0 L445.4,240.0 L446.9,240.0 L448.4,240.0 L450.0,240.0 L451.5,240.0 L453.0,240.0 L454.6,240.0    L456.1,240.0 L457.6,240.0 L459.2,240.0 L460.7,240.0 L462.2,240.0 L463.7,240.0 L465.3,240.0 L466.8,240.0 L468.3,240.0 L469.9,240.0    L471.4,240.0 L472.9,240.0 L474.5,240.0 L476.0,240.0 L477.5,240.0 L479.1,240.0 L480.6,240.0 L482.1,240.0 L483.7,240.0 L485.2,240.0    L486.7,240.0 L488.3,240.0 L489.8,240.0 L491.3,240.0 L492.9,240.0 L494.4,240.0 L495.9,240.0 L497.5,240.0 L499.0,240.0 L500.5,240.0    L502.1,240.0 L503.6,240.0 L505.1,240.0 L506.7,240.0 L508.2,240.0 L509.7,240.0 L511.3,240.0 L512.8,240.0 L514.3,240.0 L515.9,240.0    L517.4,240.0 L518.9,240.0 L520.4,240.0 L522.0,240.0 L523.5,240.0 L525.0,240.0 L526.6,240.0 L528.1,240.0 L529.6,240.0 L531.2,240.0    L532.7,240.0 L534.2,240.0 L535.8,240.0 L537.3,240.0 L538.8,240.0 L540.4,240.0 L541.9,240.0 L543.4,240.0 L545.0,240.0 L546.5,240.0    M88.3,34.8 L88.3,445.2 M546.5,445.2 M546.5,34.8 M88.3,34.8 "/>
</g>
<style xmlns="http://www.w3.org/1999/xhtml" id="ls082ltu.w37">rt.katakana-terminator-rt::before { content: attr(data-rt); }</style></svg>