<svg width="300" height="250" viewBox="0 0 300 250" xmlns="http://www.w3.org/2000/svg">
  <rect x="120" y="20" width="50" height="50" fill="none" stroke="black" stroke-width="2"/>
  <rect x="170" y="20" width="50" height="50" fill="none" stroke="black" stroke-width="2"/>
  <rect x="220" y="20" width="50" height="50" fill="none" stroke="black" stroke-width="2"/>

  <rect x="70"  y="70" width="50" height="50" fill="none" stroke="black" stroke-width="2"/>
  <rect x="120" y="70" width="50" height="50" fill="none" stroke="black" stroke-width="2"/>
  <rect x="170" y="70" width="50" height="50" fill="none" stroke="black" stroke-width="2"/>

  <rect x="20"  y="120" width="50" height="50" fill="none" stroke="black" stroke-width="2"/>
  <rect x="70"  y="120" width="50" height="50" fill="none" stroke="black" stroke-width="2"/>

  <rect x="20"  y="170" width="50" height="50" fill="none" stroke="black" stroke-width="2"/>
  <rect x="70"  y="170" width="50" height="50" fill="none" stroke="black" stroke-width="2"/>

  <g font-family="Times New Roman, serif" font-size="28" text-anchor="middle" dominant-baseline="middle">
    <text x="145" y="45">2</text>
    <text x="195" y="45">5</text>
    <text x="245" y="45">9</text>

    <text x="95"  y="95">3</text>
    <text x="145" y="95">4</text>
    <text x="195" y="95">6</text>

    <text x="45"  y="145">1</text>
    <text x="95"  y="145">7</text>

    <text x="45"  y="195">8</text>
    <text x="95"  y="195">10</text>
  </g>
</svg>
