<svg xmlns="http://www.w3.org/2000/svg" width="810" height="230" viewBox="0 0 815 230">
  <!-- 图1 -->
  <g transform="translate(0,0)">
    <svg width="170" height="170" viewBox="0 0 170 170">
      <path d="M 5 5 L 155 5 L 155 55 L 105 55 L 105 105 L 55 105 L 55 155 L 5 155 Z" fill="none" stroke="black" stroke-width="2"/>
      <line x1="55" y1="5" x2="55" y2="55" stroke="black" stroke-width="2"/>
      <line x1="105" y1="5" x2="105" y2="55" stroke="black" stroke-width="2"/>
      <line x1="5" y1="55" x2="105" y2="55" stroke="black" stroke-width="2"/>
      <line x1="55" y1="55" x2="55" y2="105" stroke="black" stroke-width="2"/>
      <line x1="5" y1="105" x2="55" y2="105" stroke="black" stroke-width="2"/>
      <text x="30" y="33" text-anchor="middle" dominant-baseline="middle" font-family="Computer Modern, Times, serif" font-size="32">2</text>
      <text x="80" y="33" text-anchor="middle" dominant-baseline="middle" font-family="Computer Modern, Times, serif" font-size="32">5</text>
      <text x="130" y="33" text-anchor="middle" dominant-baseline="middle" font-family="Computer Modern, Times, serif" font-size="32">9</text>
      <text x="30" y="83" text-anchor="middle" dominant-baseline="middle" font-family="Computer Modern, Times, serif" font-size="32">6</text>
      <text x="80" y="83" text-anchor="middle" dominant-baseline="middle" font-family="Computer Modern, Times, serif" font-size="32">7</text>
      <text x="30" y="133" text-anchor="middle" dominant-baseline="middle" font-family="Computer Modern, Times, serif" font-size="32">8</text>
    </svg>
  </g>

  <!-- 图2（宽一些） -->
  <g transform="translate(190,0)">
    <svg width="215" height="170" viewBox="0 0 215 170">
      <path d="M 5 5 L 155 5 L 155 55 L 105 55 L 105 105 L 55 105 L 55 155 L 5 155 Z" fill="none" stroke="black" stroke-width="2"/>
      <line x1="55" y1="5" x2="55" y2="55" stroke="black" stroke-width="2"/>
      <line x1="105" y1="5" x2="105" y2="55" stroke="black" stroke-width="2"/>
      <line x1="5" y1="55" x2="105" y2="55" stroke="black" stroke-width="2"/>
      <line x1="55" y1="55" x2="55" y2="105" stroke="black" stroke-width="2"/>
      <line x1="5" y1="105" x2="55" y2="105" stroke="black" stroke-width="2"/>
      <text x="30" y="33" text-anchor="middle" dominant-baseline="middle" font-family="Computer Modern, Times, serif" font-size="32">2</text>
      <text x="80" y="33" text-anchor="middle" dominant-baseline="middle" font-family="Computer Modern, Times, serif" font-size="32" fill="red">3</text>
      <text x="130" y="33" text-anchor="middle" dominant-baseline="middle" font-family="Computer Modern, Times, serif" font-size="32">9</text>
      <text x="185" y="33" text-anchor="middle" dominant-baseline="middle" font-family="Computer Modern, Times, serif" font-size="32" fill="red">(5)</text>
      <text x="30" y="83" text-anchor="middle" dominant-baseline="middle" font-family="Computer Modern, Times, serif" font-size="32">6</text>
      <text x="80" y="83" text-anchor="middle" dominant-baseline="middle" font-family="Computer Modern, Times, serif" font-size="32">7</text>
      <text x="30" y="133" text-anchor="middle" dominant-baseline="middle" font-family="Computer Modern, Times, serif" font-size="32">8</text>
    </svg>
  </g>

  <!-- 图3 -->
  <g transform="translate(425,0)">
    <svg width="210" height="160" viewBox="0 0 210 160">
      <path d="M 5 5 L 155 5 L 155 55 L 105 55 L 105 105 L 55 105 L 55 155 L 5 155 Z" fill="none" stroke="black" stroke-width="2"/>
      <line x1="55" y1="5" x2="55" y2="55" stroke="black" stroke-width="2"/>
      <line x1="105" y1="5" x2="105" y2="55" stroke="black" stroke-width="2"/>
      <line x1="5" y1="55" x2="155" y2="55" stroke="black" stroke-width="2"/>
      <line x1="55" y1="55" x2="55" y2="105" stroke="black" stroke-width="2"/>
      <line x1="105" y1="55" x2="105" y2="105" stroke="black" stroke-width="2"/>
      <line x1="5" y1="105" x2="55" y2="105" stroke="black" stroke-width="2"/>
      <text x="30" y="30" text-anchor="middle" dominant-baseline="middle" font-family="Computer Modern, Times, serif" font-size="28">2</text>
      <text x="80" y="30" text-anchor="middle" dominant-baseline="middle" font-family="Computer Modern, Times, serif" font-size="28" fill="blue">3</text>
      <text x="130" y="30" text-anchor="middle" dominant-baseline="middle" font-family="Computer Modern, Times, serif" font-size="28">9</text>
      <text x="30" y="80" text-anchor="middle" dominant-baseline="middle" font-family="Computer Modern, Times, serif" font-size="28" fill="red">5</text>
      <text x="80" y="80" text-anchor="middle" dominant-baseline="middle" font-family="Computer Modern, Times, serif" font-size="28">7</text>
      <text x="130" y="80" text-anchor="middle" dominant-baseline="middle" font-family="Computer Modern, Times, serif" font-size="28" fill="red">(6)</text>
      <text x="30" y="130" text-anchor="middle" dominant-baseline="middle" font-family="Computer Modern, Times, serif" font-size="28">8</text>
    </svg>
  </g>

  <!-- 图4 -->
  <g transform="translate(655,0)">
    <svg width="180" height="230" viewBox="0 0 180 230">
      <path d="M 5 5 L 155 5 L 155 55 L 105 55 L 105 105 L 55 105 L 55 155 L 55 205 L 5 205 Z" fill="none" stroke="black" stroke-width="2"/>
      <line x1="55" y1="5" x2="55" y2="55" stroke="black" stroke-width="2"/>
      <line x1="105" y1="5" x2="105" y2="55" stroke="black" stroke-width="2"/>
      <line x1="5" y1="55" x2="105" y2="55" stroke="black" stroke-width="2"/>
      <line x1="55" y1="55" x2="55" y2="105" stroke="black" stroke-width="2"/>
      <line x1="5" y1="105" x2="55" y2="105" stroke="black" stroke-width="2"/>
      <line x1="5" y1="155" x2="55" y2="155" stroke="black" stroke-width="2"/>
      <text x="30" y="30" text-anchor="middle" dominant-baseline="middle" font-family="Computer Modern, Times, serif" font-size="28">2</text>
      <text x="80" y="30" text-anchor="middle" dominant-baseline="middle" font-family="Computer Modern, Times, serif" font-size="28" fill="blue">3</text>
      <text x="130" y="30" text-anchor="middle" dominant-baseline="middle" font-family="Computer Modern, Times, serif" font-size="28">9</text>
      <text x="30" y="80" text-anchor="middle" dominant-baseline="middle" font-family="Computer Modern, Times, serif" font-size="28" fill="blue">5</text>
      <text x="80" y="80" text-anchor="middle" dominant-baseline="middle" font-family="Computer Modern, Times, serif" font-size="28">7</text>
      <text x="30" y="130" text-anchor="middle" dominant-baseline="middle" font-family="Computer Modern, Times, serif" font-size="28" fill="blue">6</text>
      <text x="30" y="180" text-anchor="middle" dominant-baseline="middle" font-family="Computer Modern, Times, serif" font-size="28" fill="red">8</text>
    </svg>
  </g>
</svg>
