<svg version="1.1" xmlns="http://www.w3.org/2000/svg" xmlns:xlink="http://www.w3.org/1999/xlink" width="530" height="548"><defs><clipPath id="JPgTIsHrbEvy"><path fill="none" stroke="none" d=" M 0 0 L 530 0 L 530 548 L 0 548 L 0 0 Z"/></clipPath></defs><g transform="scale(1,1)" clip-path="url(#JPgTIsHrbEvy)"><g><rect fill="rgb(255,255,255)" stroke="none" x="0" y="0" width="530" height="548" fill-opacity="1"/><path fill="none" stroke="rgb(192,192,192)" paint-order="fill stroke markers" d=" M 81.5 0.5 L 81.5 548.5 M 135.5 0.5 L 135.5 548.5 M 190.5 0.5 L 190.5 548.5 M 245.5 0.5 L 245.5 548.5 M 300.5 0.5 L 300.5 548.5 M 355.5 0.5 L 355.5 548.5 M 410.5 0.5 L 410.5 548.5 M 464.5 0.5 L 464.5 548.5 M 519.5 0.5 L 519.5 548.5" stroke-opacity="1" stroke-linecap="round" stroke-linejoin="round" stroke-miterlimit="10"/><path fill="none" stroke="rgb(192,192,192)" paint-order="fill stroke markers" d="" stroke-opacity="0.23529411764705882" stroke-linecap="round" stroke-linejoin="round" stroke-miterlimit="10"/><path fill="none" stroke="rgb(192,192,192)" paint-order="fill stroke markers" d=" M 0.5 24.5 L 530.5 24.5 M 0.5 24.5 L 530.5 24.5 M 0.5 79.5 L 530.5 79.5 M 0.5 134.5 L 530.5 134.5 M 0.5 189.5 L 530.5 189.5 M 0.5 243.5 L 530.5 243.5 M 0.5 298.5 L 530.5 298.5 M 0.5 353.5 L 530.5 353.5 M 0.5 408.5 L 530.5 408.5 M 0.5 463.5 L 530.5 463.5" stroke-opacity="1" stroke-linecap="round" stroke-linejoin="round" stroke-miterlimit="10"/><path fill="none" stroke="rgb(192,192,192)" paint-order="fill stroke markers" d="" stroke-opacity="0.23529411764705882" stroke-linecap="round" stroke-linejoin="round" stroke-miterlimit="10"/><path fill="none" stroke="rgb(37,37,37)" paint-order="fill stroke markers" d=" M 26.5 2.5 L 26.5 548.5" stroke-opacity="1" stroke-miterlimit="10"/><path fill="none" stroke="rgb(37,37,37)" paint-order="fill stroke markers" d=" M 26.5 1.5 L 22.5 5.5" stroke-opacity="1" stroke-miterlimit="10"/><path fill="none" stroke="rgb(37,37,37)" paint-order="fill stroke markers" d=" M 26.5 1.5 L 30.5 5.5" stroke-opacity="1" stroke-miterlimit="10"/><path fill="none" stroke="rgb(37,37,37)" paint-order="fill stroke markers" d=" M 0.5 518.5 L 528.5 518.5" stroke-opacity="1" stroke-miterlimit="10"/><path fill="none" stroke="rgb(37,37,37)" paint-order="fill stroke markers" d=" M 529.5 518.5 L 525.5 514.5" stroke-opacity="1" stroke-miterlimit="10"/><path fill="none" stroke="rgb(37,37,37)" paint-order="fill stroke markers" d=" M 529.5 518.5 L 525.5 522.5" stroke-opacity="1" stroke-miterlimit="10"/><text fill="rgb(37,37,37)" stroke="none" font-family="geogebra-sans-serif, sans-serif" font-size="12px" font-style="normal" font-weight="normal" text-decoration="normal" x="79" y="534" text-anchor="start" dominant-baseline="alphabetic" fill-opacity="1">1</text><text fill="rgb(37,37,37)" stroke="none" font-family="geogebra-sans-serif, sans-serif" font-size="12px" font-style="normal" font-weight="normal" text-decoration="normal" x="133" y="534" text-anchor="start" dominant-baseline="alphabetic" fill-opacity="1">2</text><text fill="rgb(37,37,37)" stroke="none" font-family="geogebra-sans-serif, sans-serif" font-size="12px" font-style="normal" font-weight="normal" text-decoration="normal" x="188" y="534" text-anchor="start" dominant-baseline="alphabetic" fill-opacity="1">3</text><text fill="rgb(37,37,37)" stroke="none" font-family="geogebra-sans-serif, sans-serif" font-size="12px" font-style="normal" font-weight="normal" text-decoration="normal" x="243" y="534" text-anchor="start" dominant-baseline="alphabetic" fill-opacity="1">4</text><text fill="rgb(37,37,37)" stroke="none" font-family="geogebra-sans-serif, sans-serif" font-size="12px" font-style="normal" font-weight="normal" text-decoration="normal" x="298" y="534" text-anchor="start" dominant-baseline="alphabetic" fill-opacity="1">5</text><text fill="rgb(37,37,37)" stroke="none" font-family="geogebra-sans-serif, sans-serif" font-size="12px" font-style="normal" font-weight="normal" text-decoration="normal" x="353" y="534" text-anchor="start" dominant-baseline="alphabetic" fill-opacity="1">6</text><text fill="rgb(37,37,37)" stroke="none" font-family="geogebra-sans-serif, sans-serif" font-size="12px" font-style="normal" font-weight="normal" text-decoration="normal" x="408" y="534" text-anchor="start" dominant-baseline="alphabetic" fill-opacity="1">7</text><text fill="rgb(37,37,37)" stroke="none" font-family="geogebra-sans-serif, sans-serif" font-size="12px" font-style="normal" font-weight="normal" text-decoration="normal" x="462" y="534" text-anchor="start" dominant-baseline="alphabetic" fill-opacity="1">8</text><text fill="rgb(37,37,37)" stroke="none" font-family="geogebra-sans-serif, sans-serif" font-size="12px" font-style="normal" font-weight="normal" text-decoration="normal" x="517" y="534" text-anchor="start" dominant-baseline="alphabetic" fill-opacity="1">9</text><text fill="rgb(37,37,37)" stroke="none" font-family="geogebra-sans-serif, sans-serif" font-size="12px" font-style="normal" font-weight="normal" text-decoration="normal" x="12" y="468" text-anchor="start" dominant-baseline="alphabetic" fill-opacity="1">1</text><text fill="rgb(37,37,37)" stroke="none" font-family="geogebra-sans-serif, sans-serif" font-size="12px" font-style="normal" font-weight="normal" text-decoration="normal" x="12" y="413" text-anchor="start" dominant-baseline="alphabetic" fill-opacity="1">2</text><text fill="rgb(37,37,37)" stroke="none" font-family="geogebra-sans-serif, sans-serif" font-size="12px" font-style="normal" font-weight="normal" text-decoration="normal" x="12" y="358" text-anchor="start" dominant-baseline="alphabetic" fill-opacity="1">3</text><text fill="rgb(37,37,37)" stroke="none" font-family="geogebra-sans-serif, sans-serif" font-size="12px" font-style="normal" font-weight="normal" text-decoration="normal" x="12" y="303" text-anchor="start" dominant-baseline="alphabetic" fill-opacity="1">4</text><text fill="rgb(37,37,37)" stroke="none" font-family="geogebra-sans-serif, sans-serif" font-size="12px" font-style="normal" font-weight="normal" text-decoration="normal" x="12" y="248" text-anchor="start" dominant-baseline="alphabetic" fill-opacity="1">5</text><text fill="rgb(37,37,37)" stroke="none" font-family="geogebra-sans-serif, sans-serif" font-size="12px" font-style="normal" font-weight="normal" text-decoration="normal" x="12" y="194" text-anchor="start" dominant-baseline="alphabetic" fill-opacity="1">6</text><text fill="rgb(37,37,37)" stroke="none" font-family="geogebra-sans-serif, sans-serif" font-size="12px" font-style="normal" font-weight="normal" text-decoration="normal" x="12" y="139" text-anchor="start" dominant-baseline="alphabetic" fill-opacity="1">7</text><text fill="rgb(37,37,37)" stroke="none" font-family="geogebra-sans-serif, sans-serif" font-size="12px" font-style="normal" font-weight="normal" text-decoration="normal" x="12" y="84" text-anchor="start" dominant-baseline="alphabetic" fill-opacity="1">8</text><text fill="rgb(37,37,37)" stroke="none" font-family="geogebra-sans-serif, sans-serif" font-size="12px" font-style="normal" font-weight="normal" text-decoration="normal" x="12" y="29" text-anchor="start" dominant-baseline="alphabetic" fill-opacity="1">9</text><text fill="rgb(37,37,37)" stroke="none" font-family="geogebra-sans-serif, sans-serif" font-size="12px" font-style="normal" font-weight="normal" text-decoration="normal" x="12" y="534" text-anchor="start" dominant-baseline="alphabetic" fill-opacity="1">0</text><path fill="none" stroke="rgb(0,0,0)" paint-order="fill stroke markers" d=" M -5 549.3860251174625 L 535 9.38602511746128" stroke-opacity="0.8" stroke-linecap="round" stroke-linejoin="round" stroke-miterlimit="10" stroke-width="2.5"/><text fill="rgb(0,0,0)" stroke="none" font-family="geogebra-sans-serif, sans-serif" font-size="16px" font-style="normal" font-weight="normal" text-decoration="normal" x="490" y="68" text-anchor="start" dominant-baseline="alphabetic" fill-opacity="1">y=x</text><path fill="none" stroke="rgb(0,0,255)" paint-order="fill stroke markers" d=" M 46.22562780382782 553 L 535 64.22562780382671" stroke-opacity="0.8" stroke-linecap="round" stroke-linejoin="round" stroke-miterlimit="10" stroke-width="2.5"/><text fill="rgb(0,0,255)" stroke="none" font-family="geogebra-sans-serif, sans-serif" font-size="16px" font-style="normal" font-weight="normal" text-decoration="normal" x="477" y="144" text-anchor="start" dominant-baseline="alphabetic" fill-opacity="1">y=x-1</text><path fill="rgb(21,101,192)" stroke="none" paint-order="stroke fill markers" d=" M 31.28015596057434 518.105869156888 C 31.28015596057434 520.867292906042 29.041579709728307 523.105869156888 26.28015596057434 523.105869156888 C 23.518732211420375 523.105869156888 21.28015596057434 520.867292906042 21.28015596057434 518.105869156888 C 21.28015596057434 515.344445407734 23.518732211420375 513.105869156888 26.28015596057434 513.105869156888 C 29.041579709728307 513.105869156888 31.28015596057434 515.344445407734 31.28015596057434 518.105869156888 Z" fill-opacity="1"/><path fill="none" stroke="rgb(0,0,0)" paint-order="fill stroke markers" d=" M 31.28015596057434 518.105869156888 C 31.28015596057434 520.867292906042 29.041579709728307 523.105869156888 26.28015596057434 523.105869156888 C 23.518732211420375 523.105869156888 21.28015596057434 520.867292906042 21.28015596057434 518.105869156888 C 21.28015596057434 515.344445407734 23.518732211420375 513.105869156888 26.28015596057434 513.105869156888 C 29.041579709728307 513.105869156888 31.28015596057434 515.344445407734 31.28015596057434 518.105869156888 Z" stroke-opacity="1" stroke-linecap="round" stroke-linejoin="round" stroke-miterlimit="10"/><text fill="rgb(21,101,192)" stroke="none" font-family="geogebra-sans-serif, sans-serif" font-size="16px" font-style="normal" font-weight="normal" text-decoration="normal" x="24" y="537" text-anchor="start" dominant-baseline="alphabetic" fill-opacity="1">(0,0)</text><path fill="rgb(21,101,192)" stroke="none" paint-order="stroke fill markers" d=" M 469.99697745149706 79.38904766596437 C 469.99697745149706 82.15047141511833 467.758401200651 84.38904766596437 464.99697745149706 84.38904766596437 C 462.2355537023431 84.38904766596437 459.99697745149706 82.15047141511833 459.99697745149706 79.38904766596437 C 459.99697745149706 76.6276239168104 462.2355537023431 74.38904766596437 464.99697745149706 74.38904766596437 C 467.758401200651 74.38904766596437 469.99697745149706 76.6276239168104 469.99697745149706 79.38904766596437 Z" fill-opacity="1"/><path fill="none" stroke="rgb(0,0,0)" paint-order="fill stroke markers" d=" M 469.99697745149706 79.38904766596437 C 469.99697745149706 82.15047141511833 467.758401200651 84.38904766596437 464.99697745149706 84.38904766596437 C 462.2355537023431 84.38904766596437 459.99697745149706 82.15047141511833 459.99697745149706 79.38904766596437 C 459.99697745149706 76.6276239168104 462.2355537023431 74.38904766596437 464.99697745149706 74.38904766596437 C 467.758401200651 74.38904766596437 469.99697745149706 76.6276239168104 469.99697745149706 79.38904766596437 Z" stroke-opacity="1" stroke-linecap="round" stroke-linejoin="round" stroke-miterlimit="10"/><text fill="rgb(21,101,192)" stroke="none" font-family="geogebra-sans-serif, sans-serif" font-size="16px" font-style="normal" font-weight="normal" text-decoration="normal" x="422" y="60" text-anchor="start" dominant-baseline="alphabetic" fill-opacity="1">(8,8)</text><path fill="rgb(21,101,192)" stroke="none" paint-order="stroke fill markers" d=" M 360.3177720787664 189.06825303869527 C 360.3177720787664 191.82967678784925 358.07919582792033 194.06825303869527 355.3177720787664 194.06825303869527 C 352.55634832961243 194.06825303869527 350.3177720787664 191.82967678784925 350.3177720787664 189.06825303869527 C 350.3177720787664 186.3068292895413 352.55634832961243 184.06825303869527 355.3177720787664 184.06825303869527 C 358.07919582792033 184.06825303869527 360.3177720787664 186.3068292895413 360.3177720787664 189.06825303869527 Z" fill-opacity="1"/><path fill="none" stroke="rgb(0,0,0)" paint-order="fill stroke markers" d=" M 360.3177720787664 189.06825303869527 C 360.3177720787664 191.82967678784925 358.07919582792033 194.06825303869527 355.3177720787664 194.06825303869527 C 352.55634832961243 194.06825303869527 350.3177720787664 191.82967678784925 350.3177720787664 189.06825303869527 C 350.3177720787664 186.3068292895413 352.55634832961243 184.06825303869527 355.3177720787664 184.06825303869527 C 358.07919582792033 184.06825303869527 360.3177720787664 186.3068292895413 360.3177720787664 189.06825303869527 Z" stroke-opacity="1" stroke-linecap="round" stroke-linejoin="round" stroke-miterlimit="10"/><text fill="rgb(21,101,192)" stroke="none" font-family="geogebra-sans-serif, sans-serif" font-size="16px" font-style="normal" font-weight="normal" text-decoration="normal" x="310" y="189" text-anchor="start" dominant-baseline="alphabetic" fill-opacity="1">(k,k)</text><path fill="rgb(176,0,32)" stroke="none" paint-order="stroke fill markers" d=" M 360.3177720787664 243.90785572506076 C 360.3177720787664 246.66927947421473 358.07919582792033 248.90785572506076 355.3177720787664 248.90785572506076 C 352.55634832961243 248.90785572506076 350.3177720787664 246.66927947421473 350.3177720787664 243.90785572506076 C 350.3177720787664 241.14643197590678 352.55634832961243 238.90785572506076 355.3177720787664 238.90785572506076 C 358.07919582792033 238.90785572506076 360.3177720787664 241.14643197590678 360.3177720787664 243.90785572506076 Z" fill-opacity="1"/><path fill="none" stroke="rgb(0,0,0)" paint-order="fill stroke markers" d=" M 360.3177720787664 243.90785572506076 C 360.3177720787664 246.66927947421473 358.07919582792033 248.90785572506076 355.3177720787664 248.90785572506076 C 352.55634832961243 248.90785572506076 350.3177720787664 246.66927947421473 350.3177720787664 243.90785572506076 C 350.3177720787664 241.14643197590678 352.55634832961243 238.90785572506076 355.3177720787664 238.90785572506076 C 358.07919582792033 238.90785572506076 360.3177720787664 241.14643197590678 360.3177720787664 243.90785572506076 Z" stroke-opacity="1" stroke-linecap="round" stroke-linejoin="round" stroke-miterlimit="10"/><text fill="rgb(176,0,32)" stroke="none" font-family="geogebra-sans-serif, sans-serif" font-size="16px" font-style="normal" font-weight="normal" text-decoration="normal" x="367" y="272" text-anchor="start" dominant-baseline="alphabetic" fill-opacity="1">(k,k-1)</text><path fill="rgb(176,0,32)" stroke="none" paint-order="stroke fill markers" d=" M 86.11975864693969 518.105869156888 C 86.11975864693969 520.867292906042 83.88118239609365 523.105869156888 81.11975864693969 523.105869156888 C 78.35833489778572 523.105869156888 76.11975864693969 520.867292906042 76.11975864693969 518.105869156888 C 76.11975864693969 515.344445407734 78.35833489778572 513.105869156888 81.11975864693969 513.105869156888 C 83.88118239609365 513.105869156888 86.11975864693969 515.344445407734 86.11975864693969 518.105869156888 Z" fill-opacity="1"/><path fill="none" stroke="rgb(0,0,0)" paint-order="fill stroke markers" d=" M 86.11975864693969 518.105869156888 C 86.11975864693969 520.867292906042 83.88118239609365 523.105869156888 81.11975864693969 523.105869156888 C 78.35833489778572 523.105869156888 76.11975864693969 520.867292906042 76.11975864693969 518.105869156888 C 76.11975864693969 515.344445407734 78.35833489778572 513.105869156888 81.11975864693969 513.105869156888 C 83.88118239609365 513.105869156888 86.11975864693969 515.344445407734 86.11975864693969 518.105869156888 Z" stroke-opacity="1" stroke-linecap="round" stroke-linejoin="round" stroke-miterlimit="10"/><text fill="rgb(176,0,32)" stroke="none" font-family="geogebra-sans-serif, sans-serif" font-size="16px" font-style="normal" font-weight="normal" text-decoration="normal" x="86" y="538" text-anchor="start" dominant-baseline="alphabetic" fill-opacity="1">(1,0)</text></g></g></svg>