<svg version="1.1" xmlns="http://www.w3.org/2000/svg" viewBox="0 0 390.9473808031224 102.48611521187746" width="390.9473808031224" height="102.48611521187746">
  <!-- svg-source:excalidraw -->
  
  <defs>
    <style class="style-fonts">
      @font-face {
        font-family: "Virgil";
        src: url("https://excalidraw.com/Virgil.woff2");
      }
      @font-face {
        font-family: "Cascadia";
        src: url("https://excalidraw.com/Cascadia.woff2");
      }
      @font-face {
        font-family: "Assistant";
        src: url("https://excalidraw.com/Assistant-Regular.woff2");
      }
    </style>
    
  </defs>
  <rect x="0" y="0" width="390.9473808031224" height="102.48611521187746" fill="#ffffff"></rect><g stroke-linecap="round" transform="translate(161.49842239253064 11.284868809857073) rotate(0 40.600583991122505 40.600623201010194)"><path d="M20.3 0 C34.31 0, 48.31 0, 60.9 0 M20.3 0 C31.14 0, 41.98 0, 60.9 0 M60.9 0 C74.43 0, 81.2 6.77, 81.2 20.3 M60.9 0 C74.43 0, 81.2 6.77, 81.2 20.3 M81.2 20.3 C81.2 30.57, 81.2 40.84, 81.2 60.9 M81.2 20.3 C81.2 35.69, 81.2 51.08, 81.2 60.9 M81.2 60.9 C81.2 74.43, 74.43 81.2, 60.9 81.2 M81.2 60.9 C81.2 74.43, 74.43 81.2, 60.9 81.2 M60.9 81.2 C50.45 81.2, 39.99 81.2, 20.3 81.2 M60.9 81.2 C52.46 81.2, 44.01 81.2, 20.3 81.2 M20.3 81.2 C6.77 81.2, 0 74.43, 0 60.9 M20.3 81.2 C6.77 81.2, 0 74.43, 0 60.9 M0 60.9 C0 49.73, 0 38.56, 0 20.3 M0 60.9 C0 47.14, 0 33.38, 0 20.3 M0 20.3 C0 6.77, 6.77 0, 20.3 0 M0 20.3 C0 6.77, 6.77 0, 20.3 0" stroke="#1e1e1e" stroke-width="2" fill="none"></path></g><g transform="translate(194.5726391961532 36.467536811234595) rotate(0 7.5263671875 15.417955199632644)"><text x="7.5263671875" y="0" font-family="Cascadia, Segoe UI Emoji" font-size="25.69659199938776px" fill="#1e1e1e" text-anchor="middle" style="white-space: pre;" direction="ltr" dominant-baseline="text-before-edge">i</text></g><g stroke-linecap="round" transform="translate(299.7462128208774 10) rotate(0 40.600583991122505 40.600623201010194)"><path d="M20.3 0 C33.2 0, 46.1 0, 60.9 0 M20.3 0 C29.36 0, 38.41 0, 60.9 0 M60.9 0 C74.43 0, 81.2 6.77, 81.2 20.3 M60.9 0 C74.43 0, 81.2 6.77, 81.2 20.3 M81.2 20.3 C81.2 28.44, 81.2 36.58, 81.2 60.9 M81.2 20.3 C81.2 36.09, 81.2 51.88, 81.2 60.9 M81.2 60.9 C81.2 74.43, 74.43 81.2, 60.9 81.2 M81.2 60.9 C81.2 74.43, 74.43 81.2, 60.9 81.2 M60.9 81.2 C46.89 81.2, 32.88 81.2, 20.3 81.2 M60.9 81.2 C50.02 81.2, 39.14 81.2, 20.3 81.2 M20.3 81.2 C6.77 81.2, 0 74.43, 0 60.9 M20.3 81.2 C6.77 81.2, 0 74.43, 0 60.9 M0 60.9 C0 51.6, 0 42.3, 0 20.3 M0 60.9 C0 47.53, 0 34.16, 0 20.3 M0 20.3 C0 6.77, 6.77 0, 20.3 0 M0 20.3 C0 6.77, 6.77 0, 20.3 0" stroke="#1e1e1e" stroke-width="2" fill="none"></path></g><g transform="translate(310.24132806199987 35.18266800137752) rotate(0 30.10546875 15.417955199632644)"><text x="30.10546875" y="0" font-family="Cascadia, Segoe UI Emoji" font-size="25.69659199938776px" fill="#1e1e1e" text-anchor="middle" style="white-space: pre;" direction="ltr" dominant-baseline="text-before-edge">R(i)</text></g><g stroke-linecap="round" transform="translate(10 10.998735287432737) rotate(0 40.600583991122505 40.600623201010194)"><path d="M20.3 0 C33.39 0, 46.47 0, 60.9 0 M20.3 0 C35.47 0, 50.65 0, 60.9 0 M60.9 0 C74.43 0, 81.2 6.77, 81.2 20.3 M60.9 0 C74.43 0, 81.2 6.77, 81.2 20.3 M81.2 20.3 C81.2 35.37, 81.2 50.44, 81.2 60.9 M81.2 20.3 C81.2 30.66, 81.2 41.03, 81.2 60.9 M81.2 60.9 C81.2 74.43, 74.43 81.2, 60.9 81.2 M81.2 60.9 C81.2 74.43, 74.43 81.2, 60.9 81.2 M60.9 81.2 C51.03 81.2, 41.16 81.2, 20.3 81.2 M60.9 81.2 C45.24 81.2, 29.57 81.2, 20.3 81.2 M20.3 81.2 C6.77 81.2, 0 74.43, 0 60.9 M20.3 81.2 C6.77 81.2, 0 74.43, 0 60.9 M0 60.9 C0 52.06, 0 43.22, 0 20.3 M0 60.9 C0 51.64, 0 42.38, 0 20.3 M0 20.3 C0 6.77, 6.77 0, 20.3 0 M0 20.3 C0 6.77, 6.77 0, 20.3 0" stroke="#1e1e1e" stroke-width="2" fill="none"></path></g><g transform="translate(20.49511524112245 36.18140328881026) rotate(0 30.10546875 15.417955199632644)"><text x="30.10546875" y="0" font-family="Cascadia, Segoe UI Emoji" font-size="25.69659199938776px" fill="#1e1e1e" text-anchor="middle" style="white-space: pre;" direction="ltr" dominant-baseline="text-before-edge">L(i)</text></g><g stroke-linecap="round"><g transform="translate(96.28233938472249 21.88340980610957) rotate(0 31.066269509873393 0.16048522473946036)"><path d="M0 0 C10.36 0.05, 51.78 0.27, 62.13 0.32" stroke="#1e1e1e" stroke-width="2.5" fill="none" stroke-dasharray="8 10"></path></g><g transform="translate(96.28233938472249 21.88340980610957) rotate(0 31.066269509873393 0.16048522473946036)"><path d="M38.6 8.75 C47.29 5.63, 55.99 2.52, 62.13 0.32" stroke="#1e1e1e" stroke-width="2.5" fill="none"></path></g><g transform="translate(96.28233938472249 21.88340980610957) rotate(0 31.066269509873393 0.16048522473946036)"><path d="M38.68 -8.35 C47.35 -5.15, 56.02 -1.94, 62.13 0.32" stroke="#1e1e1e" stroke-width="2.5" fill="none"></path></g></g><mask></mask><g stroke-linecap="round"><g transform="translate(244.75544320636732 21.563505609612207) rotate(0 25.18266800137752 0.5139239980102275)"><path d="M0 0 C8.39 0.17, 41.97 0.86, 50.37 1.03" stroke="#1e1e1e" stroke-width="2.5" fill="none" stroke-dasharray="8 10"></path></g><g transform="translate(244.75544320636732 21.563505609612207) rotate(0 25.18266800137752 0.5139239980102275)"><path d="M26.7 9.1 C32.87 6.99, 39.05 4.89, 50.37 1.03" stroke="#1e1e1e" stroke-width="2.5" fill="none"></path></g><g transform="translate(244.75544320636732 21.563505609612207) rotate(0 25.18266800137752 0.5139239980102275)"><path d="M27.05 -8 C33.13 -5.65, 39.21 -3.29, 50.37 1.03" stroke="#1e1e1e" stroke-width="2.5" fill="none"></path></g></g><mask></mask><g stroke-linecap="round"><g transform="translate(152.1312437896014 77.2959810054088) rotate(0 -30.32194719136743 0.5139436029540718)"><path d="M0 0 C-10.11 0.17, -50.54 0.86, -60.64 1.03" stroke="#1e1e1e" stroke-width="2.5" fill="none" stroke-dasharray="8 10"></path></g><g transform="translate(152.1312437896014 77.2959810054088) rotate(0 -30.32194719136743 0.5139436029540718)"><path d="M-37.3 -7.92 C-43.95 -5.37, -50.6 -2.82, -60.64 1.03" stroke="#1e1e1e" stroke-width="2.5" fill="none"></path></g><g transform="translate(152.1312437896014 77.2959810054088) rotate(0 -30.32194719136743 0.5139436029540718)"><path d="M-37.01 9.18 C-43.74 6.86, -50.48 4.53, -60.64 1.03" stroke="#1e1e1e" stroke-width="2.5" fill="none"></path></g></g><mask></mask><g stroke-linecap="round"><g transform="translate(298.2043231971836 82.2074392022347) rotate(0 -26.210515997397977 -0.5139239980102275)"><path d="M0 0 C-8.74 -0.17, -43.68 -0.86, -52.42 -1.03" stroke="#1e1e1e" stroke-width="2.5" fill="none" stroke-dasharray="8 10"></path></g><g transform="translate(298.2043231971836 82.2074392022347) rotate(0 -26.210515997397977 -0.5139239980102275)"><path d="M-28.77 -9.12 C-33.86 -7.37, -38.96 -5.63, -52.42 -1.03" stroke="#1e1e1e" stroke-width="2.5" fill="none"></path></g><g transform="translate(298.2043231971836 82.2074392022347) rotate(0 -26.210515997397977 -0.5139239980102275)"><path d="M-29.1 7.98 C-34.13 6.04, -39.15 4.1, -52.42 -1.03" stroke="#1e1e1e" stroke-width="2.5" fill="none"></path></g></g><mask></mask><g stroke-linecap="round"><g transform="translate(92.39872918391711 38.67916273225114) rotate(0 103.70274558971437 0.17901663946111057)"><path d="M0 0 C34.57 0.06, 172.84 0.3, 207.41 0.36 M0 0 C34.57 0.06, 172.84 0.3, 207.41 0.36" stroke="#e03131" stroke-width="2" fill="none"></path></g><g transform="translate(92.39872918391711 38.67916273225114) rotate(0 103.70274558971437 0.17901663946111057)"><path d="M183.9 8.87 C188.77 7.11, 193.64 5.34, 207.41 0.36 M183.9 8.87 C188.74 7.12, 193.58 5.36, 207.41 0.36" stroke="#e03131" stroke-width="2" fill="none"></path></g><g transform="translate(92.39872918391711 38.67916273225114) rotate(0 103.70274558971437 0.17901663946111057)"><path d="M183.93 -8.23 C188.79 -6.45, 193.65 -4.67, 207.41 0.36 M183.93 -8.23 C188.76 -6.46, 193.6 -4.69, 207.41 0.36" stroke="#e03131" stroke-width="2" fill="none"></path></g></g><mask></mask><g stroke-linecap="round"><g transform="translate(298.7462128208774 67.63652635661538) rotate(0 -102.65977861058224 -0.7987833714438466)"><path d="M0 0 C-34.22 -0.27, -171.1 -1.33, -205.32 -1.6 M0 0 C-34.22 -0.27, -171.1 -1.33, -205.32 -1.6" stroke="#e03131" stroke-width="2" fill="none"></path></g><g transform="translate(298.7462128208774 67.63652635661538) rotate(0 -102.65977861058224 -0.7987833714438466)"><path d="M-181.76 -9.97 C-191.02 -6.68, -200.27 -3.39, -205.32 -1.6 M-181.76 -9.97 C-188.08 -7.72, -194.39 -5.48, -205.32 -1.6" stroke="#e03131" stroke-width="2" fill="none"></path></g><g transform="translate(298.7462128208774 67.63652635661538) rotate(0 -102.65977861058224 -0.7987833714438466)"><path d="M-181.89 7.14 C-191.1 3.7, -200.3 0.27, -205.32 -1.6 M-181.89 7.14 C-188.17 4.79, -194.45 2.45, -205.32 -1.6" stroke="#e03131" stroke-width="2" fill="none"></path></g></g><mask></mask></svg>