<svg version="1.1" xmlns="http://www.w3.org/2000/svg" viewBox="0 0 104.24900723871679 385.002407354822" width="104.24900723871679" height="385.002407354822">
  <!-- svg-source:excalidraw -->
  
  <defs>
    <style class="style-fonts">
      @font-face {
        font-family: "Virgil";
        src: url("https://excalidraw.com/Virgil.woff2");
      }
      @font-face {
        font-family: "Cascadia";
        src: url("https://excalidraw.com/Cascadia.woff2");
      }
      @font-face {
        font-family: "Assistant";
        src: url("https://excalidraw.com/Assistant-Regular.woff2");
      }
    </style>
    
  </defs>
  <rect x="0" y="0" width="104.24900723871679" height="385.002407354822" fill="#ffffff"></rect><g stroke-linecap="round" transform="translate(10 150.28613352242434) rotate(0 40.600583991122505 40.600623201010194)"><path d="M20.3 0 C35.37 0, 50.44 0, 60.9 0 M20.3 0 C30.66 0, 41.02 0, 60.9 0 M60.9 0 C74.43 0, 81.2 6.77, 81.2 20.3 M60.9 0 C74.43 0, 81.2 6.77, 81.2 20.3 M81.2 20.3 C81.2 30.17, 81.2 40.04, 81.2 60.9 M81.2 20.3 C81.2 35.96, 81.2 51.63, 81.2 60.9 M81.2 60.9 C81.2 74.43, 74.43 81.2, 60.9 81.2 M81.2 60.9 C81.2 74.43, 74.43 81.2, 60.9 81.2 M60.9 81.2 C52.06 81.2, 43.22 81.2, 20.3 81.2 M60.9 81.2 C51.64 81.2, 42.38 81.2, 20.3 81.2 M20.3 81.2 C6.77 81.2, 0 74.43, 0 60.9 M20.3 81.2 C6.77 81.2, 0 74.43, 0 60.9 M0 60.9 C0 49.68, 0 38.45, 0 20.3 M0 60.9 C0 45.01, 0 29.12, 0 20.3 M0 20.3 C0 6.77, 6.77 0, 20.3 0 M0 20.3 C0 6.77, 6.77 0, 20.3 0" stroke="#1e1e1e" stroke-width="2" fill="none"></path></g><g transform="translate(43.07421680362256 175.46880152380186) rotate(0 7.5263671875 15.417955199632644)"><text x="7.5263671875" y="0" font-family="Cascadia, Segoe UI Emoji" font-size="25.69659199938776px" fill="#1e1e1e" text-anchor="middle" style="white-space: pre;" direction="ltr" dominant-baseline="text-before-edge">i</text></g><g stroke-linecap="round" transform="translate(13.047839256471775 293.80116095280164) rotate(0 40.600583991122505 40.600623201010194)"><path d="M20.3 0 C32.55 0, 44.8 0, 60.9 0 M20.3 0 C33.04 0, 45.78 0, 60.9 0 M60.9 0 C74.43 0, 81.2 6.77, 81.2 20.3 M60.9 0 C74.43 0, 81.2 6.77, 81.2 20.3 M81.2 20.3 C81.2 33.95, 81.2 47.61, 81.2 60.9 M81.2 20.3 C81.2 32.77, 81.2 45.25, 81.2 60.9 M81.2 60.9 C81.2 74.43, 74.43 81.2, 60.9 81.2 M81.2 60.9 C81.2 74.43, 74.43 81.2, 60.9 81.2 M60.9 81.2 C48.9 81.2, 36.91 81.2, 20.3 81.2 M60.9 81.2 C52.01 81.2, 43.12 81.2, 20.3 81.2 M20.3 81.2 C6.77 81.2, 0 74.43, 0 60.9 M20.3 81.2 C6.77 81.2, 0 74.43, 0 60.9 M0 60.9 C0 50.75, 0 40.59, 0 20.3 M0 60.9 C0 46.1, 0 31.3, 0 20.3 M0 20.3 C0 6.77, 6.77 0, 20.3 0 M0 20.3 C0 6.77, 6.77 0, 20.3 0" stroke="#1e1e1e" stroke-width="2" fill="none"></path></g><g transform="translate(23.542954497594224 318.98382895417916) rotate(0 30.10546875 15.417955199632644)"><text x="30.10546875" y="0" font-family="Cascadia, Segoe UI Emoji" font-size="25.69659199938776px" fill="#1e1e1e" text-anchor="middle" style="white-space: pre;" direction="ltr" dominant-baseline="text-before-edge">D(i)</text></g><g stroke-linecap="round" transform="translate(10.501699677781858 10) rotate(0 40.600583991122505 40.600623201010194)"><path d="M20.3 0 C31.88 0, 43.45 0, 60.9 0 M20.3 0 C33.2 0, 46.1 0, 60.9 0 M60.9 0 C74.43 0, 81.2 6.77, 81.2 20.3 M60.9 0 C74.43 0, 81.2 6.77, 81.2 20.3 M81.2 20.3 C81.2 29.69, 81.2 39.08, 81.2 60.9 M81.2 20.3 C81.2 31.65, 81.2 43.01, 81.2 60.9 M81.2 60.9 C81.2 74.43, 74.43 81.2, 60.9 81.2 M81.2 60.9 C81.2 74.43, 74.43 81.2, 60.9 81.2 M60.9 81.2 C48.54 81.2, 36.17 81.2, 20.3 81.2 M60.9 81.2 C45.8 81.2, 30.71 81.2, 20.3 81.2 M20.3 81.2 C6.77 81.2, 0 74.43, 0 60.9 M20.3 81.2 C6.77 81.2, 0 74.43, 0 60.9 M0 60.9 C0 52.55, 0 44.2, 0 20.3 M0 60.9 C0 51.76, 0 42.62, 0 20.3 M0 20.3 C0 6.77, 6.77 0, 20.3 0 M0 20.3 C0 6.77, 6.77 0, 20.3 0" stroke="#1e1e1e" stroke-width="2" fill="none"></path></g><g transform="translate(20.996814918904306 35.18266800137755) rotate(0 30.10546875 15.417955199632658)"><text x="30.10546875" y="0" font-family="Cascadia, Segoe UI Emoji" font-size="25.69659199938776px" fill="#1e1e1e" text-anchor="middle" style="white-space: pre;" direction="ltr" dominant-baseline="text-before-edge">U(i)</text></g><g stroke-linecap="round"><g transform="translate(80.6784061128509 96.28241780449792) rotate(0 -0.15899416933712018 25.460085864932495)"><path d="M0 0 C-0.05 8.49, -0.26 42.43, -0.32 50.92" stroke="#1e1e1e" stroke-width="2.5" fill="none" stroke-dasharray="8 10"></path></g><g transform="translate(80.6784061128509 96.28241780449792) rotate(0 -0.15899416933712018 25.460085864932495)"><path d="M-8.72 27.37 C-5.63 36.03, -2.54 44.69, -0.32 50.92" stroke="#1e1e1e" stroke-width="2.5" fill="none"></path></g><g transform="translate(80.6784061128509 96.28241780449792) rotate(0 -0.15899416933712018 25.460085864932495)"><path d="M8.38 27.48 C5.18 36.1, 1.98 44.72, -0.32 50.92" stroke="#1e1e1e" stroke-width="2.5" fill="none"></path></g></g><mask></mask><g stroke-linecap="round"><g transform="translate(81.00224305092331 233.54323275603633) rotate(0 -0.17668749097833825 27.816247292505153)"><path d="M0 0 C-0.06 9.27, -0.29 46.36, -0.35 55.63" stroke="#1e1e1e" stroke-width="2.5" fill="none" stroke-dasharray="8 10"></path></g><g transform="translate(81.00224305092331 233.54323275603633) rotate(0 -0.17668749097833825 27.816247292505153)"><path d="M-8.75 32.09 C-6.69 37.88, -4.62 43.67, -0.35 55.63" stroke="#1e1e1e" stroke-width="2.5" fill="none"></path></g><g transform="translate(81.00224305092331 233.54323275603633) rotate(0 -0.17668749097833825 27.816247292505153)"><path d="M8.35 32.19 C6.21 37.96, 4.07 43.73, -0.35 55.63" stroke="#1e1e1e" stroke-width="2.5" fill="none"></path></g></g><mask></mask><g stroke-linecap="round"><g transform="translate(24.153748479743626 148.91895491949504) rotate(0 0.009699632749857301 -28.358854258737296)"><path d="M0 0 C0 -9.45, 0.02 -47.26, 0.02 -56.72" stroke="#1e1e1e" stroke-width="2.5" fill="none" stroke-dasharray="8 10"></path></g><g transform="translate(24.153748479743626 148.91895491949504) rotate(0 0.009699632749857301 -28.358854258737296)"><path d="M8.56 -33.22 C6.31 -39.41, 4.07 -45.59, 0.02 -56.72" stroke="#1e1e1e" stroke-width="2.5" fill="none"></path></g><g transform="translate(24.153748479743626 148.91895491949504) rotate(0 0.009699632749857301 -28.358854258737296)"><path d="M-8.54 -33.23 C-6.29 -39.41, -4.03 -45.59, 0.02 -56.72" stroke="#1e1e1e" stroke-width="2.5" fill="none"></path></g></g><mask></mask><g stroke-linecap="round"><g transform="translate(22.610191471997382 291.45928353613914) rotate(0 -0.19924573792138744 -28.444101392041233)"><path d="M0 0 C-0.07 -9.48, -0.33 -47.41, -0.4 -56.89" stroke="#1e1e1e" stroke-width="2.5" fill="none" stroke-dasharray="8 10"></path></g><g transform="translate(22.610191471997382 291.45928353613914) rotate(0 -0.19924573792138744 -28.444101392041233)"><path d="M8.32 -33.46 C5.65 -40.64, 2.97 -47.82, -0.4 -56.89" stroke="#1e1e1e" stroke-width="2.5" fill="none"></path></g><g transform="translate(22.610191471997382 291.45928353613914) rotate(0 -0.19924573792138744 -28.444101392041233)"><path d="M-8.78 -33.34 C-6.21 -40.56, -3.64 -47.77, -0.4 -56.89" stroke="#1e1e1e" stroke-width="2.5" fill="none"></path></g></g><mask></mask><g stroke-linecap="round"><g transform="translate(41.12732505792394 292.00117315983294) rotate(0 0.2849469744363091 -99.6872134666566)"><path d="M0 0 C0.09 -33.23, 0.47 -166.15, 0.57 -199.37 M0 0 C0.09 -33.23, 0.47 -166.15, 0.57 -199.37" stroke="#e03131" stroke-width="2" fill="none"></path></g><g transform="translate(41.12732505792394 292.00117315983294) rotate(0 0.2849469744363091 -99.6872134666566)"><path d="M9.05 -175.86 C7.32 -180.65, 5.59 -185.45, 0.57 -199.37 M9.05 -175.86 C5.94 -184.47, 2.84 -193.09, 0.57 -199.37" stroke="#e03131" stroke-width="2" fill="none"></path></g><g transform="translate(41.12732505792394 292.00117315983294) rotate(0 0.2849469744363091 -99.6872134666566)"><path d="M-8.05 -175.91 C-6.29 -180.69, -4.53 -185.48, 0.57 -199.37 M-8.05 -175.91 C-4.89 -184.51, -1.73 -193.1, 0.57 -199.37" stroke="#e03131" stroke-width="2" fill="none"></path></g></g><mask></mask><g stroke-linecap="round"><g transform="translate(59.60934165914546 94.00126471256726) rotate(0 0.34083104098095873 99.20002746582031)"><path d="M0 0 C0.11 33.07, 0.57 165.33, 0.68 198.4 M0 0 C0.11 33.07, 0.57 165.33, 0.68 198.4" stroke="#e03131" stroke-width="2" fill="none"></path></g><g transform="translate(59.60934165914546 94.00126471256726) rotate(0 0.34083104098095873 99.20002746582031)"><path d="M-7.95 174.94 C-6.04 180.12, -4.14 185.3, 0.68 198.4 M-7.95 174.94 C-5.29 182.17, -2.63 189.4, 0.68 198.4" stroke="#e03131" stroke-width="2" fill="none"></path></g><g transform="translate(59.60934165914546 94.00126471256726) rotate(0 0.34083104098095873 99.20002746582031)"><path d="M9.15 174.88 C7.28 180.07, 5.41 185.27, 0.68 198.4 M9.15 174.88 C6.54 182.13, 3.93 189.38, 0.68 198.4" stroke="#e03131" stroke-width="2" fill="none"></path></g></g><mask></mask></svg>