<?xml version="1.0" encoding="UTF-8" standalone="no"?>
<svg
   xmlns:dc="http://purl.org/dc/elements/1.1/"
   xmlns:cc="http://creativecommons.org/ns#"
   xmlns:rdf="http://www.w3.org/1999/02/22-rdf-syntax-ns#"
   xmlns:svg="http://www.w3.org/2000/svg"
   xmlns="http://www.w3.org/2000/svg"
   width="480"
   height="256"
   viewBox="0 0 480 256.00002"
   version="1.1"
   id="svg8">
  <defs
     id="defs2" />
  <metadata
     id="metadata5">
    <rdf:RDF>
      <cc:Work
         rdf:about="">
        <dc:format>image/svg+xml</dc:format>
        <dc:type
           rdf:resource="http://purl.org/dc/dcmitype/StillImage" />
        <dc:title></dc:title>
        <cc:license
           rdf:resource="http://creativecommons.org/publicdomain/zero/1.0/" />
      </cc:Work>
      <cc:License
         rdf:about="http://creativecommons.org/publicdomain/zero/1.0/">
        <cc:permits
           rdf:resource="http://creativecommons.org/ns#Reproduction" />
        <cc:permits
           rdf:resource="http://creativecommons.org/ns#Distribution" />
        <cc:permits
           rdf:resource="http://creativecommons.org/ns#DerivativeWorks" />
      </cc:License>
    </rdf:RDF>
  </metadata>
  <g
     id="layer1">
    <g
       id="g1008">
      <path
         d="m 209.15917,13.680002 q 1.428,0 2.604,0.672 1.176,0.672 1.876,2.016 0.7,1.344 0.7,3.276 0,1.988 -0.812,3.528 -0.784,1.512 -2.156,2.352 -1.344,0.812 -2.996,0.812 -3.276,0 -4.788,-2.408 -1.512,-2.436 -1.512,-6.72 0,-3.052 0.84,-5.348 0.868,-2.3240001 2.464,-3.5840001 1.596,-1.288 3.78,-1.288 2.128,0 3.864,1.148 l -1.008,1.708 q -1.316,-0.812 -2.884,-0.812 -2.016,0 -3.192,1.9320001 -1.176,1.932 -1.288,5.18 1.736,-2.464 4.508,-2.464 z m -0.784,10.612 q 1.624,0 2.492,-1.232 0.868,-1.232 0.868,-3.332 0,-4.004 -3.024,-4.004 -1.232,0 -2.268,0.7 -1.036,0.672 -1.764,1.876 0.084,3.08 0.952,4.536 0.896,1.456 2.744,1.456 z M 180.73267,9.2840019 h -7.308 v 5.5160001 q 1.428,-0.728 2.996,-0.728 2.408,0 3.864,1.596 1.456,1.568 1.456,4.34 0,1.848 -0.812,3.304 -0.812,1.428 -2.296,2.24 -1.456,0.784 -3.388,0.784 -1.708,0 -3.052,-0.588 -1.344,-0.616 -2.492,-1.792 l 1.512,-1.484 q 0.896,0.896 1.848,1.344 0.952,0.42 2.156,0.42 1.792,0 2.8,-1.12 1.036,-1.12 1.036,-3.164 0,-2.044 -0.924,-2.968 -0.924,-0.924 -2.492,-0.924 -0.728,0 -1.344,0.168 -0.616,0.14 -1.316,0.476 h -2.016 V 7.2680019 h 10.136 z M 150.6185,19.336002 v 2.044 h -2.436 v 4.62 h -2.492 v -4.62 h -8.008 v -1.848 l 5.628,-12.5440001 2.156,0.896 -5.068,11.4520001 h 5.32 l 0.224,-5.04 h 2.24 v 5.04 z M 111.32735,6.9880019 q 1.736,0 2.968,0.644 1.26,0.644 1.904,1.736 0.672,1.0920001 0.672,2.3800001 0,1.708 -1.008,2.828 -0.98,1.092 -2.632,1.484 1.876,0.168 3.052,1.344 1.176,1.176 1.176,3.192 0,1.624 -0.784,2.94 -0.784,1.316 -2.24,2.072 -1.456,0.728 -3.36,0.728 -1.708,0 -3.136,-0.616 -1.428,-0.644 -2.492,-1.904 l 1.54,-1.428 q 0.924,0.952 1.876,1.4 0.98,0.448 2.128,0.448 1.764,0 2.772,-0.98 1.008,-1.008 1.008,-2.688 0,-1.848 -0.952,-2.604 -0.952,-0.756 -2.772,-0.756 h -1.4 l 0.308,-1.988 h 0.952 q 1.456,0 2.408,-0.868 0.98,-0.868 0.98,-2.436 0,-1.316 -0.84,-2.0720001 -0.84,-0.784 -2.268,-0.784 -1.092,0 -2.016,0.392 -0.896,0.392 -1.848,1.2880001 l -1.344,-1.5400001 q 2.38,-2.212 5.348,-2.212 z m -31.861311,0 q 1.68,0 2.94,0.672 1.288,0.672 1.988,1.848 0.7,1.1480001 0.7,2.6040001 0,1.708 -0.784,3.276 -0.756,1.568 -2.352,3.388 -1.596,1.82 -4.844,5.068 h 8.428 l -0.308,2.156 h -11.06 v -2.044 q 3.752,-3.892 5.32,-5.684 1.568,-1.82 2.24,-3.164 0.672,-1.344 0.672,-2.884 0,-1.456 -0.84,-2.2680001 -0.84,-0.84 -2.24,-0.84 -1.148,0 -2.016,0.476 -0.868,0.4760001 -1.848,1.5680001 l -1.68,-1.3440001 q 1.148,-1.428 2.548,-2.128 1.4,-0.7 3.136,-0.7 z m -28.492348,0.28 V 26.000002 h -2.576 v -15.988 l -4.368,2.66 -1.12,-1.82 5.796,-3.5840001 z M 17.159148,205.68002 q 1.428,0 2.604,0.672 1.176,0.672 1.876,2.016 0.7,1.344 0.7,3.276 0,1.988 -0.812,3.528 -0.784,1.512 -2.156,2.352 -1.344,0.812 -2.996,0.812 -3.276,0 -4.788,-2.408 -1.512,-2.436 -1.512,-6.72 0,-3.052 0.84,-5.348 0.868,-2.324 2.464,-3.584 1.596,-1.288 3.78,-1.288 2.128,0 3.864,1.148 l -1.008,1.708 q -1.316,-0.812 -2.884,-0.812 -2.016,0 -3.192,1.932 -1.176,1.932 -1.288,5.18 1.736,-2.464 4.508,-2.464 z m -0.784,10.612 q 1.624,0 2.492,-1.232 0.868,-1.232 0.868,-3.332 0,-4.004 -3.024,-4.004 -1.232,0 -2.268,0.7 -1.036,0.672 -1.764,1.876 0.084,3.08 0.952,4.536 0.896,1.456 2.744,1.456 z m 4.3575,-47.008 h -7.308 v 5.516 q 1.428,-0.728 2.996,-0.728 2.408,0 3.864,1.596 1.456,1.568 1.456,4.34 0,1.848 -0.812,3.304 -0.812,1.428 -2.296,2.24 -1.456,0.784 -3.388,0.784 -1.708,0 -3.052,-0.588 -1.344,-0.616 -2.4920003,-1.792 l 1.5120003,-1.484 q 0.896,0.896 1.848,1.344 0.952,0.42 2.156,0.42 1.792,0 2.8,-1.12 1.036,-1.12 1.036,-3.164 0,-2.044 -0.924,-2.968 -0.924,-0.924 -2.492,-0.924 -0.728,0 -1.344,0.168 -0.616,0.14 -1.316,0.476 h -2.016 v -9.436 h 10.136 z m 1.885843,-21.948 v 2.044 h -2.436 v 4.62 h -2.492 v -4.62 H 9.6824914 v -1.848 l 5.6279996,-12.544 2.156,0.896 -5.068,11.452 h 5.32 l 0.224,-5.04 h 2.24 v 5.04 z M 15.327335,102.988 q 1.736,0 2.968,0.644 1.26,0.644 1.904,1.736 0.672,1.092 0.672,2.38 0,1.708 -1.008,2.828 -0.98,1.092 -2.632,1.484 1.876,0.168 3.052,1.344 1.176,1.176 1.176,3.192 0,1.624 -0.784,2.94 -0.784,1.316 -2.24,2.072 -1.456,0.728 -3.36,0.728 -1.708,0 -3.136,-0.616 -1.428,-0.644 -2.4919998,-1.904 l 1.5399998,-1.428 q 0.924,0.952 1.876,1.4 0.98,0.448 2.128,0.448 1.764,0 2.772,-0.98 1.008,-1.008 1.008,-2.688 0,-1.848 -0.952,-2.604 -0.952,-0.756 -2.772,-0.756 h -1.4 l 0.308,-1.988 h 0.952 q 1.456,0 2.408,-0.868 0.98,-0.868 0.98,-2.436 0,-1.316 -0.84,-2.072 -0.84,-0.784 -2.268,-0.784 -1.092,0 -2.016,0.392 -0.896,0.392 -1.848,1.288 L 9.9793352,105.2 q 2.3799998,-2.212 5.3479998,-2.212 z m 0.138688,-31.999992 q 1.68,0 2.94,0.672 1.288,0.672 1.988,1.848 0.7,1.148 0.7,2.604 0,1.708 -0.784,3.276 -0.756,1.568 -2.352,3.388 -1.596,1.82 -4.844,5.068 h 8.428 l -0.308,2.156 h -11.06 v -2.044 q 3.752,-3.892 5.32,-5.684 1.568,-1.82 2.24,-3.164 0.672,-1.344 0.672,-2.884 0,-1.456 -0.84,-2.268 -0.84,-0.84 -2.24,-0.84 -1.148,0 -2.016,0.476 -0.868,0.476 -1.848,1.568 l -1.6800003,-1.344 q 1.1480003,-1.428 2.5480003,-2.128 1.4,-0.7 3.136,-0.7 z M 18.973679,39.268 V 58 h -2.576 V 42.012 l -4.368,2.66 -1.12,-1.82 5.796,-3.584 z"
         id="path1240" />
      <path
         id="path979"
         style="fill:none;stroke:#000000;stroke-width:2;stroke-linecap:butt;stroke-linejoin:miter;stroke-miterlimit:4;stroke-dasharray:none;stroke-opacity:1"
         d="M 192,32.000004 V 224.00001 M 160,32.000004 V 224.00001 M 128,32.000004 V 224.00001 M 95.999996,32.000004 V 224.00001 M 63.999994,32.000004 V 224.00001 m -32.000001,-32 H 224 m -192.000007,-32 H 224 m -192.000007,-32 H 224 M 31.999993,96.000012 H 224 M 31.999993,64.000005 H 224 M 31.999991,32.000002 H 224.00001 V 224.00002 H 31.999991 Z" />
      <g
         transform="translate(-8.8000002e-6,-3.9999984)"
         id="g1070">
        <rect
           style="opacity:0.995;fill:#000000;stroke:none;stroke-width:2;stroke-linejoin:round;stroke-miterlimit:4;stroke-dasharray:none;stroke-opacity:1;paint-order:stroke fill markers"
           id="rect1012"
           width="56.000004"
           height="24.000002"
           x="36"
           y="40.000004" />
        <rect
           style="opacity:0.995;fill:#000000;stroke:none;stroke-width:2;stroke-linejoin:round;stroke-miterlimit:4;stroke-dasharray:none;stroke-opacity:1;paint-order:stroke fill markers"
           id="rect1014"
           width="24.000002"
           height="56.000004"
           x="36"
           y="72" />
        <rect
           style="opacity:0.995;fill:#000000;stroke:none;stroke-width:2;stroke-linejoin:round;stroke-miterlimit:4;stroke-dasharray:none;stroke-opacity:1;paint-order:stroke fill markers"
           id="rect1016"
           width="24.000002"
           height="56.000004"
           x="68"
           y="72" />
        <rect
           style="opacity:0.995;fill:#000000;stroke:none;stroke-width:2;stroke-linejoin:round;stroke-miterlimit:4;stroke-dasharray:none;stroke-opacity:1;paint-order:stroke fill markers"
           id="rect1018"
           width="56.000004"
           height="24.000002"
           x="36"
           y="136" />
        <rect
           style="opacity:0.995;fill:#000000;stroke:none;stroke-width:2;stroke-linejoin:round;stroke-miterlimit:4;stroke-dasharray:none;stroke-opacity:1;paint-order:stroke fill markers"
           id="rect1020"
           width="56.000004"
           height="24.000002"
           x="36"
           y="168.00002" />
        <rect
           style="opacity:0.995;fill:#000000;stroke:none;stroke-width:2;stroke-linejoin:round;stroke-miterlimit:4;stroke-dasharray:none;stroke-opacity:1;paint-order:stroke fill markers"
           id="rect1022"
           width="56.000004"
           height="24.000002"
           x="36"
           y="200.00002" />
        <rect
           style="opacity:0.995;fill:#000000;stroke:none;stroke-width:2;stroke-linejoin:round;stroke-miterlimit:4;stroke-dasharray:none;stroke-opacity:1;paint-order:stroke fill markers"
           id="rect1024"
           width="24.000002"
           height="56.000004"
           x="100.00001"
           y="40.000004" />
        <rect
           style="opacity:0.995;fill:#000000;stroke:none;stroke-width:2;stroke-linejoin:round;stroke-miterlimit:4;stroke-dasharray:none;stroke-opacity:1;paint-order:stroke fill markers"
           id="rect1026"
           width="24.000002"
           height="56.000004"
           x="132"
           y="40.000004" />
        <rect
           style="opacity:0.995;fill:#000000;stroke:none;stroke-width:2;stroke-linejoin:round;stroke-miterlimit:4;stroke-dasharray:none;stroke-opacity:1;paint-order:stroke fill markers"
           id="rect1028"
           width="24.000002"
           height="56.000004"
           x="100.00001"
           y="104.00001" />
        <rect
           style="opacity:0.995;fill:#000000;stroke:none;stroke-width:2;stroke-linejoin:round;stroke-miterlimit:4;stroke-dasharray:none;stroke-opacity:1;paint-order:stroke fill markers"
           id="rect1030"
           width="24.000002"
           height="56.000004"
           x="132"
           y="104.00001" />
        <rect
           style="opacity:0.995;fill:#000000;stroke:none;stroke-width:2;stroke-linejoin:round;stroke-miterlimit:4;stroke-dasharray:none;stroke-opacity:1;paint-order:stroke fill markers"
           id="rect1032"
           width="24.000002"
           height="56.000004"
           x="100.00001"
           y="168.00002" />
        <rect
           style="opacity:0.995;fill:#000000;stroke:none;stroke-width:2;stroke-linejoin:round;stroke-miterlimit:4;stroke-dasharray:none;stroke-opacity:1;paint-order:stroke fill markers"
           id="rect1034"
           width="24.000002"
           height="56.000004"
           x="132"
           y="168.00002" />
        <rect
           style="opacity:0.995;fill:#000000;stroke:none;stroke-width:2;stroke-linejoin:round;stroke-miterlimit:4;stroke-dasharray:none;stroke-opacity:1;paint-order:stroke fill markers"
           id="rect1036"
           width="56.000004"
           height="24.000002"
           x="164.00002"
           y="168.00002" />
        <rect
           style="opacity:0.995;fill:#000000;stroke:none;stroke-width:2;stroke-linejoin:round;stroke-miterlimit:4;stroke-dasharray:none;stroke-opacity:1;paint-order:stroke fill markers"
           id="rect1038"
           width="56.000004"
           height="24.000002"
           x="164.00002"
           y="200.00002" />
        <rect
           style="opacity:0.995;fill:#000000;stroke:none;stroke-width:2;stroke-linejoin:round;stroke-miterlimit:4;stroke-dasharray:none;stroke-opacity:1;paint-order:stroke fill markers"
           id="rect1044"
           width="24.000002"
           height="56.000004"
           x="164.00002"
           y="104.00001" />
        <rect
           style="opacity:0.995;fill:#000000;stroke:none;stroke-width:2;stroke-linejoin:round;stroke-miterlimit:4;stroke-dasharray:none;stroke-opacity:1;paint-order:stroke fill markers"
           id="rect1046"
           width="24.000002"
           height="56.000004"
           x="196.00002"
           y="104.00001" />
        <rect
           style="opacity:0.995;fill:#000000;stroke:none;stroke-width:2;stroke-linejoin:round;stroke-miterlimit:4;stroke-dasharray:none;stroke-opacity:1;paint-order:stroke fill markers"
           id="rect1048"
           width="56.000004"
           height="24.000002"
           x="164.00002"
           y="72" />
        <rect
           style="opacity:0.995;fill:#000000;stroke:none;stroke-width:2;stroke-linejoin:round;stroke-miterlimit:4;stroke-dasharray:none;stroke-opacity:1;paint-order:stroke fill markers"
           id="rect1050"
           width="56.000004"
           height="24.000002"
           x="164.00002"
           y="40.000004" />
      </g>
    </g>
    <g
       id="g1336">
      <path
         id="path979-6"
         style="fill:none;stroke:#000000;stroke-width:2;stroke-linecap:butt;stroke-linejoin:miter;stroke-miterlimit:4;stroke-dasharray:none;stroke-opacity:1"
         d="M 416.00002,32.000002 V 224.00001 m -32,-192.000008 V 224.00001 m -32,-192.000008 V 224.00001 M 320.00001,32.000002 V 224.00001 m -32,-192.000008 V 224.00001 m -32,-32 h 192.00001 m -192.00001,-32 h 192.00001 m -192.00001,-32 h 192.00001 m -192.00001,-32 H 448.00002 M 256.00001,64.000003 H 448.00002 M 256.00001,32 H 448.00003 V 224.00002 H 256.00001 Z" />
      <path
         d="m 434.0775,56.096004 v -17.388 h -2.072 l -5.74,3.584 1.036,1.652 4.396,-2.66 v 14.812 h -4.732 v 1.904 h 11.116 v -1.904 z m -32,0 v -17.388 h -2.072 l -5.74,3.584 1.036,1.652 4.396,-2.66 v 14.812 h -4.732 v 1.904 h 11.116 v -1.904 z m 32,32.000004 v -17.388 h -2.072 l -5.74,3.584 1.036,1.652 4.396,-2.66 v 14.812 h -4.732 v 1.904 h 11.116 v -1.904 z m -32,0 v -17.388 h -2.072 l -5.74,3.584 1.036,1.652 4.396,-2.66 v 14.812 h -4.732 v 1.904 h 11.116 v -1.904 z m 32,128.000012 v -17.388 h -2.072 l -5.74,3.584 1.036,1.652 4.396,-2.66 v 14.812 h -4.732 v 1.904 h 11.116 v -1.904 z m -32,0 v -17.388 h -2.072 l -5.74,3.584 1.036,1.652 4.396,-2.66 v 14.812 h -4.732 v 1.904 h 11.116 v -1.904 z m 32,-32 v -17.388 h -2.072 l -5.74,3.584 1.036,1.652 4.396,-2.66 v 14.812 h -4.732 v 1.904 h 11.116 v -1.904 z m -32,0 v -17.388 h -2.072 l -5.74,3.584 1.036,1.652 4.396,-2.66 v 14.812 h -4.732 v 1.904 h 11.116 v -1.904 z m -96.00003,32 v -17.388 h -2.072 l -5.74,3.584 1.036,1.652 4.396,-2.66 v 14.812 h -4.732 v 1.904 h 11.116 v -1.904 z m -32,0 v -17.388 h -2.072 l -5.74,3.584 1.036,1.652 4.396,-2.66 v 14.812 h -4.732 v 1.904 h 11.116 v -1.904 z m 32,-32 v -17.388 h -2.072 l -5.74,3.584 1.036,1.652 4.396,-2.66 v 14.812 h -4.732 v 1.904 h 11.116 v -1.904 z m -32,0 v -17.388 h -2.072 l -5.74,3.584 1.036,1.652 4.396,-2.66 v 14.812 h -4.732 v 1.904 h 11.116 v -1.904 z m 32,-32 v -17.388 h -2.072 l -5.74,3.584 1.036,1.652 4.396,-2.66 v 14.812 h -4.732 v 1.904 h 11.116 v -1.904 z m -32,0 v -17.388 h -2.072 l -5.74,3.584 1.036,1.652 4.396,-2.66 v 14.812 h -4.732 v 1.904 h 11.116 v -1.904 z m 160.00003,0 v -17.388 h -2.072 l -5.74,3.584 1.036,1.652 4.396,-2.66 v 14.812 h -4.732 v 1.904 h 11.116 v -1.904 z m -2.072,-49.69601 c -4.144,0 -6.3,3.556 -6.3,9.94 0,6.412 2.156,9.968 6.3,9.968 4.144,0 6.3,-3.556 6.3,-9.968 0,-6.384 -2.156,-9.94 -6.3,-9.94 z m 0,1.904 c 2.408,0 3.836,2.352 3.836,8.036 0,5.712 -1.428,8.064 -3.836,8.064 -2.38,0 -3.836,-2.352 -3.836,-8.064 0,-5.684 1.456,-8.036 3.836,-8.036 z m 0,6.216 c -1.036,0 -1.82,0.812 -1.82,1.82 0,1.036 0.784,1.848 1.82,1.848 1.064,0 1.848,-0.812 1.848,-1.848 0,-1.008 -0.784,-1.82 -1.848,-1.82 z m -29.928,41.57601 v -17.388 h -2.072 l -5.74,3.584 1.036,1.652 4.396,-2.66 v 14.812 h -4.732 v 1.904 h 11.116 v -1.904 z m -2.072,-49.69601 c -4.144,0 -6.3,3.556 -6.3,9.94 0,6.412 2.156,9.968 6.3,9.968 4.144,0 6.3,-3.556 6.3,-9.968 0,-6.384 -2.156,-9.94 -6.3,-9.94 z m 0,1.904 c 2.408,0 3.836,2.352 3.836,8.036 0,5.712 -1.428,8.064 -3.836,8.064 -2.38,0 -3.836,-2.352 -3.836,-8.064 0,-5.684 1.456,-8.036 3.836,-8.036 z m 0,6.216 c -1.036,0 -1.82,0.812 -1.82,1.82 0,1.036 0.784,1.848 1.82,1.848 1.064,0 1.848,-0.812 1.848,-1.848 0,-1.008 -0.784,-1.82 -1.848,-1.82 z m -125.92803,9.576 v -17.388 h -2.072 l -5.74,3.584 1.036,1.652 4.396,-2.66 v 14.812 h -4.732 v 1.904 h 11.116 v -1.904 z m -2.072,-49.696002 c -4.144,0 -6.3,3.556 -6.3,9.94 0,6.412 2.156,9.968 6.3,9.968 4.144,0 6.3,-3.556 6.3,-9.968 0,-6.384 -2.156,-9.94 -6.3,-9.94 z m 0,1.904 c 2.408,0 3.836,2.352 3.836,8.036 0,5.712 -1.428,8.064 -3.836,8.064 -2.38,0 -3.836,-2.352 -3.836,-8.064 0,-5.684 1.456,-8.036 3.836,-8.036 z m 0,6.216 c -1.036,0 -1.82,0.812 -1.82,1.82 0,1.036 0.784,1.848 1.82,1.848 1.064,0 1.848,-0.812 1.848,-1.848 0,-1.008 -0.784,-1.82 -1.848,-1.82 z m 34.072,41.576002 v -17.388 h -2.072 l -5.74,3.584 1.036,1.652 4.396,-2.66 v 14.812 h -4.732 v 1.904 h 11.116 v -1.904 z m -2.072,-49.696002 c -4.144,0 -6.3,3.556 -6.3,9.94 0,6.412 2.156,9.968 6.3,9.968 4.144,0 6.3,-3.556 6.3,-9.968 0,-6.384 -2.156,-9.94 -6.3,-9.94 z m 0,1.904 c 2.408,0 3.836,2.352 3.836,8.036 0,5.712 -1.428,8.064 -3.836,8.064 -2.38,0 -3.836,-2.352 -3.836,-8.064 0,-5.684 1.456,-8.036 3.836,-8.036 z m 0,6.216 c -1.036,0 -1.82,0.812 -1.82,1.82 0,1.036 0.784,1.848 1.82,1.848 1.064,0 1.848,-0.812 1.848,-1.848 0,-1.008 -0.784,-1.82 -1.848,-1.82 z m 34.07203,73.576012 v -17.388 h -2.072 l -5.74,3.584 1.036,1.652 4.396,-2.66 v 14.812 h -4.732 v 1.904 h 11.116 v -1.904 z m -2.072,-49.69601 c -4.144,0 -6.3,3.556 -6.3,9.94 0,6.412 2.156,9.968 6.3,9.968 4.144,0 6.3,-3.556 6.3,-9.968 0,-6.384 -2.156,-9.94 -6.3,-9.94 z m 0,1.904 c 2.408,0 3.836,2.352 3.836,8.036 0,5.712 -1.428,8.064 -3.836,8.064 -2.38,0 -3.836,-2.352 -3.836,-8.064 0,-5.684 1.456,-8.036 3.836,-8.036 z m 0,6.216 c -1.036,0 -1.82,0.812 -1.82,1.82 0,1.036 0.784,1.848 1.82,1.848 1.064,0 1.848,-0.812 1.848,-1.848 0,-1.008 -0.784,-1.82 -1.848,-1.82 z m 2.072,105.57601 v -17.388 h -2.072 l -5.74,3.584 1.036,1.652 4.396,-2.66 v 14.812 h -4.732 v 1.904 h 11.116 v -1.904 z m -2.072,-49.696 c -4.144,0 -6.3,3.556 -6.3,9.94 0,6.412 2.156,9.968 6.3,9.968 4.144,0 6.3,-3.556 6.3,-9.968 0,-6.384 -2.156,-9.94 -6.3,-9.94 z m 0,1.904 c 2.408,0 3.836,2.352 3.836,8.036 0,5.712 -1.428,8.064 -3.836,8.064 -2.38,0 -3.836,-2.352 -3.836,-8.064 0,-5.684 1.456,-8.036 3.836,-8.036 z m 0,6.216 c -1.036,0 -1.82,0.812 -1.82,1.82 0,1.036 0.784,1.848 1.82,1.848 1.064,0 1.848,-0.812 1.848,-1.848 0,-1.008 -0.784,-1.82 -1.848,-1.82 z m 34.072,41.576 v -17.388 h -2.072 l -5.74,3.584 1.036,1.652 4.396,-2.66 v 14.812 h -4.732 v 1.904 h 11.116 v -1.904 z m -2.072,-49.696 c -4.144,0 -6.3,3.556 -6.3,9.94 0,6.412 2.156,9.968 6.3,9.968 4.144,0 6.3,-3.556 6.3,-9.968 0,-6.384 -2.156,-9.94 -6.3,-9.94 z m 0,1.904 c 2.408,0 3.836,2.352 3.836,8.036 0,5.712 -1.428,8.064 -3.836,8.064 -2.38,0 -3.836,-2.352 -3.836,-8.064 0,-5.684 1.456,-8.036 3.836,-8.036 z m 0,6.216 c -1.036,0 -1.82,0.812 -1.82,1.82 0,1.036 0.784,1.848 1.82,1.848 1.064,0 1.848,-0.812 1.848,-1.848 0,-1.008 -0.784,-1.82 -1.848,-1.82 z m 2.072,-22.42402 v -17.388 h -2.072 l -5.74,3.584 1.036,1.652 4.396,-2.66 v 14.812 h -4.732 V 154 h 11.116 v -1.904 z m -2.072,-49.69599 c -4.144,0 -6.3,3.556 -6.3,9.94 0,6.412 2.156,9.968 6.3,9.968 4.144,0 6.3,-3.556 6.3,-9.968 0,-6.384 -2.156,-9.94 -6.3,-9.94 z m 0,1.904 c 2.408,0 3.836,2.352 3.836,8.036 0,5.712 -1.428,8.064 -3.836,8.064 -2.38,0 -3.836,-2.352 -3.836,-8.064 0,-5.684 1.456,-8.036 3.836,-8.036 z m 0,6.216 c -1.036,0 -1.82,0.812 -1.82,1.82 0,1.036 0.784,1.848 1.82,1.848 1.064,0 1.848,-0.812 1.848,-1.848 0,-1.008 -0.784,-1.82 -1.848,-1.82 z m 2.072,-22.424002 v -17.388 h -2.072 l -5.74,3.584 1.036,1.652 4.396,-2.66 v 14.812 h -4.732 v 1.904 h 11.116 v -1.904 z m -32,0 v -17.388 h -2.072 l -5.74,3.584 1.036,1.652 4.396,-2.66 v 14.812 h -4.732 v 1.904 h 11.116 v -1.904 z m 29.928,-49.696004 c -4.144,0 -6.3,3.556 -6.3,9.94 0,6.412 2.156,9.968 6.3,9.968 4.144,0 6.3,-3.556 6.3,-9.968 0,-6.384 -2.156,-9.94 -6.3,-9.94 z m 0,1.904 c 2.408,0 3.836,2.352 3.836,8.036 0,5.712 -1.428,8.064 -3.836,8.064 -2.38,0 -3.836,-2.352 -3.836,-8.064 0,-5.684 1.456,-8.036 3.836,-8.036 z m 0,6.216 c -1.036,0 -1.82,0.812 -1.82,1.82 0,1.036 0.784,1.848 1.82,1.848 1.064,0 1.848,-0.812 1.848,-1.848 0,-1.008 -0.784,-1.82 -1.848,-1.82 z m -32,-8.12 c -4.144,0 -6.3,3.556 -6.3,9.94 0,6.412 2.156,9.968 6.3,9.968 4.144,0 6.3,-3.556 6.3,-9.968 0,-6.384 -2.156,-9.94 -6.3,-9.94 z m 0,1.904 c 2.408,0 3.836,2.352 3.836,8.036 0,5.712 -1.428,8.064 -3.836,8.064 -2.38,0 -3.836,-2.352 -3.836,-8.064 0,-5.684 1.456,-8.036 3.836,-8.036 z m 0,6.216 c -1.036,0 -1.82,0.812 -1.82,1.82 0,1.036 0.784,1.848 1.82,1.848 1.064,0 1.848,-0.812 1.848,-1.848 0,-1.008 -0.784,-1.82 -1.848,-1.82 z m -29.92803,9.576 v -17.388 h -2.072 l -5.74,3.584 1.036,1.652 4.396,-2.66 v 14.812 h -4.732 v 1.904 h 11.116 v -1.904 z m -32,0 v -17.388 h -2.072 l -5.74,3.584 1.036,1.652 4.396,-2.66 v 14.812 h -4.732 v 1.904 h 11.116 v -1.904 z"
         id="path1517" />
    </g>
  </g>
</svg>
