<svg xmlns="http://www.w3.org/2000/svg" xmlns:xlink="http://www.w3.org/1999/xlink" fill="none" version="1.1" width="280" height="280" viewBox="0 0 280 280"><defs><clipPath id="master_svg0_2_0"><rect x="0" y="0" width="280" height="280" rx="0"/></clipPath></defs><g clip-path="url(#master_svg0_2_0)"><rect x="0" y="0" width="280" height="280" rx="0" fill="#FFFFFF" fill-opacity="1"/><g><rect x="1" y="1" width="278" height="278" rx="0" fill-opacity="0" stroke-opacity="1" stroke="#3D3D3D" fill="none" stroke-width="2"/></g><g transform="matrix(1,1.6456547236032293e-10,-1.6456547236032293e-10,1,1.1519583065222605e-8,0)"><path d="M280,71L0,71L0,69L280,69L280,71Z" fill-rule="evenodd" fill="#3D3D3D" fill-opacity="1"/></g><g transform="matrix(0,1,-1,0,140.00100708007812,-140.00100708007812)"><path d="M420.0010070800781,1L140.00100708007812,1L140.00100708007812,-1L420.0010070800781,-1L420.0010070800781,1Z" fill-rule="evenodd" fill="#3D3D3D" fill-opacity="1"/></g><g transform="matrix(1,1.6456547236032293e-10,-1.6456547236032293e-10,1,2.303916613044521e-8,0)"><path d="M280,141L0,141L0,139L280,139L280,141Z" fill-rule="evenodd" fill="#3D3D3D" fill-opacity="1"/></g><g transform="matrix(1,1.6456547236032293e-10,-1.6456547236032293e-10,1,3.4558749195667815e-8,0)"><path d="M280,211L0,211L0,209L280,209L280,211Z" fill-rule="evenodd" fill="#3D3D3D" fill-opacity="1"/></g><g transform="matrix(0,1,-1,0,70.00100708007812,-70.00100708007812)"><path d="M350.0010070800781,1L70.00100708007812,1L70.00100708007812,-1L350.0010070800781,-1L350.0010070800781,1Z" fill-rule="evenodd" fill="#3D3D3D" fill-opacity="1"/></g><g transform="matrix(0,1,-1,0,210.00100708007812,-210.00100708007812)"><path d="M490.0010070800781,1L210.00100708007812,1L210.00100708007812,-1L490.0010070800781,-1L490.0010070800781,1Z" fill-rule="evenodd" fill="#3D3D3D" fill-opacity="1"/></g><g><path d="M29.968,47L40.647999999999996,47L40.647999999999996,44.120000000000005L37.312,44.120000000000005L37.312,29.216L34.696,29.216C33.568,29.936,32.368,30.392,30.568,30.704L30.568,32.912L33.808,32.912L33.808,44.120000000000005L29.968,44.120000000000005L29.968,47Z" fill="#3D3D3D" fill-opacity="1"/></g><g><path d="M99.032,47L110.936,47L110.936,44.024L107.096,44.024C106.256,44.024,105.08,44.120000000000005,104.168,44.239999999999995C107.408,41.048,110.096,37.592,110.096,34.376C110.096,31.064,107.864,28.904,104.504,28.904C102.08,28.904,100.496,29.84,98.84,31.616L100.80799999999999,33.512C101.696,32.528,102.752,31.688000000000002,104.048,31.688000000000002C105.752,31.688000000000002,106.712,32.792,106.712,34.544C106.712,37.304,103.88,40.64,99.032,44.96L99.032,47Z" fill="#3D3D3D" fill-opacity="1"/></g><g><path d="M174.552,47.336C177.96,47.336,180.816,45.464,180.816,42.2C180.816,39.848,179.28,38.36,177.288,37.808L177.288,37.688C179.16,36.944,180.24,35.552,180.24,33.632C180.24,30.584,177.912,28.904,174.48,28.904C172.392,28.904,170.688,29.744,169.152,31.064L170.976,33.248C172.008,32.263999999999996,173.04,31.688000000000002,174.312,31.688000000000002C175.824,31.688000000000002,176.688,32.504,176.688,33.896C176.688,35.504000000000005,175.632,36.608000000000004,172.392,36.608000000000004L172.392,39.152C176.232,39.152,177.264,40.232,177.264,41.984C177.264,43.568,176.04,44.456,174.24,44.456C172.608,44.456,171.336,43.664,170.28,42.632000000000005L168.624,44.864000000000004C169.872,46.28,171.768,47.336,174.552,47.336Z" fill="#3D3D3D" fill-opacity="1"/></g><g><path d="M174.552,47.336C177.96,47.336,180.816,45.464,180.816,42.2C180.816,39.848,179.28,38.36,177.288,37.808L177.288,37.688C179.16,36.944,180.24,35.552,180.24,33.632C180.24,30.584,177.912,28.904,174.48,28.904C172.392,28.904,170.688,29.744,169.152,31.064L170.976,33.248C172.008,32.263999999999996,173.04,31.688000000000002,174.312,31.688000000000002C175.824,31.688000000000002,176.688,32.504,176.688,33.896C176.688,35.504000000000005,175.632,36.608000000000004,172.392,36.608000000000004L172.392,39.152C176.232,39.152,177.264,40.232,177.264,41.984C177.264,43.568,176.04,44.456,174.24,44.456C172.608,44.456,171.336,43.664,170.28,42.632000000000005L168.624,44.864000000000004C169.872,46.28,171.768,47.336,174.552,47.336Z" fill="#3D3D3D" fill-opacity="1"/></g><g><path d="M245.088,47L248.376,47L248.376,42.391999999999996L250.488,42.391999999999996L250.488,39.704L248.376,39.704L248.376,29.216L244.128,29.216L237.504,39.992000000000004L237.504,42.391999999999996L245.088,42.391999999999996L245.088,47ZM245.088,39.704L240.936,39.704L243.696,35.288C244.2,34.328,244.68,33.344,245.112,32.384L245.232,32.384C245.16,33.44,245.088,35.048,245.088,36.08L245.088,39.704Z" fill="#3D3D3D" fill-opacity="1"/></g><g><path d="M244.08,116.336C247.656,116.336,250.056,114.27199999999999,250.056,111.584C250.056,109.16,248.712,107.72,247.056,106.832L247.056,106.712C248.208,105.872,249.336,104.408,249.336,102.656C249.336,99.824,247.32,97.928,244.176,97.928C241.08,97.928,238.824,99.752,238.824,102.632C238.824,104.504,239.808,105.848,241.176,106.832L241.176,106.952C239.52,107.816,238.128,109.304,238.128,111.584C238.128,114.368,240.648,116.336,244.08,116.336ZM245.184,105.848C243.336,105.104,241.944,104.288,241.944,102.632C241.944,101.19200000000001,242.904,100.4,244.104,100.4C245.592,100.4,246.456,101.432,246.456,102.872C246.456,103.928,246.048,104.96000000000001,245.184,105.848ZM244.152,113.84C242.496,113.84,241.176,112.80799999999999,241.176,111.2C241.176,109.856,241.848,108.68,242.808,107.888C245.112,108.872,246.768,109.616,246.768,111.464C246.768,113,245.664,113.84,244.152,113.84Z" fill="#3D3D3D" fill-opacity="1"/></g><g><path d="M172.464,116L176.016,116C176.328,109.064,176.88,105.416,181.008,100.376L181.008,98.216L169.2,98.216L169.2,101.19200000000001L177.192,101.19200000000001C173.808,105.896,172.776,109.832,172.464,116Z" fill="#3D3D3D" fill-opacity="1"/></g><g><path d="M105.584,116.336C108.608,116.336,111.152,114.032,111.152,110.384C111.152,106.592,109.016,104.816,106.03999999999999,104.816C104.912,104.816,103.4,105.488,102.416,106.688C102.584,102.272,104.24,100.736,106.304,100.736C107.312,100.736,108.392,101.336,109.016,102.032L110.888,99.92C109.832,98.816,108.248,97.904,106.064,97.904C102.488,97.904,99.2,100.736,99.2,107.36C99.2,113.6,102.224,116.336,105.584,116.336ZM102.488,109.184C103.376,107.84,104.456,107.312,105.392,107.312C106.928,107.312,107.936,108.27199999999999,107.936,110.384C107.936,112.544,106.856,113.672,105.512,113.672C104.024,113.672,102.824,112.424,102.488,109.184Z" fill="#3D3D3D" fill-opacity="1"/></g><g><path d="M34.647999999999996,116.336C37.888,116.336,40.84,114.056,40.84,110.096C40.84,106.232,38.368,104.48,35.368,104.48C34.552,104.48,33.928,104.624,33.232,104.96000000000001L33.568,101.19200000000001L40.024,101.19200000000001L40.024,98.216L30.52,98.216L30.04,106.856L31.648,107.888C32.704,107.21600000000001,33.28,106.976,34.312,106.976C36.088,106.976,37.312,108.128,37.312,110.19200000000001C37.312,112.28,36.016,113.456,34.168,113.456C32.536,113.456,31.264,112.64,30.256,111.656L28.624,113.912C29.968,115.232,31.816,116.336,34.647999999999996,116.336Z" fill="#3D3D3D" fill-opacity="1"/></g><g><path d="M92.968,187L103.648,187L103.648,184.12L100.312,184.12L100.312,169.216L97.696,169.216C96.568,169.936,95.368,170.392,93.568,170.704L93.568,172.912L96.80799999999999,172.912L96.80799999999999,184.12L92.968,184.12L92.968,187ZM112.24,187.336C115.864,187.336,118.264,184.168,118.264,178.024C118.264,171.928,115.864,168.904,112.24,168.904C108.616,168.904,106.216,171.904,106.216,178.024C106.216,184.168,108.616,187.336,112.24,187.336ZM112.24,184.576C110.70400000000001,184.576,109.55199999999999,183.04,109.55199999999999,178.024C109.55199999999999,173.08,110.70400000000001,171.61599999999999,112.24,171.61599999999999C113.776,171.61599999999999,114.904,173.08,114.904,178.024C114.904,183.04,113.776,184.576,112.24,184.576Z" fill="#3D3D3D" fill-opacity="1"/></g><g><path d="M34.12,187.336C37.647999999999996,187.336,40.936,184.432,40.936,177.712C40.936,171.544,37.936,168.904,34.552,168.904C31.504,168.904,28.96,171.184,28.96,174.832C28.96,178.6,31.072,180.424,34.048,180.424C35.248,180.424,36.76,179.704,37.696,178.504C37.528,182.944,35.896,184.456,33.928,184.456C32.872,184.456,31.768,183.904,31.12,183.184L29.248,185.32C30.304,186.4,31.912,187.336,34.12,187.336ZM37.647999999999996,175.984C36.784,177.376,35.68,177.904,34.72,177.904C33.184,177.904,32.2,176.92000000000002,32.2,174.832C32.2,172.648,33.28,171.568,34.6,171.568C36.112,171.568,37.336,172.768,37.647999999999996,175.984Z" fill="#3D3D3D" fill-opacity="1"/></g><g><path d="M162.968,187L173.648,187L173.648,184.12L170.312,184.12L170.312,169.216L167.696,169.216C166.568,169.936,165.368,170.392,163.568,170.704L163.568,172.912L166.808,172.912L166.808,184.12L162.968,184.12L162.968,187ZM177.128,187L187.808,187L187.808,184.12L184.472,184.12L184.472,169.216L181.856,169.216C180.728,169.936,179.528,170.392,177.728,170.704L177.728,172.912L180.968,172.912L180.968,184.12L177.128,184.12L177.128,187Z" fill="#3D3D3D" fill-opacity="1"/></g><g><path d="M231.968,187L242.648,187L242.648,184.12L239.312,184.12L239.312,169.216L236.696,169.216C235.568,169.936,234.368,170.392,232.568,170.704L232.568,172.912L235.808,172.912L235.808,184.12L231.968,184.12L231.968,187ZM245.192,187L257.096,187L257.096,184.024L253.256,184.024C252.416,184.024,251.24,184.12,250.328,184.24C253.568,181.048,256.256,177.59199999999998,256.256,174.376C256.256,171.064,254.024,168.904,250.664,168.904C248.24,168.904,246.656,169.84,245,171.61599999999999L246.968,173.512C247.856,172.528,248.912,171.688,250.208,171.688C251.912,171.688,252.872,172.792,252.872,174.544C252.872,177.304,250.04,180.64,245.192,184.96L245.192,187Z" fill="#3D3D3D" fill-opacity="1"/></g><g><path d="M92.968,255L103.648,255L103.648,252.12L100.312,252.12L100.312,237.216L97.696,237.216C96.568,237.936,95.368,238.392,93.568,238.704L93.568,240.912L96.80799999999999,240.912L96.80799999999999,252.12L92.968,252.12L92.968,255ZM113.248,255L116.536,255L116.536,250.392L118.648,250.392L118.648,247.704L116.536,247.704L116.536,237.216L112.288,237.216L105.664,247.992L105.664,250.392L113.248,250.392L113.248,255ZM113.248,247.704L109.096,247.704L111.856,243.288C112.36,242.328,112.84,241.344,113.27199999999999,240.38400000000001L113.392,240.38400000000001C113.32,241.44,113.248,243.048,113.248,244.07999999999998L113.248,247.704Z" fill="#3D3D3D" fill-opacity="1"/></g><g><path d="M162.968,255L173.648,255L173.648,252.12L170.312,252.12L170.312,237.216L167.696,237.216C166.568,237.936,165.368,238.392,163.568,238.704L163.568,240.912L166.808,240.912L166.808,252.12L162.968,252.12L162.968,255ZM181.808,255.336C185.048,255.336,188,253.056,188,249.096C188,245.232,185.528,243.48,182.528,243.48C181.712,243.48,181.088,243.624,180.392,243.96L180.728,240.192L187.184,240.192L187.184,237.216L177.68,237.216L177.2,245.856L178.808,246.888C179.864,246.216,180.44,245.976,181.472,245.976C183.248,245.976,184.472,247.128,184.472,249.192C184.472,251.28,183.176,252.456,181.328,252.456C179.696,252.456,178.424,251.64,177.416,250.656L175.784,252.912C177.128,254.232,178.976,255.336,181.808,255.336Z" fill="#3D3D3D" fill-opacity="1"/></g><g><path d="M22.968,255L33.647999999999996,255L33.647999999999996,252.12L30.311999999999998,252.12L30.311999999999998,237.216L27.695999999999998,237.216C26.567999999999998,237.936,25.368000000000002,238.392,23.568,238.704L23.568,240.912L26.808,240.912L26.808,252.12L22.968,252.12L22.968,255ZM41.712,255.336C45.120000000000005,255.336,47.976,253.464,47.976,250.2C47.976,247.848,46.44,246.36,44.448,245.808L44.448,245.688C46.32,244.944,47.4,243.552,47.4,241.632C47.4,238.584,45.072,236.904,41.64,236.904C39.552,236.904,37.848,237.744,36.312,239.064L38.135999999999996,241.248C39.168,240.264,40.2,239.688,41.472,239.688C42.984,239.688,43.848,240.504,43.848,241.89600000000002C43.848,243.504,42.792,244.608,39.552,244.608L39.552,247.152C43.391999999999996,247.152,44.424,248.232,44.424,249.984C44.424,251.568,43.2,252.456,41.4,252.456C39.768,252.456,38.495999999999995,251.664,37.44,250.632L35.784,252.864C37.032,254.28,38.928,255.336,41.712,255.336Z" fill="#3D3D3D" fill-opacity="1"/></g></g></svg>
