<svg xmlns="http://www.w3.org/2000/svg" xmlns:xlink="http://www.w3.org/1999/xlink" width="1779" height="1127" version="1.1"><defs><clipPath id="UOIsFBllcuAy"><path fill="none" stroke="none" d="M 0 0 L 1779 0 L 1779 1127 L 0 1127 L 0 0 Z"/></clipPath></defs><g clip-path="url(&quot;#UOIsFBllcuAy&quot;)" transform="scale(1)"><g><rect width="1779" height="1127" x="0" y="0" fill="#FFF" fill-opacity="1" stroke="none"/><path fill="none" stroke="#616161" stroke-linecap="round" stroke-linejoin="round" stroke-miterlimit="10" stroke-opacity=".8" stroke-width="6.5" d="M 398.386 51.6782 L 726.342 735.23" paint-order="fill stroke markers"/><path fill="none" stroke="#616161" stroke-linecap="round" stroke-linejoin="round" stroke-miterlimit="10" stroke-opacity=".8" stroke-width="6.5" d="M 398.386 393.454 L 398.386 1077.01" paint-order="fill stroke markers"/><path fill="none" stroke="#616161" stroke-linecap="round" stroke-linejoin="round" stroke-miterlimit="10" stroke-opacity=".8" stroke-width="6.5" d="M 70.4301 735.23 L 398.386 393.454" paint-order="fill stroke markers"/><path fill="none" stroke="#616161" stroke-linecap="round" stroke-linejoin="round" stroke-miterlimit="10" stroke-opacity=".8" stroke-width="6.5" d="M 70.4301 735.23 L 398.386 1077.01" paint-order="fill stroke markers"/><path fill="none" stroke="#D32F2F" stroke-linecap="round" stroke-linejoin="round" stroke-miterlimit="10" stroke-opacity=".8" stroke-width="6.5" d="M 1054.3 51.6782 L 1382.25 393.454" paint-order="fill stroke markers"/><path fill="none" stroke="#D32F2F" stroke-linecap="round" stroke-linejoin="round" stroke-miterlimit="10" stroke-opacity=".8" stroke-width="6.5" d="M 1054.3 51.6782 L 1710.21 1077.01" paint-order="fill stroke markers"/><path fill="none" stroke="#D32F2F" stroke-linecap="round" stroke-linejoin="round" stroke-miterlimit="10" stroke-opacity=".8" stroke-width="6.5" d="M 1382.25 393.454 L 1710.21 1077.01" paint-order="fill stroke markers"/><path fill="none" stroke="#D32F2F" stroke-linecap="round" stroke-linejoin="round" stroke-miterlimit="10" stroke-opacity=".8" stroke-width="6.5" d="M 1710.21 51.6782 L 1710.21 735.23" paint-order="fill stroke markers"/><path fill="none" stroke="#616161" stroke-linecap="round" stroke-linejoin="round" stroke-miterlimit="10" stroke-opacity=".8" stroke-width="6.5" d="M 70.4301 735.23 L 398.386 51.6782" paint-order="fill stroke markers"/><path fill="none" stroke="#616161" stroke-linecap="round" stroke-linejoin="round" stroke-miterlimit="10" stroke-opacity=".8" stroke-width="6.5" d="M 398.386 393.454 L 398.386 51.6782" paint-order="fill stroke markers"/><path fill="none" stroke="#616161" stroke-linecap="round" stroke-linejoin="round" stroke-miterlimit="10" stroke-opacity=".8" stroke-width="6.5" d="M 398.386 1077.01 L 726.342 735.23" paint-order="fill stroke markers"/><path fill="none" stroke="#616161" stroke-linecap="round" stroke-linejoin="round" stroke-miterlimit="10" stroke-opacity=".8" stroke-width="6.5" d="M 398.386 393.454 L 726.342 735.23" paint-order="fill stroke markers"/><path fill="none" stroke="#D32F2F" stroke-linecap="round" stroke-linejoin="round" stroke-miterlimit="10" stroke-opacity=".8" stroke-width="6.5" d="M 1054.3 51.6782 L 1710.21 51.6782" paint-order="fill stroke markers"/><path fill="none" stroke="#D32F2F" stroke-linecap="round" stroke-linejoin="round" stroke-miterlimit="10" stroke-opacity=".8" stroke-width="6.5" d="M 1382.25 393.454 L 1710.21 51.6782" paint-order="fill stroke markers"/><path fill="none" stroke="#D32F2F" stroke-linecap="round" stroke-linejoin="round" stroke-miterlimit="10" stroke-opacity=".8" stroke-width="6.5" d="M 1382.25 393.454 L 1710.21 735.23" paint-order="fill stroke markers"/><path fill="none" stroke="#D32F2F" stroke-linecap="round" stroke-linejoin="round" stroke-miterlimit="10" stroke-opacity=".8" stroke-width="6.5" d="M 1710.21 735.23 L 1710.21 1077.01" paint-order="fill stroke markers"/><path fill="none" stroke="#1565C0" stroke-linecap="round" stroke-linejoin="round" stroke-miterlimit="10" stroke-opacity=".8" stroke-width="6.5" d="M 398.386 1077.01 L 1710.21 1077.01" paint-order="fill stroke markers"/><text x="984" y="1054" fill="#1565C0" fill-opacity="1" stroke="none" dominant-baseline="alphabetic" font-family="geogebra-sans-serif, sans-serif" font-size="48" font-style="normal" font-weight="normal" text-anchor="start" text-decoration="normal">Base LR-edge</text><text x="984" y="1054" fill="none" stroke="#FFF" stroke-linecap="round" stroke-linejoin="bevel" stroke-miterlimit="10" stroke-opacity="1" stroke-width="3" dominant-baseline="alphabetic" font-family="geogebra-sans-serif, sans-serif" font-size="48" font-style="normal" font-weight="normal" text-anchor="start" text-decoration="normal">Base LR-edge</text><text x="984" y="1054" fill="#1565C0" fill-opacity="1" stroke="none" dominant-baseline="alphabetic" font-family="geogebra-sans-serif, sans-serif" font-size="48" font-style="normal" font-weight="normal" text-anchor="start" text-decoration="normal">Base LR-edge</text><path fill="#1565C0" fill-opacity="1" stroke="none" d="M 79.4301 735.23 C 79.4301 740.201 75.4007 744.23 70.4301 744.23 C 65.4595 744.23 61.4301 740.201 61.4301 735.23 C 61.4301 730.26 65.4595 726.23 70.4301 726.23 C 75.4007 726.23 79.4301 730.26 79.4301 735.23 Z" paint-order="stroke fill markers"/><path fill="none" stroke="#000" stroke-linecap="round" stroke-linejoin="round" stroke-miterlimit="10" stroke-opacity="1" d="M 79.4301 735.23 C 79.4301 740.201 75.4007 744.23 70.4301 744.23 C 65.4595 744.23 61.4301 740.201 61.4301 735.23 C 61.4301 730.26 65.4595 726.23 70.4301 726.23 C 75.4007 726.23 79.4301 730.26 79.4301 735.23 Z" paint-order="fill stroke markers"/><text x="49" y="716" fill="#1565C0" fill-opacity="1" stroke="none" dominant-baseline="alphabetic" font-family="geogebra-sans-serif, sans-serif" font-size="48" font-style="normal" font-weight="normal" text-anchor="start" text-decoration="normal">1</text><text x="49" y="716" fill="none" stroke="#FFF" stroke-linecap="round" stroke-linejoin="bevel" stroke-miterlimit="10" stroke-opacity="1" stroke-width="3" dominant-baseline="alphabetic" font-family="geogebra-sans-serif, sans-serif" font-size="48" font-style="normal" font-weight="normal" text-anchor="start" text-decoration="normal">1</text><text x="49" y="716" fill="#1565C0" fill-opacity="1" stroke="none" dominant-baseline="alphabetic" font-family="geogebra-sans-serif, sans-serif" font-size="48" font-style="normal" font-weight="normal" text-anchor="start" text-decoration="normal">1</text><path fill="#1565C0" fill-opacity="1" stroke="none" d="M 735.342 735.23 C 735.342 740.201 731.313 744.23 726.342 744.23 C 721.371 744.23 717.342 740.201 717.342 735.23 C 717.342 730.26 721.371 726.23 726.342 726.23 C 731.313 726.23 735.342 730.26 735.342 735.23 Z" paint-order="stroke fill markers"/><path fill="none" stroke="#000" stroke-linecap="round" stroke-linejoin="round" stroke-miterlimit="10" stroke-opacity="1" d="M 735.342 735.23 C 735.342 740.201 731.313 744.23 726.342 744.23 C 721.371 744.23 717.342 740.201 717.342 735.23 C 717.342 730.26 721.371 726.23 726.342 726.23 C 731.313 726.23 735.342 730.26 735.342 735.23 Z" paint-order="fill stroke markers"/><text x="730" y="717" fill="#1565C0" fill-opacity="1" stroke="none" dominant-baseline="alphabetic" font-family="geogebra-sans-serif, sans-serif" font-size="48" font-style="normal" font-weight="normal" text-anchor="start" text-decoration="normal">5</text><text x="730" y="717" fill="none" stroke="#FFF" stroke-linecap="round" stroke-linejoin="bevel" stroke-miterlimit="10" stroke-opacity="1" stroke-width="3" dominant-baseline="alphabetic" font-family="geogebra-sans-serif, sans-serif" font-size="48" font-style="normal" font-weight="normal" text-anchor="start" text-decoration="normal">5</text><text x="730" y="717" fill="#1565C0" fill-opacity="1" stroke="none" dominant-baseline="alphabetic" font-family="geogebra-sans-serif, sans-serif" font-size="48" font-style="normal" font-weight="normal" text-anchor="start" text-decoration="normal">5</text><path fill="#1565C0" fill-opacity="1" stroke="none" d="M 1719.21 735.23 C 1719.21 740.201 1715.18 744.23 1710.21 744.23 C 1705.24 744.23 1701.21 740.201 1701.21 735.23 C 1701.21 730.26 1705.24 726.23 1710.21 726.23 C 1715.18 726.23 1719.21 730.26 1719.21 735.23 Z" paint-order="stroke fill markers"/><path fill="none" stroke="#000" stroke-linecap="round" stroke-linejoin="round" stroke-miterlimit="10" stroke-opacity="1" d="M 1719.21 735.23 C 1719.21 740.201 1715.18 744.23 1710.21 744.23 C 1705.24 744.23 1701.21 740.201 1701.21 735.23 C 1701.21 730.26 1705.24 726.23 1710.21 726.23 C 1715.18 726.23 1719.21 730.26 1719.21 735.23 Z" paint-order="fill stroke markers"/><text x="1714" y="717" fill="#1565C0" fill-opacity="1" stroke="none" dominant-baseline="alphabetic" font-family="geogebra-sans-serif, sans-serif" font-size="48" font-style="normal" font-weight="normal" text-anchor="start" text-decoration="normal">9</text><text x="1714" y="717" fill="none" stroke="#FFF" stroke-linecap="round" stroke-linejoin="bevel" stroke-miterlimit="10" stroke-opacity="1" stroke-width="3" dominant-baseline="alphabetic" font-family="geogebra-sans-serif, sans-serif" font-size="48" font-style="normal" font-weight="normal" text-anchor="start" text-decoration="normal">9</text><text x="1714" y="717" fill="#1565C0" fill-opacity="1" stroke="none" dominant-baseline="alphabetic" font-family="geogebra-sans-serif, sans-serif" font-size="48" font-style="normal" font-weight="normal" text-anchor="start" text-decoration="normal">9</text><path fill="#1565C0" fill-opacity="1" stroke="none" d="M 407.386 1077.01 C 407.386 1081.98 403.357 1086.01 398.386 1086.01 C 393.415 1086.01 389.386 1081.98 389.386 1077.01 C 389.386 1072.04 393.415 1068.01 398.386 1068.01 C 403.357 1068.01 407.386 1072.04 407.386 1077.01 Z" paint-order="stroke fill markers"/><path fill="none" stroke="#000" stroke-linecap="round" stroke-linejoin="round" stroke-miterlimit="10" stroke-opacity="1" d="M 407.386 1077.01 C 407.386 1081.98 403.357 1086.01 398.386 1086.01 C 393.415 1086.01 389.386 1081.98 389.386 1077.01 C 389.386 1072.04 393.415 1068.01 398.386 1068.01 C 403.357 1068.01 407.386 1072.04 407.386 1077.01 Z" paint-order="fill stroke markers"/><text x="423" y="1089" fill="#1565C0" fill-opacity="1" stroke="none" dominant-baseline="alphabetic" font-family="geogebra-sans-serif, sans-serif" font-size="48" font-style="normal" font-weight="normal" text-anchor="start" text-decoration="normal">2</text><text x="423" y="1089" fill="none" stroke="#FFF" stroke-linecap="round" stroke-linejoin="bevel" stroke-miterlimit="10" stroke-opacity="1" stroke-width="3" dominant-baseline="alphabetic" font-family="geogebra-sans-serif, sans-serif" font-size="48" font-style="normal" font-weight="normal" text-anchor="start" text-decoration="normal">2</text><text x="423" y="1089" fill="#1565C0" fill-opacity="1" stroke="none" dominant-baseline="alphabetic" font-family="geogebra-sans-serif, sans-serif" font-size="48" font-style="normal" font-weight="normal" text-anchor="start" text-decoration="normal">2</text><path fill="#1565C0" fill-opacity="1" stroke="none" d="M 407.386 393.454 C 407.386 398.425 403.357 402.454 398.386 402.454 C 393.415 402.454 389.386 398.425 389.386 393.454 C 389.386 388.484 393.415 384.454 398.386 384.454 C 403.357 384.454 407.386 388.484 407.386 393.454 Z" paint-order="stroke fill markers"/><path fill="none" stroke="#000" stroke-linecap="round" stroke-linejoin="round" stroke-miterlimit="10" stroke-opacity="1" d="M 407.386 393.454 C 407.386 398.425 403.357 402.454 398.386 402.454 C 393.415 402.454 389.386 398.425 389.386 393.454 C 389.386 388.484 393.415 384.454 398.386 384.454 C 403.357 384.454 407.386 388.484 407.386 393.454 Z" paint-order="fill stroke markers"/><text x="414" y="391" fill="#1565C0" fill-opacity="1" stroke="none" dominant-baseline="alphabetic" font-family="geogebra-sans-serif, sans-serif" font-size="48" font-style="normal" font-weight="normal" text-anchor="start" text-decoration="normal">3</text><text x="414" y="391" fill="none" stroke="#FFF" stroke-linecap="round" stroke-linejoin="bevel" stroke-miterlimit="10" stroke-opacity="1" stroke-width="3" dominant-baseline="alphabetic" font-family="geogebra-sans-serif, sans-serif" font-size="48" font-style="normal" font-weight="normal" text-anchor="start" text-decoration="normal">3</text><text x="414" y="391" fill="#1565C0" fill-opacity="1" stroke="none" dominant-baseline="alphabetic" font-family="geogebra-sans-serif, sans-serif" font-size="48" font-style="normal" font-weight="normal" text-anchor="start" text-decoration="normal">3</text><path fill="#1565C0" fill-opacity="1" stroke="none" d="M 407.386 51.6782 C 407.386 56.6488 403.357 60.6782 398.386 60.6782 C 393.415 60.6782 389.386 56.6488 389.386 51.6782 C 389.386 46.7077 393.415 42.6782 398.386 42.6782 C 403.357 42.6782 407.386 46.7077 407.386 51.6782 Z" paint-order="stroke fill markers"/><path fill="none" stroke="#000" stroke-linecap="round" stroke-linejoin="round" stroke-miterlimit="10" stroke-opacity="1" d="M 407.386 51.6782 C 407.386 56.6488 403.357 60.6782 398.386 60.6782 C 393.415 60.6782 389.386 56.6488 389.386 51.6782 C 389.386 46.7077 393.415 42.6782 398.386 42.6782 C 403.357 42.6782 407.386 46.7077 407.386 51.6782 Z" paint-order="fill stroke markers"/><text x="402" y="48" fill="#1565C0" fill-opacity="1" stroke="none" dominant-baseline="alphabetic" font-family="geogebra-sans-serif, sans-serif" font-size="48" font-style="normal" font-weight="normal" text-anchor="start" text-decoration="normal">4</text><text x="402" y="48" fill="none" stroke="#FFF" stroke-linecap="round" stroke-linejoin="bevel" stroke-miterlimit="10" stroke-opacity="1" stroke-width="3" dominant-baseline="alphabetic" font-family="geogebra-sans-serif, sans-serif" font-size="48" font-style="normal" font-weight="normal" text-anchor="start" text-decoration="normal">4</text><text x="402" y="48" fill="#1565C0" fill-opacity="1" stroke="none" dominant-baseline="alphabetic" font-family="geogebra-sans-serif, sans-serif" font-size="48" font-style="normal" font-weight="normal" text-anchor="start" text-decoration="normal">4</text><path fill="#1565C0" fill-opacity="1" stroke="none" d="M 1063.3 51.6782 C 1063.3 56.6488 1059.27 60.6782 1054.3 60.6782 C 1049.33 60.6782 1045.3 56.6488 1045.3 51.6782 C 1045.3 46.7077 1049.33 42.6782 1054.3 42.6782 C 1059.27 42.6782 1063.3 46.7077 1063.3 51.6782 Z" paint-order="stroke fill markers"/><path fill="none" stroke="#000" stroke-linecap="round" stroke-linejoin="round" stroke-miterlimit="10" stroke-opacity="1" d="M 1063.3 51.6782 C 1063.3 56.6488 1059.27 60.6782 1054.3 60.6782 C 1049.33 60.6782 1045.3 56.6488 1045.3 51.6782 C 1045.3 46.7077 1049.33 42.6782 1054.3 42.6782 C 1059.27 42.6782 1063.3 46.7077 1063.3 51.6782 Z" paint-order="fill stroke markers"/><text x="1058" y="48" fill="#1565C0" fill-opacity="1" stroke="none" dominant-baseline="alphabetic" font-family="geogebra-sans-serif, sans-serif" font-size="48" font-style="normal" font-weight="normal" text-anchor="start" text-decoration="normal">6</text><text x="1058" y="48" fill="none" stroke="#FFF" stroke-linecap="round" stroke-linejoin="bevel" stroke-miterlimit="10" stroke-opacity="1" stroke-width="3" dominant-baseline="alphabetic" font-family="geogebra-sans-serif, sans-serif" font-size="48" font-style="normal" font-weight="normal" text-anchor="start" text-decoration="normal">6</text><text x="1058" y="48" fill="#1565C0" fill-opacity="1" stroke="none" dominant-baseline="alphabetic" font-family="geogebra-sans-serif, sans-serif" font-size="48" font-style="normal" font-weight="normal" text-anchor="start" text-decoration="normal">6</text><path fill="#1565C0" fill-opacity="1" stroke="none" d="M 1391.25 393.454 C 1391.25 398.425 1387.22 402.454 1382.25 402.454 C 1377.28 402.454 1373.25 398.425 1373.25 393.454 C 1373.25 388.484 1377.28 384.454 1382.25 384.454 C 1387.22 384.454 1391.25 388.484 1391.25 393.454 Z" paint-order="stroke fill markers"/><path fill="none" stroke="#000" stroke-linecap="round" stroke-linejoin="round" stroke-miterlimit="10" stroke-opacity="1" d="M 1391.25 393.454 C 1391.25 398.425 1387.22 402.454 1382.25 402.454 C 1377.28 402.454 1373.25 398.425 1373.25 393.454 C 1373.25 388.484 1377.28 384.454 1382.25 384.454 C 1387.22 384.454 1391.25 388.484 1391.25 393.454 Z" paint-order="fill stroke markers"/><text x="1386" y="375" fill="#1565C0" fill-opacity="1" stroke="none" dominant-baseline="alphabetic" font-family="geogebra-sans-serif, sans-serif" font-size="48" font-style="normal" font-weight="normal" text-anchor="start" text-decoration="normal">7</text><text x="1386" y="375" fill="none" stroke="#FFF" stroke-linecap="round" stroke-linejoin="bevel" stroke-miterlimit="10" stroke-opacity="1" stroke-width="3" dominant-baseline="alphabetic" font-family="geogebra-sans-serif, sans-serif" font-size="48" font-style="normal" font-weight="normal" text-anchor="start" text-decoration="normal">7</text><text x="1386" y="375" fill="#1565C0" fill-opacity="1" stroke="none" dominant-baseline="alphabetic" font-family="geogebra-sans-serif, sans-serif" font-size="48" font-style="normal" font-weight="normal" text-anchor="start" text-decoration="normal">7</text><path fill="#1565C0" fill-opacity="1" stroke="none" d="M 1719.21 1077.01 C 1719.21 1081.98 1715.18 1086.01 1710.21 1086.01 C 1705.24 1086.01 1701.21 1081.98 1701.21 1077.01 C 1701.21 1072.04 1705.24 1068.01 1710.21 1068.01 C 1715.18 1068.01 1719.21 1072.04 1719.21 1077.01 Z" paint-order="stroke fill markers"/><path fill="none" stroke="#000" stroke-linecap="round" stroke-linejoin="round" stroke-miterlimit="10" stroke-opacity="1" d="M 1719.21 1077.01 C 1719.21 1081.98 1715.18 1086.01 1710.21 1086.01 C 1705.24 1086.01 1701.21 1081.98 1701.21 1077.01 C 1701.21 1072.04 1705.24 1068.01 1710.21 1068.01 C 1715.18 1068.01 1719.21 1072.04 1719.21 1077.01 Z" paint-order="fill stroke markers"/><text x="1714" y="1059" fill="#1565C0" fill-opacity="1" stroke="none" dominant-baseline="alphabetic" font-family="geogebra-sans-serif, sans-serif" font-size="48" font-style="normal" font-weight="normal" text-anchor="start" text-decoration="normal">8</text><text x="1714" y="1059" fill="none" stroke="#FFF" stroke-linecap="round" stroke-linejoin="bevel" stroke-miterlimit="10" stroke-opacity="1" stroke-width="3" dominant-baseline="alphabetic" font-family="geogebra-sans-serif, sans-serif" font-size="48" font-style="normal" font-weight="normal" text-anchor="start" text-decoration="normal">8</text><text x="1714" y="1059" fill="#1565C0" fill-opacity="1" stroke="none" dominant-baseline="alphabetic" font-family="geogebra-sans-serif, sans-serif" font-size="48" font-style="normal" font-weight="normal" text-anchor="start" text-decoration="normal">8</text><path fill="#1565C0" fill-opacity="1" stroke="none" d="M 1719.21 51.6782 C 1719.21 56.6488 1715.18 60.6782 1710.21 60.6782 C 1705.24 60.6782 1701.21 56.6488 1701.21 51.6782 C 1701.21 46.7077 1705.24 42.6782 1710.21 42.6782 C 1715.18 42.6782 1719.21 46.7077 1719.21 51.6782 Z" paint-order="stroke fill markers"/><path fill="none" stroke="#000" stroke-linecap="round" stroke-linejoin="round" stroke-miterlimit="10" stroke-opacity="1" d="M 1719.21 51.6782 C 1719.21 56.6488 1715.18 60.6782 1710.21 60.6782 C 1705.24 60.6782 1701.21 56.6488 1701.21 51.6782 C 1701.21 46.7077 1705.24 42.6782 1710.21 42.6782 C 1715.18 42.6782 1719.21 46.7077 1719.21 51.6782 Z" paint-order="fill stroke markers"/><text x="1714" y="48" fill="#1565C0" fill-opacity="1" stroke="none" dominant-baseline="alphabetic" font-family="geogebra-sans-serif, sans-serif" font-size="48" font-style="normal" font-weight="normal" text-anchor="start" text-decoration="normal">10</text><text x="1714" y="48" fill="none" stroke="#FFF" stroke-linecap="round" stroke-linejoin="bevel" stroke-miterlimit="10" stroke-opacity="1" stroke-width="3" dominant-baseline="alphabetic" font-family="geogebra-sans-serif, sans-serif" font-size="48" font-style="normal" font-weight="normal" text-anchor="start" text-decoration="normal">10</text><text x="1714" y="48" fill="#1565C0" fill-opacity="1" stroke="none" dominant-baseline="alphabetic" font-family="geogebra-sans-serif, sans-serif" font-size="48" font-style="normal" font-weight="normal" text-anchor="start" text-decoration="normal">10</text></g></g></svg>