<svg xmlns="http://www.w3.org/2000/svg" xmlns:xlink="http://www.w3.org/1999/xlink" width="1864" height="1008" version="1.1"><defs><clipPath id="SdQKaFyRZIAU"><path fill="none" stroke="none" d="M 0 0 L 1864 0 L 1864 1008 L 0 1008 L 0 0 Z"/></clipPath></defs><g clip-path="url(&quot;#SdQKaFyRZIAU&quot;)" transform="scale(1)"><g><rect width="1864" height="1008" x="0" y="0" fill="#FFF" fill-opacity="1" stroke="none"/><path fill="none" stroke="#616161" stroke-linecap="round" stroke-linejoin="round" stroke-miterlimit="10" stroke-opacity=".8" stroke-width="6.5" d="M 632 146 L 632 346" paint-order="fill stroke markers"/><path fill="none" stroke="#616161" stroke-linecap="round" stroke-linejoin="round" stroke-miterlimit="10" stroke-opacity=".8" stroke-width="6.5" d="M 632 346 L 632 746" paint-order="fill stroke markers"/><path fill="none" stroke="#616161" stroke-linecap="round" stroke-linejoin="round" stroke-miterlimit="10" stroke-opacity=".8" stroke-width="6.5" d="M 432 546 L 632 746" paint-order="fill stroke markers"/><path fill="none" stroke="#616161" stroke-linecap="round" stroke-linejoin="round" stroke-miterlimit="10" stroke-opacity=".8" stroke-width="6.5" d="M 432 546 L 632 346" paint-order="fill stroke markers"/><path fill="none" stroke="#616161" stroke-linecap="round" stroke-linejoin="round" stroke-miterlimit="10" stroke-opacity=".8" stroke-width="6.5" d="M 632 346 L 832 546" paint-order="fill stroke markers"/><path fill="none" stroke="#616161" stroke-linecap="round" stroke-linejoin="round" stroke-miterlimit="10" stroke-opacity=".8" stroke-width="6.5" d="M 832 546 L 632 746" paint-order="fill stroke markers"/><path fill="none" stroke="#616161" stroke-linecap="round" stroke-linejoin="round" stroke-miterlimit="10" stroke-opacity=".8" stroke-width="6.5" d="M 632 146 L 432 546" paint-order="fill stroke markers"/><path fill="none" stroke="#D32F2F" stroke-linecap="round" stroke-linejoin="round" stroke-miterlimit="10" stroke-opacity=".8" stroke-width="6.5" d="M 1032 146 L 1232 346" paint-order="fill stroke markers"/><path fill="none" stroke="#D32F2F" stroke-linecap="round" stroke-linejoin="round" stroke-miterlimit="10" stroke-opacity=".8" stroke-width="6.5" d="M 1232 346 L 1432 546" paint-order="fill stroke markers"/><path fill="none" stroke="#D32F2F" stroke-linecap="round" stroke-linejoin="round" stroke-miterlimit="10" stroke-opacity=".8" stroke-width="6.5" d="M 1232 346 L 1432 746" paint-order="fill stroke markers"/><path fill="none" stroke="#D32F2F" stroke-linecap="round" stroke-linejoin="round" stroke-miterlimit="10" stroke-opacity=".8" stroke-width="6.5" d="M 1432 546 L 1432 746" paint-order="fill stroke markers"/><path fill="none" stroke="#D32F2F" stroke-linecap="round" stroke-linejoin="round" stroke-miterlimit="10" stroke-opacity=".8" stroke-width="6.5" d="M 1432 146 L 1432 546" paint-order="fill stroke markers"/><path fill="none" stroke="#D32F2F" stroke-linecap="round" stroke-linejoin="round" stroke-miterlimit="10" stroke-opacity=".8" stroke-width="6.5" d="M 1432 146 L 1232 346" paint-order="fill stroke markers"/><path fill="none" stroke="#D32F2F" stroke-linecap="round" stroke-linejoin="round" stroke-miterlimit="10" stroke-opacity=".8" stroke-width="6.5" d="M 1032 146 L 1432 146" paint-order="fill stroke markers"/><path fill="none" stroke="#1565C0" stroke-linecap="round" stroke-linejoin="round" stroke-miterlimit="10" stroke-opacity=".8" stroke-width="6.5" d="M 632 746 L 1432 746" paint-order="fill stroke markers"/><path fill="none" stroke="#1565C0" stroke-linecap="round" stroke-linejoin="round" stroke-miterlimit="10" stroke-opacity=".8" stroke-width="5" d="M 832 546 L 1432 746" paint-order="fill stroke markers"/><text x="1046" y="656" fill="#1565C0" fill-opacity="1" stroke="none" dominant-baseline="alphabetic" font-family="geogebra-sans-serif, sans-serif" font-size="28" font-style="normal" font-weight="normal" text-anchor="start" text-decoration="normal">Base LR-edge</text><text x="1046" y="656" fill="#1565C0" fill-opacity="1" stroke="none" dominant-baseline="alphabetic" font-family="geogebra-sans-serif, sans-serif" font-size="28" font-style="normal" font-weight="normal" text-anchor="start" text-decoration="normal">Base LR-edge</text><path fill="none" stroke="gold" stroke-linecap="round" stroke-linejoin="round" stroke-miterlimit="10" stroke-opacity=".8" stroke-width="5" d="M 832 546 L 1232 346" paint-order="fill stroke markers"/><text x="959" y="452" fill="gold" fill-opacity="1" stroke="none" dominant-baseline="alphabetic" font-family="geogebra-sans-serif, sans-serif" font-size="28" font-style="normal" font-weight="normal" text-anchor="start" text-decoration="normal">LR-edge1</text><text x="959" y="452" fill="gold" fill-opacity="1" stroke="none" dominant-baseline="alphabetic" font-family="geogebra-sans-serif, sans-serif" font-size="28" font-style="normal" font-weight="normal" text-anchor="start" text-decoration="normal">LR-edge1</text><path fill="none" stroke="#96F" stroke-linecap="round" stroke-linejoin="round" stroke-miterlimit="10" stroke-opacity=".8" stroke-width="5" d="M 832 546 L 1032 146" paint-order="fill stroke markers"/><text x="870" y="334" fill="#96F" fill-opacity="1" stroke="none" dominant-baseline="alphabetic" font-family="geogebra-sans-serif, sans-serif" font-size="28" font-style="normal" font-weight="normal" text-anchor="start" text-decoration="normal">LR-edge2</text><text x="870" y="334" fill="#96F" fill-opacity="1" stroke="none" dominant-baseline="alphabetic" font-family="geogebra-sans-serif, sans-serif" font-size="28" font-style="normal" font-weight="normal" text-anchor="start" text-decoration="normal">LR-edge2</text><path fill="none" stroke="#2E7D32" stroke-linecap="round" stroke-linejoin="round" stroke-miterlimit="10" stroke-opacity=".8" stroke-width="5" d="M 632 146 L 1032 146" paint-order="fill stroke markers"/><text x="782" y="129" fill="#2E7D32" fill-opacity="1" stroke="none" dominant-baseline="alphabetic" font-family="geogebra-sans-serif, sans-serif" font-size="28" font-style="normal" font-weight="normal" text-anchor="start" text-decoration="normal">LR-edge4</text><text x="782" y="129" fill="#2E7D32" fill-opacity="1" stroke="none" dominant-baseline="alphabetic" font-family="geogebra-sans-serif, sans-serif" font-size="28" font-style="normal" font-weight="normal" text-anchor="start" text-decoration="normal">LR-edge4</text><path fill="none" stroke="#F0F" stroke-linecap="round" stroke-linejoin="round" stroke-miterlimit="10" stroke-opacity=".8" stroke-width="5" d="M 632 346 L 1032 146" paint-order="fill stroke markers"/><text x="767" y="261" fill="#F0F" fill-opacity="1" stroke="none" dominant-baseline="alphabetic" font-family="geogebra-sans-serif, sans-serif" font-size="28" font-style="normal" font-weight="normal" text-anchor="start" text-decoration="normal">LR-edge3</text><text x="767" y="261" fill="#F0F" fill-opacity="1" stroke="none" dominant-baseline="alphabetic" font-family="geogebra-sans-serif, sans-serif" font-size="28" font-style="normal" font-weight="normal" text-anchor="start" text-decoration="normal">LR-edge3</text><path fill="#1565C0" fill-opacity="1" stroke="none" d="M 441 546 C 441 550.971 436.971 555 432 555 C 427.029 555 423 550.971 423 546 C 423 541.029 427.029 537 432 537 C 436.971 537 441 541.029 441 546 Z" paint-order="stroke fill markers"/><path fill="none" stroke="#000" stroke-linecap="round" stroke-linejoin="round" stroke-miterlimit="10" stroke-opacity="1" d="M 441 546 C 441 550.971 436.971 555 432 555 C 427.029 555 423 550.971 423 546 C 423 541.029 427.029 537 432 537 C 436.971 537 441 541.029 441 546 Z" paint-order="fill stroke markers"/><text x="402" y="533" fill="#1565C0" fill-opacity="1" stroke="none" dominant-baseline="alphabetic" font-family="geogebra-sans-serif, sans-serif" font-size="28" font-style="normal" font-weight="normal" text-anchor="start" text-decoration="normal">1</text><text x="402" y="533" fill="#1565C0" fill-opacity="1" stroke="none" dominant-baseline="alphabetic" font-family="geogebra-sans-serif, sans-serif" font-size="28" font-style="normal" font-weight="normal" text-anchor="start" text-decoration="normal">1</text><path fill="#616161" fill-opacity="1" stroke="none" d="M 841 546 C 841 550.971 836.971 555 832 555 C 827.029 555 823 550.971 823 546 C 823 541.029 827.029 537 832 537 C 836.971 537 841 541.029 841 546 Z" paint-order="stroke fill markers"/><path fill="none" stroke="#000" stroke-linecap="round" stroke-linejoin="round" stroke-miterlimit="10" stroke-opacity="1" d="M 841 546 C 841 550.971 836.971 555 832 555 C 827.029 555 823 550.971 823 546 C 823 541.029 827.029 537 832 537 C 836.971 537 841 541.029 841 546 Z" paint-order="fill stroke markers"/><text x="836" y="528" fill="#616161" fill-opacity="1" stroke="none" dominant-baseline="alphabetic" font-family="geogebra-sans-serif, sans-serif" font-size="28" font-style="normal" font-weight="normal" text-anchor="start" text-decoration="normal">5</text><text x="836" y="528" fill="#616161" fill-opacity="1" stroke="none" dominant-baseline="alphabetic" font-family="geogebra-sans-serif, sans-serif" font-size="28" font-style="normal" font-weight="normal" text-anchor="start" text-decoration="normal">5</text><path fill="#1565C0" fill-opacity="1" stroke="none" d="M 1441 546 C 1441 550.971 1436.97 555 1432 555 C 1427.03 555 1423 550.971 1423 546 C 1423 541.029 1427.03 537 1432 537 C 1436.97 537 1441 541.029 1441 546 Z" paint-order="stroke fill markers"/><path fill="none" stroke="#000" stroke-linecap="round" stroke-linejoin="round" stroke-miterlimit="10" stroke-opacity="1" d="M 1441 546 C 1441 550.971 1436.97 555 1432 555 C 1427.03 555 1423 550.971 1423 546 C 1423 541.029 1427.03 537 1432 537 C 1436.97 537 1441 541.029 1441 546 Z" paint-order="fill stroke markers"/><text x="1436" y="528" fill="#1565C0" fill-opacity="1" stroke="none" dominant-baseline="alphabetic" font-family="geogebra-sans-serif, sans-serif" font-size="28" font-style="normal" font-weight="normal" text-anchor="start" text-decoration="normal">9</text><text x="1436" y="528" fill="#1565C0" fill-opacity="1" stroke="none" dominant-baseline="alphabetic" font-family="geogebra-sans-serif, sans-serif" font-size="28" font-style="normal" font-weight="normal" text-anchor="start" text-decoration="normal">9</text><path fill="#1565C0" fill-opacity="1" stroke="none" d="M 641 746 C 641 750.971 636.971 755 632 755 C 627.029 755 623 750.971 623 746 C 623 741.029 627.029 737 632 737 C 636.971 737 641 741.029 641 746 Z" paint-order="stroke fill markers"/><path fill="none" stroke="#000" stroke-linecap="round" stroke-linejoin="round" stroke-miterlimit="10" stroke-opacity="1" d="M 641 746 C 641 750.971 636.971 755 632 755 C 627.029 755 623 750.971 623 746 C 623 741.029 627.029 737 632 737 C 636.971 737 641 741.029 641 746 Z" paint-order="fill stroke markers"/><text x="576" y="758" fill="#1565C0" fill-opacity="1" stroke="none" dominant-baseline="alphabetic" font-family="geogebra-sans-serif, sans-serif" font-size="28" font-style="normal" font-weight="normal" text-anchor="start" text-decoration="normal">2</text><text x="576" y="758" fill="#1565C0" fill-opacity="1" stroke="none" dominant-baseline="alphabetic" font-family="geogebra-sans-serif, sans-serif" font-size="28" font-style="normal" font-weight="normal" text-anchor="start" text-decoration="normal">2</text><path fill="#1565C0" fill-opacity="1" stroke="none" d="M 641 346 C 641 350.971 636.971 355 632 355 C 627.029 355 623 350.971 623 346 C 623 341.029 627.029 337 632 337 C 636.971 337 641 341.029 641 346 Z" paint-order="stroke fill markers"/><path fill="none" stroke="#000" stroke-linecap="round" stroke-linejoin="round" stroke-miterlimit="10" stroke-opacity="1" d="M 641 346 C 641 350.971 636.971 355 632 355 C 627.029 355 623 350.971 623 346 C 623 341.029 627.029 337 632 337 C 636.971 337 641 341.029 641 346 Z" paint-order="fill stroke markers"/><text x="636" y="328" fill="#1565C0" fill-opacity="1" stroke="none" dominant-baseline="alphabetic" font-family="geogebra-sans-serif, sans-serif" font-size="28" font-style="normal" font-weight="normal" text-anchor="start" text-decoration="normal">3</text><text x="636" y="328" fill="#1565C0" fill-opacity="1" stroke="none" dominant-baseline="alphabetic" font-family="geogebra-sans-serif, sans-serif" font-size="28" font-style="normal" font-weight="normal" text-anchor="start" text-decoration="normal">3</text><path fill="#1565C0" fill-opacity="1" stroke="none" d="M 641 146 C 641 150.971 636.971 155 632 155 C 627.029 155 623 150.971 623 146 C 623 141.029 627.029 137 632 137 C 636.971 137 641 141.029 641 146 Z" paint-order="stroke fill markers"/><path fill="none" stroke="#000" stroke-linecap="round" stroke-linejoin="round" stroke-miterlimit="10" stroke-opacity="1" d="M 641 146 C 641 150.971 636.971 155 632 155 C 627.029 155 623 150.971 623 146 C 623 141.029 627.029 137 632 137 C 636.971 137 641 141.029 641 146 Z" paint-order="fill stroke markers"/><text x="636" y="128" fill="#1565C0" fill-opacity="1" stroke="none" dominant-baseline="alphabetic" font-family="geogebra-sans-serif, sans-serif" font-size="28" font-style="normal" font-weight="normal" text-anchor="start" text-decoration="normal">4</text><text x="636" y="128" fill="#1565C0" fill-opacity="1" stroke="none" dominant-baseline="alphabetic" font-family="geogebra-sans-serif, sans-serif" font-size="28" font-style="normal" font-weight="normal" text-anchor="start" text-decoration="normal">4</text><path fill="#1565C0" fill-opacity="1" stroke="none" d="M 1041 146 C 1041 150.971 1036.97 155 1032 155 C 1027.03 155 1023 150.971 1023 146 C 1023 141.029 1027.03 137 1032 137 C 1036.97 137 1041 141.029 1041 146 Z" paint-order="stroke fill markers"/><path fill="none" stroke="#000" stroke-linecap="round" stroke-linejoin="round" stroke-miterlimit="10" stroke-opacity="1" d="M 1041 146 C 1041 150.971 1036.97 155 1032 155 C 1027.03 155 1023 150.971 1023 146 C 1023 141.029 1027.03 137 1032 137 C 1036.97 137 1041 141.029 1041 146 Z" paint-order="fill stroke markers"/><text x="1036" y="128" fill="#1565C0" fill-opacity="1" stroke="none" dominant-baseline="alphabetic" font-family="geogebra-sans-serif, sans-serif" font-size="28" font-style="normal" font-weight="normal" text-anchor="start" text-decoration="normal">6</text><text x="1036" y="128" fill="#1565C0" fill-opacity="1" stroke="none" dominant-baseline="alphabetic" font-family="geogebra-sans-serif, sans-serif" font-size="28" font-style="normal" font-weight="normal" text-anchor="start" text-decoration="normal">6</text><path fill="#D32F2F" fill-opacity="1" stroke="none" d="M 1241 346 C 1241 350.971 1236.97 355 1232 355 C 1227.03 355 1223 350.971 1223 346 C 1223 341.029 1227.03 337 1232 337 C 1236.97 337 1241 341.029 1241 346 Z" paint-order="stroke fill markers"/><path fill="none" stroke="#000" stroke-linecap="round" stroke-linejoin="round" stroke-miterlimit="10" stroke-opacity="1" d="M 1241 346 C 1241 350.971 1236.97 355 1232 355 C 1227.03 355 1223 350.971 1223 346 C 1223 341.029 1227.03 337 1232 337 C 1236.97 337 1241 341.029 1241 346 Z" paint-order="fill stroke markers"/><text x="1236" y="328" fill="#D32F2F" fill-opacity="1" stroke="none" dominant-baseline="alphabetic" font-family="geogebra-sans-serif, sans-serif" font-size="28" font-style="normal" font-weight="normal" text-anchor="start" text-decoration="normal">7</text><text x="1236" y="328" fill="#D32F2F" fill-opacity="1" stroke="none" dominant-baseline="alphabetic" font-family="geogebra-sans-serif, sans-serif" font-size="28" font-style="normal" font-weight="normal" text-anchor="start" text-decoration="normal">7</text><path fill="#1565C0" fill-opacity="1" stroke="none" d="M 1441 746 C 1441 750.971 1436.97 755 1432 755 C 1427.03 755 1423 750.971 1423 746 C 1423 741.029 1427.03 737 1432 737 C 1436.97 737 1441 741.029 1441 746 Z" paint-order="stroke fill markers"/><path fill="none" stroke="#000" stroke-linecap="round" stroke-linejoin="round" stroke-miterlimit="10" stroke-opacity="1" d="M 1441 746 C 1441 750.971 1436.97 755 1432 755 C 1427.03 755 1423 750.971 1423 746 C 1423 741.029 1427.03 737 1432 737 C 1436.97 737 1441 741.029 1441 746 Z" paint-order="fill stroke markers"/><text x="1436" y="728" fill="#1565C0" fill-opacity="1" stroke="none" dominant-baseline="alphabetic" font-family="geogebra-sans-serif, sans-serif" font-size="28" font-style="normal" font-weight="normal" text-anchor="start" text-decoration="normal">8</text><text x="1436" y="728" fill="#1565C0" fill-opacity="1" stroke="none" dominant-baseline="alphabetic" font-family="geogebra-sans-serif, sans-serif" font-size="28" font-style="normal" font-weight="normal" text-anchor="start" text-decoration="normal">8</text><path fill="#1565C0" fill-opacity="1" stroke="none" d="M 1441 146 C 1441 150.971 1436.97 155 1432 155 C 1427.03 155 1423 150.971 1423 146 C 1423 141.029 1427.03 137 1432 137 C 1436.97 137 1441 141.029 1441 146 Z" paint-order="stroke fill markers"/><path fill="none" stroke="#000" stroke-linecap="round" stroke-linejoin="round" stroke-miterlimit="10" stroke-opacity="1" d="M 1441 146 C 1441 150.971 1436.97 155 1432 155 C 1427.03 155 1423 150.971 1423 146 C 1423 141.029 1427.03 137 1432 137 C 1436.97 137 1441 141.029 1441 146 Z" paint-order="fill stroke markers"/><text x="1436" y="128" fill="#1565C0" fill-opacity="1" stroke="none" dominant-baseline="alphabetic" font-family="geogebra-sans-serif, sans-serif" font-size="28" font-style="normal" font-weight="normal" text-anchor="start" text-decoration="normal">10</text><text x="1436" y="128" fill="#1565C0" fill-opacity="1" stroke="none" dominant-baseline="alphabetic" font-family="geogebra-sans-serif, sans-serif" font-size="28" font-style="normal" font-weight="normal" text-anchor="start" text-decoration="normal">10</text></g></g></svg>