<svg xmlns="http://www.w3.org/2000/svg" xmlns:xlink="http://www.w3.org/1999/xlink" width="1779" height="1127" version="1.1"><defs><clipPath id="orWkKrTSEIoK"><path fill="none" stroke="none" d="M 0 0 L 1779 0 L 1779 1127 L 0 1127 L 0 0 Z"/></clipPath></defs><g clip-path="url(&quot;#orWkKrTSEIoK&quot;)" transform="scale(1)"><g><rect width="1779" height="1127" x="0" y="0" fill="#FFF" fill-opacity="1" stroke="none"/><path fill="none" stroke="#616161" stroke-dasharray="12 8" stroke-linejoin="round" stroke-miterlimit="10" stroke-opacity=".8" stroke-width="4" d="M 795.135 47.5329 L 799.708 1022.73" paint-order="fill stroke markers"/><path fill="none" stroke="#D32F2F" stroke-linecap="round" stroke-linejoin="round" stroke-miterlimit="10" stroke-opacity=".8" stroke-width="6.5" d="M 331.25 86.75 L 631.25 686.75" paint-order="fill stroke markers"/><text x="466" y="367" fill="#D32F2F" fill-opacity="1" stroke="none" dominant-baseline="alphabetic" font-family="geogebra-sans-serif, sans-serif" font-size="48" font-style="normal" font-weight="normal" text-anchor="start" text-decoration="normal">RR-edge</text><text x="466" y="367" fill="none" stroke="#FFF" stroke-linecap="round" stroke-linejoin="bevel" stroke-miterlimit="10" stroke-opacity="1" stroke-width="3" dominant-baseline="alphabetic" font-family="geogebra-sans-serif, sans-serif" font-size="48" font-style="normal" font-weight="normal" text-anchor="start" text-decoration="normal">RR-edge</text><text x="466" y="367" fill="#D32F2F" fill-opacity="1" stroke="none" dominant-baseline="alphabetic" font-family="geogebra-sans-serif, sans-serif" font-size="48" font-style="normal" font-weight="normal" text-anchor="start" text-decoration="normal">RR-edge</text><path fill="none" stroke="#616161" stroke-linecap="round" stroke-linejoin="round" stroke-miterlimit="10" stroke-opacity=".8" stroke-width="6.5" d="M 331.25 386.75 L 331.25 986.75" paint-order="fill stroke markers"/><path fill="none" stroke="#616161" stroke-linecap="round" stroke-linejoin="round" stroke-miterlimit="10" stroke-opacity=".8" stroke-width="6.5" d="M 31.25 686.75 L 331.25 386.75" paint-order="fill stroke markers"/><text x="150" y="564" fill="#616161" fill-opacity="1" stroke="none" dominant-baseline="alphabetic" font-family="geogebra-sans-serif, sans-serif" font-size="48" font-style="normal" font-weight="normal" text-anchor="start" text-decoration="normal">LL-edge</text><text x="150" y="564" fill="none" stroke="#FFF" stroke-linecap="round" stroke-linejoin="bevel" stroke-miterlimit="10" stroke-opacity="1" stroke-width="3" dominant-baseline="alphabetic" font-family="geogebra-sans-serif, sans-serif" font-size="48" font-style="normal" font-weight="normal" text-anchor="start" text-decoration="normal">LL-edge</text><text x="150" y="564" fill="#616161" fill-opacity="1" stroke="none" dominant-baseline="alphabetic" font-family="geogebra-sans-serif, sans-serif" font-size="48" font-style="normal" font-weight="normal" text-anchor="start" text-decoration="normal">LL-edge</text><path fill="none" stroke="#616161" stroke-linecap="round" stroke-linejoin="round" stroke-miterlimit="10" stroke-opacity=".8" stroke-width="6.5" d="M 31.25 686.75 L 331.25 986.75" paint-order="fill stroke markers"/><text x="139" y="841" fill="#616161" fill-opacity="1" stroke="none" dominant-baseline="alphabetic" font-family="geogebra-sans-serif, sans-serif" font-size="48" font-style="normal" font-weight="normal" text-anchor="start" text-decoration="normal">LL-edge</text><text x="139" y="841" fill="none" stroke="#FFF" stroke-linecap="round" stroke-linejoin="bevel" stroke-miterlimit="10" stroke-opacity="1" stroke-width="3" dominant-baseline="alphabetic" font-family="geogebra-sans-serif, sans-serif" font-size="48" font-style="normal" font-weight="normal" text-anchor="start" text-decoration="normal">LL-edge</text><text x="139" y="841" fill="#616161" fill-opacity="1" stroke="none" dominant-baseline="alphabetic" font-family="geogebra-sans-serif, sans-serif" font-size="48" font-style="normal" font-weight="normal" text-anchor="start" text-decoration="normal">LL-edge</text><path fill="none" stroke="#616161" stroke-linecap="round" stroke-linejoin="round" stroke-miterlimit="10" stroke-opacity=".8" stroke-width="6.5" d="M 931.25 86.75 L 1231.25 386.75" paint-order="fill stroke markers"/><path fill="none" stroke="#616161" stroke-linecap="round" stroke-linejoin="round" stroke-miterlimit="10" stroke-opacity=".8" stroke-width="6.5" d="M 931.25 86.75 L 1531.25 986.75" paint-order="fill stroke markers"/><text x="1138" y="535" fill="#616161" fill-opacity="1" stroke="none" dominant-baseline="alphabetic" font-family="geogebra-sans-serif, sans-serif" font-size="48" font-style="normal" font-weight="normal" text-anchor="start" text-decoration="normal">LL-edge</text><text x="1138" y="535" fill="none" stroke="#FFF" stroke-linecap="round" stroke-linejoin="bevel" stroke-miterlimit="10" stroke-opacity="1" stroke-width="3" dominant-baseline="alphabetic" font-family="geogebra-sans-serif, sans-serif" font-size="48" font-style="normal" font-weight="normal" text-anchor="start" text-decoration="normal">LL-edge</text><text x="1138" y="535" fill="#616161" fill-opacity="1" stroke="none" dominant-baseline="alphabetic" font-family="geogebra-sans-serif, sans-serif" font-size="48" font-style="normal" font-weight="normal" text-anchor="start" text-decoration="normal">LL-edge</text><path fill="none" stroke="#616161" stroke-linecap="round" stroke-linejoin="round" stroke-miterlimit="10" stroke-opacity=".8" stroke-width="6.5" d="M 1231.25 386.75 L 1531.25 986.75" paint-order="fill stroke markers"/><path fill="none" stroke="#D32F2F" stroke-linecap="round" stroke-linejoin="round" stroke-miterlimit="10" stroke-opacity=".8" stroke-width="6.5" d="M 1531.25 86.75 L 1531.25 686.75" paint-order="fill stroke markers"/><text x="1541" y="390" fill="#D32F2F" fill-opacity="1" stroke="none" dominant-baseline="alphabetic" font-family="geogebra-sans-serif, sans-serif" font-size="48" font-style="normal" font-weight="normal" text-anchor="start" text-decoration="normal">RR-edge</text><text x="1541" y="390" fill="none" stroke="#FFF" stroke-linecap="round" stroke-linejoin="bevel" stroke-miterlimit="10" stroke-opacity="1" stroke-width="3" dominant-baseline="alphabetic" font-family="geogebra-sans-serif, sans-serif" font-size="48" font-style="normal" font-weight="normal" text-anchor="start" text-decoration="normal">RR-edge</text><text x="1541" y="390" fill="#D32F2F" fill-opacity="1" stroke="none" dominant-baseline="alphabetic" font-family="geogebra-sans-serif, sans-serif" font-size="48" font-style="normal" font-weight="normal" text-anchor="start" text-decoration="normal">RR-edge</text><path fill="none" stroke="#1565C0" stroke-linecap="round" stroke-linejoin="round" stroke-miterlimit="10" stroke-opacity=".8" stroke-width="6.5" d="M 31.25 686.75 L 331.25 86.75" paint-order="fill stroke markers"/><text x="143" y="332" fill="#1565C0" fill-opacity="1" stroke="none" dominant-baseline="alphabetic" font-family="geogebra-sans-serif, sans-serif" font-size="48" font-style="normal" font-weight="normal" text-anchor="start" text-decoration="normal">LR-edge</text><text x="143" y="332" fill="none" stroke="#FFF" stroke-linecap="round" stroke-linejoin="bevel" stroke-miterlimit="10" stroke-opacity="1" stroke-width="3" dominant-baseline="alphabetic" font-family="geogebra-sans-serif, sans-serif" font-size="48" font-style="normal" font-weight="normal" text-anchor="start" text-decoration="normal">LR-edge</text><text x="143" y="332" fill="#1565C0" fill-opacity="1" stroke="none" dominant-baseline="alphabetic" font-family="geogebra-sans-serif, sans-serif" font-size="48" font-style="normal" font-weight="normal" text-anchor="start" text-decoration="normal">LR-edge</text><path fill="none" stroke="#1565C0" stroke-linecap="round" stroke-linejoin="round" stroke-miterlimit="10" stroke-opacity=".8" stroke-width="6.5" d="M 331.25 386.75 L 331.25 86.75" paint-order="fill stroke markers"/><path fill="none" stroke="#1565C0" stroke-linecap="round" stroke-linejoin="round" stroke-miterlimit="10" stroke-opacity=".8" stroke-width="6.5" d="M 331.25 986.75 L 631.25 686.75" paint-order="fill stroke markers"/><text x="473" y="838" fill="#1565C0" fill-opacity="1" stroke="none" dominant-baseline="alphabetic" font-family="geogebra-sans-serif, sans-serif" font-size="48" font-style="normal" font-weight="normal" text-anchor="start" text-decoration="normal">LR-edge</text><text x="473" y="838" fill="none" stroke="#FFF" stroke-linecap="round" stroke-linejoin="bevel" stroke-miterlimit="10" stroke-opacity="1" stroke-width="3" dominant-baseline="alphabetic" font-family="geogebra-sans-serif, sans-serif" font-size="48" font-style="normal" font-weight="normal" text-anchor="start" text-decoration="normal">LR-edge</text><text x="473" y="838" fill="#1565C0" fill-opacity="1" stroke="none" dominant-baseline="alphabetic" font-family="geogebra-sans-serif, sans-serif" font-size="48" font-style="normal" font-weight="normal" text-anchor="start" text-decoration="normal">LR-edge</text><path fill="none" stroke="#1565C0" stroke-linecap="round" stroke-linejoin="round" stroke-miterlimit="10" stroke-opacity=".8" stroke-width="6.5" d="M 331.25 386.75 L 631.25 686.75" paint-order="fill stroke markers"/><path fill="none" stroke="#1565C0" stroke-linecap="round" stroke-linejoin="round" stroke-miterlimit="10" stroke-opacity=".8" stroke-width="6.5" d="M 931.25 86.75 L 1531.25 86.75" paint-order="fill stroke markers"/><text x="1163" y="71" fill="#1565C0" fill-opacity="1" stroke="none" dominant-baseline="alphabetic" font-family="geogebra-sans-serif, sans-serif" font-size="48" font-style="normal" font-weight="normal" text-anchor="start" text-decoration="normal">LR-edge</text><text x="1163" y="71" fill="none" stroke="#FFF" stroke-linecap="round" stroke-linejoin="bevel" stroke-miterlimit="10" stroke-opacity="1" stroke-width="3" dominant-baseline="alphabetic" font-family="geogebra-sans-serif, sans-serif" font-size="48" font-style="normal" font-weight="normal" text-anchor="start" text-decoration="normal">LR-edge</text><text x="1163" y="71" fill="#1565C0" fill-opacity="1" stroke="none" dominant-baseline="alphabetic" font-family="geogebra-sans-serif, sans-serif" font-size="48" font-style="normal" font-weight="normal" text-anchor="start" text-decoration="normal">LR-edge</text><path fill="none" stroke="#1565C0" stroke-linecap="round" stroke-linejoin="round" stroke-miterlimit="10" stroke-opacity=".8" stroke-width="6.5" d="M 1231.25 386.75 L 1531.25 86.75" paint-order="fill stroke markers"/><path fill="none" stroke="#1565C0" stroke-linecap="round" stroke-linejoin="round" stroke-miterlimit="10" stroke-opacity=".8" stroke-width="6.5" d="M 1231.25 386.75 L 1531.25 686.75" paint-order="fill stroke markers"/><path fill="none" stroke="#1565C0" stroke-linecap="round" stroke-linejoin="round" stroke-miterlimit="10" stroke-opacity=".8" stroke-width="6.5" d="M 1531.25 686.75 L 1531.25 986.75" paint-order="fill stroke markers"/><text x="1540" y="846" fill="#1565C0" fill-opacity="1" stroke="none" dominant-baseline="alphabetic" font-family="geogebra-sans-serif, sans-serif" font-size="48" font-style="normal" font-weight="normal" text-anchor="start" text-decoration="normal">LR-edge</text><text x="1540" y="846" fill="none" stroke="#FFF" stroke-linecap="round" stroke-linejoin="bevel" stroke-miterlimit="10" stroke-opacity="1" stroke-width="3" dominant-baseline="alphabetic" font-family="geogebra-sans-serif, sans-serif" font-size="48" font-style="normal" font-weight="normal" text-anchor="start" text-decoration="normal">LR-edge</text><text x="1540" y="846" fill="#1565C0" fill-opacity="1" stroke="none" dominant-baseline="alphabetic" font-family="geogebra-sans-serif, sans-serif" font-size="48" font-style="normal" font-weight="normal" text-anchor="start" text-decoration="normal">LR-edge</text><path fill="#1565C0" fill-opacity="1" stroke="none" d="M 40.25 686.75 C 40.25 691.721 36.2206 695.75 31.25 695.75 C 26.2794 695.75 22.25 691.721 22.25 686.75 C 22.25 681.779 26.2794 677.75 31.25 677.75 C 36.2206 677.75 40.25 681.779 40.25 686.75 Z" paint-order="stroke fill markers"/><path fill="none" stroke="#000" stroke-linecap="round" stroke-linejoin="round" stroke-miterlimit="10" stroke-opacity="1" d="M 40.25 686.75 C 40.25 691.721 36.2206 695.75 31.25 695.75 C 26.2794 695.75 22.25 691.721 22.25 686.75 C 22.25 681.779 26.2794 677.75 31.25 677.75 C 36.2206 677.75 40.25 681.779 40.25 686.75 Z" paint-order="fill stroke markers"/><text x="10" y="668" fill="#1565C0" fill-opacity="1" stroke="none" dominant-baseline="alphabetic" font-family="geogebra-sans-serif, sans-serif" font-size="48" font-style="normal" font-weight="normal" text-anchor="start" text-decoration="normal">1</text><text x="10" y="668" fill="none" stroke="#FFF" stroke-linecap="round" stroke-linejoin="bevel" stroke-miterlimit="10" stroke-opacity="1" stroke-width="3" dominant-baseline="alphabetic" font-family="geogebra-sans-serif, sans-serif" font-size="48" font-style="normal" font-weight="normal" text-anchor="start" text-decoration="normal">1</text><text x="10" y="668" fill="#1565C0" fill-opacity="1" stroke="none" dominant-baseline="alphabetic" font-family="geogebra-sans-serif, sans-serif" font-size="48" font-style="normal" font-weight="normal" text-anchor="start" text-decoration="normal">1</text><path fill="#1565C0" fill-opacity="1" stroke="none" d="M 640.25 686.75 C 640.25 691.721 636.221 695.75 631.25 695.75 C 626.279 695.75 622.25 691.721 622.25 686.75 C 622.25 681.779 626.279 677.75 631.25 677.75 C 636.221 677.75 640.25 681.779 640.25 686.75 Z" paint-order="stroke fill markers"/><path fill="none" stroke="#000" stroke-linecap="round" stroke-linejoin="round" stroke-miterlimit="10" stroke-opacity="1" d="M 640.25 686.75 C 640.25 691.721 636.221 695.75 631.25 695.75 C 626.279 695.75 622.25 691.721 622.25 686.75 C 622.25 681.779 626.279 677.75 631.25 677.75 C 636.221 677.75 640.25 681.779 640.25 686.75 Z" paint-order="fill stroke markers"/><text x="635" y="669" fill="#1565C0" fill-opacity="1" stroke="none" dominant-baseline="alphabetic" font-family="geogebra-sans-serif, sans-serif" font-size="48" font-style="normal" font-weight="normal" text-anchor="start" text-decoration="normal">5</text><text x="635" y="669" fill="none" stroke="#FFF" stroke-linecap="round" stroke-linejoin="bevel" stroke-miterlimit="10" stroke-opacity="1" stroke-width="3" dominant-baseline="alphabetic" font-family="geogebra-sans-serif, sans-serif" font-size="48" font-style="normal" font-weight="normal" text-anchor="start" text-decoration="normal">5</text><text x="635" y="669" fill="#1565C0" fill-opacity="1" stroke="none" dominant-baseline="alphabetic" font-family="geogebra-sans-serif, sans-serif" font-size="48" font-style="normal" font-weight="normal" text-anchor="start" text-decoration="normal">5</text><path fill="#1565C0" fill-opacity="1" stroke="none" d="M 1540.25 686.75 C 1540.25 691.721 1536.22 695.75 1531.25 695.75 C 1526.28 695.75 1522.25 691.721 1522.25 686.75 C 1522.25 681.779 1526.28 677.75 1531.25 677.75 C 1536.22 677.75 1540.25 681.779 1540.25 686.75 Z" paint-order="stroke fill markers"/><path fill="none" stroke="#000" stroke-linecap="round" stroke-linejoin="round" stroke-miterlimit="10" stroke-opacity="1" d="M 1540.25 686.75 C 1540.25 691.721 1536.22 695.75 1531.25 695.75 C 1526.28 695.75 1522.25 691.721 1522.25 686.75 C 1522.25 681.779 1526.28 677.75 1531.25 677.75 C 1536.22 677.75 1540.25 681.779 1540.25 686.75 Z" paint-order="fill stroke markers"/><text x="1535" y="669" fill="#1565C0" fill-opacity="1" stroke="none" dominant-baseline="alphabetic" font-family="geogebra-sans-serif, sans-serif" font-size="48" font-style="normal" font-weight="normal" text-anchor="start" text-decoration="normal">9</text><text x="1535" y="669" fill="none" stroke="#FFF" stroke-linecap="round" stroke-linejoin="bevel" stroke-miterlimit="10" stroke-opacity="1" stroke-width="3" dominant-baseline="alphabetic" font-family="geogebra-sans-serif, sans-serif" font-size="48" font-style="normal" font-weight="normal" text-anchor="start" text-decoration="normal">9</text><text x="1535" y="669" fill="#1565C0" fill-opacity="1" stroke="none" dominant-baseline="alphabetic" font-family="geogebra-sans-serif, sans-serif" font-size="48" font-style="normal" font-weight="normal" text-anchor="start" text-decoration="normal">9</text><path fill="#1565C0" fill-opacity="1" stroke="none" d="M 340.25 986.75 C 340.25 991.721 336.221 995.75 331.25 995.75 C 326.279 995.75 322.25 991.721 322.25 986.75 C 322.25 981.779 326.279 977.75 331.25 977.75 C 336.221 977.75 340.25 981.779 340.25 986.75 Z" paint-order="stroke fill markers"/><path fill="none" stroke="#000" stroke-linecap="round" stroke-linejoin="round" stroke-miterlimit="10" stroke-opacity="1" d="M 340.25 986.75 C 340.25 991.721 336.221 995.75 331.25 995.75 C 326.279 995.75 322.25 991.721 322.25 986.75 C 322.25 981.779 326.279 977.75 331.25 977.75 C 336.221 977.75 340.25 981.779 340.25 986.75 Z" paint-order="fill stroke markers"/><text x="356" y="999" fill="#1565C0" fill-opacity="1" stroke="none" dominant-baseline="alphabetic" font-family="geogebra-sans-serif, sans-serif" font-size="48" font-style="normal" font-weight="normal" text-anchor="start" text-decoration="normal">2</text><text x="356" y="999" fill="none" stroke="#FFF" stroke-linecap="round" stroke-linejoin="bevel" stroke-miterlimit="10" stroke-opacity="1" stroke-width="3" dominant-baseline="alphabetic" font-family="geogebra-sans-serif, sans-serif" font-size="48" font-style="normal" font-weight="normal" text-anchor="start" text-decoration="normal">2</text><text x="356" y="999" fill="#1565C0" fill-opacity="1" stroke="none" dominant-baseline="alphabetic" font-family="geogebra-sans-serif, sans-serif" font-size="48" font-style="normal" font-weight="normal" text-anchor="start" text-decoration="normal">2</text><path fill="#1565C0" fill-opacity="1" stroke="none" d="M 340.25 386.75 C 340.25 391.721 336.221 395.75 331.25 395.75 C 326.279 395.75 322.25 391.721 322.25 386.75 C 322.25 381.779 326.279 377.75 331.25 377.75 C 336.221 377.75 340.25 381.779 340.25 386.75 Z" paint-order="stroke fill markers"/><path fill="none" stroke="#000" stroke-linecap="round" stroke-linejoin="round" stroke-miterlimit="10" stroke-opacity="1" d="M 340.25 386.75 C 340.25 391.721 336.221 395.75 331.25 395.75 C 326.279 395.75 322.25 391.721 322.25 386.75 C 322.25 381.779 326.279 377.75 331.25 377.75 C 336.221 377.75 340.25 381.779 340.25 386.75 Z" paint-order="fill stroke markers"/><text x="347" y="385" fill="#1565C0" fill-opacity="1" stroke="none" dominant-baseline="alphabetic" font-family="geogebra-sans-serif, sans-serif" font-size="48" font-style="normal" font-weight="normal" text-anchor="start" text-decoration="normal">3</text><text x="347" y="385" fill="none" stroke="#FFF" stroke-linecap="round" stroke-linejoin="bevel" stroke-miterlimit="10" stroke-opacity="1" stroke-width="3" dominant-baseline="alphabetic" font-family="geogebra-sans-serif, sans-serif" font-size="48" font-style="normal" font-weight="normal" text-anchor="start" text-decoration="normal">3</text><text x="347" y="385" fill="#1565C0" fill-opacity="1" stroke="none" dominant-baseline="alphabetic" font-family="geogebra-sans-serif, sans-serif" font-size="48" font-style="normal" font-weight="normal" text-anchor="start" text-decoration="normal">3</text><path fill="#1565C0" fill-opacity="1" stroke="none" d="M 340.25 86.75 C 340.25 91.7206 336.221 95.75 331.25 95.75 C 326.279 95.75 322.25 91.7206 322.25 86.75 C 322.25 81.7794 326.279 77.75 331.25 77.75 C 336.221 77.75 340.25 81.7794 340.25 86.75 Z" paint-order="stroke fill markers"/><path fill="none" stroke="#000" stroke-linecap="round" stroke-linejoin="round" stroke-miterlimit="10" stroke-opacity="1" d="M 340.25 86.75 C 340.25 91.7206 336.221 95.75 331.25 95.75 C 326.279 95.75 322.25 91.7206 322.25 86.75 C 322.25 81.7794 326.279 77.75 331.25 77.75 C 336.221 77.75 340.25 81.7794 340.25 86.75 Z" paint-order="fill stroke markers"/><text x="335" y="69" fill="#1565C0" fill-opacity="1" stroke="none" dominant-baseline="alphabetic" font-family="geogebra-sans-serif, sans-serif" font-size="48" font-style="normal" font-weight="normal" text-anchor="start" text-decoration="normal">4</text><text x="335" y="69" fill="none" stroke="#FFF" stroke-linecap="round" stroke-linejoin="bevel" stroke-miterlimit="10" stroke-opacity="1" stroke-width="3" dominant-baseline="alphabetic" font-family="geogebra-sans-serif, sans-serif" font-size="48" font-style="normal" font-weight="normal" text-anchor="start" text-decoration="normal">4</text><text x="335" y="69" fill="#1565C0" fill-opacity="1" stroke="none" dominant-baseline="alphabetic" font-family="geogebra-sans-serif, sans-serif" font-size="48" font-style="normal" font-weight="normal" text-anchor="start" text-decoration="normal">4</text><path fill="#1565C0" fill-opacity="1" stroke="none" d="M 940.25 86.75 C 940.25 91.7206 936.221 95.75 931.25 95.75 C 926.279 95.75 922.25 91.7206 922.25 86.75 C 922.25 81.7794 926.279 77.75 931.25 77.75 C 936.221 77.75 940.25 81.7794 940.25 86.75 Z" paint-order="stroke fill markers"/><path fill="none" stroke="#000" stroke-linecap="round" stroke-linejoin="round" stroke-miterlimit="10" stroke-opacity="1" d="M 940.25 86.75 C 940.25 91.7206 936.221 95.75 931.25 95.75 C 926.279 95.75 922.25 91.7206 922.25 86.75 C 922.25 81.7794 926.279 77.75 931.25 77.75 C 936.221 77.75 940.25 81.7794 940.25 86.75 Z" paint-order="fill stroke markers"/><text x="935" y="69" fill="#1565C0" fill-opacity="1" stroke="none" dominant-baseline="alphabetic" font-family="geogebra-sans-serif, sans-serif" font-size="48" font-style="normal" font-weight="normal" text-anchor="start" text-decoration="normal">6</text><text x="935" y="69" fill="none" stroke="#FFF" stroke-linecap="round" stroke-linejoin="bevel" stroke-miterlimit="10" stroke-opacity="1" stroke-width="3" dominant-baseline="alphabetic" font-family="geogebra-sans-serif, sans-serif" font-size="48" font-style="normal" font-weight="normal" text-anchor="start" text-decoration="normal">6</text><text x="935" y="69" fill="#1565C0" fill-opacity="1" stroke="none" dominant-baseline="alphabetic" font-family="geogebra-sans-serif, sans-serif" font-size="48" font-style="normal" font-weight="normal" text-anchor="start" text-decoration="normal">6</text><path fill="#1565C0" fill-opacity="1" stroke="none" d="M 1240.25 386.75 C 1240.25 391.721 1236.22 395.75 1231.25 395.75 C 1226.28 395.75 1222.25 391.721 1222.25 386.75 C 1222.25 381.779 1226.28 377.75 1231.25 377.75 C 1236.22 377.75 1240.25 381.779 1240.25 386.75 Z" paint-order="stroke fill markers"/><path fill="none" stroke="#000" stroke-linecap="round" stroke-linejoin="round" stroke-miterlimit="10" stroke-opacity="1" d="M 1240.25 386.75 C 1240.25 391.721 1236.22 395.75 1231.25 395.75 C 1226.28 395.75 1222.25 391.721 1222.25 386.75 C 1222.25 381.779 1226.28 377.75 1231.25 377.75 C 1236.22 377.75 1240.25 381.779 1240.25 386.75 Z" paint-order="fill stroke markers"/><text x="1235" y="369" fill="#1565C0" fill-opacity="1" stroke="none" dominant-baseline="alphabetic" font-family="geogebra-sans-serif, sans-serif" font-size="48" font-style="normal" font-weight="normal" text-anchor="start" text-decoration="normal">7</text><text x="1235" y="369" fill="none" stroke="#FFF" stroke-linecap="round" stroke-linejoin="bevel" stroke-miterlimit="10" stroke-opacity="1" stroke-width="3" dominant-baseline="alphabetic" font-family="geogebra-sans-serif, sans-serif" font-size="48" font-style="normal" font-weight="normal" text-anchor="start" text-decoration="normal">7</text><text x="1235" y="369" fill="#1565C0" fill-opacity="1" stroke="none" dominant-baseline="alphabetic" font-family="geogebra-sans-serif, sans-serif" font-size="48" font-style="normal" font-weight="normal" text-anchor="start" text-decoration="normal">7</text><path fill="#1565C0" fill-opacity="1" stroke="none" d="M 1540.25 986.75 C 1540.25 991.721 1536.22 995.75 1531.25 995.75 C 1526.28 995.75 1522.25 991.721 1522.25 986.75 C 1522.25 981.779 1526.28 977.75 1531.25 977.75 C 1536.22 977.75 1540.25 981.779 1540.25 986.75 Z" paint-order="stroke fill markers"/><path fill="none" stroke="#000" stroke-linecap="round" stroke-linejoin="round" stroke-miterlimit="10" stroke-opacity="1" d="M 1540.25 986.75 C 1540.25 991.721 1536.22 995.75 1531.25 995.75 C 1526.28 995.75 1522.25 991.721 1522.25 986.75 C 1522.25 981.779 1526.28 977.75 1531.25 977.75 C 1536.22 977.75 1540.25 981.779 1540.25 986.75 Z" paint-order="fill stroke markers"/><text x="1535" y="969" fill="#1565C0" fill-opacity="1" stroke="none" dominant-baseline="alphabetic" font-family="geogebra-sans-serif, sans-serif" font-size="48" font-style="normal" font-weight="normal" text-anchor="start" text-decoration="normal">8</text><text x="1535" y="969" fill="none" stroke="#FFF" stroke-linecap="round" stroke-linejoin="bevel" stroke-miterlimit="10" stroke-opacity="1" stroke-width="3" dominant-baseline="alphabetic" font-family="geogebra-sans-serif, sans-serif" font-size="48" font-style="normal" font-weight="normal" text-anchor="start" text-decoration="normal">8</text><text x="1535" y="969" fill="#1565C0" fill-opacity="1" stroke="none" dominant-baseline="alphabetic" font-family="geogebra-sans-serif, sans-serif" font-size="48" font-style="normal" font-weight="normal" text-anchor="start" text-decoration="normal">8</text><path fill="#1565C0" fill-opacity="1" stroke="none" d="M 1540.25 86.75 C 1540.25 91.7206 1536.22 95.75 1531.25 95.75 C 1526.28 95.75 1522.25 91.7206 1522.25 86.75 C 1522.25 81.7794 1526.28 77.75 1531.25 77.75 C 1536.22 77.75 1540.25 81.7794 1540.25 86.75 Z" paint-order="stroke fill markers"/><path fill="none" stroke="#000" stroke-linecap="round" stroke-linejoin="round" stroke-miterlimit="10" stroke-opacity="1" d="M 1540.25 86.75 C 1540.25 91.7206 1536.22 95.75 1531.25 95.75 C 1526.28 95.75 1522.25 91.7206 1522.25 86.75 C 1522.25 81.7794 1526.28 77.75 1531.25 77.75 C 1536.22 77.75 1540.25 81.7794 1540.25 86.75 Z" paint-order="fill stroke markers"/><text x="1535" y="69" fill="#1565C0" fill-opacity="1" stroke="none" dominant-baseline="alphabetic" font-family="geogebra-sans-serif, sans-serif" font-size="48" font-style="normal" font-weight="normal" text-anchor="start" text-decoration="normal">10</text><text x="1535" y="69" fill="none" stroke="#FFF" stroke-linecap="round" stroke-linejoin="bevel" stroke-miterlimit="10" stroke-opacity="1" stroke-width="3" dominant-baseline="alphabetic" font-family="geogebra-sans-serif, sans-serif" font-size="48" font-style="normal" font-weight="normal" text-anchor="start" text-decoration="normal">10</text><text x="1535" y="69" fill="#1565C0" fill-opacity="1" stroke="none" dominant-baseline="alphabetic" font-family="geogebra-sans-serif, sans-serif" font-size="48" font-style="normal" font-weight="normal" text-anchor="start" text-decoration="normal">10</text></g></g></svg>