<svg xmlns="http://www.w3.org/2000/svg" xmlns:xlink="http://www.w3.org/1999/xlink" width="1779" height="1127" version="1.1"><defs><clipPath id="WnDzkZomQaPU"><path fill="none" stroke="none" d="M 0 0 L 1779 0 L 1779 1127 L 0 1127 L 0 0 Z"/></clipPath></defs><g clip-path="url(&quot;#WnDzkZomQaPU&quot;)" transform="scale(1)"><g><rect width="1779" height="1127" x="0" y="0" fill="#FFF" fill-opacity="1" stroke="none"/><path fill="#1565C0" fill-opacity="1" stroke="none" d="M 78.8593 735.23 C 78.8593 740.201 74.8299 744.23 69.8593 744.23 C 64.8888 744.23 60.8593 740.201 60.8593 735.23 C 60.8593 730.26 64.8888 726.23 69.8593 726.23 C 74.8299 726.23 78.8593 730.26 78.8593 735.23 Z" paint-order="stroke fill markers"/><path fill="none" stroke="#000" stroke-linecap="round" stroke-linejoin="round" stroke-miterlimit="10" stroke-opacity="1" d="M 78.8593 735.23 C 78.8593 740.201 74.8299 744.23 69.8593 744.23 C 64.8888 744.23 60.8593 740.201 60.8593 735.23 C 60.8593 730.26 64.8888 726.23 69.8593 726.23 C 74.8299 726.23 78.8593 730.26 78.8593 735.23 Z" paint-order="fill stroke markers"/><text x="74" y="717" fill="#1565C0" fill-opacity="1" stroke="none" dominant-baseline="alphabetic" font-family="geogebra-sans-serif, sans-serif" font-size="48" font-style="normal" font-weight="normal" text-anchor="start" text-decoration="normal">1</text><text x="74" y="717" fill="none" stroke="#FFF" stroke-linecap="round" stroke-linejoin="bevel" stroke-miterlimit="10" stroke-opacity="1" stroke-width="3" dominant-baseline="alphabetic" font-family="geogebra-sans-serif, sans-serif" font-size="48" font-style="normal" font-weight="normal" text-anchor="start" text-decoration="normal">1</text><text x="74" y="717" fill="#1565C0" fill-opacity="1" stroke="none" dominant-baseline="alphabetic" font-family="geogebra-sans-serif, sans-serif" font-size="48" font-style="normal" font-weight="normal" text-anchor="start" text-decoration="normal">1</text><path fill="#1565C0" fill-opacity="1" stroke="none" d="M 734.828 735.23 C 734.828 740.201 730.798 744.23 725.828 744.23 C 720.857 744.23 716.828 740.201 716.828 735.23 C 716.828 730.26 720.857 726.23 725.828 726.23 C 730.798 726.23 734.828 730.26 734.828 735.23 Z" paint-order="stroke fill markers"/><path fill="none" stroke="#000" stroke-linecap="round" stroke-linejoin="round" stroke-miterlimit="10" stroke-opacity="1" d="M 734.828 735.23 C 734.828 740.201 730.798 744.23 725.828 744.23 C 720.857 744.23 716.828 740.201 716.828 735.23 C 716.828 730.26 720.857 726.23 725.828 726.23 C 730.798 726.23 734.828 730.26 734.828 735.23 Z" paint-order="fill stroke markers"/><text x="730" y="717" fill="#1565C0" fill-opacity="1" stroke="none" dominant-baseline="alphabetic" font-family="geogebra-sans-serif, sans-serif" font-size="48" font-style="normal" font-weight="normal" text-anchor="start" text-decoration="normal">5</text><text x="730" y="717" fill="none" stroke="#FFF" stroke-linecap="round" stroke-linejoin="bevel" stroke-miterlimit="10" stroke-opacity="1" stroke-width="3" dominant-baseline="alphabetic" font-family="geogebra-sans-serif, sans-serif" font-size="48" font-style="normal" font-weight="normal" text-anchor="start" text-decoration="normal">5</text><text x="730" y="717" fill="#1565C0" fill-opacity="1" stroke="none" dominant-baseline="alphabetic" font-family="geogebra-sans-serif, sans-serif" font-size="48" font-style="normal" font-weight="normal" text-anchor="start" text-decoration="normal">5</text><path fill="#1565C0" fill-opacity="1" stroke="none" d="M 1718.78 735.23 C 1718.78 740.201 1714.75 744.23 1709.78 744.23 C 1704.81 744.23 1700.78 740.201 1700.78 735.23 C 1700.78 730.26 1704.81 726.23 1709.78 726.23 C 1714.75 726.23 1718.78 730.26 1718.78 735.23 Z" paint-order="stroke fill markers"/><path fill="none" stroke="#000" stroke-linecap="round" stroke-linejoin="round" stroke-miterlimit="10" stroke-opacity="1" d="M 1718.78 735.23 C 1718.78 740.201 1714.75 744.23 1709.78 744.23 C 1704.81 744.23 1700.78 740.201 1700.78 735.23 C 1700.78 730.26 1704.81 726.23 1709.78 726.23 C 1714.75 726.23 1718.78 730.26 1718.78 735.23 Z" paint-order="fill stroke markers"/><text x="1714" y="717" fill="#1565C0" fill-opacity="1" stroke="none" dominant-baseline="alphabetic" font-family="geogebra-sans-serif, sans-serif" font-size="48" font-style="normal" font-weight="normal" text-anchor="start" text-decoration="normal">9</text><text x="1714" y="717" fill="none" stroke="#FFF" stroke-linecap="round" stroke-linejoin="bevel" stroke-miterlimit="10" stroke-opacity="1" stroke-width="3" dominant-baseline="alphabetic" font-family="geogebra-sans-serif, sans-serif" font-size="48" font-style="normal" font-weight="normal" text-anchor="start" text-decoration="normal">9</text><text x="1714" y="717" fill="#1565C0" fill-opacity="1" stroke="none" dominant-baseline="alphabetic" font-family="geogebra-sans-serif, sans-serif" font-size="48" font-style="normal" font-weight="normal" text-anchor="start" text-decoration="normal">9</text><path fill="#1565C0" fill-opacity="1" stroke="none" d="M 406.844 1077.01 C 406.844 1081.98 402.814 1086.01 397.844 1086.01 C 392.873 1086.01 388.844 1081.98 388.844 1077.01 C 388.844 1072.04 392.873 1068.01 397.844 1068.01 C 402.814 1068.01 406.844 1072.04 406.844 1077.01 Z" paint-order="stroke fill markers"/><path fill="none" stroke="#000" stroke-linecap="round" stroke-linejoin="round" stroke-miterlimit="10" stroke-opacity="1" d="M 406.844 1077.01 C 406.844 1081.98 402.814 1086.01 397.844 1086.01 C 392.873 1086.01 388.844 1081.98 388.844 1077.01 C 388.844 1072.04 392.873 1068.01 397.844 1068.01 C 402.814 1068.01 406.844 1072.04 406.844 1077.01 Z" paint-order="fill stroke markers"/><text x="402" y="1059" fill="#1565C0" fill-opacity="1" stroke="none" dominant-baseline="alphabetic" font-family="geogebra-sans-serif, sans-serif" font-size="48" font-style="normal" font-weight="normal" text-anchor="start" text-decoration="normal">2</text><text x="402" y="1059" fill="none" stroke="#FFF" stroke-linecap="round" stroke-linejoin="bevel" stroke-miterlimit="10" stroke-opacity="1" stroke-width="3" dominant-baseline="alphabetic" font-family="geogebra-sans-serif, sans-serif" font-size="48" font-style="normal" font-weight="normal" text-anchor="start" text-decoration="normal">2</text><text x="402" y="1059" fill="#1565C0" fill-opacity="1" stroke="none" dominant-baseline="alphabetic" font-family="geogebra-sans-serif, sans-serif" font-size="48" font-style="normal" font-weight="normal" text-anchor="start" text-decoration="normal">2</text><path fill="#1565C0" fill-opacity="1" stroke="none" d="M 406.844 393.454 C 406.844 398.425 402.814 402.454 397.844 402.454 C 392.873 402.454 388.844 398.425 388.844 393.454 C 388.844 388.484 392.873 384.454 397.844 384.454 C 402.814 384.454 406.844 388.484 406.844 393.454 Z" paint-order="stroke fill markers"/><path fill="none" stroke="#000" stroke-linecap="round" stroke-linejoin="round" stroke-miterlimit="10" stroke-opacity="1" d="M 406.844 393.454 C 406.844 398.425 402.814 402.454 397.844 402.454 C 392.873 402.454 388.844 398.425 388.844 393.454 C 388.844 388.484 392.873 384.454 397.844 384.454 C 402.814 384.454 406.844 388.484 406.844 393.454 Z" paint-order="fill stroke markers"/><text x="402" y="375" fill="#1565C0" fill-opacity="1" stroke="none" dominant-baseline="alphabetic" font-family="geogebra-sans-serif, sans-serif" font-size="48" font-style="normal" font-weight="normal" text-anchor="start" text-decoration="normal">3</text><text x="402" y="375" fill="none" stroke="#FFF" stroke-linecap="round" stroke-linejoin="bevel" stroke-miterlimit="10" stroke-opacity="1" stroke-width="3" dominant-baseline="alphabetic" font-family="geogebra-sans-serif, sans-serif" font-size="48" font-style="normal" font-weight="normal" text-anchor="start" text-decoration="normal">3</text><text x="402" y="375" fill="#1565C0" fill-opacity="1" stroke="none" dominant-baseline="alphabetic" font-family="geogebra-sans-serif, sans-serif" font-size="48" font-style="normal" font-weight="normal" text-anchor="start" text-decoration="normal">3</text><path fill="#1565C0" fill-opacity="1" stroke="none" d="M 406.844 51.6782 C 406.844 56.6488 402.814 60.6782 397.844 60.6782 C 392.873 60.6782 388.844 56.6488 388.844 51.6782 C 388.844 46.7077 392.873 42.6782 397.844 42.6782 C 402.814 42.6782 406.844 46.7077 406.844 51.6782 Z" paint-order="stroke fill markers"/><path fill="none" stroke="#000" stroke-linecap="round" stroke-linejoin="round" stroke-miterlimit="10" stroke-opacity="1" d="M 406.844 51.6782 C 406.844 56.6488 402.814 60.6782 397.844 60.6782 C 392.873 60.6782 388.844 56.6488 388.844 51.6782 C 388.844 46.7077 392.873 42.6782 397.844 42.6782 C 402.814 42.6782 406.844 46.7077 406.844 51.6782 Z" paint-order="fill stroke markers"/><text x="402" y="48" fill="#1565C0" fill-opacity="1" stroke="none" dominant-baseline="alphabetic" font-family="geogebra-sans-serif, sans-serif" font-size="48" font-style="normal" font-weight="normal" text-anchor="start" text-decoration="normal">4</text><text x="402" y="48" fill="none" stroke="#FFF" stroke-linecap="round" stroke-linejoin="bevel" stroke-miterlimit="10" stroke-opacity="1" stroke-width="3" dominant-baseline="alphabetic" font-family="geogebra-sans-serif, sans-serif" font-size="48" font-style="normal" font-weight="normal" text-anchor="start" text-decoration="normal">4</text><text x="402" y="48" fill="#1565C0" fill-opacity="1" stroke="none" dominant-baseline="alphabetic" font-family="geogebra-sans-serif, sans-serif" font-size="48" font-style="normal" font-weight="normal" text-anchor="start" text-decoration="normal">4</text><path fill="#1565C0" fill-opacity="1" stroke="none" d="M 1062.81 51.6782 C 1062.81 56.6488 1058.78 60.6782 1053.81 60.6782 C 1048.84 60.6782 1044.81 56.6488 1044.81 51.6782 C 1044.81 46.7077 1048.84 42.6782 1053.81 42.6782 C 1058.78 42.6782 1062.81 46.7077 1062.81 51.6782 Z" paint-order="stroke fill markers"/><path fill="none" stroke="#000" stroke-linecap="round" stroke-linejoin="round" stroke-miterlimit="10" stroke-opacity="1" d="M 1062.81 51.6782 C 1062.81 56.6488 1058.78 60.6782 1053.81 60.6782 C 1048.84 60.6782 1044.81 56.6488 1044.81 51.6782 C 1044.81 46.7077 1048.84 42.6782 1053.81 42.6782 C 1058.78 42.6782 1062.81 46.7077 1062.81 51.6782 Z" paint-order="fill stroke markers"/><text x="1058" y="48" fill="#1565C0" fill-opacity="1" stroke="none" dominant-baseline="alphabetic" font-family="geogebra-sans-serif, sans-serif" font-size="48" font-style="normal" font-weight="normal" text-anchor="start" text-decoration="normal">6</text><text x="1058" y="48" fill="none" stroke="#FFF" stroke-linecap="round" stroke-linejoin="bevel" stroke-miterlimit="10" stroke-opacity="1" stroke-width="3" dominant-baseline="alphabetic" font-family="geogebra-sans-serif, sans-serif" font-size="48" font-style="normal" font-weight="normal" text-anchor="start" text-decoration="normal">6</text><text x="1058" y="48" fill="#1565C0" fill-opacity="1" stroke="none" dominant-baseline="alphabetic" font-family="geogebra-sans-serif, sans-serif" font-size="48" font-style="normal" font-weight="normal" text-anchor="start" text-decoration="normal">6</text><path fill="#1565C0" fill-opacity="1" stroke="none" d="M 1390.8 393.454 C 1390.8 398.425 1386.77 402.454 1381.8 402.454 C 1376.83 402.454 1372.8 398.425 1372.8 393.454 C 1372.8 388.484 1376.83 384.454 1381.8 384.454 C 1386.77 384.454 1390.8 388.484 1390.8 393.454 Z" paint-order="stroke fill markers"/><path fill="none" stroke="#000" stroke-linecap="round" stroke-linejoin="round" stroke-miterlimit="10" stroke-opacity="1" d="M 1390.8 393.454 C 1390.8 398.425 1386.77 402.454 1381.8 402.454 C 1376.83 402.454 1372.8 398.425 1372.8 393.454 C 1372.8 388.484 1376.83 384.454 1381.8 384.454 C 1386.77 384.454 1390.8 388.484 1390.8 393.454 Z" paint-order="fill stroke markers"/><text x="1386" y="375" fill="#1565C0" fill-opacity="1" stroke="none" dominant-baseline="alphabetic" font-family="geogebra-sans-serif, sans-serif" font-size="48" font-style="normal" font-weight="normal" text-anchor="start" text-decoration="normal">7</text><text x="1386" y="375" fill="none" stroke="#FFF" stroke-linecap="round" stroke-linejoin="bevel" stroke-miterlimit="10" stroke-opacity="1" stroke-width="3" dominant-baseline="alphabetic" font-family="geogebra-sans-serif, sans-serif" font-size="48" font-style="normal" font-weight="normal" text-anchor="start" text-decoration="normal">7</text><text x="1386" y="375" fill="#1565C0" fill-opacity="1" stroke="none" dominant-baseline="alphabetic" font-family="geogebra-sans-serif, sans-serif" font-size="48" font-style="normal" font-weight="normal" text-anchor="start" text-decoration="normal">7</text><path fill="#1565C0" fill-opacity="1" stroke="none" d="M 1718.78 1077.01 C 1718.78 1081.98 1714.75 1086.01 1709.78 1086.01 C 1704.81 1086.01 1700.78 1081.98 1700.78 1077.01 C 1700.78 1072.04 1704.81 1068.01 1709.78 1068.01 C 1714.75 1068.01 1718.78 1072.04 1718.78 1077.01 Z" paint-order="stroke fill markers"/><path fill="none" stroke="#000" stroke-linecap="round" stroke-linejoin="round" stroke-miterlimit="10" stroke-opacity="1" d="M 1718.78 1077.01 C 1718.78 1081.98 1714.75 1086.01 1709.78 1086.01 C 1704.81 1086.01 1700.78 1081.98 1700.78 1077.01 C 1700.78 1072.04 1704.81 1068.01 1709.78 1068.01 C 1714.75 1068.01 1718.78 1072.04 1718.78 1077.01 Z" paint-order="fill stroke markers"/><text x="1714" y="1059" fill="#1565C0" fill-opacity="1" stroke="none" dominant-baseline="alphabetic" font-family="geogebra-sans-serif, sans-serif" font-size="48" font-style="normal" font-weight="normal" text-anchor="start" text-decoration="normal">8</text><text x="1714" y="1059" fill="none" stroke="#FFF" stroke-linecap="round" stroke-linejoin="bevel" stroke-miterlimit="10" stroke-opacity="1" stroke-width="3" dominant-baseline="alphabetic" font-family="geogebra-sans-serif, sans-serif" font-size="48" font-style="normal" font-weight="normal" text-anchor="start" text-decoration="normal">8</text><text x="1714" y="1059" fill="#1565C0" fill-opacity="1" stroke="none" dominant-baseline="alphabetic" font-family="geogebra-sans-serif, sans-serif" font-size="48" font-style="normal" font-weight="normal" text-anchor="start" text-decoration="normal">8</text><path fill="#1565C0" fill-opacity="1" stroke="none" d="M 1718.78 51.6782 C 1718.78 56.6488 1714.75 60.6782 1709.78 60.6782 C 1704.81 60.6782 1700.78 56.6488 1700.78 51.6782 C 1700.78 46.7077 1704.81 42.6782 1709.78 42.6782 C 1714.75 42.6782 1718.78 46.7077 1718.78 51.6782 Z" paint-order="stroke fill markers"/><path fill="none" stroke="#000" stroke-linecap="round" stroke-linejoin="round" stroke-miterlimit="10" stroke-opacity="1" d="M 1718.78 51.6782 C 1718.78 56.6488 1714.75 60.6782 1709.78 60.6782 C 1704.81 60.6782 1700.78 56.6488 1700.78 51.6782 C 1700.78 46.7077 1704.81 42.6782 1709.78 42.6782 C 1714.75 42.6782 1718.78 46.7077 1718.78 51.6782 Z" paint-order="fill stroke markers"/><text x="1714" y="48" fill="#1565C0" fill-opacity="1" stroke="none" dominant-baseline="alphabetic" font-family="geogebra-sans-serif, sans-serif" font-size="48" font-style="normal" font-weight="normal" text-anchor="start" text-decoration="normal">10</text><text x="1714" y="48" fill="none" stroke="#FFF" stroke-linecap="round" stroke-linejoin="bevel" stroke-miterlimit="10" stroke-opacity="1" stroke-width="3" dominant-baseline="alphabetic" font-family="geogebra-sans-serif, sans-serif" font-size="48" font-style="normal" font-weight="normal" text-anchor="start" text-decoration="normal">10</text><text x="1714" y="48" fill="#1565C0" fill-opacity="1" stroke="none" dominant-baseline="alphabetic" font-family="geogebra-sans-serif, sans-serif" font-size="48" font-style="normal" font-weight="normal" text-anchor="start" text-decoration="normal">10</text></g></g></svg>