<?xml version="1.0" encoding="UTF-8"?>
<svg width="432pt" height="39.85pt" version="1.1" viewBox="0 0 432 39.85" style="background:#fff" xmlns="http://www.w3.org/2000/svg" xmlns:xlink="http://www.w3.org/1999/xlink">
<defs>
<symbol id="h" overflow="visible">
<path d="m3.0938-6.5469c0-0.23438-0.15625-0.42188-0.46875-0.42188-0.67188 0.6875-1.4219 0.64062-1.9219 0.64062v0.64062c0.39062 0 1.0938-0.046875 1.3125-0.17188v4.9062c0 0.35938 0.14062 0.3125-0.75 0.3125h-0.5v0.65625c0.53125-0.046875 1.3906-0.046875 1.7969-0.046875 0.39062 0 1.2656 0 1.7812 0.046875v-0.65625h-0.48438c-0.90625 0-0.76562 0.0625-0.76562-0.3125z"/>
</symbol>
<symbol id="g" overflow="visible">
<path d="m4.0781-2.2969h2.7812c0.14062 0 0.5-0.15625 0.5-0.35938 0-0.1875-0.35938-0.35938-0.5-0.35938h-2.6094v-2.625c0-0.14062-0.17188-0.5-0.375-0.5s-0.375 0.35938-0.375 0.5v2.625h-2.6094c-0.14062 0-0.51562 0.17188-0.51562 0.35938 0 0.20312 0.375 0.35938 0.51562 0.35938h2.6094v2.6406c0 0.14062 0.17188 0.48438 0.375 0.48438s0.375-0.34375 0.375-0.48438v-2.6406z"/>
</symbol>
<symbol id="f" overflow="visible">
<path d="m1.3906-0.8125 1.0469-1.0312c1.5625-1.375 2.2031-2.0312 2.2031-3.0156 0-1.1406-1.0625-2.1094-2.2812-2.1094-1.125 0-2.0469 1.0938-2.0469 1.9688 0 0.5625 0.6875 0.71875 0.71875 0.71875 0.17188 0 0.6875-0.28125 0.6875-0.6875 0-0.25-0.35938-0.6875-0.70312-0.6875-0.078125 0-0.09375 0 0.125-0.078125 0.14062-0.39062 0.51562-0.59375 1.0938-0.59375 0.90625 0 1.1562 0.64062 1.1562 1.4688 0 0.79688-0.45312 1.4531-1 2.0781l-1.9062 2.1406c-0.10938 0.10938-0.17188 0.23438-0.17188 0.64062h4.0312l0.32812-2.0625h-0.59375c-0.078125 0.46875-0.09375 0.78125-0.20312 0.9375-0.0625 0.078125-0.59375 0.03125-0.8125 0.03125h-1.7969z"/>
</symbol>
<symbol id="e" overflow="visible">
<path d="m6.8438-3.2656c0.15625 0 0.51562-0.15625 0.51562-0.35938 0-0.1875-0.35938-0.35938-0.5-0.35938h-5.9688c-0.14062 0-0.51562 0.17188-0.51562 0.35938 0 0.20312 0.375 0.35938 0.51562 0.35938zm0.015625 1.9375c0.14062 0 0.5-0.15625 0.5-0.35938s-0.35938-0.35938-0.51562-0.35938h-5.9531c-0.14062 0-0.51562 0.15625-0.51562 0.35938s0.375 0.35938 0.51562 0.35938z"/>
</symbol>
<symbol id="d" overflow="visible">
<path d="m2.8906-3.5156c0.8125-0.26562 1.5625-1.125 1.5625-1.9062 0-0.8125-1.0469-1.5469-2-1.5469-1 0-1.9375 0.76562-1.9375 1.5312 0 0.32812 0.39062 0.67188 0.6875 0.67188s0.67188-0.375 0.67188-0.67188c0-0.5-0.64062-0.65625-0.48438-0.65625 0.125-0.21875 0.65625-0.29688 1.0156-0.29688 0.42188 0 0.78125 0.0625 0.78125 0.95312 0 0.125 0.03125 0.57812-0.23438 1.0156-0.29688 0.48438-0.5 0.46875-0.75 0.46875-0.078125 0.015625-0.3125 0.03125-0.39062 0.03125-0.078125 0.015625-0.32812 0.1875-0.32812 0.29688s0.25 0.26562 0.42188 0.26562h0.4375c0.8125 0 1 0.51562 1 1.5 0 1.3438-0.5 1.4688-0.9375 1.4688s-1.0625-0.125-1.2031-0.375c0.015625 0 0.5-0.375 0.5-0.76562 0-0.35938-0.4375-0.71875-0.71875-0.71875-0.25 0-0.75 0.3125-0.75 0.75 0 0.90625 1.1094 1.7188 2.2031 1.7188 1.2188 0 2.2812-1.0625 2.2812-2.0781 0-0.82812-0.79688-1.7656-1.8281-1.9844z"/>
</symbol>
<symbol id="c" overflow="visible">
<path d="m3.4688 2.2344c0-0.03125-0.046875-0.17188-0.21875-0.34375-1.25-1.25-1.5156-3.0156-1.5156-4.5469 0-1.7344 0.32812-3.3594 1.5625-4.5938 0.125-0.125 0.17188-0.25 0.17188-0.28125 0-0.078125-0.20312-0.28125-0.26562-0.28125-0.10938 0-1.1719 0.85938-1.7656 2.125-0.51562 1.0938-0.625 2.2031-0.625 3.0312 0 0.78125 0.10938 1.9844 0.65625 3.1094 0.59375 1.2344 1.625 2.0469 1.7344 2.0469 0.0625 0 0.26562-0.20312 0.26562-0.26562z"/>
</symbol>
<symbol id="b" overflow="visible">
<path d="m4.3438-0.15625v-0.48438h-0.48438c-0.90625 0-0.76562 0.0625-0.76562-0.3125v-5.5938c0-0.23438-0.15625-0.42188-0.46875-0.42188-0.67188 0.6875-1.4219 0.64062-1.9219 0.64062v0.64062c0.39062 0 1.0938-0.046875 1.3125-0.17188v4.9062c0 0.35938 0.14062 0.3125-0.75 0.3125h-0.5v0.65625c0.53125-0.046875 1.3906-0.046875 1.7969-0.046875 0.39062 0 1.2656 0 1.7812 0.046875z"/>
</symbol>
<symbol id="a" overflow="visible">
<path d="m3.0469-2.6562c0-0.76562-0.10938-1.9844-0.65625-3.1094-0.59375-1.2188-1.625-2.0469-1.7188-2.0469-0.0625 0-0.28125 0.21875-0.28125 0.28125 0 0.03125 0.046875 0.15625 0.23438 0.32812 0.98438 1 1.5 2.4688 1.5 4.5469 0 1.7031-0.32812 3.3438-1.5625 4.5938-0.125 0.125-0.17188 0.26562-0.17188 0.29688 0 0.0625 0.21875 0.26562 0.28125 0.26562 0.09375 0 1.1562-0.84375 1.75-2.1094 0.51562-1.0938 0.625-2.2031 0.625-3.0469z"/>
</symbol>
</defs>
<g>
<use x="195.798" y="21.917" xlink:href="#h"/>
<use x="202.990997" y="21.917" xlink:href="#g"/>
<use x="212.943635" y="21.917" xlink:href="#f"/>
<use x="220.694537" y="21.917" xlink:href="#e"/>
<use x="231.195118" y="21.917" xlink:href="#d"/>
<use x="419.268" y="21.917" xlink:href="#c"/>
<use x="423.143451" y="21.917" xlink:href="#b"/>
<use x="428.124751" y="21.917" xlink:href="#a"/>
</g>
</svg>
