<?xml version="1.0" encoding="UTF-8"?>
<svg width="432pt" height="79.7pt" version="1.1" viewBox="0 0 432 79.7" style="background:#fff" xmlns="http://www.w3.org/2000/svg" xmlns:xlink="http://www.w3.org/1999/xlink">
<defs>
<symbol id="l" overflow="visible">
<path d="m3.8906-3.9219c-0.1875-0.375-0.64062-0.8125-1.0938-0.8125-1.1562 0-2.5781 1.6406-2.5781 3.0938 0 0.9375 0.73438 1.75 1.5 1.75 0.20312 0 0.82812-0.09375 1.1875-0.53125 0.015625 0.046875 0.54688 0.53125 1.0156 0.53125 0.35938 0 0.70312-0.28125 0.78125-0.45312 0.29688-0.60938 0.4375-1.2188 0.4375-1.2344 0-0.10938-0.26562-0.28125-0.29688-0.28125-0.09375 0-0.28125 0.21875-0.3125 0.35938-0.17188 0.64062-0.17188 1.0625-0.57812 1.0625-0.28125 0-0.14062-0.09375-0.14062-0.29688 0-0.21875 0.03125-0.29688 0.14062-0.73438 0.10938-0.42188 0.125-0.51562 0.21875-0.89062l0.35938-1.4062c0.0625-0.26562 0.0625-0.29688 0.0625-0.32812 0-0.17188-0.28125-0.4375-0.45312-0.4375-0.25 0-0.57812 0.39062-0.60938 0.60938zm-1 2.5781c-0.046875 0.17188 0 0.078125-0.15625 0.25-0.4375 0.54688-0.70312 0.65625-0.98438 0.65625-0.5 0-0.46875-0.375-0.46875-0.76562 0-0.5 0.26562-1.625 0.5-2.0781 0.29688-0.59375 0.625-0.90625 1.0312-0.90625 0.64062 0 0.60938 0.65625 0.60938 0.71875s-0.015625 0.125-0.03125 0.17188z"/>
</symbol>
<symbol id="k" overflow="visible">
<path d="m2.5469-6.9688c0-0.015625-0.17188-0.28125-0.29688-0.28125-0.21875 0-0.95312 0.078125-1.2188 0.10938-0.078125 0-0.35938 0.1875-0.35938 0.35938 0 0.125 0.26562 0.28125 0.42188 0.28125 0.46875 0 0.3125-0.09375 0.3125 0.015625 0 0.0625-0.09375 0.40625-0.14062 0.60938l-0.8125 3.25c-0.125 0.5-0.15625 0.65625-0.15625 1.0156 0 0.9375 0.70312 1.7188 1.4375 1.7188 1.1719 0 2.5781-1.6406 2.5781-3.0781 0-0.90625-0.70312-1.7656-1.5-1.7656-0.45312 0-1 0.34375-1.2969 0.64062l0.29688 0.125zm-0.9375 3.7656c0.0625-0.21875 0.015625-0.125 0.10938-0.23438 0.48438-0.65625 0.8125-0.75 1.0781-0.75 0.35938 0 0.4375 0.14062 0.4375 0.78125 0 0.57812-0.32812 1.7344-0.5 2.1094-0.32812 0.67188-0.60938 0.85938-1 0.85938-0.34375 0-0.5-0.09375-0.5-0.84375 0-0.1875 0-0.375 0.15625-1z"/>
</symbol>
<symbol id="j" overflow="visible">
<path d="m3.9531-4.1094c-0.17188 0-0.4375 0.046875-0.57812 0.1875-0.15625 0.14062-0.21875 0.4375-0.21875 0.5 0 0.23438 0.35938 0.51562 0.54688 0.51562 0.28125 0 0.71875-0.40625 0.71875-0.79688 0-0.5-0.64062-1.0312-1.3438-1.0312-1.3438 0-2.8438 1.5938-2.8438 3 0 0.89062 0.75 1.8438 1.7969 1.8438 1.4219 0 2.4219-1.2188 2.4219-1.3281 0-0.0625-0.21875-0.3125-0.28125-0.3125s-0.20312 0.078125-0.26562 0.15625c-0.78125 0.98438-1.75 0.9375-1.8594 0.9375-0.625 0-0.73438-0.3125-0.73438-0.92188 0-0.40625 0.15625-1.2656 0.48438-1.875 0.3125-0.57812 0.75-0.95312 1.2969-0.95312 0.32812 0 0.57812 0.078125 0.57812 0.078125z"/>
</symbol>
<symbol id="i" overflow="visible">
<path d="m5.0156-3.9531c0.03125-0.14062 0.03125-0.15625 0.03125-0.23438 0-0.17188-0.29688-0.4375-0.45312-0.4375-0.09375 0-0.39062 0.10938-0.48438 0.28125-0.0625 0.14062-0.14062 0.45312-0.1875 0.64062-0.0625 0.25-0.14062 0.51562-0.1875 0.79688l-0.45312 1.7969c-0.046875 0.14062-0.29688 0.67188-0.95312 0.67188-0.5 0-0.4375-0.26562-0.4375-0.64062 0-0.45312 0.15625-1.0781 0.5-1.9531 0.15625-0.40625 0.20312-0.51562 0.20312-0.71875 0-0.45312-0.48438-0.98438-0.98438-0.98438-0.95312 0-1.5 1.6094-1.5 1.7031s0.28125 0.26562 0.29688 0.26562c0.10938 0 0.28125-0.1875 0.32812-0.34375 0.26562-0.9375 0.5-1.0781 0.84375-1.0781 0.078125 0 0.0625-0.15625 0.0625 0.15625 0 0.25-0.09375 0.51562-0.17188 0.70312-0.39062 1.0625-0.57812 1.625-0.57812 2.0938 0 0.89062 0.8125 1.3438 1.4062 1.3438 0.39062 0 0.84375-0.21875 1.125-0.5l-0.29688-0.10938c-0.14062 0.51562-0.20312 0.89062-0.60938 1.4219-0.25 0.32812-0.5 0.57812-0.95312 0.57812-0.14062 0-0.42188 0.14062-0.53125-0.09375-0.078125 0 0.17188-0.046875 0.3125-0.17188 0.10938-0.09375 0.25-0.32812 0.25-0.51562 0-0.3125-0.4375-0.51562-0.53125-0.51562-0.23438 0-0.75 0.32812-0.75 0.8125 0 0.5 0.625 1.0312 1.25 1.0312 1.0156 0 2.2188-1.0625 2.5-2.2031z"/>
</symbol>
<symbol id="h" overflow="visible">
<path d="m1.4531-0.875c0.53125-0.57812 0.8125-0.82812 1.2344-1.1719 0-0.09375 0.5625-0.5 0.92188-0.85938 0.95312-0.9375 1.2188-1.5156 1.2188-1.5625 0-0.09375-0.26562-0.26562-0.28125-0.26562-0.078125 0-0.23438 0.0625-0.28125 0.15625-0.29688 0.48438-0.375 0.59375-0.60938 0.59375-0.25 0-0.25-0.10938-0.39062-0.26562-0.1875-0.23438-0.48438-0.48438-0.8125-0.48438-0.75 0-1.3906 1.0938-1.3906 1.3125 0 0.046875 0.21875 0.26562 0.29688 0.26562 0.09375 0 0.28125-0.21875 0.3125-0.26562 0.1875-0.46875 0.59375-0.3125 0.67188-0.3125 0.20312 0 0.39062 0.0625 0.625 0.14062 0.40625 0.15625 0.51562 0.15625 0.40625 0.15625-0.125 0.14062-0.96875 0.85938-1.1562 1.0312l-0.89062 0.82812c-0.6875 0.67188-1.0781 1.3594-1.0781 1.4219 0 0.10938 0.28125 0.26562 0.29688 0.26562 0.078125 0 0.21875-0.0625 0.28125-0.17188 0.23438-0.35938 0.40625-0.57812 0.73438-0.57812 0.21875 0 0.1875 0.046875 0.4375 0.32812 0.17188 0.21875 0.48438 0.42188 0.76562 0.42188 1 0 1.7344-1.4219 1.7344-1.6875 0-0.0625-0.20312-0.28125-0.28125-0.28125-0.09375 0-0.29688 0.23438-0.32812 0.29688-0.21875 0.65625-0.6875 0.67188-1.0156 0.67188-0.1875 0-0.375-0.0625-0.57812-0.125-0.34375-0.125-0.5-0.17188-0.70312-0.17188-0.015625 0-0.17188 0-0.26562 0.03125z"/>
</symbol>
<symbol id="c" overflow="visible">
<path d="m6.8438-3.2656c0.15625 0 0.51562-0.15625 0.51562-0.35938 0-0.1875-0.35938-0.35938-0.5-0.35938h-5.9688c-0.14062 0-0.51562 0.17188-0.51562 0.35938 0 0.20312 0.375 0.35938 0.51562 0.35938zm0.015625 1.9375c0.14062 0 0.5-0.15625 0.5-0.35938s-0.35938-0.35938-0.51562-0.35938h-5.9531c-0.14062 0-0.51562 0.15625-0.51562 0.35938s0.375 0.35938 0.51562 0.35938z"/>
</symbol>
<symbol id="g" overflow="visible">
<path d="m4.0781-2.2969h2.7812c0.14062 0 0.5-0.15625 0.5-0.35938 0-0.1875-0.35938-0.35938-0.5-0.35938h-2.6094v-2.625c0-0.14062-0.17188-0.5-0.375-0.5s-0.375 0.35938-0.375 0.5v2.625h-2.6094c-0.14062 0-0.51562 0.17188-0.51562 0.35938 0 0.20312 0.375 0.35938 0.51562 0.35938h2.6094v2.6406c0 0.14062 0.17188 0.48438 0.375 0.48438s0.375-0.34375 0.375-0.48438v-2.6406z"/>
</symbol>
<symbol id="b" overflow="visible">
<path d="m3.4688 2.2344c0-0.03125-0.046875-0.17188-0.21875-0.34375-1.25-1.25-1.5156-3.0156-1.5156-4.5469 0-1.7344 0.32812-3.3594 1.5625-4.5938 0.125-0.125 0.17188-0.25 0.17188-0.28125 0-0.078125-0.20312-0.28125-0.26562-0.28125-0.10938 0-1.1719 0.85938-1.7656 2.125-0.51562 1.0938-0.625 2.2031-0.625 3.0312 0 0.78125 0.10938 1.9844 0.65625 3.1094 0.59375 1.2344 1.625 2.0469 1.7344 2.0469 0.0625 0 0.26562-0.20312 0.26562-0.26562z"/>
</symbol>
<symbol id="f" overflow="visible">
<path d="m4.3438-0.15625v-0.48438h-0.48438c-0.90625 0-0.76562 0.0625-0.76562-0.3125v-5.5938c0-0.23438-0.15625-0.42188-0.46875-0.42188-0.67188 0.6875-1.4219 0.64062-1.9219 0.64062v0.64062c0.39062 0 1.0938-0.046875 1.3125-0.17188v4.9062c0 0.35938 0.14062 0.3125-0.75 0.3125h-0.5v0.65625c0.53125-0.046875 1.3906-0.046875 1.7969-0.046875 0.39062 0 1.2656 0 1.7812 0.046875z"/>
</symbol>
<symbol id="a" overflow="visible">
<path d="m3.0469-2.6562c0-0.76562-0.10938-1.9844-0.65625-3.1094-0.59375-1.2188-1.625-2.0469-1.7188-2.0469-0.0625 0-0.28125 0.21875-0.28125 0.28125 0 0.03125 0.046875 0.15625 0.23438 0.32812 0.98438 1 1.5 2.4688 1.5 4.5469 0 1.7031-0.32812 3.3438-1.5625 4.5938-0.125 0.125-0.17188 0.26562-0.17188 0.29688 0 0.0625 0.21875 0.26562 0.28125 0.26562 0.09375 0 1.1562-0.84375 1.75-2.1094 0.51562-1.0938 0.625-2.2031 0.625-3.0469z"/>
</symbol>
<symbol id="e" overflow="visible">
<path d="m4.4688-2.0625h-0.39062c-0.078125 0.46875-0.09375 0.78125-0.20312 0.9375-0.0625 0.078125-0.59375 0.03125-0.8125 0.03125h-1.7969l0.125 0.28125 1.0469-1.0312c1.5625-1.375 2.2031-2.0312 2.2031-3.0156 0-1.1406-1.0625-2.1094-2.2812-2.1094-1.125 0-2.0469 1.0938-2.0469 1.9688 0 0.5625 0.6875 0.71875 0.71875 0.71875 0.17188 0 0.6875-0.28125 0.6875-0.6875 0-0.25-0.35938-0.6875-0.70312-0.6875-0.078125 0-0.09375 0 0.125-0.078125 0.14062-0.39062 0.51562-0.59375 1.0938-0.59375 0.90625 0 1.1562 0.64062 1.1562 1.4688 0 0.79688-0.45312 1.4531-1 2.0781l-1.9062 2.1406c-0.10938 0.10938-0.17188 0.23438-0.17188 0.64062h4.0312l0.32812-2.0625z"/>
</symbol>
<symbol id="d" overflow="visible">
<path d="m6.5625-2.2969c0.17188 0 0.5625-0.125 0.5625-0.32812s-0.39062-0.32812-0.5625-0.32812h-5.3906c-0.17188 0-0.54688 0.125-0.54688 0.32812s0.375 0.32812 0.54688 0.32812z"/>
</symbol>
</defs>
<g>
<use x="188.285" y="31.879" xlink:href="#l"/>
<use x="203.514" y="31.879" xlink:href="#c"/>
<use x="221.225" y="31.879" xlink:href="#k"/>
<use x="227.715" y="31.879" xlink:href="#g"/>
<use x="237.677" y="31.879" xlink:href="#j"/>
<use x="419.268" y="31.879" xlink:href="#b"/>
<use x="423.143451" y="31.879" xlink:href="#f"/>
<use x="428.124751" y="31.879" xlink:href="#a"/>
<use x="203.514" y="46.823" xlink:href="#c"/>
<use x="221.225" y="46.823" xlink:href="#i"/>
<use x="228.681" y="46.823" xlink:href="#d"/>
<use x="238.644" y="46.823" xlink:href="#h"/>
<use x="419.268" y="46.823" xlink:href="#b"/>
<use x="423.143451" y="46.823" xlink:href="#e"/>
<use x="428.124751" y="46.823" xlink:href="#a"/>
</g>
</svg>
