<?xml version="1.0" encoding="utf-8"?>
<!-- Generator: Adobe Illustrator 26.0.0, SVG Export Plug-In . SVG Version: 6.00 Build 0)  -->
<svg version="1.1" id="图层_1" xmlns="http://www.w3.org/2000/svg" xmlns:xlink="http://www.w3.org/1999/xlink" x="0px" y="0px"
	 viewBox="0 0 309.61 118.05" style="enable-background:new 0 0 309.61 118.05;" xml:space="preserve">
<style type="text/css">
	.st0{fill:#040000;stroke:#040000;stroke-width:0.3985;stroke-miterlimit:10;}
	.st1{fill:#E7211A;stroke:#040000;stroke-width:0.3985;stroke-miterlimit:10;}
	.st2{fill:#FFFFFF;}
	.st3{fill:none;stroke:#040000;stroke-miterlimit:10;}
	.st4{fill:#040000;}
</style>
<path class="st0" d="M171.73,10.77c0-5.84-4.73-10.57-10.57-10.57s-10.57,4.73-10.57,10.57s4.73,10.57,10.57,10.57
	S171.73,16.61,171.73,10.77z"/>
<path class="st1" d="M113.44,10.77c0-5.84-4.73-10.57-10.57-10.57S92.3,4.93,92.3,10.77c0,5.84,4.73,10.57,10.57,10.57
	S113.44,16.61,113.44,10.77z"/>
<g>
	<path class="st2" d="M157.12,7.76l1.93-0.94h0.19v6.71c0,0.44,0.02,0.72,0.06,0.83s0.11,0.19,0.23,0.25s0.36,0.09,0.71,0.1v0.22
		h-2.99v-0.22c0.37-0.01,0.61-0.04,0.73-0.1s0.2-0.15,0.25-0.27c0.03-0.09,0.05-0.36,0.05-0.83V9.23c0-0.58-0.02-0.95-0.06-1.12
		c-0.03-0.12-0.08-0.21-0.15-0.27s-0.16-0.09-0.26-0.09c-0.14,0-0.34,0.06-0.6,0.18L157.12,7.76z"/>
	<path class="st2" d="M166.92,6.98l-0.46,1h-2.38l-0.52,1.07c1.03,0.15,1.83,0.51,2.39,1.09s0.85,1.23,0.85,1.95
		c0,0.51-0.14,1.01-0.42,1.48s-0.67,0.85-1.18,1.12s-1.02,0.41-1.55,0.41c-0.47,0-0.81-0.08-1.03-0.25s-0.33-0.34-0.33-0.54
		c0-0.12,0.04-0.22,0.13-0.3s0.2-0.13,0.34-0.13c0.1,0,0.19,0.02,0.27,0.05s0.21,0.11,0.39,0.24c0.29,0.2,0.59,0.3,0.88,0.3
		c0.46,0,0.86-0.17,1.21-0.52s0.52-0.77,0.52-1.26c0-0.39-0.09-0.75-0.28-1.08s-0.44-0.6-0.76-0.83s-0.66-0.4-1.02-0.51
		s-0.83-0.17-1.42-0.2l1.52-3.09H166.92z"/>
</g>
<path class="st0" d="M51.87,72c0-5.84-4.73-10.57-10.57-10.57S30.73,66.16,30.73,72s4.73,10.57,10.57,10.57S51.87,77.84,51.87,72z"
	/>
<g>
	<path class="st2" d="M43.69,72.72v0.83h-1.07v2.1h-0.97v-2.1h-3.36V72.8l3.69-5.26h0.64v5.18H43.69z M41.65,72.72v-3.94l-2.79,3.94
		H41.65z"/>
</g>
<path class="st0" d="M113.44,72c0-5.84-4.73-10.57-10.57-10.57S92.3,66.16,92.3,72s4.73,10.57,10.57,10.57S113.44,77.84,113.44,72z"
	/>
<g>
	<path class="st2" d="M98.83,68.98l1.93-0.94h0.19v6.71c0,0.44,0.02,0.72,0.06,0.83s0.11,0.19,0.23,0.25s0.36,0.09,0.71,0.1v0.22
		h-2.99v-0.22c0.37-0.01,0.61-0.04,0.73-0.1s0.2-0.15,0.25-0.27c0.03-0.09,0.05-0.36,0.05-0.83v-4.28c0-0.58-0.02-0.95-0.06-1.12
		c-0.03-0.12-0.08-0.21-0.15-0.27s-0.16-0.09-0.26-0.09c-0.14,0-0.34,0.06-0.6,0.18L98.83,68.98z"/>
	<path class="st2" d="M103.86,72.24c0-0.61,0.07-1.2,0.22-1.76s0.37-1.05,0.67-1.46c0.23-0.31,0.5-0.55,0.8-0.73s0.6-0.26,0.9-0.26
		c0.61,0,1.16,0.31,1.65,0.93c0.61,0.77,0.91,1.82,0.91,3.14c0,0.92-0.13,1.71-0.4,2.36s-0.6,1.12-1.02,1.41s-0.81,0.44-1.19,0.44
		c-0.76,0-1.39-0.45-1.89-1.35C104.07,74.21,103.86,73.3,103.86,72.24z M105.01,72.26c0,1.46,0.19,2.5,0.56,3.11
		c0.23,0.37,0.51,0.55,0.84,0.55c0.21,0,0.43-0.1,0.66-0.29s0.4-0.51,0.52-0.96c0.18-0.67,0.27-1.63,0.27-2.88
		c0-0.89-0.09-1.63-0.28-2.24c-0.14-0.44-0.32-0.76-0.54-0.94c-0.16-0.13-0.35-0.19-0.58-0.19c-0.27,0-0.5,0.12-0.71,0.36
		c-0.28,0.32-0.47,0.83-0.57,1.52S105.01,71.65,105.01,72.26z"/>
</g>
<path class="st0" d="M230.15,72c0-5.84-4.73-10.57-10.57-10.57S209.01,66.16,209.01,72s4.73,10.57,10.57,10.57
	S230.15,77.84,230.15,72z"/>
<g>
	<path class="st2" d="M219.64,74.62l-0.56,1.53h-4.69V75.9c1.61-1.46,2.69-2.64,3.23-3.56c0.35-0.59,0.52-1.15,0.52-1.68
		c0-0.5-0.15-0.92-0.46-1.24s-0.68-0.49-1.11-0.49c-0.39,0-0.74,0.11-1.05,0.34s-0.54,0.56-0.69,1h-0.22
		c0.1-0.72,0.35-1.28,0.76-1.66s0.91-0.58,1.51-0.58c0.64,0,1.18,0.21,1.61,0.62s0.65,0.91,0.65,1.48c0,0.4-0.1,0.8-0.29,1.22
		c-0.29,0.62-0.76,1.29-1.42,2.01c-0.96,1.05-1.56,1.68-1.8,1.9h2.07c0.57,0,0.96-0.05,1.17-0.14s0.39-0.26,0.53-0.5H219.64z"/>
	<path class="st2" d="M220.57,72.24c0-0.61,0.07-1.2,0.22-1.76s0.37-1.05,0.67-1.46c0.23-0.31,0.5-0.55,0.8-0.73s0.6-0.26,0.9-0.26
		c0.61,0,1.16,0.31,1.65,0.93c0.61,0.77,0.91,1.82,0.91,3.14c0,0.92-0.13,1.71-0.4,2.36s-0.6,1.12-1.02,1.41s-0.81,0.44-1.19,0.44
		c-0.76,0-1.39-0.45-1.89-1.35C220.78,74.21,220.57,73.3,220.57,72.24z M221.72,72.26c0,1.46,0.19,2.5,0.56,3.11
		c0.23,0.37,0.51,0.55,0.84,0.55c0.21,0,0.43-0.1,0.66-0.29s0.4-0.51,0.52-0.96c0.18-0.67,0.27-1.63,0.27-2.88
		c0-0.89-0.09-1.63-0.28-2.24c-0.14-0.44-0.32-0.76-0.54-0.94c-0.16-0.13-0.35-0.19-0.58-0.19c-0.27,0-0.5,0.12-0.71,0.36
		c-0.28,0.32-0.47,0.83-0.57,1.52S221.72,71.65,221.72,72.26z"/>
</g>
<path class="st0" d="M291.45,72c0-5.84-4.73-10.57-10.57-10.57S270.3,66.16,270.3,72s4.73,10.57,10.57,10.57S291.45,77.84,291.45,72
	z"/>
<g>
	<path class="st2" d="M276.05,69.72c0.23-0.54,0.51-0.95,0.86-1.24s0.78-0.44,1.29-0.44c0.64,0,1.12,0.21,1.46,0.62
		c0.25,0.31,0.38,0.64,0.38,0.98c0,0.58-0.36,1.18-1.08,1.8c0.49,0.19,0.86,0.47,1.11,0.82s0.38,0.78,0.38,1.26
		c0,0.66-0.2,1.24-0.61,1.74c-0.57,0.7-1.42,1.04-2.55,1.04c-0.51,0-0.87-0.07-1.06-0.2s-0.29-0.28-0.29-0.44
		c0-0.12,0.05-0.22,0.14-0.3s0.21-0.13,0.33-0.13c0.09,0,0.19,0.02,0.29,0.05c0.07,0.02,0.22,0.09,0.45,0.21s0.39,0.2,0.48,0.22
		c0.15,0.04,0.31,0.06,0.47,0.06c0.4,0,0.75-0.15,1.04-0.46s0.44-0.68,0.44-1.11c0-0.27-0.06-0.54-0.17-0.8s-0.23-0.45-0.36-0.57
		c-0.17-0.16-0.4-0.3-0.69-0.43s-0.6-0.19-0.91-0.19h-0.19v-0.18c0.31-0.04,0.62-0.15,0.93-0.33s0.54-0.4,0.68-0.66
		s0.21-0.54,0.21-0.85c0-0.4-0.13-0.73-0.38-0.98s-0.57-0.37-0.95-0.37c-0.6,0-1.11,0.32-1.51,0.97L276.05,69.72z"/>
	<path class="st2" d="M286.82,68.04v0.22c-0.51,0.05-0.93,0.15-1.26,0.31s-0.65,0.39-0.97,0.71s-0.58,0.67-0.79,1.06
		s-0.38,0.85-0.52,1.39c0.28-0.2,0.56-0.34,0.84-0.44s0.56-0.14,0.84-0.14c0.54,0,1.01,0.22,1.41,0.66s0.6,1,0.6,1.7
		c0,0.67-0.22,1.31-0.67,1.91s-1.06,0.91-1.86,0.91c-0.54,0-1.01-0.18-1.39-0.55c-0.74-0.7-1.11-1.61-1.11-2.72
		c0-0.7,0.14-1.37,0.42-2.01s0.69-1.21,1.22-1.71s1.04-0.84,1.52-1.01s0.94-0.26,1.37-0.26H286.82z M283.18,72.14
		c-0.07,0.53-0.11,0.95-0.11,1.24c0,0.67,0.14,1.27,0.43,1.79s0.66,0.79,1.11,0.79c0.34,0,0.64-0.16,0.91-0.48s0.4-0.78,0.4-1.37
		c0-0.66-0.13-1.24-0.4-1.73s-0.64-0.73-1.12-0.73c-0.15,0-0.31,0.03-0.48,0.09S283.51,71.93,283.18,72.14z"/>
</g>
<g>
	<path class="st2" d="M102.89,10.84c-0.63-0.52-1.03-0.93-1.22-1.24s-0.27-0.64-0.27-0.97c0-0.52,0.2-0.96,0.6-1.33
		s0.93-0.56,1.59-0.56c0.64,0,1.16,0.17,1.55,0.52s0.59,0.74,0.59,1.19c0,0.3-0.11,0.6-0.32,0.91s-0.65,0.67-1.32,1.09
		c0.69,0.54,1.14,0.96,1.37,1.25c0.3,0.41,0.45,0.83,0.45,1.27c0,0.56-0.21,1.04-0.64,1.44s-0.98,0.6-1.68,0.6
		c-0.75,0-1.32-0.21-1.7-0.64s-0.57-0.87-0.57-1.32c0-0.36,0.12-0.71,0.36-1.05S102.32,11.25,102.89,10.84z M103.17,11.06
		c-0.32,0.27-0.56,0.57-0.72,0.89s-0.23,0.67-0.23,1.05c0,0.5,0.14,0.91,0.41,1.21s0.63,0.45,1.05,0.45c0.42,0,0.76-0.12,1.01-0.36
		s0.38-0.53,0.38-0.87c0-0.28-0.07-0.53-0.22-0.75C104.57,12.27,104.01,11.73,103.17,11.06z M103.81,10.21
		c0.47-0.42,0.77-0.75,0.89-1s0.19-0.52,0.19-0.83c0-0.41-0.12-0.73-0.35-0.96S104,7.07,103.6,7.07s-0.72,0.12-0.97,0.35
		s-0.38,0.5-0.38,0.81c0,0.2,0.05,0.41,0.16,0.61s0.25,0.4,0.44,0.58L103.81,10.21z"/>
</g>
<path class="st1" d="M230.15,10.77c0-5.84-4.73-10.57-10.57-10.57s-10.57,4.73-10.57,10.57c0,5.84,4.73,10.57,10.57,10.57
	S230.15,16.61,230.15,10.77z"/>
<g>
	<path class="st2" d="M219.64,13.35l-0.56,1.53h-4.69v-0.25c1.61-1.46,2.69-2.64,3.23-3.56c0.35-0.59,0.52-1.15,0.52-1.68
		c0-0.5-0.15-0.92-0.46-1.24c-0.31-0.32-0.68-0.49-1.11-0.49c-0.39,0-0.74,0.11-1.05,0.34c-0.31,0.23-0.54,0.56-0.69,1h-0.22
		c0.1-0.72,0.35-1.28,0.76-1.66s0.91-0.58,1.51-0.58c0.64,0,1.18,0.21,1.61,0.62s0.65,0.91,0.65,1.48c0,0.4-0.1,0.8-0.29,1.22
		c-0.29,0.62-0.76,1.29-1.42,2.01c-0.96,1.05-1.56,1.68-1.8,1.9h2.07c0.57,0,0.96-0.05,1.17-0.14s0.39-0.26,0.53-0.5H219.64z"/>
	<path class="st2" d="M225.34,6.93l-0.46,1h-2.38l-0.52,1.07c1.03,0.15,1.83,0.51,2.39,1.09s0.85,1.23,0.85,1.95
		c0,0.51-0.14,1.01-0.42,1.48s-0.67,0.85-1.18,1.12s-1.02,0.41-1.55,0.41c-0.47,0-0.81-0.08-1.03-0.25s-0.33-0.34-0.33-0.54
		c0-0.12,0.04-0.22,0.13-0.3s0.2-0.13,0.34-0.13c0.1,0,0.19,0.02,0.27,0.05s0.21,0.11,0.39,0.24c0.29,0.2,0.59,0.3,0.88,0.3
		c0.46,0,0.86-0.17,1.21-0.52s0.52-0.77,0.52-1.26c0-0.39-0.09-0.75-0.28-1.08s-0.44-0.6-0.76-0.83s-0.66-0.4-1.02-0.51
		s-0.83-0.17-1.42-0.2l1.52-3.09H225.34z"/>
</g>
<path class="st1" d="M21.35,72c0-5.84-4.73-10.57-10.57-10.57S0.2,66.16,0.2,72c0,5.84,4.73,10.57,10.57,10.57S21.35,77.84,21.35,72
	z"/>
<g>
	<path class="st2" d="M13.63,75.37l-0.56,1.53H8.39v-0.25c1.61-1.46,2.69-2.64,3.23-3.56c0.35-0.59,0.52-1.15,0.52-1.68
		c0-0.5-0.15-0.92-0.46-1.24s-0.68-0.49-1.11-0.49c-0.39,0-0.74,0.11-1.05,0.34s-0.54,0.56-0.69,1H8.62
		c0.1-0.72,0.35-1.28,0.76-1.66s0.91-0.58,1.51-0.58c0.64,0,1.18,0.21,1.61,0.62s0.65,0.91,0.65,1.48c0,0.4-0.1,0.8-0.29,1.22
		c-0.29,0.62-0.76,1.29-1.42,2.01c-0.96,1.05-1.56,1.68-1.8,1.9h2.07c0.57,0,0.96-0.05,1.17-0.14s0.39-0.26,0.53-0.5H13.63z"/>
</g>
<path class="st1" d="M82.66,72c0-5.84-4.73-10.57-10.57-10.57S61.51,66.16,61.51,72c0,5.84,4.73,10.57,10.57,10.57
	S82.66,77.84,82.66,72z"/>
<g>
	<path class="st2" d="M74.83,68.79v0.22c-0.51,0.05-0.93,0.15-1.26,0.31s-0.65,0.39-0.97,0.71s-0.58,0.67-0.79,1.06
		s-0.38,0.85-0.52,1.39c0.28-0.2,0.56-0.34,0.84-0.44s0.56-0.14,0.84-0.14c0.54,0,1.01,0.22,1.41,0.66s0.6,1,0.6,1.7
		c0,0.67-0.22,1.31-0.67,1.91s-1.06,0.91-1.86,0.91c-0.54,0-1.01-0.18-1.39-0.55c-0.74-0.7-1.11-1.61-1.11-2.72
		c0-0.7,0.14-1.37,0.42-2.01s0.69-1.21,1.22-1.71s1.04-0.84,1.52-1.01s0.94-0.26,1.37-0.26H74.83z M71.19,72.89
		c-0.07,0.53-0.11,0.95-0.11,1.24c0,0.67,0.14,1.27,0.43,1.79s0.66,0.79,1.11,0.79c0.34,0,0.64-0.16,0.91-0.48s0.4-0.78,0.4-1.37
		c0-0.66-0.13-1.24-0.4-1.73s-0.64-0.73-1.12-0.73c-0.15,0-0.31,0.03-0.48,0.09S71.52,72.68,71.19,72.89z"/>
</g>
<path class="st1" d="M153.51,72.07c0-5.84-4.73-10.57-10.57-10.57s-10.57,4.73-10.57,10.57c0,5.84,4.73,10.57,10.57,10.57
	S153.51,77.91,153.51,72.07z"/>
<g>
	<path class="st2" d="M138.21,69.05l1.93-0.94h0.19v6.71c0,0.44,0.02,0.72,0.06,0.83s0.11,0.19,0.23,0.25s0.36,0.09,0.71,0.1v0.22
		h-2.99V76c0.37-0.01,0.61-0.04,0.73-0.1s0.2-0.15,0.25-0.27c0.03-0.09,0.05-0.36,0.05-0.83v-4.28c0-0.58-0.02-0.95-0.06-1.12
		c-0.03-0.12-0.08-0.21-0.15-0.27s-0.16-0.09-0.26-0.09c-0.14,0-0.34,0.06-0.6,0.18L138.21,69.05z"/>
	<path class="st2" d="M148.31,74.69l-0.56,1.53h-4.69v-0.25c1.61-1.46,2.69-2.64,3.23-3.56c0.35-0.59,0.52-1.15,0.52-1.68
		c0-0.5-0.15-0.92-0.46-1.24s-0.68-0.49-1.11-0.49c-0.39,0-0.74,0.11-1.05,0.34s-0.54,0.56-0.69,1h-0.22
		c0.1-0.72,0.35-1.28,0.76-1.66s0.91-0.58,1.51-0.58c0.64,0,1.18,0.21,1.61,0.62s0.65,0.91,0.65,1.48c0,0.4-0.1,0.8-0.29,1.22
		c-0.29,0.62-0.76,1.29-1.42,2.01c-0.96,1.05-1.56,1.68-1.8,1.9h2.07c0.57,0,0.96-0.05,1.17-0.14s0.39-0.26,0.53-0.5H148.31z"/>
</g>
<path class="st1" d="M190.09,72c0-5.84-4.73-10.57-10.57-10.57S168.94,66.16,168.94,72c0,5.84,4.73,10.57,10.57,10.57
	S190.09,77.84,190.09,72z"/>
<g>
	<path class="st2" d="M174.54,68.48l1.93-0.94h0.19v6.71c0,0.44,0.02,0.72,0.06,0.83s0.11,0.19,0.23,0.25s0.36,0.09,0.71,0.1v0.22
		h-2.99v-0.22c0.37-0.01,0.61-0.04,0.73-0.1s0.2-0.15,0.25-0.27c0.03-0.09,0.05-0.36,0.05-0.83v-4.28c0-0.58-0.02-0.95-0.06-1.12
		c-0.03-0.12-0.08-0.21-0.15-0.27s-0.16-0.09-0.26-0.09c-0.14,0-0.34,0.06-0.6,0.18L174.54,68.48z"/>
	<path class="st2" d="M181.44,71.65c-0.63-0.52-1.03-0.93-1.22-1.24s-0.27-0.64-0.27-0.97c0-0.52,0.2-0.96,0.6-1.33
		s0.93-0.56,1.59-0.56c0.64,0,1.16,0.17,1.55,0.52s0.59,0.74,0.59,1.19c0,0.3-0.11,0.6-0.32,0.91s-0.65,0.67-1.32,1.09
		c0.69,0.54,1.14,0.96,1.37,1.25c0.3,0.41,0.45,0.83,0.45,1.27c0,0.56-0.21,1.04-0.64,1.44s-0.98,0.6-1.68,0.6
		c-0.75,0-1.32-0.21-1.7-0.64s-0.57-0.87-0.57-1.32c0-0.36,0.12-0.71,0.36-1.05S180.86,72.07,181.44,71.65z M181.71,71.87
		c-0.32,0.27-0.56,0.57-0.72,0.89s-0.23,0.67-0.23,1.05c0,0.5,0.14,0.91,0.41,1.21s0.63,0.45,1.05,0.45c0.42,0,0.76-0.12,1.01-0.36
		s0.38-0.53,0.38-0.87c0-0.28-0.07-0.53-0.22-0.75C183.12,73.08,182.56,72.54,181.71,71.87z M182.36,71.02
		c0.47-0.42,0.77-0.75,0.89-1s0.19-0.52,0.19-0.83c0-0.41-0.12-0.73-0.35-0.96s-0.54-0.35-0.94-0.35s-0.72,0.12-0.97,0.35
		s-0.38,0.5-0.38,0.81c0,0.2,0.05,0.41,0.16,0.61s0.25,0.4,0.44,0.58L182.36,71.02z"/>
</g>
<g>
	<path class="st3" d="M182.41,13.44"/>
</g>
<g>
	<g>
		<g>
			<polygon class="st4" points="152.16,10.14 116.92,10.14 116.92,7.57 116.59,7.62 113.44,10.77 116.59,13.92 116.92,13.98 
				116.92,11.41 152.16,11.41 			"/>
		</g>
	</g>
</g>
<g>
	<g>
		<g>
			<polygon class="st4" points="102.23,21.34 102.23,57.93 99.66,57.93 99.72,58.28 102.87,61.43 106.02,58.28 106.07,57.93 
				103.5,57.93 103.5,21.34 			"/>
		</g>
	</g>
</g>
<g>
	<g>
		<g>
			<polygon class="st4" points="171.73,11.25 205.54,11.25 205.54,13.82 205.86,13.77 209.01,10.62 205.86,7.47 205.54,7.41 
				205.54,9.98 171.73,9.98 			"/>
		</g>
	</g>
</g>
<g>
	<g>
		<g>
			<polygon class="st4" points="218.95,21.19 218.95,57.78 216.38,57.78 216.43,58.12 219.58,61.27 222.73,58.12 222.79,57.78 
				220.22,57.78 220.22,21.19 			"/>
		</g>
	</g>
</g>
<g>
	<g>
		<g>
			<polygon class="st4" points="229.71,11.15 277.75,59.2 275.94,61.02 276.43,61.43 280.88,61.43 280.88,56.97 280.47,56.48 
				278.65,58.3 230.6,10.25 			"/>
		</g>
	</g>
</g>
<g>
	<g>
		<g>
			<polygon class="st4" points="91.58,10.32 43.53,58.37 41.71,56.55 41.3,57.04 41.3,61.5 45.75,61.5 46.24,61.09 44.42,59.27 
				92.47,11.22 			"/>
		</g>
	</g>
</g>
<g>
	<g>
		<g>
			<polygon class="st4" points="31.31,71.36 24.56,71.36 24.56,68.79 24.5,68.85 21.35,72 24.5,75.15 24.56,75.2 24.56,72.63 
				31.31,72.63 			"/>
		</g>
	</g>
</g>
<g>
	<g>
		<g>
			<polygon class="st4" points="51.84,72.7 58.59,72.7 58.59,75.27 58.65,75.22 61.8,72.07 58.65,68.92 58.59,68.86 58.59,71.43 
				51.84,71.43 			"/>
		</g>
	</g>
</g>
<g>
	<g>
		<g>
			<polygon class="st4" points="113.44,72.7 129.06,72.7 129.06,75.27 129.21,75.22 132.36,72.07 129.21,68.92 129.06,68.86 
				129.06,71.43 113.44,71.43 			"/>
		</g>
	</g>
</g>
<g>
	<g>
		<g>
			<polygon class="st4" points="95.51,79.54 82.23,92.81 80.42,90.99 80.33,91.16 80.33,95.61 84.79,95.61 84.95,95.53 83.13,93.71 
				96.41,80.43 			"/>
		</g>
	</g>
</g>
<path class="st1" d="M90.91,106.19c0-5.84-4.73-10.57-10.57-10.57s-10.57,4.73-10.57,10.57c0,5.84,4.73,10.57,10.57,10.57
	S90.91,112.02,90.91,106.19z"/>
<g>
	<path class="st2" d="M78.19,110.5v-0.22c0.51-0.01,0.98-0.13,1.42-0.35s0.86-0.63,1.27-1.2s0.69-1.2,0.85-1.88
		c-0.3,0.2-0.6,0.34-0.87,0.44s-0.54,0.15-0.79,0.15c-0.56,0-1.04-0.22-1.44-0.65s-0.6-1.01-0.6-1.72c0-0.82,0.25-1.5,0.74-2.04
		s1.07-0.81,1.74-0.81c0.65,0,1.21,0.27,1.67,0.81c0.57,0.67,0.86,1.49,0.86,2.47c0,0.88-0.22,1.71-0.65,2.47s-1.03,1.4-1.81,1.9
		c-0.63,0.41-1.32,0.62-2.06,0.62H78.19z M81.82,106.42c0.07-0.51,0.11-0.91,0.11-1.2c0-0.39-0.06-0.81-0.19-1.25
		s-0.31-0.78-0.55-1.01s-0.51-0.35-0.8-0.35c-0.35,0-0.65,0.16-0.91,0.47s-0.39,0.78-0.39,1.4c0,0.82,0.18,1.46,0.53,1.93
		c0.25,0.34,0.56,0.5,0.93,0.5c0.18,0,0.39-0.04,0.64-0.13S81.63,106.57,81.82,106.42z"/>
</g>
<g>
	<g>
		<g>
			<polygon class="st4" points="280.43,79.54 267.15,92.81 265.34,90.99 265.25,91.16 265.25,95.61 269.7,95.61 269.87,95.53 
				268.05,93.71 281.33,80.43 			"/>
		</g>
	</g>
</g>
<path class="st1" d="M275.83,106.19c0-5.84-4.73-10.57-10.57-10.57s-10.57,4.73-10.57,10.57c0,5.84,4.73,10.57,10.57,10.57
	S275.83,112.02,275.83,106.19z"/>
<g>
	<path class="st2" d="M265.48,108.81l-0.56,1.53h-4.69v-0.25c1.61-1.46,2.69-2.64,3.23-3.56c0.35-0.59,0.52-1.15,0.52-1.68
		c0-0.5-0.15-0.92-0.46-1.24s-0.68-0.49-1.11-0.49c-0.39,0-0.74,0.11-1.05,0.34s-0.54,0.56-0.69,1h-0.22
		c0.1-0.72,0.35-1.28,0.76-1.66s0.91-0.58,1.51-0.58c0.64,0,1.18,0.21,1.61,0.62s0.65,0.91,0.65,1.48c0,0.4-0.1,0.8-0.29,1.22
		c-0.29,0.62-0.76,1.29-1.42,2.01c-0.96,1.05-1.56,1.68-1.8,1.9h2.07c0.57,0,0.96-0.05,1.17-0.14s0.39-0.26,0.53-0.5H265.48z"/>
	<path class="st2" d="M268.28,106.33c-0.63-0.52-1.03-0.93-1.22-1.24s-0.27-0.64-0.27-0.97c0-0.52,0.2-0.96,0.6-1.33
		s0.93-0.56,1.59-0.56c0.64,0,1.16,0.17,1.55,0.52s0.59,0.74,0.59,1.19c0,0.3-0.11,0.6-0.32,0.91s-0.65,0.67-1.32,1.09
		c0.69,0.54,1.14,0.96,1.37,1.25c0.3,0.41,0.45,0.83,0.45,1.27c0,0.56-0.21,1.04-0.64,1.44s-0.98,0.6-1.68,0.6
		c-0.75,0-1.32-0.21-1.7-0.64s-0.57-0.87-0.57-1.32c0-0.36,0.12-0.71,0.36-1.05S267.7,106.75,268.28,106.33z M268.55,106.56
		c-0.32,0.27-0.56,0.57-0.72,0.89s-0.23,0.67-0.23,1.05c0,0.5,0.14,0.91,0.41,1.21s0.63,0.45,1.05,0.45c0.42,0,0.76-0.12,1.01-0.36
		s0.38-0.53,0.38-0.87c0-0.28-0.07-0.53-0.22-0.75C269.96,107.77,269.4,107.23,268.55,106.56z M269.2,105.71
		c0.47-0.42,0.77-0.75,0.89-1s0.19-0.52,0.19-0.83c0-0.41-0.12-0.73-0.35-0.96s-0.54-0.35-0.94-0.35s-0.72,0.12-0.97,0.35
		s-0.38,0.5-0.38,0.81c0,0.2,0.05,0.41,0.16,0.61s0.25,0.4,0.44,0.58L269.2,105.71z"/>
</g>
<g>
	<g>
		<g>
			<polygon class="st4" points="219.13,81.53 232.41,94.81 230.59,96.62 230.75,96.71 235.21,96.71 235.21,92.25 235.12,92.09 
				233.31,93.91 220.03,80.63 			"/>
		</g>
	</g>
</g>
<path class="st1" d="M235.21,117.85c5.84,0,10.57-4.73,10.57-10.57c0-5.84-4.73-10.57-10.57-10.57s-10.57,4.73-10.57,10.57
	C224.63,113.12,229.37,117.85,235.21,117.85z"/>
<g>
</g>
<g>
</g>
<g>
</g>
<g>
	<path class="st2" d="M235.32,109.9l-0.56,1.53h-4.69v-0.25c1.61-1.46,2.69-2.64,3.23-3.56c0.35-0.59,0.52-1.15,0.52-1.68
		c0-0.5-0.15-0.92-0.46-1.24s-0.68-0.49-1.11-0.49c-0.39,0-0.74,0.11-1.05,0.34s-0.54,0.56-0.69,1h-0.22
		c0.1-0.72,0.35-1.28,0.76-1.66s0.91-0.58,1.51-0.58c0.64,0,1.18,0.21,1.61,0.62s0.65,0.91,0.65,1.48c0,0.4-0.1,0.8-0.29,1.22
		c-0.29,0.62-0.76,1.29-1.42,2.01c-0.96,1.05-1.56,1.68-1.8,1.9h2.07c0.57,0,0.96-0.05,1.17-0.14s0.39-0.26,0.53-0.5H235.32z"/>
	<path class="st2" d="M241.32,109.9l-0.56,1.53h-4.69v-0.25c1.61-1.46,2.69-2.64,3.23-3.56c0.35-0.59,0.52-1.15,0.52-1.68
		c0-0.5-0.15-0.92-0.46-1.24s-0.68-0.49-1.11-0.49c-0.39,0-0.74,0.11-1.05,0.34s-0.54,0.56-0.69,1h-0.22
		c0.1-0.72,0.35-1.28,0.76-1.66s0.91-0.58,1.51-0.58c0.64,0,1.18,0.21,1.61,0.62s0.65,0.91,0.65,1.48c0,0.4-0.1,0.8-0.29,1.22
		c-0.29,0.62-0.76,1.29-1.42,2.01c-0.96,1.05-1.56,1.68-1.8,1.9h2.07c0.57,0,0.96-0.05,1.17-0.14s0.39-0.26,0.53-0.5H241.32z"/>
</g>
<g>
	<g>
		<g>
			<polygon class="st4" points="282.76,80.43 296.04,93.71 294.22,95.53 294.38,95.61 298.84,95.61 298.84,91.16 298.75,90.99 
				296.93,92.81 283.66,79.54 			"/>
		</g>
	</g>
</g>
<path class="st1" d="M298.84,116.76c5.84,0,10.57-4.73,10.57-10.57c0-5.84-4.73-10.57-10.57-10.57s-10.57,4.73-10.57,10.57
	C288.26,112.02,293,116.76,298.84,116.76z"/>
<g>
</g>
<g>
</g>
<g>
</g>
<g>
	<path class="st2" d="M299.03,107.41v0.83h-1.07v2.1h-0.97v-2.1h-3.36v-0.75l3.69-5.26h0.64v5.18H299.03z M296.99,107.41v-3.94
		l-2.79,3.94H296.99z"/>
	<path class="st2" d="M299.88,106.43c0-0.61,0.07-1.2,0.22-1.76s0.37-1.05,0.67-1.46c0.23-0.31,0.5-0.55,0.8-0.73s0.6-0.26,0.9-0.26
		c0.61,0,1.16,0.31,1.65,0.93c0.61,0.77,0.91,1.82,0.91,3.14c0,0.92-0.13,1.71-0.4,2.36s-0.6,1.12-1.02,1.41s-0.81,0.44-1.19,0.44
		c-0.76,0-1.39-0.45-1.89-1.35C300.09,108.4,299.88,107.49,299.88,106.43z M301.03,106.45c0,1.46,0.19,2.5,0.56,3.11
		c0.23,0.37,0.51,0.55,0.84,0.55c0.21,0,0.43-0.1,0.66-0.29s0.4-0.51,0.52-0.96c0.18-0.67,0.27-1.63,0.27-2.88
		c0-0.89-0.09-1.63-0.28-2.24c-0.14-0.44-0.32-0.76-0.54-0.94c-0.16-0.13-0.35-0.19-0.58-0.19c-0.27,0-0.5,0.12-0.71,0.36
		c-0.28,0.32-0.47,0.83-0.57,1.52S301.03,105.83,301.03,106.45z"/>
</g>
<g>
	<g>
		<g>
			<polygon class="st4" points="209.01,71.43 193.38,71.43 193.38,68.86 193.24,68.92 190.09,72.07 193.24,75.22 193.38,75.27 
				193.38,72.7 209.01,72.7 			"/>
		</g>
	</g>
</g>
<g>
</g>
<g>
</g>
<g>
</g>
<g>
</g>
<g>
</g>
<g>
</g>
</svg>
