<?xml version="1.0" encoding="UTF-8"?>
<!DOCTYPE svg PUBLIC "-//W3C//DTD SVG 1.1//EN" "http://www.w3.org/Graphics/SVG/1.1/DTD/svg11.dtd">
<svg xmlns="http://www.w3.org/2000/svg" xmlns:xlink="http://www.w3.org/1999/xlink" version="1.1" width="562px"
	height="189px" viewBox="-0.5 -0.5 562 189" style="background-color: rgb(255, 255, 255);">
	<defs>
		<style>
			text {
				font-family: sans-serif;
				text-anchor: middle;
				font-size: 12px;
				fill: rgb(0, 0, 0);
			}

			path,
			rect {
				stroke: rgb(0, 0, 0);
			}
		</style>
	</defs>
	<g>
		<rect x="230" y="0" width="40" height="20" fill="rgb(255, 255, 255)" />
		<text x="249.5" y="14.5">13</text>
		<rect x="230" y="20" width="20" height="10" fill="rgb(255, 255, 255)" />
		<rect x="250" y="20" width="20" height="10" fill="rgb(255, 255, 255)" />
		<rect x="90" y="60" width="30" height="20" fill="rgb(255, 255, 255)" />
		<text x="104.5" y="74.5">4</text>
		<rect x="90" y="80" width="20" height="10" fill="rgb(255, 255, 255)" />
		<rect x="110" y="80" width="20" height="10" fill="rgb(255, 255, 255)" />
		<rect x="120" y="60" width="30" height="20" fill="rgb(255, 255, 255)" />
		<text x="134.5" y="74.5">7</text>
		<rect x="130" y="80" width="20" height="10" fill="rgb(255, 255, 255)" />
		<rect x="360" y="60" width="30" height="20" fill="rgb(255, 255, 255)" />
		<text x="374.5" y="74.5">17</text>
		<rect x="360" y="80" width="20" height="10" fill="rgb(255, 255, 255)" />
		<rect x="380" y="80" width="20" height="10" fill="rgb(255, 255, 255)" />
		<rect x="390" y="60" width="30" height="20" fill="#cccccc" />
		<text x="404.5" y="74.5">20</text>
		<rect x="400" y="80" width="20" height="10" fill="rgb(255, 255, 255)" />
		<rect x="280" y="150" width="30" height="20" fill="rgb(255, 255, 255)" />
		<text x="294.5" y="164.5">14</text>
		<rect x="280" y="170" width="20" height="10" fill="rgb(255, 255, 255)" />
		<rect x="300" y="170" width="20" height="10" fill="rgb(255, 255, 255)" />
		<rect x="310" y="150" width="30" height="20" fill="rgb(255, 255, 255)" />
		<text x="324.5" y="164.5">16</text>
		<rect x="320" y="170" width="20" height="10" fill="rgb(255, 255, 255)" />
		<rect x="80" y="150" width="30" height="20" fill="#cccccc" />
		<text x="94.5" y="164.5">5</text>
		<rect x="80" y="170" width="20" height="10" fill="rgb(255, 255, 255)" />
		<rect x="100" y="170" width="20" height="10" fill="rgb(255, 255, 255)" />
		<rect x="110" y="150" width="30" height="20" fill="rgb(255, 255, 255)" />
		<text x="124.5" y="164.5">6</text>
		<rect x="120" y="170" width="20" height="10" fill="rgb(255, 255, 255)" />
		<rect x="0" y="150" width="30" height="20" fill="rgb(255, 255, 255)" />
		<text x="14.5" y="164.5">1</text>
		<rect x="0" y="170" width="20" height="10" fill="rgb(255, 255, 255)" />
		<rect x="20" y="170" width="20" height="10" fill="rgb(255, 255, 255)" />
		<rect x="30" y="150" width="30" height="20" fill="rgb(255, 255, 255)" />
		<text x="44.5" y="164.5">3</text>
		<rect x="40" y="170" width="20" height="10" fill="rgb(255, 255, 255)" />
		<rect x="160" y="150" width="30" height="20" fill="#cccccc" />
		<text x="174.5" y="164.5">8</text>
		<rect x="160" y="170" width="20" height="10" fill="rgb(255, 255, 255)" />
		<rect x="180" y="170" width="25" height="10" fill="rgb(255, 255, 255)" />
		<rect x="190" y="150" width="30" height="20" fill="rgb(255, 255, 255)" />
		<text x="204.5" y="164.5">11</text>
		<rect x="205" y="170" width="25" height="10" fill="rgb(255, 255, 255)" />
		<rect x="220" y="150" width="30" height="20" fill="rgb(255, 255, 255)" />
		<text x="234.5" y="164.5">12</text>
		<rect x="230" y="170" width="20" height="10" fill="rgb(255, 255, 255)" />
		<rect x="360" y="150" width="30" height="20" fill="#cccccc" />
		<text x="374.5" y="164.5">18</text>
		<rect x="360" y="170" width="20" height="10" fill="rgb(255, 255, 255)" />
		<rect x="380" y="170" width="20" height="10" fill="rgb(255, 255, 255)" />
		<rect x="390" y="150" width="30" height="20" fill="rgb(255, 255, 255)" />
		<text x="404.5" y="164.5">19</text>
		<rect x="400" y="170" width="20" height="10" fill="rgb(255, 255, 255)" />
		<rect x="440" y="150" width="30" height="20" fill="rgb(255, 255, 255)" />
		<text x="454.5" y="164.5">23</text>
		<rect x="440" y="170" width="20" height="10" fill="rgb(255, 255, 255)" />
		<rect x="460" y="170" width="25" height="10" fill="rgb(255, 255, 255)" />
		<rect x="470" y="150" width="30" height="20" fill="rgb(255, 255, 255)" />
		<text x="484.5" y="164.5">24</text>
		<rect x="485" y="170" width="30" height="10" fill="rgb(255, 255, 255)" />
		<rect x="500" y="150" width="30" height="20" fill="rgb(255, 255, 255)" />
		<text x="514.5" y="164.5">25</text>
		<rect x="515" y="170" width="25" height="10" fill="rgb(255, 255, 255)" />
		<rect x="530" y="150" width="30" height="20" fill="rgb(255, 255, 255)" />
		<text x="544.5" y="164.5">26</text>
		<rect x="540" y="170" width="20" height="10" fill="rgb(255, 255, 255)" />
		<path d="M 240 30 L 124.97 58.76" fill="none" stroke-miterlimit="10" />
		<path d="M 121.08 59.73 L 124.64 57.47 L 125.29 60.05 Z" fill="rgb(0, 0, 0)" stroke-miterlimit="10" />
		<path d="M 260 30 L 385.01 58.85" fill="none" stroke-miterlimit="10" />
		<path d="M 388.91 59.75 L 384.71 60.15 L 385.31 57.55 Z" fill="rgb(0, 0, 0)" stroke-miterlimit="10" />
		<path d="M 94.62 90 L 33.75 146.52" fill="none" stroke-miterlimit="10" />
		<path d="M 30.82 149.24 L 32.84 145.54 L 34.66 147.49 Z" fill="rgb(0, 0, 0)" stroke-miterlimit="10" />
		<path d="M 119.23 90 L 110.78 144.94" fill="none" stroke-miterlimit="10" />
		<path d="M 110.17 148.9 L 109.46 144.74 L 112.1 145.14 Z" fill="rgb(0, 0, 0)" stroke-miterlimit="10" />
		<path d="M 145 90 L 201.38 146.38" fill="none" stroke-miterlimit="10" />
		<path d="M 204.21 149.21 L 200.44 147.32 L 202.32 145.44 Z" fill="rgb(0, 0, 0)" stroke-miterlimit="10" />
		<path d="M 365.38 90 L 313.47 146.24" fill="none" stroke-miterlimit="10" />
		<path d="M 310.76 149.18 L 312.49 145.33 L 314.45 147.14 Z" fill="rgb(0, 0, 0)" stroke-miterlimit="10" />
		<path d="M 390 90 L 390 144.88" fill="none" stroke-miterlimit="10" />
		<path d="M 390 148.88 L 388.67 144.88 L 391.33 144.88 Z" fill="rgb(0, 0, 0)" stroke-miterlimit="10" />
		<path d="M 416.92 90 L 495.85 147" fill="none" stroke-miterlimit="10" />
		<path d="M 499.09 149.35 L 495.07 148.08 L 496.63 145.92 Z" fill="rgb(0, 0, 0)" stroke-miterlimit="10" />
	</g>
</svg>
