<?xml version="1.0" encoding="UTF-8" standalone="no"?>
<!-- Created with Inkscape (http://www.inkscape.org/) -->

<svg
   width="800"
   height="600"
   viewBox="0 0 211.66666 158.75"
   version="1.1"
   id="svg5"
   inkscape:version="1.1 (c4e8f9ed74, 2021-05-24)"
   sodipodi:docname="segt3.svg"
   xmlns:inkscape="http://www.inkscape.org/namespaces/inkscape"
   xmlns:sodipodi="http://sodipodi.sourceforge.net/DTD/sodipodi-0.dtd"
   xmlns="http://www.w3.org/2000/svg"
   xmlns:svg="http://www.w3.org/2000/svg">
  <sodipodi:namedview
     id="namedview7"
     pagecolor="#505050"
     bordercolor="#eeeeee"
     borderopacity="1"
     inkscape:pageshadow="0"
     inkscape:pageopacity="0"
     inkscape:pagecheckerboard="0"
     inkscape:document-units="px"
     showgrid="false"
     inkscape:lockguides="false"
     units="px"
     inkscape:zoom="1"
     inkscape:cx="228.5"
     inkscape:cy="321.5"
     inkscape:window-width="1920"
     inkscape:window-height="1011"
     inkscape:window-x="0"
     inkscape:window-y="0"
     inkscape:window-maximized="1"
     inkscape:current-layer="layer1" />
  <defs
     id="defs2" />
  <g
     inkscape:label="图层 1"
     inkscape:groupmode="layer"
     id="layer1"
     style="display:inline">
    <path
       id="rect246"
       style="fill:#ffffff;stroke:#000000;stroke-width:0.396885"
       d="M 26.656775,26.656775 H 185.00988 V 52.718222 H 26.656775 Z" />
    <g
       aria-label="d[1]=60 t[1]=0"
       id="text25563"
       style="font-size:14.1111px;line-height:1.25;stroke-width:0.264583">
      <path
         d="m 72.763941,33.048308 h -1.171222 v 3.824109 c -0.493888,-0.747889 -1.28411,-1.143 -2.271887,-1.143 -1.91911,0 -3.174997,1.53811 -3.174997,3.894664 0,2.497665 1.213554,4.035775 3.21733,4.035775 1.016,0 1.721555,-0.381 2.356554,-1.298221 V 43.3353 h 1.044222 z m -3.245554,3.781775 c 1.269999,0 2.074332,1.114777 2.074332,2.892776 0,1.707443 -0.818444,2.836331 -2.06022,2.836331 -1.298222,0 -2.158999,-1.142999 -2.158999,-2.864553 0,-1.721555 0.860777,-2.864554 2.144887,-2.864554 z"
         id="path265" />
      <path
         d="m 77.152489,33.048308 h -2.624664 v 13.278546 h 2.624664 v -1.016 H 75.699046 V 34.064308 h 1.453443 z"
         id="path267" />
      <path
         d="M 81.202374,36.068084 V 43.3353 h 1.241777 V 33.132975 h -0.818444 c -0.437444,1.566332 -0.719666,1.777999 -2.638776,2.031998 v 0.903111 z"
         id="path269" />
      <path
         d="m 85.717923,46.326854 h 2.624665 V 33.048308 h -2.624665 v 1.016 h 1.453443 v 11.246546 h -1.453443 z"
         id="path271" />
      <path
         d="m 96.851579,38.354082 h -6.829772 v 0.987777 h 6.829772 z m 0,2.427109 h -6.829772 v 0.987777 h 6.829772 z"
         id="path273" />
      <path
         d="m 104.58446,35.785862 c -0.23989,-1.66511 -1.31234,-2.652887 -2.83633,-2.652887 -1.10067,0 -2.088447,0.536222 -2.681113,1.453443 -0.635,1.001888 -0.903111,2.243665 -0.903111,4.092219 0,1.721555 0.239889,2.808109 0.846666,3.71122 0.536222,0.832555 1.411108,1.269999 2.511778,1.269999 1.905,0 3.27377,-1.425221 3.27377,-3.414886 0,-1.876777 -1.27,-3.20322 -3.06211,-3.20322 -0.98777,0 -1.763883,0.366888 -2.300105,1.114777 0.01411,-2.525887 0.804335,-3.922886 2.229555,-3.922886 0.87489,0 1.48166,0.564444 1.67922,1.552221 z m -3.00567,2.356554 c 1.19945,0 1.94733,0.846666 1.94733,2.201331 0,1.28411 -0.84666,2.215443 -1.98966,2.215443 -1.15711,0 -2.031999,-0.973666 -2.031999,-2.271887 0,-1.269999 0.846669,-2.144887 2.074329,-2.144887 z"
         id="path275" />
      <path
         d="m 109.28345,33.132975 c -0.93133,0 -1.778,0.423333 -2.30011,1.114777 -0.64911,0.90311 -0.97367,2.257776 -0.97367,4.148663 0,3.443109 1.12889,5.263441 3.27378,5.263441 2.11666,0 3.27377,-1.820332 3.27377,-5.178774 0,-1.975554 -0.31044,-3.301997 -0.97366,-4.23333 -0.52211,-0.705555 -1.35467,-1.114777 -2.30011,-1.114777 z m 0,1.100666 c 1.34055,0 2.00378,1.368777 2.00378,4.134552 0,2.906887 -0.64911,4.261552 -2.032,4.261552 -1.31234,0 -1.97556,-1.41111 -1.97556,-4.219219 0,-2.808108 0.66322,-4.176885 2.00378,-4.176885 z"
         id="path277" />
      <path
         d="m 120.75577,35.941084 h -1.21355 v -2.031998 h -1.17123 v 2.031998 h -1.00188 v 0.959555 h 1.00188 v 5.587995 c 0,0.762 0.508,1.171222 1.42523,1.171222 0.31044,0 0.56444,-0.02822 0.95955,-0.09878 v -0.987777 c -0.16933,0.04233 -0.32456,0.05644 -0.56444,0.05644 -0.508,0 -0.64911,-0.141111 -0.64911,-0.663221 v -5.065885 h 1.21355 z"
         id="path279" />
      <path
         d="m 124.62221,33.048308 h -2.62467 v 13.278546 h 2.62467 v -1.016 h -1.45345 V 34.064308 h 1.45345 z"
         id="path281" />
      <path
         d="M 128.67209,36.068084 V 43.3353 h 1.24178 V 33.132975 h -0.81844 c -0.43745,1.566332 -0.71967,1.777999 -2.63878,2.031998 v 0.903111 z"
         id="path283" />
      <path
         d="m 133.18764,46.326854 h 2.62466 V 33.048308 h -2.62466 v 1.016 h 1.45344 v 11.246546 h -1.45344 z"
         id="path285" />
      <path
         d="m 144.3213,38.354082 h -6.82977 v 0.987777 h 6.82977 z m 0,2.427109 h -6.82977 v 0.987777 h 6.82977 z"
         id="path287" />
      <path
         d="m 148.9074,33.132975 c -0.93133,0 -1.778,0.423333 -2.30011,1.114777 -0.64911,0.90311 -0.97366,2.257776 -0.97366,4.148663 0,3.443109 1.12888,5.263441 3.27377,5.263441 2.11667,0 3.27378,-1.820332 3.27378,-5.178774 0,-1.975554 -0.31045,-3.301997 -0.97367,-4.23333 -0.52211,-0.705555 -1.35467,-1.114777 -2.30011,-1.114777 z m 0,1.100666 c 1.34055,0 2.00378,1.368777 2.00378,4.134552 0,2.906887 -0.64911,4.261552 -2.032,4.261552 -1.31233,0 -1.97556,-1.41111 -1.97556,-4.219219 0,-2.808108 0.66323,-4.176885 2.00378,-4.176885 z"
         id="path289" />
    </g>
    <path
       id="rect36263"
       style="fill:#ffffff;stroke:#000000;stroke-width:0.396888"
       d="M 26.656778,53.115105 H 121.50989 V 79.17655 H 26.656778 Z" />
    <g
       aria-label="d[2]=33 t[2]=0"
       id="text47070"
       style="font-size:11.2889px;line-height:1.25;stroke-width:0.264583">
      <path
         d="m 47.627827,60.833792 h -0.936978 v 3.059292 c -0.395112,-0.598312 -1.02729,-0.914401 -1.817513,-0.914401 -1.535291,0 -2.540003,1.23049 -2.540003,3.115736 0,1.998136 0.970845,3.228626 2.573869,3.228626 0.812801,0 1.377246,-0.3048 1.885247,-1.038579 V 69.0634 h 0.835378 z m -2.596447,3.025425 c 1.016001,0 1.659469,0.891823 1.659469,2.314225 0,1.365957 -0.654757,2.269069 -1.64818,2.269069 -1.038579,0 -1.727202,-0.914401 -1.727202,-2.291647 0,-1.377246 0.688623,-2.291647 1.715913,-2.291647 z"
         id="path237" />
      <path
         d="m 51.138672,60.833792 h -2.099735 v 10.622855 h 2.099735 v -0.812801 h -1.162756 v -8.997253 h 1.162756 z"
         id="path239" />
      <path
         d="m 57.166943,68.081266 h -4.21076 c 0.1016,-0.677334 0.462845,-1.106312 1.44498,-1.704624 l 1.12889,-0.632178 c 1.117601,-0.62089 1.693335,-1.456269 1.693335,-2.460981 0,-0.677334 -0.270934,-1.309512 -0.745068,-1.749779 -0.474134,-0.428978 -1.061156,-0.632179 -1.817513,-0.632179 -1.016001,0 -1.772357,0.361245 -2.212624,1.061157 -0.282223,0.428978 -0.406401,0.936979 -0.428978,1.761068 h 0.993423 c 0.03387,-0.553156 0.1016,-0.880534 0.237067,-1.151467 0.259644,-0.496712 0.778934,-0.801512 1.377246,-0.801512 0.903112,0 1.580446,0.654756 1.580446,1.53529 0,0.654756 -0.372534,1.219201 -1.083735,1.625602 l -1.038579,0.6096 c -1.670757,0.959557 -2.15618,1.727202 -2.246491,3.510848 h 5.328361 z"
         id="path241" />
      <path
         d="m 57.991031,71.456647 h 2.099735 V 60.833792 h -2.099735 v 0.812801 h 1.162757 v 8.997253 h -1.162757 z"
         id="path243" />
      <path
         d="m 66.89797,65.078418 h -5.463827 v 0.790223 h 5.463827 z m 0,1.941691 h -5.463827 v 0.790223 h 5.463827 z"
         id="path245" />
      <path
         d="m 69.957259,65.304196 h 0.124178 0.417689 c 1.083735,0 1.659468,0.508001 1.659468,1.490135 0,1.02729 -0.620889,1.64818 -1.648179,1.64818 -1.095023,0 -1.625602,-0.553156 -1.693335,-1.74978 h -0.993423 c 0.04516,0.654756 0.158044,1.083735 0.349956,1.444979 0.417689,0.790223 1.196623,1.185335 2.291646,1.185335 1.64818,0 2.709336,-0.993423 2.709336,-2.540003 0,-1.038578 -0.395111,-1.603023 -1.354668,-1.94169 0.745068,-0.304801 1.117602,-0.869246 1.117602,-1.693336 0,-1.399823 -0.914401,-2.246491 -2.438403,-2.246491 -1.614313,0 -2.472269,0.903112 -2.506136,2.630314 h 0.993423 c 0.01129,-0.496712 0.05644,-0.778934 0.180623,-1.02729 0.225778,-0.462845 0.722489,-0.733778 1.343379,-0.733778 0.880534,0 1.411113,0.530578 1.411113,1.411112 0,0.575734 -0.203201,0.92569 -0.643468,1.117601 -0.270933,0.112889 -0.632178,0.158045 -1.320801,0.169334 z"
         id="path247" />
      <path
         d="m 76.233885,65.304196 h 0.124178 0.41769 c 1.083734,0 1.659468,0.508001 1.659468,1.490135 0,1.02729 -0.620889,1.64818 -1.648179,1.64818 -1.095024,0 -1.625602,-0.553156 -1.693335,-1.74978 h -0.993424 c 0.04516,0.654756 0.158045,1.083735 0.349956,1.444979 0.41769,0.790223 1.196624,1.185335 2.291647,1.185335 1.648179,0 2.709336,-0.993423 2.709336,-2.540003 0,-1.038578 -0.395111,-1.603023 -1.354668,-1.94169 0.745067,-0.304801 1.117601,-0.869246 1.117601,-1.693336 0,-1.399823 -0.914401,-2.246491 -2.438402,-2.246491 -1.614313,0 -2.47227,0.903112 -2.506136,2.630314 h 0.993423 c 0.01129,-0.496712 0.05644,-0.778934 0.180622,-1.02729 0.225778,-0.462845 0.72249,-0.733778 1.34338,-0.733778 0.880534,0 1.411112,0.530578 1.411112,1.411112 0,0.575734 -0.2032,0.92569 -0.643467,1.117601 -0.270934,0.112889 -0.632179,0.158045 -1.320802,0.169334 z"
         id="path249" />
      <path
         d="m 86.021357,63.148016 h -0.970845 v -1.625601 h -0.936979 v 1.625601 h -0.801512 v 0.767646 h 0.801512 v 4.470404 c 0,0.609601 0.4064,0.936979 1.140179,0.936979 0.248356,0 0.451556,-0.02258 0.767645,-0.07902 V 68.4538 c -0.135467,0.03387 -0.259645,0.04515 -0.451556,0.04515 -0.4064,0 -0.519289,-0.112889 -0.519289,-0.530578 v -4.052715 h 0.970845 z"
         id="path251" />
      <path
         d="m 89.114515,60.833792 h -2.099736 v 10.622855 h 2.099736 v -0.812801 h -1.162757 v -8.997253 h 1.162757 z"
         id="path253" />
      <path
         d="m 95.142787,68.081266 h -4.21076 c 0.1016,-0.677334 0.462845,-1.106312 1.444979,-1.704624 l 1.12889,-0.632178 c 1.117601,-0.62089 1.693335,-1.456269 1.693335,-2.460981 0,-0.677334 -0.270933,-1.309512 -0.745067,-1.749779 -0.474134,-0.428978 -1.061157,-0.632179 -1.817513,-0.632179 -1.016001,0 -1.772358,0.361245 -2.212625,1.061157 -0.282222,0.428978 -0.4064,0.936979 -0.428978,1.761068 h 0.993423 c 0.03387,-0.553156 0.1016,-0.880534 0.237067,-1.151467 0.259645,-0.496712 0.778934,-0.801512 1.377246,-0.801512 0.903112,0 1.580446,0.654756 1.580446,1.53529 0,0.654756 -0.372534,1.219201 -1.083734,1.625602 l -1.038579,0.6096 c -1.670757,0.959557 -2.15618,1.727202 -2.246491,3.510848 h 5.328361 z"
         id="path255" />
      <path
         d="m 95.966871,71.456647 h 2.099735 V 60.833792 h -2.099735 v 0.812801 h 1.162756 v 8.997253 h -1.162756 z"
         id="path257" />
      <path
         d="m 104.87381,65.078418 h -5.463826 v 0.790223 h 5.463826 z m 0,1.941691 h -5.463826 v 0.790223 h 5.463826 z"
         id="path259" />
      <path
         d="m 108.5427,60.901525 c -0.74506,0 -1.4224,0.338667 -1.84009,0.891823 -0.51929,0.72249 -0.77893,1.806224 -0.77893,3.318937 0,2.754492 0.90311,4.21076 2.61902,4.21076 1.69334,0 2.61903,-1.456268 2.61903,-4.143026 0,-1.580447 -0.24836,-2.641603 -0.77894,-3.386671 -0.41769,-0.564445 -1.08373,-0.891823 -1.84009,-0.891823 z m 0,0.880535 c 1.07245,0 1.60303,1.095023 1.60303,3.307647 0,2.325514 -0.51929,3.409248 -1.6256,3.409248 -1.04987,0 -1.58045,-1.12889 -1.58045,-3.375381 0,-2.246491 0.53058,-3.341514 1.60302,-3.341514 z"
         id="path261" />
    </g>
    <path
       id="rect74176"
       style="fill:#ffffff;stroke:#000000;stroke-width:0.39689"
       d="m 121.90678,53.115108 h 63.1031 v 26.061444 h -63.1031 z" />
    <g
       aria-label="d[3]=37 t[3]=5"
       id="text77196"
       style="font-size:8.46667px;line-height:1.25;stroke-width:0.264583">
      <path
         d="m 130.97086,62.177079 h -0.70273 v 2.294467 c -0.29633,-0.448733 -0.77047,-0.6858 -1.36313,-0.6858 -1.15147,0 -1.90501,0.922867 -1.90501,2.336801 0,1.498601 0.72814,2.421468 1.93041,2.421468 0.6096,0 1.03293,-0.2286 1.41393,-0.778934 v 0.5842 h 0.62653 z m -1.94733,2.269067 c 0.762,0 1.2446,0.668867 1.2446,1.735668 0,1.024467 -0.49107,1.7018 -1.23613,1.7018 -0.77894,0 -1.2954,-0.6858 -1.2954,-1.718734 0,-1.032933 0.51646,-1.718734 1.28693,-1.718734 z"
         id="path209" />
      <path
         d="m 133.604,62.177079 h -1.57481 v 7.967136 h 1.57481 v -0.6096 h -0.87207 v -6.747936 h 0.87207 z"
         id="path211" />
      <path
         d="m 135.7122,65.52988 h 0.0931 0.31327 c 0.8128,0 1.2446,0.381 1.2446,1.117601 0,0.770467 -0.46567,1.236133 -1.23614,1.236133 -0.82126,0 -1.2192,-0.414866 -1.27,-1.312333 H 134.112 c 0.0339,0.491066 0.11853,0.8128 0.26246,1.083733 0.31327,0.592667 0.89747,0.889001 1.71874,0.889001 1.23613,0 2.032,-0.745067 2.032,-1.905001 0,-0.778934 -0.29634,-1.202267 -1.016,-1.456267 0.5588,-0.2286 0.8382,-0.651934 0.8382,-1.270001 0,-1.049867 -0.6858,-1.684867 -1.8288,-1.684867 -1.21074,0 -1.8542,0.677333 -1.8796,1.972734 h 0.74506 c 0.008,-0.372533 0.0423,-0.5842 0.13547,-0.770467 0.16933,-0.347133 0.54187,-0.550334 1.00753,-0.550334 0.6604,0 1.05834,0.397934 1.05834,1.058334 0,0.4318 -0.1524,0.694267 -0.4826,0.838201 -0.2032,0.08467 -0.47414,0.118533 -0.9906,0.127 z"
         id="path213" />
      <path
         d="m 138.74326,70.144215 h 1.5748 v -7.967136 h -1.5748 v 0.6096 h 0.87207 v 6.747936 h -0.87207 z"
         id="path215" />
      <path
         d="m 145.42346,65.360547 h -4.09786 v 0.592667 h 4.09786 z m 0,1.456267 h -4.09786 v 0.592667 h 4.09786 z"
         id="path217" />
      <path
         d="m 147.71793,65.52988 h 0.0931 0.31327 c 0.8128,0 1.2446,0.381 1.2446,1.117601 0,0.770467 -0.46567,1.236133 -1.23613,1.236133 -0.82127,0 -1.21921,-0.414866 -1.27001,-1.312333 h -0.74506 c 0.0339,0.491066 0.11853,0.8128 0.26246,1.083733 0.31327,0.592667 0.89747,0.889001 1.71874,0.889001 1.23613,0 2.032,-0.745067 2.032,-1.905001 0,-0.778934 -0.29633,-1.202267 -1.016,-1.456267 0.5588,-0.2286 0.8382,-0.651934 0.8382,-1.270001 0,-1.049867 -0.6858,-1.684867 -1.8288,-1.684867 -1.21074,0 -1.8542,0.677333 -1.8796,1.972734 h 0.74506 c 0.008,-0.372533 0.0423,-0.5842 0.13547,-0.770467 0.16933,-0.347133 0.54187,-0.550334 1.00754,-0.550334 0.6604,0 1.05833,0.397934 1.05833,1.058334 0,0.4318 -0.1524,0.694267 -0.4826,0.838201 -0.2032,0.08467 -0.47413,0.118533 -0.9906,0.127 z"
         id="path219" />
      <path
         d="m 154.95693,62.346412 h -4.0132 v 0.736601 h 3.24273 c -1.43087,2.040467 -2.01507,3.293534 -2.4638,5.266268 h 0.79587 c 0.3302,-1.921934 1.08373,-3.572934 2.4384,-5.376335 z"
         id="path221" />
      <path
         d="m 159.76599,63.912746 h -0.72813 v -1.2192 h -0.70273 v 1.2192 h -0.60114 v 0.575734 h 0.60114 v 3.352801 c 0,0.4572 0.3048,0.702734 0.85513,0.702734 0.18627,0 0.33867,-0.01693 0.57573,-0.05927 v -0.592667 c -0.1016,0.0254 -0.19473,0.03387 -0.33866,0.03387 -0.3048,0 -0.38947,-0.08467 -0.38947,-0.397934 V 64.48848 h 0.72813 z"
         id="path223" />
      <path
         d="m 162.08586,62.177079 h -1.5748 v 7.967136 h 1.5748 v -0.6096 h -0.87207 v -6.747936 h 0.87207 z"
         id="path225" />
      <path
         d="m 164.19406,65.52988 h 0.0931 0.31327 c 0.8128,0 1.2446,0.381 1.2446,1.117601 0,0.770467 -0.46567,1.236133 -1.23613,1.236133 -0.82127,0 -1.2192,-0.414866 -1.27,-1.312333 h -0.74507 c 0.0339,0.491066 0.11853,0.8128 0.26247,1.083733 0.31326,0.592667 0.89746,0.889001 1.71873,0.889001 1.23613,0 2.032,-0.745067 2.032,-1.905001 0,-0.778934 -0.29633,-1.202267 -1.016,-1.456267 0.5588,-0.2286 0.8382,-0.651934 0.8382,-1.270001 0,-1.049867 -0.6858,-1.684867 -1.8288,-1.684867 -1.21073,0 -1.8542,0.677333 -1.8796,1.972734 h 0.74507 c 0.008,-0.372533 0.0423,-0.5842 0.13546,-0.770467 0.16934,-0.347133 0.54187,-0.550334 1.00754,-0.550334 0.6604,0 1.05833,0.397934 1.05833,1.058334 0,0.4318 -0.1524,0.694267 -0.4826,0.838201 -0.2032,0.08467 -0.47413,0.118533 -0.9906,0.127 z"
         id="path227" />
      <path
         d="m 167.22513,70.144215 h 1.5748 v -7.967136 h -1.5748 v 0.6096 h 0.87206 v 6.747936 h -0.87206 z"
         id="path229" />
      <path
         d="m 173.90533,65.360547 h -4.09787 v 0.592667 h 4.09787 z m 0,1.456267 h -4.09787 v 0.592667 h 4.09787 z"
         id="path231" />
      <path
         d="m 178.35879,62.346412 h -3.0988 l -0.44873,3.268135 h 0.6858 c 0.34713,-0.414867 0.635,-0.5588 1.10913,-0.5588 0.80434,0 1.30387,0.550333 1.30387,1.439334 0,0.8636 -0.49953,1.388533 -1.31233,1.388533 -0.65194,0 -1.04987,-0.3302 -1.22767,-1.007533 h -0.74507 c 0.1016,0.491067 0.18627,0.728133 0.36407,0.948267 0.33867,0.4572 0.94827,0.719667 1.6256,0.719667 1.21073,0 2.0574,-0.880534 2.0574,-2.150534 0,-1.185334 -0.7874,-1.998135 -1.93887,-1.998135 -0.42333,0 -0.762,0.110067 -1.10913,0.364067 l 0.23707,-1.6764 h 2.49766 z"
         id="path233" />
    </g>
    <path
       id="rect106916"
       style="fill:#ffffff;stroke:#000000;stroke-width:0.396906"
       d="M 26.656786,79.573448 H 89.759878 V 105.63488 H 26.656786 Z" />
    <g
       aria-label="d[4]=21 t[4]=0"
       id="text111237"
       style="font-size:8.46667px;line-height:1.25;stroke-width:0.264583">
      <path
         d="m 37.043785,88.620591 h -0.702734 v 2.294467 c -0.296333,-0.448733 -0.770467,-0.6858 -1.363134,-0.6858 -1.151467,0 -1.905,0.922867 -1.905,2.336801 0,1.498601 0.728133,2.421468 1.9304,2.421468 0.609601,0 1.032934,-0.2286 1.413934,-0.778934 v 0.5842 h 0.626534 z m -1.947334,2.269067 c 0.762,0 1.2446,0.668867 1.2446,1.735668 0,1.024467 -0.491067,1.7018 -1.236134,1.7018 -0.778933,0 -1.2954,-0.6858 -1.2954,-1.718734 0,-1.032933 0.516467,-1.718734 1.286934,-1.718734 z"
         id="path181" />
      <path
         d="m 39.676917,88.620591 h -1.5748 v 7.967136 h 1.5748 v -0.6096 H 38.80485 v -6.747936 h 0.872067 z"
         id="path183" />
      <path
         d="m 42.682584,93.311126 v 1.481667 h 0.745067 v -1.481667 h 0.889001 v -0.668867 h -0.889001 v -3.970868 h -0.550333 l -2.726268,3.852335 v 0.7874 z m 0,-0.668867 h -1.8796 l 1.8796,-2.700868 z"
         id="path185" />
      <path
         d="m 44.816183,96.587727 h 1.574801 v -7.967136 h -1.574801 v 0.6096 h 0.872067 v 6.747936 h -0.872067 z"
         id="path187" />
      <path
         d="m 51.496385,91.804059 h -4.097868 v 0.592667 h 4.097868 z m 0,1.456267 h -4.097868 v 0.592667 h 4.097868 z"
         id="path189" />
      <path
         d="m 56.203851,94.056193 h -3.158068 c 0.0762,-0.508 0.347133,-0.829734 1.083734,-1.278467 l 0.846667,-0.474134 c 0.8382,-0.465667 1.27,-1.0922 1.27,-1.845734 0,-0.508 -0.2032,-0.982134 -0.5588,-1.312334 -0.3556,-0.321733 -0.795867,-0.474133 -1.363134,-0.474133 -0.762,0 -1.329267,0.270933 -1.659467,0.795867 -0.211667,0.321733 -0.3048,0.702733 -0.321734,1.3208 h 0.745067 c 0.0254,-0.414866 0.0762,-0.6604 0.1778,-0.8636 0.194734,-0.372533 0.584201,-0.601134 1.032934,-0.601134 0.677334,0 1.185334,0.491067 1.185334,1.151468 0,0.491066 -0.2794,0.9144 -0.8128,1.2192 l -0.778934,0.4572 c -1.253067,0.719667 -1.617134,1.295401 -1.684867,2.633135 h 3.996268 z"
         id="path191" />
      <path
         d="m 58.82005,90.432458 v 4.360335 h 0.745067 V 88.671391 H 59.07405 c -0.262467,0.9398 -0.431801,1.0668 -1.583268,1.2192 v 0.541867 z"
         id="path193" />
      <path
         d="m 65.838915,90.356258 h -0.728133 v -1.2192 h -0.702734 v 1.2192 h -0.601133 v 0.575734 h 0.601133 v 3.352801 c 0,0.4572 0.3048,0.702734 0.855134,0.702734 0.186267,0 0.338667,-0.01693 0.575733,-0.05927 v -0.592667 c -0.1016,0.0254 -0.194733,0.03387 -0.338666,0.03387 -0.304801,0 -0.389467,-0.08467 -0.389467,-0.397934 v -3.039534 h 0.728133 z"
         id="path195" />
      <path
         d="m 68.158782,88.620591 h -1.574801 v 7.967136 h 1.574801 v -0.6096 h -0.872067 v -6.747936 h 0.872067 z"
         id="path197" />
      <path
         d="m 71.164448,93.311126 v 1.481667 h 0.745067 v -1.481667 h 0.889001 v -0.668867 h -0.889001 v -3.970868 h -0.550333 l -2.726268,3.852335 v 0.7874 z m 0,-0.668867 h -1.8796 l 1.8796,-2.700868 z"
         id="path199" />
      <path
         d="m 73.298047,96.587727 h 1.5748 v -7.967136 h -1.5748 v 0.6096 h 0.872067 v 6.747936 h -0.872067 z"
         id="path201" />
      <path
         d="M 79.978248,91.804059 H 75.88038 v 0.592667 h 4.097868 z m 0,1.456267 H 75.88038 v 0.592667 h 4.097868 z"
         id="path203" />
      <path
         d="m 82.729915,88.671391 c -0.5588,0 -1.0668,0.254 -1.380067,0.668867 -0.389467,0.541867 -0.5842,1.354667 -0.5842,2.489201 0,2.065867 0.677333,3.158068 1.964267,3.158068 1.270001,0 1.964268,-1.092201 1.964268,-3.107268 0,-1.185334 -0.186267,-1.981201 -0.584201,-2.540001 -0.313267,-0.423334 -0.8128,-0.668867 -1.380067,-0.668867 z m 0,0.6604 c 0.804334,0 1.202267,0.821267 1.202267,2.480734 0,1.744134 -0.389467,2.556935 -1.2192,2.556935 -0.787401,0 -1.185334,-0.846667 -1.185334,-2.531535 0,-1.684867 0.397933,-2.506134 1.202267,-2.506134 z"
         id="path205" />
    </g>
    <path
       id="rect123273"
       style="fill:#ffffff;stroke:#000000;stroke-width:0.396926"
       d="M 90.156799,79.573463 H 121.50987 V 105.63487 H 90.156799 Z" />
    <g
       aria-label="d[5]=17
t[5]=5"
       id="text126923"
       style="font-size:5.64444px;line-height:1.25;stroke-width:0.264583">
      <path
         d="m 99.187087,86.056781 h -0.468488 v 1.529643 c -0.197556,-0.299155 -0.513644,-0.4572 -0.908755,-0.4572 -0.767644,0 -1.269999,0.615244 -1.269999,1.557866 0,0.999066 0.485422,1.61431 1.286932,1.61431 0.4064,0 0.688622,-0.1524 0.942622,-0.519289 v 0.389466 h 0.417688 z m -1.298221,1.51271 c 0.508,0 0.829733,0.44591 0.829733,1.15711 0,0.682977 -0.327378,1.134532 -0.824089,1.134532 -0.519288,0 -0.863599,-0.457199 -0.863599,-1.145821 0,-0.688622 0.344311,-1.145821 0.857955,-1.145821 z"
         id="path153" />
      <path
         d="m 100.94251,86.056781 h -1.049869 v 5.311418 h 1.049869 v -0.4064 h -0.58138 V 86.46318 h 0.58138 z"
         id="path155" />
      <path
         d="m 103.7873,86.169669 h -2.06586 l -0.29916,2.178754 h 0.4572 c 0.23142,-0.276577 0.42334,-0.372533 0.73942,-0.372533 0.53623,0 0.86925,0.366889 0.86925,0.959555 0,0.575733 -0.33302,0.925688 -0.87489,0.925688 -0.43462,0 -0.69991,-0.220133 -0.81844,-0.671688 h -0.49671 c 0.0677,0.327377 0.12417,0.485422 0.24271,0.632177 0.22577,0.3048 0.63217,0.479778 1.08373,0.479778 0.80715,0 1.3716,-0.587022 1.3716,-1.433688 0,-0.790222 -0.52493,-1.332088 -1.29258,-1.332088 -0.28222,0 -0.508,0.07338 -0.73942,0.242711 l 0.15804,-1.117599 h 1.66511 z"
         id="path157" />
      <path
         d="m 104.36868,91.368199 h 1.04987 v -5.311418 h -1.04987 v 0.406399 h 0.58138 v 4.498619 h -0.58138 z"
         id="path159" />
      <path
         d="m 108.82214,88.17909 h -2.73191 v 0.395111 h 2.73191 z m 0,0.970844 h -2.73191 v 0.395111 h 2.73191 z"
         id="path161" />
      <path
         d="m 110.56627,87.264691 v 2.906886 h 0.49671 v -4.08093 h -0.32737 c -0.17498,0.626533 -0.28787,0.7112 -1.05551,0.8128 v 0.361244 z"
         id="path163" />
      <path
         d="m 115.17778,86.169669 h -2.67547 v 0.491067 h 2.16182 c -0.95391,1.36031 -1.34337,2.195687 -1.64253,3.510841 h 0.53058 c 0.22013,-1.281287 0.72249,-2.381953 1.6256,-3.584219 z"
         id="path165" />
      <path
         d="m 97.826777,95.121751 h -0.485422 v -0.812799 h -0.468488 v 0.812799 h -0.400756 v 0.383822 h 0.400756 v 2.235199 c 0,0.304799 0.2032,0.468488 0.570088,0.468488 0.124178,0 0.225778,-0.01129 0.383822,-0.03951 v -0.395111 c -0.06773,0.01693 -0.129822,0.02258 -0.225778,0.02258 -0.203199,0 -0.259644,-0.05644 -0.259644,-0.265289 v -2.026354 h 0.485422 z"
         id="path167" />
      <path
         d="m 99.373353,93.964641 h -1.049866 v 5.311418 h 1.049866 V 98.86966 h -0.581377 v -4.498619 h 0.581377 z"
         id="path169" />
      <path
         d="m 102.21815,94.07753 h -2.06586 l -0.29916,2.178754 h 0.4572 c 0.23142,-0.276578 0.42333,-0.372533 0.73942,-0.372533 0.53622,0 0.86924,0.366889 0.86924,0.959555 0,0.575733 -0.33302,0.925688 -0.87488,0.925688 -0.43463,0 -0.69991,-0.220133 -0.81845,-0.671688 h -0.496708 c 0.06773,0.327377 0.124178,0.485421 0.242711,0.632177 0.225777,0.3048 0.632177,0.479777 1.083737,0.479777 0.80715,0 1.37159,-0.587022 1.37159,-1.433688 0,-0.790221 -0.52493,-1.332087 -1.29257,-1.332087 -0.28222,0 -0.508,0.07338 -0.73942,0.242711 l 0.15804,-1.1176 h 1.66511 z"
         id="path171" />
      <path
         d="m 102.79953,99.276059 h 1.04986 v -5.311418 h -1.04986 v 0.4064 h 0.58137 v 4.498619 h -0.58137 z"
         id="path173" />
      <path
         d="m 107.25299,96.086951 h -2.73191 v 0.395111 h 2.73191 z m 0,0.970843 h -2.73191 v 0.395111 h 2.73191 z"
         id="path175" />
      <path
         d="m 110.22196,94.07753 h -2.06586 l -0.29916,2.178754 h 0.4572 c 0.23142,-0.276578 0.42333,-0.372533 0.73942,-0.372533 0.53622,0 0.86925,0.366889 0.86925,0.959555 0,0.575733 -0.33303,0.925688 -0.87489,0.925688 -0.43462,0 -0.69991,-0.220133 -0.81845,-0.671688 h -0.49671 c 0.0677,0.327377 0.12418,0.485421 0.24272,0.632177 0.22577,0.3048 0.63217,0.479777 1.08373,0.479777 0.80715,0 1.3716,-0.587022 1.3716,-1.433688 0,-0.790221 -0.52494,-1.332087 -1.29258,-1.332087 -0.28222,0 -0.508,0.07338 -0.73942,0.242711 l 0.15804,-1.1176 h 1.66511 z"
         id="path177" />
    </g>
    <path
       id="rect123273-3"
       style="display:inline;fill:#ffffff;stroke:#000000;stroke-width:0.396926"
       d="m 121.90679,79.573456 h 31.35308 v 26.061404 h -31.35308 z" />
    <g
       aria-label="d[6]=13
t[6]=0"
       id="text126923-6"
       style="font-size:5.64444px;line-height:1.25;display:inline;stroke-width:0.264583">
      <path
         d="m 130.93708,86.056773 h -0.46849 v 1.529643 c -0.19755,-0.299155 -0.51364,-0.457199 -0.90875,-0.457199 -0.76765,0 -1.27,0.615244 -1.27,1.557865 0,0.999066 0.48542,1.61431 1.28693,1.61431 0.4064,0 0.68862,-0.1524 0.94262,-0.519289 v 0.389467 h 0.41769 z m -1.29822,1.51271 c 0.508,0 0.82973,0.445911 0.82973,1.15711 0,0.682977 -0.32738,1.134533 -0.82409,1.134533 -0.51929,0 -0.8636,-0.4572 -0.8636,-1.145822 0,-0.688621 0.34431,-1.145821 0.85796,-1.145821 z"
         id="path125" />
      <path
         d="m 132.6925,86.056773 h -1.04987 v 5.311418 h 1.04987 v -0.4064 h -0.58138 v -4.498618 h 0.58138 z"
         id="path127" />
      <path
         d="m 135.66147,87.151794 c -0.096,-0.666044 -0.52493,-1.061154 -1.13453,-1.061154 -0.44027,0 -0.83538,0.214488 -1.07244,0.581377 -0.254,0.400755 -0.36125,0.897466 -0.36125,1.636888 0,0.688621 0.096,1.123243 0.33867,1.484487 0.21449,0.333022 0.56444,0.508 1.00471,0.508 0.762,0 1.30951,-0.570089 1.30951,-1.365955 0,-0.75071 -0.508,-1.281287 -1.22484,-1.281287 -0.39511,0 -0.70556,0.146755 -0.92005,0.44591 0.006,-1.010355 0.32174,-1.569154 0.89182,-1.569154 0.34996,0 0.59267,0.225778 0.67169,0.620888 z m -1.20226,0.942622 c 0.47978,0 0.77893,0.338666 0.77893,0.880533 0,0.513644 -0.33867,0.886177 -0.79587,0.886177 -0.46284,0 -0.81279,-0.389467 -0.81279,-0.908755 0,-0.508 0.33866,-0.857955 0.82973,-0.857955 z"
         id="path129" />
      <path
         d="m 136.11867,91.368191 h 1.04987 v -5.311418 h -1.04987 v 0.4064 h 0.58138 v 4.498618 h -0.58138 z"
         id="path131" />
      <path
         d="m 140.57213,88.179082 h -2.7319 v 0.395111 h 2.7319 z m 0,0.970844 h -2.7319 v 0.395111 h 2.7319 z"
         id="path133" />
      <path
         d="m 142.31626,87.264683 v 2.906887 h 0.49672 v -4.08093 h -0.32738 c -0.17498,0.626532 -0.28787,0.711199 -1.05551,0.812799 v 0.361244 z"
         id="path135" />
      <path
         d="m 145.24008,88.291971 h 0.0621 0.20885 c 0.54186,0 0.82973,0.254 0.82973,0.745066 0,0.513644 -0.31044,0.824089 -0.82409,0.824089 -0.54751,0 -0.8128,-0.276578 -0.84666,-0.874889 h -0.49672 c 0.0226,0.327378 0.079,0.541867 0.17498,0.722489 0.20885,0.395111 0.59831,0.592666 1.14582,0.592666 0.82409,0 1.35467,-0.496711 1.35467,-1.269999 0,-0.519289 -0.19756,-0.801511 -0.67733,-0.970844 0.37253,-0.1524 0.5588,-0.434622 0.5588,-0.846666 0,-0.69991 -0.4572,-1.123243 -1.2192,-1.123243 -0.80716,0 -1.23614,0.451555 -1.25307,1.315154 h 0.49671 c 0.006,-0.248355 0.0282,-0.389466 0.0903,-0.513644 0.11289,-0.231422 0.36125,-0.366889 0.67169,-0.366889 0.44027,0 0.70556,0.265289 0.70556,0.705555 0,0.287867 -0.1016,0.462845 -0.32174,0.5588 -0.13546,0.05644 -0.31609,0.07902 -0.6604,0.08467 z"
         id="path137" />
      <path
         d="m 129.57677,95.121744 h -0.48542 v -0.8128 h -0.46849 v 0.8128 h -0.40076 v 0.383822 h 0.40076 v 2.235198 c 0,0.3048 0.2032,0.468489 0.57009,0.468489 0.12418,0 0.22578,-0.01129 0.38382,-0.03951 v -0.395111 c -0.0677,0.01693 -0.12982,0.02258 -0.22578,0.02258 -0.2032,0 -0.25964,-0.05644 -0.25964,-0.265288 v -2.026354 h 0.48542 z"
         id="path139" />
      <path
         d="m 131.12335,93.964634 h -1.04987 v 5.311418 h 1.04987 v -0.4064 h -0.58138 v -4.498619 h 0.58138 z"
         id="path141" />
      <path
         d="m 134.09232,95.059655 c -0.096,-0.666044 -0.52493,-1.061155 -1.13453,-1.061155 -0.44027,0 -0.83538,0.214489 -1.07245,0.581378 -0.254,0.400755 -0.36124,0.897466 -0.36124,1.636887 0,0.688622 0.096,1.123244 0.33867,1.484488 0.21449,0.333022 0.56444,0.508 1.00471,0.508 0.762,0 1.30951,-0.570089 1.30951,-1.365955 0,-0.75071 -0.508,-1.281288 -1.22485,-1.281288 -0.39511,0 -0.70555,0.146756 -0.92004,0.445911 0.006,-1.010355 0.32173,-1.569154 0.89182,-1.569154 0.34996,0 0.59267,0.225777 0.67169,0.620888 z m -1.20227,0.942622 c 0.47978,0 0.77894,0.338666 0.77894,0.880532 0,0.513644 -0.33867,0.886177 -0.79587,0.886177 -0.46284,0 -0.8128,-0.389466 -0.8128,-0.908755 0,-0.507999 0.33867,-0.857954 0.82973,-0.857954 z"
         id="path143" />
      <path
         d="m 134.54952,99.276052 h 1.04986 v -5.311418 h -1.04986 v 0.406399 h 0.58138 v 4.498619 h -0.58138 z"
         id="path145" />
      <path
         d="m 139.00298,96.086943 h -2.73191 v 0.395111 h 2.73191 z m 0,0.970844 h -2.73191 v 0.395111 h 2.73191 z"
         id="path147" />
      <path
         d="m 140.83742,93.9985 c -0.37253,0 -0.7112,0.169333 -0.92004,0.445911 -0.25965,0.361244 -0.38947,0.90311 -0.38947,1.659465 0,1.377244 0.45156,2.105377 1.30951,2.105377 0.84667,0 1.30951,-0.728133 1.30951,-2.07151 0,-0.790222 -0.12418,-1.320799 -0.38946,-1.693332 -0.20885,-0.282222 -0.54187,-0.445911 -0.92005,-0.445911 z m 0,0.440267 c 0.53622,0 0.80151,0.54751 0.80151,1.653821 0,1.162754 -0.25964,1.70462 -0.8128,1.70462 -0.52493,0 -0.79022,-0.564444 -0.79022,-1.687687 0,-1.123244 0.26529,-1.670754 0.80151,-1.670754 z"
         id="path149" />
    </g>
    <path
       id="rect123273-35"
       style="display:inline;fill:#ffffff;stroke:#000000;stroke-width:0.396926"
       d="m 153.6568,79.573456 h 31.35307 V 105.63486 H 153.6568 Z" />
    <g
       aria-label="d[7]=14
t[7]=0"
       id="text126923-62"
       style="font-size:5.64444px;line-height:1.25;display:inline;stroke-width:0.264583">
      <path
         d="m 162.68708,86.056781 h -0.46849 v 1.529643 c -0.19755,-0.299155 -0.51364,-0.4572 -0.90875,-0.4572 -0.76765,0 -1.27,0.615244 -1.27,1.557866 0,0.999066 0.48542,1.61431 1.28693,1.61431 0.4064,0 0.68862,-0.1524 0.94262,-0.519289 v 0.389466 h 0.41769 z m -1.29822,1.51271 c 0.508,0 0.82973,0.44591 0.82973,1.15711 0,0.682977 -0.32738,1.134532 -0.82409,1.134532 -0.51929,0 -0.8636,-0.457199 -0.8636,-1.145821 0,-0.688622 0.34431,-1.145821 0.85796,-1.145821 z"
         id="path97" />
      <path
         d="m 164.4425,86.056781 h -1.04987 v 5.311418 h 1.04987 v -0.4064 h -0.58138 V 86.46318 h 0.58138 z"
         id="path99" />
      <path
         d="m 167.53565,86.169669 h -2.67546 v 0.491067 h 2.16182 c -0.95391,1.36031 -1.34338,2.195687 -1.64253,3.510841 h 0.53057 c 0.22014,-1.281287 0.72249,-2.381953 1.6256,-3.584219 z"
         id="path101" />
      <path
         d="m 167.86867,91.368199 h 1.04987 v -5.311418 h -1.04987 v 0.406399 h 0.58138 v 4.498619 h -0.58138 z"
         id="path103" />
      <path
         d="m 172.32213,88.17909 h -2.7319 v 0.395111 h 2.7319 z m 0,0.970844 h -2.7319 v 0.395111 h 2.7319 z"
         id="path105" />
      <path
         d="m 174.06626,87.264691 v 2.906886 h 0.49672 v -4.08093 h -0.32738 c -0.17498,0.626533 -0.28787,0.7112 -1.05551,0.8128 v 0.361244 z"
         id="path107" />
      <path
         d="m 177.58839,89.1838 v 0.987777 h 0.49672 V 89.1838 h 0.59266 v -0.44591 h -0.59266 v -2.647243 h -0.36689 l -1.81751,2.56822 V 89.1838 Z m 0,-0.44591 h -1.25306 l 1.25306,-1.800577 z"
         id="path109" />
      <path
         d="m 161.32677,95.121751 h -0.48542 v -0.812799 h -0.46849 v 0.812799 h -0.40076 v 0.383822 h 0.40076 v 2.235199 c 0,0.304799 0.2032,0.468488 0.57009,0.468488 0.12418,0 0.22578,-0.01129 0.38382,-0.03951 v -0.395111 c -0.0677,0.01693 -0.12982,0.02258 -0.22578,0.02258 -0.2032,0 -0.25964,-0.05644 -0.25964,-0.265289 v -2.026354 h 0.48542 z"
         id="path111" />
      <path
         d="m 162.87335,93.964641 h -1.04987 v 5.311418 h 1.04987 V 98.86966 h -0.58138 v -4.498619 h 0.58138 z"
         id="path113" />
      <path
         d="m 165.9665,94.07753 h -2.67547 v 0.491066 h 2.16182 c -0.95391,1.36031 -1.34337,2.195688 -1.64253,3.510842 h 0.53058 c 0.22013,-1.281288 0.72249,-2.381954 1.6256,-3.584219 z"
         id="path115" />
      <path
         d="m 166.29952,99.276059 h 1.04986 v -5.311418 h -1.04986 v 0.4064 h 0.58138 v 4.498619 h -0.58138 z"
         id="path117" />
      <path
         d="m 170.75298,96.086951 h -2.73191 v 0.395111 h 2.73191 z m 0,0.970843 h -2.73191 v 0.395111 h 2.73191 z"
         id="path119" />
      <path
         d="m 172.58742,93.998508 c -0.37253,0 -0.7112,0.169333 -0.92004,0.445911 -0.25965,0.361244 -0.38947,0.90311 -0.38947,1.659465 0,1.377243 0.45156,2.105376 1.30951,2.105376 0.84667,0 1.30951,-0.728133 1.30951,-2.071509 0,-0.790222 -0.12418,-1.320799 -0.38946,-1.693332 -0.20885,-0.282222 -0.54187,-0.445911 -0.92005,-0.445911 z m 0,0.440266 c 0.53622,0 0.80151,0.547511 0.80151,1.653821 0,1.162755 -0.25964,1.704621 -0.8128,1.704621 -0.52493,0 -0.79022,-0.564444 -0.79022,-1.687687 0,-1.123244 0.26529,-1.670755 0.80151,-1.670755 z"
         id="path121" />
    </g>
    <path
       id="rect123273-2"
       style="display:inline;fill:#ffffff;stroke:#000000;stroke-width:0.396926"
       d="M 26.656796,106.03179 H 58.009871 V 132.0932 H 26.656796 Z" />
    <g
       aria-label="d[8]=10
t[8]=0"
       id="text126923-7"
       style="font-size:5.64444px;line-height:1.25;display:inline;stroke-width:0.264583">
      <path
         d="m 35.687083,112.51512 h -0.468488 v 1.52964 c -0.197556,-0.29916 -0.513644,-0.4572 -0.908755,-0.4572 -0.767644,0 -1.269999,0.61524 -1.269999,1.55787 0,0.99906 0.485422,1.61431 1.286932,1.61431 0.4064,0 0.688622,-0.1524 0.942622,-0.51929 v 0.38946 h 0.417688 z m -1.298221,1.51271 c 0.508,0 0.829733,0.44591 0.829733,1.15711 0,0.68297 -0.327378,1.13453 -0.824088,1.13453 -0.519289,0 -0.8636,-0.4572 -0.8636,-1.14582 0,-0.68862 0.344311,-1.14582 0.857955,-1.14582 z"
         id="path69" />
      <path
         d="m 37.442503,112.51512 h -1.049866 v 5.31141 h 1.049866 v -0.4064 h -0.581377 v -4.49861 h 0.581377 z"
         id="path71" />
      <path
         d="m 39.807522,114.47938 c 0.417689,-0.254 0.547511,-0.4572 0.547511,-0.84102 0,-0.64347 -0.491066,-1.08938 -1.202266,-1.08938 -0.705555,0 -1.202265,0.44591 -1.202265,1.08374 0,0.38946 0.129822,0.58702 0.541866,0.84666 -0.4572,0.23142 -0.682977,0.56445 -0.682977,1.016 0,0.74507 0.54751,1.26436 1.343376,1.26436 0.790222,0 1.343377,-0.51929 1.343377,-1.26436 0,-0.45155 -0.225777,-0.78458 -0.688622,-1.016 z m -0.654755,-1.49013 c 0.423333,0 0.694267,0.254 0.694267,0.6604 0,0.38382 -0.276578,0.63782 -0.694267,0.63782 -0.423333,0 -0.694266,-0.254 -0.694266,-0.64911 0,-0.39511 0.270933,-0.64911 0.694266,-0.64911 z m 0,1.71591 c 0.496711,0 0.835378,0.32738 0.835378,0.80151 0,0.49107 -0.333022,0.8128 -0.846666,0.8128 -0.485422,0 -0.824089,-0.33302 -0.824089,-0.80716 0,-0.48542 0.333022,-0.80715 0.835377,-0.80715 z"
         id="path73" />
      <path
         d="m 40.868676,117.82653 h 1.049866 v -5.31141 h -1.049866 v 0.4064 h 0.581377 v 4.49861 h -0.581377 z"
         id="path75" />
      <path
         d="m 45.322138,114.63743 h -2.731909 v 0.39511 h 2.731909 z m 0,0.97084 h -2.731909 v 0.39511 h 2.731909 z"
         id="path77" />
      <path
         d="m 47.066269,113.72303 v 2.90688 h 0.49671 v -4.08093 h -0.327377 c -0.174978,0.62654 -0.287867,0.7112 -1.05551,0.8128 v 0.36125 z"
         id="path79" />
      <path
         d="m 50.294887,112.54898 c -0.372533,0 -0.711199,0.16934 -0.920043,0.44591 -0.259645,0.36125 -0.389467,0.90311 -0.389467,1.65947 0,1.37724 0.451555,2.10538 1.30951,2.10538 0.846666,0 1.30951,-0.72814 1.30951,-2.07151 0,-0.79023 -0.124177,-1.3208 -0.389466,-1.69334 -0.208844,-0.28222 -0.541866,-0.44591 -0.920044,-0.44591 z m 0,0.44027 c 0.536222,0 0.801511,0.54751 0.801511,1.65382 0,1.16276 -0.259644,1.70462 -0.8128,1.70462 -0.524933,0 -0.790221,-0.56444 -0.790221,-1.68769 0,-1.12324 0.265288,-1.67075 0.80151,-1.67075 z"
         id="path81" />
      <path
         d="m 34.326773,121.58009 h -0.485422 v -0.8128 h -0.468488 v 0.8128 h -0.400755 v 0.38382 h 0.400755 v 2.2352 c 0,0.3048 0.2032,0.46849 0.570088,0.46849 0.124178,0 0.225778,-0.0113 0.383822,-0.0395 v -0.39512 c -0.06773,0.0169 -0.129822,0.0226 -0.225777,0.0226 -0.2032,0 -0.259645,-0.0564 -0.259645,-0.26529 v -2.02635 h 0.485422 z"
         id="path83" />
      <path
         d="m 35.873349,120.42298 h -1.049866 v 5.31142 h 1.049866 v -0.4064 h -0.581377 v -4.49862 h 0.581377 z"
         id="path85" />
      <path
         d="m 38.238369,122.38724 c 0.417688,-0.254 0.547511,-0.4572 0.547511,-0.84102 0,-0.64347 -0.491067,-1.08938 -1.202266,-1.08938 -0.705555,0 -1.202266,0.44591 -1.202266,1.08374 0,0.38946 0.129822,0.58702 0.541866,0.84666 -0.457199,0.23142 -0.682977,0.56445 -0.682977,1.016 0,0.74507 0.547511,1.26436 1.343377,1.26436 0.790221,0 1.343377,-0.51929 1.343377,-1.26436 0,-0.45155 -0.225778,-0.78458 -0.688622,-1.016 z m -0.654755,-1.49013 c 0.423333,0 0.694266,0.254 0.694266,0.6604 0,0.38382 -0.276578,0.63782 -0.694266,0.63782 -0.423333,0 -0.694266,-0.254 -0.694266,-0.64911 0,-0.39511 0.270933,-0.64911 0.694266,-0.64911 z m 0,1.71591 c 0.496711,0 0.835377,0.32738 0.835377,0.80151 0,0.49107 -0.333022,0.8128 -0.846666,0.8128 -0.485422,0 -0.824088,-0.33302 -0.824088,-0.80716 0,-0.48542 0.333022,-0.80715 0.835377,-0.80715 z"
         id="path87" />
      <path
         d="m 39.299522,125.7344 h 1.049866 v -5.31142 h -1.049866 v 0.4064 H 39.8809 v 4.49862 h -0.581378 z"
         id="path89" />
      <path
         d="m 43.752985,122.54529 h -2.731909 v 0.39511 h 2.731909 z m 0,0.97084 h -2.731909 v 0.39511 h 2.731909 z"
         id="path91" />
      <path
         d="m 45.587426,120.45684 c -0.372533,0 -0.7112,0.16934 -0.920044,0.44591 -0.259644,0.36125 -0.389466,0.90311 -0.389466,1.65947 0,1.37724 0.451555,2.10538 1.30951,2.10538 0.846666,0 1.30951,-0.72814 1.30951,-2.07151 0,-0.79023 -0.124178,-1.3208 -0.389466,-1.69334 -0.208845,-0.28222 -0.541867,-0.44591 -0.920044,-0.44591 z m 0,0.44027 c 0.536222,0 0.80151,0.54751 0.80151,1.65382 0,1.16276 -0.259644,1.70462 -0.812799,1.70462 -0.524933,0 -0.790222,-0.56444 -0.790222,-1.68769 0,-1.12324 0.265289,-1.67075 0.801511,-1.67075 z"
         id="path93" />
    </g>
    <path
       id="rect123273-36"
       style="display:inline;fill:#ffffff;stroke:#000000;stroke-width:0.396926"
       d="M 58.406796,106.03179 H 89.759871 V 132.0932 H 58.406796 Z" />
    <g
       aria-label="d[9]=11
t[9]=0"
       id="text126923-0"
       style="font-size:5.64444px;line-height:1.25;display:inline;stroke-width:0.264583">
      <path
         d="m 67.43708,112.51512 h -0.468489 v 1.52964 c -0.197555,-0.29916 -0.513644,-0.4572 -0.908755,-0.4572 -0.767644,0 -1.269999,0.61524 -1.269999,1.55787 0,0.99906 0.485422,1.61431 1.286932,1.61431 0.4064,0 0.688622,-0.1524 0.942622,-0.51929 v 0.38946 h 0.417689 z m -1.298222,1.51271 c 0.508,0 0.829733,0.44591 0.829733,1.15711 0,0.68297 -0.327378,1.13453 -0.824088,1.13453 -0.519289,0 -0.8636,-0.4572 -0.8636,-1.14582 0,-0.68862 0.344311,-1.14582 0.857955,-1.14582 z"
         id="path41" />
      <path
         d="m 69.192499,112.51512 h -1.049866 v 5.31141 h 1.049866 v -0.4064 h -0.581377 v -4.49861 h 0.581377 z"
         id="path43" />
      <path
         d="m 69.649698,115.69858 c 0.09596,0.66604 0.524933,1.06116 1.134532,1.06116 0.445911,0 0.841022,-0.21449 1.078088,-0.58138 0.248356,-0.40076 0.361245,-0.89747 0.361245,-1.63689 0,-0.68862 -0.1016,-1.12324 -0.338667,-1.48449 -0.220133,-0.33302 -0.570088,-0.508 -1.010355,-0.508 -0.761999,0 -1.30951,0.57009 -1.30951,1.36031 0,0.75071 0.508,1.28129 1.230488,1.28129 0.378178,0 0.6604,-0.13547 0.9144,-0.44591 -0.0056,1.016 -0.321734,1.5748 -0.891822,1.5748 -0.349955,0 -0.592666,-0.22578 -0.671688,-0.62089 z m 1.219199,-2.71498 c 0.462844,0 0.812799,0.38947 0.812799,0.9144 0,0.50236 -0.338666,0.85231 -0.829732,0.85231 -0.479778,0 -0.778933,-0.33866 -0.778933,-0.88053 0,-0.51364 0.333022,-0.88618 0.795866,-0.88618 z"
         id="path45" />
      <path
         d="m 72.618672,117.82653 h 1.049866 v -5.31141 h -1.049866 v 0.4064 h 0.581378 v 4.49861 h -0.581378 z"
         id="path47" />
      <path
         d="m 77.072134,114.63743 h -2.731909 v 0.39511 h 2.731909 z m 0,0.97084 h -2.731909 v 0.39511 h 2.731909 z"
         id="path49" />
      <path
         d="m 78.816265,113.72303 v 2.90688 h 0.496711 v -4.08093 h -0.327378 c -0.174978,0.62654 -0.287866,0.7112 -1.05551,0.8128 v 0.36125 z"
         id="path51" />
      <path
         d="m 81.954572,113.72303 v 2.90688 h 0.496711 v -4.08093 h -0.327377 c -0.174978,0.62654 -0.287867,0.7112 -1.055511,0.8128 v 0.36125 z"
         id="path53" />
      <path
         d="m 66.076769,121.58009 h -0.485421 v -0.8128 h -0.468489 v 0.8128 h -0.400755 v 0.38382 h 0.400755 v 2.2352 c 0,0.3048 0.2032,0.46849 0.570089,0.46849 0.124177,0 0.225777,-0.0113 0.383821,-0.0395 v -0.39512 c -0.06773,0.0169 -0.129822,0.0226 -0.225777,0.0226 -0.2032,0 -0.259644,-0.0564 -0.259644,-0.26529 v -2.02635 h 0.485421 z"
         id="path55" />
      <path
         d="M 67.623345,120.42298 H 66.57348 v 5.31142 h 1.049865 v -0.4064 h -0.581377 v -4.49862 h 0.581377 z"
         id="path57" />
      <path
         d="m 68.080544,123.60644 c 0.09596,0.66605 0.524933,1.06116 1.134533,1.06116 0.445911,0 0.841021,-0.21449 1.078088,-0.58138 0.248355,-0.40076 0.361244,-0.89747 0.361244,-1.63689 0,-0.68862 -0.1016,-1.12324 -0.338666,-1.48449 -0.220134,-0.33302 -0.570089,-0.508 -1.010355,-0.508 -0.762,0 -1.30951,0.57009 -1.30951,1.36031 0,0.75071 0.507999,1.28129 1.230488,1.28129 0.378177,0 0.660399,-0.13546 0.914399,-0.44591 -0.0056,1.016 -0.321733,1.5748 -0.891822,1.5748 -0.349955,0 -0.592666,-0.22578 -0.671688,-0.62089 z m 1.219199,-2.71497 c 0.462844,0 0.8128,0.38946 0.8128,0.91439 0,0.50236 -0.338667,0.85232 -0.829733,0.85232 -0.479777,0 -0.778933,-0.33867 -0.778933,-0.88054 0,-0.51364 0.333022,-0.88617 0.795866,-0.88617 z"
         id="path59" />
      <path
         d="m 71.049518,125.7344 h 1.049866 v -5.31142 h -1.049866 v 0.4064 h 0.581378 v 4.49862 h -0.581378 z"
         id="path61" />
      <path
         d="m 75.502981,122.54529 h -2.731909 v 0.39511 h 2.731909 z m 0,0.97084 h -2.731909 v 0.39511 h 2.731909 z"
         id="path63" />
      <path
         d="m 77.337422,120.45684 c -0.372533,0 -0.711199,0.16934 -0.920044,0.44591 -0.259644,0.36125 -0.389466,0.90311 -0.389466,1.65947 0,1.37724 0.451555,2.10538 1.30951,2.10538 0.846666,0 1.30951,-0.72814 1.30951,-2.07151 0,-0.79023 -0.124177,-1.3208 -0.389466,-1.69334 -0.208844,-0.28222 -0.541866,-0.44591 -0.920044,-0.44591 z m 0,0.44027 c 0.536222,0 0.801511,0.54751 0.801511,1.65382 0,1.16276 -0.259645,1.70462 -0.8128,1.70462 -0.524933,0 -0.790221,-0.56444 -0.790221,-1.68769 0,-1.12324 0.265288,-1.67075 0.80151,-1.67075 z"
         id="path65" />
    </g>
  </g>
</svg>
