<?xml version="1.0" standalone="no"?>
<!DOCTYPE svg PUBLIC "-//W3C//DTD SVG 20010904//EN"
 "http://www.w3.org/TR/2001/REC-SVG-20010904/DTD/svg10.dtd">
<svg version="1.0" xmlns="http://www.w3.org/2000/svg"
 width="1929.000000pt" height="852.000000pt" viewBox="0 0 1929.000000 852.000000"
 preserveAspectRatio="xMidYMid meet">

<g transform="translate(0.000000,852.000000) scale(0.100000,-0.100000)"
fill="#000000" stroke="none">
<path d="M5403 7558 c2 -9 25 -13 67 -13 42 0 65 4 68 13 3 9 -15 12 -68 12
-53 0 -71 -3 -67 -12z"/>
<path d="M14590 7556 c0 -17 86 -27 113 -14 34 17 16 28 -48 28 -49 0 -65 -3
-65 -14z"/>
<path d="M5313 7523 c-7 -2 -13 -11 -13 -20 0 -11 7 -13 33 -8 38 9 41 11 32
24 -6 11 -31 13 -52 4z"/>
<path d="M5577 7523 c-14 -13 -6 -22 24 -28 42 -9 62 10 25 25 -32 12 -40 12
-49 3z"/>
<path d="M14498 7523 c-26 -7 -22 -33 5 -33 29 0 51 15 43 29 -7 11 -18 12
-48 4z"/>
<path d="M14765 7520 c-19 -7 -18 -9 8 -19 16 -6 33 -11 38 -11 5 0 18 -9 29
-20 24 -24 50 -26 50 -5 0 8 -7 15 -14 15 -8 0 -27 11 -42 25 -29 27 -37 28
-69 15z"/>
<path d="M5260 7483 c-20 -8 -70 -59 -70 -72 0 -6 -12 -21 -26 -34 -20 -19
-24 -29 -19 -50 10 -39 24 -33 31 13 4 24 12 40 20 40 8 0 14 4 14 9 0 5 14
23 31 40 17 17 35 31 40 31 5 0 9 7 9 15 0 16 -5 17 -30 8z"/>
<path d="M5657 7483 c-7 -7 57 -73 70 -73 5 0 13 -14 18 -32 11 -36 35 -50 35
-20 0 31 -11 52 -26 52 -8 0 -14 5 -14 11 0 13 -55 69 -68 69 -5 0 -12 -3 -15
-7z"/>
<path d="M14433 7483 c-7 -2 -13 -11 -13 -19 0 -8 -7 -14 -15 -14 -9 0 -20
-11 -25 -24 -5 -13 -13 -25 -19 -27 -5 -2 -13 -16 -16 -31 -6 -21 -4 -28 8
-28 8 0 18 12 22 27 3 15 15 33 26 41 10 7 19 19 19 26 0 8 11 17 25 20 14 4
25 13 25 21 0 15 -14 18 -37 8z"/>
<path d="M14900 7436 c0 -17 22 -56 29 -52 13 8 0 56 -15 56 -8 0 -14 -2 -14
-4z"/>
<path d="M14944 7348 c8 -41 23 -57 32 -35 9 26 -4 67 -22 67 -13 0 -15 -7
-10 -32z"/>
<path d="M5408 7298 c-38 -44 -39 -104 -2 -147 16 -19 35 -31 50 -31 34 0 30
-16 -7 -29 -39 -14 -33 -33 14 -45 29 -7 45 -6 72 7 41 20 47 43 43 177 l-3
95 -70 3 c-68 2 -71 1 -97 -30z m103 -18 c14 -8 19 -21 19 -54 0 -35 -4 -45
-25 -56 -39 -21 -75 2 -75 48 0 58 37 85 81 62z"/>
<path d="M5790 7310 c-1 -14 -2 -71 -3 -128 -3 -94 3 -125 21 -107 11 11 4
237 -7 248 -8 8 -11 4 -11 -13z"/>
<path d="M14309 7293 c-2 -107 0 -194 6 -204 16 -24 23 15 19 105 -2 50 -3 99
-4 109 0 29 -20 19 -21 -10z"/>
<path d="M14547 7273 c-6 -11 9 -49 22 -58 14 -8 14 -72 0 -80 -18 -12 -31
-57 -19 -69 8 -8 14 -6 21 6 5 9 23 23 39 32 28 14 31 13 49 -10 25 -32 50
-32 44 1 -3 13 -11 30 -19 36 -8 6 -14 24 -14 39 0 15 6 33 14 39 8 6 16 23
19 36 3 19 0 25 -14 25 -10 0 -23 -9 -29 -20 -14 -26 -20 -25 -64 5 -41 28
-43 28 -49 18z"/>
<path d="M14990 7206 c0 -44 4 -76 10 -76 6 0 10 30 10 69 0 39 -4 73 -10 76
-6 4 -10 -22 -10 -69z"/>
<path d="M5116 7234 c-9 -24 -7 -62 4 -69 6 -4 10 12 10 39 0 48 -4 56 -14 30z"/>
<path d="M5145 7090 c-9 -15 6 -60 21 -60 15 0 18 27 8 54 -7 18 -20 21 -29 6z"/>
<path d="M14948 7060 c-3 -17 -1 -33 4 -36 10 -6 30 44 22 57 -11 18 -22 9
-26 -21z"/>
<path d="M14347 7064 c-14 -14 -7 -44 13 -56 11 -7 20 -23 20 -35 0 -17 -183
-206 -691 -714 -657 -658 -691 -690 -709 -674 -10 9 -29 15 -42 13 -19 -2 -26
-13 -38 -60 -20 -76 -42 -102 -81 -94 -22 4 -29 2 -29 -9 0 -8 6 -15 13 -15
22 0 95 -86 102 -120 9 -40 21 -46 30 -13 5 21 1 31 -19 50 -14 13 -26 32 -26
43 0 26 48 58 109 71 56 12 65 29 35 74 -15 24 -12 27 675 714 475 475 697
691 712 691 11 0 29 -10 38 -22 11 -13 24 -19 34 -15 23 9 21 24 -4 32 -23 8
-109 89 -109 103 0 15 -25 43 -33 36z"/>
<path d="M5748 7035 c-16 -35 -79 -98 -114 -114 -21 -9 -25 -14 -14 -21 13 -8
41 -3 50 10 3 4 15 10 27 14 19 6 109 -80 668 -639 355 -355 643 -650 639
-656 -3 -6 -17 -14 -30 -19 -28 -11 -31 -28 -6 -37 9 -3 36 -14 59 -24 23 -11
49 -19 58 -19 36 0 55 -20 55 -59 0 -27 8 -46 30 -71 16 -18 32 -31 35 -28 17
16 4 79 -29 141 -20 38 -36 74 -36 81 0 23 -49 126 -60 126 -6 0 -16 -13 -21
-30 -6 -16 -15 -30 -20 -30 -5 0 -299 290 -654 646 -683 682 -662 658 -619
702 16 16 18 38 4 47 -5 3 -15 -6 -22 -20z"/>
<path d="M5180 6975 c0 -33 -4 -45 -14 -45 -8 0 -21 -9 -28 -19 -8 -11 -26
-23 -41 -26 -23 -6 -40 -35 -19 -35 24 1 52 14 52 26 0 8 9 14 20 14 10 0 24
9 30 20 13 25 75 28 84 5 3 -9 18 -15 36 -15 41 0 38 16 -5 24 -20 4 -35 13
-35 21 0 8 -9 19 -19 25 -11 5 -23 19 -26 30 -12 39 -35 23 -35 -25z"/>
<path d="M14893 6985 c-18 -19 -33 -38 -33 -43 0 -4 -14 -12 -32 -17 -36 -11
-50 -35 -20 -35 31 0 52 11 52 26 0 9 12 14 34 14 31 0 34 3 41 36 9 52 -5 58
-42 19z"/>
<path d="M14950 6910 c0 -5 5 -10 11 -10 5 0 7 5 4 10 -3 6 -8 10 -11 10 -2 0
-4 -4 -4 -10z"/>
<path d="M5348 6879 c-22 -14 16 -20 123 -20 67 -1 116 4 122 10 13 13 21 12
-121 14 -62 1 -118 -1 -124 -4z"/>
<path d="M14537 6878 c-22 -13 1 -18 99 -21 94 -3 155 6 140 20 -9 9 -225 10
-239 1z"/>
<path d="M14990 6870 c0 -5 5 -10 11 -10 5 0 7 5 4 10 -3 6 -8 10 -11 10 -2 0
-4 -4 -4 -10z"/>
<path d="M5023 6831 c-3 -12 -17 -22 -34 -26 -16 -4 -29 -13 -29 -20 0 -15 39
-9 55 9 6 6 19 16 30 22 23 13 23 28 0 32 -10 2 -19 -4 -22 -17z"/>
<path d="M15030 6830 c0 -5 5 -10 11 -10 5 0 7 5 4 10 -3 6 -8 10 -11 10 -2 0
-4 -4 -4 -10z"/>
<path d="M15070 6790 c0 -5 5 -10 11 -10 5 0 7 5 4 10 -3 6 -8 10 -11 10 -2 0
-4 -4 -4 -10z"/>
<path d="M4903 6752 c-2 -10 -18 -23 -36 -30 -23 -9 -28 -15 -20 -23 14 -14
53 -2 53 16 0 7 11 16 25 19 14 4 25 13 25 21 0 22 -41 19 -47 -3z"/>
<path d="M15110 6750 c0 -5 5 -10 11 -10 5 0 7 5 4 10 -3 6 -8 10 -11 10 -2 0
-4 -4 -4 -10z"/>
<path d="M15150 6710 c0 -5 5 -10 11 -10 5 0 7 5 4 10 -3 6 -8 10 -11 10 -2 0
-4 -4 -4 -10z"/>
<path d="M4788 6670 c-7 -11 -18 -20 -24 -20 -6 0 -23 -11 -38 -25 -15 -14
-33 -25 -40 -25 -8 0 -16 -7 -20 -15 -3 -8 -12 -15 -19 -15 -8 0 -20 -7 -27
-15 -10 -12 -9 -16 5 -22 12 -4 24 0 34 13 9 10 28 25 44 31 15 7 27 17 27 22
0 5 11 12 25 15 14 4 25 12 25 19 0 7 14 18 31 24 17 7 28 17 24 22 -10 17
-34 13 -47 -9z"/>
<path d="M15190 6670 c0 -5 5 -10 11 -10 5 0 7 5 4 10 -3 6 -8 10 -11 10 -2 0
-4 -4 -4 -10z"/>
<path d="M15230 6630 c0 -5 5 -10 11 -10 5 0 7 5 4 10 -3 6 -8 10 -11 10 -2 0
-4 -4 -4 -10z"/>
<path d="M15270 6590 c0 -5 5 -10 11 -10 5 0 7 5 4 10 -3 6 -8 10 -11 10 -2 0
-4 -4 -4 -10z"/>
<path d="M15310 6550 c0 -5 5 -10 11 -10 5 0 7 5 4 10 -3 6 -8 10 -11 10 -2 0
-4 -4 -4 -10z"/>
<path d="M4573 6520 c-13 -5 -23 -14 -23 -19 0 -5 -11 -12 -25 -15 -14 -4 -25
-12 -25 -19 0 -7 -14 -18 -31 -24 -17 -7 -28 -17 -24 -22 10 -17 34 -13 47 9
7 11 18 20 24 20 6 0 23 11 38 25 15 14 34 25 42 25 7 0 14 7 14 15 0 17 -5
18 -37 5z"/>
<path d="M15350 6510 c0 -5 5 -10 11 -10 5 0 7 5 4 10 -3 6 -8 10 -11 10 -2 0
-4 -4 -4 -10z"/>
<path d="M15390 6470 c0 -5 5 -10 11 -10 5 0 7 5 4 10 -3 6 -8 10 -11 10 -2 0
-4 -4 -4 -10z"/>
<path d="M15430 6430 c0 -5 5 -10 11 -10 5 0 7 5 4 10 -3 6 -8 10 -11 10 -2 0
-4 -4 -4 -10z"/>
<path d="M4393 6403 c-7 -2 -13 -11 -13 -18 0 -7 -11 -16 -25 -19 -14 -4 -25
-13 -25 -21 0 -22 41 -19 47 3 2 10 18 23 35 30 16 6 27 16 23 21 -6 12 -21
13 -42 4z"/>
<path d="M15470 6390 c0 -5 5 -10 11 -10 5 0 7 5 4 10 -3 6 -8 10 -11 10 -2 0
-4 -4 -4 -10z"/>
<path d="M15510 6350 c0 -5 5 -10 11 -10 5 0 7 5 4 10 -3 6 -8 10 -11 10 -2 0
-4 -4 -4 -10z"/>
<path d="M4295 6323 c-11 -3 -25 -10 -30 -16 -6 -7 -19 -17 -29 -22 -23 -13
-23 -29 -1 -33 10 -2 19 4 22 17 3 12 17 22 34 26 16 4 29 13 29 21 0 8 -1 13
-2 13 -2 -1 -12 -3 -23 -6z"/>
<path d="M15550 6310 c0 -5 5 -10 11 -10 5 0 7 5 4 10 -3 6 -8 10 -11 10 -2 0
-4 -4 -4 -10z"/>
<path d="M15590 6270 c0 -5 5 -10 11 -10 5 0 7 5 4 10 -3 6 -8 10 -11 10 -2 0
-4 -4 -4 -10z"/>
<path d="M4168 6243 c-10 -2 -18 -11 -18 -19 0 -8 -9 -14 -21 -14 -12 0 -23
-8 -26 -19 -3 -12 -17 -23 -34 -26 -37 -8 -40 -34 -3 -27 14 2 28 11 31 18 3
8 11 14 19 14 7 0 19 9 26 19 8 11 26 23 41 26 15 4 27 13 27 21 0 14 -10 16
-42 7z"/>
<path d="M15630 6230 c0 -5 5 -10 11 -10 5 0 7 5 4 10 -3 6 -8 10 -11 10 -2 0
-4 -4 -4 -10z"/>
<path d="M15670 6190 c0 -5 5 -10 11 -10 5 0 7 5 4 10 -3 6 -8 10 -11 10 -2 0
-4 -4 -4 -10z"/>
<path d="M15710 6150 c0 -5 5 -10 11 -10 5 0 7 5 4 10 -3 6 -8 10 -11 10 -2 0
-4 -4 -4 -10z"/>
<path d="M3993 6123 c-7 -2 -13 -11 -13 -19 0 -8 -7 -14 -15 -14 -8 0 -24 -9
-35 -20 -11 -11 -27 -20 -35 -20 -8 0 -20 -9 -27 -20 -7 -11 -18 -20 -24 -20
-6 0 -23 -11 -38 -25 -15 -14 -34 -25 -42 -25 -7 0 -14 -7 -14 -15 0 -17 4
-18 38 -9 12 4 22 12 22 19 0 7 11 16 25 19 14 4 25 13 25 21 0 8 9 15 20 15
10 0 27 8 37 19 10 10 28 22 41 25 12 4 22 13 22 21 0 7 12 16 26 19 14 4 24
12 22 18 -5 14 -18 18 -35 11z"/>
<path d="M15750 6110 c0 -5 5 -10 11 -10 5 0 7 5 4 10 -3 6 -8 10 -11 10 -2 0
-4 -4 -4 -10z"/>
<path d="M15790 6070 c0 -5 5 -10 11 -10 5 0 7 5 4 10 -3 6 -8 10 -11 10 -2 0
-4 -4 -4 -10z"/>
<path d="M15830 6030 c0 -5 5 -10 11 -10 5 0 7 5 4 10 -3 6 -8 10 -11 10 -2 0
-4 -4 -4 -10z"/>
<path d="M15870 5990 c0 -5 5 -10 11 -10 5 0 7 5 4 10 -3 6 -8 10 -11 10 -2 0
-4 -4 -4 -10z"/>
<path d="M15910 5950 c0 -5 5 -10 11 -10 5 0 7 5 4 10 -3 6 -8 10 -11 10 -2 0
-4 -4 -4 -10z"/>
<path d="M3692 5905 c-12 -14 -29 -25 -37 -25 -8 0 -15 -6 -15 -14 0 -9 8 -12
25 -8 14 2 25 8 25 13 0 4 12 14 27 21 29 14 34 31 11 36 -8 1 -24 -9 -36 -23z"/>
<path d="M15950 5910 c0 -5 5 -10 11 -10 5 0 7 5 4 10 -3 6 -8 10 -11 10 -2 0
-4 -4 -4 -10z"/>
<path d="M15990 5870 c0 -5 5 -10 11 -10 5 0 7 5 4 10 -3 6 -8 10 -11 10 -2 0
-4 -4 -4 -10z"/>
<path d="M3583 5832 c-10 -11 -29 -25 -42 -32 -15 -8 -20 -15 -13 -22 13 -13
52 -1 52 17 0 7 12 16 26 19 14 4 24 12 22 18 -7 20 -25 20 -45 0z"/>
<path d="M9547 5843 c-4 -3 -7 -72 -7 -153 0 -100 -4 -150 -12 -158 -9 -9 -97
-12 -335 -12 l-323 0 -5 -22 c-3 -13 -4 -171 -3 -353 l3 -330 335 -5 335 -5 2
-145 c3 -148 7 -190 21 -190 12 0 111 64 257 165 28 19 66 44 85 55 19 11 58
36 85 55 28 19 70 48 95 65 25 17 68 46 95 65 28 19 66 44 85 55 19 11 58 36
85 55 77 53 135 93 188 126 26 17 47 37 47 44 0 11 -25 35 -75 73 -5 4 -35 23
-65 42 -30 19 -57 37 -60 40 -3 3 -30 21 -60 40 -30 19 -57 37 -60 40 -3 3
-30 21 -60 40 -30 19 -57 37 -60 40 -3 3 -30 21 -60 40 -30 19 -57 37 -60 40
-3 3 -30 21 -60 40 -30 19 -57 37 -60 40 -3 3 -30 21 -60 40 -30 19 -57 37
-60 40 -3 3 -30 21 -60 40 -30 19 -57 37 -60 40 -11 11 -90 60 -98 60 -5 0
-12 -3 -15 -7z"/>
<path d="M16030 5830 c0 -5 5 -10 11 -10 5 0 7 5 4 10 -3 6 -8 10 -11 10 -2 0
-4 -4 -4 -10z"/>
<path d="M16070 5790 c0 -5 5 -10 11 -10 5 0 7 5 4 10 -3 6 -8 10 -11 10 -2 0
-4 -4 -4 -10z"/>
<path d="M3473 5763 c-7 -2 -13 -11 -13 -18 0 -7 -11 -16 -25 -19 -25 -6 -33
-20 -16 -30 13 -8 41 4 41 18 0 6 14 17 31 23 17 7 28 17 24 22 -6 12 -21 13
-42 4z"/>
<path d="M16110 5750 c0 -5 5 -10 11 -10 5 0 7 5 4 10 -3 6 -8 10 -11 10 -2 0
-4 -4 -4 -10z"/>
<path d="M16150 5710 c0 -5 5 -10 11 -10 5 0 7 5 4 10 -3 6 -8 10 -11 10 -2 0
-4 -4 -4 -10z"/>
<path d="M3372 5683 c-13 -3 -26 -11 -29 -19 -3 -8 -11 -14 -18 -14 -7 0 -18
-7 -25 -15 -10 -12 -9 -16 5 -21 11 -5 25 2 41 20 14 14 31 26 39 26 8 0 15 7
15 15 0 8 -1 14 -2 14 -2 -1 -13 -4 -26 -6z"/>
<path d="M16190 5670 c0 -5 5 -10 11 -10 5 0 7 5 4 10 -3 6 -8 10 -11 10 -2 0
-4 -4 -4 -10z"/>
<path d="M16230 5630 c0 -5 5 -10 11 -10 5 0 7 5 4 10 -3 6 -8 10 -11 10 -2 0
-4 -4 -4 -10z"/>
<path d="M16345 5600 c-4 -11 -17 -28 -31 -36 -24 -17 -64 -73 -64 -92 0 -6
17 -14 38 -18 20 -4 58 -16 85 -27 37 -16 47 -26 47 -44 0 -13 -6 -23 -14 -23
-16 0 -30 -45 -20 -62 8 -12 34 17 34 39 0 11 36 49 92 97 9 8 33 18 53 22 44
8 53 20 20 28 -27 7 -65 -8 -65 -24 0 -6 -18 -10 -40 -10 -42 0 -53 11 -63 66
-7 35 -45 104 -57 104 -5 0 -12 -9 -15 -20z"/>
<path d="M3248 5603 c-10 -2 -18 -10 -18 -18 0 -7 -11 -16 -25 -19 -14 -4 -25
-13 -25 -21 0 -21 26 -19 42 4 8 11 26 23 41 26 15 4 27 13 27 21 0 14 -10 16
-42 7z"/>
<path d="M3086 5569 c-14 -17 -26 -34 -26 -39 0 -4 -12 -27 -27 -50 -26 -39
-29 -41 -65 -35 -30 5 -38 4 -38 -8 0 -9 9 -19 20 -22 11 -3 25 -15 30 -26 6
-10 17 -19 24 -19 7 0 17 -14 22 -32 5 -17 15 -33 23 -36 19 -6 6 49 -16 65
-21 16 -9 43 18 43 51 0 148 23 153 36 6 16 -22 73 -45 91 -9 7 -20 24 -23 38
-8 33 -19 32 -50 -6z"/>
<path d="M16270 5590 c0 -5 5 -10 11 -10 5 0 7 5 4 10 -3 6 -8 10 -11 10 -2 0
-4 -4 -4 -10z"/>
<path d="M2578 5470 c-7 -11 -18 -20 -25 -20 -15 0 -83 -64 -83 -78 0 -6 -12
-22 -26 -35 -20 -19 -24 -29 -19 -50 10 -39 24 -33 31 13 4 24 12 40 20 40 8
0 14 4 14 9 0 9 20 29 80 82 10 10 32 20 49 24 36 8 40 20 9 29 -34 9 -37 8
-50 -14z"/>
<path d="M2854 5479 c-3 -6 0 -15 7 -20 22 -14 59 -11 59 5 0 7 -10 16 -22 20
-32 8 -36 8 -44 -5z"/>
<path d="M12454 5475 c-19 -14 -19 -14 1 -16 26 -2 46 1 65 8 12 4 11 7 -5 13
-29 12 -39 12 -61 -5z"/>
<path d="M12733 5482 c-24 -4 -32 -22 -10 -22 6 0 22 -3 35 -6 16 -5 22 -2 22
9 0 18 -16 24 -47 19z"/>
<path d="M16813 5482 c-36 -6 -27 -20 17 -27 23 -4 40 -12 40 -20 0 -14 48
-30 59 -20 7 8 -28 35 -46 35 -7 0 -13 4 -13 10 0 14 -32 27 -57 22z"/>
<path d="M12393 5443 c-7 -2 -13 -11 -13 -19 0 -8 -7 -14 -15 -14 -9 0 -20
-11 -25 -24 -5 -13 -14 -26 -20 -28 -13 -4 -18 -56 -6 -60 5 -2 14 11 19 27 6
17 18 36 29 43 10 7 18 19 18 26 0 8 12 17 26 20 14 4 24 12 22 18 -5 14 -18
18 -35 11z"/>
<path d="M16945 5378 c4 -13 13 -28 21 -34 8 -6 14 -16 14 -22 0 -6 5 -23 11
-39 8 -22 12 -24 19 -13 16 24 11 49 -11 68 -11 9 -25 27 -30 40 -5 12 -13 22
-19 22 -7 0 -9 -9 -5 -22z"/>
<path d="M7108 5368 c-4 -30 2 -68 12 -68 9 0 17 48 12 73 -5 24 -20 21 -24
-5z"/>
<path d="M7227 5328 c-6 -18 4 -78 13 -78 9 0 17 48 12 73 -4 20 -18 23 -25 5z"/>
<path d="M3069 5270 c-4 -197 0 -255 17 -238 10 11 6 240 -5 251 -8 8 -11 4
-12 -13z"/>
<path d="M16645 5277 c-22 -17 -38 -117 -24 -153 9 -26 45 -44 85 -44 41 0 27
-18 -26 -31 -28 -7 -49 -18 -47 -23 5 -14 74 -26 109 -19 46 9 53 27 57 149
l3 114 -27 10 c-37 14 -108 12 -130 -3z m101 -61 c14 -29 15 -37 3 -62 -16
-32 -51 -43 -75 -24 -17 15 -19 91 -2 108 24 24 57 14 74 -22z"/>
<path d="M12269 5253 c-3 -123 1 -197 10 -206 12 -12 13 -1 13 123 -1 108 -1
110 -12 110 -5 0 -10 -12 -11 -27z"/>
<path d="M16349 5258 c-5 -80 2 -203 11 -212 7 -7 10 -3 11 15 7 205 6 219
-12 219 -5 0 -10 -10 -10 -22z"/>
<path d="M7068 5248 c-4 -30 2 -68 12 -68 9 0 17 48 12 73 -5 24 -20 21 -24
-5z"/>
<path d="M2664 5237 c-2 -7 -3 -69 -2 -138 2 -97 6 -124 17 -124 7 0 18 16 25
35 10 32 14 35 43 32 18 -2 42 -1 53 3 50 16 67 123 28 175 -20 28 -26 30 -90
30 -47 0 -70 -4 -74 -13z m130 -75 c11 -53 -12 -87 -53 -77 -31 8 -41 21 -41
58 0 48 17 69 53 65 29 -3 33 -7 41 -46z"/>
<path d="M12538 5239 c-16 -9 -18 -26 -18 -129 0 -113 1 -120 20 -120 13 0 20
7 20 20 0 12 8 21 23 24 12 2 42 8 67 13 41 7 45 10 53 48 12 56 3 126 -19
142 -21 15 -121 17 -146 2z m118 -40 c11 -19 8 -88 -6 -104 -18 -21 -57 -19
-70 4 -26 50 -4 111 40 111 16 0 32 -5 36 -11z"/>
<path d="M17030 5160 c0 -52 4 -79 10 -75 6 3 10 37 10 75 0 38 -4 72 -10 75
-6 4 -10 -23 -10 -75z"/>
<path d="M12950 5160 c0 -40 4 -70 10 -70 6 0 10 30 10 70 0 40 -4 70 -10 70
-6 0 -10 -30 -10 -70z"/>
<path d="M7267 5208 c-6 -18 4 -78 13 -78 9 0 17 48 12 73 -4 20 -18 23 -25 5z"/>
<path d="M2396 5194 c-9 -24 -7 -62 4 -69 6 -4 10 12 10 39 0 48 -4 56 -14 30z"/>
<path d="M7028 5128 c-4 -30 2 -68 12 -68 9 0 17 48 12 73 -5 24 -20 21 -24
-5z"/>
<path d="M7307 5088 c-6 -18 4 -78 13 -78 9 0 17 48 12 73 -4 20 -18 23 -25 5z"/>
<path d="M2427 5053 c-13 -12 -7 -43 12 -62 10 -10 21 -30 25 -45 9 -38 -3
-96 -20 -96 -8 0 -18 -8 -21 -17 -4 -10 -15 -24 -25 -31 -10 -7 -18 -18 -18
-24 0 -6 -7 -18 -15 -27 -33 -35 -65 -79 -65 -90 0 -6 -7 -11 -15 -11 -8 0
-17 -11 -21 -24 -3 -14 -12 -27 -20 -30 -8 -3 -14 -11 -14 -19 0 -7 -11 -23
-25 -35 -14 -12 -25 -29 -25 -37 0 -8 -7 -15 -15 -15 -8 0 -17 -11 -21 -25 -3
-14 -12 -25 -20 -25 -8 0 -14 -5 -14 -11 0 -12 -34 -59 -67 -93 -13 -13 -23
-28 -23 -34 0 -5 -7 -12 -15 -16 -8 -3 -20 -17 -25 -31 -5 -14 -14 -25 -20
-25 -5 0 -10 -7 -10 -15 0 -8 -11 -25 -25 -37 -14 -12 -25 -26 -25 -32 0 -6
-9 -17 -20 -24 -11 -7 -20 -19 -20 -27 0 -8 -5 -15 -10 -15 -6 0 -16 -12 -23
-27 -6 -16 -20 -34 -29 -41 -10 -7 -18 -20 -18 -28 0 -8 -7 -14 -15 -14 -8 0
-17 -11 -21 -25 -3 -14 -12 -25 -20 -25 -8 0 -14 -6 -14 -14 0 -14 -25 -48
-66 -90 -11 -11 -23 -29 -27 -38 -3 -10 -11 -18 -17 -18 -5 0 -10 -6 -10 -14
0 -18 -76 -96 -95 -96 -8 0 -23 9 -34 21 l-19 21 -11 -20 c-6 -12 -11 -37 -11
-57 0 -38 -42 -168 -61 -192 -12 -14 -15 -81 -4 -91 3 -3 19 10 35 28 23 26
30 43 30 76 l0 42 75 36 c77 37 93 59 60 86 -19 16 -19 46 0 54 8 3 20 17 25
31 5 14 14 25 20 25 5 0 10 7 10 15 0 8 11 25 25 37 14 12 25 26 25 32 0 6 9
17 20 24 11 7 20 19 20 27 0 8 5 15 10 15 6 0 16 12 23 28 6 15 20 33 29 40
10 7 18 20 18 28 0 8 7 14 15 14 8 0 17 11 21 25 3 14 12 25 20 25 8 0 14 7
14 14 0 8 11 27 25 42 14 15 25 33 25 40 0 8 7 14 15 14 9 0 20 11 25 25 5 14
14 25 20 25 5 0 10 6 10 13 0 7 20 35 45 62 25 28 45 55 45 60 0 6 9 16 20 23
11 7 20 19 20 27 0 8 5 15 10 15 6 0 16 12 23 28 6 15 20 33 29 40 10 7 18 20
18 28 0 8 7 14 15 14 8 0 17 11 21 24 3 14 12 27 20 30 8 3 14 11 14 19 0 7
11 23 25 35 14 12 25 29 25 37 0 8 6 15 13 15 8 0 19 11 25 25 6 14 16 25 22
25 5 0 10 6 10 14 0 13 26 47 70 92 11 12 20 26 20 33 0 6 4 11 10 11 5 0 18
10 30 22 l20 22 20 -22 c21 -22 70 -31 70 -12 0 6 -12 16 -27 23 -28 12 -93
74 -93 89 0 4 -7 8 -15 8 -9 0 -15 9 -15 24 0 44 -16 67 -33 49z"/>
<path d="M12910 5038 c0 -7 -3 -23 -6 -35 -5 -17 -2 -23 10 -23 9 0 17 9 18
20 0 11 1 25 2 32 1 6 -5 13 -11 16 -7 2 -13 -2 -13 -10z"/>
<path d="M16984 5012 c-4 -28 -12 -42 -25 -45 -11 -3 -19 -12 -19 -20 0 -9 -9
-19 -20 -22 -11 -3 -20 -13 -20 -21 0 -8 -8 -14 -19 -14 -26 0 -47 -26 -26
-34 21 -7 45 3 45 20 0 23 26 16 45 -12 9 -14 19 -23 22 -20 3 3 6 30 8 61 1
37 8 60 18 68 20 15 27 68 10 74 -8 3 -15 -10 -19 -35z"/>
<path d="M6988 5008 c-4 -30 2 -68 12 -68 9 0 17 48 12 73 -5 24 -20 21 -24
-5z"/>
<path d="M16384 5016 c-8 -20 7 -52 22 -49 15 3 15 27 0 48 -14 19 -15 19 -22
1z"/>
<path d="M3032 5008 c-7 -7 -12 -18 -12 -25 0 -14 -70 -81 -103 -98 -11 -5
-22 -16 -25 -22 -5 -18 30 -16 54 2 30 23 71 19 80 -7 3 -13 14 -31 23 -41 9
-9 23 -25 32 -35 9 -9 19 -25 22 -34 4 -10 13 -18 22 -18 8 0 15 -7 15 -15 0
-8 11 -25 25 -37 14 -12 25 -28 25 -35 0 -8 7 -16 15 -19 8 -4 15 -12 15 -20
0 -8 9 -19 20 -26 11 -7 20 -17 20 -23 0 -5 20 -32 45 -60 25 -27 45 -55 45
-62 0 -7 5 -13 10 -13 6 0 16 -11 22 -25 11 -25 38 -35 38 -14 0 11 -32 55
-65 90 -8 9 -15 21 -15 27 0 7 -9 17 -20 24 -11 7 -20 17 -20 22 0 5 -10 19
-22 32 -49 49 -65 70 -71 87 -4 9 -11 17 -16 17 -5 0 -12 11 -15 25 -4 14 -13
25 -21 25 -8 0 -15 6 -15 13 0 7 -11 23 -25 35 -14 12 -25 28 -25 35 0 7 -8
20 -17 29 -43 42 -53 56 -53 79 0 14 9 32 20 42 11 9 20 26 20 37 0 23 -10 26
-28 8z"/>
<path d="M12303 5004 c-3 -8 4 -25 16 -38 13 -14 21 -35 21 -59 0 -20 5 -39
10 -42 12 -8 60 21 60 35 0 11 -48 60 -59 60 -5 0 -11 14 -14 30 -7 32 -24 40
-34 14z"/>
<path d="M7347 4968 c-6 -18 4 -78 13 -78 9 0 17 48 12 73 -4 20 -18 23 -25 5z"/>
<path d="M12840 4930 c-19 -22 -40 -40 -46 -40 -6 0 -17 -6 -23 -14 -9 -10 -8
-15 4 -20 18 -6 45 2 45 15 0 17 29 9 40 -12 20 -36 34 -16 36 49 2 74 -7 77
-56 22z"/>
<path d="M16420 4910 c0 -42 3 -50 18 -50 18 0 52 29 52 43 0 10 -50 57 -60
57 -6 0 -10 -22 -10 -50z"/>
<path d="M7090 4901 c-5 -11 -10 -69 -10 -129 0 -131 10 -147 82 -139 64 7
120 24 129 39 31 47 34 130 7 184 -26 53 -185 87 -208 45z m140 -46 c23 -12
30 -24 35 -57 11 -74 -11 -107 -81 -122 -26 -6 -32 -3 -42 19 -15 33 -15 117
0 150 13 29 44 33 88 10z"/>
<path d="M6948 4888 c-4 -30 2 -68 12 -68 9 0 17 48 12 73 -5 24 -20 21 -24
-5z"/>
<path d="M12410 4880 c0 -15 35 -29 49 -20 11 6 9 10 -7 19 -25 14 -42 14 -42
1z"/>
<path d="M16490 4880 c0 -15 35 -29 49 -20 11 6 9 10 -7 19 -25 14 -42 14 -42
1z"/>
<path d="M7387 4848 c-6 -18 4 -78 13 -78 9 0 17 48 12 73 -4 20 -18 23 -25 5z"/>
<path d="M12311 4846 c-15 -18 -11 -48 6 -53 7 -3 15 7 19 22 8 33 -8 52 -25
31z"/>
<path d="M2644 4840 c-60 -11 -1 -22 113 -22 110 1 134 4 120 19 -8 7 -192 10
-233 3z"/>
<path d="M12488 4839 c-22 -14 18 -22 106 -21 144 1 148 1 143 15 -3 9 -36 12
-121 12 -65 0 -122 -3 -128 -6z"/>
<path d="M16390 4825 c-6 -14 -10 -29 -10 -32 0 -2 -10 -13 -21 -22 -16 -13
-20 -23 -14 -41 7 -23 8 -23 21 -5 8 10 14 26 14 36 0 9 6 19 14 22 16 6 27
55 15 63 -5 3 -14 -7 -19 -21z"/>
<path d="M16568 4839 c-21 -13 13 -20 104 -20 139 -2 150 0 145 14 -3 9 -36
12 -121 12 -65 0 -122 -3 -128 -6z"/>
<path d="M12908 4813 c-6 -24 9 -56 23 -48 13 9 11 28 -4 50 -13 17 -14 17
-19 -2z"/>
<path d="M16987 4823 c-12 -11 -8 -40 7 -52 19 -16 30 2 22 35 -6 24 -17 30
-29 17z"/>
<path d="M6908 4768 c-4 -30 2 -68 12 -68 9 0 17 48 12 73 -5 24 -20 21 -24
-5z"/>
<path d="M12269 4757 c-9 -20 -9 -31 -2 -38 16 -16 37 26 24 48 -8 16 -11 14
-22 -10z"/>
<path d="M12940 4741 c0 -30 11 -51 26 -51 17 0 18 24 4 51 -14 24 -30 25 -30
0z"/>
<path d="M17028 4755 c-9 -9 7 -60 18 -57 10 3 7 43 -5 55 -4 4 -10 5 -13 2z"/>
<path d="M7427 4728 c-6 -18 4 -78 13 -78 9 0 17 48 12 73 -4 20 -18 23 -25 5z"/>
<path d="M12228 4685 c-9 -20 -9 -28 1 -38 15 -15 31 6 31 41 0 30 -18 28 -32
-3z"/>
<path d="M16312 4688 c-7 -7 -12 -22 -12 -35 0 -13 -4 -23 -10 -23 -15 0 -31
-37 -23 -56 6 -16 7 -16 20 2 7 10 13 26 13 36 0 10 5 18 10 18 16 0 35 49 24
60 -7 7 -14 6 -22 -2z"/>
<path d="M17064 4677 c-8 -22 12 -71 26 -62 14 9 12 38 -4 61 -14 18 -15 18
-22 1z"/>
<path d="M12992 4650 c2 -19 8 -33 13 -30 12 6 8 41 -6 55 -7 7 -9 -1 -7 -25z"/>
<path d="M6868 4648 c-4 -30 2 -68 12 -68 9 0 17 48 12 73 -5 24 -20 21 -24
-5z"/>
<path d="M12189 4607 c-9 -20 -9 -31 -2 -38 15 -15 33 20 23 46 -7 19 -8 18
-21 -8z"/>
<path d="M7467 4608 c-6 -18 4 -78 13 -78 9 0 17 48 12 73 -4 20 -18 23 -25 5z"/>
<path d="M13026 4601 c-11 -17 5 -61 21 -61 12 0 14 7 8 28 -8 33 -20 47 -29
33z"/>
<path d="M17106 4602 c-3 -6 -1 -23 6 -39 l12 -28 4 29 c4 30 -11 56 -22 38z"/>
<path d="M12149 4533 c-7 -18 -6 -30 1 -37 14 -14 30 9 30 42 0 30 -18 28 -31
-5z"/>
<path d="M6826 4515 c-4 -20 -4 -40 -1 -45 4 -6 136 -10 351 -10 287 0 344 2
344 14 0 20 -26 27 -56 16 -29 -12 -573 -13 -591 -2 -6 4 -15 20 -18 35 -10
37 -21 34 -29 -8z"/>
<path d="M16232 4533 c-7 -12 -12 -27 -12 -34 0 -6 -6 -17 -14 -23 -17 -13
-25 -50 -11 -53 6 -2 14 9 19 24 5 15 18 35 30 44 17 14 18 21 10 40 l-11 24
-11 -22z"/>
<path d="M13068 4524 c-9 -9 5 -56 18 -61 8 -3 14 -13 14 -22 0 -10 6 -26 14
-36 13 -18 14 -18 21 5 6 18 2 28 -13 41 -12 9 -24 28 -28 43 -6 27 -17 39
-26 30z"/>
<path d="M17140 4514 c0 -21 18 -54 30 -54 11 0 13 30 4 54 -8 21 -34 21 -34
0z"/>
<path d="M12112 4457 c-7 -16 -12 -31 -12 -34 0 -3 -7 -11 -14 -17 -23 -17
-32 -66 -13 -66 9 0 18 13 23 32 3 18 13 38 21 43 9 7 13 22 11 40 l-4 30 -12
-28z"/>
<path d="M17184 4446 c-3 -8 0 -25 7 -37 12 -23 12 -23 19 -4 7 18 -4 55 -16
55 -2 0 -7 -6 -10 -14z"/>
<path d="M16144 4366 c-3 -19 -12 -37 -20 -40 -8 -3 -14 -19 -14 -36 0 -36 15
-32 25 7 3 15 13 32 20 37 8 6 17 23 21 39 5 21 3 27 -9 27 -10 0 -18 -13 -23
-34z"/>
<path d="M13147 4366 c-8 -19 8 -56 23 -56 6 0 10 -11 10 -24 0 -30 27 -55 36
-33 6 17 -12 57 -26 57 -6 0 -10 8 -10 18 0 10 -6 26 -13 36 -13 18 -14 18
-20 2z"/>
<path d="M17225 4370 c-8 -13 3 -50 15 -50 15 0 22 19 15 40 -7 22 -20 26 -30
10z"/>
<path d="M3426 4362 c-3 -5 1 -18 9 -28 14 -18 14 -18 15 3 0 23 -15 39 -24
25z"/>
<path d="M12030 4305 c-6 -14 -10 -29 -10 -32 0 -2 -10 -13 -21 -22 -16 -13
-20 -23 -14 -41 7 -23 8 -23 21 -5 8 10 14 26 14 36 0 9 6 19 14 22 16 6 27
55 15 63 -5 3 -14 -7 -19 -21z"/>
<path d="M3460 4305 c0 -8 9 -24 20 -35 11 -11 20 -24 20 -30 0 -5 9 -15 20
-22 11 -7 20 -17 20 -22 0 -5 10 -19 23 -32 33 -34 67 -81 67 -93 0 -6 6 -11
14 -11 8 0 17 -11 20 -25 4 -14 13 -25 21 -25 8 0 15 -5 15 -11 0 -11 32 -55
65 -90 8 -9 15 -21 15 -27 0 -6 8 -17 18 -24 10 -7 21 -21 25 -30 3 -10 13
-18 22 -18 8 0 15 -7 15 -15 0 -8 11 -25 25 -37 14 -12 25 -28 25 -35 0 -8 6
-16 14 -19 8 -3 17 -16 20 -30 4 -13 13 -24 21 -24 8 0 15 -6 15 -14 0 -8 8
-21 18 -28 25 -19 62 -74 62 -93 0 -9 -13 -21 -30 -26 -16 -6 -30 -15 -30 -19
0 -10 94 -60 112 -60 18 0 68 -48 68 -65 0 -8 -6 -15 -14 -15 -15 0 -26 -21
-26 -52 0 -30 24 -16 35 20 5 18 15 32 22 32 7 0 17 9 23 19 5 11 19 23 30 26
11 3 20 13 20 21 0 9 10 14 28 14 16 0 37 6 48 14 18 14 18 15 -8 21 -27 7
-68 -8 -68 -25 0 -14 -67 -13 -75 1 -4 6 -11 42 -16 81 -5 39 -10 73 -12 74
-1 2 -22 -4 -46 -12 -45 -15 -71 -7 -71 22 0 8 -5 14 -10 14 -6 0 -15 11 -20
25 -5 14 -16 25 -25 25 -8 0 -15 7 -15 15 0 8 -11 25 -25 37 -14 12 -25 28
-25 35 0 8 -7 16 -15 19 -8 4 -15 12 -15 20 0 8 -9 19 -20 26 -11 7 -20 17
-20 23 0 5 -20 32 -45 60 -25 27 -45 55 -45 62 0 7 -5 13 -10 13 -6 0 -16 11
-22 25 -6 14 -17 25 -25 25 -7 0 -13 6 -13 14 0 8 -8 21 -18 28 -9 7 -23 25
-29 41 -7 15 -17 27 -23 27 -5 0 -10 7 -10 15 0 8 -9 20 -20 27 -11 7 -20 17
-20 22 0 5 -10 19 -22 32 -34 34 -68 81 -68 93 0 6 -7 11 -15 11 -8 0 -15 -7
-15 -15z"/>
<path d="M17268 4293 c-6 -24 9 -56 23 -48 13 9 11 28 -4 50 -13 17 -14 17
-19 -2z"/>
<path d="M16066 4234 c-9 -24 -7 -54 4 -54 13 0 32 48 24 61 -8 14 -21 11 -28
-7z"/>
<path d="M17300 4221 c0 -30 11 -51 26 -51 17 0 18 24 4 51 -14 24 -30 25 -30
0z"/>
<path d="M13228 4213 c-6 -24 9 -56 23 -48 13 9 11 28 -4 50 -13 17 -14 17
-19 -2z"/>
<path d="M11951 4162 c-6 -11 -11 -28 -11 -36 0 -9 -4 -16 -10 -16 -14 0 -32
-40 -26 -57 9 -22 36 3 36 33 0 13 4 24 10 24 17 0 32 39 22 57 -9 14 -11 14
-21 -5z"/>
<path d="M16032 4164 c-5 -11 -6 -28 -2 -39 7 -19 8 -18 21 8 15 33 -2 62 -19
31z"/>
<path d="M13260 4138 c0 -33 16 -56 30 -42 7 7 8 19 1 37 -13 33 -31 35 -31 5z"/>
<path d="M17352 4130 c2 -19 8 -33 13 -30 12 6 8 41 -6 55 -7 7 -9 -1 -7 -25z"/>
<path d="M15992 4088 c-7 -7 -12 -22 -12 -35 0 -13 -4 -23 -10 -23 -15 0 -31
-37 -23 -56 6 -16 7 -16 20 2 7 10 13 26 13 36 0 10 5 18 10 18 16 0 35 49 24
60 -7 7 -14 6 -22 -2z"/>
<path d="M17384 4077 c-8 -22 12 -71 26 -62 14 9 12 38 -4 61 -14 18 -15 18
-22 1z"/>
<path d="M13310 4050 c0 -17 6 -33 14 -36 8 -3 17 -21 20 -40 5 -21 13 -34 23
-34 12 0 14 6 9 28 -4 15 -13 32 -21 38 -7 5 -17 22 -20 37 -10 39 -25 43 -25
7z"/>
<path d="M11869 4007 c-9 -20 -9 -31 -2 -38 15 -15 33 20 23 46 -7 19 -8 18
-21 -8z"/>
<path d="M17428 4005 c-9 -9 7 -60 18 -57 10 3 7 43 -5 55 -4 4 -10 5 -13 2z"/>
<path d="M11829 3933 c-7 -18 -6 -30 1 -37 14 -14 30 9 30 42 0 30 -18 28 -31
-5z"/>
<path d="M15911 3932 c-7 -13 -10 -31 -6 -40 5 -14 7 -14 22 1 13 12 14 21 6
39 l-10 23 -12 -23z"/>
<path d="M17465 3930 c-10 -17 4 -62 18 -57 18 5 20 42 3 56 -10 9 -16 9 -21
1z"/>
<path d="M13388 3924 c-9 -9 5 -56 18 -61 8 -3 14 -13 14 -22 0 -10 6 -26 14
-36 13 -18 14 -18 21 5 6 18 2 28 -13 41 -12 9 -24 28 -28 43 -6 27 -17 39
-26 30z"/>
<path d="M11792 3857 c-7 -16 -12 -31 -12 -34 0 -3 -7 -11 -14 -17 -23 -17
-32 -66 -13 -66 9 0 18 13 23 32 3 18 13 38 21 43 9 7 13 22 11 40 l-4 30 -12
-28z"/>
<path d="M15875 3868 c-9 -28 -10 -47 -1 -50 13 -4 27 50 15 58 -5 3 -11 -1
-14 -8z"/>
<path d="M17507 3846 c-8 -21 10 -59 24 -51 13 9 11 28 -4 49 -13 18 -14 18
-20 2z"/>
<path d="M15829 3786 c-7 -14 -8 -33 -5 -43 7 -17 8 -17 22 1 16 23 18 52 4
61 -5 3 -15 -5 -21 -19z"/>
<path d="M17540 3768 c0 -35 16 -56 31 -41 10 10 10 18 1 38 -14 31 -32 33
-32 3z"/>
<path d="M13467 3773 c-12 -12 -7 -33 12 -52 10 -10 21 -34 25 -54 6 -33 4
-37 -26 -53 l-32 -17 29 -24 c43 -34 107 -78 128 -86 21 -8 22 -33 3 -69 -8
-15 -15 -38 -16 -50 -6 -63 8 -78 27 -28 15 40 43 40 43 1 0 -40 18 -84 30
-76 16 10 11 56 -10 100 -11 22 -19 52 -20 66 0 14 -7 34 -15 45 -10 13 -14
45 -15 101 0 45 -3 88 -6 97 -9 23 -29 20 -48 -6 -16 -22 -17 -22 -29 -4 -6
11 -20 28 -29 38 -10 10 -18 26 -18 37 0 21 -23 45 -33 34z"/>
<path d="M11710 3705 c-6 -14 -10 -31 -10 -36 0 -12 -24 -11 -37 2 -6 6 -21 9
-34 7 -23 -3 -24 -8 -30 -93 -6 -90 -12 -116 -43 -187 -18 -43 -21 -84 -6 -93
6 -4 17 9 25 28 8 19 21 37 30 40 11 5 15 21 15 62 0 30 4 55 10 55 5 0 29 15
53 33 24 17 57 42 73 54 l29 21 -37 16 c-37 16 -47 29 -29 40 12 8 20 66 9 72
-4 3 -13 -7 -18 -21z"/>
<path d="M15796 3723 c-3 -3 -6 -19 -6 -35 0 -31 -24 -38 -59 -16 -38 23 -51
4 -51 -75 0 -68 -21 -168 -40 -192 -8 -10 -13 -45 -11 -77 2 -29 19 -20 26 13
4 19 15 33 26 36 16 4 19 15 19 57 0 40 4 53 19 61 43 23 140 91 141 98 0 4
-16 15 -35 23 -36 15 -41 23 -26 40 22 24 20 90 -3 67z"/>
<path d="M17589 3695 c0 -11 0 -30 1 -42 1 -15 -8 -27 -29 -38 -17 -8 -31 -17
-31 -19 0 -10 141 -106 155 -106 19 0 20 -36 1 -72 -14 -27 -19 -55 -17 -90 2
-29 19 -20 26 13 4 19 15 33 26 36 23 6 26 68 5 98 -8 12 -15 55 -17 107 -5
102 -17 124 -51 89 -23 -25 -21 -26 -55 26 -11 17 -12 17 -14 -2z"/>
<path d="M4565 3440 c-33 -6 -26 -14 23 -25 25 -5 32 -3 32 8 0 19 -18 25 -55
17z"/>
<path d="M4626 3401 c-4 -6 3 -15 14 -21 12 -6 30 -20 40 -30 10 -10 24 -28
30 -40 14 -26 33 -16 24 13 -14 45 -94 102 -108 78z"/>
<path d="M15709 3345 c-2 -58 6 -79 21 -55 10 16 3 59 -11 75 -5 5 -9 -3 -10
-20z"/>
<path d="M17749 3345 c-2 -58 6 -79 21 -55 10 16 3 59 -11 75 -5 5 -9 -3 -10
-20z"/>
<path d="M11628 3338 c-5 -31 2 -68 12 -68 11 0 16 29 12 63 -5 33 -19 36 -24
5z"/>
<path d="M1428 3333 c-5 -25 3 -73 12 -73 10 0 16 38 12 68 -4 26 -19 29 -24
5z"/>
<path d="M1308 3283 c-5 -25 3 -73 12 -73 9 0 19 60 13 78 -7 18 -21 15 -25
-5z"/>
<path d="M4749 3283 c-3 -21 4 -59 12 -67 5 -6 9 4 9 26 0 20 -4 40 -10 43 -5
3 -10 3 -11 -2z"/>
<path d="M11511 3266 c-14 -34 -11 -82 4 -79 17 3 29 61 18 86 -11 22 -11 22
-22 -7z"/>
<path d="M13548 3253 c-4 -34 1 -63 12 -63 10 0 17 37 12 68 -5 31 -19 28 -24
-5z"/>
<path d="M15588 3253 c-4 -34 1 -63 12 -63 10 0 17 37 12 68 -5 31 -19 28 -24
-5z"/>
<path d="M17628 3253 c-4 -34 1 -63 12 -63 10 0 17 37 12 68 -5 31 -19 28 -24
-5z"/>
<path d="M4115 3241 c-8 -15 -9 -236 -1 -250 17 -27 22 6 19 126 -2 70 -5 129
-7 131 -2 2 -7 -1 -11 -7z"/>
<path d="M13705 3227 c-8 -30 7 -84 21 -77 13 7 10 78 -4 92 -8 8 -13 4 -17
-15z"/>
<path d="M15749 3225 c-2 -58 6 -79 21 -55 10 16 3 59 -11 75 -5 5 -9 -3 -10
-20z"/>
<path d="M17789 3225 c-2 -58 6 -79 21 -55 10 16 3 59 -11 75 -5 5 -9 -3 -10
-20z"/>
<path d="M11668 3218 c-5 -31 2 -68 12 -68 11 0 16 29 12 63 -5 33 -19 36 -24
5z"/>
<path d="M1468 3213 c-5 -25 3 -73 12 -73 10 0 16 38 12 68 -4 26 -19 29 -24
5z"/>
<path d="M4346 3191 c-7 -12 9 -57 23 -66 18 -10 13 -50 -9 -75 -22 -25 -26
-55 -10 -65 6 -4 20 5 31 19 26 33 62 34 83 1 9 -14 21 -23 26 -20 17 10 11
50 -10 68 -11 9 -20 26 -20 37 0 11 9 28 20 37 20 18 27 57 11 67 -4 3 -16 -3
-26 -14 -24 -26 -71 -26 -87 0 -14 22 -24 25 -32 11z"/>
<path d="M1268 3163 c-5 -25 3 -73 12 -73 9 0 19 60 13 78 -7 18 -21 15 -25
-5z"/>
<path d="M11471 3146 c-14 -34 -11 -82 4 -79 17 3 29 61 18 86 -11 22 -11 22
-22 -7z"/>
<path d="M13508 3133 c-4 -34 1 -63 12 -63 10 0 17 37 12 68 -5 31 -19 28 -24
-5z"/>
<path d="M15548 3133 c-4 -34 1 -63 12 -63 10 0 17 37 12 68 -5 31 -19 28 -24
-5z"/>
<path d="M17588 3133 c-4 -34 1 -63 12 -63 10 0 17 37 12 68 -5 31 -19 28 -24
-5z"/>
<path d="M13745 3107 c-8 -30 7 -84 21 -77 13 7 10 78 -4 92 -8 8 -13 4 -17
-15z"/>
<path d="M15789 3105 c-2 -58 6 -79 21 -55 10 16 3 59 -11 75 -5 5 -9 -3 -10
-20z"/>
<path d="M17829 3105 c-2 -58 6 -79 21 -55 10 16 3 59 -11 75 -5 5 -9 -3 -10
-20z"/>
<path d="M11708 3098 c-5 -31 2 -68 12 -68 11 0 16 29 12 63 -5 33 -19 36 -24
5z"/>
<path d="M1508 3093 c-5 -25 3 -73 12 -73 10 0 16 38 12 68 -4 26 -19 29 -24
5z"/>
<path d="M1228 3043 c-5 -25 3 -73 12 -73 9 0 19 60 13 78 -7 18 -21 15 -25
-5z"/>
<path d="M11431 3026 c-14 -34 -11 -82 4 -79 17 3 29 61 18 86 -11 22 -11 22
-22 -7z"/>
<path d="M13468 3013 c-4 -34 1 -63 12 -63 10 0 17 37 12 68 -5 31 -19 28 -24
-5z"/>
<path d="M15508 3013 c-4 -34 1 -63 12 -63 10 0 17 37 12 68 -5 31 -19 28 -24
-5z"/>
<path d="M17548 3013 c-4 -34 1 -63 12 -63 10 0 17 37 12 68 -5 31 -19 28 -24
-5z"/>
<path d="M4751 3012 c-15 -29 -14 -62 3 -62 18 0 29 46 17 67 -8 14 -10 14
-20 -5z"/>
<path d="M13785 2987 c-8 -30 7 -84 21 -77 13 7 10 78 -4 92 -8 8 -13 4 -17
-15z"/>
<path d="M15829 2985 c-2 -58 6 -79 21 -55 10 16 3 59 -11 75 -5 5 -9 -3 -10
-20z"/>
<path d="M17869 2985 c-2 -58 6 -79 21 -55 10 16 3 59 -11 75 -5 5 -9 -3 -10
-20z"/>
<path d="M11748 2978 c-5 -31 2 -68 12 -68 11 0 16 29 12 63 -5 33 -19 36 -24
5z"/>
<path d="M1548 2973 c-5 -25 3 -73 12 -73 10 0 16 38 12 68 -4 26 -19 29 -24
5z"/>
<path d="M4140 2956 c0 -7 9 -24 19 -38 11 -13 21 -37 23 -53 2 -25 9 -31 38
-37 19 -3 45 -9 58 -13 16 -6 22 -3 22 8 0 9 -9 18 -19 22 -25 8 -98 81 -106
106 -7 22 -35 26 -35 5z"/>
<path d="M1188 2923 c-5 -25 3 -73 12 -73 9 0 19 60 13 78 -7 18 -21 15 -25
-5z"/>
<path d="M4710 2930 c0 -15 -63 -74 -93 -87 -15 -7 -27 -17 -27 -23 0 -15 47
-12 64 5 22 22 41 18 56 -12 12 -26 13 -27 20 -8 4 11 4 30 -1 43 -5 12 -4 33
1 48 14 35 13 44 -5 44 -8 0 -15 -4 -15 -10z"/>
<path d="M11391 2906 c-14 -34 -11 -82 4 -79 17 3 29 61 18 86 -11 22 -11 22
-22 -7z"/>
<path d="M13428 2893 c-4 -34 1 -63 12 -63 10 0 17 37 12 68 -5 31 -19 28 -24
-5z"/>
<path d="M15468 2893 c-4 -34 1 -63 12 -63 10 0 17 37 12 68 -5 31 -19 28 -24
-5z"/>
<path d="M17508 2893 c-4 -34 1 -63 12 -63 10 0 17 37 12 68 -5 31 -19 28 -24
-5z"/>
<path d="M1371 2869 c-11 -12 -23 -36 -27 -53 -4 -17 -15 -47 -25 -66 -11 -19
-19 -42 -19 -50 0 -8 -7 -28 -15 -44 -19 -36 -19 -36 9 -36 14 0 33 11 44 25
15 19 29 25 60 25 31 0 45 -6 60 -25 12 -15 30 -25 46 -25 30 0 32 7 11 34 -8
11 -15 29 -15 41 0 11 -6 30 -14 41 -8 11 -19 38 -25 60 -11 42 -45 94 -61 94
-5 0 -18 -10 -29 -21z m43 -85 c12 -31 6 -54 -13 -54 -27 0 -33 13 -21 44 11
29 25 34 34 10z"/>
<path d="M11572 2862 c-11 -15 -25 -47 -32 -72 -7 -25 -16 -50 -21 -56 -5 -6
-16 -33 -24 -60 -11 -37 -12 -50 -2 -56 19 -12 24 -10 47 22 18 25 28 30 65
30 34 0 46 -5 58 -24 19 -28 56 -40 64 -21 2 8 -2 24 -11 37 -9 12 -16 32 -16
43 0 11 -8 36 -19 55 -10 19 -22 50 -25 67 -7 29 -38 63 -58 63 -3 0 -15 -12
-26 -28z m48 -88 c11 -29 6 -44 -15 -44 -20 0 -28 17 -21 46 8 31 24 31 36 -2z"/>
<path d="M13825 2867 c-8 -30 7 -84 21 -77 13 7 10 78 -4 92 -8 8 -13 4 -17
-15z"/>
<path d="M15869 2865 c-2 -58 6 -79 21 -55 10 16 3 59 -11 75 -5 5 -9 -3 -10
-20z"/>
<path d="M17909 2865 c-2 -58 6 -79 21 -55 10 16 3 59 -11 75 -5 5 -9 -3 -10
-20z"/>
<path d="M11788 2858 c-5 -31 2 -68 12 -68 11 0 16 29 12 63 -5 33 -19 36 -24
5z"/>
<path d="M1588 2853 c-5 -25 3 -73 12 -73 10 0 16 38 12 68 -4 26 -19 29 -24
5z"/>
<path d="M13578 2853 c-27 -29 -26 -222 0 -246 21 -19 70 -22 125 -6 48 13 62
44 48 109 -5 25 -10 64 -9 88 0 24 -4 48 -9 53 -5 5 -38 12 -74 15 -55 6 -66
4 -81 -13z m116 -45 c12 -20 3 -32 -29 -42 -31 -9 -49 8 -41 39 5 21 12 26 33
23 14 -2 31 -11 37 -20z m-16 -94 c39 -27 23 -84 -23 -84 -29 0 -45 36 -33 73
11 31 24 34 56 11z"/>
<path d="M17632 2858 c-8 -8 -12 -51 -12 -129 0 -147 0 -147 113 -131 109 15
127 34 127 131 0 81 -18 111 -78 129 -51 15 -135 15 -150 0z m133 -43 c58 -24
72 -93 30 -143 -27 -33 -76 -47 -106 -32 -16 9 -19 22 -19 90 0 65 3 81 18 89
23 14 37 13 77 -4z"/>
<path d="M15658 2842 c-44 -18 -76 -61 -83 -110 -7 -56 7 -123 31 -143 28 -23
88 -39 124 -33 69 12 85 50 18 41 -49 -7 -101 12 -117 41 -20 38 -13 98 15
131 22 27 32 31 74 31 54 0 73 16 45 37 -20 14 -78 16 -107 5z"/>
<path d="M1148 2803 c-5 -25 3 -73 12 -73 9 0 19 60 13 78 -7 18 -21 15 -25
-5z"/>
<path d="M4151 2802 c-6 -11 -11 -28 -11 -36 0 -9 -4 -16 -10 -16 -14 0 -32
-40 -26 -57 9 -22 36 3 36 33 0 13 4 24 10 24 17 0 32 39 22 57 -9 14 -11 14
-21 -5z"/>
<path d="M4314 2799 c-9 -16 20 -21 133 -20 68 0 120 4 126 10 8 8 4 11 -13
11 -14 0 -74 2 -133 3 -59 2 -110 0 -113 -4z"/>
<path d="M11351 2786 c-14 -34 -11 -82 4 -79 17 3 29 61 18 86 -11 22 -11 22
-22 -7z"/>
<path d="M13388 2773 c-4 -34 1 -63 12 -63 10 0 17 37 12 68 -5 31 -19 28 -24
-5z"/>
<path d="M15428 2773 c-4 -34 1 -63 12 -63 10 0 17 37 12 68 -5 31 -19 28 -24
-5z"/>
<path d="M17468 2773 c-4 -34 1 -63 12 -63 10 0 17 37 12 68 -5 31 -19 28 -24
-5z"/>
<path d="M4744 2767 c-6 -17 12 -57 26 -57 6 0 10 -8 10 -18 0 -10 6 -26 13
-36 13 -18 14 -18 20 -2 8 19 -8 56 -23 56 -6 0 -10 11 -10 24 0 30 -27 55
-36 33z"/>
<path d="M13865 2747 c-8 -30 7 -84 21 -77 13 7 10 78 -4 92 -8 8 -13 4 -17
-15z"/>
<path d="M15909 2745 c-2 -58 6 -79 21 -55 10 16 3 59 -11 75 -5 5 -9 -3 -10
-20z"/>
<path d="M17949 2745 c-2 -58 6 -79 21 -55 10 16 3 59 -11 75 -5 5 -9 -3 -10
-20z"/>
<path d="M11828 2738 c-5 -31 2 -68 12 -68 11 0 16 29 12 63 -5 33 -19 36 -24
5z"/>
<path d="M1628 2733 c-5 -25 3 -73 12 -73 10 0 16 38 12 68 -4 26 -19 29 -24
5z"/>
<path d="M1108 2683 c-5 -25 3 -73 12 -73 9 0 19 60 13 78 -7 18 -21 15 -25
-5z"/>
<path d="M11311 2666 c-14 -34 -11 -82 4 -79 17 3 29 61 18 86 -11 22 -11 22
-22 -7z"/>
<path d="M13348 2653 c-4 -34 1 -63 12 -63 10 0 17 37 12 68 -5 31 -19 28 -24
-5z"/>
<path d="M15388 2653 c-4 -34 1 -63 12 -63 10 0 17 37 12 68 -5 31 -19 28 -24
-5z"/>
<path d="M17428 2653 c-4 -34 1 -63 12 -63 10 0 17 37 12 68 -5 31 -19 28 -24
-5z"/>
<path d="M4069 2647 c-9 -20 -9 -31 -2 -38 15 -15 33 20 23 46 -7 19 -8 18
-21 -8z"/>
<path d="M13905 2627 c-8 -30 7 -84 21 -77 13 7 10 78 -4 92 -8 8 -13 4 -17
-15z"/>
<path d="M15949 2625 c-2 -58 6 -79 21 -55 10 16 3 59 -11 75 -5 5 -9 -3 -10
-20z"/>
<path d="M17989 2625 c-2 -58 6 -79 21 -55 10 16 3 59 -11 75 -5 5 -9 -3 -10
-20z"/>
<path d="M11868 2618 c-5 -31 2 -68 12 -68 11 0 16 29 12 63 -5 33 -19 36 -24
5z"/>
<path d="M1668 2613 c-5 -25 3 -73 12 -73 10 0 16 38 12 68 -4 26 -19 29 -24
5z"/>
<path d="M4825 2610 c-6 -18 -3 -28 12 -40 11 -9 24 -29 30 -45 5 -17 14 -28
19 -25 12 7 5 43 -12 56 -8 6 -14 18 -14 26 0 8 -6 23 -14 33 -13 18 -14 18
-21 -5z"/>
<path d="M4029 2573 c-7 -18 -6 -30 1 -37 14 -14 30 9 30 42 0 30 -18 28 -31
-5z"/>
<path d="M1068 2563 c-5 -25 3 -73 12 -73 9 0 19 60 13 78 -7 18 -21 15 -25
-5z"/>
<path d="M11271 2547 c-6 -16 -11 -43 -11 -62 0 -19 -5 -37 -10 -40 -6 -4 -8
-11 -5 -16 8 -12 682 -12 690 0 7 13 -5 91 -15 91 -4 0 -11 -15 -14 -34 -4
-19 -14 -37 -22 -40 -9 -3 -141 -6 -294 -6 -308 0 -307 0 -295 63 4 20 2 44
-3 54 -10 16 -12 15 -21 -10z"/>
<path d="M13309 2538 c-1 -41 -5 -83 -10 -98 -3 -13 39 -15 336 -15 l340 0 3
26 c2 14 -2 38 -8 54 -9 23 -13 26 -20 15 -6 -8 -10 -27 -10 -41 0 -15 -7 -30
-16 -33 -9 -3 -141 -6 -294 -6 -299 0 -304 1 -300 52 4 43 0 68 -10 68 -5 0
-10 -10 -11 -22z"/>
<path d="M15349 2538 c-1 -41 -5 -83 -10 -98 -3 -13 39 -15 336 -15 l340 0 -2
44 c-3 59 -19 73 -27 23 -3 -23 -13 -42 -22 -46 -8 -3 -141 -6 -294 -6 -299 0
-304 1 -300 52 4 43 0 68 -10 68 -5 0 -10 -10 -11 -22z"/>
<path d="M17389 2538 c-1 -41 -5 -83 -10 -98 -3 -13 40 -15 339 -18 l342 -2 0
55 c0 67 -24 78 -34 16 -3 -22 -13 -41 -22 -45 -8 -3 -141 -6 -294 -6 -299 0
-304 1 -300 52 4 43 0 68 -10 68 -5 0 -10 -10 -11 -22z"/>
<path d="M3992 2497 c-7 -16 -12 -31 -12 -34 0 -3 -7 -11 -14 -17 -23 -17 -32
-66 -13 -66 9 0 18 13 23 32 3 18 13 38 21 43 9 7 13 22 11 40 l-4 30 -12 -28z"/>
<path d="M1705 2480 c-4 -19 -14 -32 -28 -35 -17 -5 -466 -1 -621 5 -35 1 -46
-8 -26 -20 21 -13 697 -13 705 0 8 13 -5 80 -15 80 -5 0 -11 -14 -15 -30z"/>
<path d="M4904 2453 c4 -16 13 -33 21 -39 7 -5 17 -22 20 -37 10 -39 25 -43
25 -7 0 17 -6 33 -14 36 -8 3 -17 21 -20 40 -5 21 -13 34 -23 34 -12 0 -14 -6
-9 -27z"/>
<path d="M3910 2345 c-6 -14 -10 -29 -10 -32 0 -2 -10 -13 -21 -22 -16 -13
-20 -23 -14 -41 7 -23 8 -23 21 -5 8 10 14 26 14 36 0 9 6 19 14 22 16 6 27
55 15 63 -5 3 -14 -7 -19 -21z"/>
<path d="M4980 2314 c0 -21 18 -54 30 -54 11 0 13 30 4 54 -8 21 -34 21 -34 0z"/>
<path d="M5024 2246 c-3 -8 0 -25 7 -37 12 -23 12 -23 19 -4 7 18 -4 55 -16
55 -2 0 -7 -6 -10 -14z"/>
<path d="M3832 2208 c-7 -7 -12 -22 -12 -35 0 -13 -4 -23 -10 -23 -15 0 -31
-37 -23 -56 6 -16 7 -16 20 2 7 10 13 26 13 36 0 10 5 18 10 18 16 0 35 49 24
60 -7 7 -14 6 -22 -2z"/>
<path d="M5064 2166 c-6 -17 12 -56 26 -56 6 0 10 9 10 19 0 43 -24 68 -36 37z"/>
<path d="M5104 2096 c-3 -8 0 -25 6 -37 11 -20 13 -20 22 -6 5 11 5 24 -2 37
-13 24 -19 25 -26 6z"/>
<path d="M3752 2053 c-7 -12 -12 -27 -12 -34 0 -6 -6 -17 -14 -23 -17 -13 -25
-50 -11 -53 6 -2 14 9 19 24 5 15 18 35 30 44 17 14 18 21 10 40 l-11 24 -11
-22z"/>
<path d="M5147 2023 c-12 -11 -8 -40 7 -52 19 -16 30 2 22 35 -6 24 -17 30
-29 17z"/>
<path d="M5188 1955 c-9 -9 7 -60 18 -57 10 3 7 43 -5 55 -4 4 -10 5 -13 2z"/>
<path d="M3664 1886 c-3 -19 -12 -37 -20 -40 -8 -3 -14 -19 -14 -36 0 -36 15
-32 25 7 3 15 13 32 20 37 8 6 17 23 21 39 5 21 3 27 -9 27 -10 0 -18 -13 -23
-34z"/>
<path d="M5224 1877 c-8 -22 12 -71 26 -62 14 9 12 38 -4 61 -14 18 -15 18
-22 1z"/>
<path d="M5266 1802 c-3 -6 -1 -23 6 -39 l12 -28 4 29 c4 30 -11 56 -22 38z"/>
<path d="M3586 1754 c-9 -24 -7 -54 4 -54 13 0 32 48 24 61 -8 14 -21 11 -28
-7z"/>
<path d="M5300 1714 c0 -21 18 -54 30 -54 11 0 13 30 4 54 -8 21 -34 21 -34 0z"/>
<path d="M3552 1684 c-5 -11 -6 -28 -2 -39 7 -19 8 -18 21 8 15 33 -2 62 -19
31z"/>
<path d="M5347 1654 c-4 -4 -7 -22 -7 -39 0 -24 -6 -35 -25 -43 -31 -14 -32
-28 -2 -43 12 -7 24 -15 27 -18 12 -14 99 -71 109 -71 15 0 14 -7 -9 -72 -16
-47 -19 -88 -5 -88 2 0 17 14 34 31 35 35 40 76 16 123 -9 16 -18 69 -22 118
-3 49 -10 91 -16 95 -5 3 -18 -5 -28 -18 l-19 -24 -22 28 c-13 16 -27 25 -31
21z"/>
<path d="M3440 1619 c0 -58 -27 -211 -41 -239 -20 -38 -25 -85 -9 -95 5 -3 23
9 40 27 25 27 30 40 28 76 -2 49 10 64 100 121 59 38 65 56 22 66 -16 4 -30
13 -30 21 0 8 -12 19 -26 24 -34 13 -84 13 -84 -1z"/>
<path d="M5505 1320 c-4 -6 -4 -32 0 -56 8 -59 31 -53 28 6 -2 46 -16 70 -28
50z"/>
<path d="M3468 1293 c-5 -25 3 -73 12 -73 10 0 16 38 12 68 -4 26 -19 29 -24
5z"/>
<path d="M3344 1225 c-7 -38 0 -65 15 -65 12 0 25 64 17 85 -10 26 -25 16 -32
-20z"/>
<path d="M5397 1238 c-14 -38 -16 -49 -11 -63 16 -39 34 1 24 50 -5 24 -8 26
-13 13z"/>
<path d="M5545 1190 c-9 -14 4 -90 15 -90 17 0 22 21 15 60 -7 39 -18 50 -30
30z"/>
<path d="M3508 1173 c-5 -25 3 -73 12 -73 10 0 16 38 12 68 -4 26 -19 29 -24
5z"/>
<path d="M3304 1105 c-7 -38 0 -65 15 -65 12 0 25 64 17 85 -10 26 -25 16 -32
-20z"/>
<path d="M5357 1118 c-14 -38 -16 -49 -11 -63 16 -39 34 1 24 50 -5 24 -8 26
-13 13z"/>
<path d="M5585 1070 c-9 -14 4 -90 15 -90 17 0 22 21 15 60 -7 39 -18 50 -30
30z"/>
<path d="M3548 1053 c-5 -25 3 -73 12 -73 10 0 16 38 12 68 -4 26 -19 29 -24
5z"/>
<path d="M3264 985 c-7 -38 0 -65 15 -65 12 0 25 64 17 85 -10 26 -25 16 -32
-20z"/>
<path d="M5317 998 c-14 -38 -16 -49 -11 -63 16 -39 34 1 24 50 -5 24 -8 26
-13 13z"/>
<path d="M5625 950 c-9 -14 4 -90 15 -90 17 0 22 21 15 60 -7 39 -18 50 -30
30z"/>
<path d="M3588 933 c-5 -25 3 -73 12 -73 10 0 16 38 12 68 -4 26 -19 29 -24 5z"/>
<path d="M3224 865 c-7 -38 0 -65 15 -65 12 0 25 64 17 85 -10 26 -25 16 -32
-20z"/>
<path d="M5277 878 c-14 -38 -16 -49 -11 -63 16 -39 34 1 24 50 -5 24 -8 26
-13 13z"/>
<path d="M5665 830 c-9 -14 4 -90 15 -90 17 0 22 21 15 60 -7 39 -18 50 -30
30z"/>
<path d="M3378 813 c-27 -29 -26 -222 0 -246 21 -19 70 -22 124 -7 44 13 62
51 48 102 -5 18 -8 54 -7 80 3 62 -14 78 -89 85 -50 4 -62 2 -76 -14z m114
-46 c24 -38 -52 -55 -91 -21 -2 2 4 13 14 25 20 21 62 19 77 -4z m-4 -105 c38
-49 -23 -98 -70 -55 -22 20 -23 32 -2 61 17 25 49 23 72 -6z"/>
<path d="M3628 813 c-5 -25 3 -73 12 -73 10 0 16 38 12 68 -4 26 -19 29 -24 5z"/>
<path d="M5465 803 c-11 -3 -34 -16 -51 -30 -28 -20 -33 -32 -39 -82 -9 -82 7
-136 48 -158 55 -29 167 -17 167 17 0 15 -30 19 -54 8 -30 -13 -70 -4 -96 22
-15 15 -20 34 -20 78 0 53 2 59 36 86 35 28 43 29 102 11 18 -6 22 -4 22 14 0
33 -55 49 -115 34z"/>
<path d="M3184 745 c-7 -38 0 -65 15 -65 12 0 25 64 17 85 -10 26 -25 16 -32
-20z"/>
<path d="M5237 758 c-14 -38 -16 -49 -11 -63 16 -39 34 1 24 50 -5 24 -8 26
-13 13z"/>
<path d="M5705 710 c-9 -14 4 -90 15 -90 17 0 22 21 15 60 -7 39 -18 50 -30
30z"/>
<path d="M3668 693 c-5 -25 3 -73 12 -73 10 0 16 38 12 68 -4 26 -19 29 -24 5z"/>
<path d="M3144 625 c-7 -38 0 -65 15 -65 12 0 25 64 17 85 -10 26 -25 16 -32
-20z"/>
<path d="M5197 638 c-14 -38 -16 -49 -11 -63 16 -39 34 1 24 50 -5 24 -8 26
-13 13z"/>
<path d="M5745 590 c-9 -14 4 -90 15 -90 17 0 22 21 15 60 -7 39 -18 50 -30
30z"/>
<path d="M3708 573 c-5 -25 3 -73 12 -73 10 0 16 38 12 68 -4 26 -19 29 -24 5z"/>
<path d="M3104 505 c-7 -38 0 -65 15 -65 12 0 25 64 17 85 -10 26 -25 16 -32
-20z"/>
<path d="M5157 518 c-14 -38 -16 -49 -11 -63 16 -39 34 1 24 50 -5 24 -8 26
-13 13z"/>
<path d="M5787 473 c-4 -3 -7 -19 -7 -34 0 -15 -7 -29 -16 -33 -30 -12 -562
-7 -588 5 -28 13 -56 -1 -56 -27 0 -12 59 -14 350 -14 l350 0 0 24 c0 35 -12
86 -20 86 -3 0 -10 -3 -13 -7z"/>
<path d="M3745 440 c-4 -19 -14 -32 -28 -35 -23 -6 -550 0 -602 6 -25 3 -31 0
-33 -18 l-3 -23 350 0 c392 0 360 -6 345 69 -8 39 -20 40 -29 1z"/>
</g>
</svg>
