<?xml version="1.0" standalone="no"?>
<!DOCTYPE svg PUBLIC "-//W3C//DTD SVG 20010904//EN"
 "http://www.w3.org/TR/2001/REC-SVG-20010904/DTD/svg10.dtd">
<svg version="1.0" xmlns="http://www.w3.org/2000/svg"
 width="1920.000000pt" height="642.000000pt" viewBox="0 0 1920.000000 642.000000"
 preserveAspectRatio="xMidYMid meet">

<g transform="translate(0.000000,642.000000) scale(0.100000,-0.100000)"
fill="#000000" stroke="none">
<path d="M3427 6404 c-97 -23 -167 -63 -243 -139 -117 -116 -160 -230 -152
-399 6 -119 38 -200 123 -313 7 -10 -119 -142 -520 -543 -291 -292 -533 -530
-537 -530 -3 0 -14 34 -24 75 -10 41 -21 72 -25 68 -4 -5 -40 -87 -79 -183
-40 -96 -74 -177 -75 -179 -2 -1 -21 11 -42 27 -156 125 -376 146 -563 54 -72
-35 -187 -150 -222 -222 -77 -157 -77 -324 1 -478 33 -65 102 -147 155 -183
20 -13 36 -27 36 -32 0 -9 -588 -1088 -600 -1100 -4 -5 -24 22 -45 58 -20 37
-41 63 -45 58 -4 -4 -15 -91 -25 -193 -10 -109 -23 -194 -31 -207 -18 -29
-516 -2022 -508 -2034 7 -12 1021 -12 1028 0 6 9 -476 1965 -494 2008 -8 20 6
34 151 150 l160 128 -81 5 -80 5 300 550 c231 422 304 550 318 548 9 -1 49
-11 87 -22 89 -25 181 -25 270 0 39 11 78 21 87 22 14 2 87 -126 318 -548
l300 -550 -80 -5 -81 -5 160 -128 c145 -116 159 -130 151 -150 -19 -44 -500
-1991 -496 -2004 4 -10 105 -13 515 -13 280 0 512 3 514 8 7 10 -489 2002
-506 2032 -9 15 -22 100 -32 210 -10 102 -21 189 -25 193 -5 5 -25 -21 -45
-58 -21 -36 -41 -63 -45 -58 -12 12 -600 1091 -600 1100 0 5 16 19 36 32 92
63 182 204 204 320 28 150 -9 305 -103 424 -16 21 -27 40 -25 43 3 2 84 37
179 76 96 39 178 74 182 78 5 4 -24 15 -65 25 -40 10 -75 20 -78 22 -2 2 236
244 530 538 l534 534 33 -30 c169 -147 466 -144 651 8 l43 35 27 -24 c15 -14
324 -294 687 -623 363 -329 668 -606 679 -615 18 -17 15 -19 -70 -45 l-89 -27
115 -43 c63 -23 152 -55 198 -71 45 -16 81 -33 79 -39 -26 -75 -499 -2005
-494 -2018 6 -16 43 -17 512 -17 469 0 506 1 512 17 9 23 -485 2005 -503 2019
-8 6 -54 98 -103 204 -59 127 -91 186 -94 173 -3 -10 -11 -44 -17 -76 -8 -39
-15 -55 -23 -50 -13 8 -1292 1166 -1351 1223 l-39 38 37 58 c60 98 79 165 80
279 1 80 -4 114 -22 168 -47 136 -139 240 -267 301 -117 56 -228 69 -348 40z
m248 -36 c129 -33 252 -137 312 -265 34 -70 38 -88 41 -175 7 -160 -31 -262
-138 -369 -113 -114 -260 -165 -410 -142 -401 62 -559 543 -271 829 121 120
295 166 466 122z m-2042 -2013 c246 -52 419 -301 378 -547 -34 -209 -202 -376
-409 -408 -260 -41 -509 144 -553 408 -40 244 131 494 374 547 81 18 128 18
210 0z m4175 -1348 l240 -957 -483 0 -483 0 241 960 c132 529 241 959 243 958
1 -2 111 -434 242 -961z m-4808 -2964 c0 -10 -103 -13 -480 -13 -264 0 -480 2
-480 5 0 9 470 1890 477 1905 5 13 482 -1861 483 -1897z m1784 945 c130 -522
236 -950 236 -953 0 -8 -960 -6 -960 3 -1 23 476 1910 481 1904 3 -4 113 -433
243 -954z"/>
<path d="M3450 5830 c0 -127 2 -150 15 -150 12 0 15 13 15 56 0 55 0 55 22 40
52 -37 111 -8 124 58 20 107 -51 181 -124 130 -20 -14 -22 -14 -22 0 0 9 -7
16 -15 16 -13 0 -15 -23 -15 -150z m130 101 c5 -11 10 -38 10 -61 0 -57 -14
-80 -49 -80 -39 0 -56 24 -56 80 0 26 6 54 14 63 19 23 68 22 81 -2z"/>
<path d="M1456 3905 l36 -54 -36 -49 c-41 -57 -43 -62 -18 -62 11 0 27 16 41
40 12 22 26 40 30 40 5 0 20 -18 35 -40 16 -24 34 -40 46 -40 17 0 14 7 -20
56 l-39 56 28 42 c43 64 44 66 24 66 -11 0 -29 -17 -43 -40 -14 -22 -27 -40
-30 -40 -3 0 -15 18 -28 40 -14 26 -30 40 -42 40 -18 0 -16 -6 16 -55z"/>
<path d="M5510 2593 c-62 -32 -86 -114 -56 -188 30 -71 130 -97 197 -52 34 23
51 57 29 57 -7 0 -25 -11 -42 -25 -74 -63 -169 2 -155 107 7 51 33 78 84 85
32 4 44 0 69 -20 21 -18 35 -23 45 -17 11 8 9 14 -13 36 -35 35 -108 43 -158
17z"/>
<path d="M438 450 c-50 -125 -54 -140 -37 -140 13 0 24 13 35 40 l16 40 64 0
64 0 16 -40 c11 -27 22 -40 35 -40 18 0 18 1 0 48 -90 227 -93 232 -115 232
-19 0 -30 -19 -78 -140z m106 32 l25 -62 -50 0 c-27 0 -49 4 -49 9 0 15 43
122 47 118 2 -2 14 -32 27 -65z"/>
<path d="M2430 450 l0 -140 75 0 c88 0 131 17 141 56 8 32 -10 72 -36 82 l-21
8 20 18 c21 19 27 61 13 82 -15 23 -53 34 -121 34 l-71 0 0 -140z m148 98 c7
-7 12 -21 12 -33 0 -33 -20 -45 -72 -45 l-48 0 0 45 0 45 48 0 c26 0 53 -5 60
-12z m13 -118 c11 -6 19 -21 19 -35 0 -39 -25 -55 -86 -55 l-54 0 0 50 0 50
51 0 c28 0 59 -5 70 -10z"/>
<path d="M15533 6406 c-174 -42 -316 -172 -375 -343 -18 -54 -23 -88 -22 -168
1 -113 20 -181 79 -277 19 -31 35 -58 35 -61 0 -6 -1379 -1271 -1389 -1275 -5
-1 -14 26 -20 60 -7 35 -15 71 -18 81 -3 13 -35 -46 -94 -174 -50 -106 -96
-197 -103 -203 -18 -15 -512 -1997 -503 -2019 6 -16 43 -17 512 -17 469 0 506
1 512 17 5 13 -468 1943 -494 2018 -2 6 34 23 79 39 46 16 135 48 198 72 l115
42 -77 23 c-43 13 -78 26 -78 31 0 4 298 280 663 614 364 334 676 620 694 637
l32 30 43 -36 c191 -157 484 -155 666 5 19 16 37 28 41 26 18 -7 1019 -933
1016 -938 -2 -4 -34 -15 -70 -25 -36 -9 -67 -20 -70 -24 -2 -4 81 -38 186 -76
l189 -68 -24 -31 c-150 -197 -138 -481 26 -662 28 -30 71 -69 94 -85 l44 -30
-318 -634 -317 -635 -45 71 c-24 39 -46 67 -47 62 -2 -4 -9 -97 -17 -205 -7
-109 -18 -204 -24 -211 -15 -17 -514 -2016 -507 -2028 4 -5 211 -9 516 -9 399
0 511 3 514 13 3 6 -109 466 -248 1020 l-253 1009 135 116 c75 65 145 125 156
135 19 18 18 18 -62 14 -46 -2 -83 -2 -83 0 0 2 142 287 316 634 258 516 318
630 332 626 156 -50 248 -50 404 0 14 4 74 -110 332 -626 174 -347 316 -632
316 -634 0 -2 -37 -2 -82 1 -98 5 -108 21 94 -152 122 -105 136 -120 127 -139
-19 -45 -500 -1991 -495 -2004 4 -11 99 -13 515 -13 280 0 512 4 515 8 6 10
-490 2000 -505 2027 -7 11 -18 105 -25 210 -8 104 -15 196 -16 204 -2 7 -24
-20 -50 -60 l-47 -74 -314 635 -315 635 26 20 c15 11 56 49 92 85 201 201 199
524 -4 725 -194 192 -491 206 -699 33 l-47 -40 -53 114 c-28 62 -68 147 -88
188 l-36 75 -13 -70 c-7 -38 -16 -76 -19 -83 -5 -9 -174 140 -517 454 -280
256 -510 467 -512 469 -1 1 13 25 32 53 19 29 44 78 56 109 28 73 38 218 20
294 -65 280 -353 461 -627 395z m191 -26 c153 -22 293 -125 363 -267 146 -296
-38 -645 -367 -696 -228 -35 -462 113 -532 336 -22 71 -26 201 -8 269 56 205
230 343 465 367 6 0 41 -4 79 -9z m2086 -1867 c142 -38 269 -160 319 -304 98
-287 -85 -591 -386 -641 -256 -43 -509 142 -553 404 -24 142 21 292 120 402
132 144 306 192 500 139z m-3932 -1506 l240 -957 -483 0 -483 0 241 960 c132
529 241 959 243 958 1 -2 111 -434 242 -961z m3261 -2964 c1 -10 -101 -13
-479 -13 -264 0 -480 2 -480 5 0 10 471 1890 477 1905 5 12 480 -1857 482
-1897z m1781 952 c128 -517 235 -946 238 -952 3 -10 -96 -13 -477 -13 -265 0
-481 3 -481 8 -1 23 476 1910 481 1904 4 -4 111 -430 239 -947z"/>
<path d="M15576 5925 l36 -54 -36 -49 c-41 -57 -43 -62 -18 -62 11 0 27 16 41
40 12 22 26 40 30 40 5 0 20 -18 35 -40 16 -24 34 -40 46 -40 17 0 14 7 -20
56 l-39 56 28 42 c43 64 44 66 24 66 -11 0 -29 -17 -43 -40 -14 -22 -27 -40
-30 -40 -3 0 -15 18 -28 40 -14 26 -30 40 -42 40 -18 0 -16 -6 16 -55z"/>
<path d="M17570 3980 c0 -127 2 -150 15 -150 12 0 15 13 15 56 0 55 0 55 22
40 52 -37 111 -8 124 58 20 107 -51 181 -124 130 -20 -14 -22 -14 -22 0 0 9
-7 16 -15 16 -13 0 -15 -23 -15 -150z m130 101 c5 -11 10 -38 10 -61 0 -57
-14 -80 -49 -80 -39 0 -56 24 -56 80 0 26 6 54 14 63 19 23 68 22 81 -2z"/>
<path d="M13558 2470 c-50 -125 -54 -140 -37 -140 13 0 24 13 35 40 l16 40 64
0 64 0 16 -40 c11 -27 22 -40 35 -40 18 0 18 1 0 48 -90 227 -93 232 -115 232
-19 0 -30 -19 -78 -140z m106 32 l25 -62 -50 0 c-27 0 -49 4 -49 9 0 15 43
122 47 118 2 -2 14 -32 27 -65z"/>
<path d="M16550 450 l0 -140 75 0 c88 0 131 17 141 56 8 32 -10 72 -36 82
l-21 8 20 18 c21 19 27 61 13 82 -15 23 -53 34 -121 34 l-71 0 0 -140z m148
98 c7 -7 12 -21 12 -33 0 -33 -20 -45 -72 -45 l-48 0 0 45 0 45 48 0 c26 0 53
-5 60 -12z m13 -118 c11 -6 19 -21 19 -35 0 -39 -25 -55 -86 -55 l-54 0 0 50
0 50 51 0 c28 0 59 -5 70 -10z"/>
<path d="M18630 573 c-62 -32 -86 -114 -56 -188 30 -71 130 -97 197 -52 34 23
51 57 29 57 -7 0 -25 -11 -42 -25 -74 -63 -169 2 -155 107 7 51 33 78 84 85
32 4 44 0 69 -20 21 -18 35 -23 45 -17 11 8 9 14 -13 36 -35 35 -108 43 -158
17z"/>
<path d="M9410 3811 l0 -281 -510 0 -510 0 0 -555 0 -555 510 0 510 0 0 -275
c0 -151 3 -275 8 -275 5 0 1409 1084 1428 1103 3 3 -1047 821 -1423 1110 -10
7 -13 -48 -13 -272z"/>
</g>
</svg>
