<?xml version="1.0" standalone="no"?>
<!DOCTYPE svg PUBLIC "-//W3C//DTD SVG 20010904//EN"
 "http://www.w3.org/TR/2001/REC-SVG-20010904/DTD/svg10.dtd">
<svg version="1.0" xmlns="http://www.w3.org/2000/svg"
 width="1658.000000pt" height="730.000000pt" viewBox="0 0 1658.000000 730.000000"
 preserveAspectRatio="xMidYMid meet">

<g transform="translate(0.000000,730.000000) scale(0.100000,-0.100000)"
fill="#000000" stroke="none">
<path d="M5562 6458 c3 -9 34 -14 96 -16 77 -2 92 0 92 13 0 12 -16 15 -96 15
-72 0 -95 -3 -92 -12z"/>
<path d="M10670 6455 c0 -13 15 -15 92 -13 62 2 93 7 96 16 3 9 -20 12 -92 12
-80 0 -96 -3 -96 -15z"/>
<path d="M5793 6423 c-22 -8 -14 -21 17 -28 17 -4 30 -11 30 -16 0 -4 14 -15
30 -24 29 -15 30 -15 30 5 0 11 -6 20 -14 20 -7 0 -25 11 -40 25 -28 26 -32
27 -53 18z"/>
<path d="M10574 6405 c-15 -14 -33 -25 -40 -25 -8 0 -14 -9 -14 -20 0 -18 3
-19 23 -9 12 7 25 18 30 25 4 7 21 15 37 19 33 7 39 19 14 29 -22 8 -20 9 -50
-19z"/>
<path d="M5475 6411 c-3 -5 -2 -12 2 -14 12 -8 63 4 63 14 0 12 -57 12 -65 0z"/>
<path d="M10880 6411 c0 -10 51 -22 63 -14 4 2 5 9 2 14 -8 12 -65 12 -65 0z"/>
<path d="M5421 6364 c-17 -14 -31 -32 -31 -40 0 -8 -6 -14 -14 -14 -19 0 -28
-28 -17 -48 8 -14 11 -12 23 13 7 16 30 46 51 67 44 42 34 61 -12 22z"/>
<path d="M10950 6375 c0 -8 4 -15 9 -15 14 0 65 -54 79 -85 12 -25 15 -27 23
-13 11 20 2 48 -17 48 -8 0 -14 6 -14 13 0 16 -52 67 -68 67 -7 0 -12 -7 -12
-15z"/>
<path d="M5910 6327 c0 -16 27 -54 33 -47 10 10 -6 60 -19 60 -8 0 -14 -6 -14
-13z"/>
<path d="M10480 6315 c0 -14 5 -25 10 -25 6 0 10 4 10 9 0 5 3 16 6 25 4 11 1
16 -10 16 -10 0 -16 -9 -16 -25z"/>
<path d="M5957 6273 c-8 -13 3 -73 13 -73 4 0 10 11 12 25 6 27 -15 65 -25 48z"/>
<path d="M10445 6268 c-4 -9 -5 -29 -3 -45 l4 -28 12 28 c8 19 9 34 3 45 -9
16 -10 16 -16 0z"/>
<path d="M5318 6223 c-6 -24 0 -224 7 -243 13 -33 20 13 20 131 0 81 -4 124
-11 126 -6 2 -13 -4 -16 -14z"/>
<path d="M11078 6229 c-7 -19 -1 -239 6 -246 12 -13 16 6 20 115 2 78 0 116
-9 128 -9 14 -13 14 -17 3z"/>
<path d="M5602 6218 c-22 -27 -32 -94 -21 -129 17 -50 28 -59 69 -59 21 0 43
-7 50 -15 15 -18 5 -23 -55 -27 -28 -2 -40 -8 -40 -18 0 -12 14 -15 65 -15 62
0 65 1 80 30 19 39 27 210 10 230 -16 19 -143 21 -158 3z m109 -55 c16 -44 0
-87 -35 -91 -37 -5 -49 8 -49 56 0 51 8 62 44 62 23 0 32 -6 40 -27z"/>
<path d="M10762 6154 l-33 -26 -23 21 c-28 27 -60 29 -47 4 33 -66 34 -69 12
-111 -26 -51 -26 -52 3 -52 13 0 31 10 39 23 l16 22 18 -21 c20 -24 63 -38 63
-21 0 6 -9 30 -21 53 l-20 43 25 40 c14 22 26 43 26 46 0 13 -28 3 -58 -21z"/>
<path d="M5961 5997 c-6 -16 -11 -34 -11 -42 0 -21 -118 -135 -139 -135 -23 0
-37 -16 -19 -22 22 -8 58 4 58 18 0 23 47 16 75 -11 14 -14 25 -30 25 -35 0
-5 9 -15 19 -22 11 -8 23 -26 26 -41 4 -15 13 -27 21 -27 8 0 14 -9 14 -21 0
-12 8 -23 19 -26 12 -3 23 -17 26 -34 8 -37 34 -40 27 -3 -2 14 -11 28 -18 31
-8 3 -14 11 -14 19 0 7 -9 19 -19 26 -11 8 -23 26 -26 41 -4 15 -13 27 -21 27
-8 0 -14 9 -14 21 0 12 -8 23 -19 26 -12 3 -23 17 -26 34 -8 35 3 109 16 109
18 0 31 44 21 70 l-10 25 -11 -28z"/>
<path d="M10436 5995 c-7 -26 8 -65 23 -65 13 0 24 -74 16 -109 -3 -17 -14
-31 -26 -34 -11 -3 -19 -14 -19 -26 0 -12 -6 -21 -14 -21 -8 0 -17 -12 -21
-27 -3 -15 -15 -33 -26 -41 -10 -7 -19 -19 -19 -26 0 -8 -6 -16 -14 -19 -7 -3
-16 -17 -18 -31 -7 -37 19 -34 27 3 3 17 14 31 26 34 11 3 19 14 19 26 0 12 6
21 14 21 8 0 17 12 21 27 3 15 15 33 26 41 10 7 19 17 19 22 0 5 11 21 25 35
28 27 75 34 75 11 0 -14 36 -26 58 -18 18 6 4 22 -19 22 -30 0 -135 113 -143
154 -8 44 -22 53 -30 21z"/>
<path d="M5354 5946 c-4 -9 1 -25 10 -35 39 -43 39 -43 -497 -579 -282 -281
-520 -512 -528 -512 -9 0 -21 12 -28 26 -6 14 -16 24 -22 22 -11 -4 -52 -102
-63 -151 -7 -29 -17 -31 -88 -11 -12 4 -18 0 -18 -10 0 -9 7 -16 15 -16 18 0
87 -69 103 -104 7 -15 17 -24 22 -21 13 8 3 43 -18 67 -12 14 -12 20 -2 33 7
8 20 15 29 15 9 1 34 9 56 20 22 11 50 19 62 20 42 0 36 37 -9 52 -6 2 -5 13
0 28 5 14 238 254 517 533 470 469 510 507 541 507 22 0 34 -5 34 -14 0 -18
20 -25 45 -16 19 7 18 9 -8 21 -29 13 -117 96 -117 109 0 4 -7 13 -15 20 -12
10 -16 9 -21 -4z"/>
<path d="M11042 5948 c-7 -7 -12 -15 -12 -19 0 -13 -89 -95 -117 -108 -26 -12
-27 -14 -8 -21 25 -9 45 -2 45 16 0 9 12 14 34 14 31 0 71 -38 541 -507 279
-279 512 -519 517 -533 5 -15 6 -26 0 -28 -45 -15 -51 -52 -9 -52 12 -1 40 -9
62 -20 22 -11 47 -19 56 -20 9 0 22 -7 29 -15 10 -13 10 -19 -2 -33 -21 -24
-31 -59 -18 -67 5 -3 15 6 22 21 16 35 85 104 103 104 8 0 15 7 15 16 0 10 -6
14 -17 10 -72 -20 -82 -18 -89 11 -11 49 -52 147 -63 151 -6 2 -16 -8 -22 -22
-7 -14 -19 -26 -28 -26 -8 0 -246 231 -528 512 -535 535 -541 542 -498 578 16
14 20 36 7 44 -5 3 -14 0 -20 -6z"/>
<path d="M5575 5780 c-56 -10 -6 -22 92 -22 89 0 114 4 101 17 -8 8 -157 12
-193 5z"/>
<path d="M10683 5782 c-45 -4 -42 -22 5 -23 91 -3 167 2 176 11 7 7 2 10 -14
11 -14 0 -50 1 -80 2 -30 1 -70 1 -87 -1z"/>
<path d="M6116 5551 c-9 -14 4 -41 20 -41 8 0 14 -7 14 -15 0 -8 9 -24 20 -35
11 -11 20 -27 20 -35 0 -8 9 -20 20 -27 11 -7 20 -18 20 -24 0 -6 11 -23 25
-38 14 -15 25 -34 25 -42 0 -7 7 -14 16 -14 18 0 11 38 -11 55 -6 6 -15 20
-19 33 -4 12 -14 22 -22 22 -8 0 -14 9 -14 20 0 10 -8 27 -19 37 -10 10 -22
28 -25 41 -4 12 -13 22 -21 22 -7 0 -16 11 -19 25 -6 25 -20 33 -30 16z"/>
<path d="M10274 5535 c-3 -14 -12 -25 -19 -25 -8 0 -17 -10 -21 -22 -3 -13
-15 -31 -25 -41 -11 -10 -19 -27 -19 -37 0 -11 -6 -20 -14 -20 -8 0 -18 -10
-22 -22 -4 -13 -13 -27 -19 -33 -22 -17 -29 -55 -11 -55 9 0 16 7 16 14 0 8
11 27 25 42 14 15 25 32 25 38 0 6 9 17 20 24 11 7 20 19 20 27 0 8 9 24 20
35 11 11 20 27 20 35 0 8 6 15 14 15 16 0 29 27 20 41 -10 17 -24 9 -30 -16z"/>
<path d="M6313 5265 c-4 -12 0 -24 13 -34 10 -9 25 -28 31 -43 7 -16 17 -28
22 -28 5 0 12 -11 15 -25 4 -14 12 -25 19 -25 7 0 18 -14 24 -31 7 -17 17 -28
22 -24 17 10 13 34 -9 47 -11 7 -20 18 -20 24 0 6 -11 23 -25 38 -14 15 -25
33 -25 40 0 8 -7 16 -15 20 -8 3 -15 12 -15 19 0 8 -7 20 -15 27 -12 10 -16 9
-22 -5z"/>
<path d="M10082 5268 c-7 -7 -12 -18 -12 -25 0 -8 -7 -16 -15 -19 -8 -4 -15
-12 -15 -20 0 -7 -11 -25 -25 -40 -14 -15 -25 -32 -25 -38 0 -6 -9 -17 -20
-24 -22 -13 -26 -37 -9 -47 5 -4 15 7 22 24 6 17 17 31 24 31 7 0 15 11 19 25
3 14 10 25 15 25 5 0 15 12 22 28 6 15 20 33 29 40 19 14 24 37 10 46 -5 3
-14 0 -20 -6z"/>
<path d="M6476 5041 c-10 -16 3 -51 19 -51 7 0 16 -11 19 -25 4 -14 11 -25 16
-25 18 0 10 -29 -15 -56 -14 -15 -25 -28 -25 -30 0 -2 17 -12 38 -22 116 -57
154 -96 122 -128 -12 -12 -17 -81 -6 -91 4 -5 12 0 18 11 5 10 19 25 29 34 24
21 24 67 1 90 -13 13 -21 41 -25 90 -4 39 -12 83 -17 98 -11 27 -17 28 -76 9
-17 -5 -23 -2 -28 19 -3 14 -13 26 -21 26 -8 0 -15 6 -15 13 0 22 -26 52 -34
38z"/>
<path d="M9918 5022 c-7 -18 -18 -32 -25 -32 -7 0 -16 -12 -19 -26 -5 -21 -11
-24 -28 -19 -59 19 -65 18 -76 -9 -5 -15 -13 -59 -17 -98 -4 -49 -12 -77 -25
-90 -23 -23 -23 -69 1 -90 10 -9 24 -24 29 -34 6 -11 14 -16 18 -11 11 10 6
79 -6 91 -32 32 6 71 123 128 20 10 37 20 37 22 0 2 -11 15 -25 30 -25 27 -33
56 -15 56 5 0 12 11 16 25 3 14 12 25 19 25 18 0 30 39 16 53 -8 8 -14 3 -23
-21z"/>
<path d="M3830 4738 c-22 -9 -23 -11 -7 -17 22 -8 97 -2 97 9 0 8 -36 20 -55
19 -5 0 -21 -5 -35 -11z"/>
<path d="M4025 4740 c-19 -7 -18 -9 8 -19 16 -6 37 -11 47 -11 30 0 33 19 5
30 -30 11 -33 11 -60 0z"/>
<path d="M12332 4739 c-13 -5 -20 -13 -17 -19 8 -13 37 -13 72 1 26 10 27 12
8 19 -26 11 -35 11 -63 -1z"/>
<path d="M12518 4743 c-10 -2 -18 -8 -18 -13 0 -10 74 -17 97 -9 15 6 14 9
-10 18 -29 11 -39 12 -69 4z"/>
<path d="M3718 4662 c-27 -26 -48 -53 -48 -60 0 -18 30 -15 37 4 9 23 49 61
73 69 11 3 20 13 20 21 0 27 -35 12 -82 -34z"/>
<path d="M12620 4696 c0 -8 9 -18 20 -21 22 -7 70 -51 70 -64 0 -5 7 -14 15
-21 12 -10 16 -9 21 5 5 12 -7 31 -44 66 -51 49 -82 62 -82 35z"/>
<path d="M6717 4628 c-6 -18 4 -78 13 -78 9 0 17 48 12 73 -4 20 -18 23 -25 5z"/>
<path d="M9678 4623 c-5 -25 3 -73 12 -73 9 0 19 60 13 78 -7 18 -21 15 -25
-5z"/>
<path d="M3641 4556 c-12 -30 -9 -56 8 -56 13 0 21 39 11 63 -8 21 -8 21 -19
-7z"/>
<path d="M6598 4553 c-4 -34 1 -63 12 -63 10 0 17 37 12 68 -5 31 -19 28 -24
-5z"/>
<path d="M9798 4558 c-5 -31 2 -68 12 -68 11 0 16 29 12 63 -5 33 -19 36 -24
5z"/>
<path d="M12755 4570 c-8 -13 4 -70 15 -70 14 0 20 30 10 55 -10 27 -16 30
-25 15z"/>
<path d="M4278 4517 c-6 -31 2 -97 12 -97 4 0 10 14 12 30 9 62 -13 124 -24
67z"/>
<path d="M12116 4497 c-7 -44 -1 -77 14 -77 10 0 18 66 12 97 -7 36 -19 27
-26 -20z"/>
<path d="M6757 4508 c-6 -18 4 -78 13 -78 9 0 17 48 12 73 -4 20 -18 23 -25 5z"/>
<path d="M9638 4503 c-5 -25 3 -73 12 -73 9 0 19 60 13 78 -7 18 -21 15 -25
-5z"/>
<path d="M3913 4503 c-42 -5 -45 -17 -41 -162 2 -80 7 -116 15 -119 7 -2 16 5
19 15 13 42 21 48 59 45 32 -3 41 1 66 30 23 26 28 43 29 83 0 42 -5 55 -31
83 -30 32 -39 34 -116 25z m86 -69 c27 -45 26 -52 -7 -92 l-27 -32 -27 25
c-30 28 -36 62 -17 98 26 48 50 48 78 1z"/>
<path d="M12412 4503 c-33 -6 -42 -40 -42 -154 0 -88 2 -99 18 -99 9 0 26 7
36 15 11 8 30 15 43 15 65 0 106 76 84 154 -17 63 -59 84 -139 69z m87 -49 c2
-2 6 -25 9 -52 4 -46 2 -51 -26 -71 l-30 -21 -21 34 c-25 40 -26 57 -5 97 13
26 19 30 42 24 15 -4 29 -8 31 -11z"/>
<path d="M6558 4433 c-4 -34 1 -63 12 -63 10 0 17 37 12 68 -5 31 -19 28 -24
-5z"/>
<path d="M9838 4438 c-5 -31 2 -68 12 -68 11 0 16 29 12 63 -5 33 -19 36 -24
5z"/>
<path d="M4275 4351 c-4 -29 -2 -57 3 -68 10 -16 12 -15 22 12 11 30 5 105
-10 105 -4 0 -11 -22 -15 -49z"/>
<path d="M6797 4388 c-6 -18 4 -78 13 -78 9 0 17 48 12 73 -4 20 -18 23 -25 5z"/>
<path d="M9598 4383 c-5 -25 3 -73 12 -73 9 0 19 60 13 78 -7 18 -21 15 -25
-5z"/>
<path d="M12115 4362 c-3 -21 -1 -51 5 -67 10 -27 12 -28 22 -12 11 20 1 117
-12 117 -5 0 -11 -17 -15 -38z"/>
<path d="M6518 4313 c-4 -34 1 -63 12 -63 10 0 17 37 12 68 -5 31 -19 28 -24
-5z"/>
<path d="M9878 4318 c-5 -31 2 -68 12 -68 11 0 16 29 12 63 -5 33 -19 36 -24
5z"/>
<path d="M3637 4306 c-8 -19 3 -59 18 -71 8 -6 17 -28 20 -49 l8 -38 -515
-515 -515 -516 -31 18 c-37 22 -60 15 -67 -22 -3 -15 -14 -48 -23 -73 -15 -39
-22 -45 -50 -48 -17 -2 -32 1 -32 7 0 15 -36 32 -54 25 -25 -9 -19 -22 13 -29
33 -7 91 -57 110 -93 14 -27 31 -21 24 8 -10 37 22 67 81 80 38 8 59 18 70 34
14 22 13 25 -4 41 -11 10 -20 21 -20 25 0 14 1015 1022 1038 1031 15 6 31 5
44 -2 15 -8 23 -8 32 1 8 10 8 14 -2 17 -8 3 -26 19 -40 36 -15 17 -37 40 -48
51 -12 12 -25 36 -28 53 -8 37 -21 50 -29 29z"/>
<path d="M12761 4297 c-6 -16 -11 -37 -11 -48 0 -10 -6 -19 -13 -19 -7 0 -26
-18 -43 -40 -16 -22 -37 -42 -46 -46 -19 -6 -25 -34 -7 -34 6 0 19 5 29 10 11
6 28 7 42 1 23 -9 1038 -1017 1038 -1031 0 -4 -9 -15 -20 -25 -17 -16 -18 -19
-4 -41 11 -16 32 -26 70 -34 59 -13 91 -43 81 -80 -7 -29 10 -35 24 -8 19 36
77 86 110 93 32 7 38 20 13 29 -18 7 -54 -10 -54 -25 0 -6 -15 -9 -32 -7 -28
3 -35 9 -50 48 -9 25 -20 58 -23 73 -7 37 -30 44 -67 22 l-31 -18 -515 516
-515 515 8 38 c3 21 12 43 20 49 17 14 26 57 15 75 -7 11 -11 9 -19 -13z"/>
<path d="M6837 4268 c-6 -18 4 -78 13 -78 9 0 17 48 12 73 -4 20 -18 23 -25 5z"/>
<path d="M9558 4263 c-5 -25 3 -73 12 -73 9 0 19 60 13 78 -7 18 -21 15 -25
-5z"/>
<path d="M4240 4245 c0 -16 -77 -98 -100 -108 -27 -10 10 -25 50 -20 34 5 38
3 44 -21 3 -14 12 -26 19 -26 7 0 18 -14 25 -32 9 -24 15 -29 23 -21 14 14 2
53 -17 53 -8 0 -14 7 -14 15 0 8 -9 23 -20 32 -23 20 -26 61 -6 77 8 6 18 23
22 39 5 21 3 27 -10 27 -9 0 -16 -7 -16 -15z"/>
<path d="M12155 4233 c3 -16 13 -32 21 -36 21 -12 17 -60 -6 -80 -11 -9 -20
-24 -20 -32 0 -8 -6 -15 -14 -15 -19 0 -31 -39 -17 -53 8 -8 14 -3 23 21 7 18
18 32 25 32 7 0 16 12 19 26 6 24 10 26 44 21 40 -5 77 10 50 20 -23 10 -100
92 -100 108 0 8 -7 15 -16 15 -13 0 -15 -6 -9 -27z"/>
<path d="M6478 4193 c-4 -34 1 -63 12 -63 10 0 17 37 12 68 -5 31 -19 28 -24
-5z"/>
<path d="M9918 4198 c-5 -31 2 -68 12 -68 11 0 16 29 12 63 -5 33 -19 36 -24
5z"/>
<path d="M9714 4143 c-8 -21 -21 -50 -29 -65 -8 -14 -15 -31 -15 -38 0 -6 -9
-32 -21 -57 -14 -30 -18 -54 -14 -72 l7 -26 29 35 c27 31 35 35 80 35 46 0 53
-3 79 -35 l28 -35 7 26 c4 18 -1 42 -14 72 -12 25 -21 51 -21 57 0 6 -9 28
-19 48 -11 20 -24 49 -30 65 -16 41 -48 36 -67 -10z m64 -119 c-2 -23 -8 -29
-28 -29 -21 0 -26 5 -28 32 -3 26 1 32 20 35 31 5 40 -4 36 -38z"/>
<path d="M6600 4146 c-11 -11 -14 -224 -4 -250 5 -13 22 -16 80 -16 71 0 74 1
114 38 38 37 40 42 40 97 0 65 -29 122 -65 130 -45 9 -156 10 -165 1z m157
-65 c36 -41 31 -95 -11 -137 -36 -36 -55 -41 -87 -24 -16 9 -19 22 -19 96 0
79 2 85 23 93 32 13 69 3 94 -28z"/>
<path d="M6877 4148 c-6 -18 4 -78 13 -78 9 0 17 48 12 73 -4 20 -18 23 -25 5z"/>
<path d="M9518 4143 c-5 -25 3 -73 12 -73 9 0 19 60 13 78 -7 18 -21 15 -25
-5z"/>
<path d="M3811 4101 c-25 -16 31 -36 66 -23 l28 10 -28 11 c-34 13 -47 14 -66
2z"/>
<path d="M4065 4103 c-45 -10 -49 -17 -15 -23 41 -7 81 7 59 21 -8 5 -16 8
-19 8 -3 -1 -14 -3 -25 -6z"/>
<path d="M12311 4101 c-22 -14 18 -28 59 -21 35 7 30 13 -20 24 -14 3 -31 1
-39 -3z"/>
<path d="M12540 4098 l-25 -10 28 -10 c20 -7 36 -7 54 1 51 23 -4 42 -57 19z"/>
<path d="M6438 4073 c-4 -34 1 -63 12 -63 10 0 17 37 12 68 -5 31 -19 28 -24
-5z"/>
<path d="M9958 4078 c-5 -31 2 -68 12 -68 11 0 16 29 12 63 -5 33 -19 36 -24
5z"/>
<path d="M6917 4028 c-6 -18 4 -78 13 -78 9 0 17 48 12 73 -4 20 -18 23 -25 5z"/>
<path d="M9478 4023 c-5 -25 3 -73 12 -73 9 0 19 60 13 78 -7 18 -21 15 -25
-5z"/>
<path d="M4316 4002 c-10 -17 2 -52 19 -52 7 0 16 -12 19 -26 4 -14 12 -24 18
-22 21 7 19 24 -4 50 -13 14 -28 33 -34 44 -7 13 -13 14 -18 6z"/>
<path d="M12080 3989 c-7 -13 -21 -32 -32 -42 -20 -20 -20 -38 0 -45 6 -2 14
8 18 22 3 14 12 26 19 26 18 0 30 39 17 52 -7 7 -14 2 -22 -13z"/>
<path d="M6398 3953 c-4 -34 1 -63 12 -63 10 0 17 37 12 68 -5 31 -19 28 -24
-5z"/>
<path d="M9998 3958 c-5 -31 2 -68 12 -68 11 0 16 29 12 63 -5 33 -19 36 -24
5z"/>
<path d="M6957 3908 c-6 -18 4 -78 13 -78 9 0 17 48 12 73 -4 20 -18 23 -25 5z"/>
<path d="M9438 3903 c-5 -25 3 -73 12 -73 9 0 19 60 13 78 -7 18 -21 15 -25
-5z"/>
<path d="M4398 3868 c3 -13 11 -27 19 -31 7 -4 13 -14 13 -21 0 -8 7 -19 15
-26 12 -10 16 -9 21 5 5 11 -2 25 -20 41 -14 14 -26 31 -26 39 0 8 -6 15 -14
15 -10 0 -12 -7 -8 -22z"/>
<path d="M12000 3875 c0 -8 -12 -25 -26 -39 -18 -16 -25 -30 -20 -41 5 -14 9
-15 21 -5 8 7 15 18 15 26 0 7 6 17 13 21 20 12 28 53 11 53 -8 0 -14 -7 -14
-15z"/>
<path d="M6359 3833 c-1 -16 -1 -34 1 -42 1 -7 -8 -24 -20 -36 -12 -13 -17
-26 -12 -29 12 -7 691 -10 699 -2 7 7 -6 76 -15 76 -4 0 -15 -14 -24 -30 l-17
-30 -276 0 c-177 0 -283 4 -296 11 -14 7 -20 19 -19 37 4 49 0 72 -10 72 -5 0
-11 -12 -11 -27z"/>
<path d="M10039 3838 c-1 -13 0 -35 1 -50 1 -18 -5 -30 -19 -37 -13 -7 -119
-11 -296 -11 l-276 0 -17 30 c-9 16 -20 30 -24 30 -9 0 -22 -69 -15 -76 8 -8
687 -5 699 2 5 3 0 16 -12 29 -12 12 -21 29 -20 36 2 8 2 26 1 42 -1 32 -21
37 -22 5z"/>
<path d="M4475 3758 c4 -13 13 -28 20 -33 6 -6 15 -20 19 -33 4 -12 14 -22 22
-22 8 0 14 -9 14 -20 0 -10 8 -27 19 -37 10 -10 22 -28 25 -40 4 -13 13 -23
21 -23 7 0 16 -11 19 -25 6 -25 20 -33 30 -16 9 14 -4 41 -20 41 -8 0 -14 7
-14 15 0 8 -9 24 -20 35 -11 11 -20 27 -20 35 0 8 -9 20 -20 27 -11 7 -20 18
-20 24 0 6 -11 23 -25 38 -14 15 -25 34 -25 42 0 7 -7 14 -16 14 -11 0 -14 -6
-9 -22z"/>
<path d="M11920 3766 c0 -8 -11 -27 -25 -42 -14 -15 -25 -32 -25 -38 0 -6 -9
-17 -20 -24 -11 -7 -20 -19 -20 -27 0 -8 -9 -24 -20 -35 -11 -11 -20 -27 -20
-35 0 -8 -6 -15 -14 -15 -16 0 -29 -27 -20 -41 10 -17 24 -9 30 16 3 14 12 25
19 25 8 0 17 10 21 23 3 12 15 30 25 40 11 10 19 27 19 37 0 11 6 20 14 20 8
0 18 10 22 22 4 13 13 27 19 33 22 17 29 55 11 55 -9 0 -16 -7 -16 -14z"/>
<path d="M4678 3464 c2 -14 11 -28 18 -31 8 -3 14 -11 14 -19 0 -7 9 -19 19
-26 11 -8 23 -26 26 -41 4 -15 14 -27 22 -27 11 0 14 6 9 23 -3 12 -6 25 -6
30 0 4 -7 7 -15 7 -9 0 -15 9 -15 21 0 12 -8 23 -19 26 -12 3 -23 17 -26 34
-8 37 -34 40 -27 3z"/>
<path d="M11715 3461 c-3 -17 -14 -31 -26 -34 -11 -3 -19 -14 -19 -26 0 -12
-6 -21 -14 -21 -12 0 -25 -28 -26 -52 0 -21 29 -4 35 19 3 15 15 33 26 41 10
7 19 19 19 26 0 8 6 16 14 19 7 3 16 17 18 31 7 37 -19 34 -27 -3z"/>
<path d="M8037 3383 c-4 -3 -7 -72 -7 -153 0 -100 -4 -150 -12 -158 -9 -9 -97
-12 -335 -12 l-323 0 -5 -22 c-3 -13 -4 -171 -3 -353 l3 -330 335 -5 335 -5 2
-140 c4 -202 8 -210 76 -157 19 15 54 39 78 54 24 16 71 46 104 68 33 22 80
52 104 68 24 15 58 38 76 52 18 14 52 37 76 52 24 16 69 45 100 65 31 21 78
52 105 70 27 17 63 41 79 53 54 38 129 88 183 120 65 39 70 67 15 102 -50 31
-61 39 -112 73 -24 17 -51 35 -60 40 -9 6 -36 24 -60 40 -24 17 -51 35 -60 40
-9 6 -36 24 -60 40 -24 17 -51 35 -60 40 -9 6 -36 24 -60 40 -24 17 -51 35
-60 40 -9 6 -36 24 -60 40 -24 17 -51 35 -60 40 -9 6 -36 24 -60 40 -24 17
-51 35 -60 40 -9 6 -36 24 -60 40 -24 17 -51 35 -60 40 -9 6 -27 18 -40 28
-25 18 -43 21 -54 10z"/>
<path d="M4794 3307 c-7 -20 3 -37 20 -37 13 0 26 -29 26 -56 0 -6 -13 -17
-30 -24 -16 -7 -30 -16 -30 -20 0 -10 94 -69 156 -99 18 -8 21 -16 17 -53 -3
-37 0 -47 28 -77 24 -26 33 -31 40 -20 14 23 10 52 -13 94 -25 47 -58 165 -58
209 0 17 -5 38 -10 46 -8 13 -13 11 -32 -12 l-23 -27 -27 24 c-16 13 -28 28
-28 33 0 5 -7 15 -15 22 -12 10 -16 9 -21 -3z"/>
<path d="M11602 3308 c-7 -7 -12 -16 -12 -20 0 -5 -12 -20 -27 -33 l-28 -24
-23 27 c-19 23 -24 25 -32 12 -5 -8 -10 -29 -10 -46 0 -44 -33 -162 -58 -209
-23 -42 -27 -71 -13 -94 7 -11 16 -6 40 20 28 30 31 40 28 77 -4 37 -1 45 17
53 62 30 156 89 156 99 0 4 -13 13 -30 20 -16 7 -30 18 -30 24 0 29 14 55 31
59 19 5 26 31 11 41 -5 3 -14 0 -20 -6z"/>
<path d="M2165 3050 c-4 -6 30 -10 95 -10 65 0 99 4 95 10 -3 6 -46 10 -95 10
-49 0 -92 -4 -95 -10z"/>
<path d="M14065 3050 c-4 -6 30 -10 95 -10 65 0 99 4 95 10 -3 6 -46 10 -95
10 -49 0 -92 -4 -95 -10z"/>
<path d="M2075 3011 c-3 -5 -2 -12 2 -14 12 -8 63 4 63 14 0 12 -57 12 -65 0z"/>
<path d="M14280 3011 c0 -10 51 -22 63 -14 4 2 5 9 2 14 -8 12 -65 12 -65 0z"/>
<path d="M2021 2964 c-17 -14 -31 -32 -31 -40 0 -8 -6 -14 -14 -14 -19 0 -28
-28 -17 -48 8 -14 11 -12 23 13 7 16 30 46 51 67 44 42 34 61 -12 22z"/>
<path d="M14357 2983 c-4 -3 10 -22 31 -42 20 -20 43 -50 51 -66 12 -28 14
-28 21 -10 9 25 2 45 -16 45 -8 0 -14 6 -14 13 0 22 -61 72 -73 60z"/>
<path d="M4918 2913 c-4 -34 1 -63 12 -63 10 0 17 37 12 68 -5 31 -19 28 -24
-5z"/>
<path d="M11478 2918 c-5 -31 2 -68 12 -68 11 0 16 29 12 63 -5 33 -19 36 -24
5z"/>
<path d="M5035 2889 c-9 -14 4 -99 15 -99 14 0 22 38 15 70 -7 33 -20 46 -30
29z"/>
<path d="M11360 2876 c-12 -31 -13 -48 -4 -70 11 -29 23 -17 30 30 8 55 -9 83
-26 40z"/>
<path d="M2550 2866 c0 -8 5 -27 11 -43 l11 -28 9 24 c5 13 7 32 4 42 -7 22
-35 26 -35 5z"/>
<path d="M13835 2861 c-3 -10 -1 -29 4 -42 l9 -24 11 28 c6 16 11 35 11 43 0
21 -28 17 -35 -5z"/>
<path d="M1923 2824 c-6 -11 -8 -64 -7 -119 2 -55 4 -106 4 -113 0 -8 5 -12
11 -10 8 3 12 43 13 121 2 121 -4 155 -21 121z"/>
<path d="M14091 2801 c-27 -38 -28 -103 -1 -141 15 -21 30 -29 65 -32 74 -9
76 -24 4 -36 -29 -5 -44 -13 -44 -22 0 -11 15 -16 56 -18 55 -3 57 -2 78 32
19 30 21 47 19 138 l-3 103 -77 3 c-74 3 -77 2 -97 -27z m118 -25 c17 -20 10
-87 -11 -100 -11 -7 -26 -7 -45 0 -23 8 -29 16 -31 49 -3 29 1 43 14 52 24 17
59 16 73 -1z"/>
<path d="M14479 2813 c-7 -181 -2 -249 17 -230 4 4 7 138 5 220 -1 29 -21 38
-22 10z"/>
<path d="M4878 2793 c-4 -34 1 -63 12 -63 10 0 17 37 12 68 -5 31 -19 28 -24
-5z"/>
<path d="M11518 2798 c-5 -31 2 -68 12 -68 11 0 16 29 12 63 -5 33 -19 36 -24
5z"/>
<path d="M2157 2773 c-6 -11 9 -49 22 -58 18 -10 13 -50 -10 -79 -20 -25 -20
-56 -1 -56 5 0 17 9 27 20 24 26 59 25 77 -2 8 -12 19 -18 26 -14 16 10 15 32
-3 49 -25 26 -28 61 -6 81 23 21 28 51 10 61 -6 4 -17 -2 -25 -14 -17 -23 -55
-21 -85 5 -18 16 -26 17 -32 7z"/>
<path d="M5075 2769 c-9 -14 4 -99 15 -99 14 0 22 38 15 70 -7 33 -20 46 -30
29z"/>
<path d="M11320 2756 c-12 -31 -13 -48 -4 -70 11 -29 23 -17 30 30 8 55 -9 83
-26 40z"/>
<path d="M13807 2753 c-11 -10 -8 -81 3 -88 6 -4 10 13 10 44 0 52 -1 56 -13
44z"/>
<path d="M2601 2707 c-1 -30 3 -46 9 -42 12 7 12 42 0 70 -6 15 -9 8 -9 -28z"/>
<path d="M4838 2673 c-4 -34 1 -63 12 -63 10 0 17 37 12 68 -5 31 -19 28 -24
-5z"/>
<path d="M11558 2678 c-5 -31 2 -68 12 -68 11 0 16 29 12 63 -5 33 -19 36 -24
5z"/>
<path d="M5115 2649 c-9 -14 4 -99 15 -99 14 0 22 38 15 70 -7 33 -20 46 -30
29z"/>
<path d="M11280 2636 c-12 -31 -13 -48 -4 -70 11 -29 23 -17 30 30 8 55 -9 83
-26 40z"/>
<path d="M2561 2597 c-6 -16 -11 -34 -11 -42 0 -21 -118 -135 -139 -135 -23 0
-37 -16 -19 -22 22 -8 58 4 58 18 0 23 47 16 75 -11 14 -14 25 -30 25 -34 0
-5 7 -14 15 -21 12 -10 16 -9 21 5 5 11 -2 25 -21 42 -25 23 -27 31 -22 74 4
29 14 56 26 68 22 22 24 34 11 66 -7 19 -9 18 -19 -8z"/>
<path d="M13839 2598 c-2 -38 2 -52 17 -64 8 -7 17 -34 21 -61 5 -45 3 -52
-22 -76 -19 -17 -26 -31 -21 -42 5 -14 9 -15 21 -5 8 7 15 16 15 21 0 4 11 20
25 34 28 27 75 34 75 11 0 -14 36 -26 58 -18 18 6 4 22 -19 22 -30 0 -137 115
-145 156 -7 41 -24 55 -25 22z"/>
<path d="M4798 2553 c-4 -34 1 -63 12 -63 10 0 17 37 12 68 -5 31 -19 28 -24
-5z"/>
<path d="M11598 2558 c-5 -31 2 -68 12 -68 11 0 16 29 12 63 -5 33 -19 36 -24
5z"/>
<path d="M1957 2564 c-13 -13 -7 -41 13 -59 23 -21 27 -70 6 -78 -7 -3 -16
-17 -18 -31 -7 -37 19 -33 27 4 6 27 10 30 46 30 27 0 39 -4 39 -14 0 -19 25
-27 52 -17 23 9 23 9 -5 20 -16 6 -30 11 -31 11 -7 0 -96 93 -96 99 0 15 -26
42 -33 35z"/>
<path d="M14438 2545 c-10 -22 -94 -115 -104 -115 -1 0 -15 -5 -31 -11 -28
-11 -28 -11 -5 -20 27 -10 52 -2 52 17 0 10 12 14 39 14 36 0 40 -3 46 -30 8
-37 34 -41 27 -4 -2 14 -11 28 -18 31 -21 8 -17 57 6 78 21 19 26 50 10 60 -5
3 -15 -6 -22 -20z"/>
<path d="M5155 2529 c-9 -14 4 -99 15 -99 14 0 22 38 15 70 -7 33 -20 46 -30
29z"/>
<path d="M11240 2516 c-12 -31 -13 -48 -4 -70 11 -29 23 -17 30 30 8 55 -9 83
-26 40z"/>
<path d="M4758 2433 c-4 -34 1 -63 12 -63 10 0 17 37 12 68 -5 31 -19 28 -24
-5z"/>
<path d="M11380 2434 c-14 -37 -13 -217 2 -232 7 -7 41 -12 85 -12 71 0 73 1
88 31 13 24 14 37 6 61 -6 17 -11 57 -11 88 0 76 -16 90 -99 90 -57 0 -62 -2
-71 -26z m108 -13 c8 -5 12 -21 10 -37 -2 -24 -8 -29 -34 -32 -44 -4 -62 20
-40 53 17 25 40 31 64 16z m10 -123 c19 -19 14 -56 -9 -68 -30 -17 -79 5 -79
34 0 29 18 46 50 46 14 0 31 -5 38 -12z"/>
<path d="M11638 2438 c-5 -31 2 -68 12 -68 11 0 16 29 12 63 -5 33 -19 36 -24
5z"/>
<path d="M4938 2418 c-74 -61 -80 -197 -9 -255 21 -18 155 -17 170 0 18 22 -5
36 -47 26 -63 -14 -92 -2 -114 49 -19 42 -19 46 -3 88 9 24 25 49 35 54 24 13
97 13 105 0 11 -18 25 -10 25 14 0 13 -7 27 -16 30 -28 11 -130 6 -146 -6z"/>
<path d="M5195 2409 c-9 -14 4 -99 15 -99 14 0 22 38 15 70 -7 33 -20 46 -30
29z"/>
<path d="M11200 2396 c-12 -31 -13 -48 -4 -70 11 -29 23 -17 30 30 8 55 -9 83
-26 40z"/>
<path d="M2161 2380 c-25 -15 9 -22 106 -22 88 0 114 5 101 17 -9 9 -194 14
-207 5z"/>
<path d="M14083 2382 c-45 -4 -42 -22 5 -23 91 -3 167 2 176 11 7 7 5 10 -4
11 -31 4 -146 4 -177 1z"/>
<path d="M1914 2335 c-3 -14 -12 -25 -19 -25 -8 0 -17 -10 -21 -22 -3 -13 -15
-31 -25 -41 -11 -10 -19 -27 -19 -37 0 -11 -6 -20 -14 -20 -8 0 -18 -10 -22
-22 -4 -13 -13 -27 -19 -33 -22 -17 -29 -55 -11 -55 9 0 16 7 16 14 0 8 11 27
25 42 14 15 25 32 25 38 0 6 9 17 20 24 11 7 20 19 20 27 0 8 9 24 20 35 11
11 20 27 20 35 0 8 6 15 14 15 16 0 29 27 20 41 -10 17 -24 9 -30 -16z"/>
<path d="M14476 2351 c-9 -14 4 -41 20 -41 8 0 14 -7 14 -15 0 -8 9 -24 20
-35 11 -11 20 -27 20 -35 0 -8 9 -20 20 -27 11 -7 20 -18 20 -24 0 -6 11 -23
25 -38 14 -15 25 -34 25 -42 0 -7 7 -14 16 -14 18 0 11 38 -11 55 -6 6 -15 20
-19 33 -4 12 -14 22 -22 22 -8 0 -14 9 -14 20 0 10 -8 27 -19 37 -10 10 -22
28 -25 41 -4 12 -13 22 -21 22 -7 0 -16 11 -19 25 -6 25 -20 33 -30 16z"/>
<path d="M2594 2318 c3 -13 6 -26 6 -30 0 -5 6 -8 14 -8 8 0 17 -11 20 -25 4
-14 13 -25 21 -25 21 0 19 26 -4 42 -11 8 -23 26 -26 41 -4 15 -14 27 -22 27
-11 0 -14 -6 -9 -22z"/>
<path d="M4718 2313 c-4 -34 1 -63 12 -63 10 0 17 37 12 68 -5 31 -19 28 -24
-5z"/>
<path d="M11678 2318 c-5 -31 2 -68 12 -68 11 0 16 29 12 63 -5 33 -19 36 -24
5z"/>
<path d="M13795 2313 c-3 -15 -15 -33 -26 -41 -23 -16 -25 -42 -4 -42 8 0 17
11 21 25 3 14 12 25 20 25 8 0 14 3 14 8 0 4 3 17 6 30 5 16 2 22 -9 22 -8 0
-18 -12 -22 -27z"/>
<path d="M5235 2289 c-9 -14 4 -99 15 -99 14 0 22 38 15 70 -7 33 -20 46 -30
29z"/>
<path d="M11160 2276 c-12 -31 -13 -48 -4 -70 11 -29 23 -17 30 30 8 55 -9 83
-26 40z"/>
<path d="M2676 2221 c-8 -12 11 -61 23 -61 5 0 12 -11 15 -25 4 -14 13 -25 21
-25 8 0 15 -7 15 -15 0 -8 9 -24 20 -35 12 -12 25 -33 31 -47 6 -16 13 -23 19
-17 11 11 2 54 -12 54 -5 0 -14 14 -19 30 -6 17 -17 30 -25 30 -8 0 -14 7 -14
14 0 8 -11 27 -25 42 -14 15 -25 33 -25 40 0 17 -17 27 -24 15z"/>
<path d="M13721 2207 c-6 -14 -19 -35 -31 -47 -11 -11 -20 -27 -20 -35 0 -8
-6 -15 -14 -15 -8 0 -19 -13 -25 -30 -5 -16 -14 -30 -19 -30 -14 0 -23 -43
-12 -54 6 -6 13 1 19 17 6 14 19 35 31 47 11 11 20 27 20 35 0 8 7 15 15 15 8
0 17 11 21 25 3 14 10 25 15 25 15 0 31 52 20 63 -7 7 -14 2 -20 -16z"/>
<path d="M4678 2193 c-4 -34 1 -63 12 -63 10 0 17 37 12 68 -5 31 -19 28 -24
-5z"/>
<path d="M11718 2198 c-5 -31 2 -68 12 -68 11 0 16 29 12 63 -5 33 -19 36 -24
5z"/>
<path d="M5275 2169 c-3 -8 -2 -46 2 -86 l8 -72 25 19 c16 13 21 22 14 27 -6
5 -14 30 -16 56 -6 52 -23 81 -33 56z"/>
<path d="M11120 2156 c-5 -15 -10 -42 -10 -61 0 -18 -6 -36 -12 -38 -9 -4 -5
-12 12 -26 l25 -20 8 76 c8 82 -4 119 -23 69z"/>
<path d="M4637 2073 c-5 -29 7 -63 23 -63 11 0 13 49 4 74 -9 24 -21 19 -27
-11z"/>
<path d="M11756 2084 c-9 -25 -7 -74 4 -74 16 0 28 34 23 63 -6 30 -18 35 -27
11z"/>
<path d="M1722 2068 c-7 -7 -12 -18 -12 -25 0 -6 -6 -16 -13 -20 -20 -12 -28
-53 -11 -53 8 0 14 7 14 15 0 8 11 25 25 37 25 22 32 43 17 52 -5 3 -14 0 -20
-6z"/>
<path d="M14673 2065 c-4 -12 0 -24 13 -34 10 -9 25 -28 31 -43 7 -16 17 -28
22 -28 5 0 12 -11 15 -25 4 -14 11 -25 16 -25 5 0 17 -14 26 -31 10 -21 19
-28 26 -21 13 13 0 52 -18 52 -8 0 -14 6 -14 14 0 7 -11 25 -25 40 -14 15 -25
33 -25 40 0 8 -7 16 -15 20 -8 3 -15 12 -15 19 0 8 -7 20 -15 27 -12 10 -16 9
-22 -5z"/>
<path d="M2830 1976 c0 -7 11 -25 25 -40 14 -15 25 -34 25 -42 0 -7 7 -14 16
-14 12 0 15 6 10 23 -3 12 -6 25 -6 30 0 4 -6 7 -14 7 -8 0 -17 11 -20 25 -7
26 -36 35 -36 11z"/>
<path d="M13554 1965 c-3 -14 -12 -25 -19 -25 -7 0 -15 -10 -19 -22 -9 -34 -8
-38 9 -38 8 0 15 7 15 14 0 8 11 27 25 42 28 30 33 54 10 54 -8 0 -17 -11 -21
-25z"/>
<path d="M1634 1936 c-3 -14 -12 -26 -19 -26 -18 0 -30 -39 -17 -52 7 -7 14
-2 22 13 7 13 21 32 32 42 20 20 20 38 0 45 -6 2 -14 -8 -18 -22z"/>
<path d="M2914 1865 c-5 -11 2 -25 20 -41 14 -14 26 -31 26 -39 0 -8 6 -15 14
-15 17 0 9 41 -11 53 -7 4 -13 14 -13 21 0 8 -7 19 -15 26 -12 10 -16 9 -21
-5z"/>
<path d="M13482 1868 c-7 -7 -12 -18 -12 -25 0 -6 -6 -16 -13 -20 -20 -12 -28
-53 -11 -53 8 0 14 7 14 15 0 8 11 25 25 37 25 22 32 43 17 52 -5 3 -14 0 -20
-6z"/>
<path d="M1558 1822 c-7 -18 -18 -32 -24 -32 -14 0 -26 -28 -18 -41 10 -17 24
-9 30 16 3 14 12 25 19 25 18 0 30 39 16 53 -8 8 -14 3 -23 -21z"/>
<path d="M14836 1841 c-10 -16 3 -51 19 -51 7 0 16 -11 19 -25 6 -25 20 -33
30 -16 9 14 -4 41 -20 41 -8 0 -14 6 -14 13 0 22 -26 52 -34 38z"/>
<path d="M2996 1751 c-8 -13 4 -41 18 -41 6 0 17 -14 24 -32 9 -24 15 -29 23
-21 14 14 2 53 -16 53 -7 0 -16 11 -19 25 -6 25 -20 33 -30 16z"/>
<path d="M13394 1735 c-3 -14 -12 -25 -19 -25 -18 0 -30 -39 -16 -53 8 -8 14
-3 23 21 7 18 18 32 24 32 14 0 26 28 18 41 -10 17 -24 9 -30 -16z"/>
<path d="M1480 1715 c0 -8 -12 -25 -26 -39 -18 -16 -25 -30 -20 -41 5 -14 9
-15 21 -5 8 7 15 18 15 25 0 7 6 15 14 18 19 7 27 57 10 57 -8 0 -14 -7 -14
-15z"/>
<path d="M14918 1704 c2 -14 11 -28 18 -31 8 -3 14 -11 14 -18 0 -7 7 -18 15
-25 12 -10 16 -9 21 5 5 11 -2 25 -20 41 -14 14 -26 31 -26 39 0 8 -6 15 -14
15 -9 0 -12 -8 -8 -26z"/>
<path d="M3076 1642 c-10 -17 2 -52 19 -52 7 0 16 -11 19 -25 4 -14 11 -25 16
-25 18 0 10 -29 -15 -56 -14 -15 -25 -28 -25 -30 0 -2 17 -12 38 -22 115 -56
153 -96 123 -127 -5 -6 -10 -21 -11 -35 -5 -64 7 -78 30 -35 7 14 19 25 27 25
21 0 17 76 -5 98 -13 13 -21 41 -26 86 -4 36 -11 78 -16 92 -11 27 -16 28 -77
9 -17 -5 -23 -3 -23 7 0 8 -10 26 -22 40 -13 14 -28 33 -34 44 -7 13 -13 14
-18 6z"/>
<path d="M13316 1621 c-9 -17 -21 -31 -26 -31 -5 0 -13 -12 -16 -26 -5 -21
-11 -24 -28 -19 -59 19 -65 18 -76 -9 -5 -14 -12 -56 -16 -92 -5 -45 -13 -73
-26 -86 -22 -22 -26 -98 -5 -98 8 0 20 -11 27 -25 23 -43 35 -29 30 35 -1 14
-6 29 -11 35 -30 31 8 71 124 127 20 10 37 20 37 22 0 2 -11 15 -25 30 -25 27
-33 56 -15 56 5 0 12 11 16 25 3 14 12 25 19 25 18 0 30 39 17 52 -7 7 -16 0
-26 -21z"/>
<path d="M1396 1592 c-4 -18 -17 -32 -38 -41 -29 -13 -32 -12 -49 10 -25 32
-35 16 -44 -65 -7 -60 -39 -171 -55 -191 -4 -5 -9 -21 -10 -35 -5 -64 7 -78
30 -35 7 14 19 25 27 25 9 0 13 15 13 48 0 56 3 61 54 87 120 61 119 60 86 90
-24 22 -27 75 -5 75 8 0 15 3 15 8 0 4 3 17 6 30 5 16 2 22 -9 22 -9 0 -18
-12 -21 -28z"/>
<path d="M14994 1598 c3 -13 6 -26 6 -30 0 -5 7 -8 15 -8 22 0 19 -53 -5 -75
-33 -30 -34 -29 86 -90 51 -26 54 -31 54 -87 0 -33 4 -48 13 -48 8 0 20 -11
27 -25 23 -43 35 -29 30 35 -1 14 -6 30 -10 35 -16 20 -48 131 -55 191 -9 81
-19 97 -44 65 -17 -22 -20 -23 -49 -10 -21 9 -34 23 -38 41 -3 16 -12 28 -21
28 -11 0 -14 -6 -9 -22z"/>
<path d="M1275 1249 c-9 -14 4 -99 15 -99 14 0 22 38 15 70 -7 33 -20 46 -30
29z"/>
<path d="M3315 1249 c-9 -14 4 -99 15 -99 14 0 22 38 15 70 -7 33 -20 46 -30
29z"/>
<path d="M13080 1236 c-12 -31 -13 -48 -4 -70 11 -29 23 -17 30 30 8 55 -9 83
-26 40z"/>
<path d="M15120 1236 c-12 -31 -13 -48 -4 -70 11 -29 23 -17 30 30 8 55 -9 83
-26 40z"/>
<path d="M1158 1153 c-4 -34 1 -63 12 -63 10 0 17 37 12 68 -5 31 -19 28 -24
-5z"/>
<path d="M3198 1153 c-4 -34 1 -63 12 -63 10 0 17 37 12 68 -5 31 -19 28 -24
-5z"/>
<path d="M13198 1158 c-5 -31 2 -68 12 -68 11 0 16 29 12 63 -5 33 -19 36 -24
5z"/>
<path d="M15238 1158 c-5 -31 2 -68 12 -68 11 0 16 29 12 63 -5 33 -19 36 -24
5z"/>
<path d="M1315 1129 c-9 -14 4 -99 15 -99 14 0 22 38 15 70 -7 33 -20 46 -30
29z"/>
<path d="M3355 1129 c-9 -14 4 -99 15 -99 14 0 22 38 15 70 -7 33 -20 46 -30
29z"/>
<path d="M13040 1116 c-12 -31 -13 -48 -4 -70 11 -29 23 -17 30 30 8 55 -9 83
-26 40z"/>
<path d="M15080 1116 c-12 -31 -13 -48 -4 -70 11 -29 23 -17 30 30 8 55 -9 83
-26 40z"/>
<path d="M1118 1033 c-4 -34 1 -63 12 -63 10 0 17 37 12 68 -5 31 -19 28 -24
-5z"/>
<path d="M3158 1033 c-4 -34 1 -63 12 -63 10 0 17 37 12 68 -5 31 -19 28 -24
-5z"/>
<path d="M13238 1038 c-5 -31 2 -68 12 -68 11 0 16 29 12 63 -5 33 -19 36 -24
5z"/>
<path d="M15278 1038 c-5 -31 2 -68 12 -68 11 0 16 29 12 63 -5 33 -19 36 -24
5z"/>
<path d="M1355 1009 c-9 -14 4 -99 15 -99 14 0 22 38 15 70 -7 33 -20 46 -30
29z"/>
<path d="M3395 1009 c-9 -14 4 -99 15 -99 14 0 22 38 15 70 -7 33 -20 46 -30
29z"/>
<path d="M13000 996 c-12 -31 -13 -48 -4 -70 11 -29 23 -17 30 30 8 55 -9 83
-26 40z"/>
<path d="M15040 996 c-12 -31 -13 -48 -4 -70 11 -29 23 -17 30 30 8 55 -9 83
-26 40z"/>
<path d="M1078 913 c-4 -34 1 -63 12 -63 10 0 17 37 12 68 -5 31 -19 28 -24
-5z"/>
<path d="M3118 913 c-4 -34 1 -63 12 -63 10 0 17 37 12 68 -5 31 -19 28 -24
-5z"/>
<path d="M13278 918 c-5 -31 2 -68 12 -68 11 0 16 29 12 63 -5 33 -19 36 -24
5z"/>
<path d="M15318 918 c-5 -31 2 -68 12 -68 11 0 16 29 12 63 -5 33 -19 36 -24
5z"/>
<path d="M1395 889 c-9 -14 4 -99 15 -99 14 0 22 38 15 70 -7 33 -20 46 -30
29z"/>
<path d="M3435 889 c-9 -14 4 -99 15 -99 14 0 22 38 15 70 -7 33 -20 46 -30
29z"/>
<path d="M12960 876 c-12 -31 -13 -48 -4 -70 11 -29 23 -17 30 30 8 55 -9 83
-26 40z"/>
<path d="M15000 876 c-12 -31 -13 -48 -4 -70 11 -29 23 -17 30 30 8 55 -9 83
-26 40z"/>
<path d="M1038 793 c-4 -34 1 -63 12 -63 10 0 17 37 12 68 -5 31 -19 28 -24
-5z"/>
<path d="M3078 793 c-4 -34 1 -63 12 -63 10 0 17 37 12 68 -5 31 -19 28 -24
-5z"/>
<path d="M13318 798 c-5 -31 2 -68 12 -68 11 0 16 29 12 63 -5 33 -19 36 -24
5z"/>
<path d="M15358 798 c-5 -31 2 -68 12 -68 11 0 16 29 12 63 -5 33 -19 36 -24
5z"/>
<path d="M1222 757 c-12 -13 -25 -38 -28 -57 -4 -19 -13 -46 -20 -60 -20 -37
-44 -113 -38 -122 10 -16 36 -8 56 17 15 19 29 25 59 25 30 0 46 -6 63 -25 24
-26 41 -31 50 -17 6 10 -20 100 -33 116 -5 6 -14 31 -21 56 -11 41 -44 90 -60
90 -4 0 -16 -10 -28 -23z m49 -115 c7 -33 -10 -60 -31 -47 -11 7 -14 68 -3 79
13 13 28 -1 34 -32z"/>
<path d="M1435 769 c-9 -14 4 -99 15 -99 14 0 22 38 15 70 -7 33 -20 46 -30
29z"/>
<path d="M3475 769 c-9 -14 4 -99 15 -99 14 0 22 38 15 70 -7 33 -20 46 -30
29z"/>
<path d="M12920 756 c-12 -31 -13 -48 -4 -70 11 -29 23 -17 30 30 8 55 -9 83
-26 40z"/>
<path d="M14960 756 c-12 -31 -13 -48 -4 -70 11 -29 23 -17 30 30 8 55 -9 83
-26 40z"/>
<path d="M15110 746 c-18 -8 -20 -18 -20 -112 0 -56 4 -114 10 -128 9 -24 14
-26 79 -26 39 0 73 5 76 11 4 5 17 14 30 19 32 12 53 103 37 158 -21 68 -32
76 -116 82 -42 3 -85 1 -96 -4z m112 -36 c32 -9 39 -17 48 -49 15 -56 3 -96
-36 -126 -42 -32 -75 -30 -85 5 -14 50 -10 148 7 164 18 19 18 19 66 6z"/>
<path d="M3222 738 c-15 -15 -16 -195 -2 -232 9 -24 14 -26 73 -26 57 0 66 3
92 30 27 28 28 33 17 63 -6 18 -11 60 -10 93 1 33 -2 66 -6 72 -10 16 -148 16
-164 0z m121 -37 c14 -13 -4 -39 -30 -46 -24 -6 -63 16 -63 35 0 23 70 31 93
11z m4 -119 c10 -11 9 -21 -3 -44 -20 -38 -61 -36 -83 4 -14 24 -14 28 3 47
21 23 62 20 83 -7z"/>
<path d="M13118 721 c-50 -23 -75 -57 -83 -113 -9 -58 21 -124 66 -151 46 -26
120 -23 147 6 16 17 19 26 10 35 -8 8 -17 6 -36 -8 -25 -20 -58 -25 -78 -12
-20 12 -64 84 -64 103 0 10 8 34 17 54 22 45 75 65 123 45 23 -10 34 -10 43
-1 15 15 -1 30 -50 48 -47 16 -49 16 -95 -6z"/>
<path d="M998 673 c-4 -34 1 -63 12 -63 10 0 17 37 12 68 -5 31 -19 28 -24 -5z"/>
<path d="M3038 673 c-4 -34 1 -63 12 -63 10 0 17 37 12 68 -5 31 -19 28 -24
-5z"/>
<path d="M13358 678 c-5 -31 2 -68 12 -68 11 0 16 29 12 63 -5 33 -19 36 -24
5z"/>
<path d="M15398 678 c-5 -31 2 -68 12 -68 11 0 16 29 12 63 -5 33 -19 36 -24
5z"/>
<path d="M1475 649 c-9 -14 4 -99 15 -99 14 0 22 38 15 70 -7 33 -20 46 -30
29z"/>
<path d="M3515 649 c-9 -14 4 -99 15 -99 14 0 22 38 15 70 -7 33 -20 46 -30
29z"/>
<path d="M12880 636 c-12 -31 -13 -48 -4 -70 11 -29 23 -17 30 30 8 55 -9 83
-26 40z"/>
<path d="M14920 636 c-12 -31 -13 -48 -4 -70 11 -29 23 -17 30 30 8 55 -9 83
-26 40z"/>
<path d="M958 553 c-4 -34 1 -63 12 -63 10 0 17 37 12 68 -5 31 -19 28 -24 -5z"/>
<path d="M2998 553 c-4 -34 1 -63 12 -63 10 0 17 37 12 68 -5 31 -19 28 -24
-5z"/>
<path d="M13398 558 c-5 -31 2 -68 12 -68 11 0 16 29 12 63 -5 33 -19 36 -24
5z"/>
<path d="M15438 558 c-5 -31 2 -68 12 -68 11 0 16 29 12 63 -5 33 -19 36 -24
5z"/>
<path d="M1515 529 c-9 -14 4 -99 15 -99 14 0 22 38 15 70 -7 33 -20 46 -30
29z"/>
<path d="M3555 529 c-9 -14 4 -99 15 -99 14 0 22 38 15 70 -7 33 -20 46 -30
29z"/>
<path d="M12840 516 c-12 -31 -13 -48 -4 -70 11 -29 23 -17 30 30 8 55 -9 83
-26 40z"/>
<path d="M14880 516 c-12 -31 -13 -48 -4 -70 11 -29 23 -17 30 30 8 55 -9 83
-26 40z"/>
<path d="M919 433 c-2 -61 -5 -68 -26 -78 -13 -5 -23 -18 -23 -27 0 -17 23
-18 360 -18 l360 0 0 29 c0 40 -18 84 -30 76 -5 -3 -10 -16 -10 -29 0 -12 -5
-27 -12 -34 -16 -16 -550 -17 -579 -1 -14 7 -20 19 -19 37 4 49 0 72 -10 72
-5 0 -10 -12 -11 -27z"/>
<path d="M2959 433 c-1 -16 -1 -35 0 -44 1 -8 -8 -24 -19 -34 -49 -44 -42 -45
335 -45 l355 0 0 29 c0 40 -18 84 -30 76 -5 -3 -10 -16 -10 -29 0 -12 -5 -27
-12 -34 -16 -16 -550 -17 -579 -1 -14 7 -20 19 -19 37 4 49 0 72 -10 72 -5 0
-11 -12 -11 -27z"/>
<path d="M13439 438 c-1 -13 0 -35 1 -50 1 -18 -5 -30 -19 -37 -29 -16 -563
-15 -579 1 -7 7 -12 22 -12 34 0 13 -5 26 -10 29 -12 8 -30 -36 -30 -76 l0
-29 355 0 c377 0 384 1 335 45 -11 10 -20 26 -19 34 3 38 -2 71 -11 71 -5 0
-10 -10 -11 -22z"/>
<path d="M15479 438 c-1 -13 0 -35 1 -50 1 -18 -5 -30 -19 -37 -29 -16 -563
-15 -579 1 -7 7 -12 22 -12 34 0 13 -5 26 -10 29 -12 8 -30 -36 -30 -76 l0
-29 360 0 c337 0 360 1 360 18 0 9 -10 22 -22 27 -22 10 -25 17 -27 78 -1 32
-21 37 -22 5z"/>
</g>
</svg>
