<?xml version="1.0" encoding="UTF-8"?>
<svg xmlns="http://www.w3.org/2000/svg" version="1.1" xmlns:xlink="http://www.w3.org/1999/xlink" viewBox="0 0 946 767">
  <defs>
    <style>
      .cls-1 {
        clip-path: url(#clippath-21);
      }

      .cls-2 {
        clip-path: url(#clippath-6);
      }

      .cls-3 {
        clip-path: url(#clippath-7);
      }

      .cls-4 {
        clip-path: url(#clippath-17);
      }

      .cls-5 {
        clip-path: url(#clippath-15);
      }

      .cls-6 {
        clip-path: url(#clippath-18);
      }

      .cls-7 {
        clip-path: url(#clippath-4);
      }

      .cls-8 {
        clip-path: url(#clippath-22);
      }

      .cls-9 {
        clip-path: url(#clippath-23);
      }

      .cls-10 {
        clip-path: url(#clippath-9);
      }

      .cls-11 {
        fill: #fff;
      }

      .cls-11, .cls-12, .cls-13, .cls-14, .cls-15 {
        fill-rule: evenodd;
      }

      .cls-16, .cls-17, .cls-18 {
        fill: none;
      }

      .cls-19 {
        clip-path: url(#clippath-1);
      }

      .cls-12 {
        fill: #66a5cc;
      }

      .cls-20 {
        font-family: DengXian, DengXian;
        font-size: 10.6px;
      }

      .cls-20, .cls-21 {
        isolation: isolate;
      }

      .cls-22 {
        clip-path: url(#clippath-5);
      }

      .cls-23 {
        clip-path: url(#clippath-20);
      }

      .cls-24 {
        clip-path: url(#clippath-12);
      }

      .cls-25 {
        clip-path: url(#clippath-14);
      }

      .cls-26 {
        clip-path: url(#clippath-19);
      }

      .cls-17 {
        stroke: #000;
        stroke-linecap: round;
        stroke-linejoin: round;
        stroke-opacity: .7;
        stroke-width: 4.5px;
      }

      .cls-13 {
        fill: #d5d6d5;
      }

      .cls-18 {
        clip-path: url(#clippath-8);
      }

      .cls-27 {
        clip-path: url(#clippath-16);
      }

      .cls-28 {
        clip-path: url(#clippath-2);
      }

      .cls-29 {
        clip-path: url(#clippath-13);
      }

      .cls-30 {
        clip-path: url(#clippath-24);
      }

      .cls-15 {
        fill: url(#_未命名的渐变_2);
      }

      .cls-31 {
        clip-path: url(#clippath);
      }
    </style>
    <clipPath id="clippath">
      <rect class="cls-16" x="0" y="-4.1" width="946" height="767"/>
    </clipPath>
    <clipPath id="clippath-1">
      <rect class="cls-16" x="0" y="2.8" width="945" height="760.1"/>
    </clipPath>
    <clipPath id="clippath-2">
      <rect class="cls-16" x="0" y="2.7" width="945" height="766.2"/>
    </clipPath>
    <clipPath id="clippath-4">
      <rect class="cls-16" x="42" y="668.1" width="22.9" height="43.9"/>
    </clipPath>
    <clipPath id="clippath-5">
      <rect class="cls-16" x="237.3" y="332.1" width="28.9" height="45.9"/>
    </clipPath>
    <clipPath id="clippath-6">
      <rect class="cls-16" x="298.3" y="668.1" width="30.9" height="43.9"/>
    </clipPath>
    <clipPath id="clippath-7">
      <rect class="cls-16" x="437.9" y="53.7" width="28" height="45.9"/>
    </clipPath>
    <clipPath id="clippath-8">
      <polyline class="cls-16" points="662.9 375 662.9 329.1 633.9 329.1"/>
    </clipPath>
    <clipPath id="clippath-9">
      <path class="cls-18" d="M633.9,375"/>
    </clipPath>
    <clipPath id="clippath-12">
      <rect class="cls-16" x="485.3" y="53.1" width="22.9" height="43.9"/>
    </clipPath>
    <clipPath id="clippath-13">
      <rect class="cls-16" x="286.7" y="331.1" width="28" height="43.9"/>
    </clipPath>
    <clipPath id="clippath-14">
      <rect class="cls-16" x="678.5" y="329.1" width="28.9" height="45.9"/>
    </clipPath>
    <clipPath id="clippath-15">
      <rect class="cls-16" x="81.6" y="668.1" width="30.9" height="43.9"/>
    </clipPath>
    <clipPath id="clippath-16">
      <rect class="cls-16" x="347.4" y="668" width="28.9" height="45.9"/>
    </clipPath>
    <clipPath id="clippath-17">
      <rect class="cls-16" x="616" y="668.1" width="30" height="45.9"/>
    </clipPath>
    <clipPath id="clippath-18">
      <rect class="cls-16" x="876.2" y="673.1" width="28.9" height="45.9"/>
    </clipPath>
    <clipPath id="clippath-19">
      <rect class="cls-16" x="86.2" y="37.5" width="55.9" height="28"/>
    </clipPath>
    <clipPath id="clippath-20">
      <rect class="cls-16" x="45.6" y="96.5" width="16" height="28.9"/>
    </clipPath>
    <clipPath id="clippath-21">
      <rect class="cls-16" x="83.8" y="100" width="156.8" height="23"/>
    </clipPath>
    <clipPath id="clippath-22">
      <rect class="cls-16" x="45.6" y="158.9" width="16" height="28.9"/>
    </clipPath>
    <clipPath id="clippath-23">
      <rect class="cls-16" x="83.6" y="160.8" width="115.8" height="23"/>
    </clipPath>
    <clipPath id="clippath-24">
      <rect class="cls-16" x="166.3" y="725" width="92.9" height="16"/>
    </clipPath>
    <linearGradient id="_未命名的渐变_2" data-name="未命名的渐变 2" x1="831.4" y1="695.6" x2="858.5" y2="695.6" gradientUnits="userSpaceOnUse">
      <stop offset="0" stop-color="#fff"/>
      <stop offset="0" stop-color="#231815"/>
    </linearGradient>
  </defs>
  <!-- Generator: Adobe Illustrator 28.7.1, SVG Export Plug-In . SVG Version: 1.2.0 Build 142)  -->
  <g>
    <g id="_图层_1" data-name="图层_1">
      <g class="cls-21">
        <g>
          <g id="Layer-1">
            <g class="cls-31">
              <g class="cls-21">
                <text class="cls-20" transform="translate(945.1 769.1)"><tspan x="0" y="0"> </tspan></text>
              </g>
            </g>
          </g>
          <g id="Layer-1-2" data-name="Layer-1">
            <g class="cls-19">
              <g class="cls-28">
                <g>
                  <path class="cls-17" d="M275.8,359.2l-179.5,299.4"/>
                  <path class="cls-17" d="M291.1,337.1l180.2-252.3"/>
                  <path class="cls-17" d="M670.9,366.5l-67,326.5"/>
                  <path class="cls-17" d="M680.4,366.5l188.6,326.5"/>
                  <path class="cls-17" d="M490.7,99.6l170.3,237.4"/>
                  <path class="cls-12" d="M142.8,693c0,36.9-29.9,66.8-66.8,66.8s-66.8-29.9-66.8-66.8,29.9-66.8,66.8-66.8,66.8,29.9,66.8,66.8Z"/>
                  <path class="cls-17" d="M283.4,377.9l59.2,315"/>
                  <path class="cls-12" d="M409.5,693c0,36.9-29.9,66.8-66.8,66.8s-66.8-29.9-66.8-66.8,29.9-66.8,66.8-66.8,66.8,29.9,66.8,66.8Z"/>
                  <path class="cls-12" d="M345.8,354c0,36.9-29.9,66.8-66.8,66.8s-66.8-29.9-66.8-66.8,29.9-66.8,66.8-66.8,66.8,29.9,66.8,66.8Z"/>
                  <path class="cls-12" d="M670.7,693c0,36.9-29.9,66.8-66.8,66.8s-66.8-29.9-66.8-66.8,29.9-66.8,66.8-66.8,66.8,29.9,66.8,66.8Z"/>
                  <path class="cls-12" d="M935.8,693c0,36.9-29.9,66.8-66.8,66.8s-66.8-29.9-66.8-66.8,29.9-66.8,66.8-66.8,66.8,29.9,66.8,66.8Z"/>
                  <path class="cls-12" d="M740,354c0,36.9-29.9,66.8-66.8,66.8s-66.8-29.9-66.8-66.8,29.9-66.8,66.8-66.8,66.8,29.9,66.8,66.8Z"/>
                  <path class="cls-12" d="M542.5,78.7c0,36.9-29.9,66.8-66.8,66.8s-66.8-29.9-66.8-66.8,29.9-66.8,66.8-66.8,66.8,29.9,66.8,66.8Z"/>
                  <g class="cls-7">
                    <path class="cls-14" d="M63.9,710.9c-3.6-.1-7.2-.2-10.6-.2s-7,0-10.6.2v-2.5h2c.7,0,1.3,0,1.8,0,.6,0,1.1,0,1.6-.1.5,0,1-.2,1.3-.2.3,0,.6-.2.8-.5.2-.3.3-.6.3-1v-32.5c-1,.5-2.2.8-3.7,1.1-1.4.3-3,.4-4.7.4v-2.4c2.4,0,4.6-.3,6.6-.8,2-.6,3.7-1.6,5.2-3.2h.9c.7,0,1,.3,1,1v36.5c0,.4,0,.7.3,1,.2.3.5.5.9.5.3,0,.7.2,1.2.2.5,0,1.1.1,1.7.1.6,0,1.2,0,1.8,0h2.1v2.5Z"/>
                  </g>
                  <g class="cls-22">
                    <path class="cls-14" d="M264.6,364c0,1.7-.4,3.2-1.1,4.8-.7,1.5-1.7,2.8-2.9,3.9-1.4,1.2-2.9,2.1-4.6,2.7-1.7.6-3.4.9-5.2.9s-3.2-.2-4.8-.7c-1.6-.5-3-1.1-4.2-2-1.3-.9-2.3-1.9-3-3.2-.8-1.3-1.1-2.7-1.1-4.3s.4-2.1,1.2-2.7c.8-.6,1.7-.9,2.6-.9,1,0,1.8.3,2.7.9s1.2,1.5,1.2,2.7-.1,1.3-.4,1.8c-.3.5-.7.9-1.1,1.2-.4.3-1,.5-1.5.6-.3,0-.6.1-.8.1-.3,0-.3,0-.1,0,.6,1.1,1.8,2,3.6,2.9,1.8.8,3.7,1.2,5.8,1.2,1,0,1.9-.2,2.8-.7.9-.5,1.6-1.1,2.2-2,.7-1.1,1.2-2.2,1.5-3.5.3-1.2.4-2.5.4-3.8s-.1-2.6-.4-3.8c-.3-1.2-.7-2.3-1.5-3.4-.6-.8-1.3-1.5-2.2-2-.9-.5-1.8-.8-2.8-.8h-4.3c-.6,0-.9-.3-.9-.8v-.3c0-.2,0-.4.2-.5.2-.2.4-.3.7-.3.6,0,1.2-.1,1.8-.1.6,0,1.2,0,1.8-.1,1.1,0,2-.4,2.8-1,.8-.6,1.5-1.3,2-2.2.5-.9.9-2,1.2-3.2.3-1.2.4-2.4.4-3.7s0-1.8-.3-2.6c-.2-.8-.6-1.5-1.1-2.2-1.1-1.3-2.5-1.9-4.2-1.9-1.8,0-3.5.3-5,1s-2.5,1.4-3,2.2c-.1,0,0,0,.2,0,.7,0,1.4.2,2,.6,1,.6,1.4,1.5,1.4,2.8s-.4,2-1.1,2.5c-.7.6-1.5.9-2.4.8-.9,0-1.7-.3-2.4-.8-.8-.6-1.1-1.4-1.1-2.5s.3-2.6,1-3.7c.7-1.1,1.5-2,2.6-2.8,1.1-.8,2.3-1.4,3.7-1.8,1.4-.4,2.8-.6,4.2-.6,1.5,0,3,.2,4.4.6,1.4.4,2.8,1,4,1.9,1,.7,1.9,1.6,2.6,2.7.7,1.1,1.1,2.3,1.1,3.6s-.2,2.6-.7,3.8c-.5,1.2-1.1,2.3-1.9,3.2-.8,1-1.8,1.8-2.9,2.5-1.1.7-1.9,1.2-2.5,1.4.5,0,1.3.3,2.4.9,1.1.5,2.2,1.2,3.3,2,1.2,1.1,2.2,2.3,2.9,3.8.7,1.5,1.1,3,1.1,4.6Z"/>
                  </g>
                  <g class="cls-2">
                    <path class="cls-14" d="M321,700.6v5.8c0,.3,0,.7.2,1,.1.3.3.5.6.6.5.2,1.2.3,2.2.3,1,0,2.1,0,3.1,0v2.5c-3-.1-6-.2-8.9-.2s-5.9,0-9.1.2v-2.5c1.1,0,2.1,0,3.1,0,1,0,1.8-.1,2.3-.3.3,0,.5-.3.7-.6.1-.3.2-.6.2-1v-5.8h-16.9v-2.3l19.8-29.5c.3-.3.6-.5,1-.5h.7c.7,0,1,.3,1,1v28.8h6.4v2.5h-6.4ZM315.8,676.4l-14.6,21.7h14.6v-21.7Z"/>
                  </g>
                  <g class="cls-3">
                    <path class="cls-14" d="M464.2,83.8c0,1.9-.4,3.7-1.1,5.4-.7,1.7-1.7,3.2-3.1,4.6-1.4,1.3-2.9,2.3-4.6,3-1.7.7-3.5,1.1-5.4,1.1s-3.2-.3-4.6-.9c-1.4-.6-2.7-1.5-3.7-2.6-1.1-1.1-1.9-2.3-2.5-3.8-.6-1.4-.9-3-.9-4.6s.4-2,1.1-2.5c.7-.6,1.5-.8,2.3-.9.8,0,1.6.3,2.3.8.7.6,1.1,1.4,1.1,2.5s-.2,1.3-.5,1.7c-.3.5-.7.8-1.1,1.1-.4.3-.9.4-1.5.4h-1c.5,1.6,1.5,3.1,3.2,4.4,1.7,1.3,3.6,1.9,5.8,1.9,1.1,0,2.3-.3,3.4-.9,1.1-.6,2-1.4,2.7-2.4.8-1.2,1.3-2.5,1.6-4,.2-1.5.3-3,.3-4.6s0-3.1-.1-4.5c0-1.4-.5-2.8-1.2-4.1-.5-.9-1.2-1.7-2-2.3-.8-.6-1.7-.9-2.7-.9-1.9,0-3.5.4-4.9,1.1-1.4.8-2.5,1.8-3.4,3.3-.2.3-.5.5-.9.5h-.2c-.7,0-1-.3-1-1v-20.2c0-.5.3-.8.9-1,0,0,.2,0,.2,0,0,0,0,0,.1,0,2.9,1.3,5.8,2,8.9,2,3.1,0,6-.7,8.9-2,0,0,0,0,.1,0,0,0,0,0,.2,0,.7,0,1,.3.9.9,0,.3,0,.6-.2.7-1.4,1.9-3.2,3.4-5.4,4.5-2.2,1.1-4.5,1.6-6.9,1.6s-3.8-.2-5.2-.7v11c.7-.7,1.7-1.4,3.1-1.9,1.4-.6,3-.9,4.7-.9,1.7,0,3.3.4,4.8,1.2,1.5.8,2.8,1.8,4,3,1.2,1.4,2.1,2.9,2.6,4.6.6,1.7.9,3.4.9,5.2Z"/>
                  </g>
                  <g class="cls-10">
                    <path class="cls-14" d="M660.4,353.7c.6,1.6.9,3.3.9,5.4s-.3,3.8-.9,5.4c-.6,1.6-1.6,3.1-3,4.7-1.4,1.4-2.8,2.5-4.3,3.2-1.5.7-3.2,1-5.3,1M654.5,334.5c.6-.3,1.2-.5,1.9-.5.2,0,.2,0,0,0-.3-.4-.9-.8-1.8-1.2-.9-.4-2.1-.6-3.4-.6-1.8,0-3.3.5-4.7,1.6M644.4,331.8c2.1-1.2,4.4-1.8,6.9-1.8,2.4,0,4.4.6,6,1.8,1.6,1.2,2.4,3,2.4,5.3s-.3,1.9-1,2.4M651,370.2c.9-.5,1.7-1.3,2.4-2.5.7-1.1,1.1-2.4,1.3-3.8"/>
                  </g>
                  <g class="cls-24">
                    <path class="cls-11" d="M507.2,95.9c-3.6-.1-7.2-.2-10.6-.2s-7,0-10.6.2v-2.5h2c.7,0,1.3,0,1.8,0,.6,0,1.1,0,1.6-.1.5,0,1-.2,1.3-.2.3,0,.6-.2.8-.5.2-.3.3-.6.3-1v-32.5c-1,.5-2.2.8-3.7,1.1-1.4.3-3,.4-4.7.4v-2.4c2.4,0,4.6-.3,6.6-.8,2-.6,3.7-1.6,5.2-3.2h.9c.7,0,1,.3,1,1v36.5c0,.4,0,.7.3,1,.2.3.5.5.9.5.3,0,.7.2,1.2.2.5,0,1.1.1,1.7.1.6,0,1.2,0,1.8,0h2.1v2.5Z"/>
                  </g>
                  <g class="cls-29">
                    <path class="cls-11" d="M311.2,373.8h-24.2v-1.6c0-.1,0-.3.2-.5l9.7-10.5c1.1-1.3,2.3-2.6,3.5-3.9,1.2-1.3,2.2-2.7,3.2-4.1.9-1.4,1.7-2.8,2.2-4.3.6-1.5.8-3,.8-4.6s-.2-2.6-.5-3.8c-.4-1.2-.9-2.2-1.5-3.1-.7-.9-1.5-1.6-2.5-2.2-1-.5-2.2-.8-3.5-.8-2,0-3.7.6-5.2,1.8-1.5,1.2-2.5,2.5-3,3.9,0,0,0,0,.5,0h.5c.6.1,1.1.3,1.5.6s.8.7,1.1,1.2c.3.5.4,1.1.4,1.8,0,1.2-.4,2-1.1,2.7-.8.6-1.6.9-2.5.9-.9,0-1.7-.3-2.5-.9-.8-.6-1.2-1.5-1.2-2.7s.3-3.1,1-4.6c.6-1.4,1.5-2.7,2.6-3.7,1.1-1.1,2.4-1.9,3.9-2.5,1.5-.6,3.1-.9,4.7-.9,2.1,0,3.9.3,5.7.9,1.7.6,3.2,1.5,4.4,2.6,1.2,1.1,2.2,2.4,2.8,3.9.7,1.5,1,3.1,1,4.9s-.5,3.8-1.4,5.5c-.9,1.7-2,3.2-3.4,4.6-1.3,1.4-2.8,2.7-4.3,4-1.5,1.2-2.9,2.4-4.1,3.6l-6.8,6.4h8.9c1.2,0,2.4,0,3.5,0,1.1,0,2,0,2.7-.1s1.1,0,1.2-.1c.2-.1.3-.4.4-.8.1-.4.3-.9.4-1.4.1-.5.2-1.1.4-1.7.1-.6.2-1.2.3-1.9h2.2l-1.9,11.4Z"/>
                  </g>
                  <g class="cls-25">
                    <path class="cls-11" d="M705.8,361c0,1.7-.4,3.2-1.1,4.8-.7,1.5-1.7,2.8-2.9,3.9-1.4,1.2-2.9,2.1-4.6,2.7-1.7.6-3.4.9-5.2.9s-3.2-.2-4.8-.7c-1.6-.5-3-1.1-4.2-2-1.3-.9-2.3-1.9-3-3.2-.8-1.3-1.1-2.7-1.1-4.3s.4-2.1,1.2-2.7c.8-.6,1.7-.9,2.6-.9,1,0,1.8.3,2.7.9s1.2,1.5,1.2,2.7-.1,1.3-.4,1.8c-.3.5-.7.9-1.1,1.2-.4.3-1,.5-1.5.6-.3,0-.6.1-.8.1-.3,0-.3,0-.1,0,.6,1.1,1.8,2,3.6,2.9,1.8.8,3.7,1.2,5.8,1.2,1,0,1.9-.2,2.8-.7.9-.5,1.6-1.1,2.2-2,.7-1.1,1.2-2.2,1.5-3.5.3-1.2.4-2.5.4-3.8s-.1-2.6-.4-3.8c-.3-1.2-.7-2.3-1.5-3.4-.6-.8-1.3-1.5-2.2-2-.9-.5-1.8-.8-2.8-.8h-4.3c-.6,0-.9-.3-.9-.8v-.3c0-.2,0-.4.2-.5.2-.2.4-.3.7-.3.6,0,1.2-.1,1.8-.1.6,0,1.2,0,1.8-.1,1.1,0,2-.4,2.8-1,.8-.6,1.5-1.3,2-2.2.5-.9.9-2,1.2-3.2.3-1.2.4-2.4.4-3.7s0-1.8-.3-2.6c-.2-.8-.6-1.5-1.1-2.2-1.1-1.3-2.5-1.9-4.2-1.9-1.8,0-3.5.3-5,1s-2.5,1.4-3,2.2c-.1,0,0,0,.2,0,.7,0,1.4.2,2,.6,1,.6,1.4,1.5,1.4,2.8s-.4,2-1.1,2.5c-.7.6-1.5.9-2.4.8-.9,0-1.7-.3-2.4-.8-.8-.6-1.1-1.4-1.1-2.5s.3-2.6,1-3.7c.7-1.1,1.5-2,2.6-2.8,1.1-.8,2.3-1.4,3.7-1.8,1.4-.4,2.8-.6,4.2-.6,1.5,0,3,.2,4.4.6,1.4.4,2.8,1,4,1.9,1,.7,1.9,1.6,2.6,2.7.7,1.1,1.1,2.3,1.1,3.6s-.2,2.6-.7,3.8c-.5,1.2-1.1,2.3-1.9,3.2-.8,1-1.8,1.8-2.9,2.5-1.1.7-1.9,1.2-2.5,1.4.5,0,1.3.3,2.4.9,1.1.5,2.2,1.2,3.3,2,1.2,1.1,2.2,2.3,2.9,3.8.7,1.5,1.1,3,1.1,4.6Z"/>
                  </g>
                  <g class="cls-5">
                    <path class="cls-11" d="M104.3,700.6v5.8c0,.3,0,.7.2,1,.1.3.3.5.6.6.5.2,1.2.3,2.2.3,1,0,2.1,0,3.1,0v2.5c-3-.1-6-.2-8.9-.2s-5.9,0-9.1.2v-2.5c1.1,0,2.1,0,3.1,0,1,0,1.8-.1,2.3-.3.3,0,.5-.3.7-.6.1-.3.2-.6.2-1v-5.8h-16.9v-2.3l19.8-29.5c.3-.3.6-.5,1-.5h.7c.7,0,1,.3,1,1v28.8h6.4v2.5h-6.4ZM99.1,676.4l-14.6,21.7h14.6v-21.7Z"/>
                  </g>
                  <g class="cls-27">
                    <path class="cls-11" d="M374.7,697.9c0,2-.3,3.8-.9,5.4-.6,1.6-1.6,3.1-3,4.7-1.4,1.4-2.8,2.5-4.3,3.2-1.5.7-3.2,1-5.3,1s-4.1-.5-5.8-1.6c-1.8-1-3.2-2.5-4.2-4.2-1.5-2.4-2.4-5-2.8-7.7-.4-2.7-.6-5.4-.6-8.1s.4-5.3,1.2-7.9c.8-2.6,2-5,3.8-7.2,1.4-1.9,3.2-3.4,5.3-4.6,2.1-1.2,4.4-1.8,6.9-1.8,2.4,0,4.4.6,6,1.8,1.6,1.2,2.4,3,2.4,5.3s-.3,1.9-1,2.4c-.7.5-1.4.8-2.3.8-.8,0-1.5-.3-2.2-.8-.6-.5-1-1.3-1-2.4s.4-2,1.3-2.6c.6-.3,1.2-.5,1.9-.5.2,0,.2,0,0,0-.3-.4-.9-.8-1.8-1.2-.9-.4-2.1-.6-3.4-.6-1.8,0-3.3.5-4.7,1.6-1.4,1-2.6,2.4-3.6,3.9-1.1,2-1.8,4.2-2.1,6.5-.2,2.4-.4,4.2-.4,5.6.4-.8,1.2-1.8,2.6-3,1.4-1.2,3.1-1.8,5.1-1.8,2,0,3.7.3,5.1,1,1.4.7,2.8,1.7,4.1,3.1,1.4,1.5,2.4,3.1,2.9,4.6.6,1.6.9,3.3.9,5.4ZM368.4,697.9c0-1.8,0-3.5-.2-5-.1-1.5-.5-2.8-1.2-3.9-.7-1.1-1.5-2-2.3-2.5-.9-.5-1.9-.8-3.1-.8-1.3,0-2.5.3-3.4,1-.9.7-1.7,1.6-2.4,2.7-.7,1.1-1.1,2.4-1.4,3.8-.2,1-.3,2.1-.3,3.2s0,.9,0,1.4v.2c0,1.4.2,2.8.3,4,.1,1.2.4,2.3.7,3.1.6,1.4,1.4,2.5,2.4,3.4,1.1.9,2.3,1.3,3.5,1.3,1.3,0,2.4-.3,3.4-.8.9-.5,1.7-1.3,2.4-2.5.7-1.1,1.1-2.4,1.3-3.8.1-1.4.2-3,.2-4.9Z"/>
                  </g>
                  <g class="cls-4">
                    <path class="cls-11" d="M644.2,671.9c0,.1,0,.3-.1.5l-8.9,12.2c-1.1,1.6-2,3.4-2.7,5.3-.6,1.9-1.1,4-1.4,6.1-.3,2.1-.5,4.3-.5,6.5,0,2.2-.1,4.4-.1,6.7s-.3,1.8-1,2.4c-.7.5-1.4.8-2.2.8s-1.5-.3-2.2-.8c-.7-.5-1-1.3-1-2.4,0-4.7.8-9.2,2.4-13.5,1.6-4.3,3.8-8.4,6.6-12.2l5.6-7.6h-10.7c-1.3,0-2.6,0-3.8,0-1.2,0-2.1,0-3,0-.8,0-1.2,0-1.2,0-.2.2-.4.5-.5.9-.1.4-.3.9-.4,1.4-.1.5-.2,1.1-.3,1.7,0,.6-.2,1.2-.3,1.8h-2.2l2.1-13.4h2.2v.6c0,.2.1.4.4.6.4.3.9.4,1.3.5.5,0,1.2.2,2,.2.8,0,1.6.1,2.5.1.9,0,1.8,0,2.7,0h14.9v1.5Z"/>
                  </g>
                  <g class="cls-6">
                    <path class="cls-11" d="M903.5,705.2c0,1.7-.4,3.3-1.1,4.8-.7,1.5-1.7,2.7-3,3.8-1.2,1.1-2.7,1.9-4.3,2.5-1.6.6-3.4.9-5.2.9s-3.4-.2-5-.7c-1.6-.5-3-1.2-4.3-2.2-1.2-.9-2.3-2.1-3-3.5-.8-1.4-1.2-2.9-1.2-4.6s.2-2.7.7-3.9c.5-1.2,1.2-2.2,2-3.2.9-1,1.9-1.8,3-2.6,1.1-.8,2.2-1.4,3.1-1.8l-2.1-1.3c-1.5-1-2.8-2.2-3.7-3.7-.9-1.5-1.4-3.2-1.4-5s.3-3,1-4.2c.7-1.3,1.5-2.4,2.6-3.4,1.1-1,2.3-1.7,3.8-2.2,1.4-.5,2.9-.8,4.4-.8,1.5,0,3,.2,4.4.7,1.4.4,2.7,1.1,3.8,1.9,1.1.8,2,1.8,2.7,3,.7,1.2,1,2.5,1,3.9s-.2,2.2-.7,3.2c-.4,1-1,1.9-1.7,2.7-.7.8-1.5,1.6-2.5,2.2-1,.6-1.8,1.1-2.6,1.5l3.4,2.2c1.7,1.1,3.1,2.5,4.2,4.2,1.1,1.7,1.6,3.6,1.6,5.7ZM898.3,683.5c0-1-.2-2-.7-2.9-.4-.9-1-1.7-1.8-2.3-.8-.7-1.6-1.2-2.6-1.6-1-.4-2.1-.6-3.2-.6-1.1,0-2.1.1-3.1.4-1,.3-1.9.7-2.6,1.3-.8.6-1.4,1.2-1.8,2-.4.8-.7,1.6-.7,2.5s.3,1.9.8,2.7c.5.8,1.2,1.5,2.1,2l7.6,4.8c1.7-.9,3.1-2.1,4.3-3.5,1.2-1.4,1.7-3,1.7-4.9ZM899.7,707.4c0-1.2-.3-2.3-1-3.4-.7-1-1.5-1.9-2.6-2.6l-8.6-5.4c-2,1-3.7,2.4-5.1,4.1-1.4,1.8-2.1,3.8-2.1,6s.3,2.3.8,3.4c.5,1.1,1.2,2,2.1,2.8.9.8,1.9,1.4,3.1,1.8,1.2.4,2.4.7,3.7.7,1.3,0,2.6-.2,3.7-.6,1.2-.4,2.2-.9,3.1-1.6.9-.7,1.6-1.5,2.1-2.4.5-.9.8-1.9.8-3Z"/>
                  </g>
                  <path class="cls-13" d="M16.4,38.3c0-13.1,10.7-23.8,23.8-23.8h187.1c13.2,0,23.8,10.7,23.8,23.8v148.8c0,13.1-10.7,23.8-23.8,23.8H40.2c-13.2,0-23.8-10.7-23.8-23.8V38.3Z"/>
                  <path class="cls-12" d="M70.8,52.5c0,9.8-7.9,17.7-17.7,17.7s-17.7-7.9-17.7-17.7,7.9-17.7,17.7-17.7,17.7,7.9,17.7,17.7Z"/>
                  <g class="cls-26">
                    <g>
                      <path class="cls-14" d="M102.8,57.3c2.5.3,4,.5,4.5.5s.8-.3.8-.9v-7.9h-8.3v10.7c0,1.4,0,2.6.1,3.8l-1.9,1c0-1.8.1-3.4.1-5.1v-10.5h-5.2c-1,0-2,.1-2.8.3l-1.1-1h18.7l1.3-1.3,1.8,1.6-.9.8v7.9c0,.8-.2,1.4-.5,1.8-.3.5-1,.9-2,1.4-.6-1.3-2.1-2.2-4.6-2.6v-.6ZM104.3,42.5c0-1.7,0-3.2-.1-4.6l2.8,1.4-1.1.7v2.5h3.7l2.1-1.8,2.5,2.5h-8.3c0,1.1,0,2,.1,2.9l-1.8.8v-3.7h-6.8v3.1l-1.8.9c0-1.4.1-2.7.1-4h-5.3c-1,0-2,.1-2.8.3l-1.1-1h9.3c0-1.8,0-3.2-.1-4.5l2.7,1.3-.9.8v2.4h6.8Z"/>
                      <path class="cls-14" d="M121.7,48.2v6.3h13v-6.3h-13ZM119.8,57.3c0-1.6.1-3.3.1-5.2s0-3.7-.1-5.5l1.9.9h5.1c0-5.1,0-8.5-.1-10l2.7,1-.9.9v2.8h7.7l1.5-1.5,2.1,2.2h-11.4v4.6h6l1.2-1.1,1.8,1.7-1.1.8c0,3.6,0,6.1.1,7.4l-1.8.7v-1.7h-13v1.4l-1.9.7ZM119.2,57.9h.5c-.5,3-1,4.7-1.5,5.2-.5.5-1,.7-1.4.7s-.5,0-.8-.3c-.3-.2-.5-.4-.5-.6s.2-.5.6-.8c.7-.5,1.2-1,1.6-1.5s.8-1.4,1.5-2.8ZM123.3,58.5l.2-.3c1.7,1.2,2.6,2.1,2.8,2.6.2.5.3.9.3,1.1,0,.5-.2,1-.5,1.3-.4.3-.6.5-.7.5-.3,0-.5-.4-.6-1.1-.2-1.1-.7-2.5-1.5-4ZM129.6,58.4l.2-.3c1.5,1.1,2.4,1.9,2.8,2.5.4.6.5,1,.5,1.3,0,.4-.2.8-.5,1.1-.4.4-.6.6-.7.6-.3,0-.6-.5-.7-1.4-.2-1.3-.8-2.6-1.7-3.8ZM136,58l.2-.3c1.6,1.1,2.7,2,3.3,2.8.6.8.9,1.3.9,1.7s-.2.8-.5,1.1c-.3.4-.5.6-.6.6-.3,0-.6-.5-.8-1.4-.4-1.3-1.2-2.8-2.5-4.5Z"/>
                    </g>
                  </g>
                  <g class="cls-23">
                    <path class="cls-11" d="M60.2,124.4c-2.4,0-4.8-.1-7.1-.1s-4.7,0-7.1.1v-1.7h1.4c.4,0,.8,0,1.2,0,.4,0,.7,0,1.1,0,.3,0,.6-.1.9-.2.2,0,.4-.2.5-.4.1-.2.2-.4.2-.7v-21.6c-.7.3-1.5.6-2.4.7-1,.2-2,.2-3.2.2v-1.6c1.6,0,3-.2,4.4-.6,1.3-.4,2.5-1.1,3.5-2.1h.6c.4,0,.7.2.7.6v24.3c0,.3,0,.5.2.7.1.2.3.3.6.3.2,0,.5.1.8.2.3,0,.7,0,1.1,0,.4,0,.8,0,1.2,0h1.4v1.7Z"/>
                  </g>
                  <g class="cls-1">
                    <g>
                      <path class="cls-14" d="M93.7,120.4c0-2,0-3.3,0-4v-8.8c-.9,1.2-2,2.3-3.1,3.2l-.3-.3c1.5-1.7,2.7-3.5,3.5-5.4.8-1.9,1.3-3.3,1.5-4.3l2,1.1c-.5.2-1.1,1.2-2,2.8h6.8l1.1-1,1.6,1.6h-5.2v3.6h1.9l1.1-1,1.6,1.6h-4.5v3.6h2l1-.9,1.5,1.5h-4.4v4.1h2.8l1.2-1.1,1.7,1.6h-10.3v1.6l-1.2.6ZM98.5,105.4h-3.3l-.3.4v3.2h3.6v-3.6ZM94.9,109.5v3.6h3.6v-3.6h-3.6ZM94.9,113.6v4.1h3.6v-4.1h-3.6ZM97.7,100.8l.2-.3c1.3.6,2.1,1.1,2.4,1.4.3.4.5.7.5.9s-.1.6-.4.9c-.2.3-.4.5-.4.5-.2,0-.4-.3-.6-.9-.3-.8-.9-1.7-1.7-2.6ZM89.2,114.4l3.2-1v.4c-3.5,1.4-5.8,2.6-6.8,3.5l-1.2-1.6c.9-.2,2.1-.6,3.5-1v-7.5h-2l-.8.2-.7-.7h3.6v-3.7c0-.7,0-1.5,0-2.3l2,.9-.7.7v4.5h1l1-.9,1.4,1.5h-3.4v7.2Z"/>
                      <path class="cls-14" d="M108,105.4v5.5h4.6v-5.5h-4.6ZM108,111.5v6h4.6v-6h-4.6ZM113.7,106c0,6.7,0,11.1,0,13.2l-1.2.7v-1.8h-4.6v1.5l-1.2.7c0-2.7,0-5.4,0-8.1s0-5.3,0-8l1.3.8h.9c.6-1.9.9-3.4,1-4.5l2,1c-.6.3-1.4,1.4-2.4,3.4h2.9l.9-.9,1.3,1.3-.9.6ZM118.1,100.5l2,1.1c-.5.3-1.2,1.5-2.2,3.5h4.8l1-.9,1.3,1.3-.8.6c-.1,6.7-.3,10.5-.5,11.4-.2.9-.5,1.5-.9,1.8-.4.3-1,.7-1.8.9-.3-.9-1.3-1.6-2.9-2.1v-.4c1.5.3,2.6.4,3.2.4s1.1-.5,1.2-1.5c.1-1,.3-4.7.4-11.1h-5.1c-1.1,1.7-2.2,3.1-3.4,4.2l-.3-.2c1.2-1.8,2.2-3.5,2.8-4.9.6-1.4,1-2.9,1.3-4.3ZM116.5,109c1.4,1,2.3,1.8,2.5,2.3.2.5.4.8.4,1.1,0,.4-.1.8-.4,1-.2.3-.4.4-.5.4-.2,0-.4-.4-.5-1.2-.2-1.1-.8-2.3-1.6-3.4l.2-.3Z"/>
                      <path class="cls-14" d="M129.9,116.2c0,2,0,3.4,0,4.1l-1.3.4c0-2.1,0-3.4,0-4.1v-8.5c-1.1,1.7-2.1,3-3.1,4.1l-.3-.2c1.1-1.7,2.1-3.5,3-5.6.9-2.1,1.6-4,2-5.8l1.9,1.1-.9.5c-.9,2.1-1.6,3.6-1.9,4.3l1.1.6-.7.5v8.6ZM134.7,107.3v2.6h6.8v-2.6h-6.8ZM134.7,110.4v2.6h6.8v-2.6h-6.8ZM134.7,113.5v2.6h6.8v-2.6h-6.8ZM134.7,116.6v2.6h6.8v-2.6h-6.8ZM137.1,103.8c0-1.3,0-2.4,0-3.4l2,.9-.7.5v1.9c0,0,3.9,0,3.9,0l1.2-1.1,1.7,1.6h-6.8v2.5c0,0,3,0,3,0l.8-.9,1.3,1.1-.8.5v11.6h.8l1.2-1.1,1.7,1.6h-13.2c-.8,0-1.5,0-2.1.3l-.8-.8h3.3v-9.6c0-.7,0-1.9,0-3.5l1.2.7h2.3v-2.5c0,0-2.6,0-2.6,0-.8,0-1.5,0-2.1.3l-.8-.8h5.6Z"/>
                      <path class="cls-14" d="M174.1,113.3c0,.6-.1,1.2-.4,1.8-.2.6-.6,1.1-1,1.5-.4.4-.9.8-1.5,1-.6.2-1.2.4-1.8.4s-1-.1-1.5-.3c-.4-.2-.7-.5-.9-.7v3.3c0,.1,0,.2,0,.3,0,0,0,.2.2.2.1,0,.3,0,.6,0,.3,0,.5,0,.8,0v.8c-.8,0-1.7,0-2.4,0s-1.6,0-2.4,0v-.8c.3,0,.6,0,.8,0,.3,0,.4,0,.6,0,0,0,.1-.1.2-.2,0,0,0-.2,0-.3v-9.7c0-.1,0-.3,0-.4,0-.1,0-.2-.2-.3-.1,0-.3-.1-.6-.1-.3,0-.5,0-.8,0v-.8l3.2-.2v1.2c.2-.3.6-.5,1.1-.8.5-.2,1.1-.4,1.6-.4.6,0,1.2.1,1.7.4.5.2,1,.6,1.4,1,.4.4.7.9,1,1.5.2.6.3,1.2.3,1.8ZM172.1,113.3c0-.5,0-1-.2-1.5-.1-.5-.3-.9-.6-1.3-.2-.3-.5-.6-.8-.8-.3-.2-.6-.3-1-.3-.6,0-1.1.1-1.5.4-.5.3-.8.7-1,1.1v4.8c.2.5.5.9.9,1.2.4.3.9.5,1.4.5.4,0,.8-.1,1.1-.3.3-.2.6-.5.9-.8.3-.4.5-.9.7-1.4.1-.5.2-1,.2-1.5Z"/>
                      <path class="cls-14" d="M182.1,109.9c0,.3-.1.6-.3.7-.2.2-.4.2-.7.2-.2,0-.5,0-.7-.2-.2-.2-.3-.4-.3-.7s0-.4.2-.5c0-.1.2-.2.2-.2.1,0,.1,0,0,0-.4,0-.7,0-1,.3-.3.2-.5.5-.7.8-.2.3-.4.7-.5,1.2,0,.4-.2.9-.2,1.4v3.3c0,.1,0,.2,0,.3,0,0,.1.2.2.2.2,0,.4,0,.7.1.3,0,.7,0,1,0v.8c-.9,0-1.8,0-2.6,0h-.4c-.7,0-1.5,0-2.2,0v-.8c.3,0,.6,0,.8,0,.3,0,.4,0,.6-.1,0,0,.1-.1.2-.2,0,0,0-.2,0-.3v-5.6c0-.2,0-.3,0-.5,0-.1,0-.3-.2-.4-.1,0-.3-.1-.5-.1-.3,0-.5,0-.8,0v-.8l3.1-.2v1.7c0-.2.3-.6.7-1,.4-.4,1-.7,1.7-.7.4,0,.8.1,1.1.4.3.2.5.6.5,1Z"/>
                      <path class="cls-14" d="M186.3,105.2c0,.3-.1.6-.4.8-.2.2-.5.3-.8.3-.3,0-.6-.1-.8-.3-.2-.2-.3-.5-.3-.8s.1-.6.3-.8c.2-.2.5-.3.8-.3.3,0,.6.1.8.3.2.2.4.5.4.8ZM187.7,117.7c-.8,0-1.6,0-2.3,0s-1.5,0-2.3,0v-.8c.3,0,.6,0,.8,0,.3,0,.4,0,.6-.1,0,0,.1-.1.2-.2,0,0,0-.2,0-.3v-5.6c0-.2,0-.3,0-.5,0-.1,0-.3-.2-.4-.1,0-.3-.1-.5-.1-.2,0-.5,0-.8,0v-.8l3.1-.2v7.6c0,.1,0,.2,0,.3,0,0,0,.2.1.2.1,0,.3,0,.5.1.2,0,.5,0,.8,0v.8Z"/>
                      <path class="cls-14" d="M197.8,113.3c0,.6-.1,1.2-.4,1.8-.2.6-.6,1.1-1,1.5-.4.4-.9.7-1.5,1-.6.2-1.2.4-1.8.4s-1.2-.1-1.8-.4c-.6-.2-1.1-.6-1.5-1-.5-.4-.8-.9-1-1.5-.2-.6-.3-1.1-.3-1.8s.1-1.2.3-1.8c.2-.6.6-1.1,1-1.6.4-.4.9-.8,1.5-1,.6-.3,1.2-.4,1.8-.4.6,0,1.2.1,1.8.4.6.3,1.1.6,1.5,1,.5.5.8,1,1,1.6.2.6.3,1.2.3,1.8ZM195.9,113.1c0-.5,0-1-.1-1.5,0-.5-.2-.9-.5-1.3-.3-.3-.6-.6-.9-.8-.4-.2-.8-.3-1.2-.3-.4,0-.8,0-1.2.3-.4.2-.7.5-.9.8-.3.4-.4.8-.5,1.3,0,.5-.1,1-.1,1.5s0,1.1,0,1.6c0,.5.2,1,.5,1.4.2.3.5.6.9.8.4.2.8.3,1.2.3.4,0,.8,0,1.2-.3.4-.2.7-.5.9-.8.3-.4.5-.9.5-1.4,0-.5,0-1,0-1.6Z"/>
                      <path class="cls-14" d="M205.8,109.9c0,.3-.1.6-.3.7-.2.2-.4.2-.7.2-.2,0-.5,0-.7-.2-.2-.2-.3-.4-.3-.7s0-.4.1-.5c.1-.1.2-.2.2-.2.1,0,.1,0,0,0-.4,0-.7,0-1,.3-.3.2-.5.5-.7.8-.2.3-.4.7-.5,1.2,0,.4-.2.9-.2,1.4v3.3c0,.1,0,.2,0,.3,0,0,.1.2.2.2.2,0,.4,0,.7.1.3,0,.7,0,1,0v.8c-.9,0-1.8,0-2.6,0h-.4c-.7,0-1.5,0-2.2,0v-.8c.3,0,.6,0,.8,0,.3,0,.4,0,.6-.1,0,0,.1-.1.2-.2,0,0,0-.2,0-.3v-5.6c0-.2,0-.3,0-.5,0-.1,0-.3-.2-.4-.1,0-.3-.1-.6-.1-.3,0-.5,0-.8,0v-.8l3.1-.2v1.7c0-.2.3-.6.7-1,.4-.4,1-.7,1.7-.7.4,0,.8.1,1.1.4.3.2.5.6.5,1Z"/>
                      <path class="cls-14" d="M210,105.2c0,.3-.1.6-.4.8-.2.2-.5.3-.8.3-.3,0-.6-.1-.8-.3-.2-.2-.3-.5-.3-.8s.1-.6.3-.8c.2-.2.5-.3.8-.3.3,0,.6.1.8.3.2.2.4.5.4.8ZM211.4,117.7c-.8,0-1.6,0-2.3,0s-1.5,0-2.3,0v-.8c.3,0,.6,0,.8,0,.3,0,.4,0,.6-.1,0,0,.1-.1.2-.2,0,0,0-.2,0-.3v-5.6c0-.2,0-.3,0-.5,0-.1,0-.3-.2-.4-.1,0-.3-.1-.5-.1-.2,0-.5,0-.8,0v-.8l3.1-.2v7.6c0,.1,0,.2,0,.3,0,0,0,.2.2.2.1,0,.3,0,.5.1.2,0,.5,0,.8,0v.8Z"/>
                      <path class="cls-14" d="M218.7,115.1c0,.3,0,.7-.1,1,0,.3-.2.6-.4.9-.2.3-.4.5-.6.6-.3.2-.6.2-.9.2s-.7,0-1.1-.2c-.4-.1-.7-.3-1-.6-.3-.3-.5-.6-.6-1-.1-.4-.2-.7-.2-1.1v-5.5h-1.8v-.6c.5,0,.9-.1,1.2-.3.3-.2.6-.5.8-.8.2-.3.4-.8.5-1.2.1-.5.2-1,.2-1.5h.7v3.7h2.9v.8h-2.9v5.5c0,.3,0,.6,0,.8,0,.3.1.5.3.7.2.3.5.5.9.5.2,0,.4,0,.5-.2.2-.1.3-.2.4-.4.1-.2.2-.4.3-.7,0-.3,0-.5,0-.8v-1.3h.7v1.3Z"/>
                      <path class="cls-14" d="M230.2,109.6c-.2,0-.5,0-.7,0-.2,0-.4.1-.5.2-.2.1-.3.2-.4.4-.1.2-.2.3-.3.5l-3.6,8.5c-.1.3-.3.6-.5.9-.2.3-.4.6-.6.8-.2.2-.5.4-.8.6-.3.1-.6.2-.9.2s-.5,0-.8-.1c-.2,0-.5-.2-.6-.4-.2-.2-.3-.3-.4-.6-.1-.2-.2-.4-.2-.7s0-.5.3-.7c.2-.2.4-.2.7-.2s.5,0,.7.2c.2.2.3.4.3.7s0,.5-.3.7c-.2.2-.3.2-.4.2,0,0,0,0,.3,0,.2,0,.3,0,.5,0s.5,0,.7-.2c.2-.1.4-.2.6-.4.2-.2.3-.4.4-.6.1-.2.2-.5.4-.7l.7-1.7-3.1-7.3c0-.1-.1-.2-.2-.3,0-.1-.2-.2-.3-.2-.1,0-.3,0-.5,0-.2,0-.5,0-.7,0v-.8c.7,0,1.4,0,2,0,0,0,.2,0,.2,0,.7,0,1.5,0,2.2,0v.8c-.2,0-.5,0-.6,0-.2,0-.3,0-.4.1,0,0-.1.1-.1.2h0c0,.1,0,.2,0,.3l2.3,5.3,2-4.8c0-.1,0-.2,0-.4h0c0-.2,0-.3-.2-.4,0-.1-.2-.2-.3-.3-.1,0-.3,0-.5,0v-.8c.6,0,1.2,0,1.8,0,0,0,.1,0,.2,0,.5,0,1,0,1.6,0v.8Z"/>
                      <path class="cls-14" d="M161.6,121.2c-6.5-4.3-6.5-14.8,0-19.2h1c-5.9,4.3-5.9,14.8,0,19.2"/>
                      <path class="cls-14" d="M232.3,102.1c6.5,4.3,6.5,14.8,0,19.2h-1c5.9-4.3,5.9-14.8,0-19.2"/>
                    </g>
                  </g>
                  <g class="cls-8">
                    <path class="cls-14" d="M60.2,186.8c-2.4,0-4.8-.1-7.1-.1s-4.7,0-7.1.1v-1.7h1.4c.4,0,.8,0,1.2,0,.4,0,.7,0,1.1,0,.3,0,.6-.1.9-.2.2,0,.4-.2.5-.4.1-.2.2-.4.2-.7v-21.6c-.7.3-1.5.6-2.4.7-1,.2-2,.2-3.2.2v-1.6c1.6,0,3-.2,4.4-.6,1.3-.4,2.5-1.1,3.5-2.1h.6c.4,0,.7.2.7.6v24.3c0,.3,0,.5.2.7.1.2.3.3.6.3.2,0,.5.1.8.2.3,0,.7,0,1.1,0,.4,0,.8,0,1.2,0h1.4v1.7Z"/>
                  </g>
                  <g class="cls-9">
                    <g>
                      <path class="cls-14" d="M91,164.6h4.9l.7-.8,1.4,1.1-.8.5c-.5,2.1-1.1,4.2-2,6.3.7,1,1.1,1.7,1.2,2.2.2.5.3,1,.3,1.4s0,.8-.3,1c-.2.3-.3.4-.4.4-.2,0-.4-.4-.5-1.1-.3-1.1-.6-2.1-1-3-1.4,2.4-2.9,4.2-4.7,5.5l-.2-.3c1.7-1.7,3.1-3.8,4.3-6.3-.7-1.4-1.3-2.7-2-3.9l.3-.2c.5.6,1.2,1.7,2.1,3.1.5-1.3,1-3.2,1.5-5.6h-3.3l-1,.2-.7-.7ZM100.6,161.2l2.2,1-.9.5v3.8h.7l1-.9,1.5,1.5h-3.2v12.3c-.1.8-.8,1.4-2.1,1.8,0-.7-1-1.4-3-2.1v-.3c1.3.2,2.3.3,3,.3s1-.3.9-1v-11h-2l-.8.2-.7-.7h3.5c0-1.7,0-3.5,0-5.3ZM97.2,169.6c.9.8,1.6,1.5,1.9,2,.3.5.4,1,.4,1.3s-.1.7-.4,1c-.2.3-.4.4-.4.4-.2,0-.4-.4-.5-1.1-.2-1.1-.6-2.2-1.2-3.4l.3-.2ZM89.1,169.9c0,6,0,9.7,0,11l-1.4.5c0-2.6,0-5.9,0-9.9-1,2.1-2.2,3.9-3.5,5.3l-.3-.2c1.7-2.5,3-5.6,3.7-9.3h-2.2l-.8.2-.7-.7h3.7c0-1.5,0-3.4,0-5.6l2.1,1-.8.5v4.1h.9l1-.9,1.5,1.5h-3.4v2.2c1.2.5,2,1,2.4,1.3.4.3.5.7.5,1s0,.5-.2.8c-.1.3-.2.4-.3.4-.2,0-.4-.2-.5-.6-.3-.6-.9-1.5-1.9-2.5Z"/>
                      <path class="cls-14" d="M107.7,166.2v5.5h4.6v-5.5h-4.6ZM107.7,172.2v6h4.6v-6h-4.6ZM113.5,166.7c0,6.7,0,11.1,0,13.2l-1.2.7v-1.8h-4.6v1.5l-1.2.7c0-2.7,0-5.4,0-8.1s0-5.3,0-8l1.3.8h.9c.6-1.9.9-3.4,1-4.5l2,1c-.6.3-1.4,1.4-2.4,3.4h2.9l.9-.9,1.3,1.3-.9.6ZM117.9,161.2l2,1.1c-.5.3-1.2,1.5-2.2,3.5h4.8l1-.9,1.3,1.3-.8.6c-.1,6.7-.3,10.5-.5,11.4-.2.9-.5,1.5-.9,1.8-.4.3-1,.7-1.8.9-.3-.9-1.3-1.6-2.9-2.1v-.4c1.5.3,2.6.4,3.2.4s1.1-.5,1.2-1.5c.1-1,.3-4.7.4-11.1h-5.1c-1.1,1.7-2.2,3.1-3.4,4.2l-.3-.2c1.2-1.8,2.2-3.5,2.8-4.9.6-1.4,1-2.9,1.3-4.3ZM116.3,169.7c1.4,1,2.3,1.8,2.5,2.3.2.5.4.8.4,1.1,0,.4-.1.8-.4,1-.2.3-.4.4-.5.4-.2,0-.4-.4-.5-1.2-.2-1.1-.8-2.3-1.6-3.4l.2-.3Z"/>
                      <path class="cls-14" d="M129.7,176.9c0,2,0,3.4,0,4.1l-1.3.4c0-2.1,0-3.4,0-4.1v-8.5c-1.1,1.7-2.1,3-3.1,4.1l-.3-.2c1.1-1.7,2.1-3.5,3-5.6.9-2.1,1.6-4,2-5.8l1.9,1.1-.9.5c-.9,2.1-1.6,3.6-1.9,4.3l1.1.6-.7.5v8.6ZM134.5,168v2.6h6.8v-2.6h-6.8ZM134.5,171.2v2.6h6.8v-2.6h-6.8ZM134.5,174.3v2.6h6.8v-2.6h-6.8ZM134.5,177.4v2.6h6.8v-2.6h-6.8ZM136.9,164.5c0-1.3,0-2.4,0-3.4l2,.9-.7.5v1.9c0,0,3.9,0,3.9,0l1.2-1.1,1.7,1.6h-6.8v2.5c0,0,3,0,3,0l.8-.9,1.3,1.1-.8.5v11.6h.8l1.2-1.1,1.7,1.6h-13.1c-.8,0-1.5,0-2.1.3l-.8-.8h3.3v-9.6c0-.7,0-1.9,0-3.5l1.2.7h2.3v-2.5c0,0-2.6,0-2.6,0-.8,0-1.5,0-2.1.3l-.8-.8h5.6Z"/>
                      <path class="cls-14" d="M173.7,170.4c-.3,0-.5,0-.7,0-.2,0-.4.1-.5.2-.2.1-.3.2-.4.4-.1.2-.2.3-.3.5l-2.8,6.7c0,.2-.2.3-.4.3h0c-.2,0-.3,0-.4-.3l-3-7.3c0-.1-.1-.2-.2-.3,0-.1-.1-.2-.2-.2-.1,0-.3,0-.5,0-.2,0-.5,0-.7,0v-.8c.7,0,1.4,0,2,0,0,0,.2,0,.2,0,.7,0,1.4,0,2.2,0v.8c-.2,0-.4,0-.6,0-.2,0-.3,0-.4.1,0,0-.1.1-.1.2s0,.1,0,.2l2.3,5.5,2.1-4.9c0-.1,0-.2,0-.4h0c0-.2,0-.3-.1-.4,0-.1-.2-.2-.3-.3-.1,0-.3,0-.5,0v-.8c.6,0,1.2,0,1.8,0,0,0,.1,0,.2,0,.5,0,1,0,1.6,0v.8Z"/>
                      <path class="cls-14" d="M184.2,176.7c0,.3,0,.5-.1.7,0,.2-.2.4-.4.6-.2.2-.4.3-.6.4-.2,0-.5.1-.7.1-.5,0-.9-.2-1.2-.5-.3-.3-.5-.6-.5-.8-.1.3-.4.6-.9.9-.5.3-1,.5-1.7.5s-.8,0-1.2-.1c-.4,0-.8-.2-1.1-.4-.3-.2-.6-.4-.8-.7-.2-.3-.3-.6-.3-1s.2-1.1.5-1.5c.4-.4.8-.8,1.3-1,.6-.3,1.3-.5,2-.6.7-.1,1.4-.2,2-.2v-.8c0-.3,0-.6-.1-.9-.1-.3-.3-.5-.5-.8-.4-.4-.9-.7-1.4-.7-.5,0-.9,0-1.3.2-.4.1-.6.3-.8.5h-.1c.2,0,.5,0,.7.2.2.2.4.4.4.8s-.1.6-.3.8c-.2.2-.5.3-.7.3-.3,0-.5,0-.7-.3-.2-.2-.3-.4-.3-.8s0-.7.3-1c.2-.3.4-.5.7-.7.3-.2.6-.3,1-.4.4,0,.8-.1,1.1-.1.5,0,.9,0,1.4.2.4.1.8.3,1.2.6.3.3.6.6.8.9.2.4.3.7.3,1.2v4.5c0,.3,0,.5.2.7.1.2.3.3.5.3.2,0,.4-.1.5-.3.1-.2.2-.4.2-.7v-1.4h.7v1.4ZM180.5,173.6c-.4,0-.9,0-1.4.2-.5.1-1,.3-1.4.5-.4.2-.7.5-.9.9-.2.4-.3.8-.3,1.2s0,.4.1.6c0,.2.2.4.4.5.2.1.3.3.6.3.2,0,.4.1.7.1.3,0,.6,0,.9-.2.3-.1.5-.3.7-.5.2-.2.4-.5.5-.8.1-.3.2-.6.2-.9v-2Z"/>
                      <path class="cls-14" d="M189.5,178.4c-.8,0-1.6,0-2.4,0s-1.6,0-2.4,0v-.8c.3,0,.6,0,.8,0,.3,0,.4,0,.6-.1,0,0,.1-.1.2-.2,0,0,0-.2,0-.3v-10.6c0-.2,0-.3,0-.5,0-.2,0-.3-.2-.4-.1,0-.3-.1-.6-.1-.3,0-.5,0-.8,0v-.8l3.2-.2v12.7c0,.1,0,.2,0,.3,0,0,0,.2.2.2.1,0,.3,0,.6.1.3,0,.5,0,.8,0v.8Z"/>
                      <path class="cls-14" d="M161.4,182c-6.5-4.3-6.5-14.8,0-19.2h1c-5.9,4.3-5.9,14.8,0,19.2"/>
                      <path class="cls-14" d="M191.6,162.8c6.5,4.3,6.5,14.8,0,19.2h-1c5.9-4.3,5.9-14.8,0-19.2"/>
                    </g>
                  </g>
                  <g class="cls-30">
                    <g>
                      <path class="cls-14" d="M174.6,732.9c0,.5,0,1-.3,1.4-.2.5-.5.9-.8,1.2-.3.4-.7.6-1.2.8-.5.2-1,.3-1.5.3s-.9-.1-1.3-.3c-.4-.2-.7-.5-.9-.8l-.6.9h-.5v-9.7c0-.1,0-.3,0-.4,0-.1,0-.2-.2-.3,0,0-.2,0-.4-.1-.2,0-.4,0-.7,0v-.6l2.5-.2v5c.2-.2.5-.4.9-.6.4-.2.8-.3,1.3-.3.5,0,1,0,1.4.3.4.2.8.5,1.1.8.3.4.6.8.8,1.2.2.5.3.9.3,1.4ZM173.1,732.9c0-.4,0-.8-.1-1.2,0-.4-.2-.8-.4-1.1-.2-.3-.4-.5-.7-.7-.3-.2-.6-.2-.9-.2-.5,0-.9.1-1.2.3-.4.2-.6.5-.8.9v3.8c.2.4.4.7.8.9.3.2.7.4,1.1.4.3,0,.7,0,1-.2.3-.2.6-.4.8-.6.2-.3.4-.7.5-1.1,0-.4.1-.8.1-1.2Z"/>
                      <path class="cls-14" d="M183.5,730c-.2,0-.4,0-.5,0-.2,0-.3.1-.4.2-.1,0-.3.2-.3.3,0,.1-.2.3-.2.4l-2.9,6.8c0,.2-.2.5-.4.7s-.3.4-.5.6c-.2.2-.4.3-.6.5-.2.1-.5.2-.8.2s-.4,0-.6-.1c-.2,0-.4-.2-.5-.3-.1-.1-.3-.3-.4-.4,0-.2-.1-.4-.1-.6s0-.4.2-.6c.2-.1.3-.2.5-.2s.4,0,.5.2c.2.1.2.3.2.6s0,.4-.2.5c-.2.1-.3.2-.3.2,0,0,0,0,.2,0,.1,0,.3,0,.4,0s.4,0,.5-.1c.2,0,.3-.2.5-.3.1-.1.3-.3.4-.5.1-.2.2-.4.3-.6l.6-1.3-2.4-5.8c0,0,0-.2-.1-.3,0,0-.1-.1-.2-.2-.1,0-.2,0-.4,0-.2,0-.4,0-.6,0v-.7c.6,0,1.1,0,1.6,0,0,0,.1,0,.2,0,.6,0,1.2,0,1.8,0v.7c-.2,0-.4,0-.5,0-.1,0-.2,0-.3.1,0,0,0,0-.1.1h0c0,0,0,.1,0,.2l1.8,4.2,1.6-3.8c0,0,0-.2,0-.3h0c0-.1,0-.2-.1-.3,0,0-.1-.2-.3-.2-.1,0-.2,0-.4,0v-.7c.5,0,1,0,1.4,0,0,0,0,0,.1,0,.4,0,.8,0,1.3,0v.7Z"/>
                      <path class="cls-14" d="M199.7,729.2c0-.3,0-.5,0-.8s0-.5-.1-.7c0-.2-.1-.4-.2-.6,0-.2-.2-.3-.3-.4-.2-.2-.5-.4-.9-.4-.3,0-.7,0-1,0h-.7c-.1,0-.2,0-.4,0-.1,0-.2,0-.3,0,0,0,0,0,0,.2,0,0,0,.2,0,.2v8.7c0,.1,0,.2,0,.3,0,0,.1.1.2.1,0,0,.2,0,.4,0,.2,0,.3,0,.5,0,.2,0,.4,0,.6,0h.6v.7c-1.1,0-2.2,0-3.2,0s-2.1,0-3.2,0v-.7h.6c.2,0,.4,0,.6,0,.2,0,.3,0,.5,0,.2,0,.3,0,.4,0,.1,0,.2,0,.3-.1,0,0,0-.2,0-.3v-8.7c0,0,0-.2,0-.2,0,0,0-.1,0-.2,0,0-.1,0-.3,0-.1,0-.3,0-.4,0h-.7c-.3,0-.7,0-1,0-.3,0-.6.2-.9.4-.1.1-.2.3-.3.5,0,.2-.1.4-.2.6,0,.2,0,.5-.1.7,0,.3,0,.5,0,.8h-.6l.3-3.8h10.2l.3,3.8h-.6Z"/>
                      <path class="cls-14" d="M211.5,729.2c0-.3,0-.5,0-.8,0-.3,0-.5-.1-.7,0-.2-.1-.4-.2-.6,0-.2-.2-.3-.3-.4-.2-.2-.5-.4-.9-.4-.3,0-.7,0-1,0h-.7c-.1,0-.2,0-.4,0-.1,0-.2,0-.3,0,0,0,0,0,0,.2,0,0,0,.2,0,.2v8.7c0,.1,0,.2,0,.3,0,0,.1.1.2.1,0,0,.2,0,.4,0,.2,0,.3,0,.5,0,.2,0,.4,0,.6,0h.6v.7c-1.1,0-2.2,0-3.2,0s-2.1,0-3.2,0v-.7h.6c.2,0,.4,0,.6,0,.2,0,.3,0,.5,0,.2,0,.3,0,.4,0,.1,0,.2,0,.3-.1,0,0,0-.2,0-.3v-8.7c0,0,0-.2,0-.2,0,0,0-.1-.1-.2,0,0-.1,0-.3,0-.1,0-.3,0-.4,0h-.7c-.3,0-.7,0-1,0-.3,0-.6.2-.9.4-.1.1-.2.3-.3.5,0,.2-.1.4-.2.6,0,.2,0,.5-.1.7,0,.3,0,.5,0,.8h-.6l.3-3.8h10.2l.3,3.8h-.6Z"/>
                      <path class="cls-14" d="M221.3,736.5h-7.9c-.2,0-.3,0-.3-.3v-.2c0,0,0,0,0-.1l6.5-9.9h-2.3c-.5,0-.9,0-1.4.1-.5,0-.8.3-1.2.6-.3.3-.5.7-.6,1.1-.1.4-.2.9-.2,1.4h-.6l.2-3.8h7.7c.2,0,.3,0,.3.3h0c0,.2,0,.2,0,.3l-6.4,9.9h2.4c.5,0,1,0,1.5-.1.5,0,.9-.3,1.3-.6.2-.2.3-.4.4-.6.1-.2.2-.5.2-.7,0-.3.1-.5.1-.8,0-.3,0-.6,0-.9h.6l-.3,4.4Z"/>
                      <path class="cls-14" d="M234.3,726c-.3,0-.5,0-.7,0-.2,0-.4,0-.6.2-.3.2-.6.4-.8.7l-3.2,5.1v3.3c0,0,0,.2,0,.3,0,0,0,.1.2.2.1,0,.3,0,.6,0,.3,0,.6,0,.9,0v.7c-.9,0-1.7,0-2.5,0s-1.6,0-2.5,0v-.7c.3,0,.6,0,.9,0,.3,0,.5,0,.6,0,0,0,.1,0,.2-.2,0,0,0-.2,0-.3v-3.3l-3.5-5.5c0,0-.1-.2-.2-.3,0,0-.2-.1-.3-.2-.1,0-.3,0-.6,0-.2,0-.5,0-.7,0v-.7c.7,0,1.4,0,2,0,.1,0,.2,0,.3,0,.8,0,1.5,0,2.4,0v.6c-.2,0-.4,0-.6,0-.2,0-.3,0-.5.1,0,0,0,0,0,.1,0,0,0,0,0,0,0,0,0,0,0,.1l3,4.7,2.7-4.3c0-.1.1-.2.1-.3h0c0-.1,0-.2,0-.3,0-.1-.2-.2-.3-.2-.1,0-.3,0-.5,0v-.6c.6,0,1.3,0,1.8,0,0,0,.1,0,.2,0,.5,0,1,0,1.6,0v.7Z"/>
                      <path class="cls-14" d="M245.2,729.2c0-.3,0-.5,0-.8,0-.3,0-.5-.1-.7,0-.2-.1-.4-.2-.6,0-.2-.2-.3-.3-.4-.2-.2-.5-.4-.9-.4-.3,0-.7,0-1,0h-.7c-.1,0-.2,0-.4,0-.1,0-.2,0-.3,0,0,0,0,0,0,.2,0,0,0,.2,0,.2v8.7c0,.1,0,.2,0,.3,0,0,.1.1.2.1,0,0,.2,0,.4,0,.2,0,.3,0,.5,0,.2,0,.4,0,.6,0h.6v.7c-1.1,0-2.2,0-3.2,0s-2.1,0-3.2,0v-.7h.6c.2,0,.4,0,.6,0,.2,0,.3,0,.5,0,.2,0,.3,0,.4,0,.1,0,.2,0,.3-.1,0,0,0-.2,0-.3v-8.7c0,0,0-.2,0-.2,0,0,0-.1-.1-.2,0,0-.1,0-.3,0-.1,0-.3,0-.4,0h-.7c-.3,0-.7,0-1,0-.3,0-.6.2-.9.4-.1.1-.2.3-.3.5,0,.2-.1.4-.2.6,0,.2,0,.5-.1.7,0,.3,0,.5,0,.8h-.6l.3-3.8h10.2l.3,3.8h-.6Z"/>
                      <path class="cls-14" d="M257,729.2c0-.3,0-.5,0-.8,0-.3,0-.5-.1-.7,0-.2-.1-.4-.2-.6,0-.2-.2-.3-.3-.4-.2-.2-.5-.4-.9-.4-.3,0-.7,0-1,0h-.7c-.1,0-.2,0-.4,0-.1,0-.2,0-.3,0,0,0,0,0,0,.2,0,0,0,.2,0,.2v8.7c0,.1,0,.2,0,.3,0,0,.1.1.2.1,0,0,.2,0,.4,0,.2,0,.3,0,.5,0,.2,0,.4,0,.6,0h.6v.7c-1.1,0-2.2,0-3.2,0s-2.1,0-3.2,0v-.7h.6c.2,0,.4,0,.6,0,.2,0,.3,0,.5,0,.2,0,.3,0,.4,0,.1,0,.2,0,.3-.1,0,0,0-.2,0-.3v-8.7c0,0,0-.2,0-.2,0,0,0-.1-.1-.2,0,0-.1,0-.3,0-.1,0-.3,0-.4,0h-.7c-.4,0-.7,0-1,0-.3,0-.6.2-.9.4-.1.1-.2.3-.3.5,0,.2-.1.4-.2.6,0,.2,0,.5-.1.7,0,.3,0,.5,0,.8h-.6l.3-3.8h10.2l.3,3.8h-.6Z"/>
                    </g>
                  </g>
                </g>
              </g>
            </g>
          </g>
        </g>
      </g>
      <path class="cls-14" d="M661.4,333c0,.1,0,.3-.1.5l-8.9,12.2c-1.1,1.6-2,3.4-2.7,5.3-.6,1.9-1.1,4-1.4,6.1-.3,2.1-.5,4.3-.5,6.5,0,2.2-.1,4.4-.1,6.7s-.3,1.8-1,2.4c-.7.5-1.4.8-2.2.8s-1.5-.3-2.2-.8c-.7-.5-1-1.3-1-2.4,0-4.7.8-9.2,2.4-13.5,1.6-4.3,3.8-8.4,6.6-12.2l5.6-7.6h-10.7c-1.3,0-2.6,0-3.8,0-1.2,0-2.1,0-3,0-.8,0-1.2,0-1.2,0-.2.2-.4.5-.5.9-.1.4-.3.9-.4,1.4-.1.5-.2,1.1-.3,1.7,0,.6-.2,1.2-.3,1.8h-2.2l2.1-13.4h2.2v.6c0,.2.1.4.4.6.4.3.9.4,1.3.5.5,0,1.2.2,2,.2.8,0,1.6.1,2.5.1.9,0,1.8,0,2.7,0h14.9v1.5Z"/>
      <path class="cls-14" d="M591.2,698.2c0,2-.3,3.8-.9,5.4-.6,1.6-1.6,3.1-3,4.7-1.4,1.4-2.8,2.5-4.3,3.2-1.5.7-3.2,1-5.3,1s-4.1-.5-5.8-1.6c-1.8-1-3.2-2.5-4.2-4.2-1.5-2.4-2.4-5-2.8-7.7-.4-2.7-.6-5.4-.6-8.1s.4-5.3,1.2-7.9c.8-2.6,2-5,3.8-7.2,1.4-1.9,3.2-3.4,5.3-4.6,2.1-1.2,4.4-1.8,6.9-1.8,2.4,0,4.4.6,6,1.8,1.6,1.2,2.4,3,2.4,5.3s-.3,1.9-1,2.4c-.7.5-1.4.8-2.3.8-.8,0-1.5-.3-2.2-.8-.6-.5-1-1.3-1-2.4s.4-2,1.3-2.6c.6-.3,1.2-.5,1.9-.5.2,0,.2,0,0,0-.3-.4-.9-.8-1.8-1.2-.9-.4-2.1-.6-3.4-.6-1.8,0-3.3.5-4.7,1.6-1.4,1-2.6,2.4-3.6,3.9-1.1,2-1.8,4.2-2.1,6.5-.2,2.4-.4,4.2-.4,5.6.4-.8,1.2-1.8,2.6-3,1.4-1.2,3.1-1.8,5.1-1.8,2,0,3.7.3,5.1,1,1.4.7,2.8,1.7,4.1,3.1,1.4,1.5,2.4,3.1,2.9,4.6.6,1.6.9,3.3.9,5.4ZM584.9,698.2c0-1.8,0-3.5-.2-5-.1-1.5-.5-2.8-1.2-3.9-.7-1.1-1.5-2-2.3-2.5-.9-.5-1.9-.8-3.1-.8-1.3,0-2.5.3-3.4,1-.9.7-1.7,1.6-2.4,2.7-.7,1.1-1.1,2.4-1.4,3.8-.2,1-.3,2.1-.3,3.2s0,.9,0,1.4v.2c0,1.4.2,2.8.3,4,.1,1.2.4,2.3.7,3.1.6,1.4,1.4,2.5,2.4,3.4,1.1.9,2.3,1.3,3.5,1.3,1.3,0,2.4-.3,3.4-.8.9-.5,1.7-1.3,2.4-2.5.7-1.1,1.1-2.4,1.3-3.8.1-1.4.2-3,.2-4.9Z"/>
      <path class="cls-16" d="M825.7,670.9"/>
      <path class="cls-15" d="M858.5,705.2c0,1.7-.4,3.3-1.1,4.8-.7,1.5-1.7,2.7-3,3.8-1.2,1.1-2.7,1.9-4.3,2.5-1.6.6-3.4.9-5.2.9s-3.4-.2-5-.7c-1.6-.5-3-1.2-4.3-2.2-1.2-.9-2.3-2.1-3-3.5-.8-1.4-1.2-2.9-1.2-4.6s.2-2.7.7-3.9c.5-1.2,1.2-2.2,2-3.2.9-1,1.9-1.8,3-2.6,1.1-.8,2.2-1.4,3.1-1.8l-2.1-1.3c-1.5-1-2.8-2.2-3.7-3.7-.9-1.5-1.4-3.2-1.4-5s.3-3,1-4.2c.7-1.3,1.5-2.4,2.6-3.4,1.1-1,2.3-1.7,3.8-2.2,1.4-.5,2.9-.8,4.4-.8,1.5,0,3,.2,4.4.7,1.4.4,2.7,1.1,3.8,1.9,1.1.8,2,1.8,2.7,3,.7,1.2,1,2.5,1,3.9s-.2,2.2-.7,3.2c-.4,1-1,1.9-1.7,2.7-.7.8-1.5,1.6-2.5,2.2-1,.6-1.8,1.1-2.6,1.5l3.4,2.2c1.7,1.1,3.1,2.5,4.2,4.2,1.1,1.7,1.6,3.6,1.6,5.7ZM853.3,683.5c0-1-.2-2-.7-2.9-.4-.9-1-1.7-1.8-2.3-.8-.7-1.6-1.2-2.6-1.6-1-.4-2.1-.6-3.2-.6-1.1,0-2.1.1-3.1.4-1,.3-1.9.7-2.6,1.3-.8.6-1.4,1.2-1.8,2-.4.8-.7,1.6-.7,2.5s.3,1.9.8,2.7c.5.8,1.2,1.5,2.1,2l7.6,4.8c1.7-.9,3.1-2.1,4.3-3.5,1.2-1.4,1.7-3,1.7-4.9ZM854.7,707.4c0-1.2-.3-2.3-1-3.4-.7-1-1.5-1.9-2.6-2.6l-8.6-5.4c-2,1-3.7,2.4-5.1,4.1-1.4,1.8-2.1,3.8-2.1,6s.3,2.3.8,3.4c.5,1.1,1.2,2,2.1,2.8.9.8,1.9,1.4,3.1,1.8,1.2.4,2.4.7,3.7.7,1.3,0,2.6-.2,3.7-.6,1.2-.4,2.2-.9,3.1-1.6.9-.7,1.6-1.5,2.1-2.4.5-.9.8-1.9.8-3Z"/>
    </g>
  </g>
</svg>