<?xml version="1.0" encoding="UTF-8" standalone="no"?>
<!DOCTYPE svg PUBLIC "-//W3C//DTD SVG 1.1//EN" "http://www.w3.org/Graphics/SVG/1.1/DTD/svg11.dtd">
<svg xmlns="http://www.w3.org/2000/svg" xmlns:xlink="http://www.w3.org/1999/xlink" version="1.1" width="713.04pt" height="416.04pt" viewBox="0 0 713.04 416.04">
<g enable-background="new">
<g>
<g id="Layer-1" data-name="Span">
<clipPath id="cp0">
<path transform="matrix(1,0,0,-1,0,416.04)" d="M .000010625 0 L 713.04 0 L 713.04 416.04 L .000010625 416.04 Z " fill-rule="evenodd"/>
</clipPath>
<g clip-path="url(#cp0)">
<text xml:space="preserve" transform="matrix(1 0 -0 1 0 416.04)" font-size="10.56" font-family="DengXian"><tspan y="2.52" x="712.32"> </tspan></text>
</g>
</g>
<g id="Layer-1" data-name="P">
<clipPath id="cp1">
<path transform="matrix(1,0,0,-1,0,416.04)" d="M .000010625 .00021362 L 712.23 .00021362 L 712.23 413.2202 L .000010625 413.2202 Z " fill-rule="evenodd"/>
</clipPath>
<g clip-path="url(#cp1)">
<clipPath id="cp2">
<path transform="matrix(.039928475,0,0,-.039956675,0,418.3729)" d="M 0 0 L 17837.5 0 L 17837.5 10400.01 L 0 10400.01 Z " fill-rule="evenodd"/>
</clipPath>
<g clip-path="url(#cp2)">
<path transform="matrix(.039928475,0,0,-.039956675,0,418.3729)" stroke-width="45" stroke-linecap="round" stroke-linejoin="round" fill="none" stroke="#000000" stroke-opacity=".65882" d="M 3289.06 6264.64 L 1879.79 4130.84 "/>
<path transform="matrix(.039928475,0,0,-.039956675,0,418.3729)" stroke-width="45" stroke-linecap="round" stroke-linejoin="round" fill="none" stroke="#000000" stroke-opacity=".65882" d="M 3935.42 6270.84 L 5291.72 4107.83 "/>
<path transform="matrix(.039928475,0,0,-.039956675,0,418.3729)" stroke-width="45" stroke-linecap="round" stroke-linejoin="round" fill="none" stroke="#000000" stroke-opacity=".65882" d="M 3646.61 1056.09 L 5261.94 3640.43 "/>
<path transform="matrix(.039928475,0,0,-.039956675,0,418.3729)" stroke-width="45" stroke-linecap="round" stroke-linejoin="round" fill="none" stroke="#000000" stroke-opacity=".65882" d="M 7350.96 837.11 L 5506.77 3778.2 "/>
<path transform="matrix(.039928475,0,0,-.039956675,0,418.3729)" stroke-width="45" stroke-linecap="round" stroke-linejoin="round" fill="none" stroke="#000000" stroke-opacity=".65882" d="M 13882.43 6264.64 L 12473.16 4130.84 "/>
<path transform="matrix(.039928475,0,0,-.039956675,0,418.3729)" stroke-width="45" stroke-linecap="round" stroke-linejoin="round" fill="none" stroke="#000000" stroke-opacity=".65882" d="M 14528.8 6270.84 L 15885.09 4107.83 "/>
<path transform="matrix(.039928475,0,0,-.039956675,0,418.3729)" stroke-width="45" stroke-linecap="round" stroke-linejoin="round" fill="none" stroke="#000000" stroke-opacity=".65882" d="M 10540.73 1054.47 L 12156.07 3638.81 "/>
<path transform="matrix(.039928475,0,0,-.039956675,0,418.3729)" stroke-width="45" stroke-linecap="round" stroke-linejoin="round" fill="none" stroke="#000000" stroke-opacity=".65882" d="M 14245.1 835.49 L 12400.91 3776.58 "/>
<path transform="matrix(.039928475,0,0,-.039956675,0,418.3729)" d="M 6092.74 3897.17 C 6092.74 3527.63 5793.17 3228.06 5423.63 3228.06 C 5054.09 3228.06 4754.52 3527.63 4754.52 3897.17 C 4754.52 4266.71 5054.09 4566.28 5423.63 4566.28 C 5793.17 4566.28 6092.74 4266.71 6092.74 3897.17 Z " fill="#6b8fa5" fill-rule="evenodd"/>
<path transform="matrix(.039928475,0,0,-.039956675,0,418.3729)" d="M 4249.07 6837.71 C 4249.07 6468.18 3949.5 6168.61 3579.97 6168.61 C 3210.43 6168.61 2910.86 6468.18 2910.86 6837.71 C 2910.86 7207.25 3210.43 7506.82 3579.97 7506.82 C 3949.5 7506.82 4249.07 7207.25 4249.07 6837.71 Z " fill="#6b8fa5" fill-rule="evenodd"/>
<path transform="matrix(.039928475,0,0,-.039956675,0,418.3729)" d="M 2393.52 3895.56 C 2393.52 3526.02 2093.95 3226.45 1724.41 3226.45 C 1354.87 3226.45 1055.3 3526.02 1055.3 3895.56 C 1055.3 4265.1 1354.87 4564.67 1724.41 4564.67 C 2093.95 4564.67 2393.52 4265.1 2393.52 3895.56 Z " fill="#6b8fa5" fill-rule="evenodd"/>
<path transform="matrix(.039928475,0,0,-.039956675,0,418.3729)" d="M 4249.07 949.47 C 4249.07 579.93 3949.5 280.36 3579.97 280.36 C 3210.43 280.36 2910.86 579.93 2910.86 949.47 C 2910.86 1319 3210.43 1618.57 3579.97 1618.57 C 3949.5 1618.57 4249.07 1319 4249.07 949.47 Z " fill="#6b8fa5" fill-rule="evenodd"/>
<path transform="matrix(.039928475,0,0,-.039956675,0,418.3729)" d="M 7948.29 951.08 C 7948.29 581.54 7648.72 281.97 7279.18 281.97 C 6909.64 281.97 6610.07 581.54 6610.07 951.08 C 6610.07 1320.62 6909.64 1620.19 7279.18 1620.19 C 7648.72 1620.19 7948.29 1320.62 7948.29 951.08 Z " fill="#6b8fa5" fill-rule="evenodd"/>
<path transform="matrix(.039928475,0,0,-.039956675,0,418.3729)" d="M 11143.15 947.84 C 11143.15 578.31 10843.59 278.75 10474.06 278.75 C 10104.53 278.75 9804.97 578.31 9804.97 947.84 C 9804.97 1317.37 10104.53 1616.93 10474.06 1616.93 C 10843.59 1616.93 11143.15 1317.37 11143.15 947.84 Z " fill="#6b8fa5" fill-rule="evenodd"/>
<path transform="matrix(.039928475,0,0,-.039956675,0,418.3729)" d="M 14842.44 949.45 C 14842.44 579.91 14542.87 280.34 14173.33 280.34 C 13803.78 280.34 13504.21 579.91 13504.21 949.45 C 13504.21 1319 13803.78 1618.57 14173.33 1618.57 C 14542.87 1618.57 14842.44 1319 14842.44 949.45 Z " fill="#6b8fa5" fill-rule="evenodd"/>
<path transform="matrix(.039928475,0,0,-.039956675,0,418.3729)" d="M 12986.88 3895.56 C 12986.88 3526.02 12687.3 3226.44 12317.76 3226.44 C 11948.22 3226.44 11648.64 3526.02 11648.64 3895.56 C 11648.64 4265.1 11948.22 4564.68 12317.76 4564.68 C 12687.3 4564.68 12986.88 4265.1 12986.88 3895.56 Z " fill="#6b8fa5" fill-rule="evenodd"/>
<path transform="matrix(.039928475,0,0,-.039956675,0,418.3729)" d="M 14842.44 6837.71 C 14842.44 6468.17 14542.87 6168.6 14173.33 6168.6 C 13803.78 6168.6 13504.21 6468.17 13504.21 6837.71 C 13504.21 7207.26 13803.78 7506.83 14173.33 7506.83 C 14542.87 7506.83 14842.44 7207.26 14842.44 6837.71 Z " fill="#6b8fa5" fill-rule="evenodd"/>
<path transform="matrix(.039928475,0,0,-.039956675,0,418.3729)" d="M 16686.12 3897.17 C 16686.12 3527.63 16386.55 3228.05 16017 3228.05 C 15647.46 3228.05 15347.89 3527.63 15347.89 3897.17 C 15347.89 4266.71 15647.46 4566.29 16017 4566.29 C 16386.55 4566.29 16686.12 4266.71 16686.12 3897.17 Z " fill="#6b8fa5" fill-rule="evenodd"/>
<clipPath id="cp3">
<path transform="matrix(.79857328,.00000006936012,-.0000004501074,-.7991536,305.87568,282.0603)" d="M 0 0 L 125.01 0 L 125.01 77.002 L 0 77.002 Z " fill-rule="evenodd"/>
</clipPath>
<g clip-path="url(#cp3)">
<path transform="matrix(.79857328,.00000006936012,-.0000004501074,-.7991536,305.87568,282.0603)" d="M 124.24 41.448 L 109.9 51.579 L 107.56 51.579 L 117.2 43.793 L 0 43.793 L 0 41.448 Z " fill-rule="evenodd"/>
<path transform="matrix(.79857328,.00000006936012,-.0000004501074,-.7991536,305.87568,282.0603)" d="M 0 33.044 L 14.333 22.913 L 16.678 22.913 L 7.035 30.699 L 124.24 30.699 L 124.24 33.044 Z " fill-rule="evenodd"/>
<path transform="matrix(.79857328,.00000006936012,-.0000004501074,-.7991536,305.87568,282.0603)" d="M 34.347 71.591 L 43.464 71.591 C 43.898 73.467 44.159 75.231 44.246 76.895 L 47.24 75.654 L 46.197 74.864 L 45.415 71.591 L 56.482 71.591 L 58.56 73.397 L 61.428 70.914 L 45.281 70.914 C 44.42 67.973 43.424 65.455 42.287 63.353 L 54.792 63.353 L 56.482 64.82 L 58.955 62.676 L 50.755 62.676 L 50.755 53.196 L 57.265 53.196 L 59.216 54.889 L 61.949 52.519 L 42.026 52.519 C 40.904 52.519 39.861 52.406 38.906 52.181 L 37.736 53.196 L 48.93 53.196 L 48.93 62.676 L 44.894 62.676 L 43.329 62.45 L 42.287 63.353 C 39.861 59.058 36.781 55.637 33.044 53.083 L 32.783 53.422 C 34.869 55.221 36.852 57.513 38.716 60.299 C 40.58 63.078 42.121 66.619 43.329 70.914 L 38.645 70.914 C 37.523 70.907 36.48 70.794 35.517 70.576 Z " fill-rule="evenodd"/>
<path transform="matrix(.79857328,.00000006936012,-.0000004501074,-.7991536,305.87568,282.0603)" d="M 79.799 76.895 L 82.658 75.541 L 81.489 74.977 C 81.063 74.215 80.494 73.277 79.799 72.156 L 87.998 72.156 L 89.689 73.623 L 92.162 71.478 L 79.538 71.478 C 78.321 69.743 77.065 68.347 75.762 67.303 L 75.367 67.529 C 77.452 70.23 78.93 73.355 79.799 76.895 Z M 87.611 64.256 L 89.041 67.077 L 84.617 67.077 L 84.617 60.983 L 87.738 60.983 L 89.428 62.45 L 91.901 60.306 L 84.617 60.306 L 84.617 54.325 C 86.616 53.563 89.389 53.231 92.944 53.309 L 92.944 52.858 C 91.301 52.477 90.471 51.877 90.471 51.052 C 83.962 51.955 79.846 54.282 78.108 58.049 C 76.978 54.882 74.893 52.441 71.859 50.713 L 71.599 51.052 C 73.945 52.928 75.462 55.065 76.157 57.478 C 76.852 59.883 77.192 62.366 77.192 64.933 L 80.059 63.917 C 79.451 63.536 79.056 62.93 78.882 62.105 C 78.708 61.272 78.543 60.186 78.369 58.839 C 79.238 57.252 80.754 55.898 82.919 54.776 L 82.919 67.077 L 81.102 67.077 C 79.972 67.07 78.93 66.957 77.974 66.739 L 76.805 67.754 L 88.907 67.754 L 89.95 68.883 L 92.296 66.964 C 91.253 67.035 89.823 66.054 87.998 64.03 Z M 69.252 70.914 L 69.252 66.513 L 72.507 66.513 L 73.289 67.529 L 75.24 66.287 L 74.332 65.61 C 74.245 60.412 74.111 57.287 73.937 56.236 C 73.763 55.178 73.439 54.409 72.965 53.923 C 72.491 53.429 71.725 53.041 70.682 52.745 C 70.682 53.563 69.861 54.24 68.21 54.776 L 68.21 55.228 C 69.339 54.995 70.272 54.896 71.006 54.938 C 71.749 54.974 72.199 55.841 72.373 57.534 C 72.547 59.227 72.634 61.992 72.634 65.836 L 69.252 65.836 C 69.252 62.366 68.755 59.467 67.759 57.139 C 66.764 54.804 65.263 52.78 63.264 51.052 L 62.869 51.278 C 65.998 54.882 67.562 59.77 67.562 65.949 L 67.562 70.914 L 65.476 70.914 L 64.307 70.688 L 63.264 71.591 L 72.768 71.591 L 74.332 72.945 L 76.67 70.914 Z M 67.562 76.67 C 68.952 75.985 69.9 75.421 70.422 74.97 C 70.943 74.518 71.204 74.102 71.204 73.735 C 71.204 73.355 71.03 72.953 70.682 72.543 C 70.335 72.127 70.121 71.923 70.035 71.93 C 69.774 71.923 69.513 72.297 69.252 73.058 C 68.905 74.102 68.21 75.231 67.167 76.444 Z " fill-rule="evenodd"/>
<path transform="matrix(.79857328,.00000006936012,-.0000004501074,-.7991536,305.87568,282.0603)" d="M 43.985 12.648 L 43.985 4.071 L 56.088 4.071 L 56.088 12.648 Z M 33.178 21.225 L 44.767 21.225 C 45.462 23.249 45.936 24.977 46.197 26.416 L 48.93 25.287 C 48.409 24.907 47.998 24.392 47.698 23.757 C 47.398 23.115 47.027 22.269 46.584 21.225 L 57.912 21.225 L 59.864 22.917 L 62.597 20.548 L 46.458 20.548 C 45.336 18.058 44.159 15.878 42.942 14.002 L 43.985 13.325 L 55.827 13.325 L 56.87 14.566 L 59.081 13.212 L 57.912 12.309 L 57.912 7.4566 C 57.912 5.7215 57.96 3.9158 58.047 2.0397 L 56.088 1.3625 L 56.088 3.3939 L 43.985 3.3939 L 43.985 1.9268 L 42.026 1.2497 C 42.121 3.4997 42.16 5.3053 42.16 6.6666 L 42.16 13.099 C 39.474 9.8547 36.433 7.2238 33.044 5.1995 L 32.783 5.5381 C 35.39 7.64 37.626 9.8195 39.49 12.077 C 41.355 14.334 43.029 17.155 44.507 20.548 L 37.476 20.548 C 36.346 20.541 35.303 20.428 34.347 20.209 Z " fill-rule="evenodd"/>
<path transform="matrix(.79857328,.00000006936012,-.0000004501074,-.7991536,305.87568,282.0603)" d="M 79.799 26.754 L 82.658 25.4 L 81.489 24.836 C 81.063 24.074 80.494 23.136 79.799 22.015 L 87.998 22.015 L 89.689 23.482 L 92.162 21.338 L 79.538 21.338 C 78.321 19.602 77.065 18.206 75.762 17.162 L 75.367 17.388 C 77.452 20.089 78.93 23.214 79.799 26.754 Z M 87.611 14.115 L 89.041 16.936 L 84.617 16.936 L 84.617 10.842 L 87.738 10.842 L 89.428 12.309 L 91.901 10.165 L 84.617 10.165 L 84.617 4.1839 C 86.616 3.4221 89.389 3.0906 92.944 3.1682 L 92.944 2.7168 C 91.301 2.3359 90.471 1.7364 90.471 .91113 C 83.962 1.8139 79.846 4.1415 78.108 7.908 C 76.978 4.7411 74.893 2.3006 71.859 .57256 L 71.599 .91113 C 73.945 2.7873 75.462 4.9245 76.157 7.3367 C 76.852 9.7419 77.192 12.225 77.192 14.792 L 80.059 13.776 C 79.451 13.395 79.056 12.789 78.882 11.964 C 78.708 11.131 78.543 10.045 78.369 8.698 C 79.238 7.111 80.754 5.7568 82.919 4.6353 L 82.919 16.936 L 81.102 16.936 C 79.972 16.929 78.93 16.816 77.974 16.598 L 76.805 17.613 L 88.907 17.613 L 89.95 18.742 L 92.296 16.823 C 91.253 16.894 89.823 15.914 87.998 13.889 Z M 69.252 20.773 L 69.252 16.372 L 72.507 16.372 L 73.289 17.388 L 75.24 16.146 L 74.332 15.469 C 74.245 10.271 74.111 7.1463 73.937 6.0953 C 73.763 5.0373 73.439 4.2685 72.965 3.7818 C 72.491 3.2881 71.725 2.9002 70.682 2.6039 C 70.682 3.4221 69.861 4.0992 68.21 4.6353 L 68.21 5.0867 C 69.339 4.8539 70.272 4.7552 71.006 4.7975 C 71.749 4.8328 72.199 5.7003 72.373 7.3931 C 72.547 9.0859 72.634 11.851 72.634 15.695 L 69.252 15.695 C 69.252 12.225 68.755 9.3257 67.759 6.9981 C 66.764 4.6635 65.263 2.6392 63.264 .91113 L 62.869 1.1368 C 65.998 4.7411 67.562 9.629 67.562 15.808 L 67.562 20.773 L 65.476 20.773 L 64.307 20.548 L 63.264 21.45 L 72.768 21.45 L 74.332 22.805 L 76.67 20.773 Z M 67.562 26.529 C 68.952 25.845 69.9 25.28 70.422 24.829 C 70.943 24.378 71.204 23.961 71.204 23.595 C 71.204 23.214 71.03 22.812 70.682 22.403 C 70.335 21.986 70.121 21.782 70.035 21.789 C 69.774 21.782 69.513 22.156 69.252 22.917 C 68.905 23.961 68.21 25.09 67.167 26.303 Z " fill-rule="evenodd"/>
</g>
<clipPath id="cp4">
<path transform="matrix(.7985644,.0000011970444,0,-.7991431,210.47138,272.4779)" d="M 0 0 L 14.487 0 L 14.487 23.012 L 0 23.012 Z " fill-rule="evenodd"/>
</clipPath>
<g clip-path="url(#cp4)">
<path transform="matrix(.7985644,.0000011970444,0,-.7991431,210.47138,272.4779)" d="M 13.673 7.0108 C 13.673 6.1831 13.489 5.3887 13.123 4.6294 C 12.757 3.8693 12.267 3.2201 11.652 2.6826 C 10.958 2.0758 10.193 1.6268 9.3561 1.3337 C 8.5193 1.0397 7.6446 .89367 6.733 .89367 C 5.9106 .89367 5.109 1.0091 4.3264 1.2399 C 3.5437 1.4708 2.8385 1.8017 2.2092 2.2345 C 1.5798 2.6673 1.0775 3.1984 .70061 3.8287 C .3237 4.4581 .13524 5.1822 .13524 6.0009 C .13524 6.6159 .34083 7.0748 .75201 7.3778 C 1.1632 7.6808 1.5969 7.8323 2.0523 7.8332 C 2.5284 7.8323 2.9711 7.6808 3.3823 7.3778 C 3.7935 7.0748 3.999 6.6159 3.999 6.0009 C 3.999 5.6348 3.9278 5.3291 3.7835 5.0839 C 3.6402 4.8386 3.4571 4.6339 3.2335 4.4707 C 3.0108 4.3066 2.7556 4.2065 2.4679 4.1687 C 2.3201 4.129 2.1812 4.11 2.0523 4.1109 C 1.9242 4.11 1.9044 4.1001 1.9928 4.0821 C 2.3002 3.5429 2.9044 3.0659 3.8061 2.6529 C 4.7078 2.239 5.6834 2.0325 6.733 2.0334 C 7.2289 2.0325 7.6915 2.1551 8.1225 2.4004 C 8.5535 2.6457 8.9133 2.9748 9.2001 3.3896 C 9.5571 3.927 9.7997 4.5041 9.9286 5.1199 C 10.058 5.7349 10.122 6.3652 10.122 7.0108 C 10.122 7.6736 10.058 8.3102 9.9286 8.9215 C 9.7997 9.532 9.5571 10.097 9.2001 10.618 C 8.9025 11.04 8.5409 11.381 8.1153 11.641 C 7.6897 11.901 7.2289 12.031 6.733 12.032 L 4.5788 12.032 C 4.2921 12.031 4.1379 12.165 4.1181 12.435 L 4.1181 12.594 C 4.1181 12.709 4.1532 12.8 4.2218 12.868 C 4.311 12.954 4.4246 12.997 4.5635 12.998 C 4.8511 13.036 5.1487 13.055 5.4553 13.056 C 5.7529 13.055 6.045 13.074 6.3317 13.114 C 6.8674 13.151 7.3326 13.316 7.7294 13.61 C 8.1261 13.903 8.458 14.279 8.7249 14.736 C 8.9918 15.192 9.1947 15.719 9.3335 16.315 C 9.4724 16.912 9.5418 17.523 9.5418 18.149 C 9.5418 18.609 9.4922 19.047 9.393 19.461 C 9.2938 19.874 9.1108 20.235 8.843 20.544 C 8.2884 21.177 7.5851 21.49 6.733 21.481 C 5.8223 21.48 4.9873 21.309 4.2299 20.968 C 3.4724 20.627 2.9639 20.259 2.706 19.865 C 2.6375 19.855 2.6717 19.85 2.8106 19.851 C 3.1677 19.85 3.504 19.745 3.8205 19.534 C 4.2966 19.254 4.5337 18.783 4.5337 18.12 C 4.5337 17.561 4.3534 17.14 3.9918 16.857 C 3.6302 16.572 3.2263 16.431 2.7808 16.432 C 2.3444 16.431 1.9359 16.57 1.5545 16.849 C 1.1731 17.128 .98194 17.552 .98194 18.12 C .98194 18.821 1.1506 19.441 1.4878 19.98 C 1.825 20.518 2.2579 20.98 2.7881 21.365 C 3.3183 21.749 3.9296 22.043 4.623 22.245 C 5.3173 22.447 6.0207 22.548 6.733 22.549 C 7.4958 22.548 8.2343 22.447 8.9476 22.245 C 9.6608 22.043 10.334 21.73 10.968 21.308 C 11.484 20.942 11.917 20.492 12.269 19.958 C 12.62 19.425 12.796 18.821 12.796 18.149 C 12.796 17.474 12.675 16.839 12.433 16.243 C 12.19 15.646 11.868 15.108 11.467 14.628 C 11.066 14.146 10.588 13.723 10.032 13.358 C 9.4778 12.992 9.0612 12.762 8.7835 12.666 C 9.0215 12.637 9.4282 12.494 10.003 12.24 C 10.578 11.985 11.127 11.646 11.652 11.224 C 12.267 10.693 12.757 10.061 13.123 9.3255 C 13.489 8.5897 13.673 7.8178 13.673 7.0108 Z " fill-rule="evenodd"/>
</g>
<clipPath id="cp5">
<path transform="matrix(.79857078,0,-.00000039373084,-.79912957,137.17906,153.55283)" d="M 0 0 L 14.005 0 L 14.005 22.007 L 0 22.007 Z " fill-rule="evenodd"/>
</clipPath>
<g clip-path="url(#cp5)">
<path transform="matrix(.79857078,0,-.00000039373084,-.79912957,137.17906,153.55283)" d="M 12.227 .5671 L .13375 .5671 L .13375 1.3606 C .13375 1.4174 .16351 1.504 .22302 1.6203 L 5.0814 6.9007 C 5.6567 7.5346 6.2383 8.1838 6.828 8.8474 C 7.4177 9.5111 7.9443 10.189 8.4096 10.882 C 8.8749 11.574 9.2464 12.288 9.5241 13.024 C 9.8018 13.76 9.9398 14.532 9.9398 15.341 C 9.9398 16.022 9.8514 16.66 9.6729 17.251 C 9.4943 17.843 9.2373 18.362 8.9001 18.809 C 8.5629 19.257 8.1418 19.617 7.6368 19.891 C 7.1319 20.166 6.5476 20.303 5.8839 20.304 C 4.8938 20.303 4.0192 20.007 3.2618 19.415 C 2.5043 18.824 2.0012 18.172 1.7532 17.461 C 1.7045 17.442 1.7839 17.432 1.9913 17.433 L 2.2437 17.433 C 2.5413 17.364 2.7983 17.26 3.0165 17.121 C 3.2347 16.982 3.4178 16.79 3.5665 16.544 C 3.7153 16.299 3.7893 16.003 3.7893 15.658 C 3.7893 15.08 3.6017 14.637 3.2248 14.33 C 2.8479 14.021 2.4268 13.868 1.9615 13.869 C 1.5161 13.868 1.1004 14.021 .71355 14.33 C .32762 14.637 .13375 15.08 .13375 15.658 C .13375 16.465 .29245 17.23 .60985 17.951 C .92725 18.672 1.3574 19.297 1.902 19.827 C 2.4466 20.355 3.0904 20.773 3.8334 21.082 C 4.5764 21.389 5.3645 21.543 6.1959 21.544 C 7.2256 21.543 8.1697 21.392 9.0263 21.089 C 9.883 20.786 10.613 20.35 11.217 19.783 C 11.822 19.215 12.295 18.559 12.637 17.814 C 12.979 17.068 13.149 16.244 13.149 15.341 C 13.149 14.34 12.922 13.418 12.465 12.577 C 12.01 11.735 11.446 10.963 10.772 10.261 C 10.098 9.5589 9.3825 8.8979 8.6251 8.2776 C 7.8677 7.6572 7.1815 7.0539 6.5674 6.4678 L 3.1499 3.2506 L 7.6224 3.2506 C 8.2464 3.2497 8.8289 3.2542 9.3681 3.2641 C 9.9082 3.2731 10.366 3.2929 10.742 3.3218 C 11.119 3.3507 11.312 3.3696 11.321 3.3804 C 11.401 3.4471 11.475 3.5815 11.545 3.7835 C 11.614 3.9855 11.678 4.2235 11.738 4.4976 C 11.797 4.7717 11.857 5.0504 11.916 5.3344 C 11.976 5.6175 12.03 5.9286 12.08 6.2659 L 13.179 6.2659 Z " fill-rule="evenodd"/>
</g>
<clipPath id="cp6">
<path transform="matrix(.7985763,0,-.00000039373084,-.79914268,136.0463,389.7615)" d="M 0 0 L 15.489 0 L 15.489 22.007 L 0 22.007 Z " fill-rule="evenodd"/>
</clipPath>
<g clip-path="url(#cp6)">
<path transform="matrix(.7985763,0,-.00000039373084,-.79914268,136.0463,389.7615)" d="M 11.371 5.7032 L 11.371 2.7745 C 11.371 2.6004 11.403 2.439 11.468 2.2902 C 11.533 2.1406 11.64 2.0423 11.788 1.9954 C 12.016 1.889 12.387 1.8304 12.902 1.8214 C 13.417 1.8114 13.936 1.8069 14.461 1.8078 L 14.461 .5671 C 12.946 .62481 11.461 .65366 10.004 .65366 C 8.5685 .65366 7.0581 .62481 5.4729 .5671 L 5.4729 1.8078 C 6.0176 1.8069 6.5433 1.8114 7.0482 1.8214 C 7.5532 1.8304 7.9301 1.889 8.1771 1.9954 C 8.3259 2.0423 8.435 2.1406 8.5045 2.2902 C 8.5739 2.439 8.6082 2.6004 8.6082 2.7745 L 8.6082 5.7032 L .13936 5.7032 L .13936 6.8718 L 10.064 21.631 C 10.193 21.803 10.357 21.89 10.554 21.891 L 10.881 21.891 C 11.208 21.89 11.371 21.726 11.371 21.4 L 11.371 6.9728 L 14.566 6.9728 L 14.566 5.7032 Z M 8.756 17.837 L 1.4468 6.9728 L 8.756 6.9728 Z " fill-rule="evenodd"/>
</g>
<clipPath id="cp7">
<path transform="matrix(.7985603,.0000015103535,-.00000019686542,-.79912957,64.428188,271.31156)" d="M 0 0 L 11.482 0 L 11.482 22.007 L 0 22.007 Z " fill-rule="evenodd"/>
</clipPath>
<g clip-path="url(#cp7)">
<path transform="matrix(.7985603,.0000015103535,-.00000019686542,-.79912957,64.428188,271.31156)" d="M 10.967 .5671 C 9.1442 .62481 7.3715 .65366 5.6474 .65366 C 3.9243 .65366 2.1515 .62481 .3292 .5671 L .3292 1.8078 L 1.3544 1.8078 C 1.6809 1.8069 1.9883 1.8114 2.2751 1.8214 C 2.5627 1.8304 2.835 1.8547 3.0929 1.8935 C 3.3508 1.9314 3.5735 1.9701 3.7611 2.0098 C 3.9198 2.0378 4.0505 2.1261 4.1542 2.2758 C 4.2588 2.4246 4.3102 2.5905 4.3102 2.7745 L 4.3102 19.034 C 3.8161 18.792 3.2065 18.609 2.4834 18.485 C 1.7602 18.359 .96851 18.297 .10648 18.298 L .10648 19.524 C 1.2949 19.524 2.3923 19.665 3.3977 19.949 C 4.4031 20.232 5.2723 20.764 6.0045 21.544 L 6.4653 21.544 C 6.7917 21.543 6.9549 21.385 6.9549 21.068 L 6.9549 2.7745 C 6.9549 2.5815 7.0045 2.4129 7.1037 2.2686 C 7.2029 2.1243 7.3472 2.0378 7.5347 2.0098 C 7.6934 1.9701 7.8972 1.9314 8.1443 1.8935 C 8.3913 1.8547 8.6709 1.8304 8.9828 1.8214 C 9.2948 1.8114 9.5996 1.8069 9.8972 1.8078 L 10.967 1.8078 L 10.967 .5671 Z " fill-rule="evenodd"/>
</g>
<clipPath id="cp8">
<path transform="matrix(.7985502,0,-.00000075309137,-.7991431,285.34367,388.89646)" d="M 0 0 L 14.005 0 L 14.005 23.012 L 0 23.012 Z " fill-rule="evenodd"/>
</clipPath>
<g clip-path="url(#cp8)">
<path transform="matrix(.7985502,0,-.00000075309137,-.7991431,285.34367,388.89646)" d="M 13.151 7.9486 C 13.151 7.0054 12.974 6.1055 12.616 5.2498 C 12.26 4.3932 11.745 3.624 11.071 2.9423 C 10.387 2.2778 9.6174 1.7701 8.7608 1.4203 C 7.9042 1.0686 6.9962 .89367 6.035 .89367 C 5.2036 .89367 4.4281 1.0497 3.7104 1.3626 C 2.9926 1.6745 2.3686 2.1019 1.8384 2.6457 C 1.3082 3.1885 .89254 3.8188 .58957 4.5356 C .2875 5.2516 .13601 6.0144 .13601 6.8233 C .13601 7.3805 .32177 7.8007 .69327 8.0847 C 1.0648 8.3679 1.4489 8.5104 1.8447 8.5113 C 2.2613 8.5104 2.6527 8.3706 3.0188 8.092 C 3.3858 7.8124 3.5688 7.3895 3.5688 6.8233 C 3.5688 6.4761 3.4922 6.1849 3.3389 5.9495 C 3.1856 5.7133 2.9971 5.5311 2.7735 5.4013 C 2.5508 5.2714 2.301 5.1966 2.0233 5.1786 L 1.8447 5.1786 L 1.5481 5.1786 C 1.7762 4.3697 2.3064 3.643 3.1378 2.9991 C 3.9701 2.3544 4.9358 2.0325 6.035 2.0334 C 6.6093 2.0325 7.1693 2.1813 7.7139 2.4798 C 8.2586 2.7773 8.704 3.1723 9.0502 3.6637 C 9.4569 4.2498 9.7175 4.9153 9.8311 5.661 C 9.9447 6.4058 10.002 7.1686 10.002 7.9486 C 10.002 8.7367 9.9772 9.4932 9.9276 10.22 C 9.878 10.946 9.6751 11.631 9.3181 12.277 C 9.0611 12.747 8.7319 13.139 8.3307 13.452 C 7.9294 13.764 7.4813 13.921 6.9853 13.921 C 6.0449 13.921 5.2279 13.73 4.5345 13.351 C 3.8411 12.97 3.2812 12.425 2.8556 11.714 C 2.7663 11.55 2.6229 11.468 2.4245 11.469 L 2.3055 11.469 C 1.9593 11.468 1.7852 11.627 1.7852 11.945 L 1.7852 22.073 C 1.7852 22.322 1.9295 22.48 2.2162 22.549 C 2.2667 22.548 2.3037 22.543 2.3281 22.534 C 2.3533 22.524 2.3749 22.519 2.3948 22.52 C 3.8312 21.865 5.3118 21.538 6.8366 21.539 C 8.3821 21.538 9.8636 21.865 11.279 22.52 C 11.299 22.519 11.319 22.524 11.339 22.534 C 11.359 22.543 11.388 22.548 11.428 22.549 C 11.754 22.548 11.913 22.399 11.903 22.102 C 11.903 21.928 11.873 21.812 11.814 21.755 C 11.111 20.792 10.217 20.04 9.1323 19.497 C 8.0485 18.953 6.897 18.682 5.6779 18.682 C 4.668 18.682 3.7969 18.797 3.0629 19.029 L 3.0629 13.518 C 3.4101 13.882 3.9331 14.206 4.631 14.49 C 5.3289 14.774 6.1143 14.916 6.9853 14.917 C 7.8375 14.916 8.6427 14.723 9.4001 14.339 C 10.158 13.954 10.824 13.454 11.398 12.839 C 11.993 12.146 12.433 11.379 12.72 10.537 C 13.008 9.6952 13.151 8.8323 13.151 7.9486 Z " fill-rule="evenodd"/>
</g>
<clipPath id="cp9">
<path transform="matrix(.7985763,0,-.0000015749233,-.79914268,559.453,389.3987)" d="M 0 0 L 15.489 0 L 15.489 22.007 L 0 22.007 Z " fill-rule="evenodd"/>
</clipPath>
<g clip-path="url(#cp9)">
<path transform="matrix(.7985763,0,-.0000015749233,-.79914268,559.453,389.3987)" d="M 11.371 5.7032 L 11.371 2.7745 C 11.371 2.6004 11.403 2.439 11.468 2.2902 C 11.533 2.1406 11.64 2.0423 11.788 1.9954 C 12.016 1.889 12.387 1.8304 12.902 1.8214 C 13.417 1.8114 13.936 1.8069 14.461 1.8078 L 14.461 .5671 C 12.946 .62481 11.461 .65366 10.004 .65366 C 8.5685 .65366 7.0581 .62481 5.4729 .5671 L 5.4729 1.8078 C 6.0176 1.8069 6.5433 1.8114 7.0482 1.8214 C 7.5532 1.8304 7.9301 1.889 8.1771 1.9954 C 8.3259 2.0423 8.435 2.1406 8.5045 2.2902 C 8.5739 2.439 8.6082 2.6004 8.6082 2.7745 L 8.6082 5.7032 L .13936 5.7032 L .13936 6.8718 L 10.064 21.631 C 10.193 21.803 10.357 21.89 10.554 21.891 L 10.881 21.891 C 11.208 21.89 11.371 21.726 11.371 21.4 L 11.371 6.9728 L 14.566 6.9728 L 14.566 5.7032 Z M 8.756 17.837 L 1.4468 6.9728 L 8.756 6.9728 Z " fill-rule="evenodd"/>
</g>
<clipPath id="cp10">
<path transform="matrix(.7985644,.0000011970444,-.0000015061827,-.7991431,560.38577,154.7999)" d="M 0 0 L 14.487 0 L 14.487 23.012 L 0 23.012 Z " fill-rule="evenodd"/>
</clipPath>
<g clip-path="url(#cp10)">
<path transform="matrix(.7985644,.0000011970444,-.0000015061827,-.7991431,560.38577,154.7999)" d="M 13.673 7.0108 C 13.673 6.1831 13.489 5.3887 13.123 4.6294 C 12.757 3.8693 12.267 3.2201 11.652 2.6826 C 10.958 2.0758 10.193 1.6268 9.3561 1.3337 C 8.5193 1.0397 7.6446 .89367 6.733 .89367 C 5.9106 .89367 5.109 1.0091 4.3264 1.2399 C 3.5437 1.4708 2.8385 1.8017 2.2092 2.2345 C 1.5798 2.6673 1.0775 3.1984 .70061 3.8287 C .3237 4.4581 .13524 5.1822 .13524 6.0009 C .13524 6.6159 .34083 7.0748 .75201 7.3778 C 1.1632 7.6808 1.5969 7.8323 2.0523 7.8332 C 2.5284 7.8323 2.9711 7.6808 3.3823 7.3778 C 3.7935 7.0748 3.999 6.6159 3.999 6.0009 C 3.999 5.6348 3.9278 5.3291 3.7835 5.0839 C 3.6402 4.8386 3.4571 4.6339 3.2335 4.4707 C 3.0108 4.3066 2.7556 4.2065 2.4679 4.1687 C 2.3201 4.129 2.1812 4.11 2.0523 4.1109 C 1.9242 4.11 1.9044 4.1001 1.9928 4.0821 C 2.3002 3.5429 2.9044 3.0659 3.8061 2.6529 C 4.7078 2.239 5.6834 2.0325 6.733 2.0334 C 7.2289 2.0325 7.6915 2.1551 8.1225 2.4004 C 8.5535 2.6457 8.9133 2.9748 9.2001 3.3896 C 9.5571 3.927 9.7997 4.5041 9.9286 5.1199 C 10.058 5.7349 10.122 6.3652 10.122 7.0108 C 10.122 7.6736 10.058 8.3102 9.9286 8.9215 C 9.7997 9.532 9.5571 10.097 9.2001 10.618 C 8.9025 11.04 8.5409 11.381 8.1153 11.641 C 7.6897 11.901 7.2289 12.031 6.733 12.032 L 4.5788 12.032 C 4.2921 12.031 4.1379 12.165 4.1181 12.435 L 4.1181 12.594 C 4.1181 12.709 4.1532 12.8 4.2218 12.868 C 4.311 12.954 4.4246 12.997 4.5635 12.998 C 4.8511 13.036 5.1487 13.055 5.4553 13.056 C 5.7529 13.055 6.045 13.074 6.3317 13.114 C 6.8674 13.151 7.3326 13.316 7.7294 13.61 C 8.1261 13.903 8.458 14.279 8.7249 14.736 C 8.9918 15.192 9.1947 15.719 9.3335 16.315 C 9.4724 16.912 9.5418 17.523 9.5418 18.149 C 9.5418 18.609 9.4922 19.047 9.393 19.461 C 9.2938 19.874 9.1108 20.235 8.843 20.544 C 8.2884 21.177 7.5851 21.49 6.733 21.481 C 5.8223 21.48 4.9873 21.309 4.2299 20.968 C 3.4724 20.627 2.9639 20.259 2.706 19.865 C 2.6375 19.855 2.6717 19.85 2.8106 19.851 C 3.1677 19.85 3.504 19.745 3.8205 19.534 C 4.2966 19.254 4.5337 18.783 4.5337 18.12 C 4.5337 17.561 4.3534 17.14 3.9918 16.857 C 3.6302 16.572 3.2263 16.431 2.7808 16.432 C 2.3444 16.431 1.9359 16.57 1.5545 16.849 C 1.1731 17.128 .98194 17.552 .98194 18.12 C .98194 18.821 1.1506 19.441 1.4878 19.98 C 1.825 20.518 2.2579 20.98 2.7881 21.365 C 3.3183 21.749 3.9296 22.043 4.623 22.245 C 5.3173 22.447 6.0207 22.548 6.733 22.549 C 7.4958 22.548 8.2343 22.447 8.9476 22.245 C 9.6608 22.043 10.334 21.73 10.968 21.308 C 11.484 20.942 11.917 20.492 12.269 19.958 C 12.62 19.425 12.796 18.821 12.796 18.149 C 12.796 17.474 12.675 16.839 12.433 16.243 C 12.19 15.646 11.868 15.108 11.467 14.628 C 11.066 14.146 10.588 13.723 10.032 13.358 C 9.4778 12.992 9.0612 12.762 8.7835 12.666 C 9.0215 12.637 9.4282 12.494 10.003 12.24 C 10.578 11.985 11.127 11.646 11.652 11.224 C 12.267 10.693 12.757 10.061 13.123 9.3255 C 13.489 8.5897 13.673 7.8178 13.673 7.0108 Z " fill-rule="evenodd"/>
</g>
<clipPath id="cp11">
<path transform="matrix(.7985502,.0000012382552,-.0000030124903,-.7991431,634.23068,271.11537)" d="M 0 0 L 14.005 0 L 14.005 23.012 L 0 23.012 Z " fill-rule="evenodd"/>
</clipPath>
<g clip-path="url(#cp11)">
<path transform="matrix(.7985502,.0000012382552,-.0000030124903,-.7991431,634.23068,271.11537)" d="M 13.15 7.9486 C 13.15 7.0054 12.973 6.1055 12.616 5.2498 C 12.259 4.3932 11.744 3.624 11.07 2.9423 C 10.386 2.2778 9.6164 1.7701 8.7598 1.4203 C 7.9032 1.0686 6.9934 .89367 6.0322 .89367 C 5.2008 .89367 4.4253 1.0497 3.7067 1.3626 C 2.9889 1.6745 2.365 2.1019 1.8347 2.6457 C 1.3045 3.1885 .88886 3.8188 .58679 4.5356 C .28472 5.2516 .13324 6.0144 .13324 6.8233 C .13324 7.3805 .31899 7.8007 .69049 8.0847 C 1.062 8.3679 1.4461 8.5104 1.842 8.5113 C 2.2585 8.5104 2.6499 8.3706 3.016 8.092 C 3.383 7.8124 3.566 7.3895 3.566 6.8233 C 3.566 6.4761 3.4894 6.1849 3.3361 5.9495 C 3.1828 5.7133 2.9943 5.5311 2.7707 5.4013 C 2.548 5.2714 2.2982 5.1966 2.0205 5.1786 L 1.842 5.1786 L 1.5444 5.1786 C 1.7725 4.3697 2.3027 3.643 3.135 2.9991 C 3.9673 2.3544 4.933 2.0325 6.0322 2.0334 C 6.6075 2.0325 7.1674 2.1813 7.712 2.4798 C 8.2567 2.7773 8.703 3.1723 9.0493 3.6637 C 9.455 4.2498 9.7156 4.9153 9.8292 5.661 C 9.9429 6.4058 9.9997 7.1686 9.9997 7.9486 C 9.9997 8.7367 9.9753 9.4932 9.9257 10.22 C 9.877 10.946 9.6733 11.631 9.3162 12.277 C 9.0592 12.747 8.7301 13.139 8.3288 13.452 C 7.9276 13.764 7.4794 13.921 6.9835 13.921 C 6.0421 13.921 5.2252 13.73 4.5317 13.351 C 3.8383 12.97 3.2784 12.425 2.8528 11.714 C 2.7635 11.55 2.6201 11.468 2.4218 11.469 L 2.3027 11.469 C 1.9565 11.468 1.7825 11.627 1.7825 11.945 L 1.7825 22.073 C 1.7825 22.322 1.9267 22.48 2.2135 22.549 C 2.2631 22.548 2.3 22.543 2.3253 22.534 C 2.3505 22.524 2.3722 22.519 2.392 22.52 C 3.8284 21.865 5.309 21.538 6.8347 21.539 C 8.3802 21.538 9.8617 21.865 11.278 22.52 C 11.298 22.519 11.318 22.524 11.338 22.534 C 11.358 22.543 11.387 22.548 11.427 22.549 C 11.753 22.548 11.912 22.399 11.902 22.102 C 11.902 21.928 11.873 21.812 11.813 21.755 C 11.11 20.792 10.216 20.04 9.1313 19.497 C 8.0466 18.953 6.8951 18.682 5.676 18.682 C 4.6661 18.682 3.7941 18.797 3.0602 19.029 L 3.0602 13.518 C 3.4073 13.882 3.9303 14.206 4.6282 14.49 C 5.327 14.774 6.1124 14.916 6.9835 14.917 C 7.8356 14.916 8.6408 14.723 9.3982 14.339 C 10.157 13.954 10.823 13.454 11.397 12.839 C 11.992 12.146 12.432 11.379 12.719 10.537 C 13.007 9.6952 13.15 8.8323 13.15 7.9486 Z " fill-rule="evenodd"/>
</g>
<clipPath id="cp12">
<path transform="matrix(.7985502,.0000012382552,-.0000015749233,-.79912957,485.6193,272.24617)" d="M 0 0 L 14.005 0 L 14.005 22.007 L 0 22.007 Z " fill-rule="evenodd"/>
</clipPath>
<g clip-path="url(#cp12)">
<path transform="matrix(.7985502,.0000012382552,-.0000015749233,-.79912957,485.6193,272.24617)" d="M 12.226 .5671 L .13097 .5671 L .13097 1.3606 C .13097 1.4174 .16073 1.504 .22024 1.6203 L 5.0795 6.9007 C 5.6539 7.5346 6.2355 8.1838 6.8252 8.8474 C 7.4149 9.5111 7.9433 10.189 8.4086 10.882 C 8.8739 11.574 9.2454 12.288 9.5231 13.024 C 9.8008 13.76 9.9388 14.532 9.9388 15.341 C 9.9388 16.022 9.8495 16.66 9.671 17.251 C 9.4925 17.843 9.2355 18.362 8.8982 18.809 C 8.5619 19.257 8.1408 19.617 7.6358 19.891 C 7.1309 20.166 6.5457 20.303 5.882 20.304 C 4.892 20.303 4.0173 20.007 3.259 19.415 C 2.5016 18.824 1.9984 18.172 1.7504 17.461 C 1.7017 17.442 1.7811 17.432 1.9885 17.433 L 2.241 17.433 C 2.5385 17.364 2.7955 17.26 3.0137 17.121 C 3.2319 16.982 3.415 16.79 3.5638 16.544 C 3.7125 16.299 3.7865 16.003 3.7865 15.658 C 3.7865 15.08 3.5989 14.637 3.222 14.33 C 2.8451 14.021 2.424 13.868 1.9587 13.869 C 1.5133 13.868 1.0967 14.021 .71077 14.33 C .32484 14.637 .13097 15.08 .13097 15.658 C .13097 16.465 .28967 17.23 .60707 17.951 C .92447 18.672 1.3546 19.297 1.8992 19.827 C 2.4438 20.355 3.0877 20.773 3.8307 21.082 C 4.5737 21.389 5.3618 21.543 6.194 21.544 C 7.2247 21.543 8.1688 21.392 9.0254 21.089 C 9.882 20.786 10.612 20.35 11.217 19.783 C 11.821 19.215 12.294 18.559 12.636 17.814 C 12.978 17.068 13.148 16.244 13.148 15.341 C 13.148 14.34 12.921 13.418 12.464 12.577 C 12.009 11.735 11.445 10.963 10.771 10.261 C 10.097 9.5589 9.3815 8.8979 8.6232 8.2776 C 7.8658 7.6572 7.1796 7.0539 6.5655 6.4678 L 3.1472 3.2506 L 7.6205 3.2506 C 8.2445 3.2497 8.827 3.2542 9.3662 3.2641 C 9.9063 3.2731 10.364 3.2929 10.741 3.3218 C 11.118 3.3507 11.311 3.3696 11.32 3.3804 C 11.4 3.4471 11.474 3.5815 11.544 3.7835 C 11.613 3.9855 11.677 4.2235 11.737 4.4976 C 11.796 4.7717 11.856 5.0504 11.915 5.3344 C 11.975 5.6175 12.029 5.9286 12.079 6.2659 L 13.178 6.2659 Z " fill-rule="evenodd"/>
</g>
<clipPath id="cp13">
<path transform="matrix(.7985603,0,-.0000015749233,-.79914268,413.8838,389.19096)" d="M 0 0 L 11.482 0 L 11.482 22.007 L 0 22.007 Z " fill-rule="evenodd"/>
</clipPath>
<g clip-path="url(#cp13)">
<path transform="matrix(.7985603,0,-.0000015749233,-.79914268,413.8838,389.19096)" d="M 10.967 .5671 C 9.1442 .62481 7.3715 .65366 5.6474 .65366 C 3.9243 .65366 2.1515 .62481 .3292 .5671 L .3292 1.8078 L 1.3544 1.8078 C 1.6809 1.8069 1.9883 1.8114 2.2751 1.8214 C 2.5627 1.8304 2.835 1.8547 3.0929 1.8935 C 3.3508 1.9314 3.5735 1.9701 3.7611 2.0098 C 3.9198 2.0378 4.0505 2.1261 4.1542 2.2758 C 4.2588 2.4246 4.3102 2.5905 4.3102 2.7745 L 4.3102 19.034 C 3.8161 18.792 3.2065 18.609 2.4834 18.485 C 1.7602 18.359 .96851 18.297 .10648 18.298 L .10648 19.524 C 1.2949 19.524 2.3923 19.665 3.3977 19.949 C 4.4031 20.232 5.2723 20.764 6.0045 21.544 L 6.4653 21.544 C 6.7917 21.543 6.9549 21.385 6.9549 21.068 L 6.9549 2.7745 C 6.9549 2.5815 7.0045 2.4129 7.1037 2.2686 C 7.2029 2.1243 7.3472 2.0378 7.5347 2.0098 C 7.6934 1.9701 7.8972 1.9314 8.1443 1.8935 C 8.3913 1.8547 8.6709 1.8304 8.9828 1.8214 C 9.2948 1.8114 9.5996 1.8069 9.8972 1.8078 L 10.967 1.8078 L 10.967 .5671 Z " fill-rule="evenodd"/>
</g>
<path transform="matrix(.039928475,0,0,-.039956675,0,418.3729)" d="M 11304.05 4868.98 L 11291.33 4887.31 L 11278.68 4905.78 L 11266.16 4924.31 L 11253.78 4942.89 L 11241.53 4961.52 L 11229.42 4980.21 L 11217.45 4998.95 L 11205.61 5017.73 L 11193.91 5036.56 L 11182.34 5055.44 L 11170.91 5074.38 L 11159.62 5093.35 L 11148.45 5112.37 L 11137.43 5131.43 L 11126.54 5150.55 L 11115.78 5169.71 L 11105.16 5188.91 L 11094.68 5208.16 L 11084.33 5227.44 L 11074.11 5246.78 L 11064.03 5266.15 L 11054.08 5285.56 L 11044.27 5305.02 L 11034.59 5324.51 L 11025.04 5344.04 L 11015.63 5363.62 L 11006.35 5383.23 L 10997.21 5402.88 L 10988.2 5422.57 L 10979.32 5442.29 L 10970.58 5462.04 L 10961.97 5481.84 L 10953.49 5501.66 L 10945.15 5521.53 L 10936.93 5541.42 L 10928.86 5561.35 L 10920.91 5581.32 L 10913.1 5601.31 L 10905.42 5621.32 L 10897.87 5641.38 L 10890.45 5661.46 L 10883.17 5681.57 L 10876.02 5701.72 L 10869 5721.88 L 10862.11 5742.08 L 10855.35 5762.31 L 10848.73 5782.56 L 10842.24 5802.83 L 10835.88 5823.14 L 10829.65 5843.46 L 10823.55 5863.81 L 10817.58 5884.19 L 10811.75 5904.58 L 10806.04 5925 L 10800.46 5945.44 L 10795.03 5965.9 L 10789.71 5986.38 L 10784.53 6006.89 L 10779.47 6027.41 L 10774.55 6047.94 L 10769.76 6068.5 L 10765.1 6089.07 L 10760.57 6109.66 L 10756.16 6130.27 L 10751.89 6150.89 L 10747.74 6171.53 L 10743.73 6192.19 L 10739.85 6212.85 L 10736.09 6233.53 L 10732.46 6254.22 L 10728.97 6274.93 L 10725.6 6295.64 L 10722.37 6316.37 L 10719.26 6337.11 L 10716.27 6357.85 L 10713.42 6378.62 L 10710.7 6399.38 L 10708.1 6420.16 L 10705.63 6440.93 L 10703.29 6461.73 L 10701.08 6482.52 L 10699 6503.32 L 10697.04 6524.12 L 10695.21 6544.93 L 10693.51 6565.74 L 10691.94 6586.56 L 10690.49 6607.37 L 10689.17 6628.2 L 10687.98 6649.02 L 10686.91 6669.84 L 10685.98 6690.66 L 10685.16 6711.48 L 10684.48 6732.3 L 10683.92 6753.12 L 10683.49 6773.95 L 10683.19 6794.76 L 10683.01 6815.57 L 10682.95 6836.39 L 10683.03 6857.19 L 10683.22 6877.99 L 10683.56 6898.79 L 10684 6919.57 L 10684.58 6940.35 L 10685.28 6961.13 L 10686.11 6981.9 L 10687.06 7002.65 L 10688.14 7023.39 L 10689.34 7044.13 L 10690.67 7064.86 L 10692.12 7085.57 L 10693.7 7106.29 L 10695.4 7126.97 L 10697.23 7147.67 L 10699.18 7168.32 L 10701.26 7188.98 L 10703.45 7209.62 L 10705.77 7230.24 L 10708.22 7250.86 L 10710.8 7271.44 L 10713.49 7292.02 L 10716.31 7312.58 L 10719.25 7333.12 L 10722.32 7353.64 L 10725.51 7374.14 L 10728.82 7394.62 L 10732.26 7415.09 L 10735.81 7435.53 L 10739.49 7455.95 L 10743.29 7476.34 L 10747.22 7496.72 L 10751.27 7517.07 L 10755.44 7537.4 L 10759.74 7557.71 L 10764.15 7577.98 L 10768.69 7598.23 L 10773.35 7618.46 L 10778.13 7638.66 L 10783.04 7658.83 L 10788.06 7678.97 L 10793.21 7699.09 L 10798.48 7719.18 L 10803.87 7739.23 L 10809.38 7759.26 L 10815.01 7779.25 L 10820.76 7799.22 L 10826.64 7819.15 L 10832.63 7839.05 L 10838.75 7858.92 L 10851.33 7898.49 L 10864.41 7937.97 L 10877.95 7977.32 L 10892 8016.52 L 10906.51 8055.55 L 10921.5 8094.43 L 10936.97 8133.14 L 10952.91 8171.7 L 10969.34 8210.07 L 10986.24 8248.27 L 11003.6 8286.28 L 11021.45 8324.1 L 11039.77 8361.73 L 11058.55 8399.17 L 11077.81 8436.41 L 11097.54 8473.43 L 11117.73 8510.25 L 11138.39 8546.85 L 11159.52 8583.23 L 11181.12 8619.39 L 11203.18 8655.31 L 11225.7 8691 L 11248.7 8726.45 L 11272.15 8761.66 L 11296.06 8796.62 L 11320.43 8831.32 L 11345.26 8865.76 L 11370.56 8899.95 L 11396.31 8933.86 L 11422.52 8967.5 L 11449.18 9000.87 L 11476.31 9033.95 L 11503.88 9066.74 L 11531.91 9099.24 L 11560.39 9131.45 L 11589.32 9163.35 L 11618.71 9194.95 L 11648.55 9226.25 L 11678.83 9257.22 L 11709.56 9287.87 L 11740.75 9318.2 L 11772.37 9348.2 L 11804.45 9377.87 L 11836.96 9407.19 L 11869.93 9436.17 L 11903.33 9464.8 L 11937.18 9493.09 L 11971.46 9521.01 L 12006.19 9548.57 L 12041.37 9575.76 L 12076.97 9602.58 L 12113.02 9629.02 L 12149.49 9655.09 L 12186.42 9680.76 L 12205.05 9693.47 L 12223.71 9706.01 L 12242.41 9718.41 L 12261.16 9730.67 L 12279.96 9742.8 L 12298.82 9754.8 L 12317.73 9766.67 L 12336.69 9778.39 L 12355.69 9789.99 L 12374.75 9801.45 L 12393.84 9812.78 L 12413 9823.97 L 12432.2 9835.02 L 12451.43 9845.95 L 12470.73 9856.74 L 12490.07 9867.39 L 12509.45 9877.91 L 12528.87 9888.3 L 12548.33 9898.56 L 12567.85 9908.68 L 12587.39 9918.67 L 12606.99 9928.52 L 12626.62 9938.24 L 12646.29 9947.83 L 12666 9957.29 L 12685.76 9966.61 L 12705.54 9975.8 L 12725.37 9984.87 L 12745.25 9993.79 L 12765.14 10002.59 L 12785.09 10011.25 L 12805.07 10019.78 L 12825.07 10028.17 L 12845.11 10036.44 L 12865.2 10044.58 L 12885.3 10052.58 L 12905.44 10060.46 L 12925.62 10068.2 L 12945.83 10075.8 L 12966.06 10083.28 L 12986.33 10090.63 L 13006.63 10097.84 L 13026.96 10104.93 L 13047.31 10111.88 L 13067.69 10118.71 L 13088.1 10125.4 L 13108.54 10131.96 L 13129 10138.39 L 13149.48 10144.7 L 13170 10150.87 L 13190.53 10156.91 L 13211.09 10162.83 L 13231.68 10168.6 L 13252.27 10174.26 L 13272.91 10179.78 L 13293.55 10185.17 L 13314.22 10190.44 L 13334.91 10195.58 L 13355.63 10200.58 L 13376.35 10205.45 L 13397.09 10210.2 L 13417.85 10214.82 L 13438.63 10219.31 L 13459.43 10223.67 L 13480.24 10227.9 L 13501.06 10232.01 L 13521.91 10235.99 L 13542.77 10239.83 L 13563.63 10243.55 L 13584.51 10247.15 L 13605.41 10250.61 L 13626.32 10253.94 L 13647.23 10257.16 L 13668.16 10260.23 L 13689.09 10263.19 L 13710.04 10266.02 L 13731 10268.72 L 13751.96 10271.29 L 13772.93 10273.73 L 13793.91 10276.05 L 13814.89 10278.24 L 13835.88 10280.3 L 13856.87 10282.24 L 13877.87 10284.06 L 13898.87 10285.74 L 13919.88 10287.3 L 13940.88 10288.73 L 13961.9 10290.04 L 13982.91 10291.21 L 14003.92 10292.27 L 14024.94 10293.2 L 14045.95 10294 L 14066.96 10294.68 L 14087.97 10295.23 L 14108.97 10295.66 L 14129.98 10295.97 L 14150.99 10296.14 L 14171.99 10296.19 L 14192.98 10296.12 L 14213.97 10295.92 L 14234.95 10295.6 L 14255.93 10295.15 L 14276.9 10294.58 L 14297.86 10293.89 L 14318.82 10293.07 L 14339.76 10292.12 L 14360.7 10291.05 L 14381.63 10289.86 L 14402.54 10288.55 L 14423.45 10287.11 L 14444.35 10285.54 L 14465.22 10283.86 L 14486.1 10282.05 L 14506.96 10280.12 L 14527.79 10278.07 L 14548.62 10275.89 L 14569.44 10273.58 L 14590.23 10271.16 L 14611.01 10268.61 L 14631.77 10265.94 L 14652.52 10263.14 L 14673.24 10260.24 L 14693.95 10257.2 L 14714.64 10254.04 L 14735.31 10250.76 L 14755.96 10247.35 L 14776.59 10243.83 L 14797.2 10240.18 L 14817.78 10236.41 L 14838.34 10232.52 L 14858.88 10228.51 L 14879.39 10224.38 L 14899.88 10220.13 L 14920.34 10215.75 L 14940.78 10211.25 L 14961.19 10206.64 L 14981.58 10201.9 L 15001.93 10197.04 L 15042.51 10186.97 L 15083.02 10176.42 L 15123.4 10165.38 L 15163.67 10153.86 L 15203.8 10141.86 L 15243.79 10129.38 L 15283.64 10116.43 L 15323.34 10103 L 15362.89 10089.1 L 15402.29 10074.72 L 15441.53 10059.86 L 15480.59 10044.54 L 15519.5 10028.74 L 15558.22 10012.47 L 15596.77 9995.73 L 15635.13 9978.52 L 15673.31 9960.84 L 15711.28 9942.7 L 15749.07 9924.08 L 15786.64 9905.01 L 15824 9885.46 L 15861.17 9865.45 L 15898.1 9844.98 L 15934.81 9824.05 L 15971.3 9802.65 L 16007.56 9780.8 L 16043.58 9758.48 L 16079.35 9735.7 L 16114.88 9712.47 L 16150.16 9688.78 L 16185.18 9664.63 L 16219.95 9640.03 L 16254.45 9614.96 L 16288.67 9589.46 L 16322.62 9563.48 L 16356.29 9537.07 L 16389.68 9510.2 L 16422.78 9482.88 L 16455.58 9455.1 L 16488.09 9426.89 L 16520.29 9398.22 L 16552.18 9369.1 L 16583.76 9339.54 L 16615.02 9309.54 L 16645.96 9279.08 L 16676.56 9248.19 L 16706.84 9216.86 L 16736.78 9185.08 L 16766.38 9152.86 L 16795.63 9120.2 L 16824.53 9087.1 L 16853.07 9053.57 L 16881.25 9019.59 L 16909.07 8985.17 L 16936.52 8950.33 L 16963.59 8915.05 L 16990.28 8879.33 L 17016.58 8843.19 L 17042.5 8806.6 L 17055.92 8787.26 L 17069.16 8767.89 L 17082.27 8748.44 L 17095.23 8728.93 L 17108.06 8709.34 L 17120.74 8689.67 L 17133.28 8669.94 L 17145.67 8650.13 L 17157.92 8630.27 L 17170.03 8610.31 L 17181.99 8590.31 L 17193.82 8570.23 L 17205.49 8550.08 L 17217.03 8529.88 L 17228.42 8509.61 L 17239.67 8489.26 L 17250.77 8468.87 L 17261.74 8448.39 L 17272.55 8427.87 L 17283.22 8407.28 L 17293.75 8386.64 L 17304.13 8365.93 L 17314.37 8345.17 L 17324.47 8324.34 L 17334.41 8303.46 L 17344.21 8282.53 L 17353.87 8261.53 L 17363.39 8240.48 L 17372.75 8219.37 L 17381.97 8198.23 L 17391.05 8177.02 L 17399.98 8155.75 L 17408.76 8134.44 L 17417.39 8113.08 L 17425.88 8091.66 L 17434.23 8070.21 L 17442.42 8048.7 L 17450.48 8027.14 L 17458.38 8005.53 L 17466.14 7983.9 L 17473.75 7962.19 L 17481.21 7940.45 L 17488.52 7918.68 L 17495.69 7896.84 L 17502.71 7874.99 L 17509.58 7853.07 L 17516.3 7831.12 L 17522.87 7809.13 L 17529.3 7787.11 L 17535.57 7765.04 L 17541.7 7742.93 L 17547.68 7720.79 L 17553.51 7698.62 L 17559.2 7676.4 L 17564.73 7654.15 L 17570.11 7631.88 L 17575.35 7609.56 L 17580.43 7587.21 L 17585.37 7564.84 L 17590.15 7542.43 L 17594.79 7519.99 L 17599.27 7497.52 L 17603.61 7475.03 L 17607.79 7452.51 L 17611.83 7429.96 L 17615.71 7407.38 L 17619.45 7384.78 L 17623.02 7362.14 L 17626.45 7339.5 L 17629.73 7316.82 L 17632.86 7294.13 L 17635.83 7271.41 L 17638.66 7248.68 L 17641.33 7225.91 L 17643.85 7203.13 L 17646.22 7180.33 L 17648.44 7157.52 L 17650.5 7134.69 L 17652.41 7111.84 L 17654.17 7088.98 L 17655.78 7066.1 L 17657.23 7043.21 L 17658.53 7020.3 L 17659.68 6997.38 L 17660.67 6974.45 L 17661.51 6951.51 L 17662.2 6928.56 L 17662.73 6905.6 L 17663.11 6882.63 L 17663.34 6859.65 L 17663.41 6836.66 L 17663.32 6813.67 L 17663.09 6790.68 L 17662.69 6767.67 L 17662.15 6744.67 L 17661.45 6721.66 L 17660.59 6698.64 L 17659.58 6675.63 L 17658.41 6652.61 L 17657.09 6629.6 L 17655.6 6606.58 L 17653.98 6583.57 L 17652.18 6560.55 L 17650.24 6537.55 L 17648.14 6514.54 L 17645.88 6491.53 L 17643.46 6468.54 L 17640.89 6445.54 L 17638.17 6422.56 L 17635.61 6402.4 L 17598.41 6407.11 L 17600.93 6426.98 L 17603.63 6449.71 L 17606.17 6472.45 L 17608.56 6495.2 L 17610.8 6517.95 L 17612.87 6540.71 L 17614.79 6563.47 L 17616.57 6586.22 L 17618.18 6608.99 L 17619.65 6631.75 L 17620.96 6654.51 L 17622.11 6677.28 L 17623.12 6700.04 L 17623.96 6722.8 L 17624.66 6745.56 L 17625.2 6768.32 L 17625.59 6791.06 L 17625.83 6813.81 L 17625.91 6836.55 L 17625.84 6859.28 L 17625.61 6882.01 L 17625.24 6904.73 L 17624.71 6927.44 L 17624.04 6950.14 L 17623.21 6972.83 L 17622.23 6995.51 L 17621.09 7018.18 L 17619.81 7040.83 L 17618.37 7063.47 L 17616.78 7086.1 L 17615.04 7108.72 L 17613.16 7131.31 L 17611.11 7153.9 L 17608.92 7176.46 L 17606.58 7199.01 L 17604.09 7221.54 L 17601.45 7244.05 L 17598.65 7266.54 L 17595.71 7289.01 L 17592.62 7311.46 L 17589.37 7333.88 L 17585.98 7356.29 L 17582.45 7378.67 L 17578.75 7401.02 L 17574.91 7423.35 L 17570.92 7445.65 L 17566.78 7467.93 L 17562.5 7490.19 L 17558.07 7512.4 L 17553.48 7534.6 L 17548.75 7556.76 L 17543.86 7578.89 L 17538.84 7601 L 17533.66 7623.07 L 17528.34 7645.11 L 17522.87 7667.11 L 17517.25 7689.08 L 17511.48 7711.01 L 17505.57 7732.91 L 17499.5 7754.78 L 17493.3 7776.6 L 17486.95 7798.39 L 17480.44 7820.14 L 17473.79 7841.85 L 17467 7863.52 L 17460.06 7885.15 L 17452.97 7906.74 L 17445.74 7928.28 L 17438.36 7949.79 L 17430.84 7971.24 L 17423.16 7992.65 L 17415.34 8014.02 L 17407.38 8035.35 L 17399.28 8056.61 L 17391.02 8077.85 L 17382.63 8099.02 L 17374.08 8120.16 L 17365.4 8141.23 L 17356.57 8162.27 L 17347.6 8183.24 L 17338.48 8204.16 L 17329.21 8225.04 L 17319.81 8245.86 L 17310.25 8266.62 L 17300.56 8287.33 L 17290.72 8307.99 L 17280.74 8328.58 L 17270.61 8349.12 L 17260.34 8369.6 L 17249.93 8390.03 L 17239.37 8410.39 L 17228.67 8430.7 L 17217.84 8450.93 L 17206.85 8471.12 L 17195.73 8491.23 L 17184.46 8511.29 L 17173.05 8531.28 L 17161.5 8551.2 L 17149.81 8571.06 L 17137.97 8590.86 L 17126 8610.58 L 17113.88 8630.24 L 17101.63 8649.82 L 17089.22 8669.35 L 17076.68 8688.8 L 17064 8708.18 L 17051.17 8727.48 L 17038.21 8746.72 L 17025.11 8765.88 L 17011.9 8784.93 L 16986.26 8821.12 L 16960.24 8856.89 L 16933.83 8892.23 L 16907.06 8927.13 L 16879.91 8961.6 L 16852.39 8995.65 L 16824.52 9029.26 L 16796.28 9062.43 L 16767.69 9095.18 L 16738.76 9127.49 L 16709.48 9159.36 L 16679.87 9190.8 L 16649.92 9221.8 L 16619.65 9252.36 L 16589.05 9282.49 L 16558.13 9312.17 L 16526.9 9341.41 L 16495.35 9370.21 L 16463.51 9398.57 L 16431.35 9426.49 L 16398.9 9453.96 L 16366.17 9480.98 L 16333.14 9507.57 L 16299.84 9533.7 L 16266.26 9559.39 L 16232.4 9584.63 L 16198.29 9609.42 L 16163.9 9633.76 L 16129.25 9657.65 L 16094.36 9681.08 L 16059.21 9704.07 L 16023.82 9726.61 L 15988.2 9748.68 L 15952.33 9770.3 L 15916.24 9791.47 L 15879.92 9812.18 L 15843.38 9832.44 L 15806.62 9852.24 L 15769.67 9871.57 L 15732.49 9890.45 L 15695.11 9908.86 L 15657.55 9926.81 L 15619.78 9944.31 L 15581.83 9961.33 L 15543.7 9977.9 L 15505.39 9993.99 L 15466.9 10009.63 L 15428.24 10024.79 L 15389.43 10039.49 L 15350.46 10053.72 L 15311.32 10067.48 L 15272.04 10080.77 L 15232.62 10093.58 L 15193.05 10105.93 L 15153.35 10117.81 L 15113.52 10129.21 L 15073.56 10140.13 L 15033.48 10150.58 L 14993.23 10160.56 L 14973.08 10165.37 L 14952.93 10170.06 L 14932.72 10174.63 L 14912.51 10179.08 L 14892.26 10183.41 L 14871.98 10187.62 L 14851.69 10191.7 L 14831.37 10195.67 L 14811.02 10199.52 L 14790.66 10203.25 L 14770.28 10206.87 L 14749.86 10210.35 L 14729.44 10213.72 L 14708.98 10216.97 L 14688.51 10220.09 L 14668.03 10223.1 L 14647.51 10225.98 L 14626.99 10228.75 L 14606.45 10231.39 L 14585.89 10233.91 L 14565.31 10236.31 L 14544.72 10238.59 L 14524.12 10240.75 L 14503.49 10242.78 L 14482.86 10244.69 L 14462.21 10246.48 L 14441.54 10248.15 L 14420.87 10249.7 L 14400.2 10251.12 L 14379.5 10252.42 L 14358.79 10253.6 L 14338.08 10254.66 L 14317.35 10255.59 L 14296.62 10256.41 L 14275.88 10257.09 L 14255.14 10257.66 L 14234.37 10258.1 L 14213.62 10258.42 L 14192.85 10258.62 L 14172.08 10258.69 L 14151.3 10258.64 L 14130.52 10258.47 L 14109.74 10258.17 L 14088.95 10257.75 L 14068.17 10257.2 L 14047.38 10256.53 L 14026.59 10255.73 L 14005.8 10254.82 L 13985.01 10253.77 L 13964.22 10252.61 L 13943.44 10251.32 L 13922.66 10249.9 L 13901.87 10248.36 L 13881.1 10246.7 L 13860.32 10244.9 L 13839.54 10242.98 L 13818.79 10240.94 L 13798.02 10238.77 L 13777.27 10236.48 L 13756.52 10234.07 L 13735.79 10231.52 L 13715.06 10228.85 L 13694.33 10226.06 L 13673.61 10223.13 L 13652.92 10220.09 L 13632.22 10216.91 L 13611.54 10213.61 L 13590.88 10210.19 L 13570.21 10206.63 L 13549.57 10202.96 L 13528.93 10199.15 L 13508.32 10195.22 L 13487.71 10191.16 L 13467.12 10186.97 L 13446.56 10182.66 L 13425.99 10178.21 L 13405.46 10173.65 L 13384.94 10168.95 L 13364.43 10164.12 L 13343.95 10159.18 L 13323.48 10154.1 L 13303.04 10148.89 L 13282.6 10143.55 L 13262.2 10138.09 L 13241.81 10132.5 L 13221.45 10126.79 L 13201.12 10120.94 L 13180.8 10114.95 L 13160.51 10108.85 L 13140.24 10102.62 L 13120 10096.25 L 13099.78 10089.77 L 13079.6 10083.15 L 13059.44 10076.4 L 13039.3 10069.51 L 13019.19 10062.51 L 12999.11 10055.37 L 12979.06 10048.11 L 12959.04 10040.71 L 12939.05 10033.18 L 12919.09 10025.53 L 12899.17 10017.74 L 12879.27 10009.82 L 12859.41 10001.78 L 12839.58 9993.6 L 12819.79 9985.29 L 12800.03 9976.86 L 12780.3 9968.29 L 12760.62 9959.59 L 12740.96 9950.76 L 12721.34 9941.79 L 12701.76 9932.7 L 12682.22 9923.48 L 12662.72 9914.13 L 12643.26 9904.64 L 12623.84 9895.02 L 12604.46 9885.27 L 12585.11 9875.39 L 12565.81 9865.38 L 12546.56 9855.23 L 12527.34 9844.95 L 12508.17 9834.55 L 12489.04 9824.01 L 12469.95 9813.33 L 12450.91 9802.52 L 12431.92 9791.59 L 12412.97 9780.52 L 12394.08 9769.32 L 12375.22 9757.98 L 12356.41 9746.5 L 12337.66 9734.9 L 12318.95 9723.17 L 12300.29 9711.29 L 12281.69 9699.29 L 12263.13 9687.15 L 12244.63 9674.89 L 12226.18 9662.48 L 12207.82 9649.97 L 12171.29 9624.57 L 12135.2 9598.78 L 12099.53 9572.62 L 12064.3 9546.1 L 12029.5 9519.19 L 11995.14 9491.92 L 11961.22 9464.31 L 11927.74 9436.33 L 11894.69 9408.01 L 11862.08 9379.34 L 11829.91 9350.33 L 11798.18 9320.99 L 11766.89 9291.32 L 11736.05 9261.32 L 11705.64 9231 L 11675.68 9200.36 L 11646.17 9169.42 L 11617.1 9138.16 L 11588.48 9106.61 L 11560.3 9074.75 L 11532.58 9042.61 L 11505.31 9010.16 L 11478.48 8977.45 L 11452.1 8944.45 L 11426.17 8911.18 L 11400.7 8877.64 L 11375.68 8843.83 L 11351.12 8809.76 L 11327.01 8775.44 L 11303.36 8740.86 L 11280.16 8706.05 L 11257.42 8670.99 L 11235.13 8635.68 L 11213.31 8600.16 L 11191.95 8564.4 L 11171.05 8528.41 L 11150.61 8492.21 L 11130.63 8455.8 L 11111.12 8419.18 L 11092.07 8382.36 L 11073.48 8345.32 L 11055.37 8308.1 L 11037.71 8270.69 L 11020.53 8233.1 L 11003.81 8195.32 L 10987.57 8157.36 L 10971.79 8119.23 L 10956.49 8080.94 L 10941.66 8042.49 L 10927.3 8003.87 L 10913.41 7965.11 L 10900 7926.19 L 10887.07 7887.13 L 10874.59 7847.88 L 10868.54 7828.23 L 10862.61 7808.55 L 10856.8 7788.84 L 10851.11 7769.08 L 10845.53 7749.31 L 10840.08 7729.5 L 10834.75 7709.66 L 10829.54 7689.79 L 10824.45 7669.9 L 10819.48 7649.97 L 10814.62 7630.02 L 10809.89 7610.04 L 10805.28 7590.03 L 10800.79 7570.01 L 10796.43 7549.94 L 10792.17 7529.86 L 10788.05 7509.76 L 10784.04 7489.62 L 10780.16 7469.47 L 10776.4 7449.29 L 10772.76 7429.09 L 10769.24 7408.87 L 10765.83 7388.64 L 10762.56 7368.38 L 10759.4 7348.09 L 10756.37 7327.8 L 10753.46 7307.48 L 10750.67 7287.15 L 10748.01 7266.79 L 10745.46 7246.43 L 10743.04 7226.05 L 10740.74 7205.65 L 10738.57 7185.23 L 10736.51 7164.8 L 10734.58 7144.36 L 10732.77 7123.91 L 10731.09 7103.43 L 10729.53 7082.96 L 10728.09 7062.46 L 10726.78 7041.96 L 10725.59 7021.45 L 10724.52 7000.93 L 10723.58 6980.4 L 10722.76 6959.86 L 10722.07 6939.31 L 10721.49 6918.77 L 10721.05 6898.19 L 10720.72 6877.64 L 10720.53 6857.05 L 10720.45 6836.48 L 10720.5 6815.9 L 10720.68 6795.31 L 10720.98 6774.72 L 10721.41 6754.13 L 10721.96 6733.54 L 10722.64 6712.95 L 10723.44 6692.35 L 10724.37 6671.75 L 10725.42 6651.16 L 10726.59 6630.57 L 10727.9 6609.98 L 10729.33 6589.38 L 10730.88 6568.8 L 10732.57 6548.21 L 10734.37 6527.63 L 10736.31 6507.05 L 10738.37 6486.48 L 10740.56 6465.91 L 10742.87 6445.36 L 10745.31 6424.8 L 10747.88 6404.26 L 10750.57 6383.72 L 10753.39 6363.19 L 10756.34 6342.67 L 10759.42 6322.16 L 10762.62 6301.67 L 10765.95 6281.17 L 10769.4 6260.69 L 10772.99 6240.23 L 10776.7 6219.78 L 10780.54 6199.34 L 10784.51 6178.91 L 10788.61 6158.51 L 10792.83 6138.11 L 10797.19 6117.72 L 10801.67 6097.36 L 10806.28 6077.01 L 10811.02 6056.68 L 10815.89 6036.37 L 10820.88 6016.07 L 10826.01 5995.8 L 10831.27 5975.53 L 10836.64 5955.3 L 10842.15 5935.1 L 10847.8 5914.9 L 10853.57 5894.72 L 10859.47 5874.58 L 10865.51 5854.45 L 10871.67 5834.35 L 10877.95 5814.27 L 10884.37 5794.21 L 10890.92 5774.19 L 10897.6 5754.18 L 10904.41 5734.21 L 10911.36 5714.26 L 10918.43 5694.35 L 10925.63 5674.45 L 10932.96 5654.59 L 10940.43 5634.76 L 10948.03 5614.95 L 10955.76 5595.18 L 10963.61 5575.44 L 10971.6 5555.73 L 10979.72 5536.05 L 10987.97 5516.41 L 10996.36 5496.79 L 11004.87 5477.23 L 11013.52 5457.68 L 11022.3 5438.17 L 11031.2 5418.7 L 11040.25 5399.26 L 11049.43 5379.87 L 11058.73 5360.51 L 11068.18 5341.19 L 11077.75 5321.91 L 11087.46 5302.66 L 11097.29 5283.46 L 11107.27 5264.3 L 11117.37 5245.18 L 11127.61 5226.09 L 11137.97 5207.06 L 11148.49 5188.07 L 11159.12 5169.11 L 11169.89 5150.21 L 11180.8 5131.35 L 11191.84 5112.53 L 11203.01 5093.76 L 11214.32 5075.03 L 11225.76 5056.35 L 11237.34 5037.73 L 11249.05 5019.14 L 11260.89 5000.6 L 11272.87 4982.12 L 11284.98 4963.69 L 11297.23 4945.31 L 11309.62 4926.97 L 11322.14 4908.69 L 11334.86 4890.36 C 11340.76 4881.85 11338.65 4870.17 11330.15 4864.27 C 11321.64 4858.36 11309.96 4860.47 11304.05 4868.98 Z M 17538.22 5992.64 L 17784.14 6480.14 L 17635.5 6401.65 L 17598.67 6408.69 L 17489.47 6536.47 Z "/>
<path transform="matrix(.039928475,0,0,-.039956675,0,418.3729)" d="M 171.39 6642.2 L 170.06 6663.01 L 168.81 6684.84 L 167.72 6706.65 L 166.75 6728.43 L 165.93 6750.2 L 165.25 6771.95 L 164.71 6793.68 L 164.3 6815.38 L 164.03 6837.07 L 163.89 6858.74 L 163.89 6880.38 L 164.03 6902 L 164.3 6923.6 L 164.72 6945.18 L 165.26 6966.72 L 165.94 6988.26 L 166.75 7009.76 L 167.7 7031.24 L 168.79 7052.69 L 170 7074.11 L 171.35 7095.51 L 172.84 7116.89 L 174.45 7138.22 L 176.2 7159.55 L 178.08 7180.83 L 180.08 7202.08 L 182.22 7223.31 L 184.5 7244.52 L 186.9 7265.68 L 189.43 7286.82 L 192.09 7307.92 L 194.88 7328.99 L 197.81 7350.04 L 200.86 7371.03 L 204.04 7392.01 L 207.34 7412.95 L 210.77 7433.86 L 214.33 7454.72 L 218.03 7475.56 L 221.83 7496.35 L 225.78 7517.12 L 229.84 7537.84 L 234.04 7558.52 L 238.36 7579.17 L 242.8 7599.78 L 247.37 7620.35 L 252.06 7640.88 L 256.87 7661.36 L 261.81 7681.81 L 266.88 7702.22 L 272.06 7722.58 L 277.37 7742.91 L 282.79 7763.19 L 288.35 7783.44 L 294.02 7803.63 L 299.82 7823.78 L 305.73 7843.88 L 317.91 7883.91 L 330.58 7923.8 L 343.73 7963.51 L 357.36 8003.02 L 371.45 8042.33 L 386.01 8081.45 L 401.04 8120.37 L 416.53 8159.07 L 432.47 8197.56 L 448.89 8235.84 L 465.75 8273.9 L 483.06 8311.73 L 500.83 8349.34 L 519.04 8386.71 L 537.7 8423.85 L 556.8 8460.75 L 576.33 8497.4 L 596.3 8533.82 L 616.71 8569.98 L 637.54 8605.87 L 658.8 8641.52 L 680.49 8676.9 L 702.6 8712.01 L 725.13 8746.85 L 748.06 8781.41 L 771.43 8815.7 L 795.19 8849.71 L 819.38 8883.43 L 843.96 8916.86 L 868.95 8949.99 L 894.33 8982.82 L 920.12 9015.35 L 946.3 9047.58 L 972.88 9079.5 L 999.83 9111.09 L 1027.18 9142.37 L 1054.91 9173.33 L 1083.03 9203.97 L 1111.52 9234.26 L 1140.39 9264.23 L 1169.63 9293.86 L 1199.24 9323.15 L 1229.22 9352.09 L 1259.56 9380.68 L 1290.27 9408.92 L 1321.34 9436.8 L 1352.76 9464.32 L 1384.54 9491.47 L 1416.66 9518.25 L 1449.14 9544.66 L 1481.96 9570.69 L 1515.12 9596.33 L 1548.63 9621.6 L 1582.47 9646.47 L 1616.65 9670.95 L 1651.16 9695.04 L 1686 9718.72 L 1721.17 9741.99 L 1756.66 9764.86 L 1792.47 9787.31 L 1828.6 9809.35 L 1865.05 9830.96 L 1901.8 9852.15 L 1938.87 9872.91 L 1976.25 9893.24 L 2013.93 9913.13 L 2051.92 9932.57 L 2090.2 9951.58 L 2128.77 9970.13 L 2167.65 9988.24 L 2206.82 10005.88 L 2246.27 10023.07 L 2286 10039.79 L 2326.02 10056.04 L 2366.33 10071.82 L 2406.91 10087.12 L 2427.36 10094.6 L 2447.81 10101.95 L 2468.35 10109.18 L 2488.93 10116.29 L 2509.6 10123.28 L 2530.34 10130.14 L 2551.13 10136.88 L 2571.99 10143.49 L 2592.92 10149.99 L 2613.92 10156.35 L 2634.98 10162.59 L 2656.1 10168.71 L 2677.3 10174.7 L 2698.54 10180.56 L 2719.86 10186.3 L 2741.25 10191.91 L 2762.69 10197.39 L 2784.19 10202.74 L 2805.76 10207.97 L 2827.4 10213.06 L 2849.09 10218.02 L 2870.84 10222.85 L 2892.66 10227.56 L 2914.54 10232.13 L 2936.47 10236.57 L 2958.47 10240.88 L 2980.53 10245.05 L 3002.64 10249.09 L 3024.78 10252.99 L 3046.92 10256.74 L 3069.04 10260.35 L 3091.17 10263.82 L 3113.27 10267.14 L 3135.38 10270.31 L 3157.48 10273.35 L 3179.55 10276.24 L 3201.63 10278.99 L 3223.7 10281.59 L 3245.75 10284.05 L 3267.79 10286.37 L 3289.81 10288.55 L 3311.83 10290.59 L 3333.83 10292.49 L 3355.82 10294.24 L 3377.8 10295.86 L 3399.76 10297.34 L 3421.7 10298.67 L 3443.63 10299.87 L 3465.54 10300.93 L 3487.43 10301.85 L 3509.31 10302.63 L 3531.18 10303.27 L 3553.01 10303.78 L 3574.84 10304.15 L 3596.64 10304.38 L 3618.42 10304.48 L 3640.19 10304.44 L 3661.93 10304.26 L 3683.65 10303.95 L 3705.36 10303.5 L 3727.03 10302.92 L 3748.68 10302.2 L 3770.31 10301.36 L 3791.93 10300.37 L 3813.51 10299.26 L 3835.06 10298.01 L 3856.6 10296.63 L 3878.11 10295.11 L 3899.58 10293.47 L 3921.04 10291.69 L 3942.47 10289.78 L 3963.87 10287.74 L 3985.24 10285.57 L 4006.58 10283.27 L 4027.89 10280.84 L 4049.18 10278.28 L 4070.42 10275.59 L 4091.65 10272.77 L 4112.84 10269.82 L 4134 10266.75 L 4155.13 10263.54 L 4176.22 10260.21 L 4197.27 10256.76 L 4218.3 10253.17 L 4239.29 10249.46 L 4260.25 10245.62 L 4281.17 10241.66 L 4302.07 10237.57 L 4322.91 10233.36 L 4343.73 10229.02 L 4364.5 10224.55 L 4385.23 10219.97 L 4405.93 10215.26 L 4426.59 10210.43 L 4447.21 10205.47 L 4467.8 10200.39 L 4488.34 10195.19 L 4508.84 10189.86 L 4529.29 10184.42 L 4549.71 10178.86 L 4570.09 10173.16 L 4590.42 10167.36 L 4630.9 10155.4 L 4671.26 10142.94 L 4711.43 10130.01 L 4751.42 10116.61 L 4791.22 10102.74 L 4830.83 10088.39 L 4870.24 10073.59 L 4909.45 10058.32 L 4948.45 10042.59 L 4987.25 10026.4 L 5025.82 10009.77 L 5064.19 9992.68 L 5102.33 9975.14 L 5140.25 9957.16 L 5177.94 9938.74 L 5215.4 9919.88 L 5252.62 9900.57 L 5289.59 9880.84 L 5326.32 9860.67 L 5362.81 9840.07 L 5399.04 9819.05 L 5435.01 9797.6 L 5470.72 9775.74 L 5506.17 9753.45 L 5541.35 9730.75 L 5576.25 9707.64 L 5610.88 9684.12 L 5645.23 9660.19 L 5679.29 9635.86 L 5713.07 9611.12 L 5746.55 9585.98 L 5779.73 9560.45 L 5812.62 9534.53 L 5845.2 9508.21 L 5877.47 9481.52 L 5909.43 9454.42 L 5941.06 9426.96 L 5972.39 9399.11 L 6003.38 9370.88 L 6034.05 9342.28 L 6064.38 9313.31 L 6094.38 9283.96 L 6124.04 9254.27 L 6153.35 9224.2 L 6182.31 9193.76 L 6210.92 9162.98 L 6239.18 9131.83 L 6267.07 9100.34 L 6294.6 9068.49 L 6321.75 9036.31 L 6348.55 9003.77 L 6374.95 8970.9 L 6400.98 8937.68 L 6426.63 8904.13 L 6451.88 8870.25 L 6476.75 8836.03 L 6501.22 8801.49 L 6525.29 8766.63 L 6548.95 8731.44 L 6572.21 8695.93 L 6595.05 8660.11 L 6617.47 8623.97 L 6639.47 8587.52 L 6661.06 8550.76 L 6682.21 8513.7 L 6702.93 8476.33 L 6723.21 8438.67 L 6743.05 8400.7 L 6762.45 8362.45 L 6781.4 8323.9 L 6799.89 8285.06 L 6817.93 8245.94 L 6835.52 8206.53 L 6852.63 8166.83 L 6869.27 8126.87 L 6885.45 8086.64 L 6901.14 8046.12 L 6908.83 8025.7 L 6916.38 8005.28 L 6923.81 7984.79 L 6931.11 7964.22 L 6938.29 7943.61 L 6945.35 7922.91 L 6952.29 7902.16 L 6959.1 7881.34 L 6965.79 7860.45 L 6972.35 7839.51 L 6978.8 7818.49 L 6985.11 7797.41 L 6991.3 7776.27 L 6997.36 7755.06 L 7003.29 7733.8 L 7009.1 7712.48 L 7014.77 7691.09 L 7020.32 7669.63 L 7025.75 7648.12 L 7031.03 7626.55 L 7036.19 7604.91 L 7041.22 7583.22 L 7046.12 7561.47 L 7050.89 7539.66 L 7055.52 7517.78 L 7060.03 7495.85 L 7064.39 7473.86 L 7068.63 7451.82 L 7072.84 7429.11 L 7076.89 7406.4 L 7080.79 7383.68 L 7084.54 7360.95 L 7088.13 7338.21 L 7091.57 7315.47 L 7094.86 7292.72 L 7097.99 7269.96 L 7100.97 7247.21 L 7103.8 7224.44 L 7106.47 7201.68 L 7108.99 7178.9 L 7111.37 7156.13 L 7113.59 7133.36 L 7115.65 7110.58 L 7117.56 7087.8 L 7119.33 7065.04 L 7120.93 7042.26 L 7122.4 7019.5 L 7123.7 6996.73 L 7124.86 6973.97 L 7125.87 6951.21 L 7126.72 6928.46 L 7127.43 6905.71 L 7127.99 6882.98 L 7128.39 6860.23 L 7128.64 6837.52 L 7128.75 6814.8 L 7128.7 6792.1 L 7128.51 6769.4 L 7128.17 6746.72 L 7127.68 6724.04 L 7127.04 6701.38 L 7126.25 6678.73 L 7125.31 6656.09 L 7124.22 6633.48 L 7122.98 6610.87 L 7121.6 6588.29 L 7120.07 6565.71 L 7118.39 6543.16 L 7116.57 6520.62 L 7114.59 6498.1 L 7112.47 6475.61 L 7110.2 6453.12 L 7107.79 6430.67 L 7105.23 6408.23 L 7102.52 6385.82 L 7099.66 6363.43 L 7096.66 6341.07 L 7093.52 6318.72 L 7090.22 6296.4 L 7086.79 6274.12 L 7083.2 6251.84 L 7079.48 6229.61 L 7075.6 6207.4 L 7071.58 6185.22 L 7067.42 6163.07 L 7063.11 6140.94 L 7058.66 6118.86 L 7054.06 6096.8 L 7049.32 6074.77 L 7044.43 6052.77 L 7039.4 6030.81 L 7034.23 6008.89 L 7028.91 5987 L 7023.45 5965.15 L 7017.85 5943.33 L 7012.1 5921.55 L 7006.21 5899.8 L 7000.18 5878.1 L 6994.01 5856.43 L 6987.69 5834.81 L 6981.23 5813.22 L 6974.63 5791.68 L 6967.89 5770.18 L 6961.01 5748.72 L 6953.99 5727.31 L 6946.81 5705.94 L 6939.51 5684.61 L 6932.07 5663.34 L 6924.47 5642.1 L 6916.74 5620.92 L 6908.87 5599.78 L 6900.86 5578.69 L 6892.71 5557.65 L 6884.42 5536.66 L 6875.99 5515.72 L 6867.43 5494.84 L 6858.72 5474 L 6849.86 5453.21 L 6840.88 5432.5 L 6831.75 5411.81 L 6822.49 5391.2 L 6813.08 5370.63 L 6803.54 5350.12 L 6793.87 5329.68 L 6784.05 5309.28 L 6774.09 5288.95 L 6763.99 5268.68 L 6753.76 5248.46 L 6743.39 5228.31 L 6732.89 5208.22 L 6722.25 5188.18 L 6711.46 5168.22 L 6700.55 5148.32 L 6689.49 5128.47 L 6678.3 5108.7 L 6666.99 5089 L 6655.52 5069.35 L 6643.93 5049.78 L 6632.19 5030.27 L 6620.32 5010.83 L 6608.33 4991.46 L 6596.18 4972.16 L 6583.91 4952.93 L 6571.5 4933.78 L 6558.96 4914.69 L 6546.28 4895.68 L 6533.47 4876.74 L 6520.52 4857.87 L 6507.45 4839.09 L 6494.23 4820.37 L 6480.88 4801.73 L 6467.41 4783.18 L 6453.79 4764.69 L 6440.05 4746.28 L 6426.16 4727.96 L 6412.15 4709.71 C 6405.84 4701.5 6394.07 4699.96 6385.86 4706.27 C 6377.65 4712.57 6376.1 4724.34 6382.41 4732.56 L 6396.27 4750.6 L 6410 4768.72 L 6423.6 4786.93 L 6437.06 4805.21 L 6450.39 4823.57 L 6463.6 4842 L 6476.67 4860.51 L 6489.6 4879.09 L 6502.41 4897.75 L 6515.08 4916.48 L 6527.62 4935.28 L 6540.03 4954.16 L 6552.3 4973.11 L 6564.44 4992.13 L 6576.45 5011.21 L 6588.32 5030.38 L 6600.06 5049.6 L 6611.66 5068.89 L 6623.14 5088.26 L 6634.47 5107.67 L 6645.67 5127.17 L 6656.74 5146.73 L 6667.67 5166.34 L 6678.47 5186.04 L 6689.13 5205.78 L 6699.65 5225.59 L 6710.05 5245.47 L 6720.3 5265.4 L 6730.43 5285.4 L 6740.41 5305.44 L 6750.26 5325.55 L 6759.97 5345.71 L 6769.54 5365.95 L 6778.98 5386.23 L 6788.28 5406.56 L 6797.44 5426.96 L 6806.47 5447.41 L 6815.36 5467.91 L 6824.12 5488.46 L 6832.73 5509.07 L 6841.21 5529.73 L 6849.54 5550.43 L 6857.74 5571.2 L 6865.8 5592 L 6873.73 5612.87 L 6881.51 5633.77 L 6889.16 5654.73 L 6896.67 5675.72 L 6904.03 5696.77 L 6911.26 5717.87 L 6918.35 5739 L 6925.3 5760.18 L 6932.11 5781.4 L 6938.78 5802.67 L 6945.31 5823.97 L 6951.7 5845.32 L 6957.94 5866.71 L 6964.05 5888.14 L 6970.02 5909.6 L 6975.84 5931.12 L 6981.53 5952.66 L 6987.07 5974.24 L 6992.47 5995.85 L 6997.73 6017.51 L 7002.85 6039.19 L 7007.82 6060.91 L 7012.66 6082.66 L 7017.35 6104.45 L 7021.9 6126.27 L 7026.3 6148.12 L 7030.57 6170 L 7034.68 6191.91 L 7038.66 6213.84 L 7042.49 6235.81 L 7046.18 6257.81 L 7049.73 6279.83 L 7053.12 6301.88 L 7056.38 6323.95 L 7059.5 6346.05 L 7062.46 6368.18 L 7065.29 6390.32 L 7067.97 6412.49 L 7070.51 6434.68 L 7072.89 6456.89 L 7075.14 6479.12 L 7077.24 6501.38 L 7079.19 6523.65 L 7081 6545.94 L 7082.66 6568.25 L 7084.17 6590.57 L 7085.54 6612.92 L 7086.76 6635.28 L 7087.84 6657.65 L 7088.77 6680.04 L 7089.55 6702.44 L 7090.19 6724.85 L 7090.67 6747.28 L 7091.01 6769.72 L 7091.2 6792.17 L 7091.25 6814.63 L 7091.15 6837.09 L 7090.89 6859.57 L 7090.5 6882.06 L 7089.95 6904.55 L 7089.25 6927.05 L 7088.4 6949.56 L 7087.41 6972.06 L 7086.26 6994.58 L 7084.97 7017.09 L 7083.53 7039.62 L 7081.94 7062.14 L 7080.19 7084.67 L 7078.31 7107.19 L 7076.26 7129.72 L 7074.07 7152.24 L 7071.72 7174.78 L 7069.23 7197.3 L 7066.58 7219.83 L 7063.79 7242.33 L 7060.84 7264.85 L 7057.74 7287.36 L 7054.49 7309.87 L 7051.09 7332.37 L 7047.54 7354.85 L 7043.83 7377.34 L 7039.98 7399.81 L 7035.96 7422.28 L 7031.8 7444.74 L 7027.61 7466.56 L 7023.29 7488.31 L 7018.84 7510.01 L 7014.25 7531.65 L 7009.54 7553.23 L 7004.69 7574.75 L 6999.71 7596.22 L 6994.61 7617.62 L 6989.38 7638.96 L 6984.02 7660.24 L 6978.53 7681.47 L 6972.91 7702.63 L 6967.17 7723.72 L 6961.3 7744.76 L 6955.31 7765.73 L 6949.18 7786.66 L 6942.94 7807.5 L 6936.57 7828.29 L 6930.07 7849.02 L 6923.46 7869.68 L 6916.72 7890.27 L 6909.86 7910.8 L 6902.88 7931.27 L 6895.77 7951.68 L 6888.55 7972.01 L 6881.2 7992.28 L 6873.74 8012.49 L 6866.17 8032.57 L 6850.65 8072.65 L 6834.65 8112.46 L 6818.19 8151.99 L 6801.27 8191.26 L 6783.88 8230.24 L 6766.03 8268.94 L 6747.74 8307.36 L 6729 8345.49 L 6709.82 8383.33 L 6690.19 8420.89 L 6670.13 8458.15 L 6649.64 8495.11 L 6628.72 8531.78 L 6607.37 8568.14 L 6585.6 8604.2 L 6563.43 8639.95 L 6540.84 8675.39 L 6517.83 8710.51 L 6494.43 8745.33 L 6470.62 8779.81 L 6446.42 8813.99 L 6421.82 8847.84 L 6396.84 8881.36 L 6371.47 8914.55 L 6345.72 8947.41 L 6319.6 8979.93 L 6293.09 9012.12 L 6266.22 9043.97 L 6239 9075.47 L 6211.4 9106.64 L 6183.46 9137.45 L 6155.14 9167.91 L 6126.49 9198.02 L 6097.5 9227.77 L 6068.16 9257.16 L 6038.48 9286.19 L 6008.47 9314.86 L 5978.14 9343.16 L 5947.47 9371.08 L 5916.48 9398.64 L 5885.18 9425.82 L 5853.56 9452.62 L 5821.63 9479.04 L 5789.4 9505.08 L 5756.87 9530.73 L 5724.04 9555.99 L 5690.91 9580.87 L 5657.5 9605.34 L 5623.79 9629.42 L 5589.81 9653.1 L 5555.55 9676.37 L 5521.01 9699.24 L 5486.21 9721.7 L 5451.14 9743.76 L 5415.81 9765.39 L 5380.22 9786.62 L 5344.37 9807.42 L 5308.27 9827.8 L 5271.94 9847.76 L 5235.35 9867.28 L 5198.53 9886.39 L 5161.47 9905.05 L 5124.18 9923.28 L 5086.67 9941.07 L 5048.93 9958.43 L 5010.97 9975.34 L 4972.81 9991.8 L 4934.43 10007.81 L 4895.84 10023.38 L 4857.05 10038.48 L 4818.05 10053.13 L 4778.88 10067.33 L 4739.5 10081.05 L 4699.94 10094.32 L 4660.2 10107.11 L 4620.27 10119.44 L 4580.12 10131.3 L 4560 10137.04 L 4539.85 10142.68 L 4519.65 10148.18 L 4499.41 10153.57 L 4479.13 10158.83 L 4458.81 10163.98 L 4438.45 10169.01 L 4418.05 10173.91 L 4397.61 10178.69 L 4377.14 10183.36 L 4356.62 10187.89 L 4336.07 10192.31 L 4315.49 10196.6 L 4294.85 10200.77 L 4274.2 10204.82 L 4253.49 10208.74 L 4232.77 10212.53 L 4211.99 10216.2 L 4191.2 10219.75 L 4170.36 10223.17 L 4149.5 10226.47 L 4128.6 10229.64 L 4107.67 10232.68 L 4086.71 10235.6 L 4065.72 10238.39 L 4044.7 10241.04 L 4023.64 10243.58 L 4002.56 10245.98 L 3981.45 10248.26 L 3960.31 10250.41 L 3939.14 10252.43 L 3917.94 10254.32 L 3896.72 10256.08 L 3875.48 10257.7 L 3854.19 10259.2 L 3832.9 10260.58 L 3811.57 10261.81 L 3790.22 10262.91 L 3768.85 10263.89 L 3747.44 10264.73 L 3726.03 10265.43 L 3704.58 10266.01 L 3683.12 10266.46 L 3661.63 10266.76 L 3640.12 10266.94 L 3618.59 10266.98 L 3597.04 10266.88 L 3575.48 10266.65 L 3553.88 10266.29 L 3532.28 10265.79 L 3510.66 10265.16 L 3489.01 10264.38 L 3467.35 10263.47 L 3445.68 10262.43 L 3423.98 10261.24 L 3402.28 10259.92 L 3380.54 10258.46 L 3358.81 10256.86 L 3337.06 10255.12 L 3315.29 10253.25 L 3293.51 10251.23 L 3271.71 10249.08 L 3249.91 10246.79 L 3228.09 10244.35 L 3206.26 10241.77 L 3184.42 10239.06 L 3162.57 10236.19 L 3140.71 10233.2 L 3118.85 10230.06 L 3096.96 10226.77 L 3075.08 10223.34 L 3053.19 10219.77 L 3031.28 10216.05 L 3009.38 10212.2 L 2987.49 10208.2 L 2965.67 10204.07 L 2943.91 10199.82 L 2922.2 10195.42 L 2900.56 10190.9 L 2878.97 10186.25 L 2857.45 10181.46 L 2835.99 10176.56 L 2814.59 10171.52 L 2793.25 10166.35 L 2771.98 10161.06 L 2750.76 10155.63 L 2729.61 10150.09 L 2708.52 10144.42 L 2687.49 10138.61 L 2666.53 10132.69 L 2645.64 10126.64 L 2624.8 10120.46 L 2604.03 10114.17 L 2583.33 10107.75 L 2562.7 10101.21 L 2542.12 10094.54 L 2521.61 10087.75 L 2501.17 10080.84 L 2480.79 10073.81 L 2460.49 10066.66 L 2440.25 10059.39 L 2420.14 10052.03 L 2380 10036.9 L 2340.13 10021.29 L 2300.55 10005.22 L 2261.24 9988.69 L 2222.22 9971.69 L 2183.48 9954.24 L 2145.03 9936.34 L 2106.87 9917.99 L 2069 9899.19 L 2031.44 9879.97 L 1994.16 9860.29 L 1957.2 9840.19 L 1920.53 9819.66 L 1884.17 9798.71 L 1848.12 9777.33 L 1812.39 9755.54 L 1776.97 9733.34 L 1741.86 9710.72 L 1707.08 9687.7 L 1672.62 9664.29 L 1638.48 9640.46 L 1604.68 9616.25 L 1571.2 9591.66 L 1538.06 9566.67 L 1505.26 9541.3 L 1472.8 9515.56 L 1440.67 9489.45 L 1408.9 9462.96 L 1377.46 9436.1 L 1346.38 9408.89 L 1315.65 9381.32 L 1285.28 9353.39 L 1255.26 9325.11 L 1225.61 9296.48 L 1196.32 9267.52 L 1167.39 9238.22 L 1138.84 9208.58 L 1110.66 9178.61 L 1082.84 9148.31 L 1055.41 9117.69 L 1028.36 9086.75 L 1001.69 9055.5 L 975.41 9023.94 L 949.51 8992.05 L 924 8959.89 L 898.89 8927.41 L 874.17 8894.64 L 849.85 8861.58 L 825.93 8828.22 L 802.42 8794.59 L 779.31 8760.68 L 756.62 8726.49 L 734.33 8692.02 L 712.46 8657.29 L 691.01 8622.31 L 669.98 8587.05 L 649.37 8551.54 L 629.18 8515.78 L 609.42 8479.77 L 590.1 8443.51 L 571.21 8407.02 L 552.75 8370.28 L 534.74 8333.31 L 517.16 8296.13 L 500.04 8258.71 L 483.36 8221.06 L 467.12 8183.2 L 451.34 8145.13 L 436.02 8106.85 L 421.15 8068.37 L 406.75 8029.68 L 392.81 7990.79 L 379.33 7951.71 L 366.32 7912.45 L 353.79 7872.99 L 341.71 7833.3 L 335.86 7813.41 L 330.13 7793.49 L 324.52 7773.51 L 319.02 7753.49 L 313.65 7733.44 L 308.4 7713.34 L 303.27 7693.19 L 298.26 7673.01 L 293.38 7652.79 L 288.62 7632.52 L 283.98 7612.21 L 279.46 7591.87 L 275.06 7571.49 L 270.79 7551.07 L 266.64 7530.62 L 262.62 7510.12 L 258.72 7489.59 L 254.95 7469.01 L 251.3 7448.42 L 247.78 7427.78 L 244.38 7407.11 L 241.11 7386.39 L 237.97 7365.65 L 234.95 7344.87 L 232.06 7324.07 L 229.3 7303.23 L 226.67 7282.35 L 224.16 7261.46 L 221.79 7240.51 L 219.53 7219.55 L 217.42 7198.56 L 215.43 7177.53 L 213.57 7156.48 L 211.84 7135.4 L 210.25 7114.29 L 208.78 7093.15 L 207.44 7071.99 L 206.24 7050.79 L 205.17 7029.58 L 204.23 7008.34 L 203.42 6987.07 L 202.75 6965.78 L 202.21 6944.46 L 201.8 6923.12 L 201.53 6901.76 L 201.39 6880.38 L 201.39 6858.97 L 201.52 6837.54 L 201.79 6816.09 L 202.19 6794.62 L 202.73 6773.12 L 203.4 6751.61 L 204.21 6730.09 L 205.17 6708.53 L 206.25 6686.98 L 207.48 6665.41 L 208.81 6644.6 Z M 243.01 6227.17 L 325.61 6766.89 L 208.65 6646.18 L 171.45 6641.45 L 28.006 6729.06 Z "/>
<clipPath id="cp14">
<path transform="matrix(.79858109,0,-.00000008335618,-.799125,11.641945,400.66929)" d="M 0 0 L 77.003 0 L 77.003 13.002 L 0 13.002 Z " fill-rule="evenodd"/>
</clipPath>
<g clip-path="url(#cp14)">
<path transform="matrix(.79858109,0,-.00000008335618,-.799125,11.641945,400.66929)" d="M 6.9255 6.4223 C 6.9255 6.0118 6.8449 5.6171 6.683 5.2377 C 6.521 4.8582 6.292 4.5245 5.9951 4.237 C 5.7081 3.9442 5.3699 3.7197 4.9814 3.5627 C 4.5929 3.4056 4.1872 3.3275 3.7644 3.3275 C 3.3649 3.3275 3.0111 3.4199 2.7032 3.6052 C 2.3957 3.7904 2.1585 4.0055 1.9921 4.2501 L 1.5271 3.478 L 1.0756 3.478 L 1.0756 11.545 C 1.0756 11.658 1.0703 11.768 1.0589 11.875 C 1.0478 11.982 1.0016 12.064 .92064 12.121 C .84458 12.173 .7219 12.203 .55342 12.212 C .38494 12.221 .19969 12.226 -.0027319 12.226 L -.0027319 12.756 L 2.1201 12.913 L 2.1201 8.7647 C 2.2685 8.943 2.5065 9.1152 2.8345 9.2812 C 3.1624 9.4468 3.5243 9.5298 3.9198 9.5303 C 4.3332 9.5298 4.7242 9.4501 5.0922 9.291 C 5.4606 9.1315 5.7796 8.9062 6.0491 8.6142 C 6.3411 8.3173 6.5603 7.98 6.7063 7.6029 C 6.8527 7.2255 6.9255 6.8321 6.9255 6.4223 Z M 5.6447 6.4223 C 5.6447 6.7753 5.6169 7.1163 5.5604 7.4459 C 5.5044 7.7751 5.3887 8.0728 5.2136 8.3394 C 5.0517 8.566 4.8562 8.748 4.6272 8.8854 C 4.3982 9.0228 4.1533 9.0915 3.8928 9.0919 C 3.5108 9.0915 3.1661 8.9941 2.8582 8.8003 C 2.5507 8.6061 2.318 8.3542 2.1605 8.045 L 2.1605 4.8586 C 2.309 4.5355 2.5179 4.2713 2.7874 4.0665 C 3.0573 3.8612 3.3694 3.7589 3.7243 3.7594 C 4.0073 3.7589 4.2747 3.8276 4.5262 3.965 C 4.7781 4.1025 4.9891 4.2824 5.1597 4.5053 C 5.3666 4.7711 5.4991 5.0684 5.5572 5.398 C 5.6156 5.7272 5.6447 6.0686 5.6447 6.4223 Z " fill-rule="evenodd"/>
<path transform="matrix(.79858109,0,-.00000008335618,-.799125,11.641945,400.66929)" d="M 14.278 8.8367 C 14.112 8.8363 13.965 8.8199 13.837 8.7872 C 13.709 8.7545 13.595 8.7034 13.496 8.6339 C 13.379 8.5594 13.284 8.4687 13.21 8.3619 C 13.136 8.2548 13.071 8.1407 13.017 8.0188 L 10.618 2.3657 C 10.537 2.1604 10.435 1.96 10.312 1.7638 C 10.188 1.5675 10.05 1.3908 9.8973 1.2338 C 9.7443 1.0767 9.5738 .95119 9.3849 .85755 C 9.1964 .76349 8.9874 .71688 8.7584 .71688 C 8.5834 .71688 8.4149 .74509 8.253 .80193 C 8.091 .85837 7.9495 .93934 7.8281 1.044 C 7.707 1.1487 7.6093 1.2718 7.5353 1.4137 C 7.4613 1.5552 7.424 1.7114 7.424 1.8815 C 7.424 2.0909 7.4903 2.2479 7.6228 2.3526 C 7.7553 2.4573 7.905 2.5096 8.071 2.5096 C 8.237 2.5096 8.3867 2.4573 8.5192 2.3526 C 8.6517 2.2479 8.7179 2.0909 8.7179 1.8815 C 8.7179 1.6807 8.6541 1.5302 8.5257 1.4301 C 8.3977 1.3295 8.3069 1.2771 8.253 1.273 C 8.2575 1.273 8.3135 1.2534 8.4214 1.2141 C 8.5294 1.1749 8.6414 1.1553 8.7584 1.1553 C 8.9203 1.1553 9.0696 1.1912 9.2066 1.2632 C 9.3436 1.3352 9.4695 1.4288 9.584 1.5446 C 9.6985 1.6599 9.7987 1.794 9.8838 1.947 C 9.9693 2.0995 10.048 2.2565 10.12 2.418 L 10.591 3.5434 L 8.5494 8.3918 C 8.5134 8.4654 8.4721 8.5386 8.4247 8.6106 C 8.3777 8.6825 8.3204 8.7336 8.253 8.7647 C 8.1675 8.8036 8.0538 8.8252 7.9123 8.8297 C 7.7708 8.8338 7.6081 8.8363 7.424 8.8367 L 7.424 9.3929 C 7.891 9.3532 8.336 9.3315 8.7584 9.3274 C 8.8079 9.327 8.8619 9.3336 8.9199 9.347 C 9.3918 9.3466 9.8903 9.3618 10.416 9.3929 L 10.416 8.8367 C 10.25 8.8363 10.114 8.8318 10.009 8.8232 C 9.903 8.8142 9.8098 8.7839 9.7288 8.732 C 9.6793 8.6968 9.6499 8.6576 9.6409 8.6142 L 9.6409 8.5684 C 9.6409 8.5333 9.6478 8.4895 9.6613 8.4376 L 11.164 4.8913 L 12.526 8.0712 C 12.566 8.1493 12.586 8.2343 12.586 8.3263 L 12.586 8.3525 C 12.577 8.4437 12.544 8.5288 12.485 8.6077 C 12.436 8.6858 12.366 8.7435 12.276 8.7807 C 12.187 8.8175 12.07 8.8363 11.926 8.8367 L 11.926 9.3929 C 12.348 9.3618 12.743 9.3466 13.112 9.347 C 13.152 9.3381 13.193 9.3315 13.233 9.3274 C 13.552 9.327 13.9 9.3487 14.278 9.3929 L 14.278 8.8367 Z " fill-rule="evenodd"/>
<path transform="matrix(.79858109,0,-.00000008335618,-.799125,11.641945,400.66929)" d="M 27.797 9.5499 C 27.775 9.7764 27.754 9.9944 27.733 10.204 C 27.713 10.413 27.683 10.611 27.642 10.799 C 27.602 10.986 27.552 11.161 27.494 11.323 C 27.435 11.484 27.361 11.608 27.271 11.696 C 27.069 11.892 26.826 12.016 26.54 12.069 C 26.255 12.121 25.966 12.147 25.674 12.147 L 25.054 12.147 C 24.951 12.147 24.846 12.145 24.738 12.14 C 24.63 12.136 24.551 12.116 24.502 12.082 C 24.461 12.051 24.436 12.002 24.427 11.934 C 24.418 11.867 24.414 11.798 24.414 11.729 L 24.414 4.4398 C 24.414 4.3523 24.439 4.2779 24.488 4.217 C 24.538 4.1556 24.607 4.1188 24.697 4.1061 C 24.778 4.0881 24.884 4.073 25.014 4.0599 C 25.144 4.0468 25.284 4.037 25.435 4.0305 C 25.585 4.0239 25.74 4.0207 25.897 4.0211 L 26.416 4.0211 L 26.416 3.478 C 25.495 3.5042 24.598 3.5173 23.726 3.5173 C 22.85 3.5173 21.954 3.5042 21.038 3.478 L 21.038 4.0211 L 21.55 4.0211 C 21.716 4.0207 21.873 4.0239 22.021 4.0305 C 22.17 4.037 22.31 4.0468 22.443 4.0599 C 22.575 4.073 22.682 4.0881 22.763 4.1061 C 22.853 4.1188 22.924 4.1581 22.975 4.2235 C 23.027 4.2889 23.052 4.3609 23.052 4.4398 L 23.052 11.729 C 23.052 11.794 23.049 11.86 23.043 11.928 C 23.036 11.995 23.008 12.047 22.958 12.082 C 22.913 12.116 22.835 12.136 22.722 12.14 C 22.61 12.145 22.504 12.147 22.405 12.147 L 21.786 12.147 C 21.494 12.147 21.207 12.121 20.926 12.069 C 20.646 12.016 20.404 11.892 20.202 11.696 C 20.108 11.599 20.03 11.473 19.969 11.316 C 19.909 11.159 19.859 10.986 19.821 10.799 C 19.783 10.611 19.753 10.413 19.73 10.204 C 19.708 9.9944 19.685 9.7764 19.663 9.5499 L 19.184 9.5499 L 19.474 12.697 L 27.999 12.697 L 28.275 9.5499 Z " fill-rule="evenodd"/>
<path transform="matrix(.79858109,0,-.00000008335618,-.799125,11.641945,400.66929)" d="M 37.649 9.5499 C 37.626 9.7764 37.605 9.9944 37.585 10.204 C 37.565 10.413 37.534 10.611 37.494 10.799 C 37.453 10.986 37.404 11.161 37.345 11.323 C 37.287 11.484 37.213 11.608 37.123 11.696 C 36.921 11.892 36.677 12.016 36.392 12.069 C 36.106 12.121 35.818 12.147 35.526 12.147 L 34.906 12.147 C 34.803 12.147 34.697 12.145 34.589 12.14 C 34.481 12.136 34.403 12.116 34.353 12.082 C 34.313 12.051 34.288 12.002 34.279 11.934 C 34.27 11.867 34.265 11.798 34.265 11.729 L 34.265 4.4398 C 34.265 4.3523 34.29 4.2779 34.34 4.217 C 34.389 4.1556 34.459 4.1188 34.548 4.1061 C 34.629 4.0881 34.735 4.073 34.865 4.0599 C 34.996 4.0468 35.136 4.037 35.286 4.0305 C 35.437 4.0239 35.591 4.0207 35.748 4.0211 L 36.267 4.0211 L 36.267 3.478 C 35.346 3.5042 34.45 3.5173 33.578 3.5173 C 32.702 3.5173 31.806 3.5042 30.889 3.478 L 30.889 4.0211 L 31.401 4.0211 C 31.568 4.0207 31.725 4.0239 31.873 4.0305 C 32.022 4.037 32.162 4.0468 32.294 4.0599 C 32.427 4.073 32.534 4.0881 32.615 4.1061 C 32.704 4.1188 32.775 4.1581 32.827 4.2235 C 32.878 4.2889 32.904 4.3609 32.904 4.4398 L 32.904 11.729 C 32.904 11.794 32.901 11.86 32.894 11.928 C 32.888 11.995 32.859 12.047 32.81 12.082 C 32.765 12.116 32.686 12.136 32.574 12.14 C 32.462 12.145 32.356 12.147 32.257 12.147 L 31.637 12.147 C 31.345 12.147 31.059 12.121 30.778 12.069 C 30.497 12.016 30.256 11.892 30.053 11.696 C 29.959 11.599 29.882 11.473 29.821 11.316 C 29.761 11.159 29.711 10.986 29.673 10.799 C 29.635 10.611 29.604 10.413 29.582 10.204 C 29.559 9.9944 29.537 9.7764 29.514 9.5499 L 29.036 9.5499 L 29.326 12.697 L 37.851 12.697 L 38.127 9.5499 Z " fill-rule="evenodd"/>
<path transform="matrix(.79858109,0,-.00000008335618,-.799125,11.641945,400.66929)" d="M 45.869 3.478 L 39.251 3.478 C 39.103 3.478 39.029 3.5496 39.029 3.6939 L 39.029 3.8379 C 39.029 3.8812 39.036 3.918 39.049 3.9491 L 44.44 12.226 L 42.534 12.226 C 42.152 12.226 41.772 12.194 41.395 12.131 C 41.017 12.067 40.687 11.909 40.404 11.657 C 40.139 11.408 39.958 11.108 39.862 10.757 C 39.765 10.405 39.707 10.025 39.689 9.6153 L 39.204 9.6153 L 39.379 12.762 L 45.809 12.762 C 45.966 12.762 46.043 12.69 46.038 12.547 L 46.038 12.429 C 46.038 12.402 46.027 12.365 46.004 12.318 L 40.626 4.0538 L 42.614 4.0538 C 43.032 4.0534 43.447 4.0869 43.858 4.1548 C 44.269 4.2223 44.618 4.3957 44.905 4.6754 C 45.058 4.8144 45.178 4.9792 45.263 5.169 C 45.348 5.3587 45.417 5.5615 45.469 5.7775 C 45.52 5.9934 45.555 6.2166 45.573 6.4481 C 45.591 6.6792 45.611 6.9257 45.633 7.1879 L 46.112 7.1879 Z " fill-rule="evenodd"/>
<path transform="matrix(.79858109,0,-.00000008335618,-.799125,11.641945,400.66929)" d="M 56.719 12.226 C 56.504 12.226 56.311 12.21 56.143 12.18 C 55.974 12.149 55.812 12.097 55.654 12.023 C 55.367 11.874 55.14 11.667 54.973 11.402 L 52.318 7.1813 L 52.318 4.4398 C 52.318 4.3609 52.333 4.2897 52.362 4.2268 C 52.392 4.1634 52.44 4.1209 52.507 4.0996 C 52.624 4.0599 52.797 4.037 53.026 4.0305 C 53.255 4.0239 53.493 4.0207 53.74 4.0211 L 53.74 3.478 C 53.022 3.5042 52.328 3.5173 51.658 3.5173 C 50.984 3.5173 50.29 3.5042 49.575 3.478 L 49.575 4.0211 C 49.822 4.0207 50.061 4.0239 50.29 4.0305 C 50.519 4.037 50.692 4.0599 50.809 4.0996 C 50.872 4.1209 50.919 4.1634 50.95 4.2268 C 50.982 4.2897 50.997 4.3609 50.997 4.4398 L 50.997 7.1813 L 48.106 11.781 C 48.057 11.864 47.999 11.938 47.931 12.003 C 47.864 12.069 47.783 12.119 47.689 12.154 C 47.563 12.193 47.403 12.215 47.21 12.219 C 47.017 12.223 46.813 12.226 46.597 12.226 L 46.597 12.769 C 47.186 12.738 47.749 12.723 48.288 12.723 C 48.378 12.723 48.47 12.727 48.565 12.736 C 49.198 12.736 49.856 12.744 50.539 12.762 L 50.539 12.226 C 50.355 12.226 50.191 12.221 50.047 12.212 C 49.903 12.203 49.775 12.171 49.663 12.115 C 49.618 12.093 49.593 12.051 49.589 11.99 C 49.575 11.972 49.568 11.959 49.568 11.951 C 49.568 11.92 49.584 11.887 49.616 11.853 L 52.116 7.888 L 54.36 11.467 C 54.419 11.558 54.452 11.65 54.461 11.742 L 54.461 11.788 C 54.461 11.861 54.434 11.931 54.38 11.997 C 54.317 12.084 54.227 12.144 54.108 12.176 C 53.989 12.209 53.844 12.226 53.673 12.226 L 53.673 12.762 C 54.208 12.744 54.72 12.736 55.209 12.736 C 55.272 12.727 55.335 12.723 55.398 12.723 C 55.821 12.723 56.261 12.738 56.719 12.769 L 56.719 12.226 Z " fill-rule="evenodd"/>
<path transform="matrix(.79858109,0,-.00000008335618,-.799125,11.641945,400.66929)" d="M 65.79 9.5499 C 65.768 9.7764 65.747 9.9944 65.726 10.204 C 65.706 10.413 65.676 10.611 65.636 10.799 C 65.595 10.986 65.546 11.161 65.487 11.323 C 65.429 11.484 65.355 11.608 65.265 11.696 C 65.063 11.892 64.819 12.016 64.533 12.069 C 64.248 12.121 63.959 12.147 63.667 12.147 L 63.047 12.147 C 62.944 12.147 62.839 12.145 62.731 12.14 C 62.623 12.136 62.544 12.116 62.495 12.082 C 62.454 12.051 62.429 12.002 62.42 11.934 C 62.411 11.867 62.407 11.798 62.407 11.729 L 62.407 4.4398 C 62.407 4.3523 62.432 4.2779 62.481 4.217 C 62.531 4.1556 62.6 4.1188 62.69 4.1061 C 62.771 4.0881 62.877 4.073 63.007 4.0599 C 63.137 4.0468 63.278 4.037 63.428 4.0305 C 63.579 4.0239 63.733 4.0207 63.89 4.0211 L 64.409 4.0211 L 64.409 3.478 C 63.488 3.5042 62.591 3.5173 61.72 3.5173 C 60.844 3.5173 59.948 3.5042 59.031 3.478 L 59.031 4.0211 L 59.543 4.0211 C 59.709 4.0207 59.867 4.0239 60.015 4.0305 C 60.163 4.037 60.303 4.0468 60.436 4.0599 C 60.568 4.073 60.675 4.0881 60.756 4.1061 C 60.846 4.1188 60.917 4.1581 60.968 4.2235 C 61.02 4.2889 61.046 4.3609 61.046 4.4398 L 61.046 11.729 C 61.046 11.794 61.042 11.86 61.036 11.928 C 61.029 11.995 61.001 12.047 60.952 12.082 C 60.907 12.116 60.828 12.136 60.716 12.14 C 60.604 12.145 60.498 12.147 60.399 12.147 L 59.779 12.147 C 59.487 12.147 59.2 12.121 58.92 12.069 C 58.639 12.016 58.397 11.892 58.195 11.696 C 58.101 11.599 58.023 11.473 57.963 11.316 C 57.902 11.159 57.853 10.986 57.814 10.799 C 57.776 10.611 57.746 10.413 57.723 10.204 C 57.701 9.9944 57.678 9.7764 57.656 9.5499 L 57.177 9.5499 L 57.467 12.697 L 65.993 12.697 L 66.269 9.5499 Z " fill-rule="evenodd"/>
<path transform="matrix(.79858109,0,-.00000008335618,-.799125,11.641945,400.66929)" d="M 75.645 9.5499 C 75.622 9.7764 75.601 9.9944 75.581 10.204 C 75.561 10.413 75.53 10.611 75.49 10.799 C 75.45 10.986 75.4 11.161 75.342 11.323 C 75.283 11.484 75.209 11.608 75.119 11.696 C 74.917 11.892 74.673 12.016 74.388 12.069 C 74.102 12.121 73.814 12.147 73.522 12.147 L 72.902 12.147 C 72.799 12.147 72.693 12.145 72.585 12.14 C 72.477 12.136 72.399 12.116 72.349 12.082 C 72.309 12.051 72.284 12.002 72.275 11.934 C 72.266 11.867 72.261 11.798 72.261 11.729 L 72.261 4.4398 C 72.261 4.3523 72.286 4.2779 72.336 4.217 C 72.385 4.1556 72.455 4.1188 72.544 4.1061 C 72.625 4.0881 72.731 4.073 72.861 4.0599 C 72.992 4.0468 73.132 4.037 73.283 4.0305 C 73.433 4.0239 73.587 4.0207 73.744 4.0211 L 74.263 4.0211 L 74.263 3.478 C 73.342 3.5042 72.446 3.5173 71.574 3.5173 C 70.698 3.5173 69.802 3.5042 68.885 3.478 L 68.885 4.0211 L 69.397 4.0211 C 69.564 4.0207 69.721 4.0239 69.869 4.0305 C 70.018 4.037 70.158 4.0468 70.29 4.0599 C 70.423 4.073 70.53 4.0881 70.611 4.1061 C 70.701 4.1188 70.771 4.1581 70.823 4.2235 C 70.874 4.2889 70.9 4.3609 70.9 4.4398 L 70.9 11.729 C 70.9 11.794 70.897 11.86 70.89 11.928 C 70.884 11.995 70.856 12.047 70.806 12.082 C 70.761 12.116 70.683 12.136 70.57 12.14 C 70.458 12.145 70.352 12.147 70.253 12.147 L 69.633 12.147 C 69.341 12.147 69.055 12.121 68.774 12.069 C 68.494 12.016 68.252 11.892 68.049 11.696 C 67.955 11.599 67.878 11.473 67.817 11.316 C 67.757 11.159 67.707 10.986 67.669 10.799 C 67.631 10.611 67.6 10.413 67.578 10.204 C 67.555 9.9944 67.533 9.7764 67.51 9.5499 L 67.032 9.5499 L 67.322 12.697 L 75.847 12.697 L 76.123 9.5499 Z " fill-rule="evenodd"/>
</g>
</g>
</g>
</g>
</g>
</g>
</svg>
